<svg x="0" y="0" width="246px" height="83px" overflow="inherit" viewBox="0, 0, 246, 83" preserveAspectRatio="xMidYMid" font-size="0" xml:space="default" xmlns="http://www.w3.org/2000/svg" xmlns:xlink="http://www.w3.org/1999/xlink" xmlns:xml="http://www.w3.org/XML/1998/namespace" version="1.1"><title xml:space="default">Ингосстрах</title><desc xml:space="default">Created with Sketch.</desc><defs xml:space="default" /><g fill-rule="evenOdd" id="Page-1" xml:space="default" style="fill:none;"><g transform="translate(0, -8)" id="Artboard" xml:space="default" style="fill:#312783;"><g transform="translate(0, 7)" id="Ингосстрах" xml:space="default"><path d="M7.727775 33.21146 L14.38348 14.27281 L14.38348 14.31753 L14.38348 14.27281 L22.28984 14.27281 L22.28984 17.89062 L20.45788 17.89062 L20.45788 37.85774 L22.28984 37.85774 L22.28984 41.47555 L12.73039 41.47555 L12.73039 37.85774 L14.56235 37.85774 L14.56235 22.71437 L7.996072 41.47555 L0.0002794754 41.47555 L0.0002794754 37.85774 L1.830844 37.85774 L1.830844 17.89062 L0.0002794754 17.89062 L0.0002794754 14.27281 L9.559736 14.27281 L9.559736 17.89062 L7.727775 17.89062 L7.727775 33.21146 z M57.13205 17.89062 L57.13205 37.85774 L59.72278 37.85774 L59.72278 41.47555 L49.40455 41.47555 L49.40455 37.85774 L51.23512 37.85774 L51.23512 17.89062 L49.40455 17.89062 L49.40455 14.27281 L65.70914 14.27281 L65.70914 21.86616 L63.02898 21.86616 C63.02898 19.09656 61.46531 17.89062 59.67807 17.89062 L57.13205 17.89062 z M184.4834 33.16675 L178.4984 33.16675 L177.2031 37.85774 L178.1854 37.85774 L178.1854 41.47555 L172.3346 41.47555 L172.3346 37.85774 L173.6747 37.85774 L179.2139 17.89062 L178.6326 17.89062 L178.6326 14.27281 L185.4672 14.27281 L185.4672 15.3446 L185.6893 15.3446 L191.944 37.85774 L193.0172 37.85774 L193.0172 41.47555 L184.7531 41.47555 L184.7531 37.85774 L185.7802 37.85774 L184.4834 33.16675 z M179.3466 30.21828 L183.6799 30.21828 L181.4916 22.40275 L179.3466 30.21828 z M212.5819 17.89062 L211.0168 17.89062 L206.5508 25.75226 L212.6699 37.85774 L214.6807 37.85774 L214.6807 41.47555 L205.166 41.47555 L205.166 37.85774 L206.5508 37.85774 L203.2893 31.46893 L199.6715 37.85774 L200.6539 37.85774 L200.6539 41.47555 L195.2949 41.47555 L195.2949 37.85774 L196.41 37.85774 L201.7704 28.43243 L196.41 17.89062 L194.2217 17.89062 L194.2217 14.27281 L203.7379 14.27281 L203.7379 17.89062 L202.5305 17.89062 L204.9871 22.71437 L207.712 17.89062 L207.2215 17.89062 L207.2215 14.27281 L212.5819 14.27281 L212.5819 17.89062 z M77.81322 16.9963 C74.86616 16.9963 72.45289 21.91087 72.45289 27.89584 C72.45289 33.88221 74.86616 38.79538 77.81322 38.79538 C80.7617 38.79538 83.17357 33.88221 83.17357 27.89584 C83.17357 21.91087 80.7617 16.9963 77.81322 16.9963 z M77.81322 13.42321 C84.02317 13.42321 89.0705 19.90005 89.0705 27.89584 C89.0705 35.89163 84.02317 42.36848 77.81322 42.36848 C71.60468 42.36848 66.55735 35.89163 66.55735 27.89584 C66.55735 19.90005 71.60468 13.42321 77.81322 13.42321 z M102.0703 13.42321 C104.6596 13.42321 108.4563 14.53971 110.3777 16.50582 L110.3777 21.82144 L107.5201 21.82144 C106.5363 18.91769 105.6434 16.9963 102.4266 16.9963 C99.47816 16.9963 96.70856 21.91087 96.70856 27.89584 C96.70856 33.88221 99.5676 38.79538 102.5161 38.79538 C104.7938 38.79538 107.6081 35.93774 108.413 31.96081 L110.3777 31.96081 L110.3777 39.28726 C108.4563 41.25197 104.6596 42.36848 102.0703 42.36848 C95.86035 42.36848 90.81303 35.89163 90.81303 27.89584 C90.81303 19.90005 95.86035 13.42321 102.0703 13.42321 z M123.0198 13.42321 C125.6552 13.42321 129.4505 14.53971 131.3272 16.50582 L131.3272 21.82144 L128.4682 21.82144 C127.5305 18.91769 126.6376 16.9963 123.4208 16.9963 C120.4738 16.9963 117.7042 21.91087 117.7042 27.89584 C117.7042 33.88221 120.5632 38.79538 123.5103 38.79538 C125.7447 38.79538 128.6037 35.93774 129.4072 31.96081 L131.3272 31.96081 L131.3272 39.28726 C129.4505 41.25197 125.6552 42.36848 123.0198 42.36848 C116.8545 42.36848 111.7625 35.89163 111.7625 27.89584 C111.7625 19.90005 116.8545 13.42321 123.0198 13.42321 z M152.5897 14.27281 L133.4722 14.27281 L133.4722 21.82144 L136.197 21.82144 C136.5087 19.7659 138.1184 17.98005 139.949 17.39874 L139.949 37.85774 L138.1631 37.85774 L138.1631 41.47555 L147.6318 41.47555 L147.6318 37.85774 L145.8459 37.85774 L145.8459 17.30931 C147.8106 17.8459 149.5532 19.67647 149.8662 21.82144 L152.5897 21.82144 L152.5897 14.27281 z M162.4174 17.93534 L163.7575 17.93534 C166.2141 17.93534 168.2235 19.94477 168.2235 22.40275 L168.2235 23.56397 C168.2235 26.02056 166.3035 28.07471 163.8469 28.07471 L162.4607 28.07471 L162.4174 28.07471 L162.4174 17.93534 z M166.2141 14.27281 L154.6899 14.27281 L154.6899 17.89062 L156.4758 17.89062 L156.4758 37.85774 L154.6899 37.85774 L154.6899 41.47555 L164.2047 41.47555 L164.2047 37.85774 L162.4174 37.85774 L162.4174 31.46893 L166.3496 31.46893 C171.3523 31.46893 174.0324 27.00292 174.0324 22.62493 C173.9863 18.24835 171.2181 14.27281 166.2141 14.27281 z M24.74643 14.27281 L34.30589 14.27281 L34.30589 17.89062 L32.47393 17.89062 L32.47393 25.97584 L39.22046 25.97584 L39.22046 17.89062 L37.43322 17.89062 L37.43322 14.27281 L46.94656 14.27281 L46.94656 17.89062 L45.16071 17.89062 L45.16071 37.85774 L46.94656 37.85774 L46.94656 41.47555 L37.43322 41.47555 L37.43322 37.85774 L39.22046 37.85774 L39.22046 28.92291 L32.47393 28.92291 L32.47393 37.85774 L34.30589 37.85774 L34.30589 41.47555 L24.74643 41.47555 L24.74643 37.85774 L26.57839 37.85774 L26.57839 17.89062 L24.74643 17.89062 L24.74643 14.27281 z" id="Fill-1" xml:space="default" /><g transform="translate(34.93443, 0.732226)" id="Group-5" xml:space="default"><path d="M61.81955 68.70666 C60.47946 68.70666 60.88191 66.6064 62.62304 64.06038 C64.36557 61.46964 66.68801 59.37078 68.11752 59.37078 C69.50233 59.37078 68.96574 61.87209 67.13517 64.46282 C65.25849 67.05357 63.15963 68.70666 61.81955 68.70666 z M80.58073 68.79469 C79.24065 68.84081 79.59837 66.69724 81.25008 64.06038 C82.90318 61.46964 85.1809 59.28135 86.5657 59.23663 C87.99522 59.19192 87.50334 61.73794 85.76221 64.32867 C83.97496 66.96413 81.96553 68.75137 80.58073 68.79469 z M151.8288 68.79469 C150.4887 68.84081 150.845 66.69724 152.4981 64.06038 C154.1512 61.46964 156.429 59.28135 157.8138 59.23663 C159.2433 59.19192 158.7514 61.73794 157.0103 64.32867 C155.2216 66.96413 153.1689 68.75137 151.8288 68.79469 z M129.7614 55.03752 L131.2343 53.16084 L134.6299 52.93866 L129.7614 55.03752 z M63.60679 72.05618 C63.60679 72.05618 60.47946 77.90839 58.1123 79.96393 C56.28034 81.5262 54.36035 81.03432 55.70043 78.84743 C56.9944 76.65774 59.27353 74.87049 60.47946 74.067 C61.64068 73.30682 63.60679 72.05618 63.60679 72.05618 z M98.80533 65.17828 C98.80533 65.17828 98.44759 66.92081 96.88393 68.03732 C95.81354 68.84081 94.24988 68.66194 94.8745 67.67959 C95.45581 66.74195 98.80533 65.17828 98.80533 65.17828 z M111.045 65.17828 C111.045 65.17828 110.6872 66.92081 109.1683 68.03732 C108.0965 68.84081 106.5775 68.66194 107.1588 67.67959 C107.7402 66.74195 111.045 65.17828 111.045 65.17828 z M178.7199 59.72851 C179.3446 60.04152 179.4326 60.84502 178.2714 62.00624 C177.0654 63.16746 174.43 63.88291 174.0737 63.48047 C173.6712 63.12274 174.2064 62.27314 175.2796 61.24606 C176.3067 60.21899 178.0925 59.4155 178.7199 59.72851 z M177.289 56.91419 C177.7362 56.33428 179.8364 53.51997 182.3825 50.88311 C184.0789 49.05255 185.9108 47.2653 186.9826 47.22059 C188.1005 47.22059 186.8932 49.36417 183.1859 52.49149 C179.5234 55.57411 177.289 56.91419 177.289 56.91419 z M196.6748 56.91419 C197.1234 56.33428 199.2222 53.51997 201.7683 50.88311 C203.4661 49.05255 205.2966 47.2653 206.3698 47.22059 C207.4863 47.22059 206.279 49.36417 202.5718 52.49149 C198.9092 55.57411 196.6748 56.91419 196.6748 56.91419 z M53.77904 15.461 C54.71668 9.519353 54.27092 4.785038 50.74114 4.159014 C44.66674 3.042509 38.14518 7.018047 33.14257 11.66433 L30.68459 11.66433 C34.39323 7.732107 39.5747 3.355522 45.55967 1.568276 C56.28034 -1.602372 57.84401 3.935433 57.21798 12.55725 L53.77904 15.461 z M37.47444 60.04152 C37.47444 60.04152 42.96893 58.92362 43.41609 59.77183 C43.7291 60.30842 42.43233 62.05095 40.82535 64.24064 C39.12754 66.51836 37.11671 69.28797 36.62623 70.09146 L40.19933 70.09146 C42.74535 66.87469 45.87268 63.79208 48.77643 60.93445 C50.51896 59.23663 51.76821 59.28135 50.0718 61.46964 C48.37398 63.65933 46.05154 65.93706 46.81032 69.06438 C47.57049 72.19032 52.92943 67.90317 55.16384 66.56308 C57.44156 65.26632 58.96051 64.32867 58.96051 64.32867 C58.96051 64.32867 57.21798 69.01967 60.25588 70.00203 C63.24907 70.98438 65.66093 68.12535 65.52679 68.39365 L64.54443 70.09146 C64.54443 70.09146 56.77222 73.57512 54.04734 78.2214 C51.27773 82.86628 56.68279 83.62646 59.72069 80.76743 C62.75719 77.9531 66.55386 71.69984 66.55386 71.69984 C66.55386 71.69984 70.35053 68.48308 72.49551 67.143 C74.6838 65.80291 77.81113 63.92623 77.81113 63.92623 C77.81113 63.92623 76.29218 67.90317 78.88292 69.60098 C81.42894 71.29739 85.58334 68.48308 86.74456 67.143 C87.86107 65.80291 98.93948 59.46022 98.93948 59.46022 C99.16306 60.8003 99.34192 62.14038 99.02891 63.48047 C99.02891 63.48047 92.86368 65.62405 92.68481 68.08203 C92.50735 70.58334 94.78507 70.67137 97.3772 69.9126 C101.8432 68.57251 100.7714 64.28396 101.1278 64.10509 L111.2238 59.37078 C111.2238 59.37078 111.3119 60.62144 111.3119 61.73794 C111.3119 62.89916 111.2238 63.65933 111.2238 63.65933 C111.2238 63.65933 104.5234 65.53461 105.0153 68.39365 C105.461 71.20796 109.3024 70.18089 110.9108 69.33128 C112.5192 68.48308 113.0991 67.05357 113.2794 66.11592 C113.5015 65.17828 113.5015 64.32867 113.5015 64.32867 L123.8212 59.28135 C123.8212 59.28135 120.2914 63.92623 119.2643 66.20535 C118.2373 68.48308 119.6221 71.69984 123.5082 69.42212 C127.3929 67.143 131.8617 63.79208 134.2288 62.09567 C135.1665 61.42493 136.0594 60.66615 136.8643 60.21899 C138.1583 59.54965 139.0079 59.50493 137.8914 61.02388 C135.97 63.48047 130.9226 70.35976 130.9226 70.35976 L134.8982 70.27032 C134.8982 70.27032 137.5336 66.78526 138.3832 65.80291 C139.2314 64.86527 140.3032 64.10509 140.3032 64.10509 C140.3032 64.10509 139.6325 66.56308 141.9996 66.69724 C144.3682 66.78526 149.2814 63.34632 149.2814 63.34632 C149.2814 63.34632 147.5836 65.71348 149.2814 68.66194 C150.9792 71.61041 154.597 69.06438 155.3572 68.39365 C156.116 67.7243 156.3842 67.32186 156.3842 67.32186 C156.3842 67.32186 155.3572 72.72691 161.2974 68.92884 C167.2838 65.17828 170.7675 62.49811 170.7675 62.49811 L165.586 70.09146 L168.7133 70.09146 L171.9287 65.62405 C171.9287 65.62405 171.4382 68.39365 173.8054 69.51015 C176.1725 70.67137 180.2822 68.08203 184.1236 65.80291 C188.0097 63.5699 190.1994 62.58615 190.1994 62.58615 L184.7929 70.00203 L188.2333 70.00203 C188.2333 70.00203 190.6018 66.78526 193.2359 64.01706 C195.8713 61.29078 199.9824 58.16484 198.3726 60.97916 C196.7209 63.79208 194.6221 63.79208 194.7101 67.50072 C194.8009 71.16325 197.8822 70.67137 200.5176 68.08203 C203.1964 65.53461 204.7167 63.74737 204.7167 63.74737 L202.7073 63.92623 C202.7073 63.92623 200.0704 66.69724 199.0881 67.45461 C198.1505 68.17007 195.6925 69.15242 197.3022 66.78526 C198.9092 64.41951 199.9824 63.97095 200.6951 62.67698 C201.4105 61.38161 201.5894 57.53882 198.3726 58.38843 C196.7209 58.83559 194.576 60.88973 194.6654 60.8003 L195.6925 59.19192 C195.6925 59.19192 203.9566 54.59035 207.6191 50.25849 C211.3277 45.8805 212.0879 42.88732 207.3522 43.6461 C202.6165 44.40627 196.3632 52.26791 194.0855 55.88572 C191.8078 59.46022 191.45 60.12956 191.45 60.12956 L177.9598 67.76762 C175.1454 69.37601 174.6997 66.87469 174.743 65.31104 C176.4408 64.99942 178.5411 65.223 180.8188 62.76501 C183.0518 60.26371 180.9082 58.25428 180.4611 57.85183 C179.9692 57.4955 179.3893 57.40467 179.3893 57.40467 C179.3893 57.40467 186.2238 52.93866 189.1709 49.45499 C192.1208 45.92522 193.1465 42.35213 187.7428 43.6461 C182.3377 44.98618 176.2619 53.3397 174.4761 56.46703 C172.6875 59.59436 172.197 60.04152 172.197 60.04152 C172.197 60.04152 161.6999 67.05357 160.7608 67.63348 C159.7785 68.17007 157.7243 69.33128 159.3327 66.56308 C160.9397 63.8382 164.5589 58.34371 164.5589 58.34371 L161.2974 58.34371 L160.3598 59.77183 C160.3598 59.77183 159.1539 56.6459 155.0428 58.52258 C150.9792 60.44257 150.4426 61.0672 150.4426 61.0672 C150.4426 61.0672 146.4685 63.25689 144.8154 64.19453 C143.207 65.17828 141.1514 66.29339 141.688 63.8382 C142.0458 62.36396 144.7706 61.33689 145.8872 60.21899 C146.6012 59.46022 146.2449 58.43174 145.0823 58.299 C142.7598 58.07541 141.4197 60.35314 140.8384 62.22982 L139.4536 62.94388 C138.9632 63.16746 142.1352 58.43174 138.7396 58.299 C136.8643 58.20816 134.6746 59.99681 132.218 61.73794 C129.1354 63.8382 126.0989 66.02649 124 67.45461 C124 67.45461 122.1234 69.06438 121.542 68.48308 C120.9621 67.90317 123.4187 64.41951 125.2493 61.73794 C127.0365 59.10249 128.8238 56.95891 128.8238 56.95891 L139.8114 51.73272 L139.5445 51.15141 L132.7099 50.97394 L138.0255 43.55806 L134.2288 43.55806 L129.4037 50.65953 L91.74717 50.92783 L91.74717 53.608 L127.7073 53.42913 L125.2493 56.55647 L113.1885 62.80973 L112.9216 59.37078 C112.9216 59.37078 114.9311 59.32607 114.5733 57.80712 C114.1709 56.28817 113.3674 56.3776 111.759 57.13778 C110.1506 57.89655 100.8162 62.67698 100.8162 62.67698 L100.6373 59.37078 C100.6373 59.37078 102.7809 59.28135 102.3351 57.7624 C101.9327 56.28817 100.9042 56.42232 98.98419 57.62825 C97.10751 58.87891 88.62124 63.92623 88.62124 63.92623 C88.62124 63.92623 90.49652 60.35314 87.77164 58.61061 C85.00204 56.91419 81.33951 59.46022 79.90999 60.62144 C78.48048 61.73794 68.74355 68.17007 68.74355 68.17007 L74.59437 58.43174 L71.28957 58.43174 L70.2625 59.9507 C70.2625 59.9507 69.86005 57.40467 66.06338 58.43174 C62.26671 59.46022 60.3006 61.55907 60.3006 61.55907 C60.3006 61.55907 52.5731 66.69724 51.14359 67.63348 C49.71407 68.57251 47.65853 69.10911 49.5352 66.6064 C50.60699 65.223 52.12594 63.07942 52.70725 62.22982 C53.28856 61.38161 53.64489 58.52258 51.36716 58.5659 C48.9539 58.5659 47.57049 60.75558 45.51495 62.49811 C45.20194 62.76501 47.25748 58.78947 44.71146 58.299 C42.20876 57.7624 38.68038 58.61061 38.59095 58.43174 C38.54623 58.25428 40.68981 56.15542 43.63827 51.50774 C46.54202 46.86286 48.37398 42.12715 48.37398 42.12715 C48.37398 42.12715 47.52578 42.70985 46.18569 43.28976 C44.84561 43.82496 44.30901 43.82496 44.30901 43.82496 C44.30901 43.82496 43.63827 45.92522 39.8416 51.41971 C36.04493 56.91419 34.43654 58.34371 34.43654 58.34371 C34.43654 58.34371 27.91498 58.61061 24.47604 54.27874 C21.08041 49.90076 20.99098 46.59596 20.81212 45.16505 C20.58993 43.73693 20.58993 42.79789 20.58993 42.79789 L18.89212 42.70985 C18.89212 42.70985 19.1157 50.48067 22.95709 54.7245 C26.8432 59.01305 33.18589 59.6838 33.18589 59.6838 C33.18589 59.6838 25.99499 68.92884 15.98837 68.92884 C5.938434 68.92884 4.240621 60.71087 4.240621 60.71087 C4.240621 60.71087 6.876074 62.40728 10.49388 62.22982 C14.06837 62.05095 17.4626 60.44257 17.01544 60.04152 C16.52496 59.6838 13.0399 60.35314 9.153799 59.86266 C5.267693 59.37078 1.025256 57.94127 1.025256 57.94127 C1.025256 57.94127 2.319227 66.11592 8.661922 69.42212 C15.00601 72.72691 22.68879 70.85023 26.75376 68.48308 C30.81874 66.11592 33.00703 64.41951 34.25768 63.16746 C35.46501 61.96152 37.47444 60.04152 37.47444 60.04152 z" id="Fill-3" xml:space="default" /></g></g></g></g></svg>