<?xml version="1.0" encoding="UTF-8" standalone="no"?>
<!-- Created with Inkscape (http://www.inkscape.org/) -->

<svg
   xmlns:dc="http://purl.org/dc/elements/1.1/"
   xmlns:cc="http://creativecommons.org/ns#"
   xmlns:rdf="http://www.w3.org/1999/02/22-rdf-syntax-ns#"
   xmlns:svg="http://www.w3.org/2000/svg"
   xmlns="http://www.w3.org/2000/svg"
   version="1.1"
   width="400"
   height="262"
   viewBox="0 0 112.88889 73.942223"
   id="svg2"
   xml:space="preserve"
   style="fill-rule:evenodd"><metadata
   id="metadata20"><rdf:RDF><cc:Work
       rdf:about=""><dc:format>image/svg+xml</dc:format><dc:type
         rdf:resource="http://purl.org/dc/dcmitype/StillImage" /><dc:title></dc:title></cc:Work></rdf:RDF></metadata>
 <defs
   id="defs4"><style
     type="text/css"
     id="style6" /><style
     type="text/css"
     id="style3031" /><style
     type="text/css"
     id="style3031-9" /><style
     type="text/css"
     id="style6-0" /></defs>
 <path
   d="m -3.8167935e-8,49.702416 2.278075438167935,0 0,4.014171 3.6046579,-4.014171 2.9484886,0 -4.2862288,4.546893 4.4725866,5.188817 -3.0747846,0 -3.6647197,-4.500362 0,4.500362 -2.278075438167937,0 0,-9.73571 z M 25.300502,52.188216 l -2.632987,7.24991 -2.611382,0 4.116726,-9.73571 2.255523,0 4.116726,9.73571 -2.611383,0 -2.633223,-7.24991 z m -10.803291,0 -1.312576,3.614391 2.625389,0 -1.312813,-3.614391 z m -1.959962,5.396541 -0.673024,1.853369 -2.6113835,0 4.1167265,-9.73571 2.255523,0 4.116726,9.73571 -2.611383,0 -0.673262,-1.853369 -3.919923,0 z m 23.710169,-5.396541 -1.312576,3.614391 2.62539,0 -1.312814,-3.614391 z m -1.959961,5.396541 -0.673025,1.853369 -2.611382,0 4.116726,-9.73571 2.255522,0 4.116727,9.73571 -2.611383,0 -0.673262,-1.853369 -3.919923,0 z m 8.9117,-7.882341 2.354043,0 0,7.859313 3.100661,0 0,-7.859313 2.354043,0 0,7.859313 3.100661,0 0,-7.859313 2.354043,0 0,9.735473 -13.263451,0 0,-9.735473 z m 34.259444,0 2.354043,0 0,9.735473 -2.354043,0 0,-6.185891 -3.786505,6.185891 -2.465383,0 0,-9.735473 2.354043,0 0,6.611547 3.897845,-6.611547 z m -15.57951,3.802886 3.897845,0 0,-3.802886 2.354043,0 0,9.735473 -2.354043,0 0,-4.056427 -3.897845,0 0,4.056427 -2.354043,0 0,-9.735473 2.354043,0 0,3.802886 z m 21.144841,-3.802886 2.278076,0 0,4.014171 3.604658,-4.014171 2.948488,0 -4.286229,4.546893 4.472587,5.188817 -3.074785,0 -3.664719,-4.500362 0,4.500362 -2.278076,0 0,-9.73571 z m 14.694726,-0.401915 c 2.956092,0 5.352392,2.35974 5.352392,5.270008 0,2.909318 -2.3963,5.269058 -5.352392,5.269058 -2.954898,0 -5.351198,-2.35974 -5.351198,-5.269058 0,-2.910268 2.3963,-5.270008 5.351198,-5.270008 z m 4.75e-4,2.189051 c 1.552111,0 2.809847,1.37881 2.809847,3.080719 0,1.701435 -1.257736,3.080483 -2.809847,3.080483 -1.551636,0 -2.80961,-1.379048 -2.80961,-3.080483 0,-1.701909 1.257974,-3.080719 2.80961,-3.080719 z m 7.438407,-1.787136 4.90465,0 c 1.30095,0 2.35642,1.055474 2.35642,2.35713 0,1.066631 -0.71006,1.96732 -1.68244,2.257659 1.1509,0.264936 2.01029,1.296433 2.01029,2.527818 0,1.431513 -1.16159,2.592866 -2.59334,2.592866 l -4.99558,0 0,-9.735473 z m 4.14569,5.73341 c 0.62008,-2.37e-4 1.12289,0.503047 1.12289,1.122895 0,0.620085 -0.50304,1.123132 -1.12289,1.122894 l -1.79165,-4.74e-4 0,-2.244603 1.79165,-7.12e-4 z m -0.17188,-3.857487 c 0.54744,0 0.99114,0.44346 0.99114,0.991138 0,0.547441 -0.44393,0.991139 -0.99114,0.991139 l -1.61977,-2.37e-4 0,-1.981803 1.61977,-2.37e-4 z"
   id="path10"
   style="fill:#000000" /><path
   d="m -3.8167935e-8,62.00203 2.278075438167935,0 0,4.01417 3.6046579,-4.01417 2.9484886,0 -4.2862288,4.546892 4.4725866,5.188818 -3.0747846,0 -3.6647197,-4.500363 0,4.500363 -2.278075438167937,0 0,-9.73571 z M 66.400819,65.804915 l 3.897845,0 0,-3.802885 2.354042,0 0,9.735472 -2.354042,0 0,-4.056427 -3.897845,0 0,4.056427 -2.354043,0 0,-9.735472 2.354043,0 0,3.802885 z m -11.667422,-3.802885 4.429618,0 c 1.679356,0 3.041549,1.362192 3.041549,3.041548 0,1.679357 -1.36243,3.041549 -3.041549,3.041549 l -2.075575,0 0,3.652375 -2.354043,0 0,-9.735472 z m 2.354043,1.87616 0,2.330777 1.604102,2.38e-4 c 0.643824,0 1.165863,-0.522039 1.165863,-1.165864 0,-0.64335 -0.522276,-1.165389 -1.165863,-1.165389 l -1.604102,2.38e-4 z m -5.021214,-1.87616 0,1.87616 -4.294538,0 0,1.926725 4.096785,0 0,1.87616 -4.096785,0 0,2.053734 4.449559,0 0,2.002693 -6.803602,0 0,-9.735472 6.648581,0 z m -18.353986,9.735472 0,-9.735472 2.354043,0 0,7.859312 3.897845,0 0,-7.859312 2.354043,0 0,7.859312 1.034108,0 0,4.08088 -2.032368,0 0,-2.20472 -7.607671,0 z m -9.201088,-5.932587 3.897845,0 0,-3.802885 2.354043,0 0,9.735472 -2.354043,0 0,-4.056427 -3.897845,0 0,4.056427 -2.354043,0 0,-9.735472 2.354043,0 0,3.802885 z m -9.797909,-4.204564 c 2.956086,0 5.352385,2.359741 5.352385,5.270008 0,2.909318 -2.396299,5.269059 -5.352385,5.269059 -2.954898,0 -5.3511981,-2.359741 -5.3511981,-5.269059 0,-2.910267 2.3963001,-5.270008 5.3511981,-5.270008 z m 4.75e-4,2.189051 c 1.552111,0 2.809848,1.378811 2.809848,3.08072 0,1.701435 -1.257737,3.080482 -2.809848,3.080482 -1.551636,0 -2.809611,-1.379047 -2.809611,-3.080482 0,-1.701909 1.257975,-3.08072 2.809611,-3.08072 z"
   id="path12"
   style="fill:#b3b2b2;fill-opacity:1" /><polygon
   points="126.559,93.7024 137.157,93.7024 131.858,99.0017 137.157,104.301 126.559,104.301 "
   transform="matrix(2.3739844,0,0,2.3739844,-293.22268,-215.01821)"
   id="polygon14"
   style="fill:#ec0829;fill-opacity:1" /><polygon
   points="123.515,90.6582 140.202,90.6582 136.052,94.8074 127.664,94.8074 127.664,103.196 136.052,103.196 140.202,107.345 123.515,107.345 "
   transform="matrix(2.3739844,0,0,2.3739844,-293.22268,-215.01821)"
   id="polygon16"
   style="fill:#000000" />
</svg>