<?xml version="1.0" encoding="UTF-8" standalone="no"?>

<svg
   xmlns:dc="http://purl.org/dc/elements/1.1/"
   xmlns:cc="http://creativecommons.org/ns#"
   xmlns:rdf="http://www.w3.org/1999/02/22-rdf-syntax-ns#"
   xmlns:svg="http://www.w3.org/2000/svg"
   xmlns="http://www.w3.org/2000/svg"
   xmlns:sodipodi="http://sodipodi.sourceforge.net/DTD/sodipodi-0.dtd"
   xmlns:inkscape="http://www.inkscape.org/namespaces/inkscape"
   version="1.1"
   id="Слой_1"
   x="0px"
   y="0px"
   viewBox="-5 -3 208.00001 43.000002"
   xml:space="preserve"
   sodipodi:docname="logo-header.svg"
   inkscape:version="0.92.2 (5c3e80d, 2017-08-06)"><metadata
     id="metadata3799"><rdf:RDF><cc:Work
         rdf:about=""><dc:format>image/svg+xml</dc:format><dc:type
           rdf:resource="http://purl.org/dc/dcmitype/StillImage" /><dc:title></dc:title></cc:Work></rdf:RDF></metadata><defs
     id="defs3797" /><sodipodi:namedview
     pagecolor="#ffffff"
     bordercolor="#666666"
     borderopacity="1"
     objecttolerance="10"
     gridtolerance="10"
     guidetolerance="10"
     inkscape:pageopacity="0"
     inkscape:pageshadow="2"
     inkscape:window-width="1920"
     inkscape:window-height="1017"
     id="namedview3795"
     showgrid="false"
     inkscape:zoom="2.7196922"
     inkscape:cx="80.733204"
     inkscape:cy="23.532075"
     inkscape:window-x="-8"
     inkscape:window-y="-8"
     inkscape:window-maximized="1"
     inkscape:current-layer="Слой_1" /><style
     type="text/css"
     id="style3750">
	.st0{fill:#EB5F0A;}
	.st1{fill:none;}
</style><g
     id="g3790"
     transform="matrix(0.77393546,0,0,0.82656194,-142.59354,-106.56057)"><path
       class="st0"
       d="m 335.4,161.4 h 5.9 V 138.2 H 324 v 2.8 c 0,10.1 -1.3,13.9 -5.3,15.3 v 5 c 1.5,-0.2 10.7,-1.7 10.8,-16.7 v -1.5 h 6.1 v 18.3 z"
       id="path3752"
       inkscape:connector-curvature="0"
       style="fill:#eb5f0a" /><polygon
       class="st0"
       points="302.4,161.4 308.3,161.4 308.3,143.3 319,143.3 319,138.2 302.4,138.2 "
       id="polygon3754"
       style="fill:#eb5f0a" /><path
       class="st0"
       d="m 359.2,138 h -5.8 l -9.7,23.4 h 6.2 l 1.8,-4.3 h 9.1 l 1.8,4.3 h 6.3 z m -5.8,14.6 2.9,-7.3 2.9,7.3 z"
       id="path3756"
       inkscape:connector-curvature="0"
       style="fill:#eb5f0a" /><polygon
       class="st0"
       points="399.6,138.2 393.7,138.2 393.7,161.4 399.3,161.4 409.6,147.9 409.6,161.4 415.4,161.4 415.4,138.2 409.8,138.2 399.6,152 "
       id="polygon3758"
       style="fill:#eb5f0a" /><polygon
       class="st0"
       points="438.7,152.1 438.7,147.6 426.6,147.6 426.6,143.7 439.8,143.7 439.8,138.2 420.8,138.2 420.8,161.4 440,161.4 440,156.4 426.6,156.4 426.6,152.1 "
       id="polygon3760"
       style="fill:#eb5f0a" /><path
       class="st0"
       d="m 287.1,137.8 c -4.1,0 -7.7,2 -10,5.1 0,0 0,0 0,0 -2.6,3.5 -6,13.1 -13,13.1 -4.4,0 -6.8,-3.3 -6.5,-6.7 0.3,-3.5 3.3,-6.1 6.7,-5.8 1.9,0.1 3.5,1.1 4.6,2.6 l 3.5,-4.8 c -2,-2 -4.6,-3.3 -7.6,-3.5 -6.7,-0.5 -12.4,4.5 -12.9,11.2 -0.5,6.7 4.5,12.4 11.2,12.9 0.4,0 0.9,0 1.3,0 h 0.1 c 2.8,0 6,-1.2 8.1,-2.8 1.6,-1.2 2.8,-2.5 3.8,-3.8 2,3.9 6.2,6.6 10.9,6.6 6.7,0 12.1,-5.4 12.1,-12.1 -0.2,-6.6 -5.6,-12 -12.3,-12 m 1.8,18 c -0.6,0.2 -1.2,0.3 -1.9,0.3 -2.6,0 -4.8,-1.6 -5.8,-3.8 -0.3,-0.8 -0.5,-1.6 -0.5,-2.4 0,-0.9 0.2,-1.7 0.5,-2.4 1,-2.3 3.2,-3.8 5.8,-3.8 0.6,0 1.3,0.1 1.9,0.3 2.6,0.8 4.4,3.1 4.4,6 0.1,2.7 -1.8,5 -4.4,5.8"
       id="path3762"
       inkscape:connector-curvature="0"
       style="fill:#eb5f0a" /><path
       class="st0"
       d="m 386.1,154.2 -0.5,0.5 v 0 c -1.2,1.1 -2.7,1.6 -4.3,1.6 -3.6,0 -6.5,-2.9 -6.5,-6.5 0,-3.6 2.9,-6.5 6.5,-6.5 1.8,0 3.6,0.8 4.8,2.2 l 0.2,-0.2 2.9,-4 c -2.2,-2.2 -5.2,-3.4 -8.2,-3.4 -6.6,0 -11.9,5.4 -11.9,11.9 0,6.6 5.4,11.9 11.9,11.9 3.3,0 6.5,-1.4 8.8,-4 z"
       id="path3764"
       inkscape:connector-curvature="0"
       style="fill:#eb5f0a" /><path
       class="st0"
       d="m 339.3,178.3 c -1.8,0 -3.1,-1.5 -3.1,-3.3 0,-1.8 1.3,-3.3 3,-3.3 1.1,0 1.9,0.5 2.6,1.2 l 0.8,-0.9 c -0.8,-0.8 -1.8,-1.5 -3.4,-1.5 -2.5,0 -4.3,2 -4.3,4.4 0,2.4 1.9,4.4 4.3,4.4 1.6,0 2.6,-0.7 3.5,-1.6 l -0.8,-0.8 c -0.7,0.8 -1.5,1.4 -2.6,1.4"
       id="path3766"
       inkscape:connector-curvature="0"
       style="fill:#eb5f0a" /><polygon
       class="st0"
       points="351.1,170.7 343.8,170.7 343.8,171.9 346.8,171.9 346.8,179.2 348.1,179.2 348.1,171.9 351.1,171.9 "
       id="polygon3768"
       style="fill:#eb5f0a" /><path
       class="st0"
       d="m 357.5,170.6 c -1.6,0 -2.6,0.9 -3.2,1.9 v -1.7 H 353 v 11.1 h 1.3 v -4.2 c 0.7,0.9 1.7,1.8 3.2,1.8 2,0 4,-1.6 4,-4.4 0,-2.9 -2,-4.5 -4,-4.5 m -0.3,7.6 c -1.6,0 -3.1,-1.3 -3.1,-3.3 0,-2 1.5,-3.3 3.1,-3.3 1.6,0 3,1.3 3,3.3 0,2.1 -1.3,3.3 -3,3.3"
       id="path3770"
       inkscape:connector-curvature="0"
       style="fill:#eb5f0a" /><path
       class="st0"
       d="m 367.3,170.6 c -1.2,0 -2.1,0.3 -3.1,0.7 l 0.4,1 c 0.8,-0.4 1.6,-0.6 2.6,-0.6 1.6,0 2.5,0.8 2.5,2.3 v 0.3 c -0.8,-0.2 -1.5,-0.4 -2.6,-0.4 -2.1,0 -3.6,0.9 -3.6,2.8 0,1.8 1.6,2.7 3.2,2.7 1.5,0 2.5,-0.7 3,-1.4 v 1.3 h 1.2 V 174 c 0,-1.1 -0.3,-1.9 -0.9,-2.5 -0.6,-0.6 -1.5,-0.9 -2.7,-0.9 m 2.4,5.5 c 0,1.3 -1.3,2.3 -2.8,2.3 -1.1,0 -2.1,-0.6 -2.1,-1.7 0,-1 0.9,-1.7 2.5,-1.7 1,0 1.8,0.2 2.5,0.4 v 0.7 z"
       id="path3772"
       inkscape:connector-curvature="0"
       style="fill:#eb5f0a" /><polygon
       class="st0"
       points="376.9,174 374.4,170.7 373,170.7 376.2,174.9 372.8,179.2 374.3,179.2 376.9,175.7 379.5,179.2 381,179.2 377.6,174.9 380.8,170.7 379.4,170.7 "
       id="polygon3774"
       style="fill:#eb5f0a" /><path
       class="st0"
       d="m 386.3,170.6 c -2.6,0 -4.4,2 -4.4,4.4 0,2.4 1.8,4.4 4.4,4.4 2.6,0 4.4,-2 4.4,-4.4 0,-2.4 -1.9,-4.4 -4.4,-4.4 m 0,7.7 c -1.8,0 -3.1,-1.5 -3.1,-3.3 0,-1.8 1.3,-3.3 3.1,-3.3 1.8,0 3.1,1.5 3.1,3.3 0,1.8 -1.3,3.3 -3.1,3.3"
       id="path3776"
       inkscape:connector-curvature="0"
       style="fill:#eb5f0a" /><path
       class="st0"
       d="m 398.4,174.8 c 0.7,-0.3 1.4,-0.8 1.4,-1.9 0,-1.3 -1.1,-2.1 -2.8,-2.1 h -4.1 v 8.5 h 4.2 c 1.9,0 3.1,-0.9 3.1,-2.3 0,-1.3 -0.8,-1.9 -1.8,-2.2 m -4.2,-3 h 2.6 c 1.1,0 1.7,0.5 1.7,1.2 0,0.9 -0.7,1.4 -1.7,1.4 h -2.6 z m 2.8,6.3 h -2.8 v -2.7 h 2.7 c 1.4,0 2.1,0.5 2.1,1.3 -0.1,0.9 -0.8,1.4 -2,1.4"
       id="path3778"
       inkscape:connector-curvature="0"
       style="fill:#eb5f0a" /><path
       class="st0"
       d="m 405.7,170.6 c -1.2,0 -2.1,0.3 -3.1,0.7 l 0.4,1 c 0.8,-0.4 1.6,-0.6 2.6,-0.6 1.6,0 2.5,0.8 2.5,2.3 v 0.3 c -0.8,-0.2 -1.5,-0.4 -2.6,-0.4 -2.1,0 -3.6,0.9 -3.6,2.8 0,1.8 1.6,2.7 3.2,2.7 1.5,0 2.5,-0.7 3,-1.4 v 1.3 h 1.2 V 174 c 0,-1.1 -0.3,-1.9 -0.9,-2.5 -0.6,-0.6 -1.5,-0.9 -2.7,-0.9 m 2.4,5.5 c 0,1.3 -1.3,2.3 -2.8,2.3 -1.1,0 -2.1,-0.6 -2.1,-1.7 0,-1 0.9,-1.7 2.5,-1.7 1,0 1.8,0.2 2.5,0.4 v 0.7 z"
       id="path3780"
       inkscape:connector-curvature="0"
       style="fill:#eb5f0a" /><polygon
       class="st0"
       points="413.2,170.7 412,170.7 412,179.2 413.2,179.2 413.2,175.5 418.1,175.5 418.1,179.2 419.4,179.2 419.4,170.7 418.1,170.7 418.1,174.4 413.2,174.4 "
       id="polygon3782"
       style="fill:#eb5f0a" /><polygon
       class="st0"
       points="423.4,179.2 428.4,172.5 428.4,179.2 429.7,179.2 429.7,170.7 428.5,170.7 423.4,177.4 423.4,170.7 422.2,170.7 422.2,179.2 "
       id="polygon3784"
       style="fill:#eb5f0a" /><path
       class="st0"
       d="m 436,170.6 c -2.3,0 -4.1,2 -4.1,4.4 0,2.6 1.9,4.4 4.2,4.4 1.6,0 2.6,-0.6 3.5,-1.6 l -0.8,-0.7 c -0.7,0.7 -1.5,1.2 -2.7,1.2 -1.5,0 -2.8,-1 -3,-2.8 h 6.7 c 0,-0.2 0,-0.3 0,-0.4 0.2,-2.5 -1.3,-4.5 -3.8,-4.5 m -2.7,3.9 c 0.2,-1.6 1.3,-2.8 2.7,-2.8 1.7,0 2.6,1.3 2.7,2.8 z"
       id="path3786"
       inkscape:connector-curvature="0"
       style="fill:#eb5f0a" /><path
       class="st0"
       d="m 225.4,129 c -3.6,0 -7.2,0.9 -10.3,2.7 -3.1,-1.8 -6.7,-2.8 -10.3,-2.8 -11.4,0 -20.7,9.3 -20.7,20.7 0,11.4 9.3,20.7 20.7,20.7 3.6,0 7.2,-1 10.3,-2.8 3.1,1.8 6.7,2.7 10.3,2.7 11.4,0 20.7,-9.3 20.7,-20.7 0,-11.3 -9.3,-20.5 -20.7,-20.5 m -27.1,20.6 v 0 c -0.3,0.9 -0.4,1.8 -0.4,2.7 0,4.9 4,8.9 8.9,8.9 3.2,0 6.1,-1.7 7.7,-4.4 v 0 l 0.1,-0.1 c 0.1,-0.2 0.2,-0.4 0.3,-0.6 l 5.4,-10.5 0.1,-0.2 v 0 0 c 0.6,-1.1 1.7,-1.8 3,-1.8 1.8,0 3.3,1.5 3.3,3.3 0,0 0,0.1 0,0.1 v 0.1 0 c 0,1.4 -0.7,4.4 -5.2,8.9 -5.7,5.8 -11,7.6 -11,7.7 v 0 c -1.8,0.8 -3.8,1.1 -5.8,1.1 -8.4,0 -15.2,-6.8 -15.2,-15.2 0,-8.4 6.8,-15.2 15.2,-15.2 1.6,0 3.1,0.2 4.6,0.7 -5.7,4.6 -9.4,9.5 -11,14.5 m 33.5,0.1 v 0 c 0.3,-0.9 0.4,-1.8 0.4,-2.8 0,-4.9 -4,-8.9 -8.9,-8.9 -3.1,0 -6.1,1.7 -7.7,4.4 v 0 l -0.1,0.3 c -0.1,0.1 -0.2,0.3 -0.2,0.4 l -5.6,10.9 c -0.6,1.1 -1.7,1.7 -2.9,1.7 -1.8,0 -3.3,-1.5 -3.3,-3.3 v 0 -0.1 c 0,-1.4 0.8,-4.4 5.2,-9 5.7,-5.8 10.9,-7.5 11,-7.5 1.9,-0.8 3.8,-1.2 5.9,-1.2 8.4,0 15.2,6.8 15.2,15.2 0,8.4 -6.8,15.2 -15.2,15.2 -1.6,0 -3.2,-0.2 -4.7,-0.7 5.7,-4.7 9.4,-9.5 10.9,-14.6"
       id="path3788"
       inkscape:connector-curvature="0"
       style="fill:#eb5f0a" /></g><rect
     x="167.39999"
     y="-150.99998"
     class="st1"
     width="289.29999"
     height="72.5"
     id="rect3792"
     style="fill:none" /></svg>