<svg xmlns="http://www.w3.org/2000/svg" viewBox="0 0 400 119.08"><title>UGORIA_logo</title><path d="M0,28.31,0,92.24c0,16,29.92,16.15,34.26,26.84,4.34-10.69,34.3-10.8,34.31-26.84l0-63.93ZM3.36,90.6c8.16,4.16,16.13,8.58,24.66,12.22,3.3,1.42,6,2.27,9.51.3,5.44-3,12.7-5.87,19.18-9.81,3.82-2.31,1.47-4.48-2.52-2.94-11.51,4.46-24,6-21.57-.84.68-1.93,6.05-1.2,10.23-1.12,6.3.12,4.62-4-.38-4-5.62,0-8.95-2.44-16.86-2.44-3.42,0-8.36,4.31-12.47.81C10.22,80.3,6.45,77.49,3.31,75l0-43.07h62.2V49c-8.27-4.2-16.33-8.68-25-12.37-3.31-1.41-6-2.26-9.51-.29-5.45,3-12.71,5.87-19.19,9.81C8,48.43,10.36,50.6,14.35,49.05c11.51-4.46,24-6,21.58.85-.69,1.92-6.05,1.2-10.23,1.12-6.3-.13-4.63,4,.37,4,5.62,0,9,2.45,16.86,2.45,3.43,0,8.36-4.32,12.46-.81,3,2.56,6.89,5.45,10.07,8v25c0,14.49-27.15,14.31-31.09,24C30.51,104.19,4.52,104.15,3.36,90.6ZM41.07,71.23,51,71.1c.29,0,.47-.13.47-.45l0-2a.46.46,0,0,0-.45-.49l-9.91,0a.41.41,0,0,1-.23-.74l5-3.31c.4-.26.5-.57.24-.91l-1.23-1.64a.53.53,0,0,0-.79-.14L38.76,65c-.3.2-.69-.23-.58-.49L40,60.29c.06-.17.07-.36-.09-.44L37.18,58.6c-.25-.11-.52-.13-.64.13l-2.27,4.84a.27.27,0,0,1-.48,0l-2.26-4.83c-.13-.26-.39-.25-.64-.13l-2.7,1.25c-.15.08-.14.27-.08.44l1.78,4.26c.11.26-.28.7-.58.49L24,61.44a.53.53,0,0,0-.79.14L22,63.22c-.25.33-.16.65.24.91l5,3.31a.41.41,0,0,1-.23.74l-9.91,0a.46.46,0,0,0-.45.49l0,2c0,.32.18.44.47.45l9.9.13a.36.36,0,0,1,.21.68l-5,3.31c-.4.27-.5.58-.24.92l1.23,1.63a.52.52,0,0,0,.78.14l5.34-3.6c.31-.2.7.22.58.49l-1.77,4.26c-.07.17-.07.36.09.43l2.68,1.26c.25.12.53.13.65-.14l2.26-4.83a.27.27,0,0,1,.48,0l2.27,4.85c.12.25.39.24.64.13l2.69-1.26c.16-.07.15-.26.08-.43l-1.77-4.26c-.11-.27.28-.7.58-.49l5.34,3.6a.53.53,0,0,0,.79-.14l1.22-1.63c.26-.34.16-.65-.24-.92l-5-3.31A.38.38,0,0,1,41.07,71.23ZM34,65.74c3,0,5.52,1.77,5.52,3.94S37.05,73.62,34,73.62s-5.53-1.78-5.53-3.94S31,65.74,34,65.74Zm.49-63a11.9,11.9,0,0,1,6.57,2.18c1.86,1.56,3.54,1.45,4.7.14A3.35,3.35,0,0,1,51.1,5c1.64,2.25,4.21,1.67,5.95,1.4,3.37-.52,4.8,1.75,2,4.76L48.66,22.25l-14,0-14-.05C17.17,18.48,13.47,14.9,10,11.14c-2.81-3-1.38-5.29,2-4.77,1.74.27,4.31.85,6-1.4A3.33,3.33,0,0,1,23.21,5c1.16,1.3,2.85,1.43,4.71-.14A11.92,11.92,0,0,1,34.5,2.73Zm0-2.73A9.33,9.33,0,0,1,40.9,2.08C43.18,4,45,3.24,46.36,1.62c1.08-1.27,4.6-1,5.9.79,2,2.74,5.1,1.89,7.25,1.71,2.85-.25,5.13,4,2.89,6.38L49.5,24.24h-30L6.58,10.49c-2.23-2.38.06-6.63,2.9-6.38,2.15.18,5.25,1,7.25-1.71C18,.61,21.55.34,22.63,1.61,24,3.23,25.81,4,28.08,2.07A9.36,9.36,0,0,1,34.49,0Zm1.35,17.45,3.66-3.6c.32-.32-.17-.69-.61-1l-2.28-1.56c-.39-.27-.53-.63-.2-1l1-1c.39-.41.85-.22,1.31.05l2.39,1.43a.9.9,0,0,0,1.23-.06l2.17-1.89a2.52,2.52,0,0,1,1.88-.7h1.37c.78,0,1.1.52.31,1.29l-7.8,7.66c-.19.18-.22.49,0,.49H43a1.47,1.47,0,0,0,1-.41l9-8.81A1.2,1.2,0,0,1,54,8.07l2.3,0c.66,0,.39.8,0,1.19L45.5,20h-22L12.72,9.3c-.39-.39-.64-1.17,0-1.19l2.29,0a1.24,1.24,0,0,1,.92.28l9,8.81a1.46,1.46,0,0,0,1.06.41H28.7c.25,0,.23-.31,0-.49L20.93,9.41c-.78-.77-.46-1.29.32-1.29h1.37a2.51,2.51,0,0,1,1.88.69l2.17,1.88a.88.88,0,0,0,1.23.08l2.39-1.44c.46-.27.92-.46,1.31-.05l1,1c.34.35.2.71-.2,1L30.1,12.84c-.45.31-1,.64-.66,1l3.66,3.59A3.86,3.86,0,0,0,35.84,17.45ZM168.2,73.81V33.63h-5.62v-4h36.28v9.73h-4.69v-5H178.52V73.81h6.21v4H162.58v-4Zm98.82-18c6.42.51,10.1-2,11.83-6.27a14,14,0,0,0,.94-5.13,12,12,0,0,0-1.23-5.76c-1.37-2.53-4.54-5.42-11.54-5Zm0,18h5.77v4H251.08v-4h5.63V33.63h-5.63v-4h18c7.79,0,14.35.57,18.39,6.56a14.27,14.27,0,0,1,2.38,8,14.93,14.93,0,0,1-2.45,8.37c-4.05,5.92-11.11,7.14-20.42,6.86Zm65.82-38.3V33.63h-5.62v-4h21.57v4h-5.63V73.81h5.63v4H327.22v-4h5.62V42.22l-21.57,29v2.6h5.63v4H295.33v-4H301V33.63h-5.63v-4H316.9v4h-5.63v30.8ZM380,33.63c-5.41,0-9.16,4.26-9.16,10.68s2.95,10.82,13.2,10.24V33.63Zm14.36,40.18H400v4H378.43v-4h5.63V58.38c-5.12-.58-6.21,1.29-7.72,4.33l-6.27,12.18c-1.88,3.69-6.28,3.83-7.44,3.83a47.91,47.91,0,0,1-8.58-.87V74c4.69-.22,5.34-1.3,7.65-5.27l4.47-7.79c1.73-2.95,3.17-4,5.11-4.26v-.43c-8.14-1.8-11.53-7.07-11.53-12.62,0-7.43,6.28-14,17.38-14H400v4h-5.62Zm-259.67,1.3C143.57,75.11,147,65,147,53.76s-3.4-21.35-12.26-21.35-12.25,10.1-12.25,21.35S125.85,75.11,134.71,75.11Zm0-46.31c12.88,0,23.56,10.82,23.56,25s-10.68,25-23.56,25-23.34-10.6-23.55-24.53H102.5V73.81h5.63v4H86.56v-4h5.62V33.63H86.56v-4h21.57v4H102.5V50.15h8.89C113,37.83,123,28.8,134.71,28.8Zm88.76,46.31c8.86,0,12.26-10.1,12.26-21.35s-3.4-21.35-12.26-21.35-12.25,10.1-12.25,21.35S214.61,75.11,223.47,75.11Zm0-46.31c12.89,0,23.57,10.82,23.57,25s-10.68,25-23.57,25-23.57-10.82-23.57-25S210.59,28.8,223.47,28.8Z" style="fill:#004f9e;fill-rule:evenodd"/><path d="M95.09,96.05a8.12,8.12,0,0,1,7.34,4l-3.26,1.6a4.43,4.43,0,0,0-3.93-2.32c-2.57,0-4.6,2-4.6,5.66s2,5.65,4.6,5.65a4.41,4.41,0,0,0,3.93-2.32l3.26,1.61a8.12,8.12,0,0,1-7.34,4c-5,0-8.42-3.53-8.42-8.94S90.05,96.05,95.09,96.05Z" style="fill:#004f9e"/><path d="M109.32,99.58h-5V96.34h13.9v3.24h-5v14h-3.92Z" style="fill:#004f9e"/><path d="M127.34,107.73h-2.17v5.9h-3.93V96.34h6.1c4.35,0,6.95,1.9,6.95,5.71S131.69,107.73,127.34,107.73Zm-.17-8.28h-2v5.17h2c2,0,3.14-.77,3.14-2.57S129.22,99.45,127.17,99.45Z" style="fill:#004f9e"/><path d="M151.84,113.63h-4.19l-1.14-3.56h-6.3l-1.11,3.56h-4.2l6-17.29h4.89ZM141.2,107h4.35l-2.18-6.91Z" style="fill:#004f9e"/><path d="M164.86,113.63l-3.61-6.12-3.58,6.12h-4.3l5.36-8.92-5-8.37H158l3.21,5.46,3.24-5.46h4.3l-5,8.37,5.39,8.92Z" style="fill:#004f9e"/><path d="M179.43,113.93c-5.11,0-8.18-3.86-8.18-8.94s3.07-8.94,8.18-8.94,8.18,3.85,8.18,8.94S184.54,113.93,179.43,113.93Zm0-3.29c2.57,0,4.2-2.17,4.2-5.65s-1.63-5.66-4.2-5.66-4.2,2.17-4.2,5.66S176.86,110.64,179.43,110.64Z" style="fill:#004f9e"/><path d="M191.19,96.34h6.44c4.15,0,6.15,1.9,6.15,4.72a3.47,3.47,0,0,1-2.44,3.48,4,4,0,0,1,3.31,4c0,3-2,5.09-6.62,5.09h-6.84Zm6.19,3h-2.32v4h2.32c1.76,0,2.67-.72,2.67-2S199.14,99.33,197.38,99.33Zm.33,6.87h-2.65v4.44h2.65c2,0,3-.74,3-2.22S199.73,106.2,197.71,106.2Z" style="fill:#004f9e"/><path d="M223.69,113.63h-4.2l-1.14-3.56h-6.3l-1.11,3.56h-4.2l6-17.29h4.89ZM213,107h4.35l-2.17-6.91Z" style="fill:#004f9e"/><path d="M233.59,96.34h6.3v17.29H236V107h-2.39l-3.76,6.59h-4.25l4.42-7.14a4.82,4.82,0,0,1-3.33-4.79C226.65,98.1,229.29,96.34,233.59,96.34Zm0,7.66H236V99.38h-2.39c-2,0-3,.74-3,2.32S231.59,104,233.57,104Z" style="fill:#004f9e"/><path d="M256.36,104.15l5.58-7.81h4.35l-5.43,7.12,6.2,10.17h-4.45l-4.08-7.06-2.17,2.81v4.25h-3.93V96.34h3.93Z" style="fill:#004f9e"/><path d="M277.21,113.93c-5.12,0-8.18-3.86-8.18-8.94s3.06-8.94,8.18-8.94,8.17,3.85,8.17,8.94S282.32,113.93,277.21,113.93Zm0-3.29c2.56,0,4.19-2.17,4.19-5.65s-1.63-5.66-4.19-5.66S273,101.5,273,105,274.64,110.64,277.21,110.64Z" style="fill:#004f9e"/><path d="M296.84,110.49l-4.08-7.68v10.82H289V96.34h3.93l5.16,9.91,5.16-9.91h3.93v17.29h-3.8V102.81l-4.08,7.68Z" style="fill:#004f9e"/><path d="M326,113.63h-3.92v-14h-6.6v14h-3.93V96.34H326Z" style="fill:#004f9e"/><path d="M345.94,113.63h-4.2l-1.14-3.56h-6.3l-1.11,3.56H329l6-17.29h4.89ZM335.29,107h4.35l-2.17-6.91Z" style="fill:#004f9e"/><path d="M349,96.34h3.93v6.57h6.64V96.34h3.93v17.29h-3.93v-7.48h-6.64v7.48H349Z" style="fill:#004f9e"/><path d="M382.29,113.63h-3.8V102.57l-6.82,11.06h-3.83V96.34h3.81v11.07l6.81-11.07h3.83Z" style="fill:#004f9e"/><path d="M393.33,96.34h6.3v17.29H395.7V107h-2.4l-3.75,6.59H385.3l4.42-7.14a4.82,4.82,0,0,1-3.33-4.79C386.39,98.1,389,96.34,393.33,96.34Zm0,7.66h2.4V99.38h-2.4c-2,0-3,.74-3,2.32S391.33,104,393.3,104Z" style="fill:#004f9e"/></svg>