<svg height="512pt" viewBox="0 0 512.03578 512" width="512pt" xmlns="http://www.w3.org/2000/svg"><path d="m110.953125 324.285156c1.316406.015625 2.617187-.277344 3.804687-.851562l22.84375-11.425782c5.464844-2.738281 11.726563-3.425781 17.65625-1.9375l3.132813.785157c14.558594 3.570312 29.925781-.71875 40.53125-11.316407l2.613281-2.609374c16.878906 22.554687 45.894532 32.398437 73.011719 24.773437 27.121094-7.628906 46.753906-31.152344 49.40625-59.199219l29.917969-8.53125c10.703125-3.0625 22.160156 1.144532 28.339844 10.410156l10.171874 15.265626c7.894532 11.894531 21.226563 19.042968 35.503907 19.039062h24.398437c4.714844 0 8.535156-3.820312 8.535156-8.535156 0-4.710938-3.820312-8.53125-8.535156-8.53125h-24.398437c-8.570313.019531-16.585938-4.261719-21.332031-11.402344l-10.179688-15.265625c-6.074219-9.121094-15.433594-15.539063-26.128906-17.921875l13.40625-46.929688c.941406-2.964843.199218-6.203124-1.941406-8.460937-2.136719-2.253906-5.332032-3.167969-8.339844-2.386719-3.007813.785156-5.351563 3.140625-6.121094 6.152344l-14.71875 51.507812c-1.128906.230469-2.261719.359376-3.414062.683594l-25.863282 7.386719c-5.417968-32.941406-33.851562-57.144531-67.234375-57.230469-.625 0-1.230469.074219-1.84375.09375l-6.945312-27.769531c-1.171875-4.539063-5.789063-7.28125-10.335938-6.144531-4.550781 1.140625-7.328125 5.738281-6.21875 10.292968l6.550781 26.214844c-18.617187 5.292969-34.105468 18.261719-42.589843 35.660156-8.484375 17.398438-9.164063 37.585938-1.867188 55.519532l-5.914062 5.914062c-6.375 6.332032-15.59375 8.886719-24.320313 6.730469l-3.132812-.777344c-2.929688-.699219-5.925782-1.082031-8.941406-1.140625l-14.71875-31.394531c-2.09375-4.09375-7.054688-5.792969-11.21875-3.84375-4.164063 1.953125-6.03125 6.851563-4.226563 11.078125l12.800781 27.308594c-1.035156.417968-2.109375.714844-3.117187 1.21875l-22.84375 11.359375c-3.597657 1.738281-5.503907 5.742187-4.585938 9.632812.914063 3.890625 4.40625 6.625 8.402344 6.578125zm145.066406-119.464844c28.277344 0 51.199219 22.921876 51.199219 51.199219 0 28.277344-22.921875 51.199219-51.199219 51.199219-28.277343 0-51.199219-22.921875-51.199219-51.199219.027344-28.265625 22.933594-51.171875 51.199219-51.199219zm0 0"/><path d="m.0195312 268.289062c6.2734378 136.628907 119.0468748 244.074219 255.8203128 243.730469h1.023437c41.097657-.136719 81.554688-10.230469 117.898438-29.421875.597656-.222656 1.167969-.507812 1.703125-.855468 64.652344-34.40625 111.445312-94.886719 128.519531-166.101563 17.078125-71.21875 2.800781-146.339844-39.214844-206.324219-4.246093-6.027344-11.878906-8.652344-18.929687-6.503906l-35.710938 10.699219 16.964844-28.242188c4.273438-7.058593 2.886719-16.160156-3.292969-21.625-30.976562-27.171875-68.054687-46.460937-108.085937-56.234375-.339844-.113281-.691406-.203125-1.046875-.265625-68.214844-16.4375-140.183594-4.160156-199.085938 33.964844-58.902343 38.125-99.578125 98.757813-112.511719 167.722656-1.148437 6.371094 1.371094 12.855469 6.53125 16.773438l17.355469 13.144531-20.710937 14.785156c-4.773438 3.359375-7.5 8.925782-7.2265628 14.753906zm40.4804688-17.535156c3.796875-2.714844 6.078125-7.074218 6.140625-11.742187.066406-4.667969-2.089844-9.089844-5.808594-11.910157l-19.992187-15.140624c8.878906-47.6875 32.136718-91.519532 66.644531-125.609376l21.761719 30.394532c4.625 6.445312 11.089844 11.335937 18.550781 14.03125v31.375c0 4.714844 3.820313 8.535156 8.535156 8.535156 4.710938 0 8.53125-3.820312 8.53125-8.535156v-29.15625c1.398438-.101563 2.792969-.277344 4.171875-.523438 9.882813-1.949218 19.851563 2.941406 24.355469 11.949219l6.535156 13.054687c1.347657 2.753907 4.070313 4.570313 7.128907 4.761719 3.058593.191407 5.984374-1.269531 7.667968-3.832031s1.863282-5.828125.46875-8.558594l-6.585937-13.105468c-7.984375-15.863282-25.566407-24.449219-42.984375-21.003907-8.613282 1.710938-17.433594-1.773437-22.550782-8.914062l-22.878906-32.035157c54.726563-47.007812 127.761719-66.765624 198.722656-53.761718l-19.503906 25.074218c-4.890625 6.285157-7.046875 14.269532-5.992187 22.160157 1.058593 7.890625 5.242187 15.027343 11.613281 19.804687 2.683594 2 4.460938 4.984375 4.941406 8.296875.480469 3.3125-.375 6.679688-2.378906 9.359375l-12.957031 17.175782c-2.824219 3.773437-2.0625 9.121093 1.707031 11.949218 3.773438 2.828125 9.121094 2.0625 11.949219-1.707031l12.953125-17.210937c4.726562-6.300782 6.75-14.222657 5.628906-22.019532s-5.292969-14.824218-11.601562-19.539062c-2.710938-2.027344-4.488282-5.058594-4.941407-8.410156-.449219-3.351563.464844-6.746094 2.542969-9.417969l24.429688-31.382813c35.585937 9.449219 68.5 27.019532 96.152343 51.328125l-23.710937 39.492188c-2.542969 4.246093-2.214844 9.617187.824218 13.523437 3.039063 3.90625 8.164063 5.546875 12.90625 4.128906l48.261719-14.503906-2.449219-8.175781 2.5 8.125c38.625 55.15625 52.144532 124.070313 37.222657 189.734375-14.921875 65.660156-56.894531 121.960938-115.566407 155.011719l-24.746093-24.695313c-2.476563-2.414062-5.234375-4.515625-8.21875-6.265625l6.171875-24.121093c1.226562-5.988282 5.550781-10.867188 11.347656-12.800782l11.519531-3.832031c4.476563-1.488281 6.898438-6.324219 5.410157-10.804687-1.488282-4.476563-6.324219-6.898438-10.800782-5.410157l-11.519531 3.832031c-1.226563.425782-2.425781.917969-3.59375 1.476563l-8.054687-33.347656c-.71875-2.964844-2.960938-5.320313-5.886719-6.179688-2.921875-.863281-6.085938-.097656-8.292969 2.003907-2.207031 2.101562-3.128906 5.222656-2.410156 8.1875l10.152344 42.066406c-2.167969 3.371094-3.695313 7.109375-4.503907 11.035156l-5.699219 22.253906c-1.921874-.316406-3.859374-.503906-5.804687-.5625h-23.074219c-10.246094.007813-19.511718-6.09375-23.550781-15.511718l-16.726563-39.023438c-1.132812-2.90625-3.757812-4.960938-6.847656-5.363281-3.089844-.402344-6.15625.910156-7.992187 3.429687-1.839844 2.515625-2.160157 5.835938-.835938 8.65625l16.742188 39.050782c6.726562 15.683593 22.148437 25.851562 39.210937 25.855468h23.109375c6.796875-.019531 13.320313 2.679688 18.117188 7.5l20.898437 20.882813c-31.507812 14.910156-65.914062 22.703125-100.769531 22.816406h-.957031c-31.691406.035156-63.078125-6.222656-92.332032-18.414063l-6.722656-33.640624c-1.691406-8.390626.9375-17.070313 6.996094-23.117188l4.15625-4.144531c2.160156-2.15625 3.003906-5.296875 2.21875-8.242188-.785156-2.945312-3.085938-5.25-6.03125-6.042969-2.941406-.792968-6.085938.046876-8.246094 2.199219l-4.15625 4.15625c-10.125 10.09375-14.507812 24.59375-11.671875 38.605469l4.265625 21.265625c-74.941406-39.355469-123.351562-115.542969-127.144531-200.105469zm0 0"/></svg>