<svg height="512pt" viewBox="0 0 512.00046 512" width="512pt" xmlns="http://www.w3.org/2000/svg"><path d="m341.332031 204.800781c18.851563 0 34.132813-15.28125 34.132813-34.132812 0-18.851563-15.28125-34.132813-34.132813-34.132813-18.851562 0-34.132812 15.28125-34.132812 34.132813 0 18.851562 15.28125 34.132812 34.132812 34.132812zm0-51.199219c9.425781 0 17.066407 7.640626 17.066407 17.066407s-7.640626 17.066406-17.066407 17.066406-17.066406-7.640625-17.066406-17.066406 7.640625-17.066407 17.066406-17.066407zm0 0"/><path d="m409.601562 145.066406c14.136719 0 25.597657-11.460937 25.597657-25.597656 0-14.140625-11.460938-25.601562-25.597657-25.601562-14.140624 0-25.601562 11.460937-25.601562 25.601562 0 14.136719 11.460938 25.597656 25.601562 25.597656zm0-34.132812c4.710938 0 8.53125 3.820312 8.53125 8.535156 0 4.710938-3.820312 8.53125-8.53125 8.53125-4.714843 0-8.535156-3.820312-8.535156-8.53125 0-4.714844 3.820313-8.535156 8.535156-8.535156zm0 0"/><path d="m34.132812 512h443.734376c18.851562 0 34.132812-15.28125 34.132812-34.132812 0-18.851563-15.28125-34.132813-34.132812-34.132813h-146.910157v-.042969c13.601563.636719 26.679688-5.320312 35.121094-16 7.957031 4.898438 17.113281 7.496094 26.457031 7.507813 18.605469-.085938 35.710938-10.230469 44.703125-26.519531 18.589844 3.191406 37.640625-1.988282 52.054688-14.148438 14.414062-12.164062 22.726562-30.070312 22.707031-48.929688.101562-27.148437-17.03125-51.371093-42.667969-60.316406-.3125-34.535156-27.972656-62.589844-62.5-63.394531-34.53125-.808594-63.46875 25.925781-65.394531 60.410156-17.976562 2.976563-33.007812 15.296875-39.460938 32.335938-6.453124 17.035156-3.351562 36.222656 8.140626 50.359375-10.769532 6.824218-17.957032 18.078125-19.625 30.71875-3.113282 1.542968-6.089844 3.351562-8.890626 5.402344v-375.515626c0-14.140624-11.464843-25.601562-25.601562-25.601562s-25.601562 11.460938-25.601562 25.601562v418.132813h-196.265626c-18.851562 0-34.132812 15.28125-34.132812 34.132813 0 18.851562 15.28125 34.132812 34.132812 34.132812zm267.511719-102.527344c3.453125-1.265625 5.703125-4.601562 5.589844-8.277344 0-.144531 0-.332031 0-.519531.246094-11.851562 8.554687-21.996093 20.121094-24.578125 3.328125-.714844 5.910156-3.335937 6.578125-6.671875.664062-3.339843-.714844-6.75-3.515625-8.6875-12.113281-8.5-17.371094-23.84375-13.015625-37.988281 4.355468-14.144531 17.332031-23.871094 32.132812-24.082031 2.574219.214843 5.101563-.789063 6.824219-2.714844 1.617187-1.746094 2.429687-4.085937 2.246094-6.460937-.085938-1.203126-.1875-2.398438-.1875-3.625 0-25.921876 21.011719-46.933594 46.933593-46.933594 25.917969 0 46.933594 21.011718 46.933594 46.933594 0 1.617187-.085937 3.234374-.25 4.847656-.445312 4.28125 2.367188 8.226562 6.5625 9.199218 16.910156 3.597657 30.472656 16.203126 35.296875 32.808594 4.824219 16.601563.128907 34.511719-12.21875 46.613282-12.347656 12.101562-30.347656 16.4375-46.851562 11.277343-4.296875-1.261719-8.839844 1.015625-10.402344 5.214844-3.859375 10.699219-12.84375 18.742187-23.90625 21.402344-11.0625 2.65625-22.71875-.425781-31.023437-8.203125-2.003907-1.847656-4.777344-2.628906-7.453126-2.09375-2.675781.53125-4.9375 2.3125-6.078124 4.792968-4.792969 10.867188-16.542969 16.886719-28.160157 14.429688-3.851562-.761719-7.726562 1.203125-9.386719 4.761719-2.613281 5.59375-6.355468 10.585937-10.992187 14.667969-.121094.09375-.273437.128906-.390625.230468-7.558594 6.226563-16.539062 10.492188-26.140625 12.421875 0-.101562 0-.203125 0-.296875.449219-1.859375.683594-3.761718.710937-5.675781v-27.972656c5.230469-6.648438 12.152344-11.765625 20.042969-14.820313zm-54.179687-383.871094c0-4.714843 3.824218-8.535156 8.535156-8.535156s8.535156 3.820313 8.535156 8.535156v426.664063c0 4.714844-3.824218 8.535156-8.535156 8.535156s-8.535156-3.820312-8.535156-8.535156zm-213.332032 435.199219h197.726563c.101563.289063.253906.546875.375.851563.179687.480468.394531.929687.605469 1.382812.445312.949219.949218 1.867188 1.503906 2.757813.253906.417969.511719.851562.792969 1.238281.714843 1.007812 1.503906 1.960938 2.355469 2.855469.179687.1875.332031.402343.511718.582031 1.054688 1.042969 2.195313 1.992188 3.414063 2.839844.339843.230468.714843.429687 1.066406.648437.929687.585938 1.894531 1.109375 2.890625 1.570313.46875.214844.941406.402344 1.417969.589844 1.007812.382812 2.035156.707031 3.082031.964843.46875.109375.917969.246094 1.398438.332031 1.558593.300782 3.140624.453126 4.726562.453126 4.011719 0 7.84375-.195313 11.589844-.488282 1.011718-.082031 2.019531-.175781 3.019531-.28125 3.019531-.304687 5.972656-.699218 8.789063-1.203125.707031-.117187 1.441406-.210937 2.132812-.347656 3.234375-.632813 6.332031-1.410156 9.320312-2.296875 1.140626-.339844 2.234376-.734375 3.34375-1.109375 1.796876-.613281 3.546876-1.28125 5.246094-1.996094 1.332032-.546875 2.664063-1.101562 3.9375-1.707031 1.269532-.605469 2.378906-1.28125 3.554688-1.9375 2.648437-1.457031 5.195312-3.089844 7.621094-4.890625.375-.28125.792968-.519531 1.160156-.808594h162.152344c9.425781 0 17.066406 7.640625 17.066406 17.066407 0 9.425781-7.640625 17.066406-17.066406 17.066406h-443.734376c-9.425781 0-17.066406-7.640625-17.066406-17.066406 0-9.425782 7.640625-17.066407 17.066406-17.066407zm0 0"/><path d="m190.234375 398.566406c3.347656 3.234375 8.667969 3.1875 11.960937-.105468 3.292969-3.289063 3.339844-8.613282.105469-11.960938l-8.535156-8.53125c-3.347656-3.234375-8.667969-3.1875-11.960937.101562-3.292969 3.292969-3.339844 8.613282-.105469 11.964844zm0 0"/><path d="m162.132812 426.667969h17.066407c4.714843 0 8.535156-3.820313 8.535156-8.535157 0-4.710937-3.820313-8.53125-8.535156-8.53125h-17.066407c-4.710937 0-8.53125 3.820313-8.53125 8.53125 0 4.714844 3.820313 8.535157 8.53125 8.535157zm0 0"/></svg>