<svg height="512pt" viewBox="0 0 512 512.22341" width="512pt" xmlns="http://www.w3.org/2000/svg"><path d="m56.363281 431.96875c27 18.953125 54.914063 38.5625 61.644531 71.679688.816407 4.945312 5.089844 8.574218 10.105469 8.574218 5.011719 0 9.285157-3.628906 10.101563-8.574218 6.734375-33.082032 34.644531-52.691407 61.644531-71.679688 27.648437-19.421875 56.253906-39.507812 56.253906-73.546875 0-72.472656-33.066406-140.160156-57.175781-189.59375-4.34375-8.890625-8.378906-17.144531-11.828125-24.660156-14.625-31.738281-41.761719-90.804688-48.757813-135.261719-.695312-5.101562-5.050781-8.90625-10.195312-8.90625-5.148438 0-9.503906 3.804688-10.199219 8.90625-7.039062 44.457031-34.132812 103.523438-48.757812 135.261719-3.414063 7.515625-7.484375 15.769531-11.828125 24.660156-24.191406 49.433594-57.257813 117.121094-57.257813 189.59375 0 34.039063 28.601563 54.125 56.25 73.546875zm28.859375-87.320312c9.71875-12.445313 16.792969-26.742188 20.789063-42.019532 4.671875-7.742187 13.054687-12.476562 22.101562-12.476562 9.042969 0 17.425781 4.734375 22.101563 12.476562 3.992187 15.277344 11.066406 29.574219 20.785156 42.019532-.128906 1.707031-.222656 3.464843-.222656 5.238281.042968 6.34375.542968 12.675781 1.503906 18.945312-13.621094-7.113281-28.808594-10.691406-44.167969-10.410156-15.363281-.28125-30.550781 3.296875-44.171875 10.410156.960938-6.269531 1.460938-12.601562 1.503906-18.945312 0-1.773438-.09375-3.507813-.222656-5.238281zm60.585938-67.679688c-11.21875-5.175781-24.140625-5.175781-35.359375 0 .324219-4.015625.613281-8.070312.613281-12.414062-.148438-20.550782-4.59375-40.847657-13.046875-59.578126 14.957031-10.464843 24.351563-29.457031 30.113281-57.804687 5.761719 28.347656 15.15625 47.339844 30.113282 57.804687-8.460938 18.730469-12.910157 39.023438-13.0625 59.578126 0 4.34375.289062 8.398437.613281 12.414062zm-17.695313 203.1875c-12.714843-27.160156-37.546875-45.003906-60.308593-61.003906 3.945312-7.972656 7.316406-16.214844 10.089843-24.667969 13.304688-13.140625 31.546875-20.042969 50.21875-18.996094 18.667969-1.046875 36.910157 5.855469 50.21875 18.996094 2.769531 8.453125 6.140625 16.695313 10.085938 24.667969-22.757813 16-47.589844 33.851562-60.304688 61.003906zm74.425781-71.046875c-9.183593-18.421875-14.199218-38.640625-14.695312-59.222656 0-29.558594 21.828125-45.464844 43.144531-53.964844 5.179688 20.4375 7.882813 41.417969 8.058594 62.5 0 21.058594-15.917969 35.660156-36.507813 50.6875zm23.894532-129.707031c-21.796875 6.929687-39.84375 22.410156-50.007813 42.898437-9.714843-17.667969-14.609375-37.585937-14.179687-57.746093.773437-28.160157 9.835937-55.46875 26.050781-78.507813 15.238281 30.019531 28.003906 61.230469 38.171875 93.320313zm-54.878906-128.109375c2.464843 5.359375 5.289062 11.210937 8.242187 17.277343-5.03125 6.613282-9.609375 13.558594-13.703125 20.789063-18.773438-15.652344-26.070312-56.210937-28.441406-118.742187 11.09375 30.949218 24.855468 60.972656 33.902344 80.675781zm-52.984376-80.675781c-2.40625 62.523437-9.691406 103.089843-28.441406 118.742187-4.09375-7.230469-8.671875-14.175781-13.703125-20.789063 2.953125-6.066406 5.777344-11.945312 8.242188-17.277343 9.046875-19.703125 22.808593-49.726563 33.902343-80.675781zm-50.644531 115.429687c16.214844 23.039063 25.277344 50.347656 26.050781 78.507813.414063 20.152343-4.492187 40.054687-14.214843 57.710937-10.164063-20.488281-28.210938-35.96875-50.003907-42.898437 10.164063-32.089844 22.929688-63.300782 38.167969-93.320313zm-42.667969 109.894531c21.292969 8.480469 43.121094 24.386719 43.121094 53.945313-.496094 20.582031-5.511718 40.800781-14.695312 59.222656-20.589844-15.027344-36.503906-29.628906-36.503906-50.6875.171874-21.082031 2.875-42.0625 8.054687-62.5zm0 0"/><path d="m392.644531.0195312c-4.90625-.0195312-9.441406 2.6054688-11.871093 6.8710938-17.996094 31.042969-107.59375 193.492187-107.59375 342.996094v.53125.246093c.304687 31.890626 18.328124 51.199219 43.261718 77.652344 22.910156 23.453125 43.664063 48.917969 62.011719 76.085938 3.148437 4.730468 8.457031 7.574218 14.140625 7.574218s10.992188-2.84375 14.140625-7.574218c18.367187-27.144532 39.140625-52.582032 62.0625-76.007813 24.933594-26.53125 42.957031-45.796875 43.261719-77.652343v-.25c0-.1875 0-.339844 0-.527344.054687-149.582032-89.546875-312.03125-107.542969-343.074219-2.425781-4.265625-6.964844-6.890625-11.871094-6.8710938zm102.28125 343.4335938c-21.648437 6.195313-44.867187 3.5625-64.582031-7.320313-14.773438-8.066406-25.390625-22.070312-29.164062-38.476562v-261.453125c27.554687 51.90625 91.542968 185.242187 93.746093 307.25zm-110.8125-307.25v261.453125c-3.777343 16.40625-14.394531 30.410156-29.167969 38.476562-19.714843 10.878907-42.929687 13.515626-64.582031 7.328126 2.203125-122.015626 66.195313-255.351563 93.75-307.257813zm-55.179687 380.476563c-20.324219-21.625-33.738282-36.089844-37.503906-55.398438 7.492187 1.625 15.136718 2.464844 22.800781 2.507812 17.277343.121094 34.28125-4.332031 49.28125-12.902343 7.734375-4.457031 14.691406-10.140625 20.601562-16.828125v148.429687c-16.761719-23.257812-35.203125-45.25-55.179687-65.808593zm127.421875 0c-20.007813 20.578124-38.449219 42.621093-55.175781 65.945312v-148.566406c5.910156 6.6875 12.867187 12.371094 20.597656 16.828125 15 8.570312 32.003906 13.023437 49.28125 12.902343 7.667968-.042968 15.308594-.882812 22.800781-2.507812-3.761719 19.328125-17.179687 33.773438-37.503906 55.398438zm0 0"/></svg>