<svg height="512pt" viewBox="0 0 512 512.16987" width="512pt" xmlns="http://www.w3.org/2000/svg"><path d="m52.230469 495.101562h-35.054688c-4.714843 0-8.535156 3.820313-8.535156 8.535157 0 4.710937 3.820313 8.53125 8.535156 8.53125h170.664063c4.714844 0 8.535156-3.820313 8.535156-8.53125 0-4.714844-3.820312-8.535157-8.535156-8.535157h-32.484375c2.859375-1.945312 5.609375-4.050781 8.234375-6.304687 22.1875-20.121094 34.210937-49.109375 32.785156-79.027344 0-62.359375-38.707031-92.792969-69.804688-117.238281-22.980468-18.066406-41.128906-32.34375-41.128906-54.128906.359375-8.761719 1.71875-17.453125 4.054688-25.90625 1.519531-5.652344-.988282-11.621094-6.09375-14.488282-5.105469-2.867187-11.503906-1.902343-15.539063 2.335938-44.351562 47.367188-68.632812 110.070312-67.753906 174.953125 0 58.144531 22.613281 98.652344 52.121094 119.804687zm-21.855469-56.121093c2.53125-13.675781 7.921875-26.660157 15.8125-38.109375 6.089844 12.160156 14.476562 23.027344 24.695312 32 11.871094 11.886718 23.089844 23.097656 23.089844 36.632812.050782 8.269532-1.792968 16.441406-5.382812 23.894532-18.578125-5.074219-34.828125-16.425782-45.984375-32.121094-4.832031-6.996094-8.925781-14.464844-12.230469-22.296875zm39.304688-215.039063c-.8125 4.777344-1.25 9.613282-1.304688 14.460938 0 30.082031 23.140625 48.28125 47.648438 67.542968 31.113281 24.464844 63.285156 49.757813 63.285156 103.824219 0 60.117188-42.308594 83.398438-73.011719 85.164063 3.117187-8.117188 4.722656-16.734375 4.746094-25.429688 0-20.601562-14.933594-35.535156-28.101563-48.699218-11.878906-11.886719-23.101562-23.101563-23.101562-36.636719 0-2.96875-1.542969-5.722657-4.074219-7.273438s-5.6875-1.675781-8.332031-.328125c-1.9375.988282-15.574219 8.738282-26.144532 34.132813-2.648437-11.617188-4.027343-23.488281-4.113281-35.402344-.644531-55.023437 17.921875-108.546875 52.503907-151.347656zm0 0"/><path d="m145.175781 256.167969c18.851563 0 34.132813-15.28125 34.132813-34.132813 0-28.796875-26.949219-56.089844-28.101563-57.230468-2.441406-2.441407-6.109375-3.171876-9.296875-1.851563s-5.269531 4.433594-5.269531 7.882813c-.765625 9.792968-5.292969 18.90625-12.636719 25.429687-7.417968 6.648437-12.050781 15.851563-12.960937 25.769531 0 18.851563 15.28125 34.132813 34.132812 34.132813zm-8.296875-48.699219c5.039063-5.324219 9.300782-11.339844 12.65625-17.859375 7.296875 9.347656 11.710938 20.613281 12.707032 32.425781 0 9.425782-7.640626 17.066406-17.066407 17.066406s-17.066406-7.640624-17.066406-17.066406c0-4.265625 3.335937-8.308594 8.769531-14.566406zm0 0"/><path d="m502.167969.289062c-4.257813.734376-104.859375 17.707032-140.246094 44.253907-14.738281 11.65625-28.671875 24.292969-41.710937 37.820312-21.511719-9.132812-50.449219-10.242187-73.25-11.09375-7.398438-.273437-13.789063-.511719-18.585938-1-6.558594-.632812-13.078125-1.632812-19.523438-3.003906-5.890624-1.285156-25.378906-6.542969-29.015624-20.136719-3.136719-11.867187 1.777343-24.402344 12.144531-30.976562 2.796875-1.410156 4.59375-4.238282 4.6875-7.371094.089843-3.128906-1.539063-6.058594-4.25-7.628906-2.707031-1.570313-6.0625-1.53125-8.734375.101562-17.164063 10.398438-25.4375 30.859375-20.324219 50.269532 4.179687 15.703124 19.429687 27.511718 41.8125 32.425781 7.082031 1.503906 14.238281 2.609375 21.445313 3.304687 5.339843.542969 11.988281.792969 19.6875 1.082032 20.503906-.058594 40.941406 2.417968 60.839843 7.363281-2.953125 3.074219-5.972656 6.222656-9.050781 9.515625-20.445312 21.703125-37.609375 46.277344-50.945312 72.941406l-29.816407 59.625c-3.566406 7.082031-1.765625 15.6875 4.34375 20.742188l39.519531 32.941406c6.835938 5.757812 16.96875 5.222656 23.15625-1.230469 10.484376-10.859375 24.929688-16.996094 40.023438-16.996094 15.460938 0 18.421875 5.332031 26.332031 19.566407 6.5 12.542968 14.667969 24.148437 24.289063 34.5l-1.5625 2.671874-.34375.578126c-7.679688 13.117187-16.808594 28.3125-25.949219 42.898437l-.640625 1.023437c-.988281 1.570313-1.976562 3.140626-2.96875 4.691407-.988281 1.554687-1.816406 2.859375-2.714844 4.269531l-1.527344 2.363281c-1.203124 1.867188-2.394531 3.703125-3.554687 5.46875l-.386719.582031c-1.289062 1.953126-2.558594 3.855469-3.78125 5.679688-6.539062 10.195312-13.847656 19.875-21.859375 28.957031-7.527343 7.871094-15.867187 14.921875-24.875 21.042969-18.296875 12.773438-29.058593 33.792969-28.722656 56.105469 0 4.710937 3.820313 8.53125 8.53125 8.53125h45.476563c11.964843-.074219 22.671874-7.441407 27.015624-18.59375 2.335938-7.09375 5.878907-13.730469 10.46875-19.625.28125-.296875.855469-.777344 1.5625-1.417969 2.21875-1.902344 6.230469-5.117188 10.417969-8.53125l.632813-.511719c23.007812-18.121093 45.003906-37.492187 65.886718-58.027343l1.476563-1.511719c1.707031-1.773438 3.410156-3.558594 5.117187-5.347657 1.042969-1.109374 2.09375-2.230468 3.109376-3.328124.851562-.90625 1.601562-1.8125 2.40625-2.707032 3.257812-3.652344 6.339843-7.269531 9.179687-10.855468l.511719-.628907c1.296875-1.648437 2.5-3.277343 3.703125-4.90625.648437-.855469 1.316406-1.785156 1.9375-2.664062.980469-1.390625 1.902343-2.757813 2.800781-4.128907.390625-.589843.851562-1.1875 1.203125-1.777343 14.894531 3.605469 30 6.285156 45.226563 8.023437 2.394531.226563 4.777343-.570312 6.554687-2.195312s2.789063-3.921875 2.78125-6.332032v-358.398437c-.003906-2.507813-1.105469-4.890625-3.023437-6.511719-1.914063-1.621094-4.445313-2.316406-6.917969-1.902344zm-7.125 357.113282c-7.074219-1.027344-17.589844-2.785156-29.441407-5.488282 2.355469-5.523437 3.65625-11.433593 3.839844-17.433593 0-4.714844-3.820312-8.535157-8.535156-8.535157-4.710938 0-8.53125 3.820313-8.53125 8.535157-.507812 6.769531-2.667969 13.308593-6.296875 19.046875l-.050781.066406c-1.136719 2.023438-2.417969 4.097656-3.789063 6.1875l-.359375.554688c-1.28125 1.929687-2.671875 3.882812-4.128906 5.855468-.480469.648438-.984375 1.296875-1.488281 1.945313-1.226563 1.613281-2.488281 3.234375-3.820313 4.863281-23.816406 26.738281-49.988281 51.28125-78.199218 73.335938-1.972657 1.605468-3.773438 3.054687-5.367188 4.34375l-4.582031 3.710937c-4.949219 4.019531-7.597657 6.238281-9.003907 7.679687-6.109374 7.464844-10.84375 15.957032-13.976562 25.078126-1.746094 4.699218-6.1875 7.851562-11.195312 7.953124h-36.285157c1.902344-13.511718 9.34375-25.621093 20.539063-33.421874 10.007812-6.796876 19.269531-14.628907 27.632812-23.367188.960938-.996094 1.976563-2.140625 3.027344-3.34375.367188-.417969.75-.851562 1.125-1.332031.675781-.792969 1.367188-1.628907 2.074219-2.5l1.503906-1.886719c.570313-.714844 1.160156-1.484375 1.707031-2.25 1.5-1.964844 3.054688-4.027344 4.65625-6.238281l.09375-.136719c1-1.375 2.023438-2.808594 3.046875-4.265625l.324219-.453125c7.296875-10.367188 15.363281-22.683594 23.417969-35.660156l1.003906-1.605469 2.261719-3.652344 3.003906-4.882812c.273438-.441407.546875-.851563.8125-1.320313 19.832031-32.425781 37.195312-63.394531 38.519531-65.757812 1.539063-2.667969 1.523438-5.953125-.039062-8.605469-1.566407-2.652344-4.4375-4.253906-7.515625-4.195313-3.078125.058594-5.882813 1.769532-7.34375 4.480469-.144532.253907-3.859375 6.878907-9.722656 17.066407-7.113282-8.378907-13.277344-17.519532-18.378907-27.253907-8.40625-15.207031-15.710937-28.351562-41.207031-28.351562-19.703125-.003907-38.558594 8.007812-52.234375 22.1875l-39.507813-32.929688 29.808594-59.621093c12.589844-25.183594 28.796875-48.386719 48.101563-68.882813 4.417969-4.691406 8.636719-9.085937 12.800781-13.335937 1.488281 1.101562 2.867188 2.34375 4.121094 3.710937 4.359375 5.066406 6.34375 11.757813 5.441406 18.382813-.746094 12.558593-8.492188 23.628906-20.035156 28.636718-2.964844.984375-5.15625 3.511719-5.710938 6.585938-.554687 3.074218.617188 6.207031 3.054688 8.164062 2.433594 1.957032 5.746094 2.425782 8.628906 1.222656 17.679688-7.375 29.691406-24.082031 31.054688-43.1875 1.328124-11.28125-2.191407-22.597656-9.6875-31.136718-1.492188-1.65625-3.109376-3.195313-4.835938-4.609375 11.539062-11.828125 23.828125-22.902344 36.785156-33.160157 26.042969-19.53125 96.691406-34.3125 122.882813-39.253906zm0 0"/></svg>