<svg height="504pt" viewBox="0 0 504.70937 504" width="504pt" xmlns="http://www.w3.org/2000/svg"><path d="m135.253906 269.085938c-55.605468.058593-100.664062 45.121093-100.722656 100.722656-.269531 17.246094 11.914062 32.1875 28.863281 35.394531 1 .121094 2.003907.183594 3.007813.183594 10.332031 0 21.972656-6.519531 26.632812-25.179688 8.871094-35.472656 16.199219-52.367187 33.824219-52.367187 27.78125 0 44.375-16.519532 44.375-32.480469 0-13.078125-11.128906-26.273437-35.980469-26.273437zm13.203125 35.890624c-6.375 4.261719-13.9375 6.386719-21.597656 6.078126-33.835937 0-42.859375 36.089843-50.109375 65.105468-1.25 4.996094-4.355469 13.195313-11.296875 12.382813-8.515625-2.167969-14.390625-9.953125-14.136719-18.734375.050782-46.335938 37.601563-83.882813 83.9375-83.933594 11.480469 0 19.195313 3.808594 19.195313 9.484375-.441407 3.945313-2.644531 7.480469-5.992188 9.617187zm0 0"/><path d="m461.582031 7.875-215.90625 215.886719c-5.71875-1.476563-11.792969.113281-16.054687 4.195312l-26.289063 26.289063c-58.453125-34.535156-133.472656-20.199219-175.070312 33.457031-41.597657 53.65625-36.789063 129.882813 11.222656 177.886719s124.234375 52.796875 177.886719 11.1875c53.648437-41.605469 67.972656-116.625 33.425781-175.074219l26.296875-26.269531c4.285156-4.195313 5.933594-10.398438 4.296875-16.167969l215.796875-215.777344c6.445312-6.34375 8.996094-15.65625 6.679688-24.402343-2.3125-8.742188-9.140626-15.570313-17.886719-17.890626-8.742188-2.316406-18.054688.230469-24.398438 6.679688zm-326.328125 479.441406c-50.414062.03125-95.230468-32.101562-111.386718-79.855468-16.152344-47.757813-.042969-100.496094 40.035156-131.074219 40.082031-30.582031 95.203125-32.1875 136.996094-3.992188l.082031.058594c42.777343 28.910156 61.667969 82.359375 46.566406 131.730469-15.105469 49.371094-60.664063 83.097656-112.292969 83.132812zm106.089844-199.882812c-.527344-.679688-1.164062-1.265625-1.675781-1.929688-1.773438-2.191406-3.675781-4.253906-5.582031-6.328125-2.558594-2.796875-5.234376-5.476562-8.023438-8.03125-2.140625-1.984375-4.289062-3.957031-6.566406-5.792969-.644532-.519531-1.207032-1.132812-1.863282-1.679687l23.878907-23.878906 23.738281 23.738281zm243.972656-255.824219-214.15625 214.160156-11.871094-11.867187 214.160157-214.160156c3.277343-3.277344 8.589843-3.277344 11.867187 0 3.277344 3.277343 3.277344 8.589843 0 11.867187zm0 0"/><path d="m110.070312 411.773438c-13.90625 0-25.179687 11.273437-25.179687 25.179687 0 13.910156 11.273437 25.183594 25.179687 25.183594 13.910157 0 25.183594-11.273438 25.183594-25.183594 0-13.90625-11.273437-25.179687-25.183594-25.179687zm0 33.574218c-4.632812 0-8.390624-3.757812-8.390624-8.394531 0-4.632813 3.757812-8.390625 8.390624-8.390625 4.636719 0 8.394532 3.757812 8.394532 8.390625 0 4.636719-3.757813 8.394531-8.394532 8.394531zm0 0"/><path d="m110.070312 201.9375c0 4.636719 3.757813 8.394531 8.394532 8.394531 4.636718 0 8.394531-3.757812 8.394531-8.394531 0-1.222656.125-1.417969 1.519531-3.15625 6.929688-7.769531 6.929688-19.503906 0-27.277344-1.394531-1.71875-1.519531-1.914062-1.519531-3.140625 0-1.222656.125-1.398437 1.519531-3.136719 3.363282-3.746093 5.214844-8.613281 5.195313-13.648437 0-4.636719-3.757813-8.394531-8.394531-8.394531-4.636719 0-8.394532 3.757812-8.394532 8.394531 0 1.207031-.125 1.402344-1.519531 3.140625-6.925781 7.769531-6.925781 19.5 0 27.269531 1.394531 1.738281 1.519531 1.929688 1.519531 3.15625 0 1.222657-.125 1.417969-1.519531 3.15625-3.363281 3.742188-5.214844 8.605469-5.195313 13.636719zm0 0"/><path d="m177.21875 118.003906c-.019531 5.035156 1.832031 9.894532 5.195312 13.640625 1.394532 1.738281 1.519532 1.929688 1.519532 3.15625 0 4.632813 3.757812 8.390625 8.394531 8.390625s8.394531-3.757812 8.394531-8.390625c.019532-5.035156-1.832031-9.898437-5.195312-13.640625-1.394532-1.746094-1.519532-1.9375-1.519532-3.15625 0-1.214844.125-1.417968 1.519532-3.15625 6.925781-7.769531 6.925781-19.5 0-27.269531-1.394532-1.746094-1.519532-1.929687-1.519532-3.148437 0-4.636719-3.757812-8.394532-8.394531-8.394532s-8.394531 3.757813-8.394531 8.394532c-.015625 5.03125 1.835938 9.890624 5.195312 13.632812 1.394532 1.738281 1.519532 1.929688 1.519532 3.136719 0 1.210937-.125 1.417969-1.519532 3.15625-3.367187 3.746093-5.21875 8.613281-5.195312 13.648437zm0 0"/><path d="m111.75 59.25c0 4.636719 3.757812 8.394531 8.394531 8.394531s8.394531-3.757812 8.394531-8.394531c0-1.226562.125-1.417969 1.519532-3.15625 6.925781-7.773438 6.925781-19.503906 0-27.277344-1.394532-1.738281-1.519532-1.929687-1.519532-3.15625 0-1.226562.125-1.402344 1.519532-3.140625 3.359375-3.742187 5.210937-8.597656 5.195312-13.628906 0-4.636719-3.757812-8.394531-8.394531-8.394531s-8.394531 3.757812-8.394531 8.394531c0 1.214844-.125 1.402344-1.519532 3.136719-6.925781 7.769531-6.925781 19.5 0 27.273437 1.394532 1.734375 1.519532 1.929688 1.519532 3.152344 0 1.226563-.125 1.421875-1.519532 3.15625-3.363281 3.746094-5.214843 8.605469-5.195312 13.640625zm0 0"/></svg>