<svg height="512pt" viewBox="-112 0 512 512.00543" width="512pt" xmlns="http://www.w3.org/2000/svg"><path d="m109.058594 42.671875c2.261718 0 4.429687-.898437 6.03125-2.5l11.800781-11.800781c5.097656 2.632812 10.613281 4.367187 16.300781 5.117187v17.71875c0 4.710938 3.820313 8.53125 8.53125 8.53125 4.714844 0 8.535156-3.820312 8.535156-8.53125v-17.699219c5.6875-.753906 11.199219-2.488281 16.296876-5.121093l11.800781 11.800781c3.351562 3.234375 8.671875 3.1875 11.964843-.101562 3.289063-3.292969 3.335938-8.613282.101563-11.964844l-10.503906-10.519532c1.367187-1.625 2.566406-3.382812 3.578125-5.25 2.070312-4.160156.402344-9.210937-3.738282-11.320312-4.164062-2.117188-9.257812-.527344-11.476562 3.582031-5.941406 8.660157-16.101562 13.425781-26.558594 12.457031-10.394531.945313-20.5-3.769531-26.453125-12.347656-2.105469-4.214844-7.234375-5.929687-11.449219-3.820312-4.21875 2.105468-5.929687 7.234375-3.824218 11.449218 1.011718 1.867188 2.207031 3.625 3.574218 5.25l-10.546874 10.503907c-2.4375 2.441406-3.167969 6.109375-1.847657 9.296875 1.320313 3.191406 4.429688 5.269531 7.882813 5.269531zm0 0"/><path d="m51.722656 290.871094c1.160156 6.789062 4.652344 12.960937 9.871094 17.453125-3.804688 5.554687-5.542969 12.265625-4.921875 18.96875.785156 8.335937 1.183594 15.941406 1.183594 22.578125 0 4.464844-.195313 8.925781-.535157 13.382812-.820312 9.957032-2.332031 19.851563-4.523437 29.601563-9.097656 37.472656-24.195313 73.230469-44.707031 105.890625-1.742188 2.617187-1.902344 5.980468-.417969 8.753906s4.375 4.503906 7.519531 4.503906h264.53125c3.179688 0 6.097656-1.769531 7.566406-4.589844 1.46875-2.820312 1.246094-6.226562-.578124-8.832031-.066407-.109375-7.976563-11.46875-17.832032-28.816406-4.28125-7.601563-11.773437-12.855469-20.378906-14.285156l-1.824219-.296875c4.78125-7.988282 5.417969-17.789063 1.703125-26.328125-5.40625-12.328125-9.941406-25.023438-13.566406-37.988281-2.492188-8.820313-4.308594-17.820313-5.433594-26.914063-.546875-4.675781-.832031-9.375-.855468-14.082031 0-15.503906 8.378906-26.945313 17.246093-39.074219 8.304688-11.332031 16.886719-23.054687 16.886719-37.726563 0-27.738281-12.800781-33.472656-66.558594-57.632812-6.441406-2.882812-13.777344-3.039062-20.335937-.433594l-5.382813 2.15625c-1.269531-8.855468-6.980468-16.445312-15.140625-20.121094-69.808593-31.734374-84.792969-98.652343-87.996093-125.933593-.636719-5.527344-3.929688-10.398438-8.824219-13.046875-4.894531-2.652344-10.769531-2.75-15.75-.265625l-33.28125 16.648437c-7.527344 3.742188-11.164063 12.445313-8.53125 20.429688 21.019531 64.210937 38.007812 129.671875 50.867187 196zm21.332032 85.898437c22.199218 9.550781 45.984374 14.898438 70.136718 15.769531 24.402344-.867187 48.425782-6.308593 70.824219-16.035156.042969.230469.113281.488282.15625.726563.773437 4.265625 1.707031 8.53125 2.789063 13.011719-22.914063 11.683593-48.074219 18.285156-73.769532 19.363281-25.234375-1.015625-49.960937-7.398438-72.535156-18.722657.859375-4.425781 1.597656-8.898437 2.21875-13.421874.070312-.222657.121094-.460938.144531-.691407zm180.984374 101.417969c3.6875 6.496094 7.082032 12.144531 9.949219 16.75h-233.601562c15.773437-27.296875 27.996093-56.5 36.371093-86.894531 18.921876 8.855469 39.089844 14.757812 59.800782 17.503906-12.367188 11.050781-18.84375 27.257813-17.5 43.792969 0 4.710937 3.820312 8.53125 8.53125 8.53125 4.714844 0 8.535156-3.820313 8.535156-8.53125-1.363281-12.078125 3.390625-24.042969 12.671875-31.890625 1.425781-1.425781 2.910156-2.96875 4.394531-4.609375 1.484375 1.640625 2.96875 3.183594 4.394532 4.609375 9.28125 7.847656 14.035156 19.8125 12.671874 31.890625 0 4.710937 3.820313 8.53125 8.53125 8.53125 4.714844 0 8.535157-3.820313 8.535157-8.53125 1.335937-16.550782-5.152344-32.769532-17.535157-43.828125 21.515626-2.90625 42.4375-9.171875 62.011719-18.570313 2.992188 9.226563 6.570313 18.773438 10.871094 28.699219 2.203125 5.007813.671875 10.871094-3.695313 14.164063l-5.574218 4.175781c-2.730469 2.046875-3.972656 5.527343-3.164063 8.84375.808594 3.320312 3.519531 5.832031 6.886719 6.394531l18.578125 3.097656c3.515625.613282 6.574219 2.765625 8.335937 5.871094zm-203.757812-405.109375c3.539062 30.179687 20.179688 104.164063 98.027344 139.550781 3.9375 1.792969 6.03125 6.140625 4.984375 10.335938l-1.347657 5.375c-.777343 3.109375.253907 6.394531 2.667969 8.5 2.414063 2.109375 5.808594 2.683594 8.785157 1.492187l18.695312-7.484375c2.261719-.882812 4.785156-.828125 7.007812.15625 56.488282 25.367188 56.488282 26.945313 56.488282 42.066406 0 9.089844-6.289063 17.691407-13.585938 27.648438-9.632812 13.160156-20.546875 28.066406-20.546875 49.152344 0 2.875.121094 5.828125.316407 8.832031-21.519532 10.097656-44.835938 15.796875-68.582032 16.769531-23.726562-.984375-47.023437-6.675781-68.53125-16.742187.136719-2.953125.261719-5.898438.261719-8.859375 0-7.167969-.425781-15.308594-1.242187-24.175782-.40625-4.304687 1.59375-8.484374 5.203124-10.871093l.777344-.519531c2.375-1.582032 3.796875-4.246094 3.796875-7.097657 0-2.855469-1.421875-5.519531-3.796875-7.101562l-5.8125-3.875c-2.832031-1.886719-4.75-4.867188-5.296875-8.226563-13-67.117187-30.214843-133.351562-51.542969-198.304687zm0 0"/></svg>