<svg height="512pt" viewBox="0 0 512.05035 512" width="512pt" xmlns="http://www.w3.org/2000/svg"><path d="m53.953125 297.644531c-.226563-2.261719-1.363281-4.335937-3.148437-5.746093-1.78125-1.410157-4.0625-2.039063-6.316407-1.738282-4.679687.546875-8.027343 4.785156-7.484375 9.464844 2.277344 20.882812 6.710938 41.46875 13.226563 61.4375.972656 2.898438 3.410156 5.058594 6.40625 5.664062 2.992187.609376 6.082031-.425781 8.105469-2.710937 2.023437-2.289063 2.671874-5.480469 1.703124-8.378906-6.152343-18.847657-10.339843-38.28125-12.492187-57.992188zm0 0"/><path d="m93.871094 429.3125c3.410156.003906 6.492187-2.023438 7.839844-5.15625 1.347656-3.128906.707031-6.761719-1.636719-9.238281-5.382813-5.726563-10.238281-11.925781-14.503907-18.527344-2.589843-3.886719-7.828124-4.972656-11.75-2.429687-3.917968 2.542968-5.066406 7.765624-2.570312 11.714843 4.828125 7.46875 10.324219 14.480469 16.417969 20.957031 1.609375 1.710938 3.855469 2.679688 6.203125 2.679688zm0 0"/><path d="m416.78125 67.535156c2.128906.769532 4.476562.664063 6.527344-.296875 2.050781-.960937 3.632812-2.695312 4.402344-4.824219 1.292968-3.507812 3.6875-6.5 6.828124-8.53125 2.730469-1.796874 5.929688-2.742187 9.199219-2.714843 4.710938 0 8.53125-3.820313 8.53125-8.535157 0-4.710937-3.820312-8.53125-8.53125-8.53125-6.707031-.019531-13.269531 1.964844-18.84375 5.699219-6.09375 4.039063-10.734375 9.925781-13.242187 16.792969-.773438 2.132812-.667969 4.484375.296875 6.535156.960937 2.050782 2.699219 3.636719 4.832031 4.40625zm0 0"/><path d="m351.886719 145.035156c1.894531 0 3.738281-.628906 5.238281-1.792968 9.386719-7.277344 16.851562-13.046876 21.726562-16.734376 7.117188-5.378906 13.777344-11.339843 19.90625-17.824218 3.230469-3.4375 3.0625-8.839844-.375-12.066406-3.433593-3.230469-8.835937-3.0625-12.066406.375-5.464844 5.789062-11.410156 11.109374-17.765625 15.90625-4.90625 3.71875-12.46875 9.53125-21.914062 16.863281-2.882813 2.234375-4.023438 6.058593-2.839844 9.511719 1.1875 3.453124 4.4375 5.769531 8.089844 5.761718zm0 0"/><path d="m101.160156 479.6875c7.449219 3.667969 14.394532 8.277344 20.667969 13.71875 13.332031 12.011719 30.660156 18.628906 48.605469 18.5625h171.144531c17.957031.074219 35.296875-6.542969 48.640625-18.5625 6.269531-5.441406 13.214844-10.050781 20.664062-13.71875 27.734376-14.199219 93.230469-62.441406 101.035157-203.453125 1.328125-22.441406-12.136719-43.121094-33.191407-50.988281-28.664062-10.484375-58.445312-17.609375-88.75-21.230469 13.296876-13.238281 25.90625-27.144531 37.785157-41.667969 9.695312-13.453125 23.136719-23.75 38.648437-29.609375 29.636719-10.414062 48.34375-39.707031 45.320313-70.972656-2.03125-20.460937-13.121094-38.933594-30.222657-50.347656-17.433593-11.570313-39.210937-14.511719-59.085937-7.976563-19.878906 6.535156-35.660156 21.828125-42.820313 41.488282-6.421874 16.347656-17.410156 30.496093-31.660156 40.765624-24.207031 18.378907-85.109375 65.765626-138.871094 111.390626-99.371093 3.414062-147.90625 17.675781-175.785156 28.160156-21.058594 7.867187-34.523437 28.546875-33.1953122 50.988281 7.8085942 141.011719 73.3007812 189.253906 101.0703122 203.453125zm257.082032-380.382812c16.871093-12.25 29.855468-29.105469 37.394531-48.546876 3.742187-10.203124 10.609375-18.96875 19.625-25.042968 17.097656-11.554688 39.480469-11.609375 56.636719-.148438 12.882812 8.582032 21.246093 22.480469 22.792968 37.882813 1.492188 15.226562-3.925781 30.324219-14.761718 41.128906-5.402344 5.4375-11.972657 9.578125-19.210938 12.101563-18.691406 6.960937-34.910156 19.285156-46.632812 35.421874-15.210938 18.226563-31.347657 35.664063-48.34375 52.238282-13.523438 13.707031-29.796876 29.867187-51.0625 50.773437-12.117188.355469-24.265626.589844-36.445313.710938h-.316406c-11.296875.117187-22.5625.136719-33.792969.058593h-4.386719c-10.578125-.078124-21.078125-.242187-31.496093-.488281l-5.167969-.117187c-10.128907-.257813-20.136719-.589844-30.023438-1l-3.0625-.128906c13.175781-12.199219 29.210938-26.332032 47.90625-42.203126l.085938-.09375c53.914062-45.800781 115.839843-94.046874 140.261719-112.546874zm-318.933594 141.917968c24.695312-9.292968 66.347656-21.683594 148.769531-26.214844l-2.898437 2.558594c-2.621094 2.289063-5.207032 4.566406-7.75 6.828125-2.140626 1.902344-4.179688 3.738281-6.230469 5.5625-2.046875 1.828125-4.019531 3.609375-5.972657 5.378907-2.441406 2.21875-4.734374 4.332031-7.015624 6.449218-1.433594 1.332032-2.917969 2.695313-4.308594 4.003906-2.660156 2.5-5.117188 4.871094-7.535156 7.199219-43.230469-2.421875-68.121094-5.441406-68.519532-5.492187-3.066406-.457032-6.136718.78125-8.023437 3.234375s-2.300781 5.738281-1.074219 8.582031 3.898438 4.800781 6.980469 5.113281c.425781.058594 27.066406 3.308594 73.242187 5.800781h.152344c1.269531.070313 2.558594.113282 3.875.179688 5.46875.28125 11.246094.546875 17.226562.800781 2.84375.121094 5.675782.242188 8.535157.34375 2.859375.101563 5.800781.203125 8.753906.304688l5.121094.164062 6.902343.210938 7.109376.164062c5.660156.136719 11.472656.246094 17.433593.332031 2.320313 0 4.632813.078126 6.972657.101563h2.371093c7.328125.078125 14.8125.128906 22.554688.128906 9.972656 0 19.496093-.09375 28.78125-.210937l4.429687-.070313c9.898438-.152343 19.386719-.367187 28.414063-.640625h.898437c73.207032-2.210937 117.179688-7.585937 117.757813-7.679687 3.082031-.3125 5.753906-2.265625 6.980469-5.109375 1.226562-2.84375.8125-6.128906-1.074219-8.582032-1.886719-2.457031-4.957031-3.695312-8.019531-3.238281-.480469.058594-35.226563 4.265625-94.269532 6.742188 3.980469-3.921875 7.929688-7.828125 11.84375-11.726563l1.167969-1.160156c7.570313-7.507812 14.96875-14.90625 22.050781-22.058594 33.382813 3.144532 66.230469 10.511719 97.757813 21.921875 14.074219 5.257813 23.074219 19.078125 22.1875 34.074219-7.320313 132.15625-66.636719 176.332031-91.808594 189.203125-8.742187 4.324219-16.890625 9.753906-24.246094 16.160156-10.207031 9.238281-23.488281 14.34375-37.253906 14.320313h-171.144531c-13.757813.042968-27.039063-5.035156-37.257813-14.242188-7.351562-6.421875-15.5-11.871094-24.242187-16.214844-25.175782-12.859374-84.480469-57.035156-91.8125-189.191406-.863282-14.980468 8.128906-28.78125 22.1875-34.03125zm0 0"/></svg>