<svg height="512pt" viewBox="0 0 512 512" width="512pt" xmlns="http://www.w3.org/2000/svg"><path d="m486.398438 0h-17.066407c-14.136719 0-25.597656 11.460938-25.597656 25.601562v147.625c-2.144531-.515624-4.25-1.195312-6.289063-2.03125-6.128906-2.511718-12.6875-3.824218-19.3125-3.855468v-158.804688c0-4.714844-3.820312-8.535156-8.53125-8.535156-4.714843 0-8.535156 3.820312-8.535156 8.535156v160.835938c-1.972656.597656-3.796875 1.226562-5.453125 1.859375-3.6875 1.558593-7.617187 2.472656-11.613281 2.703125v-165.398438c0-4.714844-3.820312-8.535156-8.535156-8.535156-4.710938 0-8.53125 3.820312-8.53125 8.535156v163.035156l-.929688-.339843c-5.144531-2.101563-10.59375-3.359375-16.136718-3.730469v-158.964844c0-4.714844-3.820313-8.535156-8.535157-8.535156-4.710937 0-8.53125 3.820312-8.53125 8.535156v159.964844c-2.929687.6875-5.804687 1.601562-8.59375 2.730469-2.722656 1.121093-5.566406 1.921875-8.472656 2.390625v-165.085938c0-4.714844-3.820313-8.535156-8.535156-8.535156-4.710938 0-8.53125 3.820312-8.53125 8.535156v164.09375c-1.347657-.417968-2.664063-.851562-4.027344-1.398437-4.179687-1.714844-8.5625-2.882813-13.039063-3.472657v-159.222656c0-4.714844-3.820312-8.535156-8.535156-8.535156-4.710937 0-8.53125 3.820312-8.53125 8.535156v159.453125c-4 .640625-7.910156 1.730469-11.667968 3.242188-1.761719.699219-3.566407 1.296875-5.402344 1.792969v-164.488282c0-4.714844-3.820313-8.535156-8.53125-8.535156-4.714844 0-8.535156 3.820312-8.535156 8.535156v164.863282c-2.433594-.503907-4.8125-1.230469-7.117188-2.167969-3.21875-1.28125-6.550781-2.273438-9.949219-2.960938v-159.734375c0-4.714844-3.820312-8.535156-8.53125-8.535156-4.714843 0-8.535156 3.820312-8.535156 8.535156v159.035156c-5.074219.476563-10.050781 1.710938-14.761719 3.660157l-2.304687.851562v-163.546875c0-4.714844-3.820313-8.535156-8.53125-8.535156-4.714844 0-8.535157 3.820312-8.535157 8.535156v165.332032c-3.527343-.351563-6.980468-1.242188-10.238281-2.636719-2.234375-.875-4.515625-1.632813-6.828125-2.269531v-160.425782c0-4.714844-3.820312-8.535156-8.53125-8.535156-4.714844 0-8.535156 3.820312-8.535156 8.535156v158.871094c-5.851562.191406-11.625 1.390625-17.066406 3.542969v-162.414063c0-4.714844-3.820313-8.535156-8.535156-8.535156-4.710938 0-8.53125 3.820312-8.53125 8.535156v165.476563c-4.558594-.050781-9.058594-.996094-13.253907-2.78125-3.964843-1.613281-8.109375-2.742188-12.347656-3.363281v-142.265626c0-14.140624-11.460937-25.601562-25.597656-25.601562h-17.066407c-14.140624 0-25.601562 11.460938-25.601562 25.601562v460.796876c0 14.140624 11.460938 25.601562 25.601562 25.601562h460.796876c14.140624 0 25.601562-11.460938 25.601562-25.601562v-460.796876c0-14.140624-11.460938-25.601562-25.601562-25.601562zm-469.332032 486.398438v-460.796876c0-4.714843 3.820313-8.535156 8.535156-8.535156h17.066407c4.710937 0 8.53125 3.820313 8.53125 8.535156v469.332032h-25.597657c-4.714843 0-8.535156-3.820313-8.535156-8.535156zm51.199219-301.226563c2.132813.515625 4.21875 1.195313 6.246094 2.03125 6.609375 2.773437 13.726562 4.128906 20.890625 3.976563 2.089844 0 3.847656-.136719 5.582031-.289063.460937.128906.9375.214844 1.414063.257813 1.332031-.027344 2.636718-.367188 3.808593-1 3.4375-.683594 6.808594-1.679688 10.066407-2.976563 4.65625-2.023437 9.699218-2.996094 14.773437-2.851563 5.078125-.144531 10.125.828126 14.789063 2.851563 6.605468 2.773437 13.71875 4.125 20.878906 3.976563 1.375 0 2.449218-.121094 3.660156-.191407.105469 0 .1875.0625.292969.0625.101562 0 .3125-.09375.484375-.101562 5.648437-.34375 11.207031-1.609375 16.445312-3.746094 9.496094-3.800781 20.089844-3.800781 29.585938 0 6.609375 2.773437 13.730468 4.128906 20.894531 3.976563h.710937.152344c.058594 0 .171875-.054688.265625-.054688 6.785157.011719 13.503907-1.316406 19.769531-3.914062 9.492188-3.800782 20.078126-3.800782 29.570313 0 5.769531 2.355468 11.917969 3.652343 18.148437 3.832031.179688 0 .335938.109375.511719.109375.101563-.019532.203125-.039063.300781-.066406.683594 0 1.203126.101562 1.929688.101562 7.160156.148438 14.273438-1.207031 20.878906-3.976562 9.5-3.800782 20.09375-3.800782 29.59375 0 4.882813 2.003906 10.042969 3.25 15.300782 3.683593.09375 0 .171874.0625.265624.0625h.160157c1.621093.128907 3.242187.261719 5.179687.261719 7.167969.152344 14.289063-1.199219 20.898438-3.976562 9.519531-3.796876 20.132812-3.796876 29.652344 0 3.96875 1.648437 8.125 2.792968 12.375 3.414062v304.308594h-375.476563zm426.667969 301.226563c0 4.714843-3.820313 8.535156-8.535156 8.535156h-25.597657v-469.332032c0-4.714843 3.820313-8.535156 8.53125-8.535156h17.066407c4.714843 0 8.535156 3.820313 8.535156 8.535156zm0 0"/><path d="m140.347656 256.894531c-13.25-6.105469-28.511718-6.105469-41.761718 0-4.21875 2.109375-5.929688 7.234375-3.824219 11.453125 2.109375 4.21875 7.234375 5.929688 11.453125 3.824219 8.445312-3.710937 18.058594-3.710937 26.503906 0 2.730469 1.363281 5.976562 1.164063 8.523438-.515625 2.542968-1.683594 3.996093-4.59375 3.8125-7.636719-.183594-3.046875-1.976563-5.761719-4.707032-7.125zm0 0"/><path d="m208.613281 308.054688c-13.25-6.117188-28.511719-6.117188-41.761719 0-4.21875 2.105468-5.929687 7.230468-3.820312 11.449218 2.105469 4.21875 7.230469 5.929688 11.449219 3.824219 8.445312-3.714844 18.0625-3.714844 26.503906 0 2.730469 1.363281 5.976563 1.167969 8.523437-.515625 2.542969-1.679688 3.996094-4.59375 3.8125-7.636719-.183593-3.042969-1.976562-5.757812-4.707031-7.121093zm0 0"/><path d="m353.679688 308.054688c-13.25-6.113282-28.511719-6.113282-41.761719 0-4.21875 2.105468-5.929688 7.230468-3.820313 11.449218 2.105469 4.21875 7.230469 5.929688 11.449219 3.824219 8.445313-3.714844 18.0625-3.714844 26.503906 0 4.21875 2.105469 9.347657.394531 11.453125-3.824219 2.105469-4.21875.394532-9.34375-3.824218-11.449218zm0 0"/><path d="m208.613281 427.5625c-13.25-6.113281-28.511719-6.113281-41.761719 0-4.21875 2.105469-5.929687 7.234375-3.820312 11.453125 2.105469 4.214844 7.230469 5.929687 11.449219 3.820313 8.445312-3.714844 18.0625-3.714844 26.503906 0 2.730469 1.363281 5.976563 1.167968 8.523437-.515626 2.542969-1.679687 3.996094-4.589843 3.8125-7.636718-.183593-3.042969-1.976562-5.757813-4.707031-7.121094zm0 0"/><path d="m353.679688 427.5625c-13.25-6.113281-28.511719-6.113281-41.761719 0-4.21875 2.105469-5.929688 7.234375-3.820313 11.453125 2.105469 4.214844 7.230469 5.929687 11.449219 3.820313 8.445313-3.714844 18.0625-3.714844 26.503906 0 4.21875 2.109374 9.347657.394531 11.453125-3.820313 2.105469-4.21875.394532-9.347656-3.824218-11.453125zm0 0"/><path d="m276.882812 256.894531c-13.253906-6.105469-28.511718-6.105469-41.765624 0-2.726563 1.363281-4.519532 4.078125-4.707032 7.125-.183594 3.042969 1.273438 5.953125 3.816406 7.636719 2.542969 1.679688 5.792969 1.878906 8.519532.515625 8.445312-3.710937 18.0625-3.710937 26.507812 0 4.214844 2.105469 9.34375.394531 11.449219-3.824219 2.109375-4.21875.394531-9.34375-3.820313-11.453125zm0 0"/><path d="m413.414062 256.894531c-13.25-6.105469-28.511718-6.105469-41.761718 0-4.21875 2.109375-5.929688 7.234375-3.824219 11.453125 2.109375 4.21875 7.234375 5.929688 11.453125 3.824219 8.445312-3.710937 18.058594-3.710937 26.503906 0 4.21875 2.105469 9.34375.394531 11.453125-3.824219 2.105469-4.21875.394531-9.34375-3.824219-11.453125zm0 0"/><path d="m140.347656 367.828125c-13.25-6.117187-28.515625-6.117187-41.761718 0-2.730469 1.363281-4.523438 4.078125-4.707032 7.125-.183594 3.042969 1.269532 5.953125 3.8125 7.636719 2.546875 1.679687 5.792969 1.875 8.523438.515625 8.445312-3.714844 18.058594-3.714844 26.503906 0 4.21875 2.105469 9.34375.394531 11.453125-3.824219 2.105469-4.21875.394531-9.34375-3.824219-11.453125zm0 0"/><path d="m276.882812 367.828125c-13.25-6.117187-28.515624-6.117187-41.765624 0-4.214844 2.109375-5.929688 7.234375-3.820313 11.453125 2.105469 4.21875 7.234375 5.929688 11.449219 3.824219 8.445312-3.714844 18.0625-3.714844 26.507812 0 4.214844 2.105469 9.34375.394531 11.449219-3.824219 2.109375-4.21875.394531-9.34375-3.820313-11.453125zm0 0"/><path d="m413.414062 367.828125c-13.25-6.117187-28.511718-6.117187-41.761718 0-4.21875 2.109375-5.929688 7.234375-3.824219 11.453125 2.109375 4.21875 7.234375 5.929688 11.453125 3.824219 8.445312-3.714844 18.058594-3.714844 26.503906 0 4.21875 2.105469 9.34375.394531 11.453125-3.824219 2.105469-4.21875.394531-9.34375-3.824219-11.453125zm0 0"/></svg>