<svg height="512pt" viewBox="0 0 512.08384 512" width="512pt" xmlns="http://www.w3.org/2000/svg"><path d="m3.03125 464c-.105469.230469-.257812.425781-.351562.65625-.683594 1.695312-1.226563 3.445312-1.621094 5.230469-.101563.410156-.28125.785156-.367188 1.195312-.921875 4.503907-.921875 9.148438 0 13.652344.085938.410156.265625.785156.367188 1.195313.394531 1.785156.9375 3.535156 1.621094 5.230468.09375.230469.246093.425782.351562.65625.785156 1.785156 1.722656 3.5 2.804688 5.121094v.050781c1.214843 1.796875 2.59375 3.472657 4.121093 5.011719 1.488281 1.476562 3.113281 2.808594 4.847657 3.984375.078124.050781.136718.125.214843.179687 1.597657 1.050782 3.28125 1.964844 5.035157 2.738282.273437.117187.511718.304687.792968.417968 1.660156.667969 3.371094 1.203126 5.121094 1.59375.441406.113282.851562.300782 1.304688.394532 4.503906.921875 9.148437.921875 13.652343 0 .417969-.085938.792969-.265625 1.210938-.367188 1.78125-.398437 3.523437-.941406 5.214843-1.621094.214844-.09375.402344-.238281.621094-.332031 3.8125-1.679687 7.285156-4.042969 10.242188-6.972656l442.691406-441.121094c6.4375-6.570312 10.339844-15.207031 11.015625-24.382812.949219-9.457031-2.332031-18.851563-8.96875-25.65625-12.890625-13.710938-34.445313-14.402344-48.1875-1.546875l-444.765625 444.46875c-1.527344 1.535156-2.910156 3.210937-4.121094 5.007812v.050782c-1.097656 1.632812-2.050781 3.363281-2.847656 5.164062zm109.292969-88.347656c13.121093.75 23.519531 11.351562 24.011719 24.484375l-69.324219 69.117187c-3.121094-11.8125-12.335938-21.046875-24.140625-24.199218zm-94.917969 98.84375c0-.214844.136719-.402344.191406-.617188.214844-.871094.5-1.726562.851563-2.558594.058593-.136718.144531-.253906.203125-.390624.390625-.875.847656-1.71875 1.375-2.519532.179687-.273437.425781-.503906.632812-.765625 3.871094-5.152343 10.320313-7.671875 16.65625-6.511719 6.339844 1.15625 11.480469 5.792969 13.28125 11.980469 1.800782 6.183594-.046875 12.859375-4.773437 17.238281-6.628907 5.9375-16.667969 5.9375-23.296875 0-.867188-.808593-1.648438-1.703124-2.328125-2.671874-.050781-.070313-.121094-.128907-.171875-.207032-.539063-.8125-1.003906-1.667968-1.398438-2.558594-.050781-.109374-.128906-.222656-.179687-.339843-.351563-.84375-.636719-1.714844-.851563-2.605469-.054687-.203125-.148437-.398438-.191406-.605469-.453125-2.25-.453125-4.574219 0-6.824219zm449.425781-453.121094c2.765625-2.773438 6.53125-4.3125 10.445313-4.265625 5.128906.085937 10.023437 2.160156 13.652344 5.785156 3.039062 3.339844 4.488281 7.828125 3.988281 12.3125-.378907 5.089844-2.519531 9.886719-6.050781 13.570313l-338.167969 337.066406c-4.292969-11.148438-13.050781-19.988281-24.160157-24.382812zm0 0"/><path d="m460.800781 59.773438c0 4.714843-3.820312 8.535156-8.535156 8.535156-4.710937 0-8.53125-3.820313-8.53125-8.535156 0-4.710938 3.820313-8.53125 8.53125-8.53125 4.714844 0 8.535156 3.820312 8.535156 8.53125zm0 0"/><path d="m256 264.574219c0 4.714843-3.820312 8.535156-8.535156 8.535156-4.710938 0-8.53125-3.820313-8.53125-8.535156 0-4.710938 3.820312-8.53125 8.53125-8.53125 4.714844 0 8.535156 3.820312 8.535156 8.53125zm0 0"/><path d="m230.398438 290.175781c0 4.710938-3.820313 8.53125-8.53125 8.53125-4.714844 0-8.535157-3.820312-8.535157-8.53125 0-4.714843 3.820313-8.535156 8.535157-8.535156 4.710937 0 8.53125 3.820313 8.53125 8.535156zm0 0"/><path d="m204.800781 315.773438c0 4.714843-3.820312 8.535156-8.535156 8.535156-4.710937 0-8.53125-3.820313-8.53125-8.535156 0-4.710938 3.820313-8.53125 8.53125-8.53125 4.714844 0 8.535156 3.820312 8.535156 8.53125zm0 0"/><path d="m281.601562 238.976562c0 4.710938-3.820312 8.53125-8.535156 8.53125-4.710937 0-8.53125-3.820312-8.53125-8.53125 0-4.714843 3.820313-8.535156 8.53125-8.535156 4.714844 0 8.535156 3.820313 8.535156 8.535156zm0 0"/><path d="m30.933594 332.382812c1.902344.3125 3.832031.464844 5.757812.460938 6.128906-.066406 12.171875-1.417969 17.742188-3.96875 12.527344-4.597656 21.210937-16.09375 22.210937-29.398438.066407-.253906.117188-.507812.15625-.769531v-97.109375c1.59375 1.46875 3.207031 2.910156 4.820313 4.355469 10.683594 9.539063 20.777344 18.515625 20.777344 33.023437-.53125 10.515626-3.144532 20.824219-7.679688 30.324219-2.101562 4.222657-.386719 9.347657 3.832031 11.453125 4.222657 2.105469 9.347657.390625 11.453125-3.832031 5.703125-11.871094 8.921875-24.785156 9.460938-37.945313 0-22.109374-14.683594-35.21875-26.453125-45.75-8.710938-7.765624-16.210938-14.460937-16.210938-22.519531 0-4.710937-3.820312-8.53125-8.535156-8.53125-4.710937 0-8.53125 3.820313-8.53125 8.53125v108.765625c-.949219-.316406-1.917969-.585937-2.894531-.800781-7.992188-1.125-16.140625.09375-23.457032 3.507813-17.460937 7.859374-26.511718 24.269531-20.582031 37.359374 3.488281 7.066407 10.308594 11.894532 18.132813 12.84375zm9.445312-34.636718c3.375-1.558594 7.039063-2.394532 10.753906-2.460938.972657-.003906 1.945313.070313 2.910157.222656 2.171875.117188 4.167969 1.226563 5.410156 3.011719 1.421875 3.175781-2.5625 10.515625-12.058594 14.789063-4.246093 2.035156-8.984375 2.8125-13.652343 2.234375-2.171876-.113281-4.167969-1.21875-5.410157-3-1.445312-3.175781 2.550781-10.523438 12.046875-14.796875zm0 0"/><path d="m141.867188 170.246094c1.902343.3125 3.828124.46875 5.757812.460937 6.128906-.0625 12.171875-1.414062 17.742188-3.964843 12.542968-4.585938 21.246093-16.082032 22.253906-29.398438.050781-.253906.089844-.511719.113281-.769531v-97.109375c1.59375 1.46875 3.207031 2.910156 4.820313 4.351562 10.683593 9.542969 20.777343 18.519532 20.777343 33.027344-.535156 10.515625-3.144531 20.820312-7.679687 30.324219-2.101563 4.222656-.386719 9.347656 3.832031 11.453125 4.222656 2.105468 9.347656.390625 11.453125-3.832032 5.703125-11.875 8.921875-24.785156 9.460938-37.945312 0-22.113281-14.683594-35.21875-26.453126-45.75-8.710937-7.765625-16.210937-14.464844-16.210937-22.519531 0-4.710938-3.820313-8.5312502-8.535156-8.5312502-4.710938 0-8.53125 3.8203122-8.53125 8.5312502v108.765625c-.949219-.316406-1.917969-.585938-2.894531-.800782-7.992188-1.128906-16.144532.089844-23.457032 3.507813-17.460937 7.859375-26.515625 24.269531-20.625 37.359375 3.496094 7.078125 10.335938 11.910156 18.175782 12.839844zm9.445312-34.636719c3.375-1.554687 7.035156-2.390625 10.753906-2.457031.972656-.003906 1.945313.070312 2.910156.222656 2.171876.113281 4.167969 1.226562 5.410157 3.011719 1.421875 3.175781-2.5625 10.515625-12.058594 14.789062-4.246094 2.027344-8.984375 2.804688-13.652344 2.234375-2.171875-.113281-4.167969-1.222656-5.410156-3.003906-1.445313-3.171875 2.550781-10.519531 12.046875-14.796875zm0 0"/></svg>