<svg height="512pt" viewBox="-119 0 512 512.07945" width="512pt" xmlns="http://www.w3.org/2000/svg"><path d="m197.578125 506.230469c8.53125-2.109375 15.367187-8.480469 18.074219-16.84375 13.472656-41.285157 57.453125-179.5 57.453125-224.851563 0-62.003906-18.5-98.699218-34.78125-119.035156-.089844-.148438-.1875-.292969-.289063-.433594-.332031-.417968-.699218-.785156-1.042968-1.195312-1.308594-1.570313-2.589844-3.035156-3.847657-4.402344-.503906-.546875-1.015625-1.074219-1.527343-1.605469-1.707032-1.765625-3.351563-3.410156-4.890626-4.8125-2.171874-1.984375-4.113281-4.207031-5.785156-6.628906-.324218-.460937-.527344-1.007813-.851562-1.484375-1.324219-2.042969-2.46875-4.195312-3.414063-6.433594-2.164062-5.21875-3.285156-10.8125-3.300781-16.460937v-16.710938c.984375-21.164062 8.449219-41.515625 21.382812-58.296875 3.738282-5.195312 4.253907-12.046875 1.339844-17.742187-2.914062-5.699219-8.773437-9.2851565-15.171875-9.292969h-168.703125c-6.402344.0078125-12.257812 3.59375-15.171875 9.292969-2.917969 5.695312-2.398437 12.546875 1.335938 17.742187 12.933593 16.78125 20.398437 37.132813 21.386719 58.296875v16.710938c-.015626 5.640625-1.132813 11.222656-3.292969 16.433593-.953125 2.226563-2.09375 4.363282-3.414063 6.390626-.316406.496093-.53125 1.050781-.855468 1.535156-1.585938 2.265625-3.414063 4.351562-5.441407 6.230468-.121093.121094-.214843.273438-.34375.394532-1.550781 1.414062-3.222656 3.078125-4.941406 4.863281-.476563.503906-.960937.996094-1.441406 1.511719-1.3125 1.433594-2.652344 2.949218-4.027344 4.605468-.289063.351563-.605469.675782-.894531 1.035157-.101563.144531-.195313.292969-.28125.449219-16.292969 20.328124-34.8007815 57.03125-34.8007815 119.042968 0 45.351563 43.9804685 183.566406 57.4570315 224.851563 2.703125 8.363281 9.539062 14.734375 18.070312 16.84375 20.035156 4.34375 40.515625 6.277343 61.007813 5.769531 20.492187.507812 40.96875-1.425781 61.003906-5.769531zm19.976563-79.5625c-2.746094.605469-5.511719 1.175781-8.292969 1.707031 22.382812-84.855469 40.421875-180.175781 4.980469-265.15625 4.644531-.914062 9.269531-1.929688 13.816406-3.082031 13.621094 18.6875 27.980468 51.082031 27.980468 104.398437 0 26.453125-17.730468 93.96875-38.484374 162.132813zm-100.769532 7.847656c-12.433594-80.304687-21.984375-188.117187-1.707031-264.53125 5.121094.289063 9.445313.46875 12.917969.570313v264.535156c-3.027344-.179688-6.867188-.351563-11.210938-.597656zm-34.457031-3.207031c-22.828125-85.136719-42.667969-181.761719-6.128906-265.183594 7.535156 1.078125 14.839843 1.914062 21.640625 2.5625-19.6875 77.816406-10.742188 184.097656 1.476562 264.53125-5.410156-.527344-11.101562-1.152344-16.988281-1.9375zm-24.261719-285.796875c1.996094-1.855469 3.851563-3.851563 5.554688-5.976563.410156-.5.855468-1.011718 1.222656-1.535156 1.695312-2.21875 3.234375-4.558594 4.597656-6.996094l.042969-.058594c22.203125 3.457032 44.621094 5.324219 67.089844 5.589844 22.472656-.269531 44.898437-2.140625 67.105469-5.601562v.0625c1.367187 2.445312 2.910156 4.789062 4.617187 7.011718.382813.515626.785156 1 1.175781 1.496094 1.730469 2.160156 3.617188 4.191406 5.640625 6.074219-25.890625 5.003906-52.171875 7.6875-78.539062 8.023437-26.390625-.324218-52.699219-3-78.609375-8.003906zm87.039063 24.992187c3.472656-.101562 7.816406-.28125 12.921875-.570312 20.316406 76.441406 10.765625 184.25-1.707032 264.53125-4.34375.25-8.183593.417968-11.257812.523437zm30.199219-1.867187c6.828124-.625 14.105468-1.460938 21.640624-2.5625 36.558594 83.441406 16.699219 180.054687-6.125 265.183593-5.890624.785157-11.589843 1.40625-16.992187 1.902344 12.238281-80.425781 21.164063-186.707031 1.476563-264.523437zm-123.082032-151.570313h168.695313c-15.042969 19.675782-23.640625 43.519532-24.613281 68.265625v16.710938c0 4.21875.445312 8.425781 1.324218 12.550781-20.222656 2.949219-40.621094 4.578125-61.054687 4.871094-20.441407-.292969-40.839844-1.921875-61.066407-4.871094.882813-4.125 1.328126-8.332031 1.332032-12.550781v-16.710938c-.964844-24.75-9.5625-48.597656-24.617188-68.265625zm-7.136718 143.035156c4.550781 1.152344 9.167968 2.167969 13.816406 3.082032-35.4375 84.984375-17.398438 180.300781 4.984375 265.15625-2.78125-.519532-5.546875-1.09375-8.296875-1.707032-20.75-68.128906-38.484375-135.644531-38.484375-162.097656 0-53.316406 14.363281-85.710937 27.980469-104.433594zm28.640624 323.984376c-1.402343-4.265626-2.800781-8.625-4.207031-12.984376-2.324219-7.238281-5.121093-15.992187-8.167969-25.847656 24.839844 4.382813 50 6.730469 75.222657 7.011719 25.21875-.28125 50.375-2.625 75.210937-7.011719-3.0625 9.855469-5.84375 18.609375-8.164062 25.847656-1.410156 4.359376-2.808594 8.710938-4.207032 12.984376-.890624 2.773437-3.148437 4.886718-5.976562 5.582031-18.675781 4.003906-37.765625 5.773437-56.863281 5.265625-19.097657.507812-38.1875-1.257813-56.867188-5.265625-2.828125-.695313-5.09375-2.808594-5.980469-5.582031zm0 0"/></svg>