<svg height="511pt" viewBox="0 0 511.96294 511" width="511pt" xmlns="http://www.w3.org/2000/svg"><path d="m72.972656 272.65625c1.1875.578125 2.492188.871094 3.8125.855469 3.25.015625 6.226563-1.8125 7.679688-4.71875 8.183594-16.386719 24.894531-41.492188 25.0625-41.746094 1.757812-2.535156 2.003906-5.824219.65625-8.59375-1.351563-2.773437-4.09375-4.601563-7.175782-4.78125-3.078124-.179687-6.015624 1.316406-7.679687 3.910156-.707031 1.058594-17.457031 26.230469-26.136719 43.582031-1.03125 2.023438-1.210937 4.375-.5 6.53125.710938 2.15625 2.25 3.941407 4.28125 4.960938zm0 0"/><path d="m177.113281 281.804688c.675781.164062 1.375.246093 2.074219.238281 3.910156-.003907 7.316406-2.664063 8.265625-6.460938 3.886719-16.980469 9.386719-33.554687 16.429687-49.492187 1.359376-2.726563 1.160157-5.976563-.519531-8.519532-1.683593-2.542968-4.59375-3.996093-7.636719-3.808593-3.046874.183593-5.757812 1.980469-7.121093 4.707031-7.636719 17.007812-13.566407 34.730469-17.707031 52.90625-.570313 2.207031-.238282 4.554688.929687 6.511719 1.167969 1.960937 3.070313 3.371093 5.285156 3.917969zm0 0"/><path d="m142.355469 213.359375c4.46875 1.492187 9.304687-.925781 10.796875-5.394531 5.074218-14.585938 13.085937-27.980469 23.542968-39.347656 2.972657-3.386719 2.804688-8.5-.390624-11.679688-3.195313-3.179688-8.3125-3.328125-11.683594-.335938-12.359375 13.214844-21.785156 28.886719-27.667969 45.996094-1.46875 4.460938.949219 9.273438 5.402344 10.761719zm0 0"/><path d="m220.613281 153.976562c.414063.050782.824219.074219 1.238281.066407 4.226563-.003907 7.816407-3.105469 8.433594-7.289063 1.15625-7.789062 3.628906-15.324218 7.3125-22.289062 1.722656-2.578125 1.910156-5.890625.484375-8.648438-1.421875-2.761718-4.230469-4.527344-7.332031-4.617187-3.101562-.089844-6.011719 1.507812-7.59375 4.179687-4.929688 8.984375-8.234375 18.773438-9.761719 28.910156-.328125 2.242188.246094 4.523438 1.601563 6.339844 1.355468 1.816406 3.375 3.019532 5.617187 3.347656zm0 0"/><path d="m427.546875 268.808594c1.453125 2.886718 4.410156 4.707031 7.640625 4.703125 2.953125-.003907 5.699219-1.535157 7.253906-4.050781 1.554688-2.515626 1.695313-5.652344.375-8.296876-8.679687-17.351562-25.429687-42.523437-26.140625-43.582031-1.664062-2.59375-4.601562-4.089843-7.679687-3.910156s-5.820313 2.007813-7.171875 4.78125c-1.351563 2.769531-1.101563 6.058594.652343 8.59375.179688.273437 16.886719 25.378906 25.070313 41.761719zm0 0"/><path d="m324.507812 275.601562c.957032 3.789063 4.367188 6.445313 8.277344 6.441407.703125.003906 1.402344-.082031 2.082032-.253907 4.570312-1.148437 7.347656-5.78125 6.203124-10.351562-4.136718-18.179688-10.070312-35.902344-17.707031-52.90625-2.101562-4.21875-7.226562-5.933594-11.445312-3.828125s-5.933594 7.230469-3.828125 11.445313c7.035156 15.925781 12.53125 32.484374 16.417968 49.453124zm0 0"/><path d="m358.820312 207.964844c1.492188 4.476562 6.332032 6.898437 10.808594 5.40625 4.476563-1.492188 6.898438-6.328125 5.40625-10.808594-5.882812-17.105469-15.308594-32.78125-27.664062-45.992188-3.359375-3.15625-8.613282-3.078124-11.875.175782-3.261719 3.253906-3.351563 8.507812-.203125 11.871094 10.453125 11.371093 18.457031 24.761718 23.527343 39.347656zm0 0"/><path d="m281.679688 146.773438c.625 4.179687 4.214843 7.269531 8.4375 7.269531.417968 0 .835937-.027344 1.246093-.085938 4.660157-.679687 7.886719-5.007812 7.210938-9.667969-1.523438-10.136718-4.828125-19.925781-9.761719-28.910156-1.582031-2.671875-4.488281-4.269531-7.589844-4.179687-3.101562.089843-5.910156 1.855469-7.335937 4.617187-1.421875 2.757813-1.234375 6.070313.488281 8.648438 3.683594 6.96875 6.152344 14.511718 7.304688 22.308594zm0 0"/><path d="m255.984375 230.84375c4.714844 0 8.535156-3.820312 8.535156-8.535156v-42.664063c0-4.714843-3.820312-8.535156-8.535156-8.535156-4.710937 0-8.53125 3.820313-8.53125 8.535156v42.664063c0 4.714844 3.820313 8.535156 8.53125 8.535156zm0 0"/><path d="m255.984375 94.308594c4.714844 0 8.535156-3.820313 8.535156-8.53125v-34.132813c0-4.714843-3.820312-8.535156-8.535156-8.535156-4.710937 0-8.53125 3.820313-8.53125 8.535156v34.132813c0 4.710937 3.820313 8.53125 8.53125 8.53125zm0 0"/><path d="m298.652344 512.441406h136.535156c18.847656 0 34.132812-15.28125 34.132812-34.132812v-155.636719c12.277344-1.46875 21.699219-2.824219 28.160157-3.859375 5.515625-.871094 10.265625-4.371094 12.730469-9.386719 2.433593-4.9375 2.328124-10.753906-.289063-15.597656-67.507813-124.613281-149.625-224.265625-237.46875-288.058594-9.847656-7.050781-23.089844-7.050781-32.9375 0-87.839844 63.792969-169.957031 163.445313-237.472656 288.082031-2.617188 4.847657-2.726563 10.660157-.289063 15.601563 2.472656 5.003906 7.222656 8.496094 12.738282 9.367187 6.46875 1.027344 15.890624 2.382813 28.160156 3.851563v155.636719c0 18.851562 15.28125 34.132812 34.132812 34.132812zm-151.039063-181.554687c5.273438.242187 10.648438.480469 16.210938.691406l1.707031.0625c5.609375.203125 11.410156.390625 17.324219.570313l5.195312.144531c6.289063.171875 12.691407.324219 19.320313.453125h.707031c6.582031.128906 13.390625.210937 20.3125.289062l5.410156.050782c7.25.09375 14.589844.09375 22.183594.09375 7.597656 0 14.933594 0 22.1875-.09375l5.410156-.050782c6.921875-.078125 13.730469-.160156 20.308594-.289062h.710937c6.628907-.128906 13.027344-.28125 19.316407-.453125l5.199219-.144531c5.914062-.179688 11.714843-.367188 17.320312-.570313l1.707031-.0625c5.582031-.210937 10.957031-.449219 16.214844-.691406l2.558594-.109375v164.597656h-59.730469v-93.863281c0-28.277344-22.925781-51.203125-51.203125-51.203125s-51.199219 22.925781-51.199219 51.203125v93.863281h-59.734375v-164.597656zm74.238281 164.488281v-93.863281c0-18.851563 15.28125-34.136719 34.132813-34.136719s34.132813 15.285156 34.132813 34.136719v93.863281zm230.402344-170.808594v153.742188c0 9.425781-7.640625 17.066406-17.066406 17.066406h-51.203125v-165.484375h.144531l2.007813-.121094c4.710937-.273437 9.242187-.554687 13.652343-.851562l4.128907-.273438c4.609375-.316406 9.113281-.640625 13.398437-.964843l1.125-.085938c4.0625-.316406 7.953125-.640625 11.726563-.964844l3.234375-.273437c3.882812-.339844 7.679687-.691407 11.195312-1.03125l1.707032-.171875zm-202.703125-304.992187c3.851563-2.742188 9.019531-2.742188 12.867188 0 85.796875 62.335937 166.1875 160 232.390625 282.386719-7.851563 1.246093-20.105469 2.984374-36.695313 4.8125-1.707031.1875-3.488281.382812-5.332031.570312l-5.972656.617188c-2.492188.246093-5.121094.492187-7.75.742187l-6.101563.5625-5.722656.492187-7.058594.574219-6.058593.476563c-3.679688.273437-7.476563.542968-11.382813.8125-2.058594.144531-4.191406.273437-6.308594.410156-2.796875.175781-5.640625.351562-8.53125.527344l-6.441406.375c-4.78125.265625-9.660156.53125-14.730469.769531l-4.882812.210937c-3.980469.183594-8.023438.355469-12.125.511719l-6.75.257813c-4.265625.152344-8.625.296875-13.070313.425781l-5.34375.164063c-6.136719.167968-12.445312.316406-18.917969.441406l-5.480468.085937c-5.1875.089844-10.484375.164063-15.886719.222657l-6.179687.066406c-7.234376.085937-14.546876.085937-22.101563.085937-7.550781 0-14.863281 0-22.058594-.09375l-6.175781-.066406c-5.398438-.050781-10.695312-.125-15.890625-.222656l-5.476563-.085938c-6.46875-.128906-12.777343-.277343-18.917968-.445312l-5.359375-.160157c-4.429688-.136718-8.789063-.273437-13.046875-.425781l-6.828125-.257812c-3.953125-.152344-7.792969-.316407-11.582031-.484375l-6.355469-.292969c-4.640625-.21875-9.140625-.460937-13.542969-.699219l-7.109375-.417968-7.550781-.460938-7.246094-.476562-6.570312-.46875c-4.367188-.316407-8.601563-.640626-12.652344-.964844l-3.917969-.324219c-2.714844-.222656-5.367187-.453125-7.9375-.683594l-1.9375-.179687c-8.789063-.800782-16.714844-1.601563-23.710937-2.386719-15.726563-1.707031-27.453126-3.414063-35.054688-4.609375 66.300781-122.394531 146.695312-220.058594 232.488281-282.394531zm-189.832031 458.734375v-153.742188l5.402344.535156 2.371094.238282c3.457031.335937 7.109374.667968 10.871093.992187l3.636719.316407c3.609375.304687 7.320312.613281 11.203125.910156l1.511719.128906c4.265625.324219 8.679687.640625 13.226562.949219l4.324219.289062c4.386719.28125 8.875.5625 13.542969.851563l2.03125.121094h.144531v165.476562h-51.199219c-9.425781 0-17.066406-7.640625-17.066406-17.066406zm0 0"/></svg>