<svg height="512pt" viewBox="0 0 512 512.0088" width="512pt" xmlns="http://www.w3.org/2000/svg"><path d="m8.539062 426.671875h59.824219c-.027343.589844-.027343 1.183594 0 1.773437l7.476563 68.269532c1.152344 8.886718 8.816406 15.476562 17.773437 15.289062h85.847657c8.960937.1875 16.621093-6.402344 17.773437-15.289062l7.476563-68.269532c.496093-4.6875-1.023438-9.363281-4.171876-12.867187-3.476562-3.832031-8.414062-6.003906-13.585937-5.972656h-178.414063c-4.714843 0-8.53515575 3.820312-8.53515575 8.53125 0 4.714843 3.82031275 8.535156 8.53515575 8.535156zm170.921876 68.265625h-85.847657c-.257812-.015625-.515625-.0625-.765625-.136719h-.042968l-3.78125-33.996093h94.992187l-3.675781 33.816406c-.238282.21875-.554688.332031-.878906.316406zm8.277343-68.027344-1.878906 16.828125h-98.6875l-1.910156-16.75c.246093-.242187.585937-.359375.929687-.316406h100.777344c.273438 0 .542969.085937.769531.238281zm0 0"/><path d="m267.320312 32.011719-27.015624-27.015625c-6.667969-6.660156-17.46875-6.660156-24.132813 0l-12.066406 12.074218c-4.277344 4.304688-5.9375 10.5625-4.363281 16.417969l-16.953126 16.949219c-2.109374 2.027344-5.089843 2.863281-7.945312 2.226562-23.128906-4.5625-46.96875 3.1875-62.992188 20.480469-24.289062 26.714844-23.882812 67.636719.929688 93.867188 12.6875 13.210937 30.183594 20.730469 48.503906 20.835937h.589844c20.390625.007813 39.71875-9.117187 52.671875-24.863281 12.957031-15.75 18.183594-36.472656 14.246094-56.484375-.601563-2.8125.238281-5.742188 2.242187-7.808594l16.972656-16.953125c5.859376 1.664063 12.160157-.011719 16.417969-4.363281l12.058594-12.046875c1.035156-1.066406 1.929687-2.261719 2.652344-3.558594 7.449219 9.0625 11.355469 20.519531 11 32.246094v42.667969h-28.378907c-9.121093-.027344-17.566406 4.792968-22.1875 12.65625-.292968.511718-.496093 1.074218-.753906 1.601562-1.101562 2.152344-1.890625 4.453125-2.34375 6.828125-1.476562 8.464844-2.707031 16.921875-3.933594 25.378907l-.496093 3.464843c-6.210938 42.789063-9.523438 85.949219-9.914063 129.183594h-26.0625c-.4375-8.304687-3.925781-16.15625-9.796875-22.050781l-9.566406-9.582032c-3.347656-3.234374-8.667969-3.1875-11.960937.105469-3.292969 3.289063-3.339844 8.613281-.105469 11.960938l9.566406 9.566406c2.984375 2.992187 4.738281 6.996094 4.914063 11.222656-14.984376 3.910157-25.457032 17.417969-25.511719 32.902344v17.066406c0 14.140625 11.460937 25.601563 25.597656 25.601563 14.140625 0 25.601563-11.460938 25.601563-25.601563h18.109374c1.40625 31.726563 4.570313 63.421875 9.144532 95.011719v.050781l.496094 3.414063c1.230468 8.464844 2.457031 16.921875 3.933593 25.386718 2.160157 12.253907 12.824219 21.179688 25.269531 21.152344h210.363282c12.433594.03125 23.089844-8.878906 25.265625-21.117187 1.476562-8.46875 2.707031-16.921875 3.933593-25.386719l.496094-3.414062v-.085938c13.234375-91.300781 13.234375-184.03125 0-275.328125l-.496094-3.464844c-1.226562-8.457031-2.457031-16.914062-3.933593-25.378906-.453125-2.375-1.246094-4.671875-2.347657-6.824219-.253906-.53125-.460937-1.09375-.75-1.605468-4.621093-7.863282-13.066406-12.679688-22.1875-12.65625h-164.898437v-42.664063c.6875-26.910156-15.121094-51.511719-39.882813-62.066406zm-48.34375 54.613281c-6.019531 6.082031-8.617187 14.761719-6.925781 23.152344 3.300781 16.710937-1.945312 33.964844-13.988281 46.011718-9.582031 9.890626-22.863281 15.324219-36.632812 14.984376-13.738282-.074219-26.863282-5.703126-36.386719-15.605469-18.617188-19.667969-18.921875-50.359375-.699219-70.394531 9.632812-10.40625 23.175781-16.320313 37.359375-16.3125 3.320313 0 6.632813.320312 9.890625.953124 8.421875 1.703126 17.136719-.890624 23.261719-6.917968l15.28125-15.277344 24.132812 24.125zm33.402344-21.332031-36.207031-36.164063 12.066406-12.058594 36.195313 36.191407zm149.546875 131.089843c10.027344 85 10.027344 170.886719 0 255.890626h-26.453125v-255.890626zm84.121094 255.890626h-24.253906c9.875-85.019532 9.875-170.890626 0-255.90625h24.269531c11.625 84.90625 11.621094 171-.015625 255.90625zm-41.457031-255.890626c10.03125 85 10.03125 170.886719 0 255.890626h-25.460938c9.871094-85.019532 9.871094-170.890626 0-255.90625zm-86.183594 255.890626h-26.457031c-10.027344-85.007813-10.027344-170.902344 0-255.90625h26.457031zm-43.660156 0h-25.460938c-10.03125-85.007813-10.03125-170.902344 0-255.90625h25.503906c-9.886718 85.011718-9.898437 170.886718-.042968 255.90625zm-42.664063 0h-24.253906c-11.628906-84.90625-11.628906-171.003907 0-255.90625h24.269531c-9.878906 85.015624-9.882812 170.886718-.015625 255.90625zm-67.277343-102.351563c-9.425782 0-17.066407 7.640625-17.066407 17.066406 0 4.714844-3.820312 8.535157-8.535156 8.535157-4.710937 0-8.53125-3.820313-8.53125-8.535157v-17.066406c0-9.425781 7.640625-17.066406 17.066406-17.066406h34.191407c.078124 5.835937.222656 11.605469.394531 17.066406zm267.316406 145.015625h-210.363282c-4.148437.03125-7.714843-2.925781-8.457031-7.003906-1.085937-6.179688-1.886719-12.382813-2.851562-18.578125h232.960937c-.964844 6.195312-1.765625 12.398437-2.851562 18.578125-.742188 4.070312-4.296875 7.027344-8.4375 7.003906zm2.984375-340.683594c2.851562 1.027344 4.9375 3.5 5.46875 6.484375 1.085937 6.1875 1.886719 12.390625 2.851562 18.578125h-232.960937c.964844-6.1875 1.769531-12.390625 2.851562-18.578125.535156-2.984375 2.617188-5.457031 5.46875-6.484375.960938-.34375 1.96875-.519531 2.988282-.519531h210.347656c1.015625 0 2.027344.175781 2.984375.519531zm0 0"/></svg>