<svg height="512pt" viewBox="0 0 512 512" width="512pt" xmlns="http://www.w3.org/2000/svg"><path d="m128 323.980469c-14.136719 0-25.601562 11.464843-25.601562 25.601562 0 14.140625 11.464843 25.601563 25.601562 25.601563s25.601562-11.460938 25.601562-25.601563c0-14.136719-11.464843-25.601562-25.601562-25.601562zm0 34.136719c-4.710938 0-8.535156-3.820313-8.535156-8.535157 0-4.710937 3.824218-8.53125 8.535156-8.53125s8.535156 3.820313 8.535156 8.53125c0 4.714844-3.824218 8.535157-8.535156 8.535157zm0 0"/><path d="m384 323.980469c-14.136719 0-25.601562 11.464843-25.601562 25.601562 0 14.140625 11.464843 25.601563 25.601562 25.601563s25.601562-11.460938 25.601562-25.601563c0-14.136719-11.464843-25.601562-25.601562-25.601562zm0 34.136719c-4.710938 0-8.535156-3.820313-8.535156-8.535157 0-4.710937 3.824218-8.53125 8.535156-8.53125s8.535156 3.820313 8.535156 8.53125c0 4.714844-3.824218 8.535157-8.535156 8.535157zm0 0"/><path d="m290.132812 264.25v-51.199219c0-18.851562-15.28125-34.136719-34.132812-34.136719s-34.132812 15.285157-34.132812 34.136719v51.199219c-4.714844 0-8.535157 3.820312-8.535157 8.53125 0 4.714844 3.820313 8.535156 8.535157 8.535156h68.265624c4.714844 0 8.535157-3.820312 8.535157-8.535156 0-4.710938-3.820313-8.53125-8.535157-8.53125zm-51.199218 0v-51.199219c0-9.425781 7.640625-17.070312 17.066406-17.070312s17.066406 7.644531 17.066406 17.070312v51.199219zm0 0"/><path d="m358.398438 102.117188h17.066406c0 9.425781 7.644531 17.066406 17.070312 17.066406h17.066406c9.425782 0 17.066407-7.640625 17.066407-17.066406h17.066406c0 9.425781 7.640625 17.066406 17.066406 17.066406h17.066407c9.425781 0 17.066406-7.640625 17.066406-17.066406h8.53125c4.714844 0 8.535156-3.820313 8.535156-8.535157 0-4.710937-3.820312-8.53125-8.535156-8.53125h-8.53125c-9.425782 0-17.066406 7.640625-17.066406 17.066407h-17.066407c0-9.425782-7.640625-17.066407-17.066406-17.066407h-17.066406c-9.425781 0-17.066407 7.640625-17.066407 17.066407h-17.066406c0-9.425782-7.644531-17.066407-17.070312-17.066407h-17.066406c-9.425782 0-17.066407 7.640625-17.066407 17.066407h-9.890625l-37.042968-53.453126-26.902344-42.933593c-2.761719-3.664063-7.105469-5.792969-11.691406-5.730469-4.589844.0664062-8.867188 2.320312-11.519532 6.066406l-26.445312 42.289063-37.292969 53.761719h-9.878906c0-9.425782-7.640625-17.066407-17.066407-17.066407h-17.066406c-9.425781 0-17.070312 7.640625-17.070312 17.066407h-17.066406c0-9.425782-7.640626-17.066407-17.066407-17.066407h-17.066406c-9.425781 0-17.066406 7.640625-17.066406 17.066407h-17.066407c0-9.425782-7.640624-17.066407-17.066406-17.066407h-8.53125c-4.714844 0-8.535156 3.820313-8.535156 8.53125 0 4.714844 3.820312 8.535157 8.535156 8.535157h8.53125c0 9.425781 7.640625 17.066406 17.066406 17.066406h17.066407c9.425781 0 17.066406-7.640625 17.066406-17.066406h17.066406c0 9.425781 7.640625 17.066406 17.066407 17.066406h17.066406c9.425781 0 17.070312-7.640625 17.070312-17.066406h17.066406c-.003906 8.699218 6.539063 16.007812 15.1875 16.960937l-5.988281 8.636719h-154.265625c-4.714844 0-8.535156 3.820312-8.535156 8.535156 0 4.710938 3.820312 8.53125 8.535156 8.53125h142.4375l-35.984375 51.902344-.609375-.605469c-3.199218-3.203125-7.539062-5.003906-12.070312-5.003906-4.527344 0-8.867188 1.800781-12.070313 5.003906l-12.0625 12.0625c-6.664062 6.667969-6.664062 17.46875 0 24.132813l13.652344 13.65625-89.328125 89.265624c-3.332031 3.332032-3.332031 8.734376 0 12.066407l24.140625 24.132812c1.980469 1.929688 4.78125 2.757813 7.492187 2.21875v121.035157h-25.597656c-4.714844 0-8.535156 3.820312-8.535156 8.535156 0 4.710937 3.820312 8.53125 8.535156 8.53125h494.929688c4.714844 0 8.535156-3.820313 8.535156-8.53125 0-4.714844-3.820312-8.535156-8.535156-8.535156h-25.597656v-121.035157c.476562.132813.964843.226563 1.457031.28125 2.265625 0 4.433593-.902343 6.035156-2.5l24.140625-24.132812c3.332031-3.332031 3.332031-8.734375 0-12.066407l-89.292969-89.300781 13.652344-13.652343c6.664063-6.667969 6.664063-17.46875 0-24.132813l-12.066406-12.066406c-3.199219-3.203125-7.542969-5.003907-12.070313-5.003907s-8.867187 1.800782-12.070312 5.003907l-.605469.605469-36.019531-51.867188h142.4375c4.714844 0 8.535156-3.820312 8.535156-8.53125 0-4.714844-3.820312-8.535156-8.535156-8.535156h-154.265625l-5.972657-8.636719c8.640626-.964844 15.175782-8.269531 15.171876-16.960937zm1.460937 131.710937-13.652344-13.652344 12.074219-12.066406 13.652344 13.652344zm-25.683594-1.554687 13.652344 13.65625-89.328125 89.265624c-3.332031 3.332032-3.332031 8.734376 0 12.066407l23.101562 23.097656v124.289063h-51.203124v-124.289063l23.101562-23.097656c3.332031-3.332031 3.332031-8.734375 0-12.066407l-89.292969-89.300781 13.652344-13.652343c3.515625-3.542969 5.292969-8.453126 4.863281-13.425782l73.277344-105.710937 73.308594 105.746093c-.425782 4.972657 1.351562 9.878907 4.867187 13.421876zm-168.433593-12.066407-13.609376 13.613281-12.066406-12.066406 13.652344-13.652344zm-61.882813 13.65625-13.652344-13.65625 12.066407-12.074219 13.652343 13.65625zm-83.261719 107.363281 107.402344-107.398437 107.402344 107.398437-12.078125 12.066407-89.292969-89.292969c-3.332031-3.328125-8.730469-3.328125-12.0625 0l-89.292969 89.292969zm81.800782 153.421876v-59.734376c0-14.136718 11.464843-25.597656 25.601562-25.597656s25.601562 11.460938 25.601562 25.597656v59.734376zm68.269531 0v-59.734376c0-23.5625-19.105469-42.664062-42.667969-42.664062s-42.667969 19.101562-42.667969 42.664062v59.734376h-34.132812v-135.746094l76.800781-76.800782 85.332031 85.332032v127.214844zm187.730469 0v-59.734376c0-14.136718 11.464843-25.597656 25.601562-25.597656s25.601562 11.460938 25.601562 25.597656v59.734376zm68.269531 0v-59.734376c0-23.5625-19.105469-42.664062-42.667969-42.664062s-42.667969 19.101562-42.667969 42.664062v59.734376h-42.664062v-127.214844l85.332031-85.332032 76.800781 76.800782v135.746094zm52.65625-141.355469-89.292969-89.292969c-3.332031-3.328125-8.730469-3.328125-12.0625 0l-89.292969 89.292969-12.078125-12.066407 107.402344-107.398437 107.402344 107.398437zm-69.640625-145.152344 12.078125 12.066406-13.65625 13.65625-6.039063-6.035156-6.035156-6.03125zm-25.683594 1.546875-13.652344-13.652344c-3.203125-3.203125-7.542968-5.003906-12.070312-5.003906s-8.871094 1.800781-12.070313 5.003906l-7.058593 7.054688-76.132813-109.832032c-1.679687-2.175781-4.269531-3.449218-7.015625-3.449218s-5.335938 1.273437-7.015625 3.449218l-76.167969 109.875-7.054687-7.054687c-3.203125-3.203125-7.542969-5.003906-12.070313-5.003906-4.53125 0-8.871094 1.800781-12.070312 5.003906l-13.65625 13.652344-.742188-.742188 47.011719-67.816406 17.75-25.597656v-.042969l40.121094-57.789062 23.894531-38.230469 24.140625 38.539062 39.859375 57.453125 5.121094 7.40625 59.628906 86.027344zm0 0"/><path d="m42.667969 230.117188v-42.667969c0-4.714844-3.820313-8.535157-8.535157-8.535157-4.710937 0-8.53125 3.820313-8.53125 8.535157v42.667969c0 4.710937 3.820313 8.53125 8.53125 8.53125 4.714844 0 8.535157-3.820313 8.535157-8.53125zm0 0"/><path d="m469.332031 187.449219v42.667969c0 4.710937 3.820313 8.53125 8.535157 8.53125 4.710937 0 8.53125-3.820313 8.53125-8.53125v-42.667969c0-4.714844-3.820313-8.535157-8.53125-8.535157-4.714844 0-8.535157 3.820313-8.535157 8.535157zm0 0"/></svg>