<svg height="512pt" viewBox="0 0 512 512" width="512pt" xmlns="http://www.w3.org/2000/svg"><path d="m494.933594 426.667969h-155.058594c-6.796875-.023438-13.320312 2.679687-18.109375 7.5l-15.597656 15.597656c-1.601563 1.601563-3.777344 2.503906-6.042969 2.5h-88.25c-2.265625.003906-4.441406-.898437-6.042969-2.5l-15.597656-15.597656c-4.789063-4.820313-11.3125-7.523438-18.109375-7.5h-155.058594c-9.425781 0-17.066406 7.640625-17.066406 17.066406v51.199219c0 9.425781 7.640625 17.066406 17.066406 17.066406h477.867188c9.425781 0 17.066406-7.640625 17.066406-17.066406v-51.199219c0-9.425781-7.640625-17.066406-17.066406-17.066406zm0 68.265625h-477.867188v-51.199219h155.058594c2.265625-.003906 4.441406.898437 6.042969 2.5l15.597656 15.597656c4.789063 4.820313 11.3125 7.523438 18.109375 7.5h88.25c6.796875.023438 13.320312-2.679687 18.109375-7.5l15.597656-15.597656c1.601563-1.601563 3.777344-2.503906 6.042969-2.5h155.058594zm0 0"/><path d="m426.667969 0c-4.714844 0-8.535157 3.820312-8.535157 8.535156v22.96875l-27.671874-27.664062c-16.761719-16.792969-64.28125 28.082031-78.441407 42.238281-10.835937 10.839844-39.59375 41.183594-44.976562 62.371094-1.742188 3.6875-2.507813 8.609375-2.507813 28.085937v145.066406c0 4.710938 3.820313 8.53125 8.53125 8.53125 4.714844 0 8.535156-3.820312 8.535156-8.53125v-145.265624l84.726563 84.71875c33.367187 33.078124 87.191406 32.960937 120.414063-.261719 33.222656-33.222657 33.339843-87.046875.265624-120.414063l-51.808593-51.808594v-40.035156c0-4.714844-3.820313-8.535156-8.53125-8.535156zm-102.582031 58.136719c14.898437-16.171875 32.464843-29.664063 51.933593-39.882813-.324219.792969-.714843 1.707032-1.175781 2.617188-.171875.351562-.28125.640625-.476562 1.015625-.785157 1.554687-1.757813 3.285156-2.902344 5.179687-.289063.488282-.675782 1.058594-.988282 1.570313-.914062 1.460937-1.886718 2.980469-2.996093 4.609375-.546875.851562-1.179688 1.707031-1.777344 2.558594-1.046875 1.484374-2.15625 3.023437-3.359375 4.617187-.734375.972656-1.511719 1.980469-2.296875 2.996094-1.289063 1.636719-2.664063 3.34375-4.105469 5.121093-.851562 1.058594-1.707031 2.105469-2.660156 3.207032-1.648438 1.929687-3.414062 3.949218-5.273438 5.972656-.855468.992188-1.707031 1.953125-2.679687 2.96875-2.859375 3.097656-5.878906 6.273438-9.164063 9.566406-3.289062 3.292969-6.460937 6.296875-9.550781 9.15625-1.050781.964844-2.039062 1.835938-3.0625 2.75-2.007812 1.800782-3.984375 3.566406-5.890625 5.1875-1.117187.957032-2.199218 1.84375-3.285156 2.730469-1.707031 1.417969-3.410156 2.773437-5.015625 4.035156-1.03125.804688-2.058594 1.597657-3.046875 2.347657-1.585938 1.1875-3.097656 2.285156-4.574219 3.320312-.851562.605469-1.707031 1.246094-2.558593 1.800781-1.605469 1.089844-3.097657 2.046875-4.539063 2.941407-.539063.34375-1.136719.742187-1.65625 1.050781-1.878906 1.136719-3.609375 2.097656-5.121094 2.894531-.390625.195312-.691406.3125-1.058593.492188-.9375.457031-1.792969.839843-2.558594 1.152343 10.207031-19.476562 23.683594-37.058593 39.839844-51.976562zm150.855468 54.308593c17.246094 17.246094 23.980469 42.382813 17.667969 65.941407-6.3125 23.558593-24.714844 41.960937-48.273437 48.273437-23.558594 6.3125-48.695313-.425781-65.941407-17.671875l-84.539062-84.539062c.304687-.144531.636719-.347657.945312-.503907 2.003907-.9375 4.035157-2 6.101563-3.191406.332031-.195312.664062-.355468 1.007812-.5625 2.285156-1.347656 4.589844-2.839844 6.894532-4.402344.5625-.382812 1.117187-.757812 1.707031-1.152343 2.292969-1.605469 4.582031-3.25 6.824219-4.976563l.609374-.476562c2.136719-1.644532 4.234376-3.320313 6.289063-5.027344l1.507813-1.246094c2.101562-1.746094 4.132812-3.496094 6.078124-5.210937l1.210938-1.078125c1.707031-1.558594 3.414062-3.070313 5-4.53125l.808594-.75c1.707031-1.613282 3.3125-3.105469 4.761718-4.511719l.992188-.957031c1.355469-1.324219 2.628906-2.558594 3.660156-3.59375 1.03125-1.03125 2.304688-2.328125 3.644532-3.71875.410156-.410156.808593-.855469 1.238281-1.28125 1.089843-1.132813 2.234375-2.335938 3.410156-3.632813l1.453125-1.554687c1.707031-1.816406 3.414062-3.722656 5.222656-5.769532.1875-.203124.375-.425781.5625-.640624 1.597656-1.820313 3.214844-3.707032 4.855469-5.664063.570313-.683594 1.132813-1.375 1.707031-2.074219 1.363282-1.648437 2.695313-3.328125 4.027344-5.035156.535156-.683594 1.066406-1.355469 1.585938-2.046875 1.777343-2.320313 3.492187-4.667969 5.121093-7.03125.273438-.386719.503907-.777344.765625-1.160156 1.339844-1.988281 2.613282-3.96875 3.800782-5.976563.441406-.742187.851562-1.472656 1.285156-2.214844 1-1.757812 1.894531-3.484374 2.714844-5.191406.222656-.46875.53125-.945312.742187-1.40625l27.742187 27.757813v47.976562c-16.640624 4.296875-27.492187 20.296875-25.328124 37.347657 2.167968 17.050781 16.671874 29.832031 33.863281 29.832031 17.1875 0 31.695312-12.78125 33.859375-29.832031 2.167968-17.050782-8.683594-33.050782-25.328125-37.347657v-30.910156zm-48.273437 7.019532c9.425781 0 17.066406 7.644531 17.066406 17.070312 0 9.425782-7.640625 17.066406-17.066406 17.066406s-17.066407-7.640624-17.066407-17.066406c0-9.425781 7.640626-17.070312 17.066407-17.070312zm0 0"/><path d="m273.066406 315.734375c-4.710937 0-8.53125 3.820313-8.53125 8.53125v68.269531c0 4.710938 3.820313 8.53125 8.53125 8.53125 4.714844 0 8.535156-3.820312 8.535156-8.53125v-68.269531c0-4.710937-3.820312-8.53125-8.535156-8.53125zm0 0"/><path d="m187.734375 401.066406c0 4.714844 3.820313 8.535156 8.53125 8.535156 4.714844 0 8.535156-3.820312 8.535156-8.535156 0-1.246094.128907-1.441406 1.542969-3.207031 7.046875-7.902344 7.046875-19.832031 0-27.734375-1.414062-1.765625-1.542969-1.960938-1.542969-3.191406 0-1.230469.128907-1.425782 1.542969-3.191406 3.421875-3.808594 5.304688-8.753907 5.28125-13.875 0-4.714844-3.820312-8.535157-8.53125-8.535157-4.714844 0-8.535156 3.820313-8.535156 8.535157 0 1.238281-.125 1.425781-1.542969 3.191406-7.042969 7.898437-7.042969 19.824218 0 27.722656 1.417969 1.769531 1.542969 1.972656 1.542969 3.210938 0 1.238281-.125 1.441406-1.542969 3.207031-3.421875 3.808593-5.304687 8.75-5.28125 13.867187zm0 0"/><path d="m215.039062 281.601562c-.019531 5.117188 1.863282 10.058594 5.28125 13.863282 1.417969 1.769531 1.546876 1.964844 1.546876 3.210937 0 4.710938 3.820312 8.53125 8.53125 8.53125 4.714843 0 8.535156-3.820312 8.535156-8.53125.019531-5.117187-1.863282-10.0625-5.28125-13.867187-1.417969-1.765625-1.546875-1.960938-1.546875-3.207032 0-1.246093.128906-1.445312 1.546875-3.210937 7.042968-7.898437 7.042968-19.824219 0-27.722656-1.417969-1.769531-1.546875-1.957031-1.546875-3.191407 0-4.714843-3.820313-8.535156-8.53125-8.535156-4.714844 0-8.535157 3.820313-8.535157 8.535156-.015624 5.113282 1.867188 10.050782 5.28125 13.855469 1.417969 1.769531 1.546876 1.964844 1.546876 3.191407 0 1.230468-.128907 1.445312-1.546876 3.210937-3.417968 3.804687-5.300781 8.746094-5.28125 13.867187zm0 0"/><path d="m348.160156 298.667969c0-4.714844-3.820312-8.535157-8.535156-8.535157-4.710938 0-8.53125 3.820313-8.53125 8.535157 0 1.226562-.128906 1.421875-1.546875 3.191406-7.042969 7.898437-7.042969 19.824219 0 27.722656 1.417969 1.765625 1.546875 1.964844 1.546875 3.210938 0 1.246093-.128906 1.441406-1.546875 3.207031-3.417969 3.804688-5.300781 8.75-5.28125 13.867188 0 4.710937 3.820313 8.53125 8.535156 8.53125 4.710938 0 8.53125-3.820313 8.53125-8.53125 0-1.246094.128907-1.441407 1.546875-3.210938 7.042969-7.902344 7.042969-19.828125 0-27.730469-1.417968-1.75-1.546875-1.945312-1.546875-3.191406s.128907-1.425781 1.546875-3.191406c3.421875-3.8125 5.304688-8.757813 5.28125-13.875zm0 0"/><path d="m240.640625 59.734375c0 4.710937 3.820313 8.53125 8.53125 8.53125 4.714844 0 8.535156-3.820313 8.535156-8.53125 0-1.246094.128907-1.441406 1.542969-3.210937 7.046875-7.902344 7.046875-19.828126 0-27.730469-1.414062-1.769531-1.542969-1.964844-1.542969-3.210938 0-1.246093.128907-1.425781 1.542969-3.191406 3.417969-3.804687 5.300781-8.742187 5.285156-13.855469 0-4.714844-3.824218-8.535156-8.535156-8.535156s-8.535156 3.820312-8.535156 8.535156c0 1.234375-.125 1.421875-1.542969 3.191406-7.042969 7.898438-7.042969 19.824219 0 27.722657 1.417969 1.765625 1.542969 1.972656 1.542969 3.207031 0 1.238281-.125 1.445312-1.542969 3.210938-3.421875 3.804687-5.304687 8.75-5.28125 13.867187zm0 0"/></svg>