<svg height="512pt" viewBox="0 0 512.00055 512" width="512pt" xmlns="http://www.w3.org/2000/svg"><path d="m155.308594 315.734375c-.019532 5.117187 1.863281 10.058594 5.28125 13.867187 1.40625 1.765626 1.542968 1.960938 1.542968 3.207032 0 4.714844 3.820313 8.535156 8.535157 8.535156 4.710937 0 8.53125-3.820312 8.53125-8.535156.019531-5.117188-1.863281-10.058594-5.28125-13.867188-1.40625-1.765625-1.542969-1.96875-1.542969-3.207031s.136719-1.441406 1.542969-3.210937c7.042969-7.898438 7.042969-19.824219 0-27.722657-1.40625-1.765625-1.542969-1.964843-1.542969-3.191406 0-4.714844-3.820312-8.535156-8.535156-8.535156-4.710938 0-8.53125 3.820312-8.53125 8.535156-.019532 5.113281 1.863281 10.050781 5.28125 13.859375 1.40625 1.765625 1.542968 1.953125 1.542968 3.191406 0 1.234375-.136718 1.441406-1.542968 3.207032-3.417969 3.808593-5.300782 8.75-5.28125 13.867187zm0 0"/><path d="m240.640625 213.332031c-.019531 5.117188 1.863281 10.058594 5.28125 13.867188 1.410156 1.765625 1.546875 1.964843 1.546875 3.210937 0 4.710938 3.820312 8.53125 8.53125 8.53125 4.714844 0 8.535156-3.820312 8.535156-8.53125.015625-5.117187-1.867187-10.058594-5.285156-13.867187-1.40625-1.765625-1.542969-1.964844-1.542969-3.210938 0-1.246093.136719-1.441406 1.542969-3.207031 7.046875-7.898438 7.046875-19.824219 0-27.726562-1.40625-1.765626-1.542969-1.953126-1.542969-3.191407 0-4.710937-3.820312-8.53125-8.535156-8.53125-4.710937 0-8.53125 3.820313-8.53125 8.53125-.019531 5.117188 1.863281 10.054688 5.28125 13.859375 1.410156 1.765625 1.546875 1.964844 1.546875 3.191406 0 1.230469-.136719 1.441407-1.546875 3.210938-3.417969 3.808594-5.300781 8.746094-5.28125 13.863281zm0 0"/><path d="m343.039062 298.667969c0 4.710937 3.820313 8.53125 8.535157 8.53125 4.710937 0 8.53125-3.820313 8.53125-8.53125 0-1.246094.136719-1.441407 1.546875-3.210938 7.042968-7.902343 7.042968-19.828125 0-27.730469-1.410156-1.769531-1.546875-1.964843-1.546875-3.210937s.136719-1.425781 1.546875-3.191406c3.417968-3.804688 5.300781-8.742188 5.28125-13.855469 0-4.714844-3.820313-8.535156-8.535156-8.535156-4.710938 0-8.53125 3.820312-8.53125 8.535156 0 1.234375-.136719 1.421875-1.542969 3.191406-7.046875 7.898438-7.046875 19.824219 0 27.722656 1.40625 1.765626 1.542969 1.972657 1.542969 3.207032 0 1.238281-.136719 1.445312-1.542969 3.210937-3.417969 3.808594-5.300781 8.75-5.285157 13.867188zm0 0"/><path d="m170.667969 392.535156v17.066406c0 9.425782 7.640625 17.066407 17.066406 17.066407h136.53125c9.425781 0 17.066406-7.640625 17.066406-17.066407v-17.066406c0-9.425781-7.640625-17.066406-17.066406-17.066406h-8.53125v-85.335938c0-9.425781-7.640625-17.066406-17.066406-17.066406h-85.335938c-9.425781 0-17.066406 7.640625-17.066406 17.066406v85.335938h-8.53125c-9.425781 0-17.066406 7.640625-17.066406 17.066406zm153.597656 17.066406h-136.53125v-17.066406h136.53125zm-110.933594-119.46875h85.335938v85.335938h-85.335938zm0 0"/><path d="m484.632812 379.820312c-7.621093-2.859374-15.691406-4.332031-23.832031-4.351562v-59.734375c-.121093-93.351563-63.246093-174.851563-153.601562-198.316406v-67.789063c11.746093-4.136718 18.796875-16.140625 16.6875-28.417968-2.109375-12.273438-12.765625-21.2343755-25.21875-21.210938h-85.335938c-12.453125-.0234375-23.105469 8.9375-25.21875 21.210938-2.109375 12.277343 4.941407 24.28125 16.6875 28.417968v67.789063c-90.355469 23.464843-153.480469 104.964843-153.601562 198.316406v59.734375c-8.140625.019531-16.214844 1.492188-23.839844 4.351562-16.527344 6.296876-27.421875 22.171876-27.359375 39.859376v83.789062c0 4.710938 3.820312 8.53125 8.535156 8.53125h494.933594c4.710938 0 8.53125-3.820312 8.53125-8.53125v-83.789062c.0625-17.6875-10.835938-33.566407-27.367188-39.859376zm-271.300781-362.753906h85.335938c4.710937 0 8.53125 3.820313 8.53125 8.535156 0 4.710938-3.820313 8.53125-8.53125 8.53125h-85.335938c-4.710937 0-8.53125-3.820312-8.53125-8.53125 0-4.714843 3.820313-8.535156 8.53125-8.535156zm8.535157 96.742188v-62.609375h68.265624v62.609375h-.375c-5.195312-.871094-10.453124-1.535156-15.777343-1.996094-.742188-.066406-1.484375-.109375-2.226563-.171875-5.207031-.441406-10.445312-.707031-15.753906-.707031s-10.546875.265625-15.753906.664062c-.742188.0625-1.484375.105469-2.226563.171875-5.324219.460938-10.582031 1.125-15.777343 1.996094zm-153.601563 267.445312v-65.519531c.125-88.128906 61.4375-164.347656 147.492187-183.347656 3.042969-.664063 6.101563-1.253907 9.171876-1.765625l.519531-.09375c20.230469-3.328125 40.871093-3.328125 61.101562 0l.519531.09375c3.066407.511718 6.125 1.101562 9.171876 1.765625 86.054687 19 147.367187 95.21875 147.492187 183.347656v65.519531c-.1875.125-.351563.304688-.539063.441406-1.410156 1.042969-2.765624 2.164063-4.050781 3.355469-.402343.375-.804687.765625-1.195312 1.160157-1.179688 1.136718-2.316407 2.347656-3.414063 3.632812-.324218.378906-.65625.746094-.980468 1.128906-2.5625 2.996094-5 6.167969-7.390626 9.386719l-30.898437-41.15625 3.300781-3.304687c3.234375-3.347657 3.1875-8.667969-.105468-11.960938-3.289063-3.292969-8.613282-3.335938-11.960938-.105469l-17.066406 17.070313c-2.21875 2.140625-3.109375 5.3125-2.328125 8.296875s3.113281 5.3125 6.097656 6.09375c2.980469.78125 6.15625-.109375 8.296875-2.328125l1.578125-1.578125 32.121094 42.832031c-5.347657 7.292969-13.644531 11.847656-22.664063 12.449219-2.269531.007812-4.53125.246093-6.75.714843-.710937.136719-1.367187.375-2.050781.5625-1.40625.363282-2.785156.824219-4.128906 1.375-.742188.308594-1.449219.675782-2.167969 1.042969-1.195312.597657-2.351562 1.265625-3.472656 1.996094-.683594.441406-1.355469.851563-2.003906 1.390625-1.101563.851562-2.152344 1.707031-3.183594 2.671875-.5625.511719-1.136719.996094-1.707032 1.542969-1.152343 1.179687-2.246093 2.433594-3.3125 3.738281-.324218.402344-.679687.769531-1.003906 1.175781-1.351562 1.707032-2.613281 3.578125-3.808594 5.472656-.339843.542969-.640624 1.125-.972656 1.707032-.851562 1.398437-1.636718 2.8125-2.398437 4.265625-.398438.777343-.765625 1.550781-1.140625 2.335937-.632813 1.296875-1.238282 2.5625-1.808594 3.902344-.359375.851562-.710938 1.65625-1.050781 2.492188-.53125 1.300781-1.035157 2.601562-1.519531 3.898437-.296876.851563-.597657 1.621094-.851563 2.421875-.496094 1.410156-.941406 2.792969-1.375 4.175781-.214844.65625-.4375 1.320313-.632813 1.976563-.605468 2.007812-1.160156 3.96875-1.65625 5.863281l-.117187.476563c-.449219 1.765624-.859375 3.457031-1.230469 5.078124-.128906.574219-.230468 1.09375-.347656 1.640626-.257812 1.183593-.503906 2.320312-.71875 3.414062-.101562.527344-.1875 1.011719-.289062 1.507812-.101563.496094-.195313 1.015626-.273438 1.46875h-173.125c-.074219-.453124-.1875-.988281-.273438-1.46875-.085937-.476562-.1875-.980468-.289062-1.507812-.214844-1.078125-.460938-2.210938-.71875-3.414062-.117188-.546876-.21875-1.066407-.347656-1.640626-.363282-1.621093-.773438-3.3125-1.230469-5.078124l-.117187-.476563c-.496094-1.898437-1.046876-3.859375-1.65625-5.878906-.195313-.640625-.417969-1.289063-.625-1.9375-.433594-1.390625-.851563-2.78125-1.378907-4.199219-.28125-.800781-.582031-1.601562-.855469-2.421875-.488281-1.296875-.996093-2.597656-1.519531-3.898437-.339843-.855469-.691406-1.707032-1.046875-2.492188-.574218-1.316406-1.179687-2.5625-1.8125-3.902344-.375-.785156-.742187-1.558594-1.140625-2.335937-.761719-1.453125-1.570312-2.867188-2.398437-4.265625-.332032-.554688-.632813-1.136719-.972656-1.707032-1.195313-1.894531-2.457032-3.730468-3.804688-5.472656-.324219-.40625-.683594-.773437-1.007812-1.175781-1.066407-1.304687-2.160157-2.558594-3.3125-3.738281-.546876-.546875-1.117188-1.03125-1.707032-1.542969-1.015625-.945313-2.078125-1.835937-3.183594-2.671875-.65625-.496094-1.320312-.949219-1.996093-1.390625-1.121094-.730469-2.285157-1.394531-3.480469-1.996094-.71875-.367187-1.425781-.734375-2.167969-1.042969-1.34375-.550781-2.722656-1.011718-4.128906-1.375-.683594-.1875-1.339844-.425781-2.046875-.5625-2.222656-.46875-4.484375-.707031-6.75-.714843-14.011719 0-23.042969-12.101563-32.539062-24.910157-2.738282-3.675781-5.519532-7.355468-8.449219-10.785156-.324219-.382812-.65625-.75-.980469-1.128906-1.117188-1.261719-2.269531-2.464844-3.414062-3.625-.398438-.390625-.800782-.792969-1.210938-1.167969-1.285156-1.195312-2.632812-2.3125-4.042969-3.355469-.214843-.136718-.378906-.316406-.566406-.441406zm-51.199219 38.398438c-.082031-10.550782 6.375-20.046875 16.214844-23.851563 5.730469-2.144531 11.800781-3.25 17.917969-3.265625 1.738281.042969 3.4375.496094 4.96875 1.320313 1.46875.761719 2.839843 1.695312 4.085937 2.78125l.070313.0625c4.804687 4.636719 9.128906 9.753906 12.902343 15.265625 10.535157 14.15625 23.660157 31.769531 46.242188 31.769531 1.230469.011719 2.457031.171875 3.652344.476563.390625.09375.757812.25 1.132812.367187.792969.253906 1.570313.5625 2.320313.921875.417969.214844.855469.453125 1.230469.691406.699218.417969 1.378906.871094 2.03125 1.355469.390624.300781.777343.597656 1.160156.921875.671875.582031 1.320312 1.210938 1.960937 1.871094.324219.339844.65625.648437.972657 1.003906.792968.855469 1.554687 1.851562 2.296874 2.851562.128907.1875.28125.351563.410157.539063.851562 1.210937 1.707031 2.5 2.492187 3.839844.246094.417969.476563.851562.714844 1.296875.539062.953125 1.074219 1.925781 1.578125 2.933594.273437.546874.539063 1.109374.804687 1.707031.449219.9375.851563 1.894531 1.3125 2.867187.246094.582032.503907 1.167969.75 1.757813.410157 1.015625.855469 2.03125 1.195313 3.054687.214844.546875.425781 1.09375.625 1.648438.449219 1.246094.851563 2.507812 1.296875 3.761718.101562.316407.210938.632813.316406.957032.511719 1.578125.988282 3.15625 1.433594 4.71875.117188.417968.21875.851562.332031 1.246094.316407 1.132812.621094 2.269531.902344 3.414062.136719.535156.265625 1.066406.394531 1.601562.230469.957032.453125 1.90625.65625 2.824219.128906.539063.238282 1.070313.351563 1.589844l.21875 1.058594h-134.945313zm477.867188 75.28125h-134.945313l.222657-1.058594c.109374-.519531.21875-1.050781.347656-1.585938.207031-.921874.425781-1.871093.65625-2.824218.128906-.539063.257812-1.066406.394531-1.605469.28125-1.109375.589844-2.242187.902344-3.414063.113281-.417968.214843-.851562.335937-1.246093.441406-1.550781.917969-3.121094 1.421875-4.710938.113281-.339843.230469-.679687.351563-1.023437.402344-1.234375.851562-2.472656 1.269531-3.703125.199219-.554688.410156-1.101563.625-1.644531.382813-1.027344.785156-2.042969 1.195313-3.054688.246093-.589844.503906-1.179688.75-1.761719.425781-.972656.851562-1.925781 1.3125-2.867187.265624-.554688.53125-1.117188.804687-1.703125.503906-1.007813 1.039063-1.980469 1.578125-2.9375.238281-.433594.46875-.851563.714844-1.296875.804687-1.339844 1.621094-2.628906 2.492187-3.839844.128907-.1875.28125-.351562.410157-.539062.742187-.996094 1.503906-1.960938 2.296874-2.847657.316407-.359375.648438-.675781.980469-1.007812.632813-.65625 1.28125-1.289063 1.953125-1.867188.386719-.324219.769532-.625 1.160156-.921875.652344-.492187 1.332032-.945312 2.03125-1.359375.410157-.238281.8125-.476562 1.230469-.691406.75-.359375 1.527344-.667969 2.320313-.921875.375-.117188.742187-.269531 1.136718-.367188 1.195313-.277343 2.421876-.414062 3.652344-.398437 22.578125 0 35.703125-17.613281 46.242188-31.769531 3.769531-5.511719 8.09375-10.628906 12.902344-15.265625l.066406-.0625c1.246094-1.085938 2.617187-2.019531 4.085937-2.78125 1.53125-.824219 3.230469-1.277344 4.96875-1.320313 6.121094.023438 12.1875 1.136719 17.917969 3.285156 9.851562 3.8125 16.3125 13.328126 16.214844 23.890626zm0 0"/></svg>