<svg height="512pt" viewBox="0 0 512 512.09083" width="512pt" xmlns="http://www.w3.org/2000/svg"><path d="m98.179688 511.570312h.042968c.710938.1875 1.445313.28125 2.183594.28125.511719.042969.988281.199219 1.511719.199219 6.371093.035157 12.257812-3.402343 15.359375-8.96875 56.496094-101.699219 86.601562-215.9375 87.566406-332.273437v-74.425782c.035156-9.289062-4.996094-17.855468-13.121094-22.347656-4.660156-2.554687-12.476562-7.792968-12.476562-14.226562-.53125-3.601563 1.757812-7.019532 5.289062-7.902344 7.015625-2.285156 11.765625-8.820312 11.777344-16.195312v-14.601563c.011719-6.09375-2.625-11.890625-7.222656-15.886719s-10.707032-5.796875-16.738282-4.933594c-3.875.554688-8.363281 1.269532-13.253906 2.046876-18.707031 3.453124-37.640625 5.550781-56.652344 6.273437-19.011718-.722656-37.945312-2.820313-56.652343-6.273437-4.890625-.777344-9.378907-1.492188-13.253907-2.046876-6.03125-.863281-12.136718.9375-16.738281 4.933594-4.597656 3.996094-7.234375 9.792969-7.222656 15.886719v14.601563c.007813 7.382812 4.757813 13.925781 11.777344 16.210937 3.523437.882813 5.808593 4.289063 5.289062 7.886719 0 6.417968-7.816406 11.65625-12.472656 14.207031-8.136719 4.496094-13.16796875 13.074219-13.125 22.367187v74.425782c.910156 116.195312 30.632813 230.347656 86.507813 332.230468 2.457031 4.390626 6.699218 7.503907 11.625 8.53125zm-81.066407-415.1875c-.035156-3.054687 1.601563-5.886718 4.265625-7.382812 13.953125-7.644531 21.332032-17.730469 21.332032-29.191406.550781-11.007813-6.5-20.964844-17.066407-24.097656v-14.601563c-.007812-1.15625.492188-2.261719 1.367188-3.019531.699219-.609375 1.597656-.945313 2.523437-.949219.195313-.015625.390625-.015625.582032 0 3.796874.546875 8.191406 1.246094 12.996093 2.007813 19.589844 3.625 39.421875 5.808593 59.332031 6.527343 19.910157-.707031 39.742188-2.875 59.332032-6.484375 4.804687-.761718 9.199218-1.460937 12.996094-2.007812 1.121093-.1875 2.265624.144531 3.105468.90625.875.757812 1.375 1.863281 1.367188 3.019531v14.585937c-10.574219 3.136719-17.625 13.097657-17.066406 24.113282 0 11.441406 7.378906 21.53125 21.332031 29.175781 2.664062 1.496094 4.300781 4.324219 4.265625 7.382813v74.425781c-1.164063 100.34375-24.242188 199.214843-67.617188 289.707031 35.285156-141.023438 48.640625-237.226562 33.417969-359.101562-.683594-4.582032-4.902344-7.78125-9.5-7.207032-4.597656.574219-7.898437 4.714844-7.429687 9.324219 16.023437 128.195313.628906 223.574219-40.382813 381.652344-50.710937-97.113281-77.828125-204.808594-79.152344-314.359375zm0 0"/><path d="m70.113281 373.65625c-20.378906-90.019531-31.394531-170.402344-18.9375-270.121094.457031-3.066406-.78125-6.132812-3.234375-8.023437-2.453125-1.886719-5.738281-2.300781-8.582031-1.074219s-4.800781 3.898438-5.113281 6.980469c-12.800782 102.175781-1.550782 184.234375 19.21875 276.011719.878906 3.882812 4.328125 6.640624 8.3125 6.644531.636718 0 1.269531-.070313 1.894531-.210938 2.207031-.5 4.125-1.855469 5.332031-3.769531 1.210938-1.914062 1.609375-4.230469 1.109375-6.4375zm0 0"/><path d="m198.582031 344.625c-3.398437 4.808594-2.929687 11.347656 1.117188 15.625l137.183593 146.707031c5.101563 5.019531 12.722657 6.480469 19.320313 3.703125 6.507813-2.695312 10.761719-9.039062 10.777344-16.085937v-484.027344c.023437-5.605469-4.355469-10.242187-9.953125-10.53125-5.597656-.292969-10.4375 3.867187-10.988282 9.445313l-37.847656 365.226562c-.117187 1.183594-.804687 2.234375-1.839844 2.816406-1.148437.675782-2.546874.769532-3.773437.25l-88.746094-37.453125c-5.464843-2.375-11.84375-.5625-15.25 4.324219zm97.367188 48.8125c6.207031 2.605469 13.285156 2.128906 19.085937-1.289062 5.703125-3.328126 9.46875-9.183594 10.128906-15.753907l24.75-238.710937v356.890625l-.855468.484375-122.25-130.804688zm0 0"/><path d="m460.84375.0742188c-32.058594 0-51.199219 19.0742192-51.199219 51.0234372 0 124.210938 31.054688 377.078125 40.570313 451.625.679687 5.355469 5.234375 9.367188 10.628906 9.367188 5.398438 0 9.953125-4.011719 10.632812-9.367188 9.515626-74.546875 40.570313-327.414062 40.570313-451.625 0-31.949218-19.140625-51.0234372-51.203125-51.0234372zm0 449.8710932c-12.644531-104.183593-34.132812-296.203124-34.132812-398.847656 0-22.539062 11.488281-33.957031 34.132812-33.957031 22.648438 0 34.136719 11.417969 34.136719 33.957031 0 102.644532-21.488281 294.664063-34.136719 398.847656zm0 0"/><path d="m469.378906 51.273438c0 4.714843-3.820312 8.535156-8.535156 8.535156-4.710938 0-8.53125-3.820313-8.53125-8.535156 0-4.710938 3.820312-8.53125 8.53125-8.53125 4.714844 0 8.535156 3.820312 8.535156 8.53125zm0 0"/></svg>