<svg height="512pt" viewBox="0 0 512.01298 512" width="512pt" xmlns="http://www.w3.org/2000/svg"><path d="m107.328125 509.433594c2.238281 1.65625 4.945313 2.550781 7.730469 2.5625.890625-.039063 1.773437-.171875 2.636718-.394532.613282.203126 1.246094.332032 1.886719.382813h34.132813c18.507812 0 36.367187-14.632813 53.101562-43.519531 9.214844-15.46875 25.941406-24.890625 43.949219-24.746094h252.714844c4.710937 0 8.53125-3.820312 8.53125-8.53125 0-4.714844-3.820313-8.535156-8.53125-8.535156h-47.652344l19.558594-19.566406c3.234375-3.347657 3.1875-8.671876-.101563-11.960938-3.292968-3.292969-8.617187-3.339844-11.964844-.105469l-11.042968 11.035157v-27.0625l23.09375-23.097657c3.234375-3.347656 3.1875-8.671875-.105469-11.960937-3.289063-3.292969-8.613281-3.339844-11.960937-.105469l-11.027344 11.023437v-27.058593l23.09375-23.097657c3.234375-3.347656 3.1875-8.671874-.105469-11.964843-3.289063-3.289063-8.613281-3.335938-11.960937-.101563l-19.558594 19.566406-19.542969-19.566406c-3.378906-3.011718-8.523437-2.863281-11.71875.34375-3.199219 3.207032-3.335937 8.351563-.3125 11.722656l23.039063 23.097657v27.058593l-11.007813-11.023437c-3.378906-3.011719-8.523437-2.863281-11.71875.34375-3.199219 3.207031-3.335937 8.351563-.3125 11.722656l23.039063 23.097657v27.0625l-11.007813-11.027344c-3.378906-3.011719-8.523437-2.859375-11.71875.34375-3.199219 3.207031-3.335937 8.351562-.3125 11.722656l19.523437 19.566406h-78.242187l19.558594-19.566406c3.058593-3.367188 2.9375-8.542969-.277344-11.761719-3.210937-3.222656-8.386719-3.355469-11.761719-.304687l-11.023437 11.027344v-27.0625l23.089843-23.097657c3.234376-3.347656 3.1875-8.671875-.105468-11.960937-3.289063-3.292969-8.613282-3.339844-11.960938-.105469l-11.023437 11.023437v-27.058593l23.089843-23.097657c3.234376-3.347656 3.1875-8.671874-.105468-11.964843-3.289063-3.289063-8.613282-3.335938-11.960938-.101563l-19.558594 19.566406-19.558593-19.566406c-3.332031-3.335937-8.738281-3.339844-12.074219-.007812-3.335938 3.332031-3.339844 8.738281-.007812 12.074218l23.089843 23.097657v27.058593l-11.023437-11.023437c-3.347656-3.234375-8.671875-3.1875-11.964844.105469-3.289062 3.289062-3.335938 8.613281-.101562 11.960937l23.089843 23.097657v27.0625l-11.023437-11.027344c-3.347656-3.234375-8.671875-3.1875-11.964844.105468-3.289062 3.289063-3.335938 8.613282-.101562 11.960938l19.550781 19.566406h-78.566407c-24.097656-.128906-46.449218 12.542969-58.710937 33.28125-13.074219 22.5625-26.691406 34.988282-38.339844 34.988282h-26.199219c-7-30.269532-10.761718-61.199219-11.21875-92.265626l384.46875-355.839843c11.421876-7.730469 14.667969-23.121094 7.335938-34.804688-3.601562-5.753906-9.34375-9.84375-15.960938-11.363281-6.617187-1.519531-13.570312-.347656-19.324218 3.253906-.445313.285156-.867188.609375-1.261719.964844l-351.574219 325.453125c7.28125-58.878906 26.085938-118.691406 63.726563-162.585937 4.257812-4.984376 4.40625-12.28125.355469-17.433594-4.054688-5.15625-11.179688-6.734375-17.027344-3.769532-27.238282 13.71875-91.152344 51.378907-110.285156 110.019532-12.203126-33.648438-27.519532-76.050782-35.21875-98.039063-1.832032-5.023437-6.984376-8.023437-12.253907-7.136719-5.273437.882813-9.164062 5.402344-9.2578122 10.746094-.4179688 80.484375 9.1640622 275.546875 107.3164062 347.304688zm375.125-491.390625c4.058594-2.117188 9.0625-.652344 11.34375 3.320312 2.277344 3.96875 1.019531 9.027344-2.851563 11.46875-.449218.277344-.867187.597657-1.257812.953125l-373.367188 345.59375c.179688-7.742187.542969-15.566406 1.101563-23.46875zm-439.773437 249.675781c2.175781 6.265625 8.222656 10.34375 14.847656 10.011719 6.667968-.265625 12.386718-4.839844 14.113281-11.28125 12.800781-46.867188 61.046875-80.8125 88.839844-96.929688-68.914063 92.933594-69.75 235.414063-51.90625 319.078125-72.117188-62.515625-88.191407-204.144531-90.984375-290.203125 7.921875 22.074219 17.28125 47.921875 25.089844 69.324219zm0 0"/></svg>