<svg height="512pt" viewBox="0 0 512 512.01141" width="512pt" xmlns="http://www.w3.org/2000/svg"><path d="m503.472656 494.945312h-102.398437c-4.714844 0-8.535157 3.820313-8.535157 8.53125 0 4.714844 3.820313 8.535157 8.535157 8.535157h102.398437c4.710938 0 8.53125-3.820313 8.53125-8.535157 0-4.710937-3.820312-8.53125-8.53125-8.53125zm0 0"/><path d="m273.074219 512.011719c4.710937 0 8.53125-3.820313 8.53125-8.535157 0-4.710937-3.820313-8.53125-8.53125-8.53125h-110.933594c-4.714844 0-8.535156 3.820313-8.535156 8.53125 0 4.714844 3.820312 8.535157 8.535156 8.535157zm0 0"/><path d="m.00390625 503.476562c0 4.714844 3.82421875 8.535157 8.53515575 8.535157h68.265626c4.714843 0 8.535156-3.820313 8.535156-8.535157 0-4.710937-3.820313-8.53125-8.535156-8.53125h-68.265626c-4.710937 0-8.53515575 3.820313-8.53515575 8.53125zm0 0"/><path d="m247.472656 128.011719c-4.714844 0-8.535156 3.820312-8.535156 8.53125v27.878906l-168.214844 170.949219c-.589844.613281-1.085937 1.308594-1.46875 2.066406l-.085937.109375-9.386719 18.773437c-5.058594-5.574218-9.566406-11.625-13.457031-18.074218-2.597657-4.363282-7.828125-6.40625-12.695313-4.957032-4.925781 1.457032-8.230468 6.074219-8.023437 11.203126 2.433593 61.875 23.40625 97.945312 38.75 116.320312h-21.683594c-4.710937 0-8.53125 3.820312-8.53125 8.53125 0 4.714844 3.820313 8.535156 8.53125 8.535156h443.734375c4.710938 0 8.53125-3.820312 8.53125-8.535156 0-4.710938-3.820312-8.53125-8.53125-8.53125h-11.800781c7.898437-9.597656 12.085937-21.710938 11.800781-34.132812 0-25.6875-15.25-58.027344-17.664062-62.933594-16.8125-51.203125-40.507813-251.480469-50.765626-350.902344.304688-4.53125-1.992187-8.84375-5.921874-11.125-4.832032-2.890625-11.019532-2.070312-14.933594 1.980469l-141.117188 143.382812v-10.539062c0-4.710938-3.820312-8.53125-8.53125-8.53125zm-8.535156 60.75v170.230469l-144.476562-23.425782zm168.277344-116.90625c9.816406 87.15625 29.253906 246.9375 45.058594 296.25-.292969 8.285156-3.96875 45.925781-44.605469 49.648437l-6.59375-26.25v-212.292968c-.148438-35.882813 1.90625-71.742188 6.140625-107.375zm-21.585938 328.214843 4.519532 18.074219h-134.144532v-39.089843zm-146.691406 18.074219c-88.285156 0-138.546875-25.402343-166.332031-49.324219l9.03125-18.046874 157.300781 25.507812zm196.269531 42.667969h-346.957031c-7.628906-6.359375-36.320312-34.082031-43.9375-96.273438 25.121094 29.542969 80.585938 70.671876 194.625 70.671876h162.136719c27.082031 1.746093 52.21875-14.121094 62.292969-39.320313 3.523437 9.902344 5.539062 20.28125 5.972656 30.789063.644531 9.234374-2.746094 18.296874-9.289063 24.84375-6.546875 6.542968-15.609375 9.933593-24.84375 9.289062zm-38.121093-432.761719c-9.523438 49.808594-13.90625 100.460938-13.082032 151.160157v203.308593l-128-20.761719v-190.347656zm0 0"/></svg>