<svg height="512pt" viewBox="-43 0 512 512" width="512pt" xmlns="http://www.w3.org/2000/svg"><path d="m365.523438 508.160156c1.578124-2.394531 1.847656-5.421875.71875-8.054687-17.707032-37.597657-54.644532-62.417969-96.144532-64.605469-8.570312-18.902344-13.359375-39.292969-14.097656-60.035156 1.152344-24.175782 7.398438-47.835938 18.328125-69.433594 2.40625-4.917969 2.273437-10.695312-.351563-15.496094-2.625-4.804687-7.417968-8.03125-12.855468-8.660156l17.21875-34.410156h20.328125c14.136719 0 25.597656-11.460938 25.597656-25.597656 0-14.140626-11.460937-25.601563-25.597656-25.601563h-22.570313c-4.25-5.421875-7.097656-11.804687-8.296875-18.585937 46.796875-2.703126 158.867188-12.988282 158.867188-49.679688 0-6.621094 0-26.300781-75.667969-40.269531l13.433594-13.429688c2.21875-2.144531 3.105468-5.316406 2.328125-8.300781-.78125-2.984375-3.113281-5.3125-6.097657-6.09375-2.980468-.78125-6.15625.109375-8.296874 2.328125l-25.601563 25.597656c-2.875 2.878907-3.324219 7.386719-1.066406 10.769531l17.066406 25.601563c1.691406 2.535156 4.609375 3.976563 7.652344 3.78125 3.042969-.199219 5.75-2.003906 7.101562-4.738281 1.347657-2.734375 1.140625-5.980469-.554687-8.515625l-6.484375-9.738281c48.75 9.355468 59.121093 20.386718 59.121093 23.007812 0 7.476562-41.816406 27.085938-144.429687 32.691406-.398437-4.640625-.636719-9.796875-.636719-15.625 1.277344-11.574218 4.894532-22.769531 10.628906-32.902344 8.84375-16.140624 13.960938-34.054687 14.96875-52.429687.300782-16.570313-3.914062-32.910156-12.195312-47.265625-4.644531-7.722656-12.988281-12.4492188-21.996094-12.46875h-85.214844c-9.011718.0195312-17.355468 4.75-22 12.476562-8.277343 14.351563-12.492187 30.691407-12.191406 47.257813.042969 6.722656.90625 13.414063 2.558594 19.933594-48.957031 3.957031-139.09375 15.632812-139.09375 48.332031 0 18.339844 27.914062 32.296875 82.917969 41.546875l-12.152344 12.152344c-2.21875 2.144531-3.105469 5.316406-2.324219 8.300781s3.109375 5.3125 6.09375 6.09375 6.15625-.109375 8.296875-2.328125l25.601563-25.597656c2.28125-2.289063 3.078125-5.667969 2.054687-8.730469l-8.53125-25.601562c-.964843-2.894532-3.398437-5.058594-6.390625-5.671876-2.988281-.613281-6.078125.414063-8.105468 2.695313-2.027344 2.285156-2.679688 5.472656-1.71875 8.371094l4.746093 14.242187c-60.085937-9.566406-73.421875-22.664062-73.421875-25.472656 0-5.785156 31.703125-24.429688 127.488282-31.574219 2.210937 5.488281 4.617187 10.753907 6.945312 15.761719 5.730469 10.128906 9.347656 21.3125 10.632812 32.878906 0 35.839844-8.625 48.101563-11.453124 51.199219h-22.679688c-14.136719 0-25.601562 11.460937-25.601562 25.601563 0 14.136718 11.464843 25.597656 25.601562 25.597656h20.328125l17.21875 34.410156c-5.433594.632812-10.222656 3.863281-12.84375 8.664062-2.625 4.800782-2.753906 10.578126-.347656 15.492188 10.921875 21.597656 17.164062 45.257812 18.3125 69.433594-.738281 20.742187-5.527344 41.132812-14.097657 60.035156-41.5 2.1875-78.4375 27.007812-96.144531 64.605469-1.132812 2.636719-.863281 5.664062.71875 8.058593 1.578125 2.394532 4.253907 3.835938 7.121094 3.835938h290.132813c2.871093 0 5.546874-1.441406 7.125-3.839844zm-198.542969-403.199218c-7.734375-13.910157-12.300781-29.351563-13.378907-45.226563-.296874-13.488281 3.085938-26.800781 9.777344-38.511719 1.535156-2.59375 4.332032-4.175781 7.347656-4.15625h85.214844c3.011719-.019531 5.808594 1.558594 7.347656 4.148438 6.691407 11.714844 10.070313 25.03125 9.777344 38.519531-1.078125 15.875-5.648437 31.316406-13.378906 45.226563-6.9375 12.320312-11.109375 26.007812-12.222656 40.105468-.789063 17.480469 2.136718 34.933594 8.585937 51.199219h-85.433593c6.449218-16.265625 9.375-33.71875 8.582031-51.199219-1.109375-14.097656-5.28125-27.785156-12.21875-40.105468zm-47.515625 116.90625c0-4.714844 3.824218-8.535157 8.535156-8.535157h170.667969c4.710937 0 8.53125 3.820313 8.53125 8.535157 0 4.710937-3.820313 8.53125-8.53125 8.53125h-170.667969c-4.710938 0-8.535156-3.820313-8.535156-8.53125zm139.792968 25.597656-17.066406 34.136718h-57.71875l-17.066406-34.136718zm-91.542968 51.203125h91.230468c-12.035156 23.890625-18.855468 50.070312-20.011718 76.796875.542968 20.511718 4.808594 40.753906 12.59375 59.734375h-76.390625c7.789062-18.980469 12.054687-39.222657 12.597656-59.734375-1.152344-26.726563-7.976563-52.90625-20.019531-76.796875zm-84.820313 196.265625c17.382813-26.832032 47.269531-42.925782 79.238281-42.667969h102.402344c31.96875-.253906 61.859375 15.835937 79.246094 42.667969zm0 0"/></svg>