<svg height="496pt" viewBox="0 0 496.10415 496" width="496pt" xmlns="http://www.w3.org/2000/svg"><path d="m487.542969 181.734375c3.835937.007813 7.171875-2.625 8.054687-6.359375.882813-3.730469-.921875-7.578125-4.355468-9.289062l-148.644532-74.324219c-4.082031-2.039063-9.042968-.382813-11.082031 3.699219-2.039063 4.082031-.382813 9.046874 3.699219 11.085937l148.644531 74.320313c1.144531.570312 2.40625.867187 3.683594.867187zm0 0"/><path d="m484.933594.476562-148.644532 49.550782c-4.332031 1.441406-6.675781 6.121094-5.234374 10.453125 1.441406 4.332031 6.121093 6.679687 10.453124 5.238281l148.644532-49.550781c4.335937-1.441407 6.679687-6.121094 5.238281-10.453125-1.441406-4.332032-6.121094-6.675782-10.457031-5.238282zm0 0"/><path d="m341.320312 151.121094c-3.226562 3.226562-3.226562 8.453125 0 11.679687l41.289063 41.289063c3.238281 3.128906 8.390625 3.085937 11.574219-.101563 3.1875-3.183593 3.230468-8.335937.101562-11.574219l-41.289062-41.292968c-3.226563-3.222656-8.453125-3.222656-11.675782 0zm0 0"/><path d="m487.542969 74.378906h-66.0625c-4.5625 0-8.257813 3.699219-8.257813 8.257813 0 4.5625 3.695313 8.257812 8.257813 8.257812h66.0625c4.5625 0 8.257812-3.695312 8.257812-8.257812 0-4.558594-3.695312-8.257813-8.257812-8.257813zm0 0"/><path d="m330.640625 24.832031c1.277344.011719 2.535156-.269531 3.683594-.828125l16.515625-8.257812c2.640625-1.316406 4.378906-3.945313 4.554687-6.890625.179688-2.945313-1.226562-5.765625-3.691406-7.390625-2.460937-1.628906-5.605469-1.816406-8.246094-.5l-16.515625 8.257812c-3.382812 1.734375-5.148437 5.554688-4.269531 9.253906.875 3.703126 4.167969 6.324219 7.96875 6.355469zm0 0"/><path d="m164.652344 95.460938c-.976563-1.960938-2.695313-3.449219-4.773438-4.144532-2.078125-.695312-4.347656-.535156-6.308594.445313l-148.644531 74.324219c-4.082031 2.039062-5.738281 7-3.699219 11.082031 2.039063 4.082031 7 5.738281 11.082032 3.699219l148.644531-74.320313c1.960937-.980469 3.453125-2.699219 4.148437-4.777344.691407-2.078125.53125-4.347656-.449218-6.308593zm0 0"/><path d="m165.058594 60.472656c.691406-2.078125.53125-4.347656-.449219-6.304687-.980469-1.960938-2.699219-3.449219-4.777344-4.140625l-148.644531-49.550782c-4.335938-1.4375-9.015625.90625-10.457031 5.238282-1.441407 4.332031.902343 9.011718 5.238281 10.453125l148.644531 49.550781c2.078125.691406 4.347657.53125 6.304688-.449219 1.960937-.980469 3.449219-2.699219 4.140625-4.78125zm0 0"/><path d="m143.125 151.121094-41.289062 41.292968c-2.148438 2.070313-3.007813 5.140626-2.253907 8.03125.757813 2.886719 3.011719 5.140626 5.898438 5.894532 2.886719.757812 5.957031-.105469 8.03125-2.25l41.289062-41.289063c3.132813-3.242187 3.085938-8.394531-.097656-11.578125-3.1875-3.183594-8.335937-3.230468-11.578125-.101562zm0 0"/><path d="m8.578125 90.894531h66.0625c4.5625 0 8.257813-3.695312 8.257813-8.257812 0-4.558594-3.695313-8.257813-8.257813-8.257813h-66.0625c-4.5625 0-8.257813 3.699219-8.257813 8.257813 0 4.5625 3.695313 8.257812 8.257813 8.257812zm0 0"/><path d="m172.914062 20.265625c.976563-1.960937 1.140626-4.230469.445313-6.308594s-2.1875-3.796875-4.148437-4.773437l-16.515626-8.257813c-4.082031-2.039062-9.042968-.382812-11.082031 3.699219-2.039062 4.082031-.382812 9.042969 3.699219 11.082031l16.515625 8.257813c1.960937.980468 4.230469 1.140625 6.308594.445312 2.078125-.691406 3.796875-2.183594 4.777343-4.144531zm0 0"/><path d="m256.269531 255.183594c-.355469-3.324219-2.671875-6.105469-5.878906-7.050782-3.203125-.945312-6.660156.136719-8.757813 2.734376-2.097656 2.597656-2.425781 6.207031-.828124 9.140624 1.601562 2.933594 4.808593 4.613282 8.132812 4.257813 4.53125-.484375 7.8125-4.550781 7.332031-9.082031zm0 0"/><path d="m248.9375 181.683594c3.320312-.351563 6.101562-2.671875 7.046875-5.875s-.132813-6.664063-2.734375-8.761719c-2.597656-2.097656-6.207031-2.421875-9.140625-.824219s-4.613281 4.808594-4.257813 8.128906c.484376 4.53125 4.550782 7.816407 9.085938 7.332032zm0 0"/><path d="m8.578125 495.542969c4.558594 0 8.257813-3.699219 8.257813-8.261719 0-37.796875 23.945312-51.265625 43.988281-55.921875 11.460937-2.621094 21.855469-8.671875 29.796875-17.339844 23.394531-24.316406 55-39.058593 88.667968-41.359375l-3.691406 43.015625c-8.757812-1.855469-17.683594-2.765625-26.632812-2.714843-4.5625 0-8.257813 3.695312-8.257813 8.257812s3.695313 8.257812 8.257813 8.257812c10.585937-.238281 21.140625 1.28125 31.230468 4.492188l.109376.058594c1.648437.554687 3.160156 1.171875 4.640624 1.816406l.609376.265625c1.179687.527344 2.28125 1.105469 3.371093 1.699219.632813.355468 1.277344.710937 1.875 1.082031.59375.371094 1.285157.824219 1.898438 1.230469.882812.613281 1.71875 1.238281 2.476562 1.867187.347657.28125.683594.5625 1.015625.824219 3.910156 3.351562 6.945313 7.601562 8.84375 12.386719-7.65625 1.226562-14.808594 4.582031-20.644531 9.6875-2.324219 2.371093-3.003906 5.90625-1.722656 8.96875s4.273437 5.058593 7.59375 5.070312c2.121093 0 4.164062-.804687 5.714843-2.253906 5.4375-4.191406 12.199219-6.289063 19.050782-5.90625 2.269531-.003906 4.53125.195313 6.765625.597656 2.898437.53125 5.867187-.523437 7.78125-2.769531 1.910156-2.246094 2.480469-5.339844 1.492187-8.121094-.988281-2.777344-3.382812-4.820312-6.285156-5.355468-.867188-.15625-1.816406-.125-2.699219-.238282-.800781-3.0625-1.890625-6.035156-3.261719-8.886718h58.480469c-1.371093 2.851562-2.460937 5.824218-3.261719 8.886718-.882812.113282-1.832031.082032-2.699218.238282-4.484375.828124-7.453125 5.132812-6.625 9.617187.824218 4.484375 5.128906 7.453125 9.613281 6.628906 2.234375-.402343 4.496094-.601562 6.765625-.597656 6.835938-.355469 13.570312 1.746094 18.992188 5.921875 3.292968 2.894531 8.269531 2.714844 11.34375-.410156 3.074218-3.125 3.167968-8.109375.21875-11.347656-5.835938-5.105469-12.992188-8.464844-20.644532-9.6875 1.886719-4.78125 4.914063-9.035157 8.808594-12.386719.308594-.28125.636719-.546875.96875-.828125.785156-.640625 1.648438-1.285156 2.535156-1.914063.601563-.414062 1.222656-.824219 1.863282-1.207031.644531-.378906 1.273437-.75 1.933593-1.121094 1.074219-.578125 2.164063-1.15625 3.304688-1.652344.222656-.109374.460937-.207031.691406-.304687 1.472656-.644531 2.992187-1.246094 4.601563-1.800781l.089843-.050782c10.128907-3.230468 20.726563-4.753906 31.355469-4.5 4.5625 0 8.257812-3.695312 8.257812-8.257812s-3.695312-8.257812-8.257812-8.257812c-8.945312-.0625-17.875.835937-26.632812 2.683593l-3.691407-43.015625c33.667969 2.296875 65.273438 17.039063 88.667969 41.355469 7.941406 8.671875 18.332031 14.71875 29.796875 17.34375 20.042969 4.6875 43.988281 18.15625 43.988281 55.953125 0 4.5625 3.699219 8.261719 8.257813 8.261719 4.5625 0 8.257812-3.699219 8.257812-8.261719 1.976563-34.894531-22.378906-65.785156-56.773437-72.007812-8.210938-1.882813-15.65625-6.226563-21.339844-12.445313-1.230469-1.339844-2.625-2.765625-4.128906-4.238281 2.972656-2.089844 5.632812-4.589844 7.898437-7.429688 5.910157 7.894532 14.957031 12.835938 24.796875 13.542969 9.828125-.710937 18.867188-5.648437 24.773438-13.535156 3.457031 4.429687 7.882812 8.011719 12.933594 10.472656 4.066406 1.757813 8.796874 0 10.71875-3.992187 1.925781-3.992188.359374-8.789063-3.550782-10.875-3.792968-1.945313-6.945312-4.9375-9.085937-8.621094-2.339844-3.828125-6.503907-6.164063-10.988281-6.164063-4.488282 0-8.652344 2.335938-10.992188 6.164063-2.746094 5.277344-7.78125 8.984375-13.636719 10.035156-5.992187-.917969-11.179687-4.652344-13.953125-10.042969-2.289062-3.921875-6.453125-6.375-10.992187-6.472656-4.535157.101563-8.695313 2.546875-10.984375 6.464844-2.304688 4.015625-5.839844 7.179687-10.082032 9.027343-24.753906-18.347656-54.265624-29.171874-85.007812-31.183593l-1.28125-14.949219c3.113281-2.140625 5.898438-4.726562 8.257812-7.679688 5.90625 7.894532 14.945313 12.835938 24.773438 13.542969 9.832031-.707031 18.871094-5.648437 24.773438-13.542969 5.90625 7.894532 14.945312 12.835938 24.777343 13.542969 9.828125-.707031 18.867188-5.648437 24.773438-13.542969 5.902343 7.894532 14.941406 12.835938 24.773437 13.542969 9.828125-.707031 18.867188-5.644531 24.773438-13.535156 3.457031 4.429687 7.882812 8.011719 12.933594 10.472656 2.671874 1.425781 5.914062 1.273438 8.441406-.398437s3.9375-4.59375 3.667968-7.613282c-.265624-3.015624-2.160156-5.648437-4.941406-6.851562-3.792968-1.945312-6.945312-4.9375-9.085937-8.621094-2.339844-3.828125-6.503907-6.164062-10.988281-6.164062-4.488282 0-8.652344 2.335937-10.992188 6.164062-2.746094 5.273438-7.78125 8.980469-13.636719 10.03125-5.992187-.917968-11.179687-4.652344-13.953125-10.039062-2.289062-3.925782-6.453125-6.375-10.992187-6.476563-4.539063.105469-8.695313 2.550781-10.992188 6.464844-2.734375 5.277344-7.761719 8.988281-13.609375 10.050781-5.992187-.917968-11.179687-4.652344-13.957031-10.039062-2.289063-3.925782-6.449219-6.375-10.992187-6.476563-4.535157.105469-8.695313 2.550781-10.988282 6.464844-2.738281 5.277344-7.761718 8.988281-13.609375 10.050781-5.992187-.917968-11.183593-4.652344-13.957031-10.039062-2.289062-3.925782-6.453125-6.375-10.992188-6.476563-4.03125.105469-7.78125 2.097657-10.125 5.382813l-1.3125-15.292969-1.535156-17.902344c5.070313-2.460937 9.507813-6.050781 12.972656-10.496093 5.910157 7.886718 14.945313 12.824218 24.773438 13.535156 9.832031-.710938 18.871094-5.652344 24.773438-13.542969 5.90625 7.890625 14.945312 12.832031 24.777343 13.542969 9.828125-.710938 18.867188-5.652344 24.773438-13.542969 5.902343 7.890625 14.941406 12.832031 24.773437 13.542969 9.828125-.710938 18.867188-5.648438 24.773438-13.535156 3.457031 4.429687 7.882812 8.011718 12.933594 10.472656 2.671874 1.425781 5.914062 1.269531 8.441406-.402344 2.527344-1.667969 3.9375-4.589844 3.667968-7.609375-.265624-3.019531-2.160156-5.648437-4.941406-6.855469-3.792968-1.945312-6.945312-4.9375-9.085937-8.621094-2.339844-3.828124-6.503907-6.164062-10.988281-6.164062-4.488282 0-8.652344 2.335938-10.992188 6.164062-2.746094 5.277344-7.78125 8.984376-13.636719 10.035157-5.992187-.917969-11.179687-4.652344-13.953125-10.042969-2.289062-3.921875-6.453125-6.375-10.992187-6.472656-4.539063.101562-8.695313 2.550781-10.992188 6.464844-2.734375 5.277343-7.761719 8.988281-13.609375 10.050781-5.992187-.917969-11.179687-4.652344-13.957031-10.042969-2.289063-3.921875-6.449219-6.375-10.992187-6.472656-4.535157.101562-8.695313 2.550781-10.988282 6.464844-2.738281 5.277343-7.761718 8.988281-13.609375 10.050781-5.992187-.917969-11.183593-4.652344-13.957031-10.042969-2.289062-3.921875-6.453125-6.375-10.992188-6.472656-4.535156.101562-8.695312 2.550781-10.992187 6.464844-1.023437 1.667968-2.230469 3.210937-3.597656 4.609374l-3.125-36.453124-5.605469-65.402344c-.792969-9.324219 1.597656-18.636719 6.78125-26.425782l6.894531-10.339843c.179688-.3125.335938-.640625.46875-.976563.109375-.222656.234375-.417968.324219-.652344.347656-.894531.539062-1.84375.5625-2.804687 0-.050781 0-.09375 0-.148437v-24.777344c0-9.121094-7.394531-16.515625-16.519531-16.515625h-8.222657v-16.515625h7.429688c6.15625.046875 11.878906-3.144532 15.082031-8.398438 2.949219-5.007812 2.949219-11.21875 0-16.226562l-18.929687-29.878906c-4.515625-7.203126-12.421875-11.570313-20.925782-11.5585942h-47.894531c-8.507812-.015625-16.417969 4.3554682-20.933593 11.5585942l-19.203126 30.324218c-2.734374 4.929688-2.632812 10.945313.265626 15.78125 3.203124 5.261719 8.9375 8.449219 15.097656 8.398438h7.429687v16.515625h-8.257812c-9.121094 0-16.515625 7.394531-16.515625 16.515625v24.777344.148437c.023437.960937.210937 1.910156.5625 2.804687.089844.234376.214844.429688.320312.652344.132813.335938.292969.664063.472656.976563l6.902344 10.339843c5.175782 7.789063 7.566406 17.105469 6.78125 26.425782l-5.609375 65.402344-3.121093 36.453124c-1.371094-1.398437-2.578126-2.945312-3.609376-4.609374-2.28125-3.910157-6.429687-6.359376-10.957031-6.464844-4.535156.101562-8.695312 2.546875-10.984375 6.464844-2.738281 5.277343-7.765625 8.992187-13.617187 10.050781-5.996094-.921875-11.1875-4.65625-13.964844-10.050781-2.285156-3.917969-6.445313-6.367188-10.980469-6.464844-4.535156.101562-8.691406 2.546875-10.976562 6.464844-2.742188 5.277343-7.773438 8.988281-13.625 10.050781-5.996094-.921875-11.1875-4.65625-13.964844-10.050781-2.289062-3.917969-6.449219-6.367188-10.984375-6.464844-4.53125.101562-8.6875 2.546875-10.972656 6.464844-2.742188 5.277343-7.773438 8.988281-13.628907 10.050781-5.996093-.921875-11.1875-4.65625-13.964843-10.050781-2.335938-3.828126-6.5-6.164063-10.984375-6.164063-4.488282 0-8.648438 2.335937-10.988282 6.164063-2.140624 3.683593-5.292968 6.679687-9.085937 8.621093-2.792969 1.191407-4.710937 3.828125-4.9804688 6.855469-.2734372 3.027344 1.1367188 5.960938 3.6757818 7.632812 2.539062 1.675782 5.789062 1.820313 8.464843.375 5.046875-2.453124 9.464844-6.027343 12.917969-10.453124 5.90625 7.886718 14.945312 12.824218 24.773438 13.535156 9.828124-.710938 18.867187-5.652344 24.773437-13.542969 5.90625 7.890625 14.945313 12.832031 24.773437 13.542969 9.832032-.710938 18.871094-5.652344 24.777344-13.542969 5.902344 7.890625 14.941406 12.832031 24.773438 13.542969 9.828125-.710938 18.863281-5.648438 24.773437-13.535156 3.46875 4.429687 7.90625 8.011718 12.972657 10.464843l-1.535157 17.933594-1.3125 15.304687c-2.339843-3.292968-6.089843-5.289062-10.125-5.394531-4.535156.101563-8.695312 2.550781-10.984375 6.464844-2.738281 5.28125-7.765625 8.992187-13.617187 10.050781-5.996094-.917968-11.1875-4.65625-13.964844-10.050781-2.285156-3.917969-6.445313-6.367187-10.980469-6.464844-4.535156.101563-8.691406 2.550781-10.976562 6.464844-2.742188 5.28125-7.773438 8.992187-13.625 10.050781-5.996094-.917968-11.1875-4.65625-13.964844-10.050781-2.289062-3.917969-6.449219-6.367187-10.984375-6.464844-4.53125.101563-8.6875 2.550781-10.972656 6.464844-2.742188 5.28125-7.773438 8.992187-13.628907 10.050781-5.996093-.917968-11.1875-4.65625-13.964843-10.050781-2.335938-3.828125-6.5-6.164063-10.984375-6.164063-4.488282 0-8.648438 2.335938-10.988282 6.164063-2.140624 3.6875-5.292968 6.679687-9.085937 8.625-2.777344 1.203125-4.675781 3.832031-4.9414062 6.851563-.2656248 3.019531 1.1406252 5.941406 3.6718752 7.613281 2.527344 1.671875 5.765625 1.824219 8.4375.398437 5.042968-2.457031 9.457031-6.035156 12.910156-10.457031 5.90625 7.886719 14.945312 12.824219 24.773438 13.535156 9.828124-.710937 18.867187-5.652343 24.773437-13.542969 5.90625 7.894532 14.945313 12.835938 24.773437 13.542969 9.832032-.710937 18.871094-5.652343 24.777344-13.542969 5.902344 7.894532 14.941406 12.835938 24.773438 13.542969 9.828125-.707031 18.867187-5.648437 24.773437-13.542969 2.359375 2.953126 5.144531 5.539063 8.257813 7.679688l-1.28125 14.949219c-30.746094 2.015625-60.257813 12.847656-85.007813 31.199219-4.242187-1.847657-7.777343-5.011719-10.082031-9.027344-2.285156-3.925782-6.445312-6.378906-10.984375-6.480469-4.53125.101563-8.6875 2.546875-10.972656 6.464844-2.742188 5.277343-7.773438 8.988281-13.628907 10.050781-5.996093-.921875-11.1875-4.65625-13.964843-10.050781-2.335938-3.828125-6.5-6.164063-10.984375-6.164063-4.488282 0-8.648438 2.335938-10.988282 6.164063-2.140624 3.683593-5.292968 6.675781-9.085937 8.621093-2.777344 1.203126-4.675781 3.835938-4.9414062 6.855469-.2656248 3.015625 1.1406252 5.9375 3.6718752 7.609375 2.527344 1.671875 5.765625 1.824219 8.4375.398438 5.042968-2.457032 9.457031-6.03125 12.910156-10.453125 5.90625 7.886719 14.945312 12.824219 24.773438 13.535156 9.828124-.710937 18.863281-5.648437 24.773437-13.535156 2.265625 2.839843 4.925781 5.34375 7.894531 7.433593-1.476562 1.46875-2.875 2.898438-4.128906 4.234376-5.675781 6.214843-13.109375 10.550781-21.3125 12.4375-34.394531 6.222656-58.75 37.113281-56.773438 72.007812 0 4.5625 3.695313 8.261719 8.257813 8.261719zm196.375-228.898438 4.128906-47.898437c1.050781-.207032 2.089844-.429688 3.136719-.617188 1.347656-.242187 2.695312-.480468 4.039062-.695312 2.238282-.355469 4.476563-.660156 6.714844-.941406 1.3125-.164063 2.625-.347657 3.9375-.488282 2.414063-.246094 4.816406-.4375 7.226563-.601562 1.125-.082032 2.246093-.1875 3.371093-.246094 7.046876-.371094 14.109376-.371094 21.15625 0 1.121094.058594 2.246094.164062 3.367188.246094 2.414062.164062 4.816406.355468 7.226562.601562 1.3125.140625 2.628907.324219 3.941407.488282 2.238281.28125 4.476562.585937 6.703125.941406 1.355468.214844 2.703125.453125 4.046875.695312 1.050781.1875 2.089843.410156 3.140625.617188l2.121094 24.777344 4.269531 50.4375c-29.964844-6.386719-60.941407-6.386719-90.90625 0zm81.597656-126.398437c-2.222656 5.570312-3.574219 11.449218-4.003906 17.433594-.214844 3-.199219 6.011718.058594 9.007812l2.988281 34.917969-.371094-.050781c-5.492187-.941407-10.992187-1.652344-16.515625-2.15625-1.3125-.125-2.636719-.230469-3.949219-.328126-5.515624-.421874-11.039062-.71875-16.558593-.71875h-.261719c-5.515625 0-11.042969.296876-16.558594.71875-1.3125.097657-2.632812.203126-3.945312.328126-5.511719.527343-11.007813 1.214843-16.519532 2.15625l-.394531.058593 2.988281-34.917969c1.019532-12.046874-1.75-24.109374-7.917968-34.507812h84.941406c-1.535156 2.578125-2.867188 5.273438-3.980469 8.058594zm-46.75 289.230468v-41.289062c0-4.5625 3.699219-8.257812 8.257813-8.257812 4.5625 0 8.261718 3.695312 8.261718 8.257812v41.289062zm57.253907-4.90625c-1.320313.785157-2.476563 1.652344-3.691407 2.542969-.726562.53125-1.527343 1.027344-2.203125 1.570313-.355468.28125-.777344.503906-1.125.824218h-17.199218v-41.320312c0-13.683594-11.09375-24.773438-24.777344-24.773438-13.679688 0-24.773438 11.089844-24.773438 24.773438v41.289062h-17.199218c-.347657-.289062-.769532-.511718-1.125-.824218-.675782-.546875-1.476563-1.042969-2.203126-1.570313-1.214843-.824219-2.371093-1.757812-3.691406-2.542969-2.355468-1.445312-4.800781-2.730468-7.324218-3.847656l9.378906-109.394531c30.859375-7.367187 63.019531-7.367187 93.878906 0l9.378906 109.425781c-2.523437 1.121094-4.96875 2.40625-7.324218 3.847656zm-98.335938-375.070312 18.421875-29.085938c1.515625-2.390624 4.144531-3.839843 6.972656-3.839843h47.894531c2.832032 0 5.464844 1.449219 6.980469 3.839843l18.421875 29.085938c-.199218.078125-.414062.113281-.628906.105469h-97.441406c-.214844.007812-.425782-.027344-.621094-.105469zm24.566406 16.621094h49.550782v16.515625h-49.550782zm-24.773437 33.03125h99.097656v16.519531h-99.097656zm0 0"/><path d="m351.164062 480.207031c-3.820312 2.386719-5.019531 7.394531-2.699218 11.253907 2.320312 3.859374 7.304687 5.148437 11.203125 2.898437 23.019531-12.882813 51.082031-12.882813 74.101562 0 3.90625 2.273437 8.914063.984375 11.238281-2.894531 2.320313-3.882813 1.089844-8.90625-2.757812-11.273438-1.867188-1.109375-46.054688-27.015625-91.085938.015625zm0 0"/><path d="m53.871094 480.207031c-3.847656 2.367188-5.078125 7.394531-2.757813 11.273438 2.324219 3.878906 7.332031 5.167969 11.238281 2.894531 23.019532-12.886719 51.082032-12.886719 74.101563 0 3.898437 2.25 8.882813.960938 11.203125-2.898438 2.320312-3.859374 1.121094-8.867187-2.699219-11.253906-45.019531-27.035156-89.21875-1.140625-91.085937-.015625zm0 0"/></svg>