<svg height="512pt" viewBox="0 0 512.00888 512" width="512pt" xmlns="http://www.w3.org/2000/svg"><path d="m272.578125 234.714844c1.570313-4.441406-.75-9.3125-5.1875-10.890625-12.808594-4.53125-27.085937-1.03125-36.351563 8.90625-9.265624 9.941406-11.753906 24.429687-6.332031 36.886719 5.417969 12.460937 17.710938 20.519531 31.300781 20.519531 4.710938 0 8.53125-3.820313 8.53125-8.53125 0-4.714844-3.820312-8.535157-8.53125-8.535157-6.785156-.011718-12.921874-4.039062-15.625-10.265624-2.707031-6.222657-1.464843-13.457032 3.15625-18.425782 4.621094-4.96875 11.75-6.726562 18.152344-4.476562 4.4375 1.570312 9.3125-.75 10.886719-5.1875zm0 0"/><path d="m474.359375 295.191406c1.015625-5.417968 4.644531-9.984375 9.691406-12.195312l2.9375-1.316406c11.144531-4.921876 25.019531-11.050782 25.019531-25.675782s-13.875-20.753906-25.019531-25.675781l-2.9375-1.316406c-5.046875-2.207031-8.675781-6.769531-9.691406-12.183594-2.175781-12.304687-5.394531-24.40625-9.617187-36.164063-1.808594-5.1875-.949219-10.933593 2.300781-15.359374l1.828125-2.511719c7.203125-9.84375 16.144531-22.089844 8.839844-34.753907-7.304688-12.664062-22.375-11.035156-34.492188-9.738281l-3.207031.34375c-5.480469.621094-10.914063-1.515625-14.507813-5.703125-8.066406-9.539062-16.914062-18.386718-26.453125-26.453125-4.175781-3.597656-6.308593-9.023437-5.699219-14.503906l.339844-3.210937c1.296875-12.109376 2.925782-27.175782-9.734375-34.492188-12.664062-7.3125-24.910156 1.648438-34.757812 8.84375l-2.507813 1.824219c-4.429687 3.246093-10.171875 4.109375-15.359375 2.304687-11.757812-4.226562-23.847656-7.441406-36.148437-9.617187-5.417969-1.015625-9.984375-4.644531-12.195313-9.695313l-1.3125-2.933594c-4.914062-11.128906-11.042969-25.00390575-25.667969-25.00390575-14.628906 0-20.753906 13.87499975-25.679687 25.01953175l-1.3125 2.9375c-2.210937 5.046874-6.769531 8.675781-12.183594 9.691406-12.308593 2.175781-24.40625 5.394531-36.167969 9.617187-5.183593 1.808594-10.929687.945313-15.359374-2.304687l-2.507813-1.824219c-9.871094-7.203125-22.125-16.152344-34.789063-8.839844-12.664062 7.3125-11.035156 22.382813-9.738281 34.492188l.34375 3.207031c.613281 5.480469-1.519531 10.910156-5.703125 14.507812-9.539062 8.0625-18.386718 16.914063-26.453125 26.453126-3.585937 4.191406-9.023437 6.328124-14.503906 5.699218l-3.210937-.339844c-12.058594-1.359374-27.125-2.980468-34.441407 9.683594-7.3125 12.664063 1.640625 24.910156 8.84375 34.757813l1.824219 2.507812c3.246094 4.429688 4.109375 10.171875 2.304688 15.359375-4.226563 11.753906-7.445313 23.847656-9.617188 36.148438-1.015625 5.417968-4.644531 9.980468-9.695312 12.195312l-2.933594 1.3125c-11.144532 4.964844-25.0195315 11.09375-25.0195315 25.71875s13.8749995 20.753906 25.0195315 25.675782l2.933594 1.316406c5.046874 2.210937 8.675781 6.769531 9.695312 12.183594 2.171875 12.308593 5.390625 24.40625 9.617188 36.164062 1.808593 5.1875.945312 10.933594-2.304688 15.363281l-1.824219 2.507813c-7.203125 9.878906-16.148437 22.125-8.84375 34.789062 7.304688 12.664063 22.402344 11.035156 34.5 9.730469l3.191407-.335937c5.484374-.628907 10.921874 1.507812 14.507812 5.703124 8.0625 9.542969 16.910156 18.390626 26.453125 26.453126 4.179687 3.597656 6.3125 9.023437 5.699219 14.503906l-.339844 3.203125c-1.296875 12.117187-2.925781 27.183593 9.738281 34.5 12.660157 7.3125 24.914063-1.640625 34.753907-8.84375l2.511718-1.824219c4.425782-3.246094 10.171875-4.109375 15.359375-2.304688 11.753907 4.226563 23.847657 7.441407 36.144531 9.617188 5.417969 1.015625 9.984376 4.644531 12.195313 9.695312l1.3125 2.933594c4.925781 11.09375 11.050781 24.96875 25.679687 24.96875 14.625 0 20.753907-13.875 25.675782-25.019531l1.3125-2.933594c2.210937-5.046875 6.773437-8.675781 12.1875-9.695312 12.304687-2.175781 24.402344-5.390625 36.164062-9.617188 5.1875-1.804687 10.929688-.945312 15.359375 2.304688l2.507813 1.824219c9.839844 7.195312 22.085937 16.136718 34.757812 8.839843 5.984375-3.621093 9.839844-9.921875 10.34375-16.902343h100.625c9.425782 0 17.066406-7.640626 17.066406-17.066407v-17.066406c0-9.425781-7.640624-17.066406-17.066406-17.066406h-79.0625c3.328125-3.414063 6.621094-6.914063 9.652344-10.503907 3.585938-4.195312 9.023438-6.332031 14.503906-5.703124l3.203125.335937c12.105469 1.304687 27.183594 2.933594 34.5-9.730469 7.3125-12.664062-1.640625-24.910156-8.84375-34.753906l-1.824219-2.511719c-3.246093-4.429687-4.109374-10.171875-2.304687-15.359375 4.21875-11.769531 7.429687-23.875 9.59375-36.1875zm20.582031 148.546875h-110.933594v-17.066406h110.933594zm-41.738281-87.039062 1.894531 2.558593c4.710938 6.449219 9.582032 13.117188 7.832032 16.152344-1.746094 3.039063-9.949219 2.152344-17.917969 1.289063l-3.3125-.347657c-11.066407-1.152343-21.996094 3.210938-29.226563 11.671876-6.5 7.703124-13.558594 14.917968-21.117187 21.582031h-7.347657c-9.425781 0-17.066406 7.640625-17.066406 17.066406h-2.65625l-8.371094-21.984375c9.441407-6.367188 18.257813-13.617188 26.335938-21.648438.28125-.253906.535156-.511718.792969-.792968 69.550781-69.792969 69.550781-182.691406 0-252.484375-.257813-.28125-.511719-.535157-.792969-.792969-69.792969-69.550781-182.695312-69.550781-252.484375 0-.28125.257812-.539063.511719-.792969.792969-69.554687 69.792969-69.554687 182.691406 0 252.484375.253906.28125.511719.539062.792969.792968 55.941406 55.753907 141.835937 68.207032 211.308594 30.636719l7.261719 19.0625c2.539062 6.605469 8.875 10.972657 15.949218 11h2.65625c.019532 1.527344.25 3.042969.679688 4.503907.09375.367187.207031.710937.324218 1.058593.453126 1.367188 1.078126 2.671875 1.863282 3.882813v.070312c.832031 1.1875 1.808594 2.265625 2.910156 3.214844.269531.238281.542969.460938.851562.683594 1.09375.878906 2.296876 1.621094 3.574219 2.203125l.128907.074219c-.433594 2.699218-1.332032 3.21875-1.816407 3.5-3.082031 1.707031-9.710937-3.132813-16.15625-7.835938l-2.558593-1.890625c-9.007813-6.554687-20.667969-8.242187-31.164063-4.515625-10.847656 3.890625-22.007813 6.859375-33.355469 8.867188-10.960937 2.011718-20.222656 9.304687-24.746094 19.488281l-1.347656 3.046875c-3.296875 7.296875-6.613281 14.847656-10.121094 14.847656-3.507812 0-6.828124-7.550781-10.070312-14.847656l-1.347656-3.046875c-4.527344-10.183594-13.785156-17.476563-24.746094-19.488281-11.347656-2.007813-22.503906-4.976563-33.347656-8.867188-3.609375-1.300781-7.414063-1.964844-11.25-1.964844-7.152344.015625-14.121094 2.28125-19.914063 6.480469l-2.5625 1.890625c-6.457031 4.710938-13.132812 9.566406-16.152343 7.835938-3.019532-1.734376-2.152344-9.949219-1.296876-17.921876l.347657-3.308593c1.175781-11.078125-3.191407-22.019531-11.671875-29.246094-8.800782-7.4375-16.964844-15.601563-24.40625-24.402344-7.242188-8.492187-18.214844-12.847656-29.3125-11.640625l-3.300782.347656c-7.9375.855469-16.144531 1.707032-17.921874-1.285156-1.773438-2.996094 3.125-9.703125 7.835937-16.15625l1.894531-2.558594c6.558594-9.003906 8.25-20.667968 4.511719-31.164062-3.890625-10.847656-6.855469-22.007812-8.863281-33.355469-2.011719-10.964843-9.304688-20.226562-19.492188-24.746093l-3.019531-1.417969c-7.296875-3.242188-14.847656-6.5625-14.847656-10.070313 0-3.507812 7.550781-6.824218 14.847656-10.070312l3.046875-1.347656c10.183594-4.523438 17.476562-13.785157 19.488281-24.746094 2.007813-11.359375 4.972657-22.53125 8.867188-33.390625 3.726562-10.488281 2.035156-22.140625-4.515625-31.136719l-1.894532-2.5625c-4.707031-6.449219-9.582031-13.113281-7.832031-16.152344 1.75-3.039062 9.949219-2.152344 17.917969-1.296875l3.3125.347657c11.074219 1.160156 22.011719-3.203126 29.242188-11.671876 7.441406-8.804687 15.605468-16.96875 24.40625-24.40625 8.476562-7.222656 12.839843-18.160156 11.667968-29.234374l-.351562-3.3125c-.855469-7.933594-1.707032-16.125 1.296875-17.917969 3.003906-1.792969 9.703125 3.121093 16.152343 7.832031l2.5625 1.894531c9.003907 6.558594 20.667969 8.246094 31.164063 4.515625 10.847656-3.894531 22.003906-6.859375 33.355469-8.867187 10.960937-2.011719 20.21875-9.304688 24.746094-19.488281l1.347656-3.046876c3.277344-7.320312 6.597656-14.875 10.105468-14.875 3.507813 0 6.824219 7.554688 10.066407 14.847657l1.351562 3.046875c4.53125 10.195312 13.8125 17.492187 24.789063 19.492187 11.34375 2.007813 22.5 4.972657 33.347656 8.863281 10.488281 3.722657 22.136719 2.035157 31.136719-4.511718l2.5625-1.894532c6.449219-4.710937 13.121093-9.566406 16.152343-7.835937 3.027344 1.734375 2.148438 9.953125 1.296876 17.921875l-.351563 3.3125c-1.171875 11.074219 3.195313 22.019531 11.675781 29.242188 8.804688 7.4375 16.964844 15.601562 24.40625 24.40625 7.222656 8.46875 18.160156 12.832031 29.234375 11.664062l3.308594-.351562c7.9375-.851563 16.128906-1.707032 17.921875 1.296874 1.792969 3.003907-3.125 9.703126-7.832031 16.15625l-1.894531 2.558594c-6.5625 9.003906-8.25 20.667969-4.515626 31.164063 3.894532 10.847656 6.859376 22.007812 8.867188 33.355469 2.011719 10.960937 9.304688 20.222656 19.488281 24.746093l3.046875 1.351563c7.320313 3.277344 14.875 6.59375 14.875 10.101562 0 3.507813-7.554687 6.828125-14.847656 10.070313l-3.046875 1.347656c-10.199219 4.53125-17.496094 13.8125-19.492187 24.789063-2.007813 11.347656-4.972657 22.503906-8.867188 33.347656-3.722656 10.488281-2.035156 22.140625 4.515625 31.140625zm-188.664063-92.160157h19.722657l50.652343 132.972657c-19.101562 10.75-40.199218 17.476562-61.996093 19.773437 14.8125-26.917968 13.949219-59.734375-2.257813-85.835937 4.839844-.933594 9.578125-2.339844 14.148438-4.191407 2.917968-1.078124 5.019531-3.660156 5.484375-6.734374.460937-3.078126-.785157-6.164063-3.261719-8.054688-2.472656-1.886719-5.777344-2.28125-8.625-1.023438-24.34375 9.847657-52.261719 2.640626-68.796875-17.753906-16.539063-20.398437-17.816406-49.203125-3.148437-70.984375 14.664062-21.78125 41.835937-31.429687 66.957031-23.777343 25.117187 7.65625 42.292969 30.816406 42.320312 57.074218.019531 1.023438.226563 2.035156.609375 2.988282.054688.175781.121094.347656.195313.519531.386719.867187.917969 1.664062 1.578125 2.347656.128906.136719.273437.246094.410156.375.246094.253906.507812.492187.785156.714844 16.578125 12.789062 36.796875 19.960937 57.726563 20.480469 14.085937-.066407 27.925781-3.679688 40.242187-10.503907-3.261718 31.085938-15.480468 60.550781-35.171875 84.820313-5.652343-19.851563-18.601562-36.828125-36.25-47.53125-2.59375-1.761719-5.949219-1.957032-8.730469-.511719-2.785156 1.449219-4.550781 4.304687-4.597656 7.441406s1.628906 6.046875 4.367188 7.578125c17.222656 10.480469 28.664062 28.296875 31.027344 48.316406-5.714844 5.46875-11.820313 10.515626-18.269532 15.09375l-49.40625-129.703124c-2.558594-6.605469-8.914062-10.957032-15.992187-10.957032h-19.722657c-4.710937 0-8.53125 3.820313-8.53125 8.53125 0 4.714844 3.820313 8.535156 8.53125 8.535156zm-169.769531 8.386719c12.308594 6.8125 26.132813 10.417969 40.199219 10.488281 16.082031-.269531 31.816406-4.71875 45.664062-12.902343 1.941407 10.167969 5.9375 19.832031 11.742188 28.40625-29.914062 6.949219-53.734375 29.515625-62.292969 59.007812-19.777343-24.304687-32.046875-53.839843-35.3125-85zm35.335938-118.878906c8.558593 29.492187 32.382812 52.058594 62.292969 59.007813-5.78125 8.554687-9.773438 18.1875-11.734376 28.324218-26.101562-16.234375-58.9375-17.105468-85.867187-2.289062 3.257813-31.175782 15.527344-60.726563 35.308594-85.042969zm287.179687 85.042969c-26.929687-14.820313-59.765625-13.945313-85.871094 2.289062-1.957031-10.136718-5.949218-19.769531-11.730468-28.324218 29.910156-6.949219 53.734375-29.515626 62.292968-59.007813 19.78125 24.316406 32.050782 53.867187 35.308594 85.042969zm-4.503906 16.914062c-22.164062 14.027344-50.429688 14.027344-72.59375 0 22.164062-14.035156 50.429688-14.035156 72.59375 0zm-97.28125-59.527344c5.757812-25.585937 25.738281-45.566406 51.320312-51.328124-5.742187 25.578124-25.710937 45.5625-51.285156 51.328124zm-16.578125-4.105468c-8.554687-5.78125-18.1875-9.773438-28.324219-11.734375 16.238282-26.101563 17.109375-58.9375 2.289063-85.871094 31.175781 3.269531 60.730469 15.546875 85.042969 35.339844-29.472657 8.5625-52.023438 32.375-58.976563 62.265625zm-42.914063-93.140625c14.023438 22.164062 14.023438 50.425781 0 72.59375-14.03125-22.164063-14.03125-50.429688 0-72.59375zm-14.628906 81.40625c-10.132812 1.960937-19.769531 5.953125-28.320312 11.734375-6.949219-29.910156-29.515625-53.734375-59.007813-62.292969 24.3125-19.789063 53.863281-32.070313 85.042969-35.335937-14.832031 26.9375-13.957031 59.785156 2.285156 85.894531zm-44.902344 15.839843c-25.582031-5.757812-45.566406-25.734374-51.328124-51.320312 25.589843 5.75 45.574218 25.730469 51.328124 51.320312zm-24.652343 59.527344c-22.160157 14.035156-50.429688 14.035156-72.59375 0 22.167969-14.027344 50.429687-14.027344 72.59375 0zm24.652343 59.527344c-5.753906 25.585938-25.734374 45.566406-51.316406 51.328125 5.75-25.585937 25.730469-45.574219 51.316406-51.328125zm16.582032 4.105469c8.550781 5.78125 18.1875 9.773437 28.320312 11.734375-16.25 26.113281-17.125 58.972656-2.285156 85.914062-31.179688-3.269531-60.730469-15.546875-85.042969-35.335937 29.496094-8.5625 52.0625-32.394531 59.007813-62.3125zm42.949218 93.140625c-14.023437-22.164063-14.023437-50.425782 0-72.589844 14.027344 22.164062 14.027344 50.425781 0 72.589844zm0 0"/><path d="m452.273438 8.539062c0-4.714843-3.820313-8.53515575-8.535157-8.53515575h-34.132812c-4.710938 0-8.53125 3.82031275-8.53125 8.53515575v25.597657c0 4.714843 3.820312 8.535156 8.53125 8.535156 4.714843 0 8.535156-3.820313 8.535156-8.535156v-8.53125c31.171875 21.667969 57.730469 49.316406 78.121094 81.339843 2.523437 3.980469 7.792969 5.164063 11.777343 2.644532 3.980469-2.523438 5.167969-7.792969 2.644532-11.777344-19.972656-31.300781-45.527344-58.671875-75.390625-80.742188h8.445312c4.714844 0 8.535157-3.820312 8.535157-8.53125zm0 0"/><path d="m59.738281 503.472656c0 4.710938 3.824219 8.53125 8.535157 8.53125h34.132812c4.714844 0 8.535156-3.820312 8.535156-8.53125v-25.601562c0-4.710938-3.820312-8.535156-8.535156-8.535156-4.710938 0-8.53125 3.824218-8.53125 8.535156v8.535156c-31.179688-21.671875-57.734375-49.324219-78.125-81.351562-2.523438-3.980469-7.800781-5.160157-11.785156-2.636719-3.980469 2.527343-5.160156 7.804687-2.636719 11.785156 19.980469 31.300781 45.53125 58.664063 75.394531 80.734375h-8.449218c-4.710938 0-8.535157 3.820312-8.535157 8.535156zm0 0"/></svg>