<svg height="512pt" viewBox="0 0 512.00483 512" width="512pt" xmlns="http://www.w3.org/2000/svg"><path d="m105.816406 453.90625c-3.769531 2.824219-4.53125 8.175781-1.703125 11.945312 2.824219 3.769532 8.175781 4.535157 11.945313 1.707032 19.261718-14.445313 25.855468-40.363282 15.839844-62.257813-10.015626-21.894531-33.933594-33.855469-57.457032-28.730469-23.527344 5.125-40.304687 25.949219-40.304687 50.027344 0 4.714844 3.820312 8.535156 8.535156 8.535156 4.710937 0 8.53125-3.820312 8.53125-8.535156 0-16.050781 11.1875-29.933594 26.871094-33.351562 15.683593-3.414063 31.628906 4.558594 38.304687 19.152344 6.675782 14.597656 2.28125 31.875-10.5625 41.507812zm0 0"/><path d="m499.792969 427.390625-47.519531-63.367187v-355.558594c0-.058594 0-.121094 0-.179688 0-.230468-.078126-.453125-.105469-.683594-.058594-.703124-.210938-1.394531-.449219-2.054687-.113281-.292969-.242188-.578125-.386719-.855469-.28125-.566406-.625-1.101562-1.023437-1.59375-.183594-.238281-.386719-.46875-.597656-.683594-.558594-.546874-1.191407-1.011718-1.875-1.382812-.171876-.066406-.25-.1875-.386719-.246094h-.085938l-.109375-.101562c-.816406-.351563-1.679687-.578125-2.558594-.667969-.320312-.01953125-.640624-.01953125-.957031 0-.621093-.0039062-1.242187.0585938-1.851562.1875-.335938.082031-.664063.179687-.988281.292969-.570313.207031-1.117188.476562-1.632813.800781-.292969.160156-.578125.339844-.851563.539063-.113281.082031-.25.136718-.351562.230468l-405.632812 357.5625c-.101563.09375-.144532.222656-.246094.316406-25.632813 20.390626-37.316406 53.664063-30.0625 85.605469 1.128906 4.496094 5.640625 7.269531 10.164062 6.242188 4.519532-1.023438 7.394532-5.46875 6.476563-10.015625-6.730469-29.613282 6.941406-60.105469 33.527343-74.78125 26.582032-14.679688 59.671876-10.003906 81.148438 11.464844s26.164062 54.554687 11.492188 81.144531c-14.667969 26.589843-45.15625 40.269531-74.773438 33.550781-3-.753906-6.175781.179688-8.296875 2.433594-2.117187 2.257812-2.851563 5.484375-1.910156 8.433594.9375 2.949218 3.402343 5.160156 6.4375 5.773437 17.835937 4.058594 36.507812 2.265625 53.246093-5.117187.117188.984374.40625 1.9375.855469 2.824218 1.503907 2.742188 4.386719 4.441406 7.515625 4.425782h145.066406c3.640626 0 6.878907-2.308594 8.066407-5.75l154.066406-446.789063v304.640625l-47.519531 63.367188c-7.21875 2.125-12.1875 8.742187-12.210938 16.265624v51.199219c0 9.425781 7.640625 17.066407 17.066406 17.066407h102.398438c9.425781 0 17.066406-7.640626 17.066406-17.066407v-51.199219c-.019531-7.527343-4.988281-14.148437-12.210937-16.273437zm-414.453125-86.125c-2.246094 0-4.449219.160156-6.648438.332031l325.339844-286.761718-147.0625 230.527343-86.578125 135.679688c-2.925781-44.835938-40.121094-79.726563-85.050781-79.777344zm278.082031-131.515625-32.632813 22.960938-8.140624-18.59375 30.398437-47.640626zm-17.75 56.933594-7.890625-18.015625 18.617188-13.105469zm-33.097656 95.992187-16.574219-30.96875 34.707031-21.625zm-33.28125 96.519531-24.59375-34.746093 44.535156-23.109375zm32.316406-227.738281 4.941406 11.28125-22.035156 15.503907zm24.226563 55.324219-47.90625 29.863281-12.800782-23.890625 48.382813-34.050781zm-72.414063 20.214844 9.992187 18.679687-36.371093 22.664063zm-53.453125 83.761718 19.480469 27.527344-55.363281 28.792969zm11.816406-12.800781 59.734375-37.203125 21.179688 39.585938-57.957031 30.042968zm-78.214844 116.90625 12.175782-19.078125 83.628906-43.402344 33.039062 46.679688-5.425781 15.800781zm230.972657-311.917969-8.738281-36.445312 46.359374-72.703125zm69.195312 198.144532 34.132813 45.507812h-68.265625zm-51.199219 113.773437v-51.199219h102.398438v51.199219zm0 0"/><path d="m145.070312 153.53125c-4.710937 0-8.53125 3.820312-8.53125 8.535156v25.597656c.050782.414063.132813.820313.246094 1.222657.050782.617187.171875 1.226562.367188 1.816406.253906.570313.570312 1.105469.949218 1.605469.179688.371094.390626.726562.628907 1.066406.050781.050781.121093.066406.171875.125.667968.671875 1.4375 1.226562 2.285156 1.648438.1875.09375.324219.265624.523438.351562 1.058593.457031 2.203124.695312 3.359374.699219h25.601563c4.710937 0 8.53125-3.820313 8.53125-8.535157 0-4.710937-3.820313-8.53125-8.53125-8.53125h-3.363281l68.804687-61.929687c2.335938-2.019531 3.398438-5.144531 2.773438-8.171875-.621094-3.023438-2.828125-5.476562-5.773438-6.414062-2.945312-.933594-6.164062-.203126-8.417969 1.90625l-71.089843 63.984374v-6.441406c0-4.714844-3.820313-8.535156-8.535157-8.535156zm0 0"/><path d="m.00390625 477.796875c0 4.714844 3.82031275 8.535156 8.53515575 8.535156h40.652344c9.703125.035157 18.582032-5.453125 22.894532-14.148437l20.933593-41.769532c2.105469-4.21875.394531-9.347656-3.824219-11.453124-4.21875-2.105469-9.34375-.394532-11.453124 3.824218l-20.921876 41.761719c-1.4375 2.898437-4.394531 4.726563-7.628906 4.71875h-40.652344c-4.714843 0-8.53515575 3.820313-8.53515575 8.53125zm0 0"/></svg>