<svg height="512pt" viewBox="0 0 512.00856 512" width="512pt" xmlns="http://www.w3.org/2000/svg"><path d="m328.59375 286.261719c-.078125-.085938-.101562-.195313-.1875-.273438s-.1875-.109375-.273438-.1875c-39.878906-39.742187-104.386718-39.742187-144.265624 0-.085938.078125-.195313.101563-.273438.1875-.074219.085938-.109375.1875-.1875.273438-39.738281 39.878906-39.738281 104.386719 0 144.265625.078125.082031.101562.195312.1875.273437.085938.074219.1875.109375.273438.1875 39.878906 39.738281 104.386718 39.738281 144.265624 0 .085938-.078125.195313-.105469.273438-.1875.074219-.085937.109375-.191406.1875-.273437 39.738281-39.878906 39.738281-104.386719 0-144.265625zm-6.5625 126.097656-36.695312-36.695313c1.605468-2.726562 2.8125-5.667968 3.585937-8.738281h51.976563c-1.664063 16.675781-8.230469 32.484375-18.867188 45.433594zm-150.929688-45.433594h51.976563c.792969 3.054688 2.011719 5.984375 3.625 8.695313l-36.691406 36.738281c-10.652344-12.945313-17.230469-28.753906-18.910157-45.433594zm18.867188-62.496093 36.734375 36.734374c-1.613281 2.714844-2.832031 5.640626-3.625 8.695313h-51.976563c1.664063-16.671875 8.230469-32.480469 18.867188-45.429687zm66.03125 71.03125c-9.425781 0-17.066406-7.640626-17.066406-17.066407s7.640625-17.066406 17.066406-17.066406 17.066406 7.640625 17.066406 17.066406-7.640625 17.066407-17.066406 17.066407zm17.230469-46.363282c-2.714844-1.613281-5.640625-2.832031-8.695313-3.625v-51.976562c16.671875 1.664062 32.480469 8.230468 45.429688 18.867187zm-25.765625-3.625c-3.054688.792969-5.980469 2.011719-8.695313 3.625l-36.734375-36.691406c12.945313-10.652344 28.753906-17.234375 45.429688-18.910156zm-8.695313 62.214844c2.714844 1.613281 5.640625 2.835938 8.695313 3.628906v51.976563c-16.671875-1.667969-32.480469-8.230469-45.429688-18.867188zm25.765625 3.628906c3.054688-.792968 5.980469-2.015625 8.695313-3.628906l36.734375 36.738281c-12.949219 10.636719-28.757813 17.199219-45.429688 18.867188zm24.386719-41.457031c-.792969-3.054687-2.011719-5.980469-3.625-8.695313l36.734375-36.691406c10.628906 12.9375 17.191406 28.726563 18.867188 45.386719zm0 0"/><path d="m51.199219 383.992188c-8.21875.175781-16.347657 1.765624-24.027344 4.703124-5.945313 2.351563-12.25 3.648438-18.636719 3.832032-4.714844 0-8.535156 3.820312-8.535156 8.53125 0 4.714844 3.820312 8.535156 8.535156 8.535156 8.21875-.175781 16.347656-1.765625 24.027344-4.703125 5.941406-2.351563 12.25-3.648437 18.636719-3.832031 4.714843 0 8.535156-3.820313 8.535156-8.53125 0-4.714844-3.820313-8.535156-8.535156-8.535156zm0 0"/><path d="m85.332031 426.660156c-8.21875.175782-16.347656 1.765625-24.027343 4.703125-5.941407 2.351563-12.25 3.648438-18.636719 3.832031-4.714844 0-8.535157 3.820313-8.535157 8.53125 0 4.714844 3.820313 8.535157 8.535157 8.535157 8.21875-.175781 16.347656-1.765625 24.027343-4.703125 5.945313-2.351563 12.25-3.648438 18.636719-3.832032 4.714844 0 8.535157-3.820312 8.535157-8.53125 0-4.714843-3.820313-8.535156-8.535157-8.535156zm0 0"/><path d="m136.535156 460.792969c-8.222656.175781-16.351562 1.765625-24.03125 4.703125-5.941406 2.351562-12.25 3.648437-18.636718 3.832031-4.714844 0-8.535157 3.820313-8.535157 8.53125 0 4.714844 3.820313 8.535156 8.535157 8.535156 8.21875-.175781 16.347656-1.765625 24.03125-4.703125 5.941406-2.351562 12.246093-3.648437 18.636718-3.832031 4.710938 0 8.53125-3.820313 8.53125-8.53125 0-4.714844-3.820312-8.535156-8.53125-8.535156zm0 0"/><path d="m8.535156 511.992188c8.21875-.171876 16.347656-1.761719 24.027344-4.699219 5.941406-2.351563 12.25-3.648438 18.636719-3.832031 4.714843 0 8.535156-3.820313 8.535156-8.535157 0-4.710937-3.820313-8.53125-8.535156-8.53125-8.21875.171875-16.347657 1.765625-24.027344 4.699219-5.945313 2.351562-12.25 3.648438-18.636719 3.832031-4.714844 0-8.535156 3.820313-8.535156 8.535157 0 4.710937 3.820312 8.53125 8.535156 8.53125zm0 0"/><path d="m503.464844 383.992188c-8.21875.175781-16.347656 1.765624-24.027344 4.703124-5.941406 2.351563-12.25 3.648438-18.636719 3.832032-4.714843 0-8.535156 3.820312-8.535156 8.53125 0 4.714844 3.820313 8.535156 8.535156 8.535156 8.21875-.175781 16.347657-1.765625 24.027344-4.703125 5.945313-2.351563 12.25-3.648437 18.636719-3.832031 4.714844 0 8.535156-3.820313 8.535156-8.53125 0-4.714844-3.820312-8.535156-8.535156-8.535156zm0 0"/><path d="m442.164062 447.558594c5.941407-2.351563 12.246094-3.648438 18.636719-3.832032 4.710938 0 8.53125-3.820312 8.53125-8.53125 0-4.714843-3.820312-8.535156-8.53125-8.535156-8.222656.175782-16.351562 1.765625-24.03125 4.703125-5.941406 2.351563-12.25 3.648438-18.636719 3.832031-4.710937 0-8.53125 3.820313-8.53125 8.53125 0 4.714844 3.820313 8.535157 8.53125 8.535157 8.222657-.175781 16.351563-1.765625 24.03125-4.703125zm0 0"/><path d="m503.464844 460.792969c-8.21875.175781-16.347656 1.765625-24.027344 4.703125-5.941406 2.351562-12.25 3.648437-18.636719 3.832031-4.714843 0-8.535156 3.820313-8.535156 8.53125 0 4.714844 3.820313 8.535156 8.535156 8.535156 8.21875-.175781 16.347657-1.765625 24.027344-4.703125 5.945313-2.351562 12.25-3.648437 18.636719-3.832031 4.714844 0 8.535156-3.820313 8.535156-8.53125 0-4.714844-3.820312-8.535156-8.535156-8.535156zm0 0"/><path d="m382.429688 507.292969c5.941406-2.351563 12.25-3.648438 18.636718-3.832031 4.714844 0 8.535156-3.820313 8.535156-8.535157 0-4.710937-3.820312-8.53125-8.535156-8.53125-8.21875.171875-16.347656 1.765625-24.03125 4.699219-5.941406 2.351562-12.246094 3.648438-18.636718 3.832031-4.710938 0-8.53125 3.820313-8.53125 8.535157 0 4.710937 3.820312 8.53125 8.53125 8.53125 8.222656-.171876 16.351562-1.761719 24.03125-4.699219zm0 0"/><path d="m501.761719 104.492188-235.683594-102.433594c-6.441406-2.738282-13.714844-2.738282-20.15625 0l-235.683594 102.441406c-6.222656 2.71875-10.2460935 8.867188-10.238281 15.660156v18.609375c.00390625 5.738281 2.886719 11.085938 7.675781 14.242188 4.789063 3.15625 10.84375 3.695312 16.113281 1.433593l1.8125-.757812v196.171875h-17.066406c-4.714844 0-8.535156 3.820313-8.535156 8.535156 0 4.710938 3.820312 8.53125 8.535156 8.53125h111.367188c1.109375 18.136719 5.855468 35.867188 13.960937 52.132813l-7.765625 4.480468c-2.664062 1.511719-4.308594 4.335938-4.316406 7.398438s1.628906 5.890625 4.285156 7.417969c2.652344 1.523437 5.921875 1.511719 8.5625-.039063l7.679688-4.4375c10.089844 15.121094 23.066406 28.101563 38.1875 38.1875l-4.4375 7.679688c-1.546875 2.640625-1.5625 5.910156-.035156 8.566406 1.523437 2.65625 4.355468 4.289062 7.417968 4.28125 3.0625-.003906 5.882813-1.652344 7.398438-4.3125l4.480468-7.765625c16.265626 8.109375 34.003907 12.863281 52.144532 13.976563v8.96875c0 4.710937 3.824218 8.53125 8.535156 8.53125s8.535156-3.820313 8.535156-8.53125v-8.96875c18.136719-1.109376 35.863282-5.859376 52.128906-13.960938l4.480469 7.765625c2.371094 4.046875 7.566407 5.417969 11.628907 3.074219s5.46875-7.53125 3.148437-11.609375l-4.4375-7.679688c15.125-10.085937 28.101563-23.0625 38.1875-38.183593l7.679687 4.433593c2.644532 1.550781 5.910157 1.566407 8.566407.039063 2.65625-1.523438 4.289062-4.355469 4.285156-7.417969-.007813-3.0625-1.65625-5.886719-4.316406-7.398437l-7.765625-4.480469c8.109375-16.269531 12.863281-34.003907 13.976562-52.148438h111.367188c4.714844 0 8.535156-3.820312 8.535156-8.53125 0-4.714843-3.820312-8.535156-8.535156-8.535156h-17.066406v-196.171875l1.8125.777344c2.125.910156 4.417968 1.378906 6.730468 1.382812 9.425782 0 17.066406-7.640625 17.066406-17.066406v-18.621094c.007813-6.796875-4.015624-12.953125-10.246093-15.667968zm-245.761719 373.367187c-65.980469 0-119.464844-53.484375-119.464844-119.464844s53.484375-119.46875 119.464844-119.46875 119.464844 53.488281 119.464844 119.46875c-.070313 65.949219-53.515625 119.394531-119.464844 119.464844zm213.332031-179.199219h-59.730469c-4.714843 0-8.535156 3.820313-8.535156 8.535156 0 4.710938 3.820313 8.53125 8.535156 8.53125h59.730469v34.132813h-77.234375c-1.109375-18.136719-5.855468-35.863281-13.960937-52.128906l7.765625-4.480469c4.046875-2.371094 5.421875-7.566406 3.074218-11.628906-2.34375-4.0625-7.527343-5.46875-11.605468-3.152344l-7.679688 4.4375c-10.089844-15.121094-23.066406-28.097656-38.1875-38.183594l4.4375-7.679687c1.546875-2.644531 1.5625-5.914063.035156-8.566407-1.523437-2.65625-4.355468-4.292968-7.417968-4.285156-3.0625.007813-5.882813 1.65625-7.398438 4.316406l-4.480468 7.765626c-16.265626-8.113282-34.003907-12.867188-52.144532-13.976563v-8.96875c0-4.714844-3.824218-8.535156-8.535156-8.535156s-8.535156 3.820312-8.535156 8.535156v8.96875c-18.136719 1.109375-35.863282 5.855469-52.128906 13.960937l-4.480469-7.765624c-2.371094-4.046876-7.566407-5.421876-11.628907-3.074219-4.0625 2.34375-5.46875 7.527343-3.148437 11.605469l4.4375 7.679687c-15.125 10.089844-28.101563 23.066406-38.1875 38.1875l-7.679687-4.4375c-4.078126-2.316406-9.261719-.910156-11.609376 3.152344-2.34375 4.0625-.972656 9.253906 3.074219 11.628906l7.765625 4.480469c-8.109375 16.265625-12.863281 34-13.976562 52.144531h-77.234375v-34.132813h59.730469c4.714843 0 8.535156-3.820312 8.535156-8.53125 0-4.714843-3.820313-8.535156-8.535156-8.535156h-59.730469v-152.292968l213.332031-91.496094 213.332031 91.496094zm-209.96875-260.914062c-2.148437-.921875-4.578125-.921875-6.726562 0l-235.570313 101.023437v-18.625l235.589844-102.402343c2.128906-.902344 4.535156-.902344 6.664062 0l235.613282 102.417968v18.621094zm0 0"/><path d="m145.066406 221.859375h-8.53125v-29.867187c0-16.492188-13.375-29.863282-29.867187-29.863282-16.496094 0-29.867188 13.371094-29.867188 29.863282v31.4375c-11.746093 4.136718-18.796875 16.144531-16.6875 28.417968 2.109375 12.273438 12.765625 21.234375 25.21875 21.210938h25.601563c4.710937 0 8.53125-3.820313 8.53125-8.53125 0-4.714844-3.820313-8.535156-8.53125-8.535156h-25.601563c-4.710937 0-8.53125-3.820313-8.53125-8.53125 0-4.714844 3.820313-8.535157 8.53125-8.535157h59.734375c4.714844 0 8.535156-3.820312 8.535156-8.53125 0-4.714843-3.820312-8.535156-8.535156-8.535156zm-51.199218 0v-29.867187c0-7.066407 5.730468-12.796876 12.800781-12.796876 7.066406 0 12.796875 5.730469 12.796875 12.796876v29.867187zm0 0"/><path d="m366.933594 238.925781h59.734375c4.710937 0 8.53125 3.820313 8.53125 8.535157 0 4.710937-3.820313 8.53125-8.53125 8.53125h-25.601563c-4.710937 0-8.53125 3.820312-8.53125 8.535156 0 4.710937 3.820313 8.53125 8.53125 8.53125h25.601563c12.453125.023437 23.109375-8.9375 25.21875-21.210938 2.109375-12.273437-4.941407-24.28125-16.6875-28.417968v-31.4375c0-16.492188-13.371094-29.863282-29.867188-29.863282-16.492187 0-29.867187 13.371094-29.867187 29.863282v29.867187h-8.53125c-4.714844 0-8.535156 3.820313-8.535156 8.535156 0 4.710938 3.820312 8.53125 8.535156 8.53125zm25.601562-46.933593c0-7.066407 5.730469-12.796876 12.796875-12.796876 7.070313 0 12.800781 5.730469 12.800781 12.796876v29.867187h-25.597656zm0 0"/><path d="m204.800781 136.527344c0 28.277344 22.921875 51.199218 51.199219 51.199218s51.199219-22.921874 51.199219-51.199218-22.921875-51.199219-51.199219-51.199219c-28.265625.027344-51.171875 22.933594-51.199219 51.199219zm42.664063-32.921875v24.386719h-24.386719c3.121094-11.9375 12.449219-21.265626 24.386719-24.386719zm-24.386719 41.453125h24.386719v24.390625c-11.9375-3.121094-21.265625-12.449219-24.386719-24.390625zm41.457031 24.390625v-24.390625h24.386719c-3.121094 11.941406-12.449219 21.269531-24.386719 24.390625zm24.386719-41.457031h-24.386719v-24.386719c11.9375 3.121093 21.265625 12.449219 24.386719 24.386719zm0 0"/></svg>