<svg height="512pt" viewBox="0 0 512 512" width="512pt" xmlns="http://www.w3.org/2000/svg"><path d="m407.894531 393.019531c-2.136719-.753906-4.480469-.628906-6.523437.347657-2.042969.976562-3.613282 2.722656-4.367188 4.859374-11.585937 32.628907-30.652344 62.089844-55.671875 86.023438v-14.917969c0-4.710937-3.820312-8.53125-8.53125-8.53125-4.714843 0-8.535156 3.820313-8.535156 8.53125v34.132813c.050781.421875.136719.839844.257813 1.246094.046874.425781.128906.84375.246093 1.257812.296875.925781.753907 1.792969 1.355469 2.558594l.054688.09375c1.558593 2.097656 4.007812 3.347656 6.621093 3.378906h42.664063c4.714844 0 8.535156-3.820312 8.535156-8.535156 0-4.710938-3.820312-8.53125-8.535156-8.53125h-20.691406c26.136718-25.484375 46.078124-56.625 58.292968-91.023438 1.570313-4.4375-.742187-9.308594-5.171875-10.890625zm0 0"/><path d="m503.464844 179.199219h-9.121094c-.757812-6.164063-2.363281-12.191407-4.761719-17.917969l7.859375-4.53125c4.046875-2.375 5.421875-7.566406 3.074219-11.628906-2.34375-4.0625-7.527344-5.46875-11.605469-3.152344l-7.9375 4.589844c-3.757812-4.933594-8.164062-9.339844-13.097656-13.097656l4.582031-7.945313c1.546875-2.640625 1.5625-5.910156.039063-8.566406-1.527344-2.652344-4.359375-4.289063-7.417969-4.28125-3.0625.007812-5.886719 1.652343-7.402344 4.316406l-4.539062 7.851563c-5.730469-2.394532-11.757813-3.996094-17.917969-4.753907v-9.148437c0-4.714844-3.820312-8.535156-8.535156-8.535156-4.710938 0-8.53125 3.820312-8.53125 8.535156v9.121094c-6.164063.761718-12.191406 2.359374-17.921875 4.753906l-4.539063-7.851563c-1.515625-2.660156-4.339844-4.308593-7.398437-4.316406-3.0625-.003906-5.894531 1.628906-7.421875 4.285156-1.523438 2.65625-1.507813 5.921875.039062 8.566407l4.582032 7.945312c-4.933594 3.753906-9.339844 8.160156-13.097657 13.097656l-7.9375-4.589844c-2.640625-1.550781-5.910156-1.566406-8.5625-.039062-2.65625 1.523438-4.292969 4.355469-4.285156 7.417969s1.652344 5.886719 4.316406 7.398437l7.859375 4.53125c-2.398437 5.726563-4.003906 11.757813-4.761718 17.921875h-9.15625c-4.714844 0-8.535157 3.820313-8.535157 8.53125 0 4.714844 3.820313 8.535157 8.535157 8.535157h9.121093c2.308594 18.1875 11.84375 34.683593 26.453125 45.761718l-4.582031 7.945313c-1.546875 2.640625-1.5625 5.910156-.039063 8.566406 1.527344 2.65625 4.359376 4.289063 7.417969 4.285156 3.0625-.007812 5.886719-1.65625 7.402344-4.316406l4.539063-7.851563c5.726562 2.394532 11.757812 3.992188 17.917968 4.753907v9.148437c0 4.710938 3.820313 8.53125 8.535156 8.53125 4.710938 0 8.53125-3.820312 8.53125-8.53125v-9.125c6.164063-.757812 12.191407-2.359375 17.921876-4.753906l4.539062 7.851562c1.515625 2.664063 4.335938 4.308594 7.398438 4.316407 3.0625.007812 5.894531-1.628907 7.417968-4.28125 1.527344-2.65625 1.511719-5.925781-.035156-8.566407l-4.582031-7.945312c4.933593-3.757812 9.339843-8.164062 13.097656-13.097656l7.9375 4.589844c4.074219 2.316406 9.261719.910156 11.605469-3.152344 2.347656-4.0625.972656-9.253906-3.074219-11.628906l-7.859375-4.53125c2.398438-5.726563 4-11.753907 4.761719-17.917969h9.171875c4.714844 0 8.535156-3.820313 8.535156-8.535157 0-4.710937-3.820312-8.53125-8.535156-8.53125zm-128 8.535156c0-28.277344 22.925781-51.199219 51.203125-51.199219 28.277343 0 51.199219 22.921875 51.199219 51.199219s-22.921876 51.199219-51.199219 51.199219c-28.265625-.027344-51.171875-22.933594-51.203125-51.199219zm0 0"/><path d="m8.535156 332.800781h8.964844c1.15625 24.128907 7.464844 47.730469 18.492188 69.222657l-7.679688 4.453124c-2.660156 1.515626-4.308594 4.335938-4.316406 7.398438-.003906 3.0625 1.628906 5.894531 4.285156 7.417969 2.65625 1.527343 5.925781 1.511719 8.566406-.035157l7.730469-4.464843c13.140625 20.265625 30.40625 37.53125 50.671875 50.671875l-4.464844 7.730468c-1.546875 2.640626-1.5625 5.910157-.035156 8.566407 1.523438 2.65625 4.355469 4.289062 7.417969 4.28125 3.0625-.003907 5.882812-1.652344 7.398437-4.3125l4.453125-7.722657c21.480469 11.023438 45.066407 17.328126 69.179688 18.492188v8.964844c0 4.714844 3.820312 8.535156 8.535156 8.535156 4.710937 0 8.53125-3.820312 8.53125-8.535156v-8.964844c24.128906-1.15625 47.730469-7.464844 69.222656-18.492188l4.457031 7.722657c2.371094 4.046875 7.5625 5.417969 11.625 3.074219 4.0625-2.347657 5.472657-7.53125 3.152344-11.609376l-4.460937-7.730468c20.261719-13.140625 37.53125-30.40625 50.667969-50.671875l7.734374 4.464843c2.640626 1.546876 5.910157 1.5625 8.5625.035157 2.65625-1.523438 4.292969-4.355469 4.285157-7.417969-.007813-3.0625-1.652344-5.882812-4.316407-7.398438l-7.722656-4.453124c11.03125-21.492188 17.335938-45.09375 18.492188-69.222657h8.96875c4.710937 0 8.53125-3.820312 8.53125-8.535156 0-4.710937-3.820313-8.53125-8.53125-8.53125h-8.96875c-1.15625-24.128906-7.460938-47.730469-18.492188-69.222656l7.722656-4.457031c4.046876-2.371094 5.421876-7.5625 3.074219-11.625-2.34375-4.0625-7.53125-5.472657-11.605469-3.152344l-7.734374 4.460937c-13.136719-20.261719-30.40625-37.53125-50.667969-50.667969l4.460937-7.734374c1.550782-2.640626 1.5625-5.910157.039063-8.5625-1.527344-2.65625-4.355469-4.292969-7.417969-4.285157-3.0625.007813-5.886719 1.652344-7.398438 4.316407l-4.457031 7.722656c-21.492187-11.03125-45.09375-17.335938-69.222656-18.492188v-8.96875c0-4.710937-3.820313-8.53125-8.53125-8.53125-4.714844 0-8.535156 3.820313-8.535156 8.53125v8.96875c-24.128907 1.15625-47.730469 7.460938-69.222657 18.492188l-4.453124-7.722656c-1.515626-2.664063-4.335938-4.308594-7.398438-4.316407-3.0625-.007812-5.894531 1.628907-7.417969 4.285157-1.527343 2.652343-1.511719 5.921874.035157 8.5625l4.464843 7.734374c-20.265625 13.136719-37.53125 30.40625-50.671875 50.667969l-7.730468-4.460937c-4.078126-2.320313-9.261719-.910156-11.609376 3.152344-2.34375 4.0625-.972656 9.253906 3.074219 11.625l7.679688 4.457031c-11.015625 21.492187-17.304688 45.097656-18.449219 69.222656h-8.964844c-4.714844 0-8.535156 3.820313-8.535156 8.53125 0 4.714844 3.820312 8.535156 8.535156 8.535156zm179.199219-162.132812c84.828125 0 153.597656 68.769531 153.597656 153.597656 0 84.832031-68.769531 153.601563-153.597656 153.601563-84.832031 0-153.601563-68.769532-153.601563-153.601563.097657-84.789063 68.808594-153.5 153.601563-153.597656zm0 0"/><path d="m53.65625 350.207031c0 .171875.121094.324219.164062.496094 5.222657 26.410156 18.148438 50.683594 37.144532 69.761719.09375.109375.128906.246094.230468.339844.101563.09375.230469.136718.339844.230468 19.070313 18.996094 43.339844 31.921875 69.746094 37.144532.15625.0625.316406.113281.476562.152343 2.671876.523438 5.402344.8125 8.117188 1.164063 1.441406.195312 2.847656.476562 4.265625.621094 4.488281.433593 9 .683593 13.523437.683593 4.523438 0 9.039063-.25 13.527344-.683593 1.449219-.144532 2.859375-.425782 4.265625-.621094 2.714844-.351563 5.445313-.640625 8.117188-1.164063.160156-.039062.320312-.089843.476562-.152343 26.417969-5.214844 50.699219-18.140626 69.777344-37.144532.109375-.09375.246094-.128906.339844-.230468.09375-.101563.136719-.230469.230469-.339844 19.035156-19.058594 31.996093-43.328125 37.25-69.746094.042968-.167969.125-.324219.160156-.492188.53125-2.773437.855468-5.597656 1.203125-8.414062.171875-1.339844.4375-2.648438.574219-3.996094.433593-4.503906.679687-9.027344.679687-13.550781s-.246094-9.042969-.679687-13.542969c-.136719-1.355468-.402344-2.667968-.582032-4.019531-.359375-2.796875-.664062-5.613281-1.195312-8.378906 0-.167969-.117188-.324219-.160156-.492188-5.222657-26.414062-18.148438-50.6875-37.148438-69.761719-.09375-.109374-.125-.246093-.230469-.339843-.101562-.09375-.230469-.136719-.339843-.230469-19.070313-19-43.335938-31.925781-69.742188-37.148438-.15625-.058593-.316406-.109374-.480469-.152343-2.558593-.496094-5.117187-.757813-7.730469-1.109375-1.585937-.214844-3.148437-.519532-4.753906-.675782-3.359375-.324218-6.746094-.433593-10.128906-.511718-1.117188 0-2.207031-.167969-3.328125-.167969-1.117187 0-2.207031.144531-3.324219.167969-3.414062.078125-6.769531.1875-10.132812.511718-1.601563.15625-3.164063.460938-4.75.675782-2.5625.351562-5.179688.613281-7.734375 1.109375-.160157.042969-.320313.09375-.476563.152343-26.417968 5.21875-50.699218 18.144532-69.777344 37.148438-.109374.09375-.246093.125-.339843.230469-.09375.101562-.136719.230469-.230469.339843-19.007812 19.066407-31.945312 43.335938-37.179688 69.742188-.042968.171875-.128906.324219-.164062.496094-.527344 2.773437-.851562 5.597656-1.203125 8.414062-.167969 1.339844-.433594 2.644532-.570313 3.992188-.433593 4.507812-.683593 9.027344-.683593 13.550781s.25 9.046875.683593 13.542969c.136719 1.355468.402344 2.671875.582032 4.019531.355468 2.800781.664062 5.613281 1.191406 8.378906zm43.898438-104.054687 60.882812 60.886718-.074219.160157c-21.191406-.128907-62.984375-1.125-86.4375-11.714844 4.53125-18.238281 13.3125-35.140625 25.628907-49.332031zm61.371093-37.691406c10.582031 23.457031 11.578125 65.246093 11.707031 86.433593l-.128906.078125-60.882812-60.886718c14.179687-12.3125 31.078125-21.09375 49.304687-25.625zm27.5-3.59375h2.613281c3.457032 0 6.894532.1875 10.238282.523437-8.933594 22.882813-11.089844 55.585937-11.484375 84.742187h-.1875c-.410157-29.15625-2.558594-61.859374-11.484375-84.742187 3.410156-.335937 6.851562-.488281 10.304687-.523437zm79.421875 29.21875-60.886718 60.886718-.160157-.078125c.128907-21.1875 1.125-62.976562 11.707031-86.433593 18.238282 4.527343 35.148438 13.308593 49.339844 25.625zm37.691406 61.371093c-23.449218 10.582031-65.246093 11.582031-86.433593 11.707031l-.078125-.125 60.886718-60.886718c12.3125 14.183594 21.09375 31.078125 25.625 49.304687zm-25.601562 106.921875-60.882812-60.882812.050781-.164063c21.1875.128907 62.984375 1.128907 86.433593 11.71875-4.527343 18.234375-13.308593 35.140625-25.625 49.328125zm-61.371094 37.695313c-10.582031-23.460938-11.578125-65.246094-11.707031-86.4375l.128906-.074219 60.886719 60.882812c-14.191406 12.316407-31.097656 21.097657-49.332031 25.628907zm-27.5 3.589843c-.871094 0-1.742187 0-2.613281 0-3.457031 0-6.894531-.1875-10.238281-.519531 8.933594-22.886719 11.09375-55.585937 11.484375-84.746093h.1875c.410156 29.160156 2.558593 61.859374 11.484375 84.746093-3.4375.332031-6.875.488281-10.332032.519531zm-79.421875-29.21875 60.886719-60.882812.125.074219c-.125 21.191406-1.125 62.976562-11.707031 86.4375-18.234375-4.53125-35.140625-13.3125-49.328125-25.628907zm94.636719-94.179687c.058594.246094.144531.492187.1875.742187.441406 2.148438.441406 4.367188 0 6.519532 0 .246094-.128906.492187-.1875.742187-1.917969 7.574219-8.734375 12.882813-16.546875 12.882813-7.816406 0-14.632813-5.308594-16.546875-12.882813-.058594-.25-.144531-.496093-.1875-.742187-.445312-2.152344-.445312-4.371094 0-6.519532 0-.25.128906-.496093.1875-.742187 1.914062-7.578125 8.730469-12.886719 16.546875-12.886719 7.8125 0 14.628906 5.308594 16.546875 12.886719zm102.328125 15.582031c-22.875-8.9375-55.585937-11.09375-84.742187-11.488281v-.1875c29.15625-.410156 61.867187-2.558594 84.742187-11.484375.367187 3.8125.589844 7.679688.589844 11.578125 0 3.902344-.222657 7.765625-.589844 11.582031zm-237.753906-23.160156c22.878906 8.933594 55.585937 11.09375 84.746093 11.484375v.1875c-29.160156.410156-61.867187 2.5625-84.746093 11.488281-.367188-3.816406-.589844-7.671875-.589844-11.582031 0-3.90625.222656-7.765625.589844-11.578125zm89.507812 28.644531.074219.128907-60.882812 60.886718c-12.304688-14.1875-21.078126-31.082031-25.601563-49.304687 23.425781-10.550781 65.21875-11.546875 86.410156-11.710938zm0 0"/><path d="m426.667969 221.867188c18.851562 0 34.132812-15.28125 34.132812-34.132813s-15.28125-34.132813-34.132812-34.132813c-18.851563 0-34.132813 15.28125-34.132813 34.132813s15.28125 34.132813 34.132813 34.132813zm0-51.199219c9.425781 0 17.066406 7.640625 17.066406 17.066406s-7.640625 17.066406-17.066406 17.066406-17.066407-7.640625-17.066407-17.066406 7.640626-17.066406 17.066407-17.066406zm0 0"/><path d="m298.667969 102.398438c14.136719 0 25.597656-11.460938 25.597656-25.597657 0-14.140625-11.460937-25.601562-25.597656-25.601562-14.140625 0-25.601563 11.460937-25.601563 25.601562 0 14.136719 11.460938 25.597657 25.601563 25.597657zm0-34.132813c4.710937 0 8.53125 3.820313 8.53125 8.535156 0 4.710938-3.820313 8.53125-8.53125 8.53125-4.714844 0-8.535157-3.820312-8.535157-8.53125 0-4.714843 3.820313-8.535156 8.535157-8.535156zm0 0"/><path d="m230.398438 68.265625c-4.710938 0-8.53125 3.820313-8.53125 8.535156 0 4.710938 3.820312 8.53125 8.53125 8.53125h9.21875c.660156 4.679688 1.875 9.265625 3.625 13.65625l-7.960938 4.589844c-2.664062 1.511719-4.308594 4.335937-4.316406 7.398437-.007813 3.0625 1.628906 5.894532 4.285156 7.417969 2.652344 1.527344 5.921875 1.511719 8.5625-.039062l7.980469-4.605469c2.921875 3.691406 6.261719 7.03125 9.957031 9.949219l-4.605469 7.988281c-1.550781 2.640625-1.5625 5.910156-.039062 8.566406 1.523437 2.652344 4.355469 4.289063 7.417969 4.28125 3.0625-.007812 5.886718-1.652344 7.398437-4.316406l4.601563-7.960938c4.375 1.734376 8.945312 2.941407 13.609374 3.59375v9.214844c0 4.714844 3.820313 8.535156 8.535157 8.535156 4.710937 0 8.53125-3.820312 8.53125-8.535156v-9.214844c4.679687-.644531 9.261719-1.847656 13.652343-3.585937l4.601563 7.960937c2.371094 4.046876 7.566406 5.421876 11.628906 3.074219 4.0625-2.34375 5.46875-7.527343 3.152344-11.605469l-4.609375-7.988281c3.695312-2.917969 7.039062-6.253906 9.957031-9.949219l7.980469 4.609376c4.078125 2.316406 9.261719.910156 11.605469-3.152344 2.347656-4.0625.972656-9.257813-3.074219-11.628906l-7.960938-4.597657c1.734376-4.394531 2.9375-8.976562 3.585938-13.65625h9.214844c4.710937 0 8.53125-3.820312 8.53125-8.53125 0-4.714843-3.820313-8.535156-8.53125-8.535156h-9.214844c-.648438-4.675781-1.851562-9.261719-3.585938-13.652344l7.960938-4.589843c4.046875-2.375 5.421875-7.566407 3.074219-11.628907-2.34375-4.0625-7.527344-5.46875-11.605469-3.152343l-7.980469 4.609374c-2.917969-3.695312-6.261719-7.035156-9.957031-9.949218l4.609375-7.988282c2.316406-4.078124.910156-9.261718-3.152344-11.609374-4.0625-2.34375-9.257812-.972657-11.628906 3.074218l-4.601563 7.964844c-4.390624-1.742188-8.972656-2.949219-13.652343-3.59375v-9.214844c0-4.714844-3.820313-8.535156-8.53125-8.535156-4.714844 0-8.535157 3.820312-8.535157 8.535156v9.214844c-4.664062.660156-9.234374 1.878906-13.609374 3.625l-4.601563-7.960938c-2.371094-4.046874-7.566406-5.417968-11.628906-3.074218-4.058594 2.34375-5.46875 7.53125-3.148438 11.609375l4.605469 7.984375c-3.695312 2.917968-7.035156 6.257812-9.957031 9.953125l-7.980469-4.609375c-4.074219-2.320313-9.261719-.910156-11.605469 3.152344-2.347656 4.0625-.972656 9.253906 3.074219 11.625l7.960938 4.59375c-1.746094 4.378906-2.964844 8.949218-3.625 13.617187zm68.269531-34.132813c23.5625 0 42.664062 19.101563 42.664062 42.667969 0 23.5625-19.101562 42.664063-42.664062 42.664063-23.566407 0-42.667969-19.101563-42.667969-42.664063.027344-23.554687 19.113281-42.640625 42.667969-42.667969zm0 0"/><path d="m503.464844 349.867188h-9.742188c-.792968-3.054688-2.015625-5.984376-3.628906-8.695313l6.90625-6.914063c3.230469-3.347656 3.1875-8.667968-.105469-11.960937s-8.613281-3.335937-11.960937-.105469l-6.90625 6.914063c-2.710938-1.613281-5.640625-2.835938-8.695313-3.628907v-9.742187c0-4.714844-3.820312-8.535156-8.53125-8.535156-4.714843 0-8.535156 3.820312-8.535156 8.535156v9.742187c-3.054687.792969-5.980469 2.015626-8.695313 3.628907l-6.902343-6.914063c-3.347657-3.230468-8.671875-3.1875-11.960938.105469-3.292969 3.292969-3.339843 8.613281-.105469 11.960937l6.902344 6.914063c-1.613281 2.710937-2.832031 5.640625-3.625 8.695313h-9.746094c-4.710937 0-8.53125 3.820312-8.53125 8.53125 0 4.714843 3.820313 8.535156 8.53125 8.535156h9.746094c.792969 3.054687 2.011719 5.984375 3.625 8.695312l-6.902344 6.910156c-2.21875 2.144532-3.109374 5.316407-2.328124 8.300782s3.113281 5.3125 6.09375 6.09375c2.984374.78125 6.15625-.109375 8.300781-2.328125l6.902343-6.910157c2.714844 1.613282 5.640626 2.835938 8.695313 3.625v9.746094c0 4.714844 3.820313 8.535156 8.535156 8.535156 4.710938 0 8.53125-3.820312 8.53125-8.535156v-9.746094c3.054688-.789062 5.984375-2.011718 8.695313-3.625l6.90625 6.910157c3.347656 3.234375 8.667968 3.1875 11.960937-.101563 3.292969-3.292968 3.335938-8.613281.105469-11.964844l-6.90625-6.910156c1.613281-2.710937 2.835938-5.640625 3.628906-8.695312h9.742188c4.714844 0 8.535156-3.820313 8.535156-8.535156 0-4.710938-3.820312-8.53125-8.535156-8.53125zm-42.664063 25.597656c-9.425781 0-17.066406-7.640625-17.066406-17.066406 0-9.425782 7.640625-17.066407 17.066406-17.066407s17.066407 7.640625 17.066407 17.066407c0 9.425781-7.640626 17.066406-17.066407 17.066406zm0 0"/><path d="m51.199219 136.535156c-4.710938 0-8.53125 3.820313-8.53125 8.53125 0 4.714844 3.820312 8.535156 8.53125 8.535156 49.273437-.078124 91.519531-35.199218 100.589843-83.628906l12.800782 12.84375c3.347656 3.234375 8.671875 3.1875 11.964844-.105468 3.289062-3.289063 3.335937-8.613282.101562-11.960938l-25.597656-25.601562c-.796875-.792969-1.742188-1.425782-2.785156-1.851563-2.085938-.863281-4.429688-.863281-6.519532 0-1.039062.425781-1.984375 1.058594-2.78125 1.851563l-25.597656 25.601562c-3.234375 3.347656-3.1875 8.671875.101562 11.960938 3.292969 3.292968 8.613282 3.339843 11.964844.105468l7.5-7.5c-10.710937 36.234375-43.953125 61.132813-81.742187 61.21875zm0 0"/><path d="m8.535156 42.667969c-4.714844 0-8.535156 3.820312-8.535156 8.53125 0 4.714843 3.820312 8.535156 8.535156 8.535156h9.742188c.792968 3.054687 2.015625 5.980469 3.628906 8.695313l-6.90625 6.910156c-2.214844 2.144531-3.105469 5.316406-2.324219 8.300781.78125 2.980469 3.109375 5.3125 6.09375 6.09375s6.15625-.109375 8.296875-2.328125l6.90625-6.910156c2.710938 1.613281 5.640625 2.832031 8.695313 3.625v9.746094c0 4.710937 3.820312 8.53125 8.53125 8.53125 4.714843 0 8.535156-3.820313 8.535156-8.53125v-9.746094c3.054687-.792969 5.980469-2.011719 8.695313-3.625l6.902343 6.910156c2.144531 2.21875 5.316407 3.109375 8.300781 2.328125 2.980469-.78125 5.3125-3.113281 6.09375-6.09375.78125-2.984375-.109374-6.15625-2.328124-8.300781l-6.902344-6.910156c1.613281-2.714844 2.832031-5.640626 3.625-8.695313h9.746094c4.710937 0 8.53125-3.820313 8.53125-8.535156 0-4.710938-3.820313-8.53125-8.53125-8.53125h-9.746094c-.792969-3.054688-2.011719-5.984375-3.625-8.695313l6.902344-6.914062c3.234374-3.347656 3.1875-8.671875-.105469-11.960938-3.289063-3.292968-8.613281-3.339844-11.960938-.105468l-6.902343 6.914062c-2.714844-1.613281-5.640626-2.835938-8.695313-3.628906v-9.742188c0-4.714844-3.820313-8.535156-8.535156-8.535156-4.710938 0-8.53125 3.820312-8.53125 8.535156v9.742188c-3.054688.792968-5.984375 2.015625-8.695313 3.628906l-6.90625-6.914062c-3.347656-3.234376-8.667968-3.1875-11.960937.105468-3.292969 3.289063-3.335938 8.613282-.105469 11.960938l6.90625 6.914062c-1.613281 2.710938-2.835938 5.640625-3.628906 8.695313zm42.664063-8.535157c9.425781 0 17.066406 7.640626 17.066406 17.066407s-7.640625 17.066406-17.066406 17.066406-17.066407-7.640625-17.066407-17.066406 7.640626-17.066407 17.066407-17.066407zm0 0"/></svg>