<svg height="512pt" viewBox="0 0 512.04108 512" width="512pt" xmlns="http://www.w3.org/2000/svg"><path d="m509.5 2.519531c-3.332031-3.332031-8.734375-3.332031-12.066406 0l-63.855469 63.855469c-3.773437-4.800781-6.566406-10.292969-8.21875-16.171875-1.746094-4.511719-1.105469-9.597656 1.707031-13.535156 4.214844-2.941407 9.644532-3.503907 14.371094-1.492188 2.9375.816407 6.089844.003907 8.265625-2.128906 2.175781-2.136719 3.046875-5.269531 2.285156-8.222656s-3.039062-5.273438-5.976562-6.09375c-10.632813-3.863281-22.527344-1.613281-31.011719 5.871093-7.207031 8.105469-9.574219 19.429688-6.210938 29.742188 2.433594 8.863281 6.734376 17.109375 12.613282 24.179688l-20.480469 20.480468-18.132813-18.039062c-10.132812-9.671875-26.078124-9.671875-36.207031 0l-126.679687 126.679687-57.007813 57.011719c-.253906-.050781-.507812-.085938-.761719-.105469h-153.597656c-4.714844 0-8.535156 3.820313-8.535156 8.535157 0 4.710937 3.820312 8.53125 8.535156 8.53125h137.386719l-10.496094 10.496093-132.925781 132.933594c-1.601562 1.601563-2.5 3.769531-2.5 6.03125v72.40625c0 4.714844 3.820312 8.535156 8.535156 8.535156h60.335938c2.265625 0 4.433594-.902343 6.035156-2.5l266.425781-266.429687v81.195312h-17.066406c-4.710937 0-8.53125 3.820313-8.53125 8.535156 0 4.710938 3.820313 8.53125 8.53125 8.53125h17.066406v51.199219h-8.53125c-4.714843 0-8.535156 3.820313-8.535156 8.535157 0 4.710937 3.820313 8.53125 8.535156 8.53125h8.53125v93.867187c0 4.714844 3.820313 8.535156 8.535157 8.535156h153.597656c1.003906-.027343 1.996094-.226562 2.929687-.597656.273438-.105469.542969-.222656.800781-.359375.667969-.332031 1.292969-.75 1.851563-1.246094.1875-.171875.394531-.296875.5625-.476562.664063-.679688 1.207031-1.464844 1.605469-2.320313v-.105469c.1875-.554687.320312-1.125.402344-1.703124.183593-.523438.3125-1.066407.382812-1.613282v-247.578125c0-3.34375-1.957031-6.382812-5-7.765625l-93.867188-42.667968h-.128906c-.109375-.050782-.238281-.066407-.359375-.109376-.859375-.324218-1.765625-.507812-2.6875-.546874-.125 0-.230469-.066407-.355469-.066407h-29.996093l45.421875-45.417969c2.601562-2.632812 4.601562-5.800781 5.855468-9.28125.085938-.234374.160157-.476562.222657-.71875 3.234375-9.171874.867187-19.390624-6.078125-26.207031l-12.066406-12.0625 20.480468-20.480469c9.585938 8.320313 21.679688 13.207032 34.355469 13.875 7.285156.257813 14.367187-2.441406 19.628906-7.484374 7.484375-8.484376 9.738281-20.382813 5.871094-31.019532-.78125-2.980468-3.109375-5.3125-6.089844-6.09375s-6.152343.105469-8.296875 2.316406c-2.144531 2.214844-2.929687 5.414063-2.050781 8.367188 2.015625 4.726562 1.445313 10.15625-1.5 14.363281-4.832031 4.820313-17.546875 2.636719-29.707031-6.496093l63.855468-63.863282c1.621094-1.601562 2.535157-3.789062 2.535157-6.070312-.003907-2.28125-.917969-4.46875-2.542969-6.070313zm-193.085938 132.742188c10.113282-10.109375 26.652344-3.496094 50.699219 7.734375 11.601563 6.058594 23.933594 10.601562 36.691407 13.523437l-21.015626 20.992188c-10.097656 10.078125-26.617187 3.5-50.707031-7.730469-11.585937-6.046875-23.890625-10.601562-36.625-13.550781l20.949219-20.949219zm27.417969 81.195312-3.285156 3.285157c-10.09375 10.078124-26.613281 3.5-50.6875-7.730469-11.585937-6.046875-23.894531-10.605469-36.625-13.566407l20.941406-20.933593c10.105469-10.113281 26.632813-3.5 50.6875 7.730469 11.609375 6.039062 23.941407 10.574218 36.695313 13.5l-8.585938 8.585937zm-45.515625 45.535157c-10.121094 10.09375-26.648437 3.480468-50.6875-7.738282-11.59375-6.058594-23.90625-10.625-36.640625-13.59375l20.964844-20.96875c10.085937-10.078125 26.605469-3.488281 50.6875 7.75 11.609375 6.035156 23.941406 10.570313 36.695313 13.5zm-42.238281 42.238281c-10.121094 10.113281-26.640625 3.5-50.707031-7.730469-11.585938-6.046875-23.894532-10.601562-36.625-13.558594l20.949218-20.949218c10.113282-10.113282 26.660157-3.492188 50.695313 7.730468 11.609375 6.042969 23.941406 10.582032 36.695313 13.507813zm-42.234375 42.242187c-10.117188 10.101563-26.648438 3.488282-50.695312-7.730468-11.589844-6.0625-23.902344-10.632813-36.640626-13.601563l20.964844-20.96875c10.113282-10.09375 26.640625-3.480469 50.6875 7.75 11.609375 6.035156 23.941406 10.570313 36.695313 13.5zm-42.246094 42.246094c-10.105468 10.089844-26.625 3.5-50.699218-7.730469-11.585938-6.046875-23.890626-10.601562-36.625-13.558593l20.941406-20.957032c10.105468-10.121094 26.652344-3.5 50.6875 7.730469 11.609375 6.039063 23.941406 10.578125 36.695312 13.507813zm-42.222656 42.234375c-10.113281 10.101563-26.652344 3.480469-50.6875-7.742187-11.597656-6.054688-23.910156-10.621094-36.652344-13.59375l20.949219-20.949219c10.085937-10.101563 26.617187-3.503907 50.695313 7.734375 11.609374 6.035156 23.941406 10.570312 36.695312 13.496094zm-42.25 42.238281c-10.101562 10.085938-26.632812 3.5-50.6875-7.730468-6.382812-2.976563-12.902344-5.863282-19.371094-8.371094v-22.476563l3.667969-3.667969c10.105469-10.121093 26.652344-3.5 50.691406 7.730469 11.609375 6.035157 23.9375 10.570313 36.691407 13.5zm-70.058594 21.761719v-19.578125c4.027344 1.707031 8.125 3.644531 12.144532 5.53125 11.609374 6.035156 23.9375 10.570312 36.691406 13.5l-.5625.546875zm401.066406-39.628906v-32.425781l76.800782 34.90625v32.429687zm0-83.628907 76.800782 34.910157v32.425781l-76.800782-34.90625zm76.800782 16.164063-76.800782-34.910156v-32.425781l76.800782 34.910156zm0-51.199219-76.800782-34.910156v-32.429688l76.800782 34.910157zm-76.800782 137.410156 45.945313 20.882813h-45.945313zm76.800782-188.636718-76.800782-34.910156v-23.894532l76.800782 34.910156zm-93.867188-63.546875v273.066406h-42.667968v-268.929687l4.140624-4.136719zm14.148438-81.808594c-10.957032 1.398437-26.128906-5.667969-40.882813-12.546875-11.589843-6.042969-23.894531-10.597656-36.625-13.558594l20.941407-20.941406c3.378906-3.21875 8.6875-3.21875 12.066406 0l42.246094 42.242188c1.253906 1.3125 2.042968 3 2.253906 4.804687zm0 0"/><path d="m153.601562 512.019531c4.710938 0 8.53125-3.820312 8.53125-8.535156 0-4.710937-3.820312-8.53125-8.53125-8.53125h-17.066406c-4.714844 0-8.535156 3.820313-8.535156 8.53125 0 4.714844 3.820312 8.535156 8.535156 8.535156zm0 0"/><path d="m196.265625 494.953125c-4.710937 0-8.53125 3.820313-8.53125 8.53125 0 4.714844 3.820313 8.535156 8.53125 8.535156h17.066406c4.714844 0 8.535157-3.820312 8.535157-8.535156 0-4.710937-3.820313-8.53125-8.535157-8.53125zm0 0"/><path d="m256 512.019531h17.066406c4.714844 0 8.535156-3.820312 8.535156-8.535156 0-4.710937-3.820312-8.53125-8.535156-8.53125h-17.066406c-4.710938 0-8.535156 3.820313-8.535156 8.53125 0 4.714844 3.824218 8.535156 8.535156 8.535156zm0 0"/><path d="m162.132812 469.351562c0 4.714844 3.820313 8.535157 8.535157 8.535157h17.066406c4.710937 0 8.53125-3.820313 8.53125-8.535157 0-4.710937-3.820313-8.53125-8.53125-8.53125h-17.066406c-4.714844 0-8.535157 3.820313-8.535157 8.53125zm0 0"/><path d="m256 469.351562c0-4.710937-3.820312-8.53125-8.535156-8.53125h-17.066406c-4.710938 0-8.53125 3.820313-8.53125 8.53125 0 4.714844 3.820312 8.535157 8.53125 8.535157h17.066406c4.714844 0 8.535156-3.820313 8.535156-8.535157zm0 0"/><path d="m307.199219 477.886719c4.714843 0 8.535156-3.820313 8.535156-8.535157 0-4.710937-3.820313-8.53125-8.535156-8.53125h-17.066407c-4.710937 0-8.53125 3.820313-8.53125 8.53125 0 4.714844 3.820313 8.535157 8.53125 8.535157zm0 0"/><path d="m187.734375 426.683594c-4.714844 0-8.535156 3.824218-8.535156 8.535156s3.820312 8.535156 8.535156 8.535156h17.066406c4.710938 0 8.53125-3.824218 8.53125-8.535156s-3.820312-8.535156-8.53125-8.535156zm0 0"/><path d="m247.464844 443.753906h17.070312c4.710938 0 8.53125-3.824218 8.53125-8.535156s-3.820312-8.535156-8.53125-8.535156h-17.070312c-4.710938 0-8.53125 3.824218-8.53125 8.535156s3.820312 8.535156 8.53125 8.535156zm0 0"/><path d="m324.265625 426.683594h-17.066406c-4.710938 0-8.53125 3.824218-8.53125 8.535156s3.820312 8.535156 8.53125 8.535156h17.066406c4.714844 0 8.535156-3.824218 8.535156-8.535156s-3.820312-8.535156-8.535156-8.535156zm0 0"/><path d="m230.398438 392.550781h-17.066407c-4.710937 0-8.53125 3.820313-8.53125 8.535157 0 4.710937 3.820313 8.53125 8.53125 8.53125h17.066407c4.714843 0 8.535156-3.820313 8.535156-8.53125 0-4.714844-3.820313-8.535157-8.535156-8.535157zm0 0"/><path d="m298.667969 401.085938c0-4.714844-3.820313-8.535157-8.535157-8.535157h-17.066406c-4.710937 0-8.53125 3.820313-8.53125 8.535157 0 4.710937 3.820313 8.53125 8.53125 8.53125h17.066406c4.714844 0 8.535157-3.820313 8.535157-8.53125zm0 0"/><path d="m315.734375 358.417969h-17.066406c-4.714844 0-8.535157 3.820312-8.535157 8.535156 0 4.710937 3.820313 8.53125 8.535157 8.53125h17.066406c4.710937 0 8.53125-3.820313 8.53125-8.53125 0-4.714844-3.820313-8.535156-8.53125-8.535156zm0 0"/><path d="m247.464844 358.417969c-4.710938 0-8.53125 3.820312-8.53125 8.535156 0 4.710937 3.820312 8.53125 8.53125 8.53125h17.070312c4.710938 0 8.53125-3.820313 8.53125-8.53125 0-4.714844-3.820312-8.535156-8.53125-8.535156zm0 0"/><path d="m290.132812 324.285156h-17.066406c-4.710937 0-8.53125 3.820313-8.53125 8.535156 0 4.710938 3.820313 8.53125 8.53125 8.53125h17.066406c4.714844 0 8.535157-3.820312 8.535157-8.53125 0-4.714843-3.820313-8.535156-8.535157-8.535156zm0 0"/></svg>