<svg height="503pt" viewBox="0 0 503.93848 503" width="503pt" xmlns="http://www.w3.org/2000/svg"><path d="m495.238281 252.382812c-24.230469 0-37.367187 8.117188-45.015625 18.625-65.566406 10.765626-131.953125 15.765626-198.394531 14.949219-66.441406.816407-132.828125-4.183593-198.394531-14.949219-7.648438-10.507812-20.78125-18.625-45.015625-18.625-4.636719 0-8.3945315 3.757813-8.3945315 8.394532v235.015625c0 4.636719 3.7578125 8.394531 8.3945315 8.394531h486.820312c4.636719 0 8.394531-3.757812 8.394531-8.394531v-235.015625c0-4.636719-3.757812-8.394532-8.394531-8.394532zm-214.710937 235.015626h-57.394532c-2.335937-4.019532-5.960937-10.070313-10.667968-17.316407 13 .3125 26.136718.53125 39.363281.53125s26.363281-.21875 39.367187-.53125c-4.710937 7.246094-8.3125 13.296875-10.667968 17.316407zm22.5-34.414063c-33.574219 1.085937-68.824219 1.085937-102.347656 0-4.199219-5.765625-8.8125-11.613281-13.664063-17.238281 21.117187.839844 42.804687 1.292968 64.839844 1.292968 22.03125 0 43.71875-.4375 64.835937-1.292968-4.875 5.625-9.464844 11.472656-13.664062 17.238281zm31.125-34.890625c-54.828125 2.847656-109.769532 2.847656-164.597656 0-7.078126-6.589844-15.546876-11.503906-24.785157-14.378906-2.964843-.828125-5.679687-2.378906-7.90625-4.503906 35.738281 2.785156 75.070313 4.253906 114.992188 4.253906 39.917969 0 79.25-1.46875 114.988281-4.253906-2.226562 2.125-4.941406 3.675781-7.90625 4.503906-9.246094 2.871094-17.726562 7.785156-24.8125 14.378906zm51.972656-52.9375c-2.328125 5.515625-4.691406 11.046875-7.203125 16.191406-84.558594 6.941406-169.542969 6.941406-254.101563 0-2.519531-5.144531-4.878906-10.675781-7.203124-16.191406-4.617188-13.585938-11.828126-26.148438-21.234376-36.988281 51.621094 5.625 103.519532 8.34375 155.445313 8.148437 51.941406.199219 103.851563-2.523437 155.488281-8.148437-9.390625 10.84375-16.585937 23.402343-21.191406 36.988281zm-324.054688-75.539062c62.816407 9.292968 126.261719 13.683593 189.757813 13.125 63.511719.570312 126.96875-3.804688 189.800781-13.09375-.050781.1875-.074218.363281-.125.546874-1.042968 3.800782-1.820312 7.511719-2.519531 10.910157v.078125l-.167969.761718c-.378906 1.835938-.746094 3.496094-1.097656 4.984376-61.546875 8.980468-123.695312 13.191406-185.890625 12.601562-62.1875.59375-124.324219-3.617188-185.863281-12.589844-.351563-1.488281-.71875-3.152344-1.101563-4.988281l-.167969-.761719v-.078125c-.703124-3.40625-1.484374-7.117187-2.515624-10.910156-.042969-.191406-.101563-.367187-.152344-.554687zm-45.257812 197.78125v-109.113282c10.859375 0 17.558594 13.992188 26.53125 35.335938s18.179688 43.25 38.609375 48.347656c13.453125 5.417969 25.308594 14.167969 34.445313 25.429688zm121.5625 0c-14.09375-17.820313-34.414062-37.234376-52.382812-41.714844-12.246094-3.0625-19.828126-21.109375-27.171876-38.558594-8.988281-21.386719-19.179687-45.628906-42.007812-45.628906v-91.90625c9.902344.089844 19.101562 5.132812 24.507812 13.429687 2.71875 4.925781 4.648438 10.25 5.707032 15.777344l.128906.570313c.351562 1.570312.679688 3.140624 1.003906 4.710937l.109375.527344c.355469 1.679687.722657 3.492187 1.144531 5.304687.417969 1.8125.835938 3.550782 1.367188 5.273438.148438.527344.269531 1.082031.4375 1.601562.140625.371094.308594.730469.5 1.074219 2.519531 11.058594 12.511719 18.792969 23.847656 18.457031 10.859375 0 17.558594 13.992188 26.53125 35.335938s18.179688 43.253906 38.609375 48.347656c20.429688 5.09375 47.84375 43.199219 62.859375 67.398438zm348.46875 0h-99.585938c9.144532-11.265626 21.007813-20.015626 34.472657-25.429688 20.402343-5.097656 29.636719-27.078125 38.609375-48.347656 8.972656-21.269532 15.644531-35.335938 26.503906-35.335938zm-41.964844-80.273438c-7.34375 17.449219-14.925781 35.496094-27.171875 38.558594-17.945312 4.480468-38.289062 23.894531-52.382812 41.714844h-65.207031c15.015624-24.199219 42.351562-62.269532 62.855468-67.398438 20.507813-5.128906 29.640625-27.078125 38.613282-48.347656 8.972656-21.269532 15.644531-35.335938 26.503906-35.335938 11.339844.335938 21.332031-7.402344 23.847656-18.464844.191406-.347656.359375-.703124.503906-1.074218.167969-.519532.277344-1.066406.425782-1.59375v-.09375c.496093-1.679688.957031-3.425782 1.359374-5.210938.40625-1.789062.789063-3.601562 1.144532-5.304687l.109375-.53125c.324219-1.566407.652343-3.136719 1.003906-4.707031l.128906-.570313c1.054688-5.53125 2.980469-10.859375 5.699219-15.789063 5.417969-8.289062 14.628906-13.3125 24.53125-13.386718v91.90625c-22.828125 0-33.019531 24.242187-41.964844 45.628906zm0 0"/><path d="m491.59375 217.355469c-1.449219.71875-3.003906 1.207031-4.605469 1.453125-6.074219-.957032-11.332031-4.75-14.152343-10.214844-2.25-4.058594-6.527344-6.578125-11.171876-6.578125-4.640624 0-8.917968 2.519531-11.171874 6.578125-2.78125 5.363281-7.886719 9.132812-13.832032 10.214844-6.089844-.933594-11.367187-4.734375-14.183594-10.214844-2.332031-3.980469-6.558593-6.46875-11.171874-6.570312-4.609376.105468-8.828126 2.59375-11.15625 6.570312-2.785157 5.363281-7.898438 9.136719-13.847657 10.214844-6.09375-.933594-11.367187-4.734375-14.1875-10.214844-2.25-4.058594-6.527343-6.578125-11.171875-6.578125-4.640625 0-8.917968 2.519531-11.167968 6.578125-2.78125 5.363281-7.890626 9.132812-13.835938 10.214844-6.089844-.933594-11.363281-4.734375-14.183594-10.214844-2.328125-3.980469-6.558594-6.46875-11.171875-6.570312-4.605469.105468-8.828125 2.59375-11.152343 6.570312-2.789063 5.363281-7.902344 9.136719-13.851563 10.214844-6.089844-.933594-11.367187-4.734375-14.183594-10.214844-2.253906-4.058594-6.53125-6.578125-11.171875-6.578125-4.644531 0-8.921875 2.519531-11.171875 6.578125-2.78125 5.363281-7.890625 9.132812-13.832031 10.214844-6.09375-.933594-11.367188-4.734375-14.1875-10.214844-2.328125-3.980469-6.558594-6.46875-11.167969-6.570312-4.609375.105468-8.832031 2.59375-11.15625 6.570312-2.789062 5.363281-7.902343 9.136719-13.851562 10.214844-6.089844-.933594-11.363281-4.734375-14.183594-10.214844-2.25-4.058594-6.527344-6.578125-11.171875-6.578125-4.640625 0-8.917969 2.519531-11.171875 6.578125-2.78125 5.363281-7.886719 9.132812-13.832031 10.214844-6.089844-.933594-11.367188-4.734375-14.183594-10.214844-2.332031-3.980469-6.558594-6.46875-11.171875-6.570312-4.605469.105468-8.828125 2.59375-11.15625 6.570312-2.785156 5.363281-7.898437 9.136719-13.847656 10.214844-6.09375-.933594-11.367188-4.734375-14.1875-10.214844-2.332031-3.980469-6.558594-6.464844-11.167969-6.570312-4.617188.105468-8.84375 2.59375-11.171875 6.578124-2.785156 5.359376-7.890625 9.128907-13.835937 10.207032-6.089844-.933594-11.363282-4.734375-14.183594-10.214844-2.332032-3.980469-6.558594-6.46875-11.171875-6.570312-4.164063-.015626-7.707031 3.03125-8.324219 7.148437-.617188 4.121094 1.878906 8.066406 5.867188 9.277344 5.898437 9.847656 16.195312 16.234375 27.636718 17.144531 9.992188-.71875 19.179688-5.742188 25.183594-13.761719 6 8.019531 15.1875 13.042969 25.179688 13.761719 9.992187-.71875 19.179687-5.742188 25.179687-13.761719 6 8.019531 15.1875 13.042969 25.179687 13.761719 9.992188-.71875 19.179688-5.742188 25.179688-13.761719 6.003906 8.019531 15.1875 13.042969 25.179688 13.761719 9.992187-.71875 19.179687-5.742188 25.183593-13.761719 6 8.019531 15.1875 13.042969 25.179688 13.761719 9.992187-.71875 19.179687-5.742188 25.179687-13.761719 6 8.019531 15.1875 13.042969 25.179688 13.761719 9.992187-.71875 19.179687-5.742188 25.179687-13.761719 6 8.019531 15.1875 13.042969 25.179688 13.761719 9.992187-.71875 19.179687-5.742188 25.179687-13.761719 6.003906 8.019531 15.191406 13.042969 25.183594 13.761719 9.992188-.71875 19.175781-5.742188 25.179688-13.761719 6 8.019531 15.1875 13.042969 25.179687 13.761719 9.992187-.71875 19.179687-5.742188 25.179687-13.761719 6 8.019531 15.1875 13.042969 25.179688 13.761719 4.191406-.164062 8.292969-1.226562 12.039062-3.113281 2.824219-1.222657 4.753907-3.898438 5.023438-6.964844s-1.164062-6.039063-3.730469-7.738281c-2.570312-1.699219-5.863281-1.851563-8.582031-.402344zm0 0"/><path d="m5.113281 100.621094 58.753907 25.179687c2.761718 1.234375 5.976562.878907 8.410156-.921875 2.433594-1.800781 3.707031-4.773437 3.335937-7.777344-.375-3.003906-2.335937-5.574218-5.132812-6.726562l-58.753907-25.179688c-4.242187-1.75-9.105468.234376-10.914062 4.453126-1.804688 4.214843.109375 9.105468 4.300781 10.972656zm0 0"/><path d="m109.140625 50.941406c3.394531-.003906 6.453125-2.046875 7.753906-5.183594 1.296875-3.136718.578125-6.746093-1.820312-9.144531l-33.574219-33.574219c-3.292969-3.179687-8.527344-3.1367182-11.765625.101563-3.238281 3.238281-3.28125 8.472656-.101563 11.765625l33.574219 33.574219c1.574219 1.574219 3.707031 2.460937 5.933594 2.460937zm0 0"/><path d="m457.71875 58.058594c3.941406-2.457032 5.144531-7.644532 2.6875-11.582032-2.457031-3.941406-7.644531-5.144531-11.582031-2.6875l-84.152344 52.625c-8.042969-12.5625-18.09375-23.726562-29.75-33.035156l32.609375-40.765625c1.875-2.34375 2.359375-5.507812 1.265625-8.300781-1.089844-2.792969-3.589844-4.792969-6.554687-5.246094-2.964844-.453125-5.945313.710938-7.820313 3.054688l-33.382813 41.6875c-7.589843-4.636719-15.628906-8.503906-23.996093-11.539063l12.859375-29.988281c1.234375-2.765625.878906-5.980469-.921875-8.414062-1.800781-2.433594-4.773438-3.707032-7.777344-3.335938-3.003906.375-5.574219 2.335938-6.726563 5.132812l-13.632812 31.804688c-6.785156-1.507812-13.683594-2.472656-20.621094-2.886719v-25.609375c0-4.636718-3.757812-8.394531-8.394531-8.394531s-8.394531 3.757813-8.394531 8.394531v25.609375c-6.9375.417969-13.832032 1.378907-20.621094 2.878907l-13.632812-31.796876c-1.867188-4.191406-6.753907-6.105468-10.972657-4.296874-4.21875 1.808593-6.199219 6.667968-4.453125 10.914062l12.851563 29.980469c-8.363281 3.039062-16.402344 6.90625-23.996094 11.539062l-33.339844-41.679687c-2.898437-3.621094-8.179687-4.207032-11.800781-1.308594-3.621094 2.894531-4.207031 8.179688-1.308594 11.800781l32.574219 40.757813c-11.667969 9.308594-21.726563 20.46875-29.78125 33.035156l-84.117187-52.582031c-2.550782-1.589844-5.753907-1.699219-8.40625-.289063-2.648438 1.414063-4.34375 4.132813-4.445313 7.136719-.101563 3 1.402344 5.828125 3.953125 7.417969l84.847656 53.03125c-5.679687 11.867187-9.566406 24.511718-11.53125 37.519531-2.375-3.203125-6.085937-5.136719-10.070312-5.246094-4.609375.105469-8.832032 2.59375-11.15625 6.570313-2.789063 5.359375-7.898438 9.128906-13.839844 10.214844-6.09375-.941407-11.367188-4.742188-14.1875-10.222657-2.335938-4-6.585938-6.5-11.21875-6.597656-4.613281.105469-8.839844 2.59375-11.171875 6.574219-2.785156 5.359375-7.890625 9.128906-13.835937 10.214844-6.089844-.941407-11.363282-4.738282-14.183594-10.214844-2.332032-3.980469-6.558594-6.46875-11.171875-6.574219-4.152344.003906-7.679688 3.042969-8.296875 7.152344-.617188 4.105469 1.867187 8.046875 5.839844 9.265625 5.894531 9.851562 16.191406 16.246094 27.636718 17.15625 9.992188-.722656 19.179688-5.746094 25.183594-13.765625 6.003906 8.019531 15.1875 13.039062 25.179688 13.765625 9.992187-.722656 19.179687-5.742188 25.179687-13.765625 3.519531 4.449219 7.988281 8.058593 13.078125 10.566406.082031.042969.140625.121094.234375.160156l.226563.085938c1.296874.617187 2.632812 1.144531 4.003906 1.578125l.183594.058594c1.101562.34375 2.222656.625 3.355468.839843h.167969c.839844.140625 1.578125.257813 2.285156.316407.703125.058593 1.367188.109374 1.628907.109374 1.714843-.023437 3.425781-.242187 5.09375-.644531.261718-.058593.546874-.160156.839843-.226562.738281-.195313 1.46875-.386719 2.257813-.65625.789062-.269531 1.730468-.664063 2.617187-1.058594.226563-.097656.445313-.15625.679688-.265625 2.28125-1.082031 4.441406-2.386719 6.457031-3.90625.160156-.117188.316406-.199219.476562-.324219.34375-.269531.6875-.605469 1.03125-.890625 2.101563-1.714844 4.023438-3.636718 5.742188-5.734375 6.003906 8.019531 15.191406 13.035157 25.179688 13.757813 9.992187-.722656 19.179687-5.742188 25.183593-13.765625 6 8.023437 15.1875 13.042969 25.179688 13.765625 1.714843-.023438 3.425781-.242188 5.09375-.644532.261719-.058593.546875-.160156.839843-.226562.738282-.195312 1.46875-.386719 2.257813-.65625s1.726563-.664062 2.617187-1.058594c.226563-.101562.445313-.160156.679688-.265625 2.28125-1.082031 4.441406-2.386719 6.457031-3.90625.15625-.117187.316407-.199219.476563-.324219.34375-.269531.6875-.605468 1.03125-.890624 2.097656-1.734376 4.015625-3.671876 5.726562-5.785157 6.003906 8.019531 15.191406 13.035157 25.179688 13.757813 9.992187-.722656 19.179687-5.742188 25.179687-13.765625 6 8.023437 15.1875 13.042969 25.179688 13.765625 9.988281-.71875 19.175781-5.734375 25.179687-13.75.085938.101562.195313.179687.289063.289062 1.5 1.820313 3.160156 3.507813 4.957031 5.035156.421875.359376.839844.753907 1.261719 1.089844 1.878906 1.472656 3.898437 2.761719 6.027343 3.84375.175782.085938.316407.226563.492188.3125.175781.082032.175781.050782.253906.089844 3.699219 1.871094 7.757813 2.921875 11.902344 3.089844 9.992188-.722656 19.175781-5.742188 25.179688-13.765625 6 8.023437 15.1875 13.042969 25.179687 13.765625 9.992187-.722656 19.175781-5.746094 25.179687-13.765625 6.003907 8.019531 15.191407 13.039062 25.179688 13.765625 4.191406-.167969 8.292969-1.230469 12.039062-3.113282 3.972657-2.121093 5.566407-6.996093 3.609376-11.050781-1.957032-4.058593-6.765626-5.847656-10.898438-4.058593-1.453125.71875-3.003906 1.210937-4.605469 1.460937-6.078125-.957031-11.332031-4.753906-14.152343-10.222656-2.253907-4.054688-6.53125-6.570313-11.171876-6.570313-4.640624 0-8.914062 2.515625-11.171874 6.570313-2.785157 5.359375-7.890626 9.128906-13.832032 10.214843-6.089844-.941406-11.367187-4.742187-14.183594-10.222656-2.332031-3.984375-6.558593-6.476562-11.171874-6.582031-4.609376.109375-8.828126 2.59375-11.15625 6.574219-2.789063 5.359375-7.898438 9.128906-13.839844 10.214844-.050782 0-.328125 0-.707032-.09375-1.054687-16.984376-5.375-33.609376-12.722656-48.957032zm-135.972656 91.863281c-2.332032-3.972656-6.554688-6.457031-11.164063-6.5625-4.605469.109375-8.828125 2.59375-11.152343 6.574219-2.796876 5.398437-7.960938 9.175781-13.953126 10.203125-6.046874-.976563-11.269531-4.769531-14.074218-10.214844-1.15625-1.84375-2.714844-3.410156-4.558594-4.574219-.117188-.066406-.210938-.175781-.328125-.242187-.46875-.242188-.957031-.453125-1.460937-.628907-1.480469-.800781-3.148438-1.1875-4.832032-1.117187-3.578125.0625-6.96875 1.617187-9.351562 4.289063-.679688.699218-1.289063 1.464843-1.820313 2.285156-2.175781 3.726562-5.363281 6.761718-9.191406 8.753906-.929687.460938-1.902344.828125-2.902344 1.097656-.597656.160156-1.109375.277344-1.394531.320313h-.34375c-6.09375-.941407-11.367188-4.742188-14.1875-10.222657-2.34375-3.960937-6.566406-6.429687-11.167969-6.523437-4.609375.109375-8.832031 2.59375-11.15625 6.574219-2.792969 5.398437-7.957031 9.175781-13.949219 10.203125-6.046874-.976563-11.269531-4.769531-14.078124-10.214844-1.15625-1.84375-2.714844-3.410156-4.554688-4.574219-.121094-.066406-.210938-.175781-.328125-.242187-.472656-.242188-.960937-.453125-1.460937-.628907-1.480469-.800781-3.152344-1.1875-4.835938-1.117187-3.578125.0625-6.96875 1.617187-9.347656 4.289063-.683594.699218-1.292969 1.464843-1.824219 2.285156-.675781 1.089844-1.425781 2.132812-2.25 3.121094-.214844.269531-.445313.46875-.660156.722656-.546875.59375-1.085938 1.183594-1.628907 1.679687-.277343.25-.554687.460938-.839843.695313-.46875.386718-.949219.773437-1.410157 1.089844-.285156.203124-.554687.371093-.839843.539062-.410157.265625-.832031.507812-1.265625.730469-.253906.132812-.503906.25-.75.367187-.394532.175782-.769532.34375-1.125.480469l-.585938.207031c-.351562.109375-.679687.210938-.972656.285156l-.34375.09375-.765625.152344h-.175781c4.121094-58.542968 50.847656-105.042968 109.410156-108.886718 58.558594-3.839844 110.957031 36.160156 122.695312 93.660156-.742187-.394532-1.519531-.707032-2.328124-.941406-.550782-.136719-1.113282-.242188-1.675782-.308594-.253906 0-.511718-.085938-.773437-.109375-.261719-.027344-.746094-.152344-1.132813-.152344-2.703125.050781-5.3125.976563-7.445312 2.636719-.203125.140625-.402344.300781-.597656.460937-1.183594.945313-2.207032 2.078125-3.019532 3.359375l-.109375.125c-2.175781 3.726563-5.363281 6.761719-9.191406 8.753906-.929687.460938-1.902344.828126-2.902344 1.097657-.597656.160156-1.109375.277343-1.394531.320312h-.34375c-6.074219-.941406-11.332031-4.730469-14.152344-10.191406zm0 0"/><path d="m491.929688 85.195312-58.753907 25.179688c-2.796875 1.152344-4.757812 3.722656-5.132812 6.726562-.371094 3.003907.902343 5.976563 3.335937 7.777344 2.433594 1.800782 5.648438 2.15625 8.414063.921875l58.753906-25.179687c4.191406-1.867188 6.105469-6.757813 4.296875-10.972656-1.808594-4.21875-6.667969-6.203126-10.914062-4.453126zm0 0"/><path d="m400.453125 48.480469 33.570313-33.574219c3.183593-3.292969 3.136718-8.527344-.101563-11.765625-3.238281-3.2382812-8.472656-3.28125-11.765625-.101563l-33.574219 33.574219c-2.179687 2.105469-3.054687 5.226563-2.289062 8.160157.769531 2.9375 3.0625 5.226562 5.996093 5.996093 2.933594.769531 6.054688-.105469 8.164063-2.289062zm0 0"/></svg>