<svg height="512pt" viewBox="-34 0 512 512.00062" width="512pt" xmlns="http://www.w3.org/2000/svg"><path d="m315.980469 153.855469 29.800781-29.917969 29.796875-29.90625 28.570313-28.683594c6.648437-6.660156 6.648437-17.453125 0-24.113281l-36.183594-36.234375c-3.199219-3.199219-7.542969-5-12.070313-5-4.527343 0-8.867187 1.800781-12.070312 5l-28.542969 28.664062-29.824219 29.925782-56.847656 57.0625c-2.050781 2.085937-3.519531 4.667968-4.269531 7.492187-1.628906-.074219-3.265625-.074219-4.894532 0-.746093-2.832031-2.21875-5.417969-4.269531-7.507812l-115.710937-115.21875c-6.664063-6.660157-17.46875-6.660157-24.132813 0l-36.199219 36.207031c-3.203124 3.203125-5.003906 7.546875-5.003906 12.074219 0 4.53125 1.800782 8.875 5.003906 12.078125l115.644532 115.199218c2.089844 2.046876 4.671875 3.515626 7.5 4.265626 0 .8125-.152344 1.636718-.152344 2.449218s.121094 1.636719.152344 2.449219c-2.835938.757813-5.425782 2.242187-7.507813 4.308594l-27.015625 27.160156-29.800781 29.917969-29.796875 29.867187-28.605469 28.75c-6.648437 6.664063-6.648437 17.453125 0 24.117188l36.207031 36.203125c3.203126 3.203125 7.542969 5.003906 12.070313 5.003906s8.871094-1.800781 12.070313-5.003906l28.546874-28.652344 11.648438-11.691406-32.957031 150.800781c-.984375 4.675781-.628907 9.53125 1.023437 14.011719h-99.625c-4.714844 0-8.535156 3.820312-8.535156 8.535156 0 4.710938 3.820312 8.53125 8.535156 8.53125h426.664063c4.714843 0 8.535156-3.820312 8.535156-8.53125 0-4.714844-3.820313-8.535156-8.535156-8.535156h-99.625c1.652343-4.476563 2.007812-9.332032 1.023437-14.003906l-32.988281-150.835938 11.65625 11.691406 28.558594 28.664063c6.664062 6.664062 17.46875 6.664062 24.132812 0l36.207031-36.207031c6.652344-6.660157 6.652344-17.453126 0-24.113282l-115.214843-115.652344c-2.089844-2.050781-4.675781-3.519531-7.503907-4.269531 0-.808593.15625-1.636719.15625-2.449219 0-.808593-.121093-1.636718-.15625-2.457031 2.832032-.742187 5.421876-2.214843 7.511719-4.265625zm11.699219 103.699219-12.058594 12.097656-17.808594-17.832032 12.101562-12.101562zm29.867187 29.925781-12.101563 12.039062-17.765624-17.789062 12.074218-12.078125zm-53.972656 18.371093 12.058593-12.058593 17.773438 17.828125-12.066406 12.066406zm-181.128907 17.835938-12.066406-12.066406 17.773438-17.828125 12.058594 12.058593zm-18.464843-54.035156 12.074219 12.078125-17.765626 17.789062-12.101562-12.039062zm29.8125-29.925782 12.128906 12.09375-17.8125 17.832032-12.054687-12.089844zm82.058593-58.027343c3.324219-3.296875 8.6875-3.296875 12.015626 0 3.308593 3.316406 3.308593 8.683593 0 12-3.328126 3.308593-8.703126 3.308593-12.035157 0-3.289062-3.324219-3.289062-8.679688 0-12.007813zm47.898438-1.765625c1.050781 5.152344 1.050781 10.464844 0 15.617187l-11.007812 11.007813-7.835938-7.851563c3.421875-6.914062 3.421875-15.03125 0-21.945312l7.824219-7.851563zm-64.914062 18.773437-7.824219 7.851563-11.019531-11.007813c-.527344-2.570312-.792969-5.191406-.792969-7.816406 0-2.621094.261719-5.238281.785156-7.808594l.949219-.945312 10.035156-10.019531 7.859375 7.832031c-3.417969 6.914062-3.417969 15.019531 0 21.933593zm4.207031 44.058594-21 21.078125-12.042969-12.042969 21.011719-21.074219zm-33.050781 33.167969-17.765626 17.828125-12.050781-12.050781 17.777344-17.824219zm44.859374-46.164063-.777343-.144531-10.980469-11 7.832031-7.851562c6.910157 3.414062 15.015625 3.414062 21.921875 0l7.828125 7.851562-11 11-.785156.144531c-4.644531.789063-9.390625.789063-14.039063 0zm88.746094 51.941407-12.046875 12.050781-17.742187-17.851563 12.015625-12.023437zm-41.8125-17.917969-21-21.128907 11.945313-11.949218 21.027343 21.085937zm3.046875-106.992188 21.019531-21.085937 12.097657 12.101562-21.066407 21.144532zm26.71875-75.09375 12.058594 12.058594-17.828125 17.816406-12.046875-12.046875zm29.816407-29.917969 12.066406 12.066407-17.828125 17.816406-12.058594-12.054687zm18.386718 54.023438-12.074218-12.074219 17.765624-17.789062 12.101563 12.039062zm-24.132812 0 12.058594 12.09375-17.773438 17.84375-12.09375-12.101562zm76.484375-52.539062-22.535157 22.675781-12.074218-12.121094 22.554687-22.628906 12.066407 12.066406zm-36.207031-36.207032 12.085937 12.074219-22.5625 22.625-12.066406-12.066406zm-94.207032 94.558594 12.042969 12.039062-21.019531 21.078126-12.03125-12.039063zm-32.015625 34.234375 10.964844 10.984375-7.824219 7.851562c-6.917968-3.421874-15.03125-3.421874-21.949218 0l-7.851563-7.828124 11.027344-11.015626c5.15625-1.074218 10.476562-1.070312 15.632812.007813zm-38.726562-1.039063-21.085938-21.019531 12.101563-12.097656 21.128906 21.015625zm-75.09375-26.726562 12.050781-12.050781 17.828125 17.777343-12.042969 12.046876zm-29.925781-29.808594 12.066406-12.066406 17.828125 17.777344-12.058594 12.058594zm54.015624-18.429687-12.074218 12.066406-17.789063-17.769531 12.039063-12.097656zm0 24.121093 12.101563-12.054687 17.828125 17.765625-12.09375 12.101562zm-52.546874-76.492187 22.613281 22.527344-12.046875 12.09375-22.625-22.554688zm-24.125 24.132813 22.613281 22.554687-12.066407 12.066406-22.621093-22.539062zm82.484374 106.292968 12.039063-12.042968 21.078125 21.019531-12.03125 12.023437zm21.09375 58.597656 12.101563 12.109376-21.019531 21.085937-12.097656-12.066406zm-115.222656 115.6875 22.527344-22.625 12.074219 12.078126-22.554688 22.628906-12.066406-12.066406zm36.203125 36.207032-12.082031-12.078125 22.5625-22.621094 12.066406 12.066406zm125.5 136.53125v-51.199219c0-4.714844 3.820313-8.535156 8.535157-8.535156 4.710937 0 8.53125 3.820312 8.53125 8.535156v51.199219zm104.960938-3.183594c-1.617188 2.011719-4.0625 3.183594-6.648438 3.183594h-64.175781v-51.199219c0-14.140625-11.464844-25.601563-25.601562-25.601563-14.140626 0-25.601563 11.460938-25.601563 25.601563v51.199219h-64.136719c-2.578125-.003906-5.019531-1.171875-6.636718-3.183594-1.617188-2.011719-2.238282-4.644531-1.691407-7.167969l38.699219-176.945312 27.84375-27.949219 24.746094-24.871094.078125-.105468c.90625-.9375 1.707031-1.976563 2.382812-3.097657.167969-.28125.296875-.578125.449219-.851562.496094-.925781.90625-1.898438 1.222656-2.902344 0-.144531.136719-.273437.179688-.417969h1.628906.792969.792969 1.621093c.050781.164063.15625.308594.195313.46875.3125.976563.714844 1.921875 1.195312 2.824219.164063.300781.300782.605469.46875.898437.679688 1.128907 1.484375 2.179688 2.410156 3.121094l.050782.070313 25.734375 25.804687 26.90625 27.007813 38.699219 176.945312c.574218 2.511719-.015626 5.144531-1.605469 7.167969zm37.617187-133.347656-22.554687-22.632813 12.066406-12.074219 22.5625 22.628907zm36.195313-36.21875-12.054688 12.066406-22.554687-22.613281 12.074218-12.117188 22.527344 22.621094zm-94.207031-94.546875-12.101563 12.097656-21.015625-21.085937 12.109375-12.140626zm0 0"/><path d="m230.398438 384c0 4.714844-3.820313 8.535156-8.53125 8.535156-4.714844 0-8.535157-3.820312-8.535157-8.535156 0-4.710938 3.820313-8.53125 8.535157-8.53125 4.710937 0 8.53125 3.820312 8.53125 8.53125zm0 0"/><path d="m230.398438 349.867188c0 4.714843-3.820313 8.535156-8.53125 8.535156-4.714844 0-8.535157-3.820313-8.535157-8.535156 0-4.710938 3.820313-8.535157 8.535157-8.535157 4.710937 0 8.53125 3.824219 8.53125 8.535157zm0 0"/><path d="m230.398438 315.734375c0 4.710937-3.820313 8.53125-8.53125 8.53125-4.714844 0-8.535157-3.820313-8.535157-8.53125 0-4.714844 3.820313-8.535156 8.535157-8.535156 4.710937 0 8.53125 3.820312 8.53125 8.535156zm0 0"/><path d="m230.398438 281.601562c0 4.710938-3.820313 8.53125-8.53125 8.53125-4.714844 0-8.535157-3.820312-8.535157-8.53125 0-4.714843 3.820313-8.535156 8.535157-8.535156 4.710937 0 8.53125 3.820313 8.53125 8.535156zm0 0"/></svg>