<svg height="512pt" viewBox="0 0 512.05245 512" width="512pt" xmlns="http://www.w3.org/2000/svg"><path d="m347.195312 57.710938c-4.167968-2.1875-9.324218-.585938-11.519531 3.585937-5.269531 10.191406-11.113281 20.078125-17.5 29.609375-1.710937 2.523438-1.949219 5.765625-.621093 8.511719 1.332031 2.742187 4.023437 4.570312 7.0625 4.789062 3.042968.222657 5.96875-1.195312 7.679687-3.71875 6.746094-10.058593 12.914063-20.492187 18.476563-31.25 1.054687-2 1.269531-4.339843.597656-6.503906-.667969-2.160156-2.171875-3.96875-4.175782-5.023437zm0 0"/><path d="m437.25 86.878906 72.300781-72.285156c2.441407-2.441406 3.171875-6.109375 1.851563-9.300781-1.320313-3.1875-4.433594-5.2656252-7.882813-5.2656252h-120.039062c-.367188 0-.707031 0-1.074219 0h-46.140625c-2.691406.0078124-5.222656 1.2890622-6.828125 3.4531252-7.351562 10.441406-13.820312 21.480469-19.335938 33-11.871093 25.40625-28.039062 48.570312-47.785156 68.480469-10.308594 10.316406-5.121094 31.070312 12.082032 48.253906 8.820312 9.933594 21.085937 16.144531 34.3125 17.375 5.15625.191406 10.167968-1.714844 13.894531-5.28125 19.910156-19.75 43.078125-35.917969 68.488281-47.785156 16.957031-7.621094 32.550781-17.972657 46.15625-30.644532zm-162.917969 30.164063c.15625-.089844.320313-.160157.492188-.210938 2.449219-1 12.671875 1.277344 23.664062 12.253907 5.046875 4.835937 8.960938 10.730468 11.460938 17.261718.1875.589844.347656 1.191406.476562 1.800782.078125.339843.214844.742187.265625 1.039062.082032.503906.132813 1.011719.152344 1.519531 0 .1875.050781.425781.050781.589844-.003906.257813-.023437.519531-.058593.777344 0 .195312 0 .453125-.066407.585937-.035156.195313-.105469.382813-.214843.546875-1.527344 1.503907-12.457032-.382812-24.132813-12.054687-11.671875-11.675782-13.59375-22.613282-12.089844-24.109375zm51.199219 22.289062c-.339844-.851562-.855469-1.78125-1.210938-2.679687-.359374-.894532-.667968-1.550782-1.066406-2.335938-.648437-1.28125-1.417968-2.5625-2.1875-3.824218-.425781-.699219-.800781-1.398438-1.253906-2.097657-.929688-1.402343-1.96875-2.765625-3.027344-4.132812-.425781-.554688-.804687-1.125-1.246094-1.707031-1.5625-1.902344-3.234374-3.761719-5.019531-5.546876-1.9375-1.925781-3.976562-3.746093-6.109375-5.449218-.664062-.539063-1.339844-.992188-2.011718-1.496094-1.417969-1.066406-2.835938-2.074219-4.269532-2.976562-.773437-.496094-1.550781-.929688-2.335937-1.382813-1.347657-.769531-2.691407-1.460937-4.027344-2.082031-.777344-.367188-1.546875-.71875-2.3125-1.03125-.417969-.171875-.855469-.402344-1.246094-.554688 14.746094-17.601562 27.199219-37.003906 37.066407-57.738281 4.5625-9.378906 9.707031-18.457031 15.414062-27.1875h21.828125c-3.523437 3.796875-6.707031 7.894531-9.515625 12.246094-2.410156 3.957031-1.222656 9.113281 2.671875 11.617187 3.898437 2.503906 9.082031 1.441406 11.679687-2.394531 2.742188-4.339844 5.945313-8.375 9.558594-12.023437l9.464844-9.460938h96.542969l-57.734375 57.71875c-12.363282 11.390625-26.507813 20.683594-41.875 27.511719-20.738282 9.851562-40.144532 22.285156-57.761719 37.007812zm0 0"/><path d="m247.519531 179.191406c3.449219 0 6.5625-2.078125 7.882813-5.265625 1.320312-3.191406.589844-6.859375-1.851563-9.300781l-17.066406-17.066406c-3.347656-3.234375-8.667969-3.1875-11.960937.105468-3.292969 3.289063-3.339844 8.613282-.105469 11.960938l17.066406 17.066406c1.597656 1.605469 3.769531 2.507813 6.035156 2.5zm0 0"/><path d="m204.851562 187.726562c-4.710937 0-8.53125 3.820313-8.53125 8.53125 0 4.714844 3.820313 8.535157 8.53125 8.535157h17.066407c4.714843 0 8.535156-3.820313 8.535156-8.535157 0-4.710937-3.820313-8.53125-8.535156-8.53125zm0 0"/><path d="m328.132812 205.6875c-2.730468-1.390625-5.996093-1.210938-8.558593.472656-2.5625 1.679688-4.023438 4.609375-3.832031 7.667969.191406 3.058594 2.011718 5.777344 4.761718 7.125l17.066406 8.535156c1.179688.59375 2.484376.902344 3.808594.902344 3.996094.050781 7.492188-2.683594 8.410156-6.574219.914063-3.890625-.992187-7.894531-4.589843-9.636718zm0 0"/><path d="m366.132812 175.378906c-1.011718-2.027344-2.785156-3.570312-4.933593-4.285156-2.148438-.71875-4.492188-.550781-6.519531.460938l-17.066407 8.535156c-3.539062 1.761718-5.402343 5.722656-4.503906 9.574218.898437 3.851563 4.324219 6.578126 8.277344 6.59375 1.320312 0 2.625-.308593 3.804687-.902343l17.066406-8.535157c2.035157-1 3.585938-2.769531 4.3125-4.917968.726563-2.144532.570313-4.492188-.4375-6.523438zm0 0"/><path d="m496.429688 399.789062c-16.546876-19.9375-36.414063-40.960937-66.296876-47.695312-10.019531-16.195312-25.003906-28.71875-42.71875-35.710938-12.953124-5.546874-24.617187-19.960937-36.964843-35.226562-21.335938-26.453125-47.992188-59.304688-94.398438-59.304688-46.402343 0-73.019531 32.878907-94.394531 59.304688-12.347656 15.265625-24.011719 29.679688-36.964844 35.226562-1.800781.777344-3.492187 1.59375-5.171875 2.414063v-71.355469c.523438-16.136718-2.90625-32.15625-9.984375-46.667968-4.804687-9.304688-7.234375-19.648438-7.082031-30.113282 0-54.460937 0-116.183594-38.851563-135.605468-2.402343-1.199219-5.230468-1.199219-7.628906 0-38.855468 19.421874-38.855468 81.144531-38.855468 135.605468.152343 10.464844-2.277344 20.808594-7.070313 30.113282-7.089844 14.507812-10.519531 30.53125-9.9960938 46.667968v255.949219c0 4.710937 3.8203128 8.53125 8.5351568 8.53125h494.933593c4.710938 0 8.53125-3.820313 8.53125-8.53125v-60.125c.015625-15.871094-5.511719-31.246094-15.621093-43.476563zm-365.015626-67.722656c16.835938-7.210937 29.800782-23.21875 43.519532-40.175781 21.078125-26.042969 42.871094-52.972656 81.128906-52.972656 38.253906 0 60.046875 26.929687 81.125 52.972656 13.714844 16.957031 26.675781 32.964844 43.519531 40.175781 9.984375 4.007813 19.019531 10.066406 26.511719 17.785156-1.089844 0-2.125.152344-3.191406.21875-1.304688.078126-2.617188.136719-3.890625.265626-1.433594.144531-2.816407.367187-4.199219.574218-1.242188.1875-2.507812.355469-3.726562.59375-1.347657.257813-2.65625.589844-3.960938.90625s-2.378906.554688-3.53125.851563c-1.28125.378906-2.5625.804687-3.765625 1.230469-1.117187.375-2.25.734374-3.34375 1.160156-1.09375.425781-2.371094.980468-3.550781 1.492187-1.175782.515625-2.148438.914063-3.199219 1.417969s-2.226563 1.144531-3.328125 1.707031-2.0625 1.066407-3.054688 1.636719c-.988281.574219-2.105468 1.296875-3.15625 1.957031-1.050781.65625-1.964843 1.203125-2.910156 1.84375-.949218.636719-1.996094 1.414063-2.988281 2.132813-.988281.714844-1.859375 1.3125-2.753906 2.003906-.898438.691406-1.894531 1.527344-2.835938 2.296875-.9375.765625-1.773437 1.414063-2.636719 2.15625-.859374.742187-1.789062 1.605469-2.6875 2.417969-.894531.808594-1.707031 1.5-2.507812 2.269531-.800781.765625-1.707031 1.652344-2.558594 2.492187-.855468.835938-1.632812 1.585938-2.425781 2.394532-.792969.8125-1.59375 1.707031-2.386719 2.5625-.796875.851562-1.570312 1.644531-2.332031 2.472656-.757813.828125-1.527344 1.707031-2.292969 2.5625-.769531.851562-1.503906 1.707031-2.238281 2.558594-.734375.851562-1.425781 1.707031-2.140625 2.558594-.71875.855468-1.476562 1.707031-2.195312 2.5625-.714844.851562-1.277344 1.550781-1.917969 2.328124-2.132813 2.558594-4.265625 5.121094-6.261719 7.679688-4.625 5.71875-9.167969 11.324219-13.707031 16.382812-6.339844 7.851563-14.265625 14.273438-23.261719 18.84375-.246094.109376-.441406.238282-.691406.339844-3.617188 1.582032-6.984375 3.242188-10.101563 4.984375-1.160156.648438-2.152343 1.347657-3.242187 2.015625-2.074219 1.269532-4.148438 2.558594-5.976563 3.863282-1.125.855468-2.132812 1.707031-3.191406 2.519531-1.59375 1.261719-3.191406 2.558593-4.632813 3.839843-.996093.921876-1.910156 1.859376-2.839843 2.796876-1.289063 1.304687-2.5625 2.621093-3.738281 3.960937-.855469.980469-1.648438 1.980469-2.433594 2.976563-1.066406 1.359374-2.105469 2.722656-3.070313 4.113281-.707031 1.011719-1.386719 2.039062-2.046875 3.082031-.898437 1.414062-1.75 2.832031-2.5625 4.265625-.578125 1.015625-1.152344 2.039063-1.707031 3.074219-.792969 1.507812-1.527344 3.019531-2.234375 4.546875-.453125.964843-.914062 1.917969-1.332031 2.882812-.179688.410157-.390625.855469-.570313 1.230469h-210.039062v-.050781l.066406-.417969c.144531-.855469.316406-1.835938.503906-2.824219l.230469-1.09375c.1875-.855469.394531-1.800781.632813-2.757812.085937-.355469.167968-.722657.273437-1.089844.339844-1.332031.714844-2.699219 1.160156-4.121094l.09375-.265625c.417969-1.332031.851563-2.707031 1.40625-4.105468l.503907-1.304688c.445312-1.152344.929687-2.328125 1.449218-3.523438l.609375-1.332031c.730469-1.613281 1.515625-3.25 2.394531-4.914062l.078126-.136719c.855468-1.597656 1.785156-3.21875 2.773437-4.847656.289063-.480469.605469-.957032.914063-1.441406.808593-1.28125 1.707031-2.5625 2.558593-3.859376.332031-.46875.667969-.945312 1.015625-1.425781 2.65625-3.628906 5.558594-7.074219 8.6875-10.308593.453125-.476563.9375-.945313 1.40625-1.414063 1.289063-1.289063 2.648438-2.558594 4.054688-3.832031.519531-.46875 1.03125-.9375 1.570312-1.40625 1.9375-1.707032 3.949219-3.339844 6.128906-4.96875 1.742188-1.328125 3.414063-2.75 5-4.265625 7.050782-6.816407 12.644532-14.992188 16.433594-24.039063 2.5-5.5625 4.589844-11.28125 6.640625-16.929687 2.847657-8.667969 6.4375-17.074219 10.734375-25.121094.203125-.367187.417969-.726563.628906-1.09375 1.035157-1.707031 2.125-3.464844 3.320313-5.121094.230469-.332031.496094-.648437.734375-.972656 1.015625-1.382813 2.117188-2.738281 3.277344-4.070313.382812-.441406.757812-.851562 1.160156-1.320312 1.394531-1.515625 2.890625-2.984375 4.488281-4.414062.425781-.382813.855469-.757813 1.332031-1.140626 1.8125-1.5625 3.707032-3.027343 5.675782-4.386718 4.90625-3.339844 10.136718-6.183594 15.605468-8.492188zm-71.628906-279.492187c23.996094 16.625 25.5 66.371093 25.601563 109.550781h-51.199219c.101562-43.179688 1.601562-92.925781 25.597656-109.550781zm-42.667968 398.105469v-203.238282c-.511719-13.738281 2.421874-27.382812 8.535156-39.695312 4.476562-8.929688 7.261718-18.609375 8.210937-28.554688h51.914063c.933594 9.9375 3.695312 19.617188 8.140625 28.554688 6.117187 12.308594 9.050781 25.957031 8.535156 39.695312v81.714844c-.136719.101562-.238281.214844-.367187.316406-2.289063 1.753906-4.480469 3.628906-6.570313 5.613282-.15625.136718-.28125.285156-.425781.417968-2.007813 1.9375-3.851563 3.910156-5.558594 5.925782l-.210938.238281c-9.441406 12.230469-16.558593 26.089843-21 40.890625-2.375 7.160156-5.253906 14.140625-8.621093 20.890625-2.402344 4.625-5.496094 8.855469-9.179688 12.542969-.070312.066406-.128906.152343-.195312.222656-1.320313 1.269531-2.722657 2.457031-4.191407 3.550781-2.773437 2.082031-5.351562 4.265625-7.84375 6.449219-.65625.582031-1.296874 1.167968-1.9375 1.757812-2.148437 1.988282-4.214843 4.003906-6.140624 6.058594-.25.265625-.515626.511719-.753907.777344-2.113281 2.285156-4.070312 4.625-5.972656 6.980468-.496094.621094-.972656 1.253907-1.449219 1.886719-1.527344 2.019531-2.980468 4.050781-4.328125 6.101563-.152343.304687-.390625.605468-.589843.902344zm477.867187 44.175781h-248.25c.066406-.136719.117187-.269531.195313-.40625.214843-.410157.453124-.855469.675781-1.238281.800781-1.484376 1.65625-2.964844 2.558593-4.4375.367188-.589844.761719-1.179688 1.152344-1.765626.921875-1.402343 1.929688-2.792968 3.003906-4.164062.390626-.503906.757813-1.027344 1.175782-1.527344 1.550781-1.886718 3.203125-3.6875 4.949218-5.394531.285157-.265625.609376-.519531.855469-.792969 1.578125-1.476562 3.277344-2.917968 5.121094-4.328125.671875-.519531 1.398437-1.03125 2.113281-1.542969 1.65625-1.191406 3.421875-2.339843 5.292969-3.457031.785156-.46875 1.550781-.957031 2.371094-1.40625 2.847656-1.605469 5.78125-3.058593 8.78125-4.351562 16.835937-7.210938 29.796875-23.230469 43.519531-40.175781 21.101562-26.042969 42.898438-53.011719 81.152344-53.011719 2.253906 0 4.429687.105469 6.578125.292969.710937.058593 1.382812.167968 2.074219.246093 1.476562.171875 2.953124.339844 4.414062.597657 26.84375 4.675781 44.636719 23.464843 60.585938 42.667968 7.574218 9.171875 11.707031 20.707032 11.679687 32.605469zm0 0"/></svg>