<svg height="512pt" viewBox="0 0 512 512" width="512pt" xmlns="http://www.w3.org/2000/svg"><path d="m68.25 452.265625c10.160156-.734375 19.5-5.839844 25.601562-13.992187 6.101563 8.152343 15.441407 13.257812 25.597657 13.992187 4.621093-.007813 8.375-3.726563 8.433593-8.34375.050782-4.65625-3.601562-8.515625-8.253906-8.722656-6.191406-.949219-11.554687-4.8125-14.421875-10.382813-2.367187-4.050781-6.667969-6.582031-11.355469-6.683594-4.6875.101563-8.988281 2.632813-11.351562 6.683594-2.832031 5.449219-8.027344 9.285156-14.070312 10.382813-6.191407-.949219-11.554688-4.804688-14.421876-10.375-2.367187-4.054688-6.667968-6.585938-11.359374-6.691407-4.6875.105469-8.988282 2.632813-11.355469 6.683594-2.84375 5.511719-8.125 9.359375-14.242188 10.382813-4.714843 0-8.535156 3.820312-8.535156 8.535156 0 4.710937 3.820313 8.53125 8.535156 8.53125 10.15625-.734375 19.5-5.839844 25.597657-13.992187 6.101562 8.152343 15.441406 13.257812 25.601562 13.992187zm0 0"/><path d="m281.761719 435.199219c-6.191407-.949219-11.554688-4.8125-14.421875-10.382813-2.496094-3.917968-6.71875-6.402344-11.355469-6.683594-4.6875.101563-8.984375 2.632813-11.351563 6.683594-2.828124 5.449219-8.027343 9.285156-14.070312 10.382813-6.191406-.949219-11.554688-4.804688-14.421875-10.375-2.289063-4.128907-6.636719-6.6875-11.355469-6.6875-4.722656 0-9.070312 2.558593-11.359375 6.6875-2.847656 5.507812-8.125 9.355469-14.242187 10.375-4.710938 0-8.535156 3.820312-8.535156 8.535156 0 4.710937 3.824218 8.53125 8.535156 8.53125 10.160156-.734375 19.5-5.839844 25.601562-13.992187 6.101563 8.152343 15.441406 13.257812 25.597656 13.992187 10.160157-.734375 19.5-5.839844 25.601563-13.992187 6.101563 8.152343 15.441406 13.257812 25.597656 13.992187 4.621094-.007813 8.375-3.726563 8.433594-8.34375.050781-4.65625-3.601563-8.515625-8.253906-8.722656zm0 0"/><path d="m418.117188 438.273438c6.101562 8.152343 15.441406 13.257812 25.601562 13.992187 4.617188-.007813 8.375-3.726563 8.429688-8.34375.050781-4.65625-3.601563-8.515625-8.253907-8.722656-6.191406-.949219-11.554687-4.8125-14.417969-10.382813-2.472656-3.949218-6.710937-6.441406-11.359374-6.683594-4.6875.101563-8.984376 2.632813-11.351563 6.683594-2.828125 5.449219-8.023437 9.285156-14.070313 10.382813-6.191406-.949219-11.554687-4.804688-14.421874-10.375-2.289063-4.128907-6.636719-6.6875-11.355469-6.6875-4.722657 0-9.070313 2.558593-11.359375 6.6875-2.847656 5.507812-8.125 9.355469-14.242188 10.375-4.710937 0-8.53125 3.820312-8.53125 8.535156 0 4.710937 3.820313 8.53125 8.53125 8.53125 10.160156-.734375 19.5-5.839844 25.601563-13.992187 6.101562 8.152343 15.441406 13.257812 25.597656 13.992187 10.160156-.734375 19.5-5.839844 25.601563-13.992187zm0 0"/><path d="m76.785156 512c10.15625-.734375 19.496094-5.839844 25.597656-13.996094 6.101563 8.15625 15.441407 13.261719 25.601563 13.996094 10.15625-.734375 19.496094-5.839844 25.597656-13.996094 6.105469 8.15625 15.445313 13.261719 25.601563 13.996094 4.710937 0 8.535156-3.820312 8.535156-8.535156 0-4.710938-3.824219-8.53125-8.535156-8.53125-6.121094-1.015625-11.402344-4.863282-14.242188-10.375-2.363281-4.054688-6.664062-6.589844-11.359375-6.691406-4.6875.105468-8.984375 2.636718-11.355469 6.679687-2.828124 5.453125-8.019531 9.289063-14.0625 10.386719-6.191406-.949219-11.554687-4.808594-14.421874-10.375-2.289063-4.128906-6.636719-6.691406-11.359376-6.691406-4.71875 0-9.066406 2.5625-11.355468 6.691406-2.847656 5.507812-8.125 9.355468-14.242188 10.375-4.714844 0-8.535156 3.820312-8.535156 8.53125 0 4.714844 3.820312 8.535156 8.535156 8.535156zm0 0"/><path d="m275.875 484.558594c-2.289062-4.128906-6.636719-6.691406-11.359375-6.691406-4.71875 0-9.066406 2.5625-11.355469 6.691406-2.847656 5.507812-8.125 9.355468-14.242187 10.375-4.714844 0-8.535157 3.820312-8.535157 8.53125 0 4.714844 3.820313 8.535156 8.535157 8.535156 10.15625-.734375 19.496093-5.839844 25.597656-13.996094 6.101563 8.15625 15.441406 13.261719 25.601563 13.996094 10.15625-.734375 19.5-5.839844 25.601562-13.996094 6.101562 8.15625 15.441406 13.261719 25.597656 13.996094 4.714844 0 8.535156-3.820312 8.535156-8.535156 0-4.710938-3.820312-8.53125-8.535156-8.53125-6.121094-1.015625-11.402344-4.863282-14.242187-10.375-2.363281-4.054688-6.664063-6.589844-11.355469-6.691406-4.691406.105468-8.988281 2.636718-11.359375 6.679687-2.828125 5.453125-8.019531 9.289063-14.0625 10.386719-6.191406-.949219-11.554687-4.808594-14.421875-10.375zm0 0"/><path d="m503.449219 494.933594c-6.121094-1.015625-11.402344-4.863282-14.242188-10.375-2.363281-4.054688-6.664062-6.589844-11.355469-6.691406-4.691406.105468-8.988281 2.636718-11.359374 6.679687-2.828126 5.453125-8.019532 9.289063-14.0625 10.386719-6.191407-.949219-11.554688-4.808594-14.421876-10.375-2.289062-4.128906-6.636718-6.691406-11.359374-6.691406-4.71875 0-9.066407 2.5625-11.355469 6.691406-2.847657 5.507812-8.125 9.355468-14.242188 10.375-4.714843 0-8.535156 3.820312-8.535156 8.53125 0 4.714844 3.820313 8.535156 8.535156 8.535156 10.15625-.734375 19.5-5.839844 25.597657-13.996094 6.101562 8.15625 15.441406 13.261719 25.601562 13.996094 10.160156-.734375 19.5-5.839844 25.601562-13.996094 6.101563 8.15625 15.441407 13.261719 25.597657 13.996094 4.714843 0 8.535156-3.820312 8.535156-8.535156 0-4.710938-3.820313-8.53125-8.535156-8.53125zm0 0"/><path d="m418.117188 290.132812c-10.394532 0-20.433594 3.792969-28.230469 10.667969-3.53125 3.121094-3.867188 8.519531-.746094 12.050781 3.125 3.535157 8.519531 3.871094 12.054687.75 8.433594-7.433593 20.730469-8.488281 30.3125-2.609374 9.582032 5.878906 14.203126 17.320312 11.398438 28.207031-.566406 2.195312-.234375 4.519531.917969 6.472656 1.152343 1.949219 3.03125 3.359375 5.226562 3.921875.695313.175781 1.414063.265625 2.132813.265625 3.894531-.003906 7.289062-2.640625 8.261718-6.410156.886719-3.480469 1.335938-7.058594 1.339844-10.648438-.03125-23.554687-19.117187-42.640625-42.667968-42.667969zm0 0"/><path d="m15.097656 316.210938c-5.367187-1.5625-11.089844.851562-13.714844 5.78125-2.625 4.933593-1.4257808 11.03125 2.867188 14.605468 2.84375 2.355469 6.152344 5.605469 9.984375 9.386719 10.839844 11.25 22.953125 21.203125 36.097656 29.652344-4.332031.394531-7.65625 4.015625-7.683593 8.363281 0 4.710938 3.824218 8.535156 8.535156 8.535156 8.757812-.601562 16.953125-4.539062 22.894531-11 .085937-.09375.207031-.136718.300781-.230468.851563-.855469 1.609375-1.785157 2.371094-2.730469 2.875 3.664062 6.394531 6.773437 10.382812 9.171875l.136719.085937c1.03125.625 2.09375 1.195313 3.183594 1.707031l.386719.1875c.902344.398438 1.773437.746094 2.609375 1.050782.988281.355468 1.9375.648437 2.859375.894531 1.980468.539063 4.023437.828125 6.074218.863281.796876-.007812 1.589844-.058594 2.382813-.15625 1.664063-.226562 3.304687-.597656 4.90625-1.101562.339844-.101563.664063-.167969 1.015625-.289063.347656-.117187.785156-.324219 1.175781-.476562.71875-.273438 1.433594-.53125 2.183594-.855469l.488281-.253906c.988282-.488282 1.996094-1 3.011719-1.605469l.128906-.09375c3.945313-2.425781 7.433594-5.523437 10.308594-9.15625.203125.257813.425781.433594.628906.683594.949219 1.148437 1.957031 2.242187 3.023438 3.277343.65625.640626 1.3125 1.167969 1.980469 1.707032.664062.535156 1.226562 1.039062 1.851562 1.5.621094.460937 1.296875.914062 1.953125 1.332031s1.398437.851563 2.105469 1.28125c.480468.261719.941406.519531 1.410156.75 1.050781.527344 2.082031.980469 3.089844 1.375l.152344.058594c2.652343 1.050781 5.449218 1.703125 8.292968 1.929687h.394532c.230468 0 .511718.039063.726562.039063h.1875c.230469 0 .773438-.039063 1.457031-.109375.53125-.042969 1.085938-.121094 1.707031-.214844.929688-.148438 1.847657-.34375 2.757813-.585938.964844-.257812 1.960937-.582031 2.992187-.964843.335938-.121094.675782-.273438 1.027344-.410157.75-.308593 1.5-.640624 2.277344-1.023437.605469-.289063 1.203125-.625 1.816406-.972656.613282-.351563 1.160156-.683594 1.75-1.058594.726563-.460937 1.433594-.9375 2.167969-1.484375.5625-.417969 1.117187-.855469 1.707031-1.367188.707032-.585937 1.40625-1.152343 2.105469-1.832031.992187-.972656 1.929687-1.992187 2.816406-3.054687.273438-.316406.546875-.546875.8125-.855469.296875.375.605469.632813.902344.988281.855469 1.027344 1.777344 2.03125 2.6875 2.921875.914063.886719 1.582031 1.40625 2.375 2.0625.453125.367188.851563.75 1.347656 1.09375.851563.621094 1.648438 1.175781 2.472657 1.707031.460937.289063.914062.570313 1.375.851563.726562.410156 1.433593.792969 2.132812 1.136719.699219.339844 1.390625.640625 2.082031.921875.386719.152343.777344.324219 1.152344.460937 2.527344.964844 5.179687 1.566406 7.878906 1.78125h.5625c.203125 0 .441407.042969.628907.042969h.164062c.238281 0 .792969-.042969 1.5-.109375.472656 0 .964844-.101562 1.484375-.179688l.4375-.078124c.734375-.128907 1.484375-.28125 2.296875-.484376.253906-.0625.527344-.15625.792969-.230468.714843-.207032 1.441406-.417969 2.191406-.691406.597656-.214844 1.203125-.480469 1.828125-.734376.484375-.214843.953125-.417968 1.449219-.648437.851562-.382813 1.621093-.855469 2.457031-1.316406.371094-.207031.738281-.429688 1.101562-.664063.851563-.546875 1.75-1.132812 2.636719-1.808594.410157-.308593.808594-.65625 1.21875-.988281.855469-.675781 1.640625-1.351562 2.460938-2.144531.816406-.792969 1.78125-1.867188 2.652343-2.882812.308594-.359376.632813-.632813.929688-1.015626.246094.308594.503906.519532.75.808594.917969 1.101563 1.886719 2.152344 2.910156 3.152344.625.605469 1.246094 1.097656 1.871094 1.636719.621094.539062 1.328125 1.125 2.003906 1.621093.675782.496094 1.167969.851563 1.757813 1.203126.851562.527343 1.605469 1.015624 2.40625 1.449218.359375.207032.71875.402344 1.074219.582032 3.960937 2.128906 8.347656 3.335937 12.835937 3.542968h.289063c.222656 0 .734374-.042968 1.390624-.113281.65625-.066406 1.117188-.128906 1.707032-.230469.855468-.144531 1.785156-.347656 2.746094-.605468.964843-.253907 1.957031-.578126 2.988281-.964844.316406-.117188.640625-.253906.964843-.390625.769532-.316407 1.535157-.65625 2.320313-1.050781.589844-.28125 1.167969-.605469 1.765625-.9375.597656-.332032 1.195312-.710938 1.792969-1.09375.597656-.382813 1.398437-.921876 2.117187-1.449219.578125-.4375 1.152344-.921875 1.707032-1.402344.554687-.476563 1.371093-1.132813 2.054687-1.796875 1.054687-1.03125 2.054687-2.113281 2.996094-3.246094.203125-.253906.425781-.433594.640625-.691406.1875.242188.390625.402344.578125.632812.96875 1.167969 1.996093 2.28125 3.082031 3.335938.613281.589844 1.230469 1.085938 1.84375 1.613281.613281.53125 1.347656 1.136719 2.03125 1.640625.683594.5 1.160156.851563 1.707031 1.191406.851563.539063 1.621094 1.027344 2.421875 1.46875.359375.195313.707032.394532 1.058594.5625 4.007812 2.148438 8.453125 3.351563 12.996094 3.527344h.289062c.222656 0 .734375-.042968 1.382813-.113281.648437-.066406 1.136719-.128906 1.75-.230469 1.984375-.34375 3.929687-.875 5.8125-1.585937l.851562-.359375c.792969-.324219 1.597657-.671875 2.414063-1.082032.566406-.28125 1.121094-.582031 1.707031-.90625.589844-.324218 1.246094-.734374 1.871094-1.144531.621093-.410156 1.363281-.894531 2.0625-1.40625s1.1875-.957031 1.785156-1.460937 1.339844-1.097656 2.003906-1.707032c1.066407-1.039062 2.078125-2.136718 3.03125-3.285156.195313-.238281.410157-.417968.613281-.664062.195313.238281.402344.410156.597657.648437.960937 1.15625 1.980469 2.261719 3.054687 3.3125.65625.628907 1.304688 1.152344 1.960938 1.707031.660156.554688 1.246094 1.054688 1.878906 1.515626.632812.460937 1.28125.914062 1.929688 1.324218.648437.410156 1.425781.90625 2.140624 1.296875.460938.257813.914063.511719 1.375.734375 1.019532.515625 2.0625.980469 3.132813 1.390625l.117187.050781c2.65625 1.054688 5.453126 1.703126 8.304688 1.929688h.382812c.238282 0 .511719.042969.726563.042969h.1875c.246094 0 .785156 0 1.492187-.113281.707032-.109376 1.324219-.152344 2.039063-.28125h.042969c1.003906-.179688 2-.414063 2.976562-.699219l.292969-.085938c.964844-.289062 1.96875-.648437 3.003906-1.066406.332031-.128906.648438-.246094.988281-.390625.855469-.394531 1.792969-.855469 2.707032-1.367188.476562-.253906.929687-.460937 1.421875-.757812 1.285156-.785156 2.519531-1.636719 3.703125-2.5625.582031-.460938 1.164062-1.003906 1.707031-1.515625.804687-.703125 1.589844-1.433594 2.375-2.246094.535156-.554687 1.058594-1.136719 1.585937-1.75.339844-.398437.699219-.734375 1.039063-1.152343.191406.238281.394531.425781.589844.65625.496093.589843 1 1.128906 1.511719 1.707031.691406.742187 1.382812 1.46875 2.089843 2.125.53125.488281 1.058594.941406 1.597657 1.382812.707031.589844 1.414062 1.152344 2.140624 1.707031.539063.382813 1.066407.75 1.605469 1.101563.722657.460937 1.433594.851563 2.148438 1.28125.519531.289063 1.042969.578125 1.554687.851563.722656.359374 1.425782.65625 2.125.949218.484375.203125.964844.40625 1.441406.578125.707032.257813 1.382813.460938 2.054688.648438.429688.128906.855469.265625 1.265625.367187.707031.171875 1.371094.28125 2.019531.394532.316406.050781.640625.125.941406.160156.855469.078125 1.714844.101562 2.574219.070312 10.160157-.738281 19.5-5.84375 25.601563-13.996094 6.101562 8.15625 15.441406 13.261719 25.601562 13.996094h.296875c1.410157-.078125 2.816407-.261718 4.199219-.554687 1.5-.296875 2.894531-.988281 4.035156-2.007813 14.042969-12.589844 22.972656-29.898437 25.097656-48.640625h9.035157c4.714843 0 8.535156-3.820312 8.535156-8.53125 0-4.714843-3.820313-8.535156-8.535156-8.535156h-9.035157c-1.609374-14.398437-7.28125-28.046875-16.351562-39.347656l6.425781-6.425781c3.234375-3.347657 3.1875-8.667969-.101562-11.960938-3.292969-3.292969-8.617188-3.335938-11.964844-.105469l-6.425781 6.425781c-11.300782-9.066406-24.945313-14.738281-39.347656-16.347656v-9.039062c0-4.710938-3.820313-8.53125-8.53125-8.53125-4.714844 0-8.535157 3.820312-8.535157 8.53125v9.039062c-8.914062 1.003906-17.582031 3.578125-25.597656 7.601563v-67.839844h8.53125c4.714844 0 8.535156-3.820313 8.535156-8.53125 0-4.714844-3.820312-8.535156-8.535156-8.535156h-8.53125v-34.132813h8.53125c4.714844 0 8.535156-3.820312 8.535156-8.53125 0-4.714844-3.820312-8.535156-8.535156-8.535156h-8.53125v-110.933594c0-9.425781-7.640625-17.066406-17.066406-17.066406h-34.132813c-9.425781 0-17.066406 7.640625-17.066406 17.066406v7.144532c-17.007812 55.398437-133.839844 103.789062-196.269531 103.789062h-17.066407c-4.710937 0-8.53125 3.820312-8.53125 8.535156 0 4.710938 3.820313 8.53125 8.53125 8.53125h8.535157v34.132813h-76.800781c-4.714844 0-8.535157 3.820312-8.535157 8.535156 0 4.710937 3.820313 8.53125 8.535157 8.53125h8.53125v93.867187h-8.53125c-4.714844 0-8.535157 3.820313-8.535157 8.535157 0 4.710937 3.820313 8.53125 8.535157 8.53125h8.53125v15.820312c-9.042969-1.925781-18.226563-4.101562-27.550782-6.808593zm33.78125 25.4375c.238282.105468.480469.199218.726563.273437 1.007812.1875 2.03125.316406 3.027343.496094 3.414063.621093 6.828126 1.140625 10.328126 1.707031 4.519531.707031 9.050781 1.371094 13.652343 1.945312 3.601563.453126 7.210938.851563 10.84375 1.246094 4.976563.511719 9.976563.902344 14.996094 1.261719 3.097656.214844 6.175781.476563 9.300781.632813 1.859375.09375 3.710938.167968 5.570313.246093.6875.230469 1.402343.367188 2.125.410157.582031-.050782 1.152343-.171876 1.707031-.351563 5.121094.164063 10.242188.351563 15.359375.351563h170.667969c3.855468 0 7.542968 0 11.144531-.070313h5.1875c.257813 0 .46875.148437.734375.148437s.554688-.148437.855469-.171874l4.417969-.121094c.632812 0 1.273437 0 1.894531-.050782 6.828125-.199218 13.085937-.484374 18.773437-.851562h.640625l1.484375-.121094c1.648438-.117187 3.242188-.253906 4.789063-.390625l1.277343-.257812 1.050782-.09375c2.285156-.230469 4.488281-.46875 6.519531-.734375 2.367187-.308594 4.75.421875 6.535156 2.007812 1.863281 1.632813 2.929688 3.988282 2.929688 6.464844v6.113281c-.085938.074219-.148438.195313-.230469.269531-.984375.882813-1.84375 1.890626-2.5625 2.996094l-.074219.085938c-.863281 1.375-1.84375 2.671875-2.929687 3.875-2.636719 3.140625-6.203125 5.363281-10.1875 6.347656-.5625.121094-.949219.164062-.957032.164062-6.1875-.953124-11.546874-4.8125-14.410156-10.378906-2.292968-4.125-6.640625-6.6875-11.359375-6.6875s-9.070312 2.5625-11.359375 6.6875c-2.601562 4.683594-6.863281 8.226563-11.945312 9.925782-.695313.210937-1.410156.367187-2.132813.460937-6.167969-.976563-11.503906-4.828125-14.371093-10.378906-2.351563-4.046875-6.632813-6.585938-11.316407-6.707031-4.6875.109374-8.984375 2.636718-11.355469 6.683593-2.574218 4.582031-6.726562 8.074219-11.683593 9.828125-.796875.261719-1.617188.449219-2.449219.554688-6.167969-.976563-11.503906-4.832032-14.371094-10.382813-2.363281-4.042969-6.65625-6.574219-11.339844-6.683593-4.6875.105468-8.984374 2.632812-11.347656 6.683593-.761718 1.226563-1.617187 2.394531-2.5625 3.488281-2.332031 2.855469-5.398437 5.023438-8.863281 6.273438-.871094.304688-1.773437.511719-2.6875.621094-6.167969-.972656-11.503906-4.828125-14.371094-10.375-2.289062-4.128906-6.636719-6.6875-11.359375-6.6875-4.71875 0-9.066406 2.558594-11.355468 6.6875-2.761719 5.125-7.5625 8.84375-13.210938 10.242187-.496094.101563-.855469.144531-.855469.144531-6.1875-.957031-11.542969-4.8125-14.410156-10.378906-2.363281-4.0625-6.675781-6.601562-11.375-6.699218-4.6875.109374-8.980469 2.640624-11.351563 6.683593-.675781 1.089844-1.429687 2.136719-2.25 3.121094-.28125.351563-.574218.625-.855468.941406-.476563.511719-.945313 1.03125-1.425782 1.476563-.476562.441406-.722656.613281-1.082031.902344-.359375.289062-.75.613281-1.117187.855468-.367188.238282-.855469.5625-1.265625.808594-.246094.144531-.484375.289062-.722657.417969-.503906.273437-1 .519531-1.460937.71875l-.195313.085937c-1.167968.488282-2.398437.828125-3.652343 1.003906l-1.082031-.125c-.335938-.0625-.703126-.148437-1.09375-.25l-.316407-.09375c-.296875-.085937-.613281-.1875-.929687-.296874-.445313-.164063-.914063-.359376-1.417969-.589844l-.273437-.121094c-1.578126-.785156-3.050782-1.773438-4.375-2.941406l-.375-.351563c-.65625-.605469-1.277344-1.246093-1.863282-1.917969-.175781-.207031-.355468-.394531-.535156-.617187-.800781-.964844-1.53125-1.980469-2.195312-3.042969-2.371094-4.046875-6.675782-6.570312-11.363282-6.667968-1.105468.003906-2.207031.15625-3.269531.453124-.339844.117188-.671875.25-1 .402344-.703125.222656-1.390625.507813-2.046875.851563-.367188.214843-.691406.53125-1.039062.777343-.582032.382813-1.132813.808594-1.648438 1.273438-.339844.332031-.613281.742188-.921875 1.109375-.433594.453125-.835937.933594-1.203125 1.441406-13.011719-7.183593-24.898438-16.234375-35.277344-26.871093 6.085938 1.476562 12.269532 2.644531 18.5 3.8125zm62.039063-34.449219v24.816406c-3.023438-.164063-6.050781-.34375-9.0625-.5625-2.621094-.199219-5.273438-.417969-8.003907-.675781v-23.578125zm34.132812 0v25.601562h-8.535156c-2.847656 0-5.691406-.128906-8.53125-.179687v-25.421875zm34.132813 0v25.601562h-17.066406v-25.601562zm34.132812 0v25.601562h-17.066406v-25.601562zm34.132813 0v25.601562h-17.066407v-25.601562zm34.132812 0v25.601562h-17.066406v-25.601562zm34.136719 0v25.558593c-2.773438 0-5.609375.042969-8.535156.042969h-8.535156v-25.601562zm30.019531 0c-.265625.742187-.523437 1.484375-.761719 2.238281-.332031 1.046875-.597656 2.132812-.851562 3.199219-.375 1.382812-.777344 2.765625-1.074219 4.171875-.300781 1.40625-.453125 2.636718-.660156 3.960937-.203125 1.320313-.433594 2.464844-.570313 3.71875-.160156 1.484375-.203124 3.003907-.273437 4.515625-.050781 1.023438-.179687 2.03125-.195313 3.0625-2.714843.136719-5.582031.246094-8.535156.339844v-25.207031zm114.191407 68.132812-.265626-.054687-.46875-.101563c-.28125-.066406-.597656-.167969-.929687-.265625-.1875-.058594-.367187-.109375-.5625-.1875-.601563-.203125-1.191406-.445312-1.765625-.722656l-.230469-.128906c-.609375-.308594-1.203125-.648438-1.777343-1.015625-.230469-.144531-.46875-.332031-.707032-.496094-.484375-.339844-.972656-.714844-1.46875-1.132813-.273437-.230468-.535156-.46875-.808594-.71875-.503906-.476562-1.015624-1.007812-1.519531-1.570312-.246093-.273438-.496093-.527344-.734375-.851562-.792968-.957032-1.523437-1.96875-2.183594-3.019532-2.363281-4.039062-6.648437-6.558594-11.324218-6.667968-4.6875.109374-8.988282 2.636718-11.359375 6.683593-2.824219 5.453125-8.019531 9.289063-14.0625 10.382813-6.195313-.945313-11.5625-4.808594-14.429688-10.382813-.714843-1.125-1.574219-2.148437-2.558593-3.046875-.101563-.09375-.171876-.230468-.273438-.324218v-6.09375c.003906-7.390626-3.183594-14.421876-8.738281-19.292969-1.359375-1.199219-2.84375-2.246094-4.429688-3.125-.914062-.453125-1.859375-.855469-2.824219-1.203125-.707031-.28125-1.382812-.664063-2.105468-.851563-3.449219-1.042969-7.082032-1.332031-10.652344-.851562-1.632812.21875-3.414062.425781-5.347656.613281.070312-2.039062.242187-4.074219.519531-6.09375.101563-.792969.289063-1.5625.425781-2.347656.214844-1.226563.417969-2.449219.707032-3.652344.242187-.988281.554687-1.953125.855468-2.917969.296875-.964843.554688-1.894531.851563-2.824219.375-1.066406.8125-2.105468 1.238281-3.140624.332031-.785157.65625-1.570313 1.015625-2.335938.511719-1.085938 1.058594-2.152344 1.628906-3.203125.367188-.664063.742188-1.328125 1.136719-1.988281.640625-1.066406 1.296875-2.121094 1.996094-3.148438.410156-.597656.851562-1.175781 1.269531-1.757812.753906-1.023438 1.519531-2.03125 2.332031-2.992188.460938-.554687.964844-1.078125 1.441406-1.605468.851563-.949219 1.707032-1.894532 2.609376-2.78125.453124-.4375.949218-.855469 1.410156-1.265626 24.070312-21.25 60.644531-19.640624 82.753906 3.648438 22.105469 23.289062 21.8125 59.898438-.664062 82.832031zm-161.28125-153.464843v-25.601563h17.070312v25.601563zm-34.132813 0v-25.601563h17.066406v25.601563zm-34.132813 0v-25.601563h17.066407v25.601563zm-34.132812 0v-25.601563h17.066406v25.601563zm-34.132812 0v-25.601563h17.066406v25.601563zm-34.132813 0v-25.601563h17.066406v25.601563zm-34.132813 0v-25.601563h17.066407v25.601563zm34.132813-76.800782h238.933594v34.132813h-238.933594zm238.933594-76.800781h-34.132813v-17.066406h34.132813zm-34.132813 17.066406h34.132813v42.667969h-34.132813zm0 110.933594h34.132813v25.601563h-34.132813zm34.132813-179.199219v17.066406h-34.132813v-17.066406zm-51.199219 41.300782v69.632812h-110.59375c43.578125-15.460938 86.699219-40.277344 110.59375-69.632812zm-238.933594 137.898437v25.601563h-17.066406v-25.601563zm-17.066406 51.199219v-8.53125h307.199219v30.601562l-3.105469-3.109375c-3.351562-3.230469-8.671875-3.1875-11.964844.105469-3.289062 3.292969-3.335937 8.613281-.101562 11.960938l6.425781 6.425781-.070313.09375c-1.101562 1.382812-2.167968 2.785156-3.164062 4.269531-.207031.296875-.429688.585938-.632812.851562h-294.585938zm0 59.734375h17.066406v21.667969l-4.53125-.617188c-2.867187-.398438-5.734375-.808594-8.535156-1.269531-1.304688-.203125-2.644531-.460938-3.960938-.683594zm0 0"/><path d="m426.648438 332.800781c0 4.710938-3.820313 8.53125-8.53125 8.53125-4.714844 0-8.535157-3.820312-8.535157-8.53125 0-4.714843 3.820313-8.535156 8.535157-8.535156 4.710937 0 8.53125 3.820313 8.53125 8.535156zm0 0"/><path d="m93.851562 264.535156c0 4.710938-3.820312 8.53125-8.535156 8.53125-4.710937 0-8.53125-3.820312-8.53125-8.53125 0-4.714844 3.820313-8.535156 8.53125-8.535156 4.714844 0 8.535156 3.820312 8.535156 8.535156zm0 0"/><path d="m127.984375 264.535156c0 4.710938-3.820313 8.53125-8.535156 8.53125-4.710938 0-8.53125-3.820312-8.53125-8.53125 0-4.714844 3.820312-8.535156 8.53125-8.535156 4.714843 0 8.535156 3.820312 8.535156 8.535156zm0 0"/><path d="m162.117188 264.535156c0 4.710938-3.820313 8.53125-8.535157 8.53125-4.710937 0-8.53125-3.820312-8.53125-8.53125 0-4.714844 3.820313-8.535156 8.53125-8.535156 4.714844 0 8.535157 3.820312 8.535157 8.535156zm0 0"/><path d="m196.25 264.535156c0 4.710938-3.820312 8.53125-8.53125 8.53125-4.714844 0-8.535156-3.820312-8.535156-8.53125 0-4.714844 3.820312-8.535156 8.535156-8.535156 4.710938 0 8.53125 3.820312 8.53125 8.535156zm0 0"/><path d="m230.382812 264.535156c0 4.710938-3.820312 8.53125-8.53125 8.53125-4.714843 0-8.535156-3.820312-8.535156-8.53125 0-4.714844 3.820313-8.535156 8.535156-8.535156 4.710938 0 8.53125 3.820312 8.53125 8.535156zm0 0"/><path d="m264.515625 264.535156c0 4.710938-3.820313 8.53125-8.53125 8.53125-4.714844 0-8.535156-3.820312-8.535156-8.53125 0-4.714844 3.820312-8.535156 8.535156-8.535156 4.710937 0 8.53125 3.820312 8.53125 8.535156zm0 0"/><path d="m298.648438 264.535156c0 4.710938-3.820313 8.53125-8.53125 8.53125-4.714844 0-8.535157-3.820312-8.535157-8.53125 0-4.714844 3.820313-8.535156 8.535157-8.535156 4.710937 0 8.53125 3.820312 8.53125 8.535156zm0 0"/><path d="m332.785156 264.535156c0 4.710938-3.820312 8.53125-8.535156 8.53125-4.710938 0-8.53125-3.820312-8.53125-8.53125 0-4.714844 3.820312-8.535156 8.53125-8.535156 4.714844 0 8.535156 3.820312 8.535156 8.535156zm0 0"/><path d="m418.117188 221.867188c29.046874-.074219 56.953124 11.316406 77.652343 31.691406 2.167969 2.1875 5.34375 3.035156 8.3125 2.222656 2.96875-.808594 5.269531-3.15625 6.023438-6.140625.753906-2.984375-.160157-6.144531-2.386719-8.265625-23.886719-23.515625-56.085938-36.660156-89.601562-36.574219-4.714844 0-8.535157 3.820313-8.535157 8.53125 0 4.714844 3.820313 8.535157 8.535157 8.535157zm0 0"/></svg>