<svg height="503pt" viewBox="0 0 503.99918 503" width="503pt" xmlns="http://www.w3.org/2000/svg"><path d="m470.828125 1.335938-97.574219 26.195312c-5.625 1.46875-10.015625 5.859375-11.480468 11.480469-1.574219 6.097656.230468 12.570312 4.722656 16.980469l11.332031 11.332031-111.472656 111.464843-14.695313-38.609374c-1.652344-4.335938-6.503906-6.511719-10.835937-4.859376-4.335938 1.648438-6.511719 6.5-4.863281 10.835938l17.382812 45.625-6.050781 6.0625-244.375 241.535156c-2.375 2.046875-3.414063 5.242188-2.695313 8.289063.722656 3.050781 3.078125 5.445312 6.117188 6.210937 3.039062.769532 6.25-.21875 8.328125-2.5625l212.808593-210.273437c.058594 13.839843 3.371094 27.472656 9.679688 39.792969 3.589844 6.785156 5.847656 14.191406 6.652344 21.824218 0 31.199219-40.285156 72.628906-55.824219 85.957032-2.40625 1.910156-3.578125 4.984374-3.050781 8.011718.523437 3.03125 2.664062 5.527344 5.574218 6.515625 2.914063.984375 6.132813.300781 8.390626-1.785156 2.535156-2.175781 61.699218-53.375 61.699218-98.699219-.710937-9.960937-3.449218-19.671875-8.042968-28.539062-6.796876-15.667969-13.261719-30.585938-3.523438-50.753906l26.429688 26.429687 26.515624 69.648437-63.949218 167.871094h-19.398438c-4.632812 0-8.390625 3.757813-8.390625 8.394532 0 4.632812 3.757813 8.390624 8.390625 8.390624h184.65625c4.636719 0 8.394532-3.757812 8.394532-8.390624 0-4.636719-3.757813-8.394532-8.394532-8.394532h-19.398437l-63.949219-167.871094 46.484375-122.015624 70.757813-70.753907 11.328124 11.328125c3.332032 3.363282 7.859376 5.265625 12.59375 5.296875 1.46875.003907 2.933594-.1875 4.355469-.570312 5.621094-1.464844 10.015625-5.859375 11.480469-11.480469l26.230469-97.574219c2.351562-9.058593-.363281-18.683593-7.101563-25.179687-6.492187-6.785156-16.148437-9.527344-25.238281-7.160156zm-104.902344 485.980468h-109.953125l54.984375-144.292968zm-54.96875-191.445312-14.269531-37.386719c5.964844-.414063 11.582031-2.960937 15.824219-7.175781l24.867187-24.859375zm70.078125-136.816406 4.917969-12.90625c1.652344-4.335938-.523437-9.1875-4.859375-10.835938-4.335938-1.652344-9.1875.523438-10.835938 4.859375l-18.246093 47.910156-51.34375 51.332031c-3.277344 3.277344-8.589844 3.277344-11.867188 0l-29.679687-29.667968 130.574218-130.554688 35.613282 35.613282zm105.898438-129.734376-26.058594 97.152344c-.1875-.074218-.355469-.191406-.496094-.335937l-82.011718-81.996094c-.140626-.148437-.269532-.308594-.386719-.476563l97.203125-26.097656c3.277344-.761718 6.710937.289063 9 2.753906 2.472656 2.285157 3.523437 5.722657 2.75 9zm0 0"/><path d="m453.445312 40.785156-29.082031 7.804688c-4.140625 1.035156-6.84375 5.007812-6.289062 9.238281.558593 4.226563 4.195312 7.367187 8.460937 7.296875.734375 0 1.464844-.097656 2.175782-.292969l29.082031-7.796875c2.902343-.777344 5.171875-3.042968 5.949219-5.945312.777343-2.902344-.050782-6-2.175782-8.125-2.121094-2.125-5.21875-2.957032-8.121094-2.179688zm0 0"/><path d="m153.941406 422.628906c-2.179687 2.105469-3.054687 5.226563-2.289062 8.160156.769531 2.9375 3.058594 5.226563 5.996094 5.996094 2.933593.769532 6.054687-.109375 8.160156-2.289062l8.394531-8.394532c3.179687-3.292968 3.136719-8.527343-.101563-11.765624-3.238281-3.238282-8.472656-3.28125-11.765624-.101563zm0 0"/><path d="m201.84375 453.742188c2.90625 0 5.605469-1.507813 7.136719-3.980469 1.527343-2.476563 1.667969-5.5625.367187-8.164063l-8.394531-16.789062c-2.070313-4.148438-7.113281-5.832032-11.261719-3.757813-4.152344 2.070313-5.835937 7.113281-3.761718 11.261719l8.394531 16.789062c1.421875 2.847657 4.335937 4.644532 7.519531 4.640626zm0 0"/><path d="m163.628906 387.476562-16.789062-8.394531c-4.148438-2.070312-9.191406-.386719-11.261719 3.761719-2.074219 4.148438-.390625 9.191406 3.757813 11.261719l16.789062 8.394531c4.148438 2.070312 9.191406.386719 11.261719-3.761719 2.074219-4.148437.390625-9.191406-3.757813-11.261719zm0 0"/></svg>