<svg height="512pt" viewBox="0 0 512.01092 512" width="512pt" xmlns="http://www.w3.org/2000/svg"><path d="m25.601562 511.195312c.621094 0 1.261719 0 1.894532-.078124 25.539062-1.929688 72.777344-8.242188 110.078125-28.484376 40.257812 31.792969 94.949219 38.308594 141.550781 16.867188s77.234375-67.210938 79.28125-118.46875c2.050781-51.257812-24.828125-99.328125-69.570312-124.421875l7.210937-6.09375c48.5-42.441406 99.457031-81.992187 152.601563-118.449219 8.109374-6.605468 19.144531-8.332031 28.886718-4.523437l.101563.042969c.75.402343 1.558593.691406 2.398437.851562.222656.042969.445313.070312.671875.085938.34375.066406.691407.109374 1.042969.128906.238281 0 .476562-.085938.726562-.109375.355469-.027344.714844-.078125 1.066407-.15625.5-.117188.992187-.277344 1.464843-.484375.363282-.140625.714844-.304688 1.050782-.496094.144531-.085938.296875-.109375.433594-.203125l14.175781-9.515625c11.730469-7.882812 14.855469-23.78125 6.980469-35.515625l-47.566407-70.828125c-3.78125-5.636719-9.648437-9.542969-16.3125-10.855469-6.660156-1.3125-13.570312.074219-19.210937 3.859375l-14.164063 9.515625c-.121093.074219-.179687.203125-.300781.289063-.570312.441406-1.078125.953125-1.519531 1.527344-.195313.246093-.433594.445312-.605469.707031-.554688.863281-.949219 1.820312-1.167969 2.824219v.085937c-.042969.222656 0 .453125 0 .675781-.113281.679688-.140625 1.371094-.085937 2.054688-.175782 10.457031-5.949219 20.011718-15.121094 25.03125-54.308594 35.699218-110.664062 68.183594-168.78125 97.277344-44.234375 23.042968-86.320312 45.007812-130.917969 73.472656-1.03125-1.5625-2.046875-3.175782-3.089843-4.855469-6.953126-11.261719-15.582032-25.222656-37.605469-25.222656-4.710938 0-8.53125 3.820312-8.53125 8.53125 0 4.714843 3.820312 8.535156 8.53125 8.535156 11.949219 0 16.128906 5.859375 23.039062 17.066406 1.070313 1.707031 2.195313 3.480469 3.347657 5.222657-1.707032 1.101562-3.285157 2.125-4.949219 3.242187-21.796875 14.625-33.945313 32.671875-36.121094 53.640625-1.3125 18.871094 4.058594 37.597656 15.171875 52.90625 8.359375 13.066406 20.125 23.609375 34.03125 30.488281-.164062 2.679688-.410156 5.335938-.410156 8.054688.019531 9.929687 1.128906 19.828125 3.300781 29.519531-21.167969 13.109375-44.382813 22.589844-68.675781 28.046875-11.675782 2.652344-19.9570315 13.039063-19.933594 25.011719v27.589844c0 14.136718 11.460938 25.597656 25.601562 25.597656zm315.730469-135.734374c.019531 50.390624-31.589843 95.371093-79.007812 112.421874-47.417969 17.046876-100.433594 2.5-132.507813-36.363281l-.28125-.347656c-2.273437-2.75-4.40625-5.59375-6.390625-8.535156l-.527343-.769531c-4.179688-6.222657-7.765626-12.824219-10.710938-19.71875-.121094-.289063-.222656-.589844-.351562-.855469-1.226563-2.96875-2.328126-5.972657-3.328126-9.085938-.261718-.851562-.519531-1.648437-.765624-2.476562-17.511719-58.175781 11.523437-120.214844 67.414062-144.039063.28125-.113281.554688-.25.851562-.359375 3.082032-1.296875 6.238282-2.425781 9.4375-3.464843.574219-.1875 1.136719-.402344 1.707032-.582032 2.9375-.894531 5.972656-1.628906 8.953125-2.304687.851562-.1875 1.707031-.425781 2.515625-.59375 2.910156-.582031 5.878906-.992188 8.859375-1.359375.945312-.109375 1.875-.304688 2.832031-.398438 3.898438-.386718 7.859375-.597656 11.859375-.597656 4.101563 0 8.203125.210938 12.28125.628906 1.785156.179688 3.507813.546875 5.265625.804688 2.242188.332031 4.496094.597656 6.714844 1.046875 1.9375.402343 3.804687.984375 5.710937 1.476562 1.902344.496094 3.984375.957031 5.972657 1.578125 1.988281.625 3.933593 1.425782 5.894531 2.160156 1.757812.65625 3.535156 1.261719 5.273437 2.015626 43.84375 18.867187 72.269532 61.992187 72.328125 109.71875zm-178.832031-179.703126 31 46.175782c-.476562.101562-.945312.265625-1.421875.367187-3.234375.714844-6.433594 1.527344-9.574219 2.472657-.855468.257812-1.707031.539062-2.5625.855468-1.234375.390625-2.492187.742188-3.710937 1.175782l-28.605469-42.648438c4.933594-2.832031 9.910156-5.648438 14.875-8.398438zm283.417969-174.933593 47.566406 70.828125c1.261719 1.878906 1.722656 4.183594 1.289063 6.40625-.4375 2.21875-1.742188 4.175781-3.621094 5.4375l-7.082032 4.753906-15.148437-22.554688-41.929687-62.464843 7.082031-4.75c1.882812-1.261719 4.191406-1.71875 6.410156-1.277344 2.222656.445313 4.175781 1.753906 5.433594 3.640625zm-215.234375 138.609375c58.667968-29.375 115.558594-62.167969 170.382812-98.210938 7.5-4.828125 13.636719-11.496094 17.828125-19.371094l44.902344 66.875c-8.875.898438-17.375 4.054688-24.679687 9.175782-53.671876 36.800781-105.128907 76.730468-154.105469 119.585937l-12.96875 10.972657c-1.972657-.785157-3.992188-1.367188-5.972657-2.058594-1.570312-.535156-3.105468-1.117188-4.695312-1.601563-2.710938-.855469-5.46875-1.46875-8.226562-2.117187-1.527344-.359375-3.035157-.792969-4.589844-1.101563-3.046875-.605469-6.136719-1.015625-9.234375-1.40625-1.320313-.171875-2.617188-.425781-3.949219-.5625-4.480469-.4375-8.976562-.683593-13.507812-.683593-3.21875 0-6.382813.203124-9.539063.417968l-34.835937-51.839844c17.589843-9.515624 35.210937-18.707031 53.191406-28.074218zm-142.839844 189.789062c-8.792969-5.628906-16.28125-13.066406-21.964844-21.820312-8.773437-12.054688-13.140625-26.761719-12.367187-41.652344 1.628906-15.691406 11.273437-29.566406 28.664062-41.238281 17.21875-11.566407 33.996094-21.976563 50.621094-31.773438l27.449219 40.894531c-28.746094 14.488282-51.425782 38.707032-64 68.34375-.101563.222657-.195313.441407-.289063.664063-1.519531 3.625-2.878906 7.320313-4.078125 11.09375-.179687.546875-.375 1.074219-.546875 1.628906-1.09375 3.578125-2.011719 7.21875-2.816406 10.921875-.144531.683594-.339844 1.339844-.484375 2.023438-.035156.324218-.136719.613281-.1875.914062zm-70.777344 108.773438c-.019531-3.953125 2.695313-7.394532 6.546875-8.292969 24.601563-5.484375 48.1875-14.792969 69.902344-27.589844.4375 1.195313 1.015625 2.320313 1.484375 3.5.777344 1.96875 1.605469 3.90625 2.476562 5.835938 1.074219 2.382812 2.191407 4.738281 3.414063 7.050781.851563 1.609375 1.707031 3.179688 2.652344 4.757812 1.398437 2.449219 2.832031 4.875 4.386719 7.230469.851562 1.339844 1.84375 2.617188 2.773437 3.925781 1.707031 2.414063 3.414063 4.820313 5.324219 7.125.9375 1.152344 1.953125 2.226563 2.9375 3.351563 1.636718 1.886719 3.179687 3.847656 4.929687 5.648437-30.917969 13.589844-64.007812 21.5625-97.722656 23.535157-2.339844.191406-4.652344-.617188-6.367187-2.226563-1.746094-1.613281-2.738282-3.882812-2.738282-6.261718zm0 0"/><path d="m294.273438 303.058594c-.078126-.085938-.1875-.113282-.273438-.1875-39.878906-39.742188-104.386719-39.742188-144.265625 0-.085937.074218-.195313.101562-.273437.1875-.078126.082031-.109376.1875-.1875.273437-39.742188 39.875-39.742188 104.386719 0 144.261719.078124.085938.101562.195312.1875.273438.085937.078124.1875.113281.273437.1875 39.878906 39.742187 104.386719 39.742187 144.265625 0 .085938-.074219.195312-.101563.273438-.1875.074218-.085938.109374-.1875.1875-.273438 39.738281-39.875 39.738281-104.386719 0-144.261719-.0625-.085937-.105469-.199219-.1875-.273437zm-6.375 126.367187-42.992188-43c.375-.789062.707031-1.601562.992188-2.429687h60.867187c-1.667969 16.675781-8.230469 32.480468-18.867187 45.429687zm-150.929688-45.429687h60.867188c.289062.828125.621093 1.640625 1 2.429687l-43 43c-10.636719-12.949219-17.203126-28.753906-18.867188-45.429687zm18.867188-62.5 42.992187 43c-.378906.792968-.710937 1.605468-1 2.433594h-60.859375c1.664062-16.675782 8.230469-32.484376 18.867188-45.433594zm66.03125 62.5c-4.714844 0-8.535157-3.820313-8.535157-8.535156 0-4.710938 3.820313-8.53125 8.535157-8.53125 4.710937 0 8.53125 3.820312 8.53125 8.53125 0 4.714843-3.820313 8.535156-8.53125 8.535156zm10.964843-31.574219c-.792969-.375-1.601562-.707031-2.433593-.988281v-60.871094c16.675781 1.667969 32.484374 8.230469 45.433593 18.867188zm-19.5-.988281c-.828125.285156-1.640625.621094-2.429687.996094l-43-43c12.949218-10.636719 28.757812-17.199219 45.429687-18.867188zm-2.429687 47.070312c.789062.375 1.601562.710938 2.429687.996094v60.867188c-16.671875-1.664063-32.480469-8.230469-45.429687-18.867188zm19.496094.988282c.832031-.285157 1.640624-.621094 2.433593-1l43 43c-12.949219 10.636718-28.757812 17.203124-45.433593 18.867187zm15.5-32.5625c-.289063-.828126-.621094-1.640626-1-2.433594l43-43c10.636718 12.949218 17.199218 28.757812 18.867187 45.433594zm0 0"/><path d="m473.992188 427.132812c2.535156-5.5 3.855468-11.480468 3.875-17.539062 0-23.5625-19.101563-42.664062-42.667969-42.664062-23.5625 0-42.664063 19.101562-42.664063 42.664062.015625 6.058594 1.335938 12.039062 3.871094 17.539062-19.386719 2.066407-34.890625 17.046876-37.621094 36.351563-2.734375 19.304687 8.003906 38 26.058594 45.363281 18.050781 7.367188 38.800781 1.523438 50.355469-14.183594 11.558593 15.695313 32.296875 21.53125 50.34375 14.164063 18.042969-7.367187 28.773437-26.050781 26.046875-45.347656-2.726563-19.296875-18.21875-34.273438-37.597656-36.347657zm-38.792969-43.136718c14.140625 0 25.601562 11.460937 25.601562 25.597656 0 14.140625-11.460937 25.601562-25.601562 25.601562-14.136719 0-25.597657-11.460937-25.597657-25.601562 0-14.136719 11.460938-25.597656 25.597657-25.597656zm-34.132813 110.933594c-10.355468 0-19.6875-6.238282-23.652344-15.804688-3.960937-9.566406-1.769531-20.578125 5.550782-27.898438 7.320312-7.320312 18.332031-9.511718 27.898437-5.550781 9.566407 3.964844 15.804688 13.300781 15.804688 23.652344 0 14.140625-11.460938 25.601563-25.601563 25.601563zm68.265625 0c-14.136719 0-25.597656-11.460938-25.597656-25.601563 0-14.136719 11.460937-25.597656 25.597656-25.597656 14.140625 0 25.601563 11.460937 25.601563 25.597656 0 14.140625-11.460938 25.601563-25.601563 25.601563zm0 0"/></svg>