<svg height="512pt" viewBox="0 0 512 512.06208" width="512pt" xmlns="http://www.w3.org/2000/svg"><path d="m458.003906 7.800781-266.058594 223.367188c-5.796874 4.832031-11.21875 10.097656-16.214843 15.753906l-1.023438.300781c-8.414062 2.558594-14.242187 3.949219-18.183593.648438-2.324219-2.050782-5.574219-2.675782-8.492188-1.640625-2.921875 1.03125-5.050781 3.566406-5.566406 6.621093-.515625 3.054688.664062 6.148438 3.082031 8.082032 4.574219 3.84375 10.371094 5.929687 16.34375 5.878906-6.429687 13.132812-9.859375 27.535156-10.035156 42.15625-.929688 13.96875-1.605469 24.0625-12.980469 33.613281-18.464844 16.148438-38.945312 29.835938-60.925781 40.71875-25.898438 12.972657-50.011719 29.230469-71.75 48.367188-4.085938 3.183593-6.378907 8.148437-6.152344 13.320312.671875 11.230469 12.578125 19.882813 26.898437 29.226563 2.5 1.640625 4.597657 2.972656 5.722657 3.910156 5.28125 7.257812 9.484375 15.238281 12.484375 23.695312 2.433594 5.207032 7.257812 8.898438 12.921875 9.882813 1.25.238281 2.523437.355469 3.796875.359375 4.839844.042969 9.503906-1.8125 12.988281-5.171875 25.371094-27.023437 47.898437-56.582031 67.222656-88.210937 6.210938-10.421876 13.246094-20.332032 21.035157-29.636719 9.828124-7.679688 21.558593-12.550781 33.9375-14.085938 4.457031-.5625 8.460937-3.011719 10.992187-6.726562 2.222656-3.332031 2.90625-7.460938 1.878906-11.332031-3.3125-12.371094-4.269531-36.949219 26.160157-62.53125l19.839843-16.65625c.929688 2.085937 1.402344 4.347656 1.390625 6.628906 0 9.335937-6.722656 20.121094-18.933594 30.378906-5.339843 3.640625-8.902343 9.363281-9.808593 15.761719-.910157 6.402343.921875 12.886719 5.039062 17.867187 5.4375 6.175782 13.300781 9.671875 21.527344 9.566406 7.632813-.0625 14.992187-2.847656 20.753906-7.847656 2.335938-1.960937 3.449219-5.019531 2.917969-8.023437-.53125-3-2.621094-5.492188-5.488281-6.535157-2.863281-1.042968-6.066407-.476562-8.402344 1.484376-4.949219 5.101562-13.085937 5.273437-18.246094.382812-2.398437-2.859375-1.492187-6.082031 2.679688-9.589844 20.6875-17.367187 25.027343-33.214844 25.027343-43.445312-.011718-6.28125-1.84375-12.425782-5.273437-17.6875l33.28125-27.972656c5.207031-4.371094 12.878906-12.332032 22.589844-22.417969 14.898437-15.460938 35.308593-36.640625 57.847656-56.183594 5.816406-4.988281 9.464844-12.046875 10.167969-19.675781l109.160156-91.699219c6.152344-5.019531 9.773438-12.5 9.890625-20.4375-.097656-7.957031-3.71875-15.460937-9.890625-20.480469-12.886719-10.386718-31.273438-10.378906-44.152344.015625zm-86.3125 139.382813c-23.125 20.039062-43.84375 41.542968-58.964844 57.242187-9.386718 9.710938-16.761718 17.390625-21.273437 21.179688l-66.339844 55.699219c-36.453125 30.597656-35.523437 62.292968-32.425781 77.039062-14.867188 2.132812-28.882812 8.226562-40.585938 17.636719-9.328124 10.179687-17.496093 21.367187-24.34375 33.355469-18.664062 30.574218-40.394531 59.167968-64.855468 85.335937-.652344.347656-1.414063.425781-2.125.21875-10.785156-24.558594-15.195313-28.261719-17.066406-29.863281-1.492188-1.265625-4.171876-3.046875-7.398438-5.164063-7.085938-4.085937-13.476562-9.269531-18.933594-15.359375 20.738282-18.261718 43.742188-33.773437 68.445313-46.15625 23.070312-11.480468 44.578125-25.863281 64-42.796875 16.945312-14.234375 18.003906-30.15625 19.027343-45.558593 1.246094-18.773438 2.5625-38.144532 31.078126-63.273438l9.816406 1.636719c2.5.402343 5.027344.613281 7.558594.632812.308593 0 .625.074219.929687.074219.308594 0 .546875-.058594.855469-.066406 2.605468-.027344 5.203125-.253906 7.773437-.683594.324219-.050781.640625-.144531.953125-.203125 2.402344-.457031 4.765625-1.089844 7.074219-1.886719.402344-.144531.8125-.257812 1.214844-.402344 2.4375-.910156 4.796875-2.011718 7.0625-3.292968.460937-.257813.90625-.539063 1.367187-.8125 2.332032-1.367188 4.550782-2.917969 6.640625-4.640625l120.8125-101.332031c.070313-.050782.136719-.0625.207031-.113282.328126-.242187.71875-.390625 1.125-.433594.097657-.023437.199219-.035156.296876-.042968.425781-.015625.847656.058594 1.238281.214844.425781.164062.785156.460937 1.023437.851562.132813.199219.222656.421875.265625.65625 0 .085938.070313.207031.078125.273438.183594 3.878906-1.503906 7.609374-4.53125 10.035156zm119.464844-111.539063-104.105469 87.492188c-.214843-.195313-.476562-.347657-.707031-.535157-.359375-.292968-.726562-.574218-1.121094-.855468-1.21875-.890625-2.539062-1.632813-3.933594-2.21875h-.042968c-.535156-.222656-1.089844-.246094-1.628906-.417969-1.183594-.421875-2.402344-.730469-3.644532-.921875-5.355468-.632812-10.738281.964844-14.878906 4.421875l-.0625.050781-120.832031 101.417969-.144531.09375c-1.746094 1.445313-3.636719 2.714844-5.640626 3.78125-.503906.273437-1.039062.46875-1.550781.714844-1.578125.757812-3.207031 1.398437-4.875 1.914062-.628906.1875-1.28125.332031-1.917969.484375-1.566406.363282-3.152343.617188-4.753906.761719-.792968.066406-1.585937.136719-2.390625.144531-.433593 0-.851562-.070312-1.304687-.078125l251.367187-211.019531c6.5625-4.957031 15.621094-4.957031 22.1875 0 2.304688 1.773438 3.699219 4.480469 3.804688 7.390625-.101563 2.902344-1.492188 5.609375-3.796875 7.378906zm0 0"/></svg>