<svg height="512pt" viewBox="-60 0 512 512.12796" width="512pt" xmlns="http://www.w3.org/2000/svg"><path d="m170.730469 85.460938c-14.136719 0-25.601563 11.460937-25.601563 25.601562v8.53125h-19.488281c-6.796875-.015625-13.3125 2.683594-18.109375 7.5l-99.964844 100.019531c-4.808594 4.777344-7.5117185 11.28125-7.503906 18.058594v141.378906c-.0195312 6.792969 2.683594 13.3125 7.503906 18.101563l100.019532 99.976562c4.777343 4.804688 11.277343 7.507813 18.054687 7.5h141.378906c6.792969.019532 13.3125-2.683594 18.101563-7.5l99.976562-99.976562c4.816406-4.789063 7.519532-11.308594 7.5-18.101563v-141.378906c.019532-6.792969-2.683594-13.3125-7.5-18.101563l-99.976562-99.984374c-4.792969-4.8125-11.308594-7.507813-18.101563-7.492188h-19.488281v-8.53125c0-14.140625-11.460938-25.601562-25.601562-25.601562h-17.066407v-18.277344c16.644531-4.296875 27.496094-20.300782 25.328125-37.351563-2.164062-17.050781-16.671875-29.832031-33.859375-29.832031-17.191406 0-31.695312 12.78125-33.863281 29.832031-2.164062 17.050781 8.6875 33.054688 25.328125 37.351563v18.277344zm8.535156-51.199219c0-9.425781 7.640625-17.066407 17.066406-17.066407s17.066407 7.640626 17.066407 17.066407-7.640626 17.066406-17.066407 17.066406-17.066406-7.640625-17.066406-17.066406zm93.796875 104.898437 99.96875 99.976563c1.601562 1.601562 2.5 3.769531 2.5 6.035156v141.378906c0 2.261719-.898438 4.433594-2.5 6.035157l-99.976562 99.976562c-1.605469 1.59375-3.773438 2.492188-6.035157 2.5h-141.378906c-2.261719-.007812-4.429687-.90625-6.03125-2.5l-99.976563-99.976562c-1.597656-1.605469-2.496093-3.773438-2.503906-6.035157v-141.378906c.007813-2.261719.90625-4.429687 2.503906-6.035156l99.964844-99.976563c1.601563-1.601562 3.777344-2.5 6.042969-2.5h141.378906c2.265625 0 4.441407.898438 6.042969 2.5zm-42.597656-28.097656v8.53125h-68.265625v-8.53125c0-4.714844 3.820312-8.535156 8.53125-8.535156h51.199219c4.714843 0 8.535156 3.820312 8.535156 8.535156zm0 0"/><path d="m34.199219 315.859375c0 89.546875 72.585937 162.136719 162.132812 162.136719 89.542969 0 162.132813-72.589844 162.132813-162.136719 0-89.542969-72.589844-162.132813-162.132813-162.132813-89.503906.101563-162.035156 72.632813-162.132812 162.132813zm307.199219 0c0 80.121094-64.949219 145.070313-145.066407 145.070313-80.121093 0-145.066406-64.949219-145.066406-145.070313 0-80.117187 64.945313-145.066406 145.066406-145.066406 80.078125.089843 144.976563 64.988281 145.066407 145.066406zm0 0"/><path d="m117.140625 215.289062c-3.699219 2.914063-4.335937 8.28125-1.421875 11.984376 2.917969 3.699218 8.285156 4.335937 11.988281 1.417968 19.515625-15.472656 43.714844-23.855468 68.625-23.761718 4.710938 0 8.53125-3.824219 8.53125-8.535157 0-4.710937-3.820312-8.535156-8.53125-8.535156-28.746093-.101563-56.667969 9.570313-79.191406 27.429687zm0 0"/><path d="m97.121094 248.738281c-1.957032-1.136719-4.289063-1.445312-6.476563-.859375-2.1875.582032-4.054687 2.011719-5.1875 3.972656-11.226562 19.464844-17.132812 41.539063-17.125 64.007813 0 4.714844 3.820313 8.535156 8.53125 8.535156 4.714844 0 8.535157-3.820312 8.535157-8.535156-.015626-19.46875 5.105468-38.601563 14.839843-55.464844 2.355469-4.078125.960938-9.296875-3.117187-11.65625zm0 0"/><path d="m172.34375 291.875c-.46875.367188-.894531.785156-1.273438 1.246094l-66.378906 102.578125c-2.1875 3.378906-1.71875 7.828125 1.128906 10.675781 2.84375 2.84375 7.292969 3.316406 10.671876 1.125l102.578124-66.378906c.835938-.871094 1.691407-1.726563 2.5625-2.5625l66.378907-102.578125c2.191406-3.378907 1.71875-7.828125-1.125-10.675781-2.847657-2.84375-7.296875-3.316407-10.675781-1.125l-102.621094 66.421874c-.460938.378907-.878906.804688-1.246094 1.273438zm-31.683594 79.65625 38.996094-60.277344 21.28125 21.28125zm111.34375-111.339844-39 60.277344-21.28125-21.28125zm0 0"/></svg>