<svg height="512pt" viewBox="0 0 512 512.11698" width="512pt" xmlns="http://www.w3.org/2000/svg"><path d="m230.457031 102.515625c0 14.140625 11.464844 25.601563 25.601563 25.601563 3.800781-.015626 7.550781-.890626 10.964844-2.558594l25.667968 25.667968c3.347656 3.234376 8.671875 3.1875 11.960938-.105468 3.292968-3.292969 3.339844-8.613282.105468-11.960938l-25.660156-25.679687c1.671875-3.414063 2.546875-7.160157 2.5625-10.964844 0-14.136719-11.464844-25.597656-25.601562-25.597656-3.800782.015625-7.550782.890625-10.964844 2.558593l-8.601562-8.59375c-3.347657-3.234374-8.671876-3.1875-11.960938.105469-3.292969 3.292969-3.339844 8.613281-.105469 11.960938l8.59375 8.601562c-1.671875 3.414063-2.546875 7.164063-2.5625 10.964844zm34.136719 0c0 4.714844-3.824219 8.535156-8.535156 8.535156-4.714844 0-8.535156-3.820312-8.535156-8.535156 0-4.710937 3.820312-8.53125 8.535156-8.53125 4.710937 0 8.535156 3.820313 8.535156 8.53125zm0 0"/><path d="m264.59375 42.785156c0 4.710938-3.824219 8.53125-8.535156 8.53125-4.714844 0-8.535156-3.820312-8.535156-8.53125 0-4.714844 3.820312-8.535156 8.535156-8.535156 4.710937 0 8.535156 3.820312 8.535156 8.535156zm0 0"/><path d="m204.859375 102.515625c0 4.714844-3.820313 8.535156-8.535156 8.535156-4.710938 0-8.53125-3.820312-8.53125-8.535156 0-4.710937 3.820312-8.53125 8.53125-8.53125 4.714843 0 8.535156 3.820313 8.535156 8.53125zm0 0"/><path d="m207.785156 138.722656c-2.441406 2.441406-3.171875 6.113282-1.851562 9.300782 1.320312 3.1875 4.433594 5.269531 7.886718 5.269531 3.449219 0 6.5625-2.082031 7.882813-5.269531s.589844-6.859376-1.851563-9.300782c-3.332031-3.328125-8.734374-3.328125-12.066406 0zm0 0"/><path d="m264.59375 162.25c0 4.714844-3.824219 8.535156-8.535156 8.535156-4.714844 0-8.535156-3.820312-8.535156-8.535156 0-4.710938 3.820312-8.53125 8.535156-8.53125 4.710937 0 8.535156 3.820312 8.535156 8.53125zm0 0"/><path d="m324.324219 102.515625c0 4.714844-3.820313 8.535156-8.53125 8.535156-4.714844 0-8.535157-3.820312-8.535157-8.535156 0-4.710937 3.820313-8.53125 8.535157-8.53125 4.710937 0 8.53125 3.820313 8.53125 8.53125zm0 0"/><path d="m304.332031 66.308594c2.441407-2.4375 3.171875-6.109375 1.851563-9.296875-1.320313-3.191407-4.433594-5.269531-7.886719-5.269531-3.449219 0-6.5625 2.078124-7.882813 5.269531-1.320312 3.1875-.589843 6.859375 1.851563 9.296875 3.332031 3.332031 8.734375 3.332031 12.066406 0zm0 0"/><path d="m435.257812 256.117188h-42.664062c0-9.425782-7.644531-17.066407-17.070312-17.066407h-17.066407c-9.425781 0-17.066406 7.640625-17.066406 17.066407h-51.199219v-57.171876c47.019532-16.625 75.226563-64.707031 66.792969-113.863281-8.433594-49.152343-51.054687-85.082031-100.925781-85.082031s-92.492188 35.929688-100.925782 85.082031c-8.433593 49.15625 19.773438 97.238281 66.792969 113.863281v57.171876h-51.199219c0-9.425782-7.640624-17.066407-17.066406-17.066407h-17.066406c-9.425781 0-17.070312 7.640625-17.070312 17.066407h-42.664063c-42.398437.046874-76.753906 34.402343-76.8007812 76.800781v170.664062c0 4.714844 3.8203122 8.535157 8.5351562 8.535157h68.265625c4.710937 0 8.53125-3.820313 8.53125-8.535157v-153.597656c0-4.714844 3.820313-8.535156 8.535156-8.535156h25.597657c0 9.425781 7.644531 17.066406 17.070312 17.066406h17.066406c9.425782 0 17.066406-7.640625 17.066406-17.066406h170.664063c0 9.425781 7.640625 17.066406 17.066406 17.066406h17.066407c9.425781 0 17.070312-7.640625 17.070312-17.066406h25.597656c4.714844 0 8.535156 3.820312 8.535156 8.535156v153.597656c0 4.714844 3.820313 8.535157 8.53125 8.535157h68.265626c4.714843 0 8.535156-3.820313 8.535156-8.535157v-170.664062c-.046875-42.398438-34.402344-76.753907-76.800782-76.800781zm-264.53125-153.601563c-.046874-44.128906 33.5625-81.015625 77.507813-85.0625 43.941406-4.046875 83.722656 26.078125 91.738281 69.476563 8.015625 43.398437-18.382812 85.746093-60.875 97.660156-3.464844.960937-6.988281 1.707031-10.546875 2.238281-.503906.066406-1.007812.160156-1.511719.230469-7.316406.980468-14.730468.980468-22.046874 0-.503907-.070313-1.007813-.164063-1.511719-.230469-3.558594-.53125-7.082031-1.277344-10.546875-2.238281-36.75-10.375-62.148438-43.886719-62.207032-82.074219zm68.265626 100.925781c.929687.160156 1.851562.230469 2.78125.359375 1.707031.238281 3.3125.492188 5 .648438 2.824218.261719 5.640624.398437 8.464843.425781h.855469.851562c2.824219 0 5.640626-.164062 8.464844-.425781 1.707032-.15625 3.335938-.410157 5-.648438.929688-.128906 1.851563-.199219 2.785156-.359375v52.675782h-34.203124zm-170.667969 240.410156h-51.199219v-17.066406h25.601562c4.710938 0 8.53125-3.820312 8.53125-8.535156 0-4.710938-3.820312-8.53125-8.53125-8.53125h-25.601562v-25.601562h51.199219zm-51.199219 51.199219v-34.132812h51.199219v34.132812zm76.800781-170.667969c-14.140625 0-25.601562 11.460938-25.601562 25.601563v17.066406h-51.199219v-34.132812c.039062-32.976563 26.757812-59.695313 59.734375-59.734375h42.664063v51.199218zm42.667969 17.066407v-85.332031h17.066406v85.332031zm34.132812-17.066407v-51.199218h170.664063v51.199218zm204.796876 17.066407h-17.066407v-85.332031h17.066407zm68.269531 153.601562v-25.601562h17.066406c4.710937 0 8.53125-3.820313 8.53125-8.53125 0-4.714844-3.820313-8.535157-8.53125-8.535157h-17.066406v-17.066406h51.199219v59.734375zm51.199219-76.800781h-51.199219v-17.066406h17.066406c4.710937 0 8.53125-3.820313 8.53125-8.535156 0-4.710938-3.820313-8.53125-8.53125-8.53125h-17.066406v-34.132813c0-14.140625-11.460938-25.601563-25.601563-25.601563h-25.597656v-51.199218h42.664062c32.976563.039062 59.695313 26.757812 59.734376 59.734375zm0 0"/><path d="m401.125 51.316406c-.714844 14.941406-5.855469 29.332032-14.769531 41.34375-6.039063 7.796875-9.789063 17.117188-10.832031 26.921875-.972657 9.320313 2.308593 18.578125 8.933593 25.203125s15.882813 9.90625 25.203125 8.933594c9.316406.972656 18.574219-2.308594 25.199219-8.933594s9.90625-15.882812 8.933594-25.203125c-1.042969-9.804687-4.792969-19.125-10.828125-26.921875-8.917969-12.011718-14.058594-26.402344-14.773438-41.34375 0-4.710937-3.820312-8.53125-8.53125-8.53125-4.714844 0-8.535156 3.820313-8.535156 8.53125zm17.347656 50.347656c4.101563 5.253907 6.925782 11.386719 8.253906 17.917969 0 12.28125-4.789062 17.066407-17.066406 17.066407-12.28125 0-17.066406-4.785157-17.066406-17.066407 1.324219-6.53125 4.148438-12.664062 8.25-17.917969 2.875-4.625 5.972656-9.667968 8.816406-15.359374 2.804688 5.691406 5.972656 10.734374 8.8125 15.359374zm0 0"/></svg>