<svg height="512pt" viewBox="0 0 512.00136 512" width="512pt" xmlns="http://www.w3.org/2000/svg"><path d="m6.230469 222.949219c-4.535157 1.273437-7.179688 5.980469-5.914063 10.515625l2.347656 8.386718 9.386719 33.628907 2.347657 8.390625c1.324218 4.464844 5.988281 7.039062 10.472656 5.789062 4.488281-1.253906 7.140625-5.875 5.960937-10.378906l91.476563-23.230469 1.390625 4.957031c1.03125 3.6875 4.386719 6.234376 8.210937 6.238282.777344.003906 1.554688-.105469 2.304688-.324219 4.535156-1.265625 7.1875-5.972656 5.921875-10.511719l-1.28125-4.558594 14.164062-3.597656c9.820313 16.746094 23.589844 30.832032 40.109375 41.035156-1.257812 2.921876-2.308594 5.929688-3.140625 9.003907l-51.105469-6.828125h-.214843c-.535157-.015625-1.070313.023437-1.59375.109375-.574219-.011719-1.144531.027343-1.707031.121093-3.351563.867188-5.84375 3.671876-6.316407 7.101563v.460937c-.742187 5.460938-1.089843 10.964844-1.050781 16.476563-.035156 24.410156 6.96875 48.316406 20.175781 68.847656.066407.117188.066407.253907.144531.375.074219.117188.203126.222657.296876.347657 5.113281 7.914062 11.078124 15.242187 17.785156 21.855468 3.375 3.21875 8.710937 3.128906 11.980468-.203125 3.265626-3.332031 3.25-8.667969-.035156-11.984375-3.851562-3.835937-7.425781-7.949218-10.683594-12.304687l36.019532-23.15625c1.1875 1.402343 2.425781 2.765625 3.710937 4.085937l-34.765625 131.335938h-10.496094c-4.710937 0-8.53125 3.820312-8.53125 8.535156 0 4.710938 3.820313 8.53125 8.53125 8.53125h34.136719c4.710938 0 8.53125-3.820312 8.53125-8.53125 0-4.714844-3.820312-8.535156-8.53125-8.535156h-5.976562l31.78125-120.046875c20.992187 12.152343 46.878906 12.152343 67.871093 0l31.761719 120.046875h-5.972656c-4.710937 0-8.53125 3.820312-8.53125 8.535156 0 4.710938 3.820313 8.53125 8.53125 8.53125h34.132813c4.714843 0 8.535156-3.820312 8.535156-8.53125 0-4.714844-3.820313-8.535156-8.535156-8.535156h-10.496094l-34.730469-131.335938c10.496094-10.664062 17.183594-24.484375 19.039063-39.332031h9.121093c4.714844 0 8.535157-3.820313 8.535157-8.53125 0-4.714844-3.820313-8.535156-8.535157-8.535156h-9.128906c-.777344-6.164063-2.394531-12.191407-4.804687-17.917969 33.921874-21.011719 55.109374-57.578125 56.464843-97.460938l29.523438-7.5.941406 3.335938c1.027344 3.683594 4.382813 6.234375 8.207031 6.238281.78125-.003906 1.554688-.113281 2.304688-.324219 4.535156-1.273437 7.179687-5.976562 5.914062-10.511718l-.855468-2.9375 73.898437-18.773438c.34375-.074218.667969-.160156 1.007813-.261718 13.996093-4.097657 19.515624-25.132813 12.851562-48.933594-2.863281-13.242188-10.632812-24.910156-21.742188-32.664063-4.429687-2.65625-9.753906-3.390625-14.738281-2.03125-.347656.101563-.699219.214844-1.046875.34375l-72.195312 23.890625-.757813-2.738281c-.824219-2.9375-3.148437-5.210937-6.105469-5.964844-2.953124-.753906-6.085937.125-8.214843 2.304688-2.132813 2.179687-2.9375 5.332031-2.113281 8.269531l.980468 3.507812-30.949218 10.238282c-30.429688-41.789063-84.308594-59.222656-133.449219-43.179688-49.140625 16.042969-82.351563 61.914063-82.257813 113.605469v1.1875l-13.996094 4.632813-1.21875-4.363282c-1.273437-4.53125-5.980468-7.179687-10.515624-5.910156-4.535157 1.269531-7.183594 5.976562-5.921876 10.511719l1.445313 5.121093-89.679687 29.78125c-1.34375-4.421874-5.960938-6.964843-10.417969-5.746093zm164.199219 20.925781 73.609374-18.6875-6.589843 24.839844c-14.265625 4.050781-26.820313 12.648437-35.753907 24.492187-12.519531-7.828125-23.1875-18.285156-31.265624-30.644531zm42.382812 99.25c-7.667969-11.996094-9.960938-26.660156-6.316406-40.425781 3.644531-13.765625 12.890625-25.375 25.492187-32.003907zm-54.519531 25.269531c-8.722657-16.179687-13.269531-34.28125-13.226563-52.660156 0-2.125.09375-4.148437.207032-6.152344l42.460937 5.65625v.496094c.007813 10.183594 2.316406 20.230469 6.75 29.398437zm97.707031-1.460937c-10.515625.003906-20.773438-3.25-29.363281-9.316406l29.363281-110.933594 29.363281 110.933594c-8.589843 6.066406-18.847656 9.320312-29.363281 9.316406zm43.1875-23.808594-19.171875-72.4375c12.601563 6.632812 21.847656 18.242188 25.492187 32.007812 3.644532 13.769532 1.351563 28.433594-6.320312 40.429688zm11.007812-68.769531c-8.929687-11.761719-21.441406-20.300781-35.652343-24.328125l-8.078125-30.550782 91.355468-23.210937c-2.675781 32.085937-20.324218 61.027344-47.625 78.089844zm182.546876-157.558594c4.835937 17.261719.460937 27.410156-1.195313 27.929687h-.214844c-.105469-.011718-.210937-.03125-.3125-.058593-.398437-.117188-.78125-.28125-1.136719-.488281-6.972656-5.652344-11.777343-13.546876-13.59375-22.339844-.5625-2.003906-1.023437-4.035156-1.382812-6.085938-.136719-.773437-.179688-1.441406-.28125-2.183594-.144531-1.089843-.324219-2.21875-.402344-3.226562-.058594-.792969 0-1.476562-.050781-2.21875s-.074219-1.707031-.050781-2.464844c.027344-.757812.113281-1.375.171875-2.046875.058593-.675781.085937-1.324219.160156-1.894531.078125-.574219.222656-1.167969.34375-1.707031.117187-.539063.1875-1.007813.296875-1.433594.113281-.425781.292969-.90625.445312-1.339844.152344-.433593.230469-.742187.359376-1.03125.136718-.296875.289062-.578125.460937-.855469.105469-.234374.234375-.457031.375-.671874.109375-.144532.234375-.273438.375-.386719.136719-.117188.28125-.296875.390625-.332031.578125.066406 1.128906.265624 1.613281.582031 6.976563 5.621093 11.789063 13.484375 13.628907 22.253906zm-35.472657-16.214844v.488281c-.0625.519532-.050781 1.082032-.09375 1.613282-.121093 1.707031-.179687 3.53125-.128906 5.398437 0 .8125.058594 1.640625.121094 2.476563.101562 1.75.296875 3.542968.554687 5.367187.109375.8125.203125 1.605469.347656 2.433594.457032 2.6875 1.050782 5.347656 1.773438 7.976563v.078124c.597656 2.125 1.28125 4.179688 2.023438 6.175782.238281.660156.511718 1.28125.769531 1.921875.535156 1.332031 1.082031 2.636719 1.707031 3.890625.316406.683594.648438 1.339844.980469 1.996094.601562 1.179687 1.230469 2.316406 1.878906 3.414062.347656.597656.699219 1.195312 1.066406 1.765625.730469 1.144531 1.492188 2.21875 2.277344 3.269531.246094.332032.46875.714844.726563 1.03125l-54.4375 13.824219-12.738282-45.488281zm-57.011719 67.328125-133.019531 33.777344-9.761719-34.878906 130.375-43.21875zm-144.257812-82.574218c30.761719-.03125 59.890625 13.828124 79.277344 37.707031l-82.484375 27.304687c-1.738281-3.957031-6.160157-5.988281-10.296875-4.730468-4.136719 1.257812-6.675782 5.410156-5.917969 9.664062l.113281.417969-82.773437 27.460937c2.441406-54.636718 47.390625-97.710937 102.082031-97.824218zm-14.746094 86.851562 9.441406 33.695312-116.394531 29.5625-7.128906-25.429687zm-130.320312 43.203125 6.828125 24.261719-91.484375 23.226562-4.941406-17.765625zm0 0"/><path d="m25.601562 0c-4.714843 0-8.535156 3.820312-8.535156 8.535156v8.53125h-8.53125c-4.714844 0-8.535156 3.820313-8.535156 8.535156 0 4.710938 3.820312 8.53125 8.535156 8.53125h8.53125v8.535157c0 4.710937 3.820313 8.53125 8.535156 8.53125 4.710938 0 8.53125-3.820313 8.53125-8.53125v-8.535157h8.535157c4.714843 0 8.535156-3.820312 8.535156-8.53125 0-4.714843-3.820313-8.535156-8.535156-8.535156h-8.535157v-8.53125c0-4.714844-3.820312-8.535156-8.53125-8.535156zm0 0"/><path d="m76.800781 68.265625c-4.710937 0-8.53125 3.820313-8.53125 8.535156v8.535157h-8.535156c-4.710937 0-8.53125 3.820312-8.53125 8.53125 0 4.714843 3.820313 8.535156 8.53125 8.535156h8.535156v8.53125c0 4.714844 3.820313 8.535156 8.53125 8.535156 4.714844 0 8.535157-3.820312 8.535157-8.535156v-8.53125h8.53125c4.714843 0 8.535156-3.820313 8.535156-8.535156 0-4.710938-3.820313-8.53125-8.535156-8.53125h-8.53125v-8.535157c0-4.714843-3.820313-8.535156-8.535157-8.535156zm0 0"/><path d="m358.402344 34.132812c-4.714844 0-8.535156 3.820313-8.535156 8.535157v8.53125h-8.53125c-4.714844 0-8.535157 3.820312-8.535157 8.535156 0 4.710937 3.820313 8.53125 8.535157 8.53125h8.53125v8.535156c0 4.710938 3.820312 8.535157 8.535156 8.535157 4.710937 0 8.53125-3.824219 8.53125-8.535157v-8.535156h8.535156c4.710938 0 8.53125-3.820313 8.53125-8.53125 0-4.714844-3.820312-8.535156-8.53125-8.535156h-8.535156v-8.53125c0-4.714844-3.820313-8.535157-8.53125-8.535157zm0 0"/><path d="m503.46875 17.066406h-8.535156v-8.53125c0-4.714844-3.820313-8.535156-8.53125-8.535156-4.714844 0-8.535156 3.820312-8.535156 8.535156v8.53125h-8.53125c-4.714844 0-8.535157 3.820313-8.535157 8.535156 0 4.710938 3.820313 8.53125 8.535157 8.53125h8.53125v8.535157c0 4.710937 3.820312 8.53125 8.535156 8.53125 4.710937 0 8.53125-3.820313 8.53125-8.53125v-8.535157h8.535156c4.710938 0 8.53125-3.820312 8.53125-8.53125 0-4.714843-3.820312-8.535156-8.53125-8.535156zm0 0"/><path d="m34.132812 136.535156c0 4.710938-3.820312 8.53125-8.53125 8.53125-4.714843 0-8.535156-3.820312-8.535156-8.53125 0-4.714844 3.820313-8.535156 8.535156-8.535156 4.710938 0 8.53125 3.820312 8.53125 8.535156zm0 0"/><path d="m85.335938 162.132812c0 4.714844-3.820313 8.535157-8.535157 8.535157-4.710937 0-8.53125-3.820313-8.53125-8.535157 0-4.710937 3.820313-8.53125 8.53125-8.53125 4.714844 0 8.535157 3.820313 8.535157 8.53125zm0 0"/><path d="m128 34.132812c0 4.714844-3.820312 8.535157-8.53125 8.535157-4.714844 0-8.535156-3.820313-8.535156-8.535157 0-4.710937 3.820312-8.53125 8.535156-8.53125 4.710938 0 8.53125 3.820313 8.53125 8.53125zm0 0"/><path d="m290.132812 25.601562c0 4.710938-3.820312 8.53125-8.53125 8.53125-4.714843 0-8.535156-3.820312-8.535156-8.53125 0-4.714843 3.820313-8.535156 8.535156-8.535156 4.710938 0 8.53125 3.820313 8.53125 8.535156zm0 0"/><path d="m409.601562 17.066406c0 4.714844-3.820312 8.535156-8.535156 8.535156-4.710937 0-8.53125-3.820312-8.53125-8.535156 0-4.710937 3.820313-8.53125 8.53125-8.53125 4.714844 0 8.535156 3.820313 8.535156 8.53125zm0 0"/><path d="m486.402344 196.265625c0 4.714844-3.820313 8.535156-8.535156 8.535156-4.710938 0-8.53125-3.820312-8.53125-8.535156 0-4.710937 3.820312-8.53125 8.53125-8.53125 4.714843 0 8.535156 3.820313 8.535156 8.53125zm0 0"/><path d="m187.734375 59.734375c0 4.710937-3.820313 8.53125-8.53125 8.53125-4.714844 0-8.535156-3.820313-8.535156-8.53125 0-4.714844 3.820312-8.535156 8.535156-8.535156 4.710937 0 8.53125 3.820312 8.53125 8.535156zm0 0"/></svg>