<svg height="511pt" viewBox="-76 0 511 511.99722" width="511pt" xmlns="http://www.w3.org/2000/svg"><path d="m64.007812 303.886719c-4.644531-9.867188-13.117187-17.40625-23.457031-20.875-7.863281-2.53125-16.421875-1.671875-23.628906 2.363281-15.878906 9.019531-21.160156 31.746094-11.773437 50.730469 4.644531 9.867187 13.117187 17.40625 23.457031 20.875 2.984375.929687 6.09375 1.40625 9.222656 1.414062 5.042969.011719 10.003906-1.289062 14.386719-3.777343.691406-.394532 1.246094-.941407 1.894531-1.382813l12.332031 8.242187c-1.230468 3.046876-1.867187 6.304688-1.867187 9.589844 0 10.355469 6.238281 19.6875 15.800781 23.648438 9.566406 3.960937 20.574219 1.773437 27.898438-5.546875l23.585937-23.570313c19.472656 10.414063 42.28125 12.6875 63.425781 6.324219-7.429687 9.519531-9.167968 22.300781-4.546875 33.460937-5.597656 6.441407-16.214843 12.746094-36.695312 12.746094-50.34375 0-78.335938 48.640625-88.046875 69.539063-2.484375 5.285156-2.09375 11.476562 1.039062 16.410156 3.128906 4.929687 8.566406 7.917969 14.40625 7.917969h32.265625c6.9375.070312 13.199219-4.136719 15.761719-10.582032 8.363281-21.84375 37.820312-32.085937 92.84375-32.085937 19.351562 0 24.039062 19.433594 25.15625 27.804687 1.0625 8.511719 8.3125 14.894532 16.894531 14.863282h34.355469c4.792969 0 9.367188-2.011719 12.609375-5.542969 3.246094-3.53125 4.859375-8.257813 4.457031-13.035156-2.851562-32.621094-20.011718-45.164063-38.175781-58.484375-9.796875-6.8125-18.886719-14.585938-27.136719-23.203125 7.496094-10.847657 7.941406-25.085938 1.132813-36.378907 3.757812-15.746093 2.261719-32.289062-4.265625-47.101562 15.148437-30.027344 11.164062-66.160156-10.164063-92.160156l28.773438-28.734375c6.085937 3.882812 13.144531 5.953125 20.363281 5.972656 17.050781.027344 32.070312-11.210937 36.851562-27.578125 4.785157-16.367188-1.820312-33.925781-16.203124-43.085938l1.707031-3.90625c5.078125-11.746093 3.097656-25.347656-5.121094-35.160156l2.066406-2.0625c3.214844-3.191406 5.015625-7.539062 5-12.066406-.023437-1.476562-.234375-2.941406-.628906-4.359375l15.410156-15.421875c1.417969.398438 2.886719.613281 4.359375.640625 4.511719-.003906 8.835938-1.800781 12.023438-4.992187l12.066406-12.066407c3.203125-3.199219 5-7.542969 5-12.070312 0-4.527344-1.796875-8.871094-5-12.070313l-24.132812-24.132812c-6.664063-6.660156-17.464844-6.660156-24.132813 0l-12.082031 12.066406c-4.257813 4.3125-5.910156 10.558594-4.34375 16.410156l-15.425782 15.4375c-5.859374-1.582031-12.117187.078125-16.421874 4.359375l-138.785157 138.777344c-.085937.085937-.109375.207031-.195312.289063-.578125.632812-1.054688 1.347656-1.417969 2.125-.09375.207031-.203125.386718-.28125.589843-.058594.109375-.113281.21875-.160156.332031l-3.335938 10.003907c-1.363281 4.0625-3.648437 7.757812-6.675781 10.792969l-6.152344 6.152343c-6.582031 6.605469-6.582031 17.289063 0 23.894531l12.144531 12.140626c6.464844 6.527343 16.96875 6.660156 23.59375.300781l6.453126-6.136719.160156-.152344c3.871094-3.964844 8.835937-6.691406 14.257812-7.824218l5.828125-1.9375 25.933594 25.933593c2.132813 2.128907 5.023437 3.324219 8.039063 3.316407.980468-.0625 1.949218-.246094 2.882812-.554688 6.929688 10.484375 7.535156 23.921875 1.582031 34.988281-5.953125 11.0625-17.5 17.964844-30.0625 17.960938-1.074219-.050781-2.148437-.15625-3.210937-.3125.371094-4.613281-1.289063-9.160157-4.546875-12.445313l-13.652344-13.652344c-6.238281-6.234374-16.351563-6.234374-22.589844 0l-6.503906 6.503907-62.964844-62.96875c-3.347656-3.234375-8.671875-3.1875-11.964843.105469-3.289063 3.289062-3.335938 8.613281-.101563 11.960937l62.96875 62.96875-31.574219 31.574219-11.871094-7.9375c5.015626-11.625 4.613282-24.871094-1.09375-36.171875zm-30.402343 36.777343c-5.855469-2.085937-10.605469-6.46875-13.160157-12.132812-5.347656-10.820312-3.113281-23.785156 4.890626-28.316406 1.820312-1.03125 3.878906-1.570313 5.972656-1.558594 1.449218.003906 2.886718.226562 4.269531.664062 5.84375 2.09375 10.585937 6.476563 13.132813 12.144532 5.347656 10.820312 3.113281 23.78125-4.890626 28.3125-3.132812 1.707031-6.835937 2.027344-10.214843.886718zm205.773437 51.867188c-.0625 6.121094-3.371094 11.746094-8.6875 14.777344l-.433594.230468c-7.789062 3.820313-17.195312 1.410157-22.1875-5.683593-1.839843-2.761719-2.820312-6.007813-2.824218-9.324219 0-9.425781 7.640625-17.066406 17.066406-17.066406s17.066406 7.640625 17.066406 17.066406zm28.160156 56.164062c17.519532 12.800782 29.082032 21.335938 31.195313 46.234376l-34.328125-.085938c-2.78125-20.582031-15.273438-42.582031-42.09375-42.582031-39.671875 0-94.113281 4.464843-108.605469 42.667969l-32.195312-.078126c10.316406-22.277343 33.511719-59.65625 72.53125-59.65625 17.195312 1.246094 34.167969-4.476562 47.097656-15.878906.46875.367188.988281.65625 1.484375.996094.496094.34375.851562.609375 1.3125.855469 1.144531.714843 2.328125 1.363281 3.550781 1.9375 3.386719 1.625 7.019531 2.679687 10.753907 3.113281l.988281.101562c1.03125.09375 2.023437.308594 3.082031.308594 3-.042968 5.980469-.484375 8.863281-1.3125 1.078125-.285156 2.117188-.597656 3.160157-.984375.722656-.273437 1.433593-.542969 2.132812-.851562.359375-.164063.726562-.265625 1.074219-.4375 9.09375 9.558593 19.144531 18.152343 29.996093 25.652343zm-30.832031-87.039062c-4.5-2.136719-9.414062-3.25-14.394531-3.261719-.085938 0-.164062 0-.257812 0 4.820312-3.59375 9.246093-7.6875 13.210937-12.210937 1.191406 5.074218 1.671875 10.292968 1.425781 15.5zm-100.085937-163.574219 12.074218-12.058593 24.121094 24.125-12.0625 12.074218-12.066406-12.066406zm108.609375-108.613281 24.140625 24.132812-84.476563 84.480469-24.132812-24.132812zm41.082031 106.792969c-6.898438-.019531-13.363281-3.371094-17.347656-9-.105469-.144531-.242188-.265625-.34375-.417969-.691406-1.046875-1.292969-2.152344-1.792969-3.304688-.050781-.109374-.125-.210937-.175781-.324218-.433594-1.078125-.78125-2.1875-1.035156-3.320313-.050782-.238281-.160157-.460937-.203126-.699219-1.460937-6.976562.675782-14.21875 5.683594-19.289062 5.011719-5.070312 12.230469-7.289062 19.222656-5.910156.34375.070312.675782.179687 1.015626.265625 10.371093 2.648437 17.175781 12.574219 15.902343 23.203125-1.273437 10.628906-10.222656 18.671875-20.925781 18.796875zm0-59.730469c-.726562 0-1.402344.167969-2.109375.210938-1.007813.0625-1.988281.164062-2.976563.300781-1.730468.230469-3.441406.578125-5.121093 1.039062-.777344.214844-1.535157.453125-2.296875.71875-1.636719.566407-3.234375 1.242188-4.777344 2.03125-.851562.417969-1.648438.851563-2.441406 1.328125-1.285156.777344-2.523438 1.632813-3.703125 2.5625-.519531.398438-1.125.691406-1.621094 1.117188l30.164063-30.132813c3.296874 4.796875 3.894531 10.949219 1.589843 16.292969l-2.089843 4.804688c-.703126-.085938-1.394532 0-2.09375 0-.867188-.078126-1.671876-.273438-2.523438-.273438zm31.332031-119.46875 24.132813 24.140625-12.066406 12.066406-24.140626-24.140625zm-18.105469 30.164062 6.03125 6.035157 6.042969 6.042969-12.074219 12.066406-12.066406-12.066406zm-30.167968 18.109376 24.132812 24.132812-12.066406 12.066406-24.140625-24.132812zm-138.785156 174.984374-6.074219 5.972657-12.144531-11.945313 6.152343-6.144531c4.140625-4.160156 7.425781-9.085937 9.679688-14.507813l8.421875 8.421876 8.414062 8.425781c-5.492187 2.128906-10.429687 5.472656-14.449218 9.777343zm45.097656-8.882812 81.539062-81.542969c-.554687.648438-.992187 1.390625-1.503906 2.082031-.511719.691407-1.183594 1.542969-1.707031 2.371094-.75 1.210938-1.429688 2.464844-2.039063 3.753906-.417968.855469-.851562 1.707032-1.226562 2.558594-.574219 1.488282-1.046875 3.011719-1.417969 4.558594-.214844.785156-.503906 1.535156-.664063 2.347656-.488281 2.421875-.742187 4.890625-.753906 7.363282.027344 2.335937.261719 4.660156.699219 6.953124.113281.566407.230469 1.109376.359375 1.707032.445312 1.949218 1.039062 3.863281 1.785156 5.71875.101563.253906.167969.519531.28125.777344.773438 1.84375 1.695313 3.625 2.753906 5.324218l-46.46875 46.480469-10.609374 10.574219zm46.628906 58.691406c.023438-10.636718-3.28125-21.015625-9.457031-29.679687l12.1875-12.183594c19.101562 24.527344 19.199219 58.867187.242187 83.507813-18.957031 24.640624-52.175781 33.347656-80.78125 21.171874l13.40625-13.40625c4.300782 1.179688 8.742188 1.78125 13.203125 1.789063 28.261719-.027344 51.171875-22.933594 51.199219-51.199219zm-83.867188 20.601563 12.066407 12.074219-1.785157 1.773437-24.480468 24.484375-28.03125 28.03125c-3.332032 3.332031-8.734375 3.332031-12.066406 0-3.332032-3.332031-3.332032-8.734375 0-12.066406zm0 0"/></svg>