<svg height="512pt" viewBox="0 0 512 512.00197" width="512pt" xmlns="http://www.w3.org/2000/svg"><path d="m512 213.335938c-.046875-24.957032-18.0625-46.253907-42.664062-50.433594v-19.046875c16.640624-4.296875 27.492187-20.296875 25.328124-37.347657-2.167968-17.054687-16.675781-29.832031-33.863281-29.832031s-31.695312 12.777344-33.859375 29.832031c-2.167968 17.050782 8.683594 33.050782 25.328125 37.347657v19.046875c-15.386719 2.617187-28.742187 12.089844-36.292969 25.746094-3.460937-3.261719-7.566406-5.765626-12.050781-7.347657-29.820312-66.917969-100.875-105.457031-173.230469-93.949219-72.351562 11.503907-127.949218 70.183594-135.539062 143.050782h-69.554688c-14.140624 0-25.601562 11.460937-25.601562 25.601562v34.132813c0 14.136719 11.460938 25.597656 25.601562 25.597656h17.066407v25.601563c.027343 5.558593 1.886719 10.957031 5.28125 15.359374-10.597657 7.765626-15.753907 20.960938-13.230469 33.855469 2.523438 12.898438 12.269531 23.171875 25.015625 26.371094v43.878906h-17.066406c-14.140625 0-25.601563 11.460938-25.601563 25.601563v17.066406c0 4.710938 3.820313 8.535156 8.535156 8.535156h85.332032c4.714844 0 8.535156-3.824218 8.535156-8.535156v-17.066406c0-14.140625-11.460938-25.601563-25.601562-25.601563h-17.066407v-43.878906c12.722657-3.210937 22.449219-13.476563 24.972657-26.355469 2.519531-12.878906-2.617188-26.054687-13.1875-33.828125 3.40625-4.414062 5.261718-9.828125 5.28125-15.402343v-25.601563h15.300781c20.988281 45.429687 61.882812 78.53125 110.6875 89.601563-5.71875 31.171874-22.574219 58.800781-36.875 63.367187-7.210938 2.148437-12.195313 8.726563-12.3125 16.25v10.152344c.015625 9.324219 7.570312 16.882812 16.894531 16.898437h136.875c9.328125-.015625 16.882812-7.574218 16.898438-16.898437v-10.152344c-.136719-7.511719-5.117188-14.070313-12.316407-16.214844-14.308593-4.566406-31.1875-32.246093-36.878906-63.472656 73.746094-16.636719 126.089844-82.195313 125.992187-157.796875 0-2.015625-.066406-4.0625-.152343-6.152344 7.808593 11.925782 20.234375 20.0625 34.289062 22.449219v197.035156h-17.070312c-14.136719 0-25.597657 11.460938-25.597657 25.601563v17.066406c0 4.710938 3.820313 8.535156 8.53125 8.535156h85.335938c4.710938 0 8.53125-3.824218 8.53125-8.535156v-17.066406c0-14.140625-11.460938-25.601563-25.597656-25.601563h-17.066406v-197.035156c24.601562-4.179687 42.617187-25.472656 42.664062-50.429687zm-409.597656 273.066406v8.53125h-68.269532v-8.53125c0-4.714844 3.820313-8.535156 8.535157-8.535156h51.199219c4.714843 0 8.535156 3.820312 8.535156 8.535156zm392.53125 0v8.53125h-68.265625v-8.53125c0-4.714844 3.820312-8.535156 8.53125-8.535156h51.203125c4.710937 0 8.53125 3.820312 8.53125 8.535156zm-51.199219-375.46875c0-9.425782 7.640625-17.066406 17.066406-17.066406s17.066407 7.640624 17.066407 17.066406c0 9.425781-7.640626 17.070312-17.066407 17.070312s-17.066406-7.644531-17.066406-17.070312zm-41.128906 116.105468c-.316407.238282-.640625.46875-.976563.683594-.617187.390625-1.261718.742188-1.925781 1.050782-.273437.125-.539063.261718-.855469.375-.769531.300781-1.5625.546874-2.371094.734374-.238281.058594-.46875.144532-.707031.1875-1.066406.210938-2.148437.320313-3.234375.332032-9.425781 0-17.066406-7.640625-17.066406-17.066406.003906-1.261719.152344-2.519532.441406-3.746094 0-.152344.105469-.308594.144532-.460938.28125-1.089844.664062-2.148437 1.152343-3.15625 2.804688-5.570312 8.363281-9.222656 14.585938-9.59375h.410156c1.265625-.039062 2.535156.070313 3.777344.324219 6.605469 1.347656 11.785156 6.46875 13.21875 13.054687 1.429687 6.585938-1.164063 13.394532-6.613281 17.359376zm-385.539063 63.097657v-34.132813c0-4.714844 3.820313-8.535156 8.535156-8.535156h85.332032c4.714844 0 8.535156 3.820312 8.535156 8.535156v34.132813c-.015625 1.058593-.226562 2.105469-.625 3.085937-.164062.339844-.351562.667969-.554688.984375-.296874.574219-.660156 1.113281-1.082031 1.601563-.292969.304687-.609375.589844-.9375.855468-.789062.6875-1.714843 1.199219-2.714843 1.5-.839844.308594-1.726563.476563-2.621094.503907h-85.332032c-4.714843 0-8.535156-3.820313-8.535156-8.53125zm51.203125 110.933593c-9.425781 0-17.070312-7.644531-17.070312-17.066406 0-9.425781 7.644531-17.070312 17.070312-17.070312 9.421875 0 17.066407 7.644531 17.066407 17.070312 0 9.421875-7.644532 17.066406-17.066407 17.066406zm8.53125-59.734374c0 4.710937-3.820312 8.53125-8.53125 8.53125-4.714843 0-8.535156-3.820313-8.535156-8.53125v-25.601563h17.066406zm247.023438 143.632812 2.558593-8.132812-2.113281 8.117187.167969 9.980469-136.703125.171875.445313-10.136719c25.34375-8.097656 45.097656-48.476562 49.722656-85.222656v-.078125c.332031-2.710938.589844-5.390625.75-8.019531.164062-2.628907.257812-5.121094.257812-7.679688v-136.5c0-9.425781 7.640625-17.066406 17.066406-17.066406 9.425782 0 17.066407 7.640625 17.066407 17.066406v15.078125l-10.640625-12.167969c-2.011719-2.296875-5.089844-3.34375-8.085938-2.753906-2.992187.59375-5.441406 2.734375-6.425781 5.625-.980469 2.886719-.351563 6.078125 1.660156 8.375l23.515625 26.847656v95.53125c0 2.507813.085938 5.066406.257813 7.679688.160156 2.625.417969 5.304687.75 8.019531v.078125c4.652343 36.710938 24.40625 77.089844 49.75 85.1875zm-33.542969-96.699219c-.0625-1.398437-.148438-2.832031-.148438-4.265625v-76.027344l14.074219 16.085938c4.867188 5.550781 11.886719 8.734375 19.265625 8.738281h26.394532c4.714843 0 8.535156-3.820312 8.535156-8.53125 0-4.714843-3.820313-8.535156-8.535156-8.535156h-26.394532c-2.457031 0-4.796875-1.066406-6.414062-2.917969l-26.925782-30.769531v-34.578125c0-18.851562-15.28125-34.132812-34.132812-34.132812s-34.132812 15.28125-34.132812 34.132812v105.574219c-23.082032-7.449219-43.078126-22.269531-56.917969-42.1875-2.695313-3.867188-8.015625-4.816407-11.882813-2.121094-3.867187 2.695313-4.816406 8.015625-2.121094 11.882813 17.054688 24.480468 42.152344 42.210937 70.921876 50.105468v13.28125c0 1.433594-.085938 2.867188-.144532 4.265625-41.949218-10.117187-77.171875-38.476562-96-77.304687.214844-.152344.375-.367188.582032-.519532 1.226562-.9375 2.371093-1.988281 3.410156-3.132812.351562-.382812.648437-.785156.972656-1.1875.878906-1.070312 1.664062-2.210938 2.355469-3.410156.265625-.472656.53125-.929688.769531-1.417969.617188-1.28125 1.128906-2.609375 1.519531-3.976563.144531-.476562.332031-.9375.453125-1.433593.464844-1.882813.714844-3.8125.75-5.75v-34.132813c0-1.722656-.171875-3.4375-.511718-5.121094-.113282-.554687-.34375-1.058593-.488282-1.605468-.257812-1.0625-.582031-2.109375-.972656-3.132813-.253906-.613281-.613281-1.160156-.921875-1.707031-.414063-.875-.875-1.730469-1.382813-2.558594-.382812-.578125-.851562-1.074218-1.289062-1.621094-.550781-.746093-1.140625-1.460937-1.765625-2.140624-.492187-.503907-1.066406-.921876-1.601563-1.390626-.671874-.605468-1.375-1.175781-2.101562-1.707031-.597656-.417969-1.253906-.742187-1.886719-1.109375-.757812-.46875-1.546875-.894531-2.355469-1.273437-.6875-.304688-1.421874-.511719-2.140624-.75-.835938-.3125-1.691407-.578125-2.558594-.792969-.769532-.179688-1.5625-.238281-2.347656-.34375-.785157-.101562-1.382813-.269531-2.097657-.304688 7.425781-63.140624 55.128907-114.070312 117.648438-125.609374 62.519531-11.542969 125.261719 19.003906 154.742187 75.332031-1.558594.394531-3.089844.90625-4.574218 1.527343-.246094.09375-.519532.144532-.757813.246094-1.890625.816406-3.699219 1.800782-5.410156 2.945313-.519531.339843-.980469.757812-1.484375 1.132812-1.152344.835938-2.25 1.742188-3.285156 2.714844-.546876.519531-1.050782 1.089844-1.5625 1.707031-.878907.945313-1.699219 1.9375-2.464844 2.976563-.460938.648437-.90625 1.304687-1.332032 1.980469-.683593 1.101562-1.296874 2.238281-1.84375 3.414062-.339843.707031-.683593 1.398438-.972656 2.140625-.503906 1.320313-.925781 2.671875-1.261718 4.046875-.171876.664062-.394532 1.296875-.523438 1.976562-1.960938 9.992188.667969 20.339844 7.160156 28.183594 6.492188 7.84375 16.160156 12.363282 26.34375 12.308594 2.109375-.019531 4.214844-.230469 6.289063-.632812.332031-.066407.664062-.117188.996093-.195313.335938-.078125.855469-.128906 1.238282-.230469v1.058594c.085937 66.90625-45.730469 125.140625-110.777344 140.800781zm136.386719-174.933593c0-18.851563 15.28125-34.132813 34.132812-34.132813 18.851563 0 34.132813 15.28125 34.132813 34.132813 0 18.851562-15.28125 34.132812-34.132813 34.132812-18.851562 0-34.132812-15.28125-34.132812-34.132812zm0 0"/><path d="m374.539062 264.730469c-2.214843-.484375-4.53125-.066407-6.4375 1.15625-1.90625 1.226562-3.246093 3.160156-3.726562 5.371093-1.175781 5.390626-2.753906 10.6875-4.726562 15.839844-1.675782 4.402344.535156 9.332032 4.9375 11.007813.972656.375 2 .5625 3.039062.5625 3.542969.003906 6.71875-2.183594 7.980469-5.496094 2.273437-5.953125 4.09375-12.066406 5.453125-18.292969.996094-4.601562-1.921875-9.144531-6.519532-10.148437zm0 0"/><path d="m256 119.46875c-56.535156.234375-106.304688 37.324219-122.691406 91.433594-1.339844 4.515625 1.230468 9.261718 5.742187 10.609375.789063.238281 1.609375.359375 2.433594.355469 3.773437 0 7.097656-2.480469 8.175781-6.101563 14.207032-46.890625 57.34375-79.03125 106.339844-79.230469 34.027344-.078125 66.191406 15.542969 87.167969 42.335938 1.84375 2.515625 4.914062 3.824218 8.007812 3.414062s5.714844-2.476562 6.839844-5.386718c1.121094-2.910157.566406-6.203126-1.449219-8.585938-24.191406-30.921875-61.304687-48.945312-100.566406-48.84375zm0 0"/><path d="m253.304688 67.832031c4.46875 1.484375 9.296874-.929687 10.785156-5.398437l8.535156-25.601563c.863281-2.601562.429688-5.460937-1.171875-7.683593-1.605469-2.226563-4.175781-3.542969-6.917969-3.546876h-9.660156l8.226562-12.332031c2.613282-3.917969 1.554688-9.21875-2.363281-11.832031-3.921875-2.617188-9.222656-1.558594-11.835937 2.363281l-17.066406 25.597657c-1.75 2.621093-1.910157 5.988281-.425782 8.761718 1.484375 2.777344 4.375 4.507813 7.523438 4.507813h13.757812l-4.78125 14.371093c-1.488281 4.46875.925782 9.300782 5.394532 10.792969zm0 0"/><path d="m389.835938 110.5c4.472656 1.484375 9.300781-.933594 10.789062-5.402344l8.53125-25.597656c.867188-2.601562.429688-5.460938-1.171875-7.6875-1.601563-2.222656-4.175781-3.542969-6.917969-3.542969h-9.660156l8.226562-12.332031c1.691407-2.535156 1.902344-5.78125.554688-8.515625-1.351562-2.734375-4.058594-4.539063-7.101562-4.738281-3.042969-.195313-5.960938 1.246094-7.652344 3.78125l-17.066406 25.601562c-1.746094 2.617188-1.910157 5.984375-.425782 8.761719 1.484375 2.773437 4.378906 4.507813 7.527344 4.507813h13.753906l-4.777344 14.371093c-1.492187 4.46875.921876 9.300781 5.390626 10.792969zm0 0"/><path d="m108.238281 110.5c4.46875 1.484375 9.296875-.933594 10.785157-5.402344l8.535156-25.597656c.863281-2.601562.429687-5.460938-1.171875-7.6875-1.605469-2.222656-4.175781-3.542969-6.917969-3.542969h-9.660156l8.226562-12.332031c2.613282-3.921875 1.554688-9.21875-2.363281-11.835938-3.921875-2.613281-9.222656-1.558593-11.835937 2.363282l-17.066407 25.601562c-1.75 2.617188-1.914062 5.984375-.425781 8.761719 1.484375 2.773437 4.375 4.507813 7.523438 4.507813h13.757812l-4.78125 14.371093c-1.488281 4.46875.925781 9.300781 5.394531 10.792969zm0 0"/></svg>