<svg height="512pt" viewBox="-47 0 512 512.00027" width="512pt" xmlns="http://www.w3.org/2000/svg"><path d="m2.222656 486.511719c-2.996094 5.277343-2.960937 11.75.089844 16.996093 3.046875 5.25 8.65625 8.480469 14.722656 8.492188h41.105469c6.347656.035156 12.179687-3.492188 15.097656-9.128906 4.351563-9.742188 13.890625-16.140625 24.558594-16.472656h221.867187c10.667969.332031 20.207032 6.734374 24.558594 16.480468 2.917969 5.632813 8.75 9.15625 15.09375 9.121094h41.105469c6.078125.003906 11.699219-3.222656 14.757813-8.472656 3.0625-5.25 3.097656-11.730469.097656-17.015625-14.226563-25.304688-38.894532-43.035157-67.410156-48.460938 3.914062-8.972656 5.933593-18.660156 5.929687-28.449219-.878906-18.949218-3.347656-37.789062-7.382813-56.320312-5.621093-26.394531-8.863281-53.242188-9.683593-80.214844v-162.132812c14.136719 0 25.597656-11.460938 25.597656-25.601563v-9.667969c-.097656-12.769531-9.539063-23.542968-22.183594-25.316406-13.796875-1.957031-26.507812-8.582031-36.011719-18.773437-16.785156-14.789063-35.804687-31.574219-95.402343-31.574219-59.597657 0-78.617188 16.785156-95.402344 31.574219-9.503906 10.191406-22.214844 16.816406-36.011719 18.773437-12.648437 1.773438-22.085937 12.546875-22.1875 25.316406v9.667969c0 14.140625 11.460938 25.601563 25.601563 25.601563v162.132812c-.824219 26.972656-4.0625 53.820313-9.6875 80.214844-4.03125 18.53125-6.5 37.371094-7.378907 56.320312-.007812 9.789063 2.007813 19.472657 5.921876 28.449219-28.5 5.4375-53.144532 23.171875-67.363282 48.460938zm206.507813-119.578125c9.425781 0 17.066406 7.640625 17.066406 17.066406s-7.640625 17.066406-17.066406 17.066406-17.066407-7.640625-17.066407-17.066406 7.640626-17.066406 17.066407-17.066406zm0-68.265625c-28.015625 0-43.28125-12.246094-59.445313-25.199219-14.207031-11.402344-28.902344-23.042969-51.488281-25.488281v-137.492188c.246094 0 .460937-.085937.699219-.109375 1.09375-.128906 2.109375-.339844 3.164062-.511718 1.84375-.300782 3.679688-.597657 5.410156-1.015626 1.121094-.265624 2.179688-.597656 3.253907-.90625 1.570312-.460937 3.121093-.921874 4.605469-1.464843 1.070312-.394531 2.101562-.855469 3.125-1.238281 1.40625-.589844 2.800781-1.203126 4.148437-1.859376.980469-.480468 1.945313-.964843 2.890625-1.476562 1.332031-.71875 2.636719-1.464844 3.917969-2.238281.851562-.527344 1.757812-1.046875 2.621093-1.601563 1.3125-.855468 2.558594-1.707031 3.882813-2.621094.75-.527343 1.515625-1.050781 2.257813-1.585937 1.417968-1.035156 2.808593-2.09375 4.183593-3.148437.570313-.445313 1.152344-.855469 1.707031-1.308594 1.894532-1.484375 3.761719-2.976563 5.621094-4.46875 16.164063-12.953125 31.429688-25.199219 59.445313-25.199219s43.28125 12.246094 59.441406 25.199219c1.863281 1.492187 3.738281 2.992187 5.632813 4.480468.554687.433594 1.125.851563 1.707031 1.277344 1.382812 1.066406 2.773437 2.125 4.191406 3.15625.75.546875 1.515625 1.070313 2.277344 1.597656 1.269531.851563 2.558593 1.773438 3.875 2.621094.851562.554688 1.707031 1.074219 2.617187 1.601563 1.28125.78125 2.585938 1.527343 3.917969 2.238281.945313.511719 1.910156.996094 2.882813 1.476562 1.359374.65625 2.75 1.269532 4.164062 1.859376 1.027344.425781 2.050781.851562 3.117188 1.238281 1.484374.542969 3.035156 1.003906 4.605468 1.464843 1.078125.308594 2.136719.640626 3.253906.90625 1.707032.417969 3.566407.714844 5.410157 1.015626 1.058593.171874 2.074219.382812 3.164062.511718.238281 0 .453125.085938.699219.109375v137.492188c-22.585938 2.40625-37.28125 14.085937-51.488281 25.488281-16.1875 12.953125-31.453125 25.199219-59.46875 25.199219zm-136.535157-213.335938v-9.667969c.070313-4.28125 3.257813-7.867187 7.503907-8.4375 17.101562-2.402343 32.914062-10.445312 44.925781-22.851562 15.222656-13.417969 30.960938-27.308594 84.105469-27.308594s68.878906 13.890625 84.105469 27.308594c12.015624 12.398438 27.828124 20.429688 44.925781 22.824219 4.253906.570312 7.445312 4.175781 7.5 8.464843v9.667969c0 4.714844-3.820313 8.535157-8.53125 8.535157h-8.535157c-21.613281 0-34.464843-10.308594-49.347656-22.246094-16.929687-13.59375-36.105468-28.953125-70.117187-28.953125-34.015625 0-53.1875 15.359375-70.117188 28.953125-14.882812 11.9375-27.734375 22.246094-49.351562 22.246094h-8.53125c-4.714844 0-8.535157-3.820313-8.535157-8.535157zm8.535157 324.269531c.90625-17.925781 3.285156-35.746093 7.109375-53.285156 5.820312-27.390625 9.152344-55.253906 9.957031-83.25v-7.910156c16.671875 2.328125 28.007813 11.347656 40.816406 21.625 15.433594 12.371094 32.867188 26.109375 61.582031 28.464844v35.839844c-16.640624 4.296874-27.492187 20.300781-25.328124 37.351562 2.167968 17.050781 16.675781 29.832031 33.863281 29.832031s31.695312-12.78125 33.859375-29.832031c2.167968-17.050781-8.683594-33.054688-25.328125-37.351562v-35.839844c28.714843-2.355469 46.148437-16.09375 61.585937-28.464844 12.800782-10.242188 24.140625-19.296875 40.816406-21.625v7.910156c.800782 27.996094 4.136719 55.859375 9.957032 83.25 3.824218 17.539063 6.199218 35.359375 7.109375 53.285156.050781 9.058594-2.175781 17.988282-6.46875 25.964844-3.402344-.242187-6.933594-.367187-10.597657-.367187h-221.867187c-3.652344 0-7.183594.125-10.589844.367187-4.300781-7.976562-6.527343-16.90625-6.476562-25.964844zm6.59375 43.125c.71875-.058593 1.425781-.136718 2.152343-.179687 2.6875-.167969 5.445313-.28125 8.320313-.28125h221.867187c4.273438.011719 8.546876.246094 12.800782.699219 28.292968 1.59375 53.863281 17.382812 67.957031 41.96875l-41.035156.109375c-7.289063-15.414063-22.675781-25.371094-39.722657-25.710938h-221.867187c-17.003906.324219-32.363281 10.238281-39.65625 25.601563l-41.0625-.09375c14.542969-25.257813 41.121094-41.1875 70.246094-42.113282zm0 0"/><path d="m302.597656 179.199219c0-51.839844-42.027344-93.867188-93.867187-93.867188-51.839844 0-93.867188 42.027344-93.867188 93.867188 0 51.84375 42.027344 93.867187 93.867188 93.867187 51.816406-.0625 93.804687-42.050781 93.867187-93.867187zm-93.867187 76.800781c-42.417969 0-76.800781-34.382812-76.800781-76.800781 0-42.414063 34.382812-76.800781 76.800781-76.800781 42.414062 0 76.800781 34.386718 76.800781 76.800781-.046875 42.398437-34.40625 76.753906-76.800781 76.800781zm0 0"/><path d="m238.722656 129.21875c-4.039062-2.425781-9.277344-1.117188-11.707031 2.917969l-25.597656 42.667969c-.800781 1.328124-1.222657 2.847656-1.222657 4.394531v42.667969c0 4.710937 3.820313 8.53125 8.535157 8.53125 4.710937 0 8.53125-3.820313 8.53125-8.53125v-40.304688l24.382812-40.632812c2.425781-4.039063 1.117188-9.28125-2.921875-11.710938zm0 0"/><path d="m259.929688 384c0 4.710938 3.820312 8.535156 8.535156 8.535156 4.710937 0 8.53125-3.824218 8.53125-8.535156.03125-13.953125-4.246094-27.578125-12.246094-39.015625-1.714844-2.570313-4.6875-4.011719-7.765625-3.765625-3.082031.242188-5.789063 2.128906-7.082031 4.9375-1.292969 2.808594-.964844 6.09375.855468 8.589844 5.988282 8.578125 9.191407 18.792968 9.171876 29.253906zm0 0"/><path d="m148.996094 392.535156c4.714844 0 8.535156-3.824218 8.535156-8.535156-.023438-10.460938 3.179688-20.675781 9.171875-29.253906 2.578125-3.863282 1.59375-9.078125-2.214844-11.734375-3.808593-2.660157-9.046875-1.78125-11.78125 1.972656-7.996093 11.4375-12.273437 25.0625-12.242187 39.015625 0 4.710938 3.820312 8.535156 8.53125 8.535156zm0 0"/></svg>