<svg height="512pt" viewBox="0 0 512.00021 512" width="512pt" xmlns="http://www.w3.org/2000/svg"><path d="m401.171875 401.066406v-119.464844c0-.121093-.058594-.214843-.070313-.335937-.039062-.875-.214843-1.738281-.519531-2.558594-.074219-.1875-.117187-.382812-.195312-.5625-.078125-.179687-.058594-.214843-.109375-.316406l-25.132813-50.296875c-5.316406-10.664062-8.089843-22.417969-8.105469-34.335938v-176.128906c0-9.425781-7.640624-17.066406-17.066406-17.066406h-51.199218c-14.140626 0-25.601563 11.460938-25.601563 25.601562v8.53125c0 9.425782-7.640625 17.066407-17.066406 17.066407s-17.066407-7.640625-17.066407-17.066407v-8.53125c0-14.140624-11.460937-25.601562-25.601562-25.601562h-51.199219c-9.425781 0-17.066406 7.640625-17.066406 17.066406v176.128906c-.015625 11.917969-2.792969 23.671876-8.105469 34.335938l-25.132812 50.253906c-.050782.101563-.058594.214844-.109375.316406-.050781.101563-.121094.375-.195313.5625-.304687.820313-.480468 1.6875-.523437 2.5625 0 .117188-.066407.210938-.066407.332032v119.507812c.070313 61.238282 49.695313 110.863282 110.933594 110.933594h68.265625c61.238281-.070312 110.863281-49.695312 110.933594-110.933594zm-22.339844-128h-81.871093l-19.34375-41.984375c10-8.054687 14.582031-21.074219 11.832031-33.617187-2.75-12.542969-12.359375-22.453125-24.8125-25.585938v-18.277344h85.335937v39.59375c.015625 14.570313 3.40625 28.9375 9.90625 41.976563zm-122.726562-85.332031c9.425781 0 17.066406 7.640625 17.066406 17.066406-.003906 3.519531-1.101563 6.949219-3.148437 9.8125l-6.171876-13.386719c-1.277343-2.769531-3.933593-4.648437-6.96875-4.925781-3.035156-.277343-5.988281 1.085938-7.75 3.578125-1.757812 2.488282-2.054687 5.726563-.777343 8.496094l6.144531 13.328125c-9.042969-.859375-15.816406-8.671875-15.390625-17.75.429687-9.074219 7.910156-16.214844 16.996094-16.21875zm-93.867188-68.269531h85.332031v17.070312h-85.332031zm102.398438 0h85.335937v17.070312h-85.335937zm25.601562-85.332032v-8.53125c0-4.714843 3.820313-8.535156 8.535157-8.535156h51.199218v85.332032h-85.335937v-35.34375c15.027343-3.878907 25.542969-17.402344 25.601562-32.921876zm-76.800781-17.066406c4.714844 0 8.535156 3.820313 8.535156 8.535156v8.53125c.058594 15.519532 10.574219 29.042969 25.597656 32.921876v35.34375h-85.332031v-85.332032zm-61.105469 218.105469c6.5-13.039063 9.890625-27.40625 9.90625-41.976563v-39.59375h85.332031v18.277344c-16.625 4.277344-27.46875 20.261719-25.300781 37.289063 2.167969 17.03125 16.667969 29.785156 33.835938 29.765625 2.03125-.023438 4.054687-.226563 6.050781-.613282l16.015625 34.746094h-144.792969zm137.90625 259.761719h-68.265625c-51.816406-.0625-93.804687-42.050782-93.867187-93.867188v-110.933594h157.933593l15.882813 34.464844c-1.101563-.101562-2.203125-.3125-3.3125-.3125-4.425781-.003906-8.808594.847656-12.910156 2.507813-4.25 1.714843-8.105469 4.273437-11.339844 7.515625l-84.992187 85.003906c-13.191407 13.425781-13.09375 34.976562.21875 48.285156 13.308593 13.304688 34.859374 13.398438 48.285156.207032l85.007812-85.015626c10.078125-10.019531 12.875-25.242187 7.015625-38.1875 0-.09375 0-.195312-.070312-.289062l-24.992188-54.179688h79.273438v110.933594c-.0625 51.816406-42.050781 93.804688-93.867188 93.867188zm-24.652343-127.710938c2.957031 12.019532 12.324218 21.40625 24.335937 24.390625l-64.136719 64.144531c-4.351562 4.351563-10.695312 6.054688-16.640625 4.460938-5.945312-1.589844-10.59375-6.234375-12.1875-12.179688-1.59375-5.945312.105469-12.292968 4.457031-16.644531zm33.023437-25.890625c6.96875-.007812 13.257813 4.1875 15.921875 10.625 2.667969 6.441407 1.191406 13.851563-3.746094 18.773438-6.808594 6.523437-17.550781 6.523437-24.359375 0-4.929687-4.925781-6.402343-12.335938-3.734375-18.769531 2.667969-6.4375 8.953125-10.632813 15.917969-10.628907zm0 0"/><path d="m484.011719 113.441406c-1.597657-1.605468-3.773438-2.507812-6.039063-2.507812-2.269531 0-4.441406.902344-6.042968 2.507812l-25.597657 25.601563c-3.234375 3.347656-3.191406 8.667969.101563 11.960937 3.292968 3.292969 8.613281 3.339844 11.960937.105469l11.042969-11.042969v81.800782c0 4.710937 3.820312 8.53125 8.535156 8.53125 4.710938 0 8.53125-3.820313 8.53125-8.53125v-81.800782l11.035156 11.035156c3.347657 3.230469 8.671876 3.1875 11.960938-.105468 3.292969-3.292969 3.339844-8.613282.105469-11.960938zm0 0"/><path d="m486.503906 273.066406v-17.066406c0-4.710938-3.820312-8.535156-8.53125-8.535156-4.714844 0-8.535156 3.824218-8.535156 8.535156v17.066406c0 4.714844 3.820312 8.535156 8.535156 8.535156 4.710938 0 8.53125-3.820312 8.53125-8.535156zm0 0"/><path d="m2.605469 270.566406 25.601562 25.601563c1.597657 1.601562 3.773438 2.503906 6.039063 2.503906 2.269531 0 4.441406-.902344 6.042968-2.503906l25.597657-25.601563c3.234375-3.347656 3.191406-8.671875-.101563-11.960937-3.292968-3.292969-8.613281-3.339844-11.960937-.105469l-11.050781 11.035156v-39.136718c0-4.710938-3.820313-8.53125-8.535157-8.53125-4.710937 0-8.535156 3.820312-8.535156 8.53125v39.136718l-11.03125-11.035156c-2.144531-2.21875-5.316406-3.109375-8.300781-2.328125-2.980469.78125-5.3125 3.113281-6.09375 6.097656-.78125 2.980469.109375 6.15625 2.328125 8.296875zm0 0"/><path d="m25.703125 136.535156v59.730469c0 4.714844 3.824219 8.535156 8.535156 8.535156 4.714844 0 8.535157-3.820312 8.535157-8.535156v-59.730469c0-4.714844-3.820313-8.535156-8.535157-8.535156-4.710937 0-8.535156 3.820312-8.535156 8.535156zm0 0"/></svg>