<svg height="511pt" viewBox="-94 0 511 511.99481" width="511pt" xmlns="http://www.w3.org/2000/svg"><path d="m72.511719 487.125c12.027343 4.328125 23.222656 10.695312 33.089843 18.824219 3.777344 3.867187 8.957032 6.046875 14.363282 6.046875s10.582031-2.179688 14.359375-6.046875c9.875-8.109375 21.070312-14.457031 33.09375-18.773438 32.085937-14.277343 72.011719-31.984375 72.011719-86.121093 0-31.425782-19.402344-53.3125-36.523438-72.640626-12.457031-14.046874-23.207031-26.183593-23.207031-38.289062v-213.335938c0-16.835937-12.144531-26.949218-23.894531-36.742187-11.464844-7.734375-20.261719-18.8125-25.199219-31.726563-1.214844-4.890624-5.605469-8.320312-10.640625-8.320312-5.039063 0-9.425782 3.429688-10.640625 8.320312-4.9375 12.914063-13.738281 23.992188-25.199219 31.726563-11.75 9.785156-23.894531 19.90625-23.894531 36.742187v213.335938c0 12.105469-10.75 24.242188-23.210938 38.289062-17.117187 19.328126-36.523437 41.214844-36.523437 72.640626 0 54.136718 39.929687 71.84375 72.015625 86.070312zm22.535156-433.972656c9.824219-7.355469 18.261719-16.398438 24.917969-26.710938 6.65625 10.3125 15.09375 19.355469 24.917968 26.710938 5.78125 4.257812 10.898438 9.347656 15.1875 15.105468h-80.214843c4.289062-5.757812 9.410156-10.847656 15.191406-15.105468zm-45.226563 286.582031c14.121094-15.957031 27.476563-31.027344 27.476563-49.609375v-204.800781h85.332031v17.066406c-4.710937 0-8.53125 3.820313-8.53125 8.53125 0 4.714844 3.820313 8.535156 8.53125 8.535156v17.066407c-4.710937 0-8.53125 3.820312-8.53125 8.53125 0 4.714843 3.820313 8.535156 8.53125 8.535156v17.066406c-4.710937 0-8.53125 3.820312-8.53125 8.535156 0 4.710938 3.820313 8.53125 8.53125 8.53125v17.066406c-4.710937 0-8.53125 3.820313-8.53125 8.535157 0 4.710937 3.820313 8.53125 8.53125 8.53125v17.066406c-4.710937 0-8.53125 3.820313-8.53125 8.535156 0 4.710938 3.820313 8.53125 8.53125 8.53125v17.066407c-4.710937 0-8.53125 3.824218-8.53125 8.535156 0 4.710937 3.820313 8.535156 8.53125 8.535156 0 18.582031 13.355469 33.652344 27.503906 49.609375 15.847657 17.878906 32.230469 36.371094 32.230469 61.320313 0 43.035156-31.453125 56.980468-61.867187 70.460937-14.097656 5.089844-27.132813 12.738281-38.457032 22.554687-1.1875 1.042969-2.960937 1.042969-4.148437 0-11.320313-9.832031-24.359375-17.492187-38.460937-22.589843-30.410157-13.445313-61.867188-27.390625-61.867188-70.425781 0-24.949219 16.386719-43.441407 32.230469-61.320313zm0 0"/><path d="m107.164062 450.917969c4.179688.882812 8.441407 1.332031 12.714844 1.339843 25.703125.058594 48.558594-16.347656 56.726563-40.71875 8.167969-24.371093-.1875-51.230468-20.734375-66.675781-6.25-4.359375-10.070313-11.417969-10.308594-19.035156v-196.925781c.160156-12.738282-8.824219-23.761719-21.332031-26.171875-7.433594-1.253907-15.042969.828125-20.796875 5.695312-5.757813 4.867188-9.074219 12.027344-9.070313 19.5625v196.6875c.21875 7.542969-3.195312 14.734375-9.179687 19.335938-19.183594 13.738281-28.476563 37.480469-23.726563 60.589843 4.753907 23.109376 22.660157 41.257813 45.707031 46.316407zm7.277344-329.4375c1.539063-1.3125 3.5-2.03125 5.523438-2.023438.5 0 1 .042969 1.492187.128907 4.261719 1.039062 7.203125 4.933593 7.039063 9.316406v118.554687h-17.066406v-119.46875c0-2.507812 1.101562-4.886719 3.011718-6.507812zm-19.316406 236.371093c10.445312-7.800781 16.511719-20.140624 16.304688-33.175781v-60.152343h17.066406v61.304687c.207031 12.980469 6.558594 25.097656 17.121094 32.65625 10.492187 7.882813 16.769531 20.164063 17.007812 33.285156.242188 13.125-5.582031 25.625-15.78125 33.886719-10.144531 8.175781-23.449219 11.316406-36.179688 8.535156-16.421874-3.667968-29.152343-16.640625-32.507812-33.128906-3.359375-16.488281 3.289062-33.40625 16.96875-43.203125zm0 0"/><path d="m102.898438 401.054688c4.710937 0 8.53125-3.820313 8.53125-8.53125 0-4.714844 3.820312-8.535157 8.535156-8.535157 4.710937 0 8.53125-3.820312 8.53125-8.53125 0-4.714843-3.820313-8.535156-8.53125-8.535156-14.140625 0-25.601563 11.460937-25.601563 25.601563 0 4.710937 3.820313 8.53125 8.535157 8.53125zm0 0"/><path d="m290.628906 93.855469c7.234375 0 13.683594 4.558593 16.09375 11.375 1.570313 4.445312 6.445313 6.777343 10.890625 5.207031 4.445313-1.570312 6.773438-6.445312 5.207031-10.890625-5.535156-15.679687-21.566406-25.09375-37.960937-22.28125-16.390625 2.8125-28.371094 17.027344-28.363281 33.65625v42.667969c-.007813 16.628906 11.972656 30.847656 28.363281 33.65625 16.394531 2.8125 32.425781-6.597656 37.960937-22.28125 1.011719-2.875.417969-6.074219-1.5625-8.390625-1.984374-2.316407-5.050781-3.398438-8.050781-2.839844-2.996093.558594-5.46875 2.671875-6.484375 5.546875-2.765625 7.84375-10.78125 12.546875-18.980468 11.140625-8.195313-1.40625-14.183594-8.515625-14.179688-16.832031v-42.667969c0-9.425781 7.644531-17.066406 17.066406-17.066406zm0 0"/><path d="m256.496094 59.722656c0-14.136718-11.460938-25.597656-25.597656-25.597656-14.140626 0-25.601563 11.460938-25.601563 25.597656 0 14.140625 11.460937 25.601563 25.601563 25.601563 14.136718 0 25.597656-11.460938 25.597656-25.601563zm-34.132813 0c0-4.710937 3.820313-8.53125 8.535157-8.53125 4.710937 0 8.53125 3.820313 8.53125 8.53125 0 4.714844-3.820313 8.535156-8.53125 8.535156-4.714844 0-8.535157-3.820312-8.535157-8.535156zm0 0"/></svg>