<svg height="511pt" viewBox="-51 0 511 511.98965" width="511pt" xmlns="http://www.w3.org/2000/svg"><path d="m213.828125 76.800781c0 4.710938-3.820313 8.53125-8.535156 8.53125-4.710938 0-8.53125-3.820312-8.53125-8.53125 0-4.714843 3.820312-8.535156 8.53125-8.535156 4.714843 0 8.535156 3.820313 8.535156 8.535156zm0 0"/><path d="m34.773438 380.160156c-7.289063-3.765625-16.015626-3.457031-23.019532.8125-7.003906 4.273438-11.273437 11.890625-11.257812 20.09375.003906 8.414063 4.496094 16.1875 11.785156 20.394532 41.988281 23.871093 87.492188 40.9375 134.824219 50.558593.628906 7.15625 5.664062 13.152344 12.605469 15.003907 5.472656 1.820312 10.304687 5.179687 13.925781 9.667968 7.65625 9.664063 19.3125 15.296875 31.640625 15.296875 12.332031 0 23.984375-5.632812 31.640625-15.296875 3.621093-4.488281 8.457031-7.847656 13.929687-9.667968 6.941406-1.847657 11.984375-7.84375 12.609375-15.003907 47.332031-9.621093 92.839844-26.683593 134.828125-50.558593 7.214844-4.15625 11.699219-11.8125 11.792969-20.140626.09375-8.324218-4.214844-16.082031-11.332031-20.402343-6.984375-4.269531-15.695313-4.5625-22.945313-.765625-2.160156 1.117187-4.582031 2.347656-7.125 3.609375l-127.703125-270.269531c13.859375-13.417969 18.980469-33.496094 13.242188-51.914063-5.738282-18.417969-21.359375-32.039063-40.386719-35.210937v-17.832032c0-4.714844-3.820313-8.535156-8.535156-8.535156-4.710938 0-8.53125 3.820312-8.53125 8.535156v17.832032c-18.554688 3.167968-33.882813 16.242187-39.9375 34.066406l-18.773438-18.773438c-10.132812-9.667968-26.074219-9.667968-36.207031 0-9.992188 9.996094-9.992188 26.203125 0 36.199219l57.4375 57.445313-117.382812 248.464843c-2.542969-1.261719-4.964844-2.492187-7.125-3.609375zm-17.210938 20.90625c-.027344-2.277344 1.164062-4.394531 3.121094-5.554687 1-.609375 2.148437-.9375 3.320312-.949219 1.011719.007812 2.007813.261719 2.902344.734375 4.367188 2.269531 9.523438 4.855469 15.359375 7.605469l.160156.074218c4.097657 1.929688 8.535157 3.953126 13.246094 6.015626l2.199219.941406c3.808594 1.636718 7.765625 3.292968 11.949218 4.957031l.851563.367187h.085937c26.203126 10.542969 53.398438 18.425782 81.179688 23.527344l-1.445312 8.652344-1.269532 7.628906c-45.089844-9.304687-88.4375-25.636718-128.453125-48.402344-2.003906-1.144531-3.234375-3.289062-3.207031-5.597656zm111.035156-90.035156c16.796875-4.511719 33.863282-7.949219 51.097656-10.28125v100.316406c0 8.210938-12.628906 14.507813-16.511718 16.214844-2.515625 1.128906-4.710938 2.863281-6.402344 5.042969-24.332031-4.292969-48.207031-10.863281-71.3125-19.628907zm51.097656-61.59375c-7.550781.9375-15.609374 2.21875-23.894531 3.789062l23.894531-50.789062zm-32.949218 23.039062c11.324218-2.472656 22.648437-4.496093 32.949218-5.851562v16.929688c-14.019531 1.804687-27.9375 4.316406-41.703124 7.527343zm78.117187 212.183594c-4.429687 6.445313-11.75 10.296875-19.570312 10.296875-7.816407 0-15.136719-3.851562-19.566407-10.296875-5.78125-6.714844-13.277343-11.726562-21.691406-14.507812l.597656-3.652344 5.546876-33.28125c0-.117188 0-.238281 0-.367188 9.957031-4.476562 26.582031-14.472656 26.582031-31.785156v-273.765625c.324219.050781.664062 0 1 .085938 4.988281.816406 10.078125.816406 15.066406 0 .335937-.050781.675781 0 1-.085938v273.765625c0 17.339844 16.691406 27.359375 26.453125 31.683594l.058594.367188 5.546875 33.28125c.042969.230468.1875.425781.25.648437l.570312 3.414063c-8.507812 2.496093-16.097656 7.421874-21.84375 14.171874zm100.257813-81.921875c-23.105469 8.765625-46.980469 15.335938-71.3125 19.628907-1.691406-2.183594-3.894532-3.917969-6.410156-5.054688-3.875-1.738281-16.503907-8.035156-16.503907-16.246094v-100.316406c17.234375 2.320312 34.300781 5.738281 51.097657 10.238281zm-94.226563-119.210937v-16.929688c10.300781 1.359375 21.625 3.414063 32.949219 5.855469l8.753906 18.601563c-13.765625-3.210938-27.683594-5.722657-41.703125-7.527344zm0-34.089844v-47l23.894531 50.789062c-8.285156-1.570312-16.34375-2.851562-23.894531-3.789062zm152.789063 145.871094c1.960937-1.050782 4.332031-.96875 6.210937.210937 1.957031 1.183594 3.144531 3.3125 3.125 5.597657-.015625 2.285156-1.234375 4.394531-3.207031 5.546874-40.019531 22.78125-83.371094 39.128907-128.472656 48.445313l-1.652344-9.933594-1.058594-6.347656c27.777344-5.101563 54.976563-12.984375 81.175782-23.527344h.085937l.855469-.367187c4.164062-1.707032 8.113281-3.320313 11.945312-4.957032l2.191406-.941406c4.730469-2.0625 9.148438-4.085937 13.246094-6.015625l.160156-.074219c5.871094-2.78125 11.027344-5.367187 15.394532-7.636718zm-31.617188-3.695313c-2.992187 1.339844-6.03125 2.652344-9.070312 3.941407l-1.96875.851562-45.277344-96.203125-18.253906-38.785156-46.601563-99.0625v-30.285157l122.375 259.003907zm-146.773437-348.945312c15.914062-.226563 29.847656 10.632812 33.515625 26.117187 3.667968 15.488282-3.914063 31.441406-18.238282 38.375-.632812.316406-1.210937.734375-1.871093 1.015625-1.582031.640625-3.210938 1.15625-4.871094 1.546875-.546875.144532-1.058594.382813-1.613281.503906-4.566406.929688-9.273438.929688-13.839844 0-.554688-.121093-1.066406-.359374-1.613281-.503906-1.660157-.390625-3.289063-.90625-4.871094-1.546875-.660156-.28125-1.238281-.699219-1.871094-1.015625-1.496093-.722656-2.933593-1.554687-4.308593-2.492187-.71875-.5-1.347657-1.109375-2.023438-1.703125-1.15625-.9375-2.253906-1.941406-3.285156-3.015625-.800782-.871094-1.558594-1.785157-2.269532-2.738281-.65625-.851563-1.269531-1.757813-1.835937-2.671876-.691406-1.113281-1.320313-2.273437-1.875-3.460937-.449219-.988281-.84375-1.996094-1.1875-3.023437-.425781-1.140626-.789063-2.308594-1.089844-3.488282-.296875-1.410156-.503906-2.835937-.625-4.269531-.183593-1.15625-.300781-2.324219-.359375-3.496094 0-18.851562 15.285156-34.132812 34.132813-34.132812zm-91.363281 11.03125c3.328124-3.324219 8.726562-3.324219 12.054687 0l28.382813 28.441406v.144531c.292968 2.617188.789062 5.203125 1.484374 7.742188.121094.460937.222657.921875.359376 1.382812.6875 2.332032 1.542968 4.613282 2.558593 6.824219.292969.625.582031 1.238281.898438 1.851563 1.0625 2.070312 2.261719 4.066406 3.589843 5.976562.386719.542969.804688 1.066406 1.203126 1.601562 1.472656 1.960938 3.082031 3.8125 4.816406 5.546876.09375.09375.160156.195312.246094.289062l-2.558594 5.394531-53.035156-53.128906c-3.332032-3.332031-3.332032-8.734375 0-12.066406zm65.765624 78.371093v30.285157l-46.609374 99.046875-18.246094 38.792968-45.226563 96.1875-2.003906-.855468c-2.992187-1.265625-5.96875-2.5625-8.933594-3.882813l-1.316406-.578125zm0 0"/></svg>