<svg height="512pt" viewBox="0 0 512 512.00648" width="512pt" xmlns="http://www.w3.org/2000/svg"><path d="m487.171875 366.570312c-.070313-.066406-.085937-.167968-.164063-.238281-.074218-.066406-.167968-.09375-.238281-.160156-33.085937-32.980469-86.566406-33.128906-119.832031-.335937v-126.898438c0-4.710938-3.820312-8.53125-8.535156-8.53125-4.710938 0-8.53125 3.820312-8.53125 8.53125v8.535156h-20.582032l-39.152343-70.476562v-108.722656c4.710937 0 8.53125-3.820313 8.53125-8.535157 0-4.710937-3.820313-8.535156-8.53125-8.535156h-.683594c-3.304687-23.097656-19.78125-42.152344-42.160156-48.757813-22.382813-6.609374-46.5625.441407-61.886719 18.039063-4.589844-2.238281-9.628906-3.402344-14.738281-3.414063-15.558594.019532-29.144531 10.539063-33.054688 25.601563-8.457031-.191406-16.773437 2.144531-23.894531 6.707031-9.023438-13.574218-26.386719-18.878906-41.453125-12.65625-15.066406 6.21875-23.632813 22.222656-20.453125 38.210938 3.183594 15.988281 17.222656 27.492187 33.523438 27.472656 3.886718 0 7.742187-.675781 11.402343-1.988281 6.949219 18.449219 25.652344 29.714843 45.210938 27.238281 19.558593-2.476562 34.863281-18.050781 36.996093-37.648438 9.265626 15.550782 25.019532 26.121094 42.925782 28.796876v58.191406l-39.152344 70.476562h-20.582031v-8.535156c0-4.710938-3.820313-8.53125-8.535157-8.53125-4.710937 0-8.53125 3.820312-8.53125 8.53125v126.898438c-33.273437-32.796876-86.765624-32.644532-119.851562.34375-.066406.066406-.152344.085937-.222656.152343-.066406.070313-.085938.152344-.144532.222657-33.132812 33.230468-33.132812 87.003906 0 120.234374.058594.066407.085938.160157.144532.222657.0625.058593.15625.085937.222656.152343 33.234375 33.125 87 33.125 120.234375 0 .070313-.066406.15625-.085937.222656-.152343.066407-.070313.085938-.15625.144531-.222657 13.835938-13.871093 22.457032-32.089843 24.414063-51.585937h171.519531c1.957032 19.496094 10.578125 37.714844 24.414063 51.585937.058593.066407.085937.160157.144531.222657.0625.058593.15625.085937.222656.152343 33.230469 33.117188 86.988282 33.117188 120.21875 0 .066406-.066406.167969-.085937.238282-.160156.066406-.078125.09375-.171875.160156-.242187 33.109375-33.226563 33.109375-86.972657 0-120.199219zm-6.640625 101.914063-30.820312-30.847656c.375-.792969.703124-1.601563.988281-2.433594h43.648437c-1.523437 12.136719-6.296875 23.636719-13.816406 33.28125zm-121.539062-33.28125h43.648437c.285156.832031.621094 1.640625.996094 2.433594l-30.828125 30.847656c-7.519532-9.644531-12.292969-21.144531-13.816406-33.28125zm-219.792969 33.28125-30.824219-30.847656c.375-.792969.707031-1.601563.992188-2.433594h43.648437c-1.523437 12.136719-6.296875 23.636719-13.816406 33.28125zm-121.539063-33.28125h43.648438c.285156.832031.617187 1.640625.996094 2.433594l-30.832032 30.847656c-7.519531-9.644531-12.292968-21.144531-13.8125-33.28125zm13.8125-50.34375 30.824219 30.847656c-.375.789063-.707031 1.601563-.988281 2.429688h-43.648438c1.519532-12.132813 6.292969-23.632813 13.8125-33.277344zm395.195313 50.34375c-4.710938 0-8.53125-3.820313-8.53125-8.53125 0-4.714844 3.820312-8.535156 8.53125-8.535156 4.714843 0 8.535156 3.820312 8.535156 8.535156 0 4.710937-3.820313 8.53125-8.535156 8.53125zm10.96875-31.570313c-.792969-.375-1.605469-.707031-2.433594-.992187v-43.648437c12.136719 1.523437 23.632813 6.296874 33.28125 13.816406zm-19.5-.992187c-.828125.289063-1.640625.621094-2.433594 1l-30.847656-30.832031c9.644531-7.519532 21.144531-12.292969 33.28125-13.816406zm-14.507813 13.066406c-.378906.789063-.710937 1.601563-.996094 2.429688h-43.640624c1.523437-12.132813 6.296874-23.632813 13.816406-33.277344zm-70.824218-65.835937h17.066406v34.132812h-17.066406zm17.066406-17.066406h-17.066406v-25.601563h17.066406zm-34.132813 51.199218h-119.46875v-119.464844h119.46875zm-153.601562 0v-34.132812h17.066406v34.132812zm17.066406-51.199218h-17.066406v-25.601563h17.066406zm-26.1875 85.332031h-43.648437c-.289063-.828125-.621094-1.640625-1-2.429688l30.832031-30.847656c7.519531 9.644531 12.292969 21.144531 13.816406 33.277344zm-67.679687 17.066406c-4.710938 0-8.53125-3.820313-8.53125-8.53125 0-4.714844 3.820312-8.535156 8.53125-8.535156 4.714843 0 8.535156 3.820312 8.535156 8.535156 0 4.710937-3.820313 8.53125-8.535156 8.53125zm10.964843-31.570313c-.789062-.375-1.601562-.707031-2.429687-.992187v-43.648437c12.136718 1.523437 23.632812 6.296874 33.277344 13.816406zm-19.496093-.992187c-.832032.289063-1.640626.621094-2.433594 1l-30.847656-30.832031c9.644531-7.519532 21.144531-12.292969 33.28125-13.816406zm-2.433594 47.070313c.792968.375 1.605468.707031 2.433594.992187v43.644531c-12.136719-1.519531-23.636719-6.292968-33.28125-13.8125zm19.5.992187c.828125-.289063 1.640625-.621094 2.429687-1l30.847657 30.832031c-9.644532 7.519532-21.140626 12.292969-33.277344 13.8125zm72.863281-49.632813h178.535156c-1.75 5.554688-2.921875 11.273438-3.496093 17.066407h-171.523438c-.578125-5.792969-1.757812-11.511719-3.515625-17.066407zm248.96875 48.640626c.792969.378906 1.605469.710937 2.433594 1v43.648437c-12.136719-1.523437-23.636719-6.296875-33.28125-13.816406zm19.5.992187c.828125-.289063 1.640625-.621094 2.433594-1l30.847656 30.832031c-9.648437 7.519532-21.144531 12.292969-33.28125 13.8125zm15.496094-32.566406c-.285157-.828125-.621094-1.640625-.996094-2.429688l30.828125-30.847656c7.519531 9.644531 12.292969 21.144531 13.816406 33.277344zm-100.828125-128h-17.066406v-25.597657h17.066406zm-110.933594-179.199219v-42.664062h34.132812v102.398437h-34.132812zm-49.402344-38.980469c-.707031-2.371093-2.410156-4.316406-4.667968-5.332031-2.257813-1.019531-4.84375-1.003906-7.089844.035156-2.0625.972656-4.300782 1.523438-6.578125 1.613282-.289063 0-1.144531-.136719-1.433594-.148438-2.714844-.152344-5.328125 1.039062-6.996094 3.183594-1.695312 2.113281-2.289062 4.902344-1.597656 7.519531.605469 2.117187.929687 4.308594.964844 6.511719.089843 13.910156-10.972657 25.335937-24.882813 25.6875-13.90625.355468-25.539062-10.492188-26.15625-24.390625-.167968-3.300781-2.230468-6.207031-5.289062-7.460938-1.027344-.414062-2.121094-.625-3.226563-.628906-2.140625 0-4.203125.804687-5.777343 2.25-5.726563 5.226563-14.261719 5.917969-20.757813 1.683594-6.492187-4.234375-9.304687-12.324219-6.835937-19.671875s9.589843-12.101563 17.324218-11.554688c7.734375.542969 14.121094 6.246094 15.535156 13.867188.605469 3.25 3.03125 5.855468 6.226563 6.691406s6.585937-.246094 8.707031-2.78125c6.171875-7.804688 16.453125-11.097656 26.007813-8.328125 2.628906.695313 5.429687.097656 7.546875-1.609375 2.113281-1.707031 3.289062-4.320312 3.164062-7.035156.015625-.289063-.023437-.578125-.121094-.855469 0-9.421875 7.644532-17.066406 17.066407-17.066406 4.097656.027343 8.039062 1.542969 11.09375 4.269531 1.867187 1.636719 4.355469 2.378906 6.8125 2.035156s4.644531-1.742187 5.988281-3.828125c9.402344-14.570312 26.6875-22 43.730469-18.800781 17.042969 3.203125 30.453125 16.402344 33.921875 33.390625h-50.34375c-4.714844 0-8.535156 3.824219-8.535156 8.535156 0 4.714844 3.820312 8.535157 8.535156 8.535157v33.277343c-15.378906-3.210937-27.773438-14.558593-32.335938-29.59375zm45.886719 115.78125h41.164063l33.175781 59.734375h-107.519531zm-56.21875 76.800781v25.597657h-17.066406v-25.597657zm0 0"/><path d="m25.601562 51.203125c14.140626 0 25.601563-11.460937 25.601563-25.597656 0-14.140625-11.460937-25.60156275-25.601563-25.60156275-14.136718 0-25.59765575 11.46093775-25.59765575 25.60156275 0 14.136719 11.46093775 25.597656 25.59765575 25.597656zm0-34.132813c4.714844 0 8.535157 3.820313 8.535157 8.535157 0 4.710937-3.820313 8.53125-8.535157 8.53125-4.710937 0-8.53125-3.820313-8.53125-8.53125 0-4.714844 3.820313-8.535157 8.53125-8.535157zm0 0"/><path d="m256.003906 366.9375c17.257813 0 32.8125-10.394531 39.417969-26.339844 6.605469-15.941406 2.953125-34.292968-9.25-46.496094-12.203125-12.203124-30.554687-15.851562-46.496094-9.25-15.945312 6.605469-26.339843 22.164063-26.339843 39.421876.027343 23.550781 19.113281 42.636718 42.667968 42.664062zm0-68.265625c14.136719 0 25.597656 11.460937 25.597656 25.601563 0 14.136718-11.460937 25.597656-25.597656 25.597656-14.140625 0-25.601562-11.460938-25.601562-25.597656 0-14.140626 11.460937-25.601563 25.601562-25.601563zm0 0"/><path d="m258.503906 338.839844c3.347656 3.230468 8.671875 3.1875 11.960938-.105469 3.292968-3.292969 3.339844-8.613281.105468-11.960937l-8.535156-8.535157c-3.347656-3.234375-8.667968-3.1875-11.960937.105469-3.292969 3.289062-3.339844 8.613281-.105469 11.960938zm0 0"/><path d="m93.871094 238.9375h-42.667969c-4.710937 0-8.535156 3.820312-8.535156 8.535156 0 4.710938 3.824219 8.53125 8.535156 8.53125h42.667969c4.710937 0 8.53125-3.820312 8.53125-8.53125 0-4.714844-3.820313-8.535156-8.53125-8.535156zm0 0"/><path d="m68.269531 281.605469c0 4.710937 3.820313 8.53125 8.535157 8.53125h42.664062c4.714844 0 8.535156-3.820313 8.535156-8.53125 0-4.714844-3.820312-8.535157-8.535156-8.535157h-42.664062c-4.714844 0-8.535157 3.820313-8.535157 8.535157zm0 0"/></svg>