<svg height="512pt" viewBox="0 0 512.0268 512" width="512pt" xmlns="http://www.w3.org/2000/svg"><path d="m256 460.78125c28.277344 0 51.199219-22.921875 51.199219-51.199219 0-28.277343-22.921875-51.199219-51.199219-51.199219s-51.199219 22.921876-51.199219 51.199219c.027344 28.265625 22.933594 51.171875 51.199219 51.199219zm0-85.332031c18.851562 0 34.132812 15.28125 34.132812 34.132812 0 18.851563-15.28125 34.132813-34.132812 34.132813s-34.132812-15.28125-34.132812-34.132813c0-18.851562 15.28125-34.132812 34.132812-34.132812zm0 0"/><path d="m264.535156 409.582031c0 4.714844-3.824218 8.535157-8.535156 8.535157s-8.535156-3.820313-8.535156-8.535157c0-4.710937 3.824218-8.53125 8.535156-8.53125s8.535156 3.820313 8.535156 8.53125zm0 0"/><path d="m179.199219 238.917969c0 4.710937-3.820313 8.53125-8.53125 8.53125-4.714844 0-8.535157-3.820313-8.535157-8.53125 0-4.714844 3.820313-8.535157 8.535157-8.535157 4.710937 0 8.53125 3.820313 8.53125 8.535157zm0 0"/><path d="m110.933594 341.316406c0 4.710938-3.820313 8.53125-8.535156 8.53125-4.710938 0-8.53125-3.820312-8.53125-8.53125 0-4.714844 3.820312-8.535156 8.53125-8.535156 4.714843 0 8.535156 3.820312 8.535156 8.535156zm0 0"/><path d="m145.066406 341.316406c0 4.710938-3.820312 8.53125-8.53125 8.53125-4.714844 0-8.535156-3.820312-8.535156-8.53125 0-4.714844 3.820312-8.535156 8.535156-8.535156 4.710938 0 8.53125 3.820312 8.53125 8.535156zm0 0"/><path d="m418.132812 341.316406c0 4.710938-3.820312 8.53125-8.53125 8.53125-4.714843 0-8.535156-3.820312-8.535156-8.53125 0-4.714844 3.820313-8.535156 8.535156-8.535156 4.710938 0 8.53125 3.820312 8.53125 8.535156zm0 0"/><path d="m384 341.316406c0 4.710938-3.820312 8.53125-8.535156 8.53125-4.710938 0-8.53125-3.820312-8.53125-8.53125 0-4.714844 3.820312-8.535156 8.53125-8.535156 4.714844 0 8.535156 3.820312 8.535156 8.535156zm0 0"/><path d="m213.332031 238.917969c0 4.710937-3.820312 8.53125-8.53125 8.53125-4.714843 0-8.535156-3.820313-8.535156-8.53125 0-4.714844 3.820313-8.535157 8.535156-8.535157 4.710938 0 8.53125 3.820313 8.53125 8.535157zm0 0"/><path d="m247.464844 238.917969c0 4.710937-3.820313 8.53125-8.53125 8.53125-4.714844 0-8.535156-3.820313-8.535156-8.53125 0-4.714844 3.820312-8.535157 8.535156-8.535157 4.710937 0 8.53125 3.820313 8.53125 8.535157zm0 0"/><path d="m281.601562 238.917969c0 4.710937-3.820312 8.53125-8.535156 8.53125-4.710937 0-8.53125-3.820313-8.53125-8.53125 0-4.714844 3.820313-8.535157 8.53125-8.535157 4.714844 0 8.535156 3.820313 8.535156 8.535157zm0 0"/><path d="m315.734375 238.917969c0 4.710937-3.820313 8.53125-8.535156 8.53125-4.710938 0-8.53125-3.820313-8.53125-8.53125 0-4.714844 3.820312-8.535157 8.53125-8.535157 4.714843 0 8.535156 3.820313 8.535156 8.535157zm0 0"/><path d="m349.867188 238.917969c0 4.710937-3.820313 8.53125-8.535157 8.53125-4.710937 0-8.53125-3.820313-8.53125-8.53125 0-4.714844 3.820313-8.535157 8.53125-8.535157 4.714844 0 8.535157 3.820313 8.535157 8.535157zm0 0"/><path d="m384 238.917969c0 4.710937-3.820312 8.53125-8.535156 8.53125-4.710938 0-8.53125-3.820313-8.53125-8.53125 0-4.714844 3.820312-8.535157 8.53125-8.535157 4.714844 0 8.535156 3.820313 8.535156 8.535157zm0 0"/><path d="m418.132812 238.917969c0 4.710937-3.820312 8.53125-8.53125 8.53125-4.714843 0-8.535156-3.820313-8.535156-8.53125 0-4.714844 3.820313-8.535157 8.535156-8.535157 4.710938 0 8.53125 3.820313 8.53125 8.535157zm0 0"/><path d="m8.535156 511.984375c10.15625-.734375 19.496094-5.839844 25.597656-13.996094 6.101563 8.15625 15.441407 13.261719 25.601563 13.996094 10.15625-.734375 19.496094-5.839844 25.597656-13.996094 6.101563 8.15625 15.441407 13.261719 25.601563 13.996094 4.617187-.011719 8.371094-3.730469 8.421875-8.347656.058593-4.65625-3.589844-8.519531-8.242188-8.71875-6.195312-.964844-11.554687-4.824219-14.429687-10.394531-2.367188-4.046876-6.664063-6.570313-11.351563-6.675782-4.683593.105469-8.976562 2.636719-11.339843 6.683594-2.835938 5.449219-8.035157 9.285156-14.078126 10.386719-6.195312-.960938-11.554687-4.820313-14.429687-10.386719-2.367187-4.050781-6.664063-6.578125-11.351563-6.683594-4.6875.105469-8.988281 2.636719-11.355468 6.683594-2.851563 5.511719-8.125 9.359375-14.242188 10.386719-4.714844 0-8.535156 3.820312-8.535156 8.53125 0 4.714843 3.820312 8.535156 8.535156 8.535156zm0 0"/><path d="m426.667969 497.988281c6.101562 8.15625 15.441406 13.261719 25.597656 13.996094 10.160156-.734375 19.5-5.839844 25.601563-13.996094 6.101562 8.15625 15.441406 13.261719 25.597656 13.996094 4.621094-.011719 8.371094-3.730469 8.425781-8.347656.058594-4.65625-3.59375-8.519531-8.246094-8.71875-6.191406-.964844-11.554687-4.824219-14.429687-10.394531-2.367188-4.046876-6.664063-6.570313-11.347656-6.675782-4.683594.105469-8.980469 2.636719-11.339844 6.683594-2.839844 5.449219-8.035156 9.285156-14.082032 10.386719-6.191406-.960938-11.554687-4.820313-14.429687-10.386719-2.363281-4.050781-6.660156-6.578125-11.347656-6.683594-4.691407.105469-8.988281 2.636719-11.359375 6.683594-2.871094 5.558594-8.222656 9.417969-14.402344 10.386719-4.714844.042969-8.5 3.898437-8.453125 8.613281.042969 4.710938 3.902344 8.496094 8.613281 8.453125 10.160156-.734375 19.5-5.839844 25.601563-13.996094zm0 0"/><path d="m477.867188 17.050781c-5.714844.011719-11.332032 1.480469-16.324219 4.265625-9.359375-14.46875-25.933594-22.59375-43.105469-21.136718-17.167969 1.460937-32.132812 12.269531-38.917969 28.109374-11.421875 4.703126-19.410156 15.210938-20.890625 27.476563-8 4.539063-13.832031 12.117187-16.167968 21.015625h-9.660157c-9.425781 0-17.066406 7.640625-17.066406 17.066406v68.269532h-187.734375c-12.453125-.023438-23.109375 8.9375-25.21875 21.210937s4.9375 24.28125 16.683594 28.417969v52.769531h-59.730469c-12.453125-.023437-23.109375 8.9375-25.21875 21.210937-2.113281 12.277344 4.9375 24.28125 16.683594 28.417969v45.414063c-5.46875-.390625-10.957031-.730469-16.410157-1.148438-4.703124-.363281-8.8125 3.15625-9.175781 7.863282-.363281 4.703124 3.15625 8.8125 7.863281 9.175781 5.886719.453125 11.820313.855469 17.722657 1.246093v24.089844c-12.800781-.855468-24.6875-1.648437-35.308594-2.382812-6.421875-.496094-12.417969 3.242187-14.796875 9.226562-2.457031 6.265625-.464844 13.398438 4.878906 17.484375l29.066406 20.308594c5.730469 3.964844 11.941407 7.191406 18.480469 9.59375-2.328125 2.46875-2.960937 6.085937-1.609375 9.199219 1.351563 3.109375 4.429688 5.117187 7.824219 5.101562 8.878906-.621094 17.171875-4.660156 23.132813-11.273437.203124-.1875.425781-.332031.613281-.535157.632812-.691406 1.253906-1.410156 1.851562-2.160156.792969.996094 1.621094 1.9375 2.5 2.839844.078125.078125.1875.113281.265625.179688 5.933594 6.433593 14.105469 10.351562 22.835938 10.949218 8.75-.597656 16.9375-4.527344 22.878906-10.984375.066406-.066406.160156-.09375.230469-.160156.851562-.894531 1.707031-1.835937 2.492187-2.832031.792969.996094 1.609375 1.9375 2.480469 2.832031.078125.078125.179687.101563.257813.179687 5.9375 6.445313 14.117187 10.367188 22.859374 10.964844 4.617188-.007812 8.371094-3.726562 8.421876-8.347656 0-.058594 0-.117188 0-.1875h17.375c.699218.921875 1.339843 1.878906 2.074218 2.765625l-6.375 6.375c-2.21875 2.144531-3.109375 5.316406-2.328125 8.300781.78125 2.980469 3.113281 5.3125 6.09375 6.09375 2.984375.78125 6.15625-.109375 8.300781-2.328125l6.375-6.375c12.941407 10.628907 28.734376 17.191407 45.394532 18.867188v8.96875c0 4.714843 3.824218 8.535156 8.535156 8.535156s8.535156-3.820313 8.535156-8.535156v-8.96875c16.671875-1.667969 32.480469-8.234375 45.429688-18.867188l6.375 6.375c3.347656 3.234375 8.671875 3.1875 11.960937-.105469 3.292969-3.289062 3.339844-8.613281.105469-11.960937l-6.375-6.375c.734375-.851563 1.375-1.84375 2.074219-2.765625h17.226562c0 4.714844 3.820313 8.535156 8.535157 8.535156 8.746093-.59375 16.933593-4.523437 22.867187-10.972656.070313-.070312.179687-.09375.25-.171875.851563-.894531 1.707031-1.835937 2.480469-2.832031.804687.996094 1.625 1.9375 2.492187 2.832031.070313.066406.164063.09375.230469.160156 5.941406 6.457031 14.128906 10.386719 22.878906 10.984375 8.734375-.59375 16.910156-4.511718 22.84375-10.949218.078125-.074219.179688-.101563.257813-.179688.851562-.902344 1.707031-1.84375 2.5-2.839844.597656.75 1.21875 1.46875 1.851562 2.160156.1875.203126.417969.355469.621094.542969 5.960937 6.605469 14.25 10.644531 23.125 11.265625 3.371094-.023437 6.40625-2.039062 7.734375-5.132812 1.332031-3.09375.703125-6.683594-1.597656-9.144532 6.566406-2.410156 12.804687-5.640624 18.558594-9.617187l29.636718-20.734375c5.003906-4.140625 6.75-11.046875 4.308594-17.066406-2.453125-5.921875-8.390625-9.636719-14.785156-9.257813-10.632813.742188-22.53125 1.550781-35.320313 2.378907v-24.074219c5.902344-.417969 11.835938-.792969 17.722657-1.242188 3.042968-.238281 5.730468-2.078125 7.050781-4.832031 1.320312-2.753906 1.066406-6-.65625-8.519531-1.726563-2.519531-4.664063-3.925781-7.707031-3.691407-5.453126.417969-10.941407.757813-16.410157 1.152344v-45.390625c10.222657-3.558593 17.074219-13.203125 17.074219-24.027343 0-10.828126-6.851562-20.46875-17.074219-24.03125v-54.339844c11.746094-4.136719 18.796875-16.144532 16.683594-28.417969-2.109375-12.273437-12.765625-21.234375-25.21875-21.210937h-68.265625v-43.886719c5.914062-1.488281 11.316406-4.550781 15.625-8.867188 13.277344 3.972657 27.644531-.421875 36.429688-11.144531 16.285156 8.917969 36.714843 3.0625 45.796874-13.132812 17.964844-2.097657 31.171876-17.84375 30.117188-35.898438-1.058594-18.054688-16.015625-32.152344-34.101562-32.136719zm-128 76.796875h17.066406v17.070313h-34.132813v-17.070313zm-213.332032 119.46875h307.199219v51.199219h-307.199219zm119.464844 128c37.683594.042969 68.222656 30.582032 68.265625 68.265625 0 2.183594-.128906 4.335938-.324219 6.46875-.242187 2.546875-.625 5.082031-1.140625 7.585938-.148437.65625-.34375 1.289062-.503906 1.9375-.453125 1.878906-.964844 3.730469-1.570313 5.5625-.308593.914062-.648437 1.808593-.992187 2.707031-.566406 1.523438-1.207031 3.03125-1.917969 4.523438-.4375.921874-.855468 1.851562-1.332031 2.753906-.851563 1.578125-1.707031 3.105468-2.6875 4.617187-12.425781 19.96875-34.277344 32.109375-57.796875 32.109375s-45.371094-12.140625-57.796875-32.109375c-.945313-1.511719-1.859375-3.039062-2.6875-4.617187-.46875-.902344-.894531-1.832032-1.332031-2.753906-.6875-1.484376-1.328125-2.992188-1.917969-4.523438-.34375-.898438-.683594-1.792969-.992187-2.707031-.605469-1.832031-1.117188-3.683594-1.570313-5.5625-.160156-.648438-.355469-1.28125-.503906-1.9375-.515625-2.503907-.898438-5.039063-1.140625-7.585938-.195313-2.132812-.324219-4.265625-.324219-6.46875.042969-37.683593 30.582031-68.222656 68.265625-68.265625zm136.132812 63.546875-5.710937.300781-2.421875.152344v-24.234375c5.691406-.257812 11.382812-.460937 17.066406-.75v24.027344zm-25.199218 1.304688-6.074219.300781c-4.773437.230469-9.386719.441406-14.023437.640625l-5.503907.238281c0-1.1875-.1875-2.339844-.261719-3.507812-.085937-1.3125-.15625-2.628906-.300781-3.925782-.171875-1.542968-.441406-3.0625-.699219-4.582031-.214843-1.261719-.402343-2.558593-.664062-3.78125-.335938-1.5-.742188-2.96875-1.152344-4.445312-.332031-1.21875-.632812-2.441407-1.015625-3.632813-.078125-.222656-.121093-.460937-.195312-.683594 9.964843-.28125 19.933593-.582031 29.914062-.964843zm-192.144532-22.695313c-.386718 1.191406-.683593 2.414063-1.015624 3.632813-.410157 1.476562-.855469 2.945312-1.152344 4.445312-.265625 1.246094-.453125 2.5625-.664063 3.78125-.257812 1.519531-.53125 3.039063-.703125 4.582031-.144531 1.296876-.210937 2.613282-.296875 3.925782-.078125 1.167968-.230469 2.320312-.265625 3.507812l-5.539062-.25c-4.589844-.203125-9.238282-.40625-14-.636718l-6.085938-.292969v-24.34375c9.984375.382812 19.953125.683593 29.917969.964843-.050781.222657-.121094.460938-.195313.683594zm-46.789062 21.84375-2.558594-.128906-5.460937-.296875c-2.960938-.15625-6.050781-.34375-9.0625-.503906v-24.054688c5.691406.289063 11.375.492188 17.066406.75zm-34.132812-1.902344c-8.371094-.488281-16.878907-1-25.601563-1.546874v-23.976563c8.535156.554687 17.066406 1.023437 25.601563 1.5zm83.90625 40.300782h-28.550782c-.453125-.605469-.90625-1.160156-1.339844-1.859375-2.367187-4.042969-6.664062-6.570313-11.347656-6.671875-1.121094 0-2.234375.152344-3.3125.453125-3.355468.992187-6.21875 3.207031-8.023437 6.210937l-.050781.078125c-.417969.671875-.851563 1.203125-1.285157 1.789063h-25.839843c-.453126-.605469-.90625-1.160156-1.339844-1.859375-.0625-.09375-.144532-.152344-.207032-.246094-2.324218-3.996094-6.605468-6.445313-11.230468-6.421875-4.621094.023438-8.878906 2.519531-11.160156 6.539062-.035157.050782-.070313.09375-.109376.136719-.1875.308594-.394531.53125-.589843.8125-10.261719-1.515625-20.039063-5.367187-28.578125-11.257812l-22.1875-15.476563c11.136718.765625 23.5 1.585938 36.574218 2.421875l4.789063.300781c12.066406.765626 24.695313 1.527344 37.699219 2.277344l7.089844.398438 9.242187.515625 8.535156.460937 8.96875.46875 10.238281.503906c3.890626.191407 7.777344.375 11.65625.554688 3.5.160156 6.980469.324219 10.386719.46875l4.101563.1875c.070312.359375.1875.707031.257812 1.058594.433594 2.285156 1 4.511718 1.605469 6.722656.21875.777344.367187 1.570312.605469 2.339844.886718 2.898437 1.933594 5.746094 3.128906 8.53125.136719.164062.191406.367187.273438.5625zm289.417968-12.296875c-8.539062 5.894531-18.320312 9.746093-28.585937 11.257812-.179688-.273437-.375-.488281-.5625-.785156-2.363281-4.066406-6.675781-6.605469-11.375-6.707031-4.628907.105468-8.875 2.578125-11.25 6.554687l-.101563.125c-.433594.699219-.851562 1.246094-1.332031 1.851563h-25.828125c-.453125-.605469-.90625-1.152344-1.339844-1.851563-2.363281-4.046875-6.664062-6.578125-11.351562-6.679687-1.117188 0-2.230469.152344-3.308594.453125-3.367188.992187-6.238281 3.214843-8.046875 6.226562-.4375.699219-.855469 1.246094-1.332031 1.851563h-28.550782c.082032-.1875.136719-.390625.210938-.585938 1.195312-2.789062 2.242188-5.636718 3.132812-8.535156.238282-.769531.382813-1.5625.605469-2.339844.605469-2.207031 1.167969-4.433594 1.605469-6.722656.066406-.347656.1875-.699219.253906-1.058594l4.269532-.195312c2.675781-.109375 5.417968-.238282 8.15625-.367188 6.308593-.285156 12.613281-.585937 18.917968-.90625l3.574219-.167968 13.183594-.691407 2.152343-.121093c36.316407-1.945313 71.296876-4.1875 99.039063-6.101563zm-23.457031-29.574219h-.488281c-8.53125.535156-16.902344 1.039062-25.113282 1.519531v-23.996093c8.535157-.480469 17.066407-.949219 25.601563-1.503907zm8.53125-103.195312h-162.132813c-4.710937 0-8.53125 3.820312-8.53125 8.535156 0 4.710937 3.820313 8.53125 8.53125 8.53125h153.601563v45.039062c-38.050781 2.484375-76.410156 4.269532-114.511719 5.1875-.289062-.476562-.59375-.945312-.894531-1.421875-.648437-1.042969-1.261719-2.101562-1.953125-3.097656-.855469-1.238281-1.785156-2.417969-2.695312-3.601563-.554688-.726562-1.070313-1.492187-1.648438-2.203124l6.375-6.375c3.234375-3.347657 3.1875-8.667969-.105469-11.960938-3.289062-3.292969-8.613281-3.335938-11.960937-.105469l-6.375 6.375-.058594-.050781c-1.171875-.957031-2.40625-1.816406-3.628906-2.714844-.972656-.707031-1.917969-1.464844-2.917969-2.132812-1.269531-.851563-2.609375-1.613282-3.933594-2.398438-1.023437-.605468-2.011719-1.261718-3.0625-1.824218-1.367187-.734376-2.78125-1.355469-4.191406-2.023438-1.074219-.503906-2.125-1.066406-3.234375-1.527344-1.457031-.613281-2.976562-1.109375-4.480469-1.644531-1.097656-.394531-2.175781-.855469-3.292969-1.1875-1.613281-.503906-3.277343-.851563-4.929687-1.273437-1.070313-.261719-2.109375-.585938-3.183594-.808594-1.878906-.375-3.796875-.613282-5.71875-.855469-.894531-.117187-1.773437-.3125-2.6875-.40625h-.109375v-8.988281c0-4.710938-3.824218-8.53125-8.535156-8.53125s-8.535156 3.820312-8.535156 8.53125v8.960937h-.109375c-.914063.09375-1.792969.289063-2.6875.410157-1.921875.253906-3.839844.496093-5.71875.851562-1.074219.222656-2.113281.546875-3.183594.8125-1.652344.402344-3.316406.769531-4.929687 1.269531-1.117188.34375-2.183594.796875-3.285157 1.1875-1.503906.53125-3.03125 1.03125-4.488281 1.648438-1.101562.460937-2.152344 1.015625-3.21875 1.519531-1.417969.664062-2.839844 1.296875-4.207031 2.027344-1.050781.566406-2.039063 1.222656-3.0625 1.828125-1.324219.785156-2.664063 1.542969-3.933594 2.398437-1 .664063-1.945313 1.425782-2.917969 2.132813-1.222656.851562-2.457031 1.757812-3.628906 2.714843l-.058594.050782-6.375-6.375c-3.347656-3.234375-8.671875-3.1875-11.960937.101562-3.292969 3.292969-3.339844 8.617188-.105469 11.964844l6.375 6.375c-.578125.707031-1.09375 1.476562-1.648438 2.199219-.910156 1.1875-1.839843 2.363281-2.695312 3.601562-.691406 1-1.304688 2.058594-1.953125 3.097657-.300781.476562-.605469.949218-.894531 1.425781-38.113282-.964844-76.460938-2.707031-114.511719-5.1875v-45.015625h153.601563c4.710937 0 8.53125-3.820313 8.53125-8.53125 0-4.714844-3.820313-8.535156-8.53125-8.535156h-162.132813c-4.714844 0-8.535156-3.820313-8.535156-8.53125 0-4.714844 3.820312-8.535157 8.535156-8.535157h392.53125c4.714844 0 8.535156 3.820313 8.535156 8.535157 0 4.710937-3.820312 8.53125-8.535156 8.53125zm8.535156-110.933594c0 4.714844-3.820312 8.535156-8.535156 8.535156h-324.265625c-4.710938 0-8.535156-3.820312-8.535156-8.535156 0-4.710938 3.824218-8.53125 8.535156-8.53125h324.265625c4.714844 0 8.535156 3.820312 8.535156 8.53125zm-128-25.597656v-34.132813h34.132813v34.132813zm145.390625-93.867188c-.246094 0-1.179687-.128906-1.425781-.144531-3.816406-.324219-7.34375 2.054687-8.472656 5.714843-1.917969 5.667969-6.683594 9.902344-12.539063 11.128907-5.855468 1.226562-11.925781-.734375-15.953125-5.152344-2.019531-2.179687-5.023437-3.152344-7.933593-2.570313-2.910157.582032-5.308594 2.632813-6.335938 5.417969-1.75 4.644531-5.4375 8.296875-10.097656 10.003907-4.660156 1.707031-9.832032 1.300781-14.171875-1.113282-3.957031-2.242187-8.980469-.984375-11.417969 2.859375-1.46875 2.328125-3.472656 4.269531-5.84375 5.667969v-6.214844c0-9.425781-7.640625-17.066406-17.066406-17.066406h-6.203125c2.074219-3.5 5.320312-6.152344 9.164062-7.492188 3.574219-1.242187 5.902344-4.691406 5.71875-8.472656-.011719-.371094-.058593-.738281-.148437-1.101562.046875-7.746094 5.300781-14.488282 12.800781-16.425782 2.816406-.726562 5.066406-2.835937 5.972656-5.597656 3.898438-12.207031 15.203125-20.527344 28.015625-20.621094 12.816406-.089843 24.238282 8.066407 28.304688 20.21875.996094 2.882813 3.453125 5.011719 6.445312 5.589844 2.992188.578125 6.0625-.480468 8.0625-2.78125 3.179688-3.777344 7.863282-5.964844 12.800782-5.980468 9.425781-.089844 17.140624 7.476562 17.226562 16.902343.089844 9.425781-7.476562 17.140625-16.902344 17.230469zm0 0"/></svg>