<svg height="512pt" viewBox="-26 0 512 512.00882" width="512pt" xmlns="http://www.w3.org/2000/svg"><path d="m449.351562 230.125c2.554688-4.503906 5.402344-8.832031 8.53125-12.960938 3.199219-3.820312 3.867188-9.160156 1.707032-13.652343-2.042969-4.433594-6.484375-7.265625-11.367188-7.246094h-4.480468v-41.214844c-.03125-8.636719-3.464844-16.914062-9.554688-23.039062l-3.558594-4.394531 3.558594-3.558594c6.105469-6.140625 9.542969-14.449219 9.554688-23.109375v-15.617188c0-9.425781-7.640626-17.066406-17.066407-17.066406h-51.199219c-9.425781 0-17.066406 7.640625-17.066406 17.066406v15.617188c.03125 8.636719 3.464844 16.914062 9.558594 23.039062l3.558594 4.394531-3.558594 3.558594c-6.109375 6.140625-9.542969 14.449219-9.558594 23.109375v41.214844h-17.066406v-75.347656c-.03125-8.636719-3.464844-16.917969-9.558594-23.039063l-3.558594-4.394531 3.558594-3.558594c6.109375-6.144531 9.542969-14.449219 9.558594-23.109375v-15.617187c0-9.425781-7.640625-17.066407-17.066406-17.066407h-51.199219c-9.425781 0-17.066406 7.640626-17.066406 17.066407v15.617187c.03125 8.636719 3.464843 16.914063 9.554687 23.039063l3.558594 4.394531-3.558594 3.558594c-6.105468 6.140625-9.542968 14.445312-9.554687 23.109375v75.347656h-4.480469c-4.882812-.007813-9.320312 2.839844-11.351562 7.28125-2.140626 4.480469-1.476563 9.796875 1.707031 13.609375 3.128906 4.128906 5.980469 8.460938 8.535156 12.96875 12.925781 21.386719 34.242187 56.441406 90.9375 59.683594v13.808594l-77.140625-7.960938c-.085938-1 0-2-.1875-3.003906-2.148438-11.996094-10.523438-21.933594-21.980469-26.078125-11.457031-4.148438-24.253906-1.875-33.578125 5.964843-5.03125 4.285157-8.699218 9.953126-10.550781 16.296876l-78.445313-8.089844v-25.070313c56.695313-3.242187 78.011719-38.296875 90.941407-59.683593 2.554687-4.503907 5.402343-8.832032 8.53125-12.960938 3.199219-3.820312 3.867187-9.160156 1.707031-13.652344-2.042969-4.433594-6.484375-7.265625-11.367188-7.246094h-55.679687v-75.347656c-.03125-8.640625-3.464844-16.917968-9.554687-23.042968l-3.558594-4.394532 3.558594-3.558594c6.105468-6.140624 9.542968-14.445312 9.554687-23.105468v-15.617188c0-9.425781-7.640625-17.066406-17.066406-17.066406h-51.199219c-9.425781 0-17.066406 7.640625-17.066406 17.066406v15.617188c.03125 8.636718 3.464844 16.914062 9.558594 23.039062l3.554687 4.394532-3.554687 3.558593c-6.109376 6.140625-9.546876 14.445313-9.558594 23.109375v75.347656h-55.679688c-4.882812-.007812-9.320312 2.839844-11.351562 7.28125-2.140625 4.476563-1.476563 9.796876 1.707031 13.609376 3.128906 4.128906 5.980469 8.460937 8.535156 12.96875 12.910157 21.386718 34.226563 56.441406 90.921875 59.683593v23.542969c-13.242187-.269531-24.464844 9.683594-25.777344 22.859375-.835937 8.289063 2.414063 16.464844 8.710938 21.914063v45.3125c-5.261719 3.023437-8.515625 8.625-8.535156 14.695312v54.785156c.125 3.183594-1.644532 6.140625-4.511719 7.535156-13.363281 5.558594-21.785156 18.917969-21.042969 33.371094 1.371094 18.507813 16.988282 32.703125 35.539063 32.308594h41.21875c13.871093-.148438 27.40625-4.296875 38.980469-11.945312 5-3.304688 10.855468-5.085938 16.851562-5.121094h93.132812c5.992188.027344 11.84375 1.789062 16.851563 5.078125 11.566406 7.667969 25.105469 11.832031 38.980469 11.988281h41.21875c18.570312.414062 34.210937-13.789062 35.582031-32.316406.742187-14.449219-7.683594-27.808594-21.042969-33.363282-2.882812-1.382812-4.671875-4.339843-4.554687-7.535156v-54.785156c-.019531-6.070312-3.273438-11.671875-8.535157-14.695312v-18.875c7.726563-6.667969 10.738282-17.296876 7.667969-27.03125-3.074219-9.730469-11.644531-16.699219-21.800781-17.726563l-2.933594-.296875v-15.566406c56.695313-3.242188 78.011719-38.296875 90.941406-59.683594zm-90.941406 126.621094v10.1875h-17.066406v-11.84375l14.753906 1.519531c.769532.082031 1.542969.125 2.3125.136719zm-34.132812 11.699218c-4.582032 1.886719-8.101563 5.695313-9.625 10.410157-4.558594 14.378906-21.890625 47.8125-84.242188 47.8125-62.351562 0-79.683594-33.433594-84.234375-47.789063-1.523437-4.722656-5.046875-8.535156-9.632812-10.433594v-34.460937l65.707031 6.769531c-.621094 2.234375-1.269531 4.351563-1.902344 6.117188-1.640625 4.609375-.933594 9.726562 1.894532 13.71875 2.828124 3.992187 7.421874 6.359375 12.3125 6.34375h31.710937c4.886719.015625 9.476563-2.351563 12.300781-6.335938 2.828125-3.988281 3.539063-9.101562 1.90625-13.710937l-.042968-.125 63.847656 6.570312zm-221.867188-37.964843 17.066406 1.757812v34.695313h-17.066406zm131.132813-48.640625c6.921875 1.363281 12.320312 6.792968 13.652343 13.71875.5625 3.597656-.003906 7.277344-1.628906 10.53125-.1875.375-.34375.761718-.5625 1.128906-.882812 1.496094-1.976562 2.855469-3.253906 4.035156-.425781.46875-.796875.984375-1.109375 1.535156-.363281.414063-.6875.859376-.972656 1.332032-.484375 1.09375-.734375 2.277344-.734375 3.472656v6.671875c.019531 2.570313.183594 5.132813.496094 7.679687.257812 2.132813.570312 4.269532.972656 6.265626 0 .144531 0 .28125.070312.433593.066406.15625.066406.144531.082032.222657.761718 3.71875 1.730468 7.390624 2.902343 11h-26.09375c1.574219-4.859376 2.761719-9.835938 3.558594-14.882813 0-.171875.136719-.308594.160156-.476563.0625-.410156 0-.792968.09375-1.195312.4375-2.996094.671875-6.019531.699219-9.046875v-6.636719c.003906-2.417968-1.019531-4.722656-2.8125-6.339844-5.695312-5.097656-7.296875-13.363281-3.914062-20.214843 3.378906-6.855469 10.910156-10.617188 18.417968-9.199219zm-148.199219-195.054688c.007812-4.128906 1.644531-8.085937 4.554688-11.007812l3.558593-3.558594c6.886719-6.898438 6.886719-18.070312 0-24.96875l-3.558593-3.558594c-2.910157-2.925781-4.546876-6.882812-4.554688-11.007812v-15.617188h51.199219v15.617188c-.007813 4.125-1.644531 8.082031-4.554688 11.007812l-3.558593 3.558594c-6.886719 6.898438-6.886719 18.070312 0 24.96875l3.558593 3.558594c2.910157 2.921875 4.546875 6.878906 4.554688 11.007812v75.347656h-51.199219zm-59.265625 100.375c-1.707031-2.761718-3.300781-5.453125-4.921875-7.960937h179.574219c-1.621094 2.507812-3.242188 5.199219-4.921875 7.960937-13.183594 21.847656-31.285156 51.773438-84.863282 51.773438-53.582031 0-71.683593-29.925782-84.867187-51.773438zm70.640625 110.933594c1.511719-1.242188 3.410156-1.921875 5.367188-1.917969.285156 0 .570312.015625.851562.050781l94.140625 9.695313c.34375 1.511719.789063 3 1.339844 4.453125.128906.339844.300781.664062.4375 1.007812.5625 1.371094 1.210937 2.707032 1.945312 4 .253907.4375.503907.855469.765625 1.296876.960938 1.5625 2.046875 3.042968 3.242188 4.429687v2.746094l-75.894532-7.816407-27.691406-2.867187c-1.125-.109375-2.214844-.449219-3.207031-.996094-3.027344-1.640625-4.761719-4.941406-4.394531-8.363281.226562-2.246094 1.339844-4.308594 3.097656-5.726562zm285.277344 163.984375c6.691406 2.785156 10.914062 9.472656 10.546875 16.710937-1.007813 9.390626-9.074219 16.425782-18.515625 16.144532h-41.21875c-10.578125-.15625-20.882813-3.363282-29.6875-9.234375-7.769532-5.089844-16.855469-7.8125-26.144532-7.832031h-93.132812c-9.292969.019531-18.378906 2.742187-26.144531 7.839843-8.804688 5.863281-19.113281 9.066407-29.6875 9.226563h-41.21875c-9.4375.28125-17.503907-6.746094-18.515625-16.136719-.375-7.234375 3.835937-13.925781 10.519531-16.71875 9.292969-3.980469 15.253906-13.1875 15.078125-23.292969v-54.785156h36.03125c5.691406 17.921875 26.878906 59.734375 100.503906 59.734375s94.8125-41.761719 100.496094-59.734375h36.039062v54.785156c-.179687 10.101563 5.769532 19.304688 15.050782 23.292969zm-14.796875-130.0625c-.367188 3.183594-2.484375 5.890625-5.488281 7.015625-.289063.101562-.578126.238281-.851563.3125-.96875.277344-1.980469.371094-2.988281.28125l-101.546875-10.453125c-.1875-1.628906-.292969-3.265625-.3125-4.90625v-3.148437l.074219-.117188c1.433593-1.675781 2.699218-3.480469 3.789062-5.394531.308594-.539063.597656-1.066407.855469-1.613281.253906-.546876.570312-.945313.792969-1.449219l98.054687 10.121093c4.6875.476563 8.097656 4.664063 7.621094 9.351563zm16.394531-216.5-3.558594-3.558594c-2.914062-2.925781-4.550781-6.882812-4.558594-11.007812v-15.617188h51.199219v15.617188c-.007812 4.125-1.644531 8.082031-4.554687 11.007812l-3.558594 3.558594c-6.886719 6.898437-6.886719 18.070313 0 24.96875l3.558594 3.558594c2.910156 2.925781 4.546875 6.882812 4.554687 11.007812v41.214844h-51.199219v-41.214844c.007813-4.125 1.644532-8.082031 4.558594-11.007812l3.558594-3.558594c6.882812-6.898437 6.882812-18.070313 0-24.96875zm-110.515625 5.402344c.007813-4.128907 1.644531-8.082031 4.554687-11.007813l3.558594-3.558594c6.886719-6.898437 6.886719-18.070312 0-24.96875l-3.558594-3.558593c-2.910156-2.925781-4.546874-6.882813-4.554687-11.007813v-15.617187h51.199219v15.617187c-.007813 4.125-1.648438 8.082032-4.558594 11.007813l-3.558594 3.558593c-6.882812 6.898438-6.882812 18.070313 0 24.96875l3.558594 3.558594c2.910156 2.925782 4.550781 6.878906 4.558594 11.007813v75.347656h-51.199219zm-8.066406 100.378906c-1.707031-2.765625-3.300781-5.453125-4.921875-7.964844h179.574218c-1.621093 2.511719-3.242187 5.199219-4.921874 7.964844-13.183594 21.84375-31.285157 51.769531-84.867188 51.769531-53.578125 0-71.679688-29.925781-84.863281-51.769531zm0 0"/></svg>