<svg height="512pt" viewBox="0 0 512 512.01708" width="512pt" xmlns="http://www.w3.org/2000/svg"><path d="m155.546875 342.136719c27.175781 34.925781 52.90625 67.914062 57.171875 87.996093 1.074219 5.132813 4.453125 9.488282 9.15625 11.808594v53.007813c0 9.425781 7.640625 17.066406 17.066406 17.066406h34.132813c9.425781 0 17.066406-7.640625 17.066406-17.066406v-53.007813c4.695313-2.324218 8.0625-6.675781 9.132813-11.800781 4.335937-20.089844 30.019531-53.078125 57.171874-88.003906 44.9375-57.6875 95.832032-123.070313 95.832032-179.984375-.195313-40.683594-16.425782-79.644532-45.167969-108.433594-30.246094-28.585938-69.046875-46.4375-110.429687-50.816406-1.515626-.683594-3.199219-.886719-4.832032-.589844h-.050781c-23.753906-3.082031-47.804687-3.082031-71.558594 0h-.050781c-1.632812-.289062-3.3125-.085938-4.824219.589844-41.390625 4.371094-80.203125 22.226562-110.453125 50.816406-28.742187 28.789062-44.972656 67.75-45.167968 108.433594 0 56.914062 50.894531 122.296875 95.804687 179.984375zm117.527344 101.613281v17.066406h-34.132813v-17.066406zm-34.132813 51.199219v-17.066407h34.132813v17.066407zm196.265625-332.796875c0 51.054687-51.113281 116.734375-92.160156 169.496094-29.6875 38.09375-55.292969 70.996093-60.429687 95.035156h-.726563c2.445313-33.753906 9.207031-67.054688 20.113281-99.089844l.511719-1.707031c11.4375-33.804688 19.882813-68.546875 25.234375-103.832031 4.5-36.132813 4.289062-72.695313-.632812-108.773438-2.335938-17.796875-5.949219-35.402344-10.8125-52.675781-1.457032-5.121094-3.003907-10.171875-4.554688-15.242188-2.40625-7.894531-4.71875-15.972656-6.828125-24.097656 101.488281 18.347656 130.285156 93.832031 130.285156 140.886719zm-148.476562-143.457032c2.558593 10.804688 5.570312 21.378907 8.695312 31.574219 1.527344 4.984375 3.042969 9.976563 4.488281 14.96875 4.632813 16.511719 8.070313 33.339844 10.289063 50.347657 4.660156 34.613281 4.867187 69.683593.613281 104.351562-5.207031 34.304688-13.445312 68.082031-24.617187 100.933594l-.511719 1.707031c-11.4375 33.625-18.453125 68.601563-20.863281 104.039063l-17.628907-.042969c-2.417968-35.425781-9.429687-70.382813-20.867187-103.996094l-.511719-1.707031c-11.171875-32.847656-19.410156-66.621094-24.617187-100.925782-4.25-34.667968-4.042969-69.738281.613281-104.351562 2.21875-17.007812 5.660156-33.835938 10.292969-50.347656 1.441406-5 2.960937-9.992188 4.488281-14.976563 3.121094-10.238281 6.175781-20.804687 8.695312-31.574219 20.421876-2.148437 41.015626-2.148437 61.441407 0zm-79.625 2.5625c-2.117188 8.121094-4.429688 16.210938-6.828125 24.097657-1.554688 5.066406-3.097656 10.136719-4.554688 15.25-4.867187 17.292969-8.480468 34.914062-10.8125 52.726562-4.921875 36.078125-5.132812 72.640625-.632812 108.773438 5.351562 35.273437 13.792968 70.011719 25.226562 103.808593l.511719 1.707032c10.890625 32.003906 17.648437 65.269531 20.101563 98.984375h-.691407c-5.160156-23.890625-30.769531-56.796875-60.414062-94.890625-41.089844-52.828125-92.203125-118.507813-92.203125-169.5625 0-47.054688 28.800781-122.539063 130.296875-140.921875zm0 0"/><path d="m494.710938 448.289062c.15625-1.535156.230468-3.046874.230468-4.539062.066406-23.34375-15.699218-43.761719-38.300781-49.597656-22.601563-5.835938-46.285156 4.394531-57.527344 24.851562-2.144531-.578125-4.351562-.863281-6.570312-.851562-14.140625 0-25.601563 11.460937-25.601563 25.597656 0 1.472656.128906 2.9375.382813 4.386719-13.515625 7.605469-20.203125 23.367187-16.285157 38.371093 3.917969 15.007813 17.460938 25.484376 32.96875 25.507813h93.867188c18.851562 0 34.132812-15.28125 34.132812-34.132813.042969-12.273437-6.578124-23.605468-17.296874-29.59375zm-16.835938 46.660157h-93.867188c-8.574218-.125-15.726562-6.597657-16.703124-15.117188-.980469-8.523437 4.519531-16.445312 12.847656-18.511719 2.707031-.625 4.941406-2.53125 5.988281-5.109374 1.042969-2.574219.769531-5.5-.742187-7.835938-.90625-1.371094-1.386719-2.980469-1.390626-4.625 0-4.710938 3.820313-8.53125 8.535157-8.53125 1.964843.015625 3.867187.722656 5.367187 1.996094 2.175782 1.796875 5.105469 2.402344 7.816406 1.613281 2.714844-.789063 4.859376-2.871094 5.734376-5.558594 5.488281-17.507812 23.886718-27.5 41.558593-22.566406 17.675781 4.933594 28.242188 23.007813 23.867188 40.828125-1.039063 4.398438 1.527343 8.84375 5.851562 10.140625 7.222657 2.085937 12.199219 8.695313 12.203125 16.210937 0 9.425782-7.640625 17.066407-17.066406 17.066407zm0 0"/><path d="m162.140625 477.882812c.042969-12.355468-6.644531-23.753906-17.449219-29.746093.257813-1.449219.382813-2.914063.382813-4.386719 0-14.136719-11.460938-25.597656-25.597657-25.597656-2.21875-.011719-4.429687.273437-6.570312.851562-11.246094-20.457031-34.925781-30.6875-57.527344-24.851562-22.601562 5.835937-38.371094 26.253906-38.304687 49.597656 0 1.492188.078125 3.003906.230469 4.539062-10.714844 5.988282-17.3398442 17.320313-17.2968755 29.59375 0 18.851563 15.2812495 34.132813 34.1328125 34.132813h93.867187c18.851563 0 34.132813-15.28125 34.132813-34.132813zm-145.066406 0c.007812-7.515624 4.980469-14.125 12.203125-16.210937 4.320312-1.296875 6.882812-5.730469 5.855468-10.121094-4.226562-17.765625 6.339844-35.695312 23.925782-40.605469 17.589844-4.90625 35.914062 4.957032 41.5 22.34375.871094 2.6875 3.019531 4.769532 5.730468 5.558594 2.714844.789063 5.640626.183594 7.820313-1.617187 1.496094-1.277344 3.394531-1.992188 5.367187-2.011719 4.710938 0 8.53125 3.820312 8.53125 8.53125 0 1.644531-.484374 3.253906-1.390624 4.625-1.507813 2.335938-1.785157 5.261719-.738282 7.835938 1.042969 2.578124 3.277344 4.484374 5.988282 5.109374 8.324218 2.066407 13.824218 9.988282 12.847656 18.511719-.976563 8.519531-8.128906 14.992188-16.707032 15.117188h-93.867187c-9.425781 0-17.066406-7.640625-17.066406-17.066407zm0 0"/></svg>