<svg height="512pt" viewBox="-64 0 512 512" width="512pt" xmlns="http://www.w3.org/2000/svg"><path d="m333.132812 76.800781c1.648438 21.871094 9.703126 42.664063 25.265626 42.664063 17.597656 0 25.601562-26.535156 25.601562-51.199219 0-24.660156-8.003906-51.199219-25.601562-51.199219-15.5625 0-23.617188 20.796875-25.265626 42.667969h-17.398437v-17.066406c0-4.714844-3.820313-8.535157-8.535156-8.535157-7.238281-1.757812-14.152344-4.65625-20.480469-8.585937-27.503906-16.027344-58.625-24.816406-90.453125-25.546875-50.34375 0-72.992187 17.648438-80.671875 25.601562h-4.660156c-9.425782 0-17.066406 7.640626-17.066406 17.066407v34.132812c.042968 10.808594 6.875 20.425781 17.066406 24.027344v10.105469c0 4.710937 3.820312 8.53125 8.53125 8.53125 4.714844 0 8.535156-3.820313 8.535156-8.53125v-9.207032c2.828125-.605468 5.527344-1.699218 7.980469-3.234374 5.316406-3.175782 11.425781-4.777344 17.621093-4.625h76.796876c8.859374 0 20.207031 1.269531 23.972656 7.363281 3.089844 5 1.707031 14.421875-3.789063 26.769531h-131.117187c-9.425782 0-17.066406 7.640625-17.066406 17.066406.0625 14.039063 11.300781 25.472656 25.335937 25.78125 36.175781.335938 72.304687 2.675782 108.222656 7.011719-2.382812 2.175781-4.796875 4.265625-6.914062 6.058594-4.660157 3.628906-8.894531 7.769531-12.621094 12.347656h-15.761719c-5.511718.003906-10.679687 2.667969-13.882812 7.152344l-37.570313 52.582031h-98.007812c-12.453125-.023438-23.109375 8.9375-25.21875 21.210938-2.109375 12.273437 4.941406 24.28125 16.6875 28.417968v155.171875h-17.066407c-14.140624 0-25.601562 11.460938-25.601562 25.597657 0 14.140624 11.460938 25.601562 25.601562 25.601562h8.53125c14.140626 0 25.601563-11.460938 25.601563-25.601562v-75.78125c12.363281 3.683593 22.003906 13.398437 25.597656 25.785156v15.863281c0 9.425781 7.640625 17.066406 17.066407 17.066406h102.402343c9.425781 0 17.066407-7.640625 17.066407-17.066406h42.667968c16.117188 0 22.976563-11.945313 28.507813-21.570313 5.394531-9.386718 10.300781-17.640624 22.691406-20.199218v75.902344c0 14.140624 11.460937 25.601562 25.597656 25.601562h8.535157c14.136718 0 25.597656-11.460938 25.597656-25.601562 0-14.136719-11.460938-25.597657-25.597656-25.597657h-17.066407v-214.902343c11.746094-4.140626 18.796875-16.144532 16.683594-28.417969-2.109375-12.273438-12.765625-21.238281-25.21875-21.214844v-51.199219h8.535156c4.710938 0 8.53125-3.820312 8.53125-8.53125 0-4.714844-3.820312-8.535156-8.53125-8.535156h-17.066406v-51.199219zm25.265626-42.453125c2.792968 2.191406 8.535156 13.882813 8.535156 33.917969 0 20.039063-5.742188 31.726563-8.535156 33.921875-2.789063-2.195312-8.53125-13.882812-8.53125-33.921875 0-20.035156 5.742187-31.726563 8.53125-33.917969zm-92.660157-.214844h-1.203125c-15.5625.253907-31.089844 1.582032-46.464844 3.984376-18.515624 2.84375-37.207031 4.363281-55.9375 4.550781-10.113281.789062-19.9375-3.605469-26.085937-11.675781 9.875-6.246094 28.40625-13.925782 60.21875-13.925782 24.167969.226563 47.949219 6.070313 69.472656 17.066406zm-146.273437 110.933594h128v17.066406c0 .09375-.050782.195313-.058594.289063-39.558594-5.585937-79.453125-8.476563-119.40625-8.644531-4.726562-.125-8.503906-3.980469-8.535156-8.710938zm-76.796875 341.332032c0 4.714843-3.820313 8.535156-8.535157 8.535156h-8.53125c-4.714843 0-8.535156-3.820313-8.535156-8.535156 0-4.710938 3.820313-8.53125 8.535156-8.53125h17.066407zm17.066406-179.199219h22.945313c-9.679688 10.589843-17.445313 22.785156-22.945313 36.035156zm56.199219 93.867187 51.199218 51.199219h-27.066406l-37.667968-37.664063v-13.535156zm-13.535156 37.667969 13.535156 13.53125h-13.535156zm88.867187 13.53125-51.199219-51.199219h27.066406l37.667969 37.683594v13.515625zm13.535156-37.664063-13.535156-13.535156h13.535156zm17.066407-13.535156h25.597656c4.714844 0 8.535156 3.820313 8.535156 8.535156v25.597657h-34.132812zm56.371093 21.128906c-1.554687 2.84375-3.28125 5.589844-5.171875 8.226563v-20.820313c0-14.140624-11.460937-25.601562-25.601562-25.601562h-145.066406c-9.425782 0-17.066407 7.640625-17.066407 17.066406v4.546875c-6.6875-6.214843-14.992187-10.421875-23.960937-12.140625 6.691406-30.4375 25.667968-86.273437 58.09375-86.273437h42.667968c53.09375 0 85.332032 17.785156 85.332032 25.601562v8.53125c.054687 11.207031 7.394531 21.074219 18.109375 24.355469 2.992187 8.578125 7.558593 16.527344 13.464843 23.433594 4.339844 5.121094 7.871094 10.875 10.472657 17.066406-4.390625 4.859375-8.175781 10.238281-11.273438 16.007812zm-5.171875-140.59375c4.714844 0 8.535156 3.820313 8.535156 8.53125v51.199219c0 4.714844-3.820312 8.535157-8.535156 8.535157-4.710937 0-8.53125-3.820313-8.53125-8.535157v-51.199219c0-4.710937 3.820313-8.53125 8.53125-8.53125zm-8.53125-15.5c-10.195312 3.605469-17.023437 13.222657-17.070312 24.03125v19.0625c-18.917969-10.132812-39.757813-16.175781-61.164063-17.738281l31.425781-43.992187h46.808594zm39.421875 130.179688c-3.144531-6.175781-6.917969-12.007812-11.265625-17.402344-3.550781-4.40625-6.679687-9.140625-9.34375-14.136718 9.296875-4.078126 15.304688-13.261719 15.320313-23.410157v-51.199219c-.046875-10.808593-6.875-20.425781-17.066407-24.03125v-18.636718h34.132813v145.71875c-4.042969.523437-8 1.566406-11.777344 3.097656zm54.441407 90.117188c0 4.714843-3.820313 8.535156-8.53125 8.535156h-8.535157c-4.710937 0-8.53125-3.820313-8.53125-8.535156v-8.53125h17.066407c4.710937 0 8.53125 3.820312 8.53125 8.53125zm-25.597657-264.53125c0 4.710937-3.820312 8.53125-8.535156 8.53125h-106.539063c-5.507812.003906-10.679687 2.667968-13.882812 7.152343l-37.570312 52.582031h-115.074219c-4.710938 0-8.53125-3.820312-8.53125-8.53125 0-4.714843 3.820312-8.535156 8.53125-8.535156h98.007812c5.507813-.003906 10.679688-2.664062 13.882813-7.152344l37.570312-52.582031h123.605469c4.714844 0 8.535156 3.820313 8.535156 8.535157zm-91.929687-25.601563c7.042968-5.53125 13.300781-11.992187 18.601562-19.207031.078125-.113282.179688-.1875.257813-.300782l.125-.230468.105469-.175782c.800781-1.285156 1.519531-2.621093 2.148437-3.996093.1875-.398438.332031-.808594.503906-1.21875.417969-1.039063.777344-2.101563 1.066407-3.183594.121093-.453125.246093-.90625.339843-1.367187.324219-1.460938.492188-2.953126.515625-4.453126v-17.066406h42.664063v51.199219zm28.160156-68.265625c5.476562-15 5.417969-26.761719-.128906-35.738281-6.355469-10.265625-19.300782-15.460938-38.503906-15.460938h-76.796876c-9.445312-.175781-18.742187 2.355469-26.796874 7.296875-1.316407.824219-2.839844 1.25-4.394532 1.234375h-2.945312c-4.710938 0-8.53125-3.820312-8.53125-8.53125v-34.132812h12.578125c9.480469 11.4375 23.78125 17.757812 38.621093 17.066406 19.488282-.175781 38.9375-1.746094 58.199219-4.703125 14.628907-2.285156 29.398438-3.566406 44.203125-3.832031h34.132813v76.800781zm0 0"/></svg>