<svg height="512pt" viewBox="-73 0 512 512.0127" width="512pt" xmlns="http://www.w3.org/2000/svg"><path d="m281.609375 477.878906c24.679687 0 31.574219 15.113282 33.441406 21.617188 1.960938 7.359375 8.613281 12.488281 16.230469 12.515625h18.851562c9.277344-.011719 16.796876-7.53125 16.808594-16.808594v-59.992187c0-14.136719-11.460937-25.597657-25.597656-25.597657v-291.703125c11.746094-4.136718 18.792969-16.144531 16.683594-28.417968-2.109375-12.273438-12.765625-21.238282-25.21875-21.210938h-59.734375v-18.640625c11.257812-3.945313 18.28125-15.160156 16.921875-27.007813-1.359375-11.851562-10.738282-21.183593-22.597656-22.480468-11.855469-1.296875-23.03125 5.785156-26.921876 17.0625-77.992187 1.179687-129.535156 23.066406-129.535156 119.332031 0 21.511719-6.050781 35.265625-16.605468 37.757813-7.085938 1.550781-14.402344-1.402344-18.421876-7.441407-2.109374-4.214843-7.234374-5.929687-11.453124-3.820312-4.21875 2.105469-5.929688 7.234375-3.824219 11.449219 6.210937 10.816406 17.789062 17.421874 30.261719 17.265624 2.476562 0 4.949218-.285156 7.363281-.855468 8.941406-2.097656 29.746093-11.621094 29.746093-54.355469 0-82.953125 41.191407-101.230469 112.539063-102.296875 2.597656 7.179688 8.269531 12.824219 15.460937 15.390625v18.640625h-59.730468c-12.457032-.027344-23.109375 8.9375-25.222656 21.210938-2.109376 12.273437 4.941406 24.28125 16.6875 28.417968v283.167969c0 4.714844 3.820312 8.535156 8.535156 8.535156 4.710937 0 8.53125-3.820312 8.53125-8.535156v-8.53125h17.066406v25.597656c0 4.714844-3.820312 8.535157-8.53125 8.535157h-34.136719c-39.105469 0-42.367187-27.050782-43.089843-71.605469-.34375-20.972657-.667969-40.777344-9.816407-52.980469-24.078125-32.101562-51.582031-26.453125-62.761719-19.046875-3.921874 2.613281-4.980468 7.914063-2.363281 11.835937 2.617188 3.921876 7.914063 4.980469 11.835938 2.363282.777343-.511719 19.121093-12.261719 39.636719 15.085937 5.828124 7.773438 6.117187 25.695313 6.402343 43.035157.605469 37.296874 1.433594 88.378906 60.15625 88.378906h34.136719c14.136719 0 25.597656-11.460938 25.597656-25.601563v-25.597656h51.199219v17.066406h-25.597656c-4.714844 0-8.535157 3.820313-8.535157 8.53125 0 4.714844 3.820313 8.535157 8.535157 8.535157h25.597656v8.53125c0 4.714843 3.820313 8.535156 8.535156 8.535156 4.710938 0 8.53125-3.820313 8.53125-8.535156v-8.53125h34.136719c4.710938 0 8.53125 3.820312 8.53125 8.53125v25.601562h-179.199219c-4.714843 0-8.535156 3.820312-8.535156 8.535156v25.855469c.015625 9.277344 7.535156 16.796875 16.8125 16.808594h18.851563c7.613281-.035157 14.257812-5.175781 16.210937-12.535157 1.886719-6.484374 8.78125-21.597656 33.460937-21.597656zm-17.066406-460.800781c4.710937 0 8.53125 3.820313 8.53125 8.535156 0 4.710938-3.820313 8.53125-8.53125 8.53125-4.714844 0-8.535157-3.820312-8.535157-8.53125 0-4.714843 3.820313-8.535156 8.535157-8.535156zm25.597656 102.402344v17.066406h-51.199219v-17.066406zm34.136719 0v17.066406h-17.070313v-17.066406zm-34.136719 102.398437v17.066406h-51.199219v-17.066406zm-51.199219-17.066406v-17.066406h51.199219v17.066406zm51.199219 51.199219v17.066406h-51.199219v-17.066406zm17.066406 0h17.070313v17.066406h-17.070313zm0-17.066407v-17.066406h17.070313v17.066406zm0-34.132812v-17.066406h17.070313v17.066406zm0-34.132812v-17.066407h17.070313v17.066407zm-17.066406 0h-51.199219v-17.066407h51.199219zm-68.265625 0h-17.066406v-17.066407h17.066406zm0 17.066406v17.066406h-17.066406v-17.066406zm0 34.132812v17.066406h-17.066406v-17.066406zm0 34.132813v17.066406h-17.066406v-17.066406zm0 34.132812v17.066407h-17.066406v-17.066407zm17.066406 0h51.199219v17.066407h-51.199219zm68.265625 0h17.070313v17.066407h-17.070313zm-85.332031-153.597656h-17.066406v-17.066406h17.066406zm-17.066406 187.734375h17.066406v17.066406h-17.066406zm34.132812 0h51.199219v17.066406h-51.199219zm68.265625 0h17.070313v17.066406h-17.070313zm17.070313 34.132812v17.066407h-17.070313v-17.066407zm-128-273.066406h136.53125c4.714844 0 8.535156 3.820313 8.535156 8.53125 0 4.714844-3.820312 8.535156-8.535156 8.535156h-136.53125c-4.714844 0-8.535156-3.820312-8.535156-8.535156 0-4.710937 3.820312-8.53125 8.535156-8.53125zm8.53125 290.132813v-17.066407h17.066406v17.066407zm34.132812 0v-17.066407h51.199219v17.066407zm68.265625 34.132812v-17.066406h17.070313v17.066406zm-109.402343 85.332031-18.597657.257813v-17.324219h27.566407c-4.203126 4.964844-7.265626 10.792969-8.96875 17.066406zm152.15625-17.066406.171874 17.066406-18.664062-.101562c-1.777344-6.242188-4.875-12.027344-9.085938-16.964844zm0 0"/><path d="m1.015625 234.441406c1.484375 2.773438 4.378906 4.507813 7.527344 4.503906h13.753906l-4.777344 14.371094c-.964843 2.894532-.308593 6.085938 1.71875 8.367188 2.027344 2.285156 5.117188 3.3125 8.105469 2.699218 2.988281-.613281 5.425781-2.777343 6.390625-5.671874l8.53125-25.601563c.867187-2.605469.429687-5.472656-1.183594-7.699219-1.609375-2.226562-4.191406-3.539062-6.941406-3.53125h-9.65625l8.222656-12.332031c1.695313-2.535156 1.902344-5.78125.554688-8.515625-1.351563-2.734375-4.058594-4.539062-7.101563-4.734375-3.042968-.199219-5.960937 1.242187-7.652344 3.78125l-17.066406 25.597656c-1.746094 2.621094-1.910156 5.988281-.425781 8.765625zm0 0"/></svg>