<svg height="512pt" viewBox="0 0 512 512" width="512pt" xmlns="http://www.w3.org/2000/svg"><path d="m486.398438 409.601562h-34.132813c-85.109375 0-124.464844-55.210937-153.207031-95.515624-6.058594-8.867188-12.609375-17.390626-19.625-25.523438 10.867187-1.179688 21.648437-3.085938 32.261718-5.699219l58.769532-14.574219c10.050781-2.488281 20.367187-3.75 30.722656-3.753906h85.210938c14.140624 0 25.601562-11.464844 25.601562-25.601562 0-14.140625-11.460938-25.601563-25.601562-25.601563h-87.199219c-10.96875 0-21.902344 1.25-32.589844 3.722657l-81.304687 18.773437c-8.824219 2.046875-17.851563 3.089844-26.90625 3.105469h-28v-17.066406h8.535156c4.710937 0 8.53125-3.820313 8.53125-8.535157 0-4.710937-3.820313-8.53125-8.53125-8.53125h-34.132813c-4.714843 0-8.535156 3.820313-8.535156 8.53125 0 4.714844 3.820313 8.535157 8.535156 8.535157h8.53125v17.066406h-136.53125v-17.066406h8.53125c4.714844 0 8.535157-3.820313 8.535157-8.535157 0-4.710937-3.820313-8.53125-8.535157-8.53125h-34.132812c-4.710938 0-8.53125 3.820313-8.53125 8.53125 0 4.714844 3.820312 8.535157 8.53125 8.535157h8.535156v17.066406h-.667969c-13.84375.148437-24.976562 11.4375-24.933594 25.285156 0 14.1875 11.410157 25.742188 25.601563 25.914062v34.132813c-14.140625 0-25.601563 11.460937-25.601563 25.601563v10.101562c-10.191406 3.605469-17.019531 13.222656-17.066406 24.03125v27.171875c-10.191406 3.601563-17.0234372 13.21875-17.066406 24.027344v51.199219c0 14.140624 11.460938 25.601562 25.601562 25.601562h460.796876c14.140624 0 25.601562-11.460938 25.601562-25.601562v-51.199219c0-14.136719-11.460938-25.597657-25.601562-25.597657zm-233.957032-119.46875c8.585938 0 20.308594 16.453126 32.726563 33.859376 19.601562 27.488281 46.011719 64.351562 89.703125 85.609374h-101.804688v-25.601562c-.042968-10.808594-6.875-20.425781-17.066406-24.03125v-10.101562c0-14.140626-11.460938-25.601563-25.601562-25.601563v-8.53125c0-4.714844-3.820313-8.535156-8.53125-8.535156-4.714844 0-8.535157 3.820312-8.535157 8.535156v8.53125h-25.597656v-8.53125c-.03125-9.265625-3.109375-18.257813-8.757813-25.601563zm-132.976562 68.265626v-42.664063c0-14.140625 11.464844-25.601563 25.601562-25.601563 14.140625 0 25.601563 11.460938 25.601563 25.601563v42.664063zm68.269531-17.066407h42.664063c4.714843 0 8.535156 3.820313 8.535156 8.535157v8.53125h-51.199219zm-136.535156-77.113281c.011719-4.527344 3.667969-8.195312 8.191406-8.21875h162.304687.171876.171874 36.375c10.339844-.003906 20.644532-1.175781 30.722657-3.488281l81.3125-18.773438c9.425781-2.203125 19.070312-3.320312 28.75-3.339843h87.199219c4.714843 0 8.535156 3.820312 8.535156 8.535156 0 4.710937-3.820313 8.53125-8.535156 8.53125h-85.167969c-11.753907.007812-23.460938 1.441406-34.867188 4.269531l-58.769531 14.574219c-18.109375 4.488281-36.699219 6.757812-55.355469 6.757812h-192.207031c-4.878906-.007812-8.832031-3.96875-8.832031-8.847656zm25.601562 25.914062h34.355469c-5.648438 7.34375-8.726562 16.335938-8.757812 25.601563v8.53125h-25.597657zm-25.601562 59.734376c0-4.714844 3.820312-8.535157 8.535156-8.535157h42.664063v17.066407h-51.199219zm-17.066407 34.132812c0-4.710938 3.820313-8.535156 8.535157-8.535156h204.796875c4.714844 0 8.535156 3.824218 8.535156 8.535156v25.601562h-221.867188zm460.800782 102.398438c0 4.714843-3.820313 8.535156-8.535156 8.535156h-460.796876c-4.714843 0-8.535156-3.820313-8.535156-8.535156v-51.199219c0-4.710938 3.820313-8.53125 8.535156-8.53125h460.796876c4.714843 0 8.535156 3.820312 8.535156 8.53125zm0 0"/><path d="m179.199219 0c-14.136719 0-25.597657 11.460938-25.597657 25.601562v68.265626c0 14.136718 11.460938 25.597656 25.597657 25.597656h41.542969c2.835937.003906 5.488281 1.414062 7.070312 3.765625l13.066406 29.667969c.136719.328124.300782.644531.488282.949218 3.082031 5.140625 8.636718 8.285156 14.632812 8.285156s11.550781-3.144531 14.632812-8.285156c.1875-.304687.351563-.621094.488282-.949218l13.039062-29.667969c1.589844-2.359375 4.253906-3.773438 7.097656-3.765625h41.542969c14.136719 0 25.597657-11.460938 25.597657-25.597656v-68.265626c0-14.140624-11.460938-25.601562-25.597657-25.601562zm162.132812 25.601562v68.265626c0 4.710937-3.820312 8.53125-8.53125 8.53125h-41.542969c-8.980468.027343-17.300781 4.734374-21.945312 12.425781-.183594.308593-.347656.625-.496094.949219l-12.816406 29.121093-12.800781-29.121093c-.148438-.324219-.3125-.640626-.496094-.949219-4.644531-7.695313-12.972656-12.40625-21.960937-12.425781h-41.542969c-4.710938 0-8.53125-3.820313-8.53125-8.53125v-68.265626c0-4.714843 3.820312-8.535156 8.53125-8.535156h153.601562c4.710938 0 8.53125 3.820313 8.53125 8.535156zm0 0"/><path d="m307.199219 34.132812h-110.933594c-4.710937 0-8.53125 3.820313-8.53125 8.535157 0 4.710937 3.820313 8.53125 8.53125 8.53125h110.933594c4.714843 0 8.535156-3.820313 8.535156-8.53125 0-4.714844-3.820313-8.535157-8.535156-8.535157zm0 0"/><path d="m273.066406 68.265625h-76.800781c-4.710937 0-8.53125 3.820313-8.53125 8.535156 0 4.710938 3.820313 8.53125 8.53125 8.53125h76.800781c4.714844 0 8.535156-3.820312 8.535156-8.53125 0-4.714843-3.820312-8.535156-8.535156-8.535156zm0 0"/><path d="m153.601562 315.734375c0 4.710937-3.820312 8.53125-8.535156 8.53125-4.710937 0-8.53125-3.820313-8.53125-8.53125 0-4.714844 3.820313-8.535156 8.53125-8.535156 4.714844 0 8.535156 3.820312 8.535156 8.535156zm0 0"/></svg>