<svg height="512pt" viewBox="-68 0 512 512.04633" width="512pt" xmlns="http://www.w3.org/2000/svg"><path d="m102.421875 102.445312c18.851563 0 34.132813-15.28125 34.132813-34.132812s-15.28125-34.136719-34.132813-34.136719-34.132813 15.285157-34.132813 34.136719 15.28125 34.132812 34.132813 34.132812zm0-51.199218c9.425781 0 17.066406 7.640625 17.066406 17.066406s-7.640625 17.066406-17.066406 17.066406-17.066406-7.640625-17.066406-17.066406 7.640625-17.066406 17.066406-17.066406zm0 0"/><path d="m332.824219 417.621094c-8.40625 0-16.503907.402344-24.285157 1.144531 1.78125-4.863281 3.71875-9.847656 5.714844-14.992187 17.792969-40.859376 27.015625-84.929688 27.101563-129.492188 0-116.582031-53.707031-129.171875-76.800781-129.171875-27.65625 0-45.625 9.601563-50.054688 26.054687-7.332031.789063-14.394531 3.230469-20.652344 7.132813-6.914062 4.359375-11.347656 11.746094-11.945312 19.898437-4.90625-1.945312-9.25-3.8125-12.800782-5.367187-2.976562-1.3125-5.382812-2.335937-7.566406-3.171875-3.015625-17.785156-18.015625-27.417969-33.546875-32.128906v-25.976563c30.292969-12.253906 47.652344-44.25 41.410157-76.324219-6.242188-32.074218-34.335938-55.226562-67.007813-55.226562-32.675781 0-60.769531 23.152344-67.011719 55.226562-6.242187 32.074219 11.121094 64.070313 41.410156 76.324219v25.976563c-17.375 5.273437-34.132812 16.683594-34.132812 38.785156-.179688 9.511719 1.914062 18.933594 6.109375 27.476562-3.917969 4.082032-6.097656 9.53125-6.074219 15.1875 0 11.09375-4.394531 17.066407-8.535156 17.066407-4.136719 0-8.53125-5.972657-8.53125-17.066407 0-4.710937-3.820312-8.53125-8.535156-8.53125-4.710938 0-8.535156 3.820313-8.535156 8.53125 0 22.410157 12.878906 34.132813 25.601562 34.132813s25.601562-11.722656 25.601562-34.132813c0-.246093 0-.511718.058594-.765624 2.601563 2.332031 5.441406 4.386718 8.472656 6.125v186.878906c-22.914062 6.371094-43.824218 18.484375-60.746093 35.191406-4.835938 4.804688-7.542969 11.347656-7.5195315 18.160156v1.878906c0 14.136719 11.4609375 25.597657 25.6015625 25.597657h153.597656c14.140625 0 25.601563-11.460938 25.601563-25.597657v-1.878906c-.003907-3.460937-.710938-6.886718-2.074219-10.070312 24.617188-16.878906 52.351562-28.6875 81.578125-34.746094-1.769531 7.910156-2.675781 15.992188-2.703125 24.097656-.476562 12.671875 4.246094 24.984375 13.074219 34.085938 8.828125 9.101562 20.992187 14.199218 33.667969 14.109375 12.226562.113281 23.980468-4.695313 32.617187-13.34375 9.933594-10.714844 15.15625-24.964844 14.503906-39.5625 0-25.597657-16.347656-41.515625-42.664062-41.515625zm-133.574219-215.15625c-1.121094-3.722656.417969-7.734375 3.738281-9.753906 5.410157-3.242188 11.613281-4.929688 17.921875-4.875.617188.253906 1.308594.253906 1.925782 0 6.308593-.050782 12.507812 1.632812 17.921874 4.875 3.320313 2.019531 4.851563 6.03125 3.726563 9.753906-.851563 2.679687-1.703125 6.082031-2.558594 9.796875-14.289062-1.253907-28.421875-3.917969-42.1875-7.953125-.136719-.582032-.316406-1.308594-.488281-1.84375zm48.53125 145.296875c-8.574219 1.289062-17.222656 2.007812-25.890625 2.148437-8.667969-.140625-17.316406-.859375-25.890625-2.148437 6.492188-18.480469 9.484375-38.007813 8.824219-57.585938v-51.199219c-.023438-5.304687-.402344-10.605468-1.128907-15.863281 11.734376 2.921875 23.671876 4.941407 35.714844 6.042969-.257812 3.140625-.453125 6.40625-.453125 9.820312v51.199219c-.664062 19.578125 2.328125 39.105469 8.824219 57.585938zm-68.558594 26.109375c-.023437-1.191406.484375-2.335938 1.390625-3.113282 2.535157-2.128906 4.808594-4.546874 6.777344-7.210937 11.378906 2.140625 22.921875 3.289063 34.5 3.429687 11.574219-.136718 23.113281-1.277343 34.492187-3.414062 1.96875 2.664062 4.242188 5.082031 6.773438 7.210938.910156.777343 1.425781 1.921874 1.398438 3.117187v1.371094c.125 4.648437-2.042969 9.0625-5.792969 11.8125-5.882813 3.816406-12.796875 5.738281-19.804688 5.503906h-34.132812c-7.011719.230469-13.925781-1.699219-19.808594-5.523437-3.75-2.746094-5.914063-7.160157-5.792969-11.808594zm-128-305.558594c-.023437-26.5 20.175782-48.640625 46.566406-51.039062 26.394532-2.398438 50.253907 15.738281 55.003907 41.808593 4.753906 26.070313-11.175781 51.460938-36.714844 58.527344-1.765625.488281-3.554687.878906-5.359375 1.167969-.523438.085937-1.042969.171875-1.570312.238281-4.460938.582031-8.972657.582031-13.433594 0-.527344-.066406-1.046875-.152344-1.558594-.238281-1.8125-.289063-3.601562-.679688-5.371094-1.167969-22.171875-6.128906-37.539062-26.292969-37.5625-49.296875zm42.667969 67.734375c.246094 0 .496094 0 .734375.054687 5.179688.636719 10.417969.636719 15.597656 0 .238282 0 .488282 0 .734375-.054687v18.050781c-2.339843-.238281-4.53125-.351562-6.613281-.402344-1.066406-.050781-1.828125-.050781-1.921875-.050781s-.851563 0-1.917969.050781c-2.082031.050782-4.265625.164063-6.613281.402344zm-5.972656 36.3125c.554687-.113281 1.109375-.222656 1.652343-.316406l1.988282-.332031 1.164062-.171876c2.113282-.300781 4.027344-.496093 5.570313-.613281h.300781l1.765625-.113281h.367187l1.015626-.101562h1.328124l1.121094.042968h.296875l1.894531.121094h.160157c1.570312.125 3.507812.324219 5.667969.621094l1.007812.152344 2.140625.359374c.511719.09375 1.03125.1875 1.5625.300782 12.183594 2.40625 27.621094 8.410156 28.101563 23.292968 0 .222657-.136719.417969-.136719.648438s.117187.488281.136719.753906c.992187 13.878906-6.359376 27.023438-18.707032 33.441406h-47.871094c-12.59375-6.515624-19.984374-20.015624-18.6875-34.132812 0-15.363281 15.75-21.503906 28.160157-23.953125zm-2.5625 255.460937v-180.308593h34.132812v180.308593c-1.492187-.195312-3.003906-.296874-4.503906-.445312-1.253906-.117188-2.476563-.269531-3.746094-.355469-2.933593-.199219-5.871093-.308593-8.816406-.308593-2.941406 0-5.878906.109374-8.8125.308593-1.273437.085938-2.492187.238281-3.746094.355469-1.503906.1875-3.011719.25-4.507812.445312zm102.402343 58.625c0 4.710938-3.820312 8.53125-8.535156 8.53125h-153.597656c-4.714844 0-8.535156-3.820312-8.535156-8.53125v-1.878906c-.003906-2.273437.898437-4.453125 2.507812-6.058594 16.378906-16.1875 37.015625-27.394531 59.511719-32.308593 3.371094-.707031 6.785156-1.226563 10.242187-1.621094.742188-.082031 1.484376-.152344 2.234376-.230469 7.21875-.671875 14.488281-.671875 21.707031 0 .753906.078125 1.496093.148438 2.238281.230469 3.414062.394531 6.824219.914063 10.238281 1.621094 22.5 4.914062 43.140625 16.121093 59.511719 32.316406 1.601562 1.605469 2.492188 3.785156 2.476562 6.050781zm101.777344-65.128906c-35.144531 5.875-68.527344 19.535156-97.707031 39.980469-15.898437-14.09375-34.800781-24.375-55.273437-30.054687v-186.878907c13.355468-7.703125 22.425781-21.117187 24.59375-36.378906l1.117187.496094c5.925781 2.558593 13.730469 5.972656 23.273437 9.257812 1.46875 6.984375 2.210938 14.101563 2.21875 21.238281v51.199219c0 47.53125-12.5625 62.960938-17.964843 67.414063-4.855469 4.007812-7.660157 9.984375-7.636719 16.28125v1.375c-.125 10.261718 4.800781 19.933594 13.175781 25.863281 8.71875 5.8125 19.015625 8.792969 29.492188 8.535156h34.132812c10.472657.257813 20.773438-2.722656 29.492188-8.535156 8.375-5.929687 13.300781-15.601563 13.175781-25.863281v-1.375c.023438-6.316406-2.796875-12.308594-7.683594-16.3125-5.355468-4.421875-17.917968-19.851563-17.917968-67.382813v-51.199219c0-3.089843.171874-5.972656.402343-8.804687 2.730469.078125 5.289063.273437 8.128907.273437 4.714843 0 8.535156-3.820312 8.535156-8.535156 0-4.710937-3.820313-8.53125-8.535156-8.53125-1.867188 0-3.523438-.144531-5.339844-.179687.519531-2.058594 1.058594-3.933594 1.578125-5.539063 3.484375-11.117187-.976563-23.1875-10.855469-29.363281-5.207031-3.222656-10.988281-5.417969-17.023438-6.46875 6.375-8.550781 23.390626-9.652344 31.640626-9.652344 37.964843 0 59.734374 40.859375 59.734374 112.105469-.03125 42.453125-8.863281 84.441406-25.941406 123.3125-3.191406 8.210938-6.226562 16.027344-8.8125 23.722656zm59.289063 65.359375c-5.429688 5.410157-12.816407 8.402344-20.480469 8.300781-8.175781.171876-16.050781-3.105468-21.691406-9.027343s-8.53125-13.941407-7.960938-22.101563c.105469-9.210937 1.453125-18.367187 4.007813-27.222656 9.992187-1.289062 20.050781-1.9375 30.125-1.933594 16.988281 0 25.597656 8.222656 25.597656 24.480469.578125 10.078125-2.875 19.972656-9.597656 27.503906zm0 0"/></svg>