<svg height="512pt" viewBox="0 0 512 512" width="512pt" xmlns="http://www.w3.org/2000/svg"><path d="m128 273.066406h256c9.425781 0 17.066406-7.640625 17.066406-17.066406v-187.734375c0-9.425781-7.640625-17.066406-17.066406-17.066406h-256c-9.425781 0-17.066406 7.640625-17.066406 17.066406v187.734375c0 9.425781 7.640625 17.066406 17.066406 17.066406zm0-204.800781h256v187.734375h-256zm0 0"/><path d="m341.332031 85.332031h-170.664062c-14.140625 0-25.601563 11.460938-25.601563 25.601563v102.398437c0 14.140625 11.460938 25.601563 25.601563 25.601563h170.664062c14.140625 0 25.601563-11.460938 25.601563-25.601563v-102.398437c0-14.140625-11.460938-25.601563-25.601563-25.601563zm8.535157 128c0 4.714844-3.820313 8.535157-8.535157 8.535157h-170.664062c-4.714844 0-8.535157-3.820313-8.535157-8.535157v-102.398437c0-4.714844 3.820313-8.535156 8.535157-8.535156h170.664062c4.714844 0 8.535157 3.820312 8.535157 8.535156zm0 0"/><path d="m136.535156 332.800781h-17.070312c-9.425782 0-17.066406 7.640625-17.066406 17.066407v17.066406c0 9.425781 7.640624 17.066406 17.066406 17.066406h17.070312c9.425782 0 17.066406-7.640625 17.066406-17.066406v-17.066406c0-9.425782-7.640624-17.066407-17.066406-17.066407zm-17.070312 34.132813v-17.066406h17.070312v17.066406zm0 0"/><path d="m392.535156 315.734375h-136.535156c-4.710938 0-8.535156 3.820313-8.535156 8.53125 0 4.714844 3.824218 8.535156 8.535156 8.535156h85.332031v17.066407c0 9.425781 7.640625 17.066406 17.066407 17.066406h34.136718c9.425782 0 17.066406-7.640625 17.066406-17.066406v-17.066407c0-9.425781-7.640624-17.066406-17.066406-17.066406zm-34.136718 34.132813v-17.066407h34.136718v17.066407zm0 0"/><path d="m511.351562 466.132812-.042968-.152343-21.171875-49.398438c-4.035157-9.414062-13.285157-15.515625-23.527344-15.515625h-22.875v-375.464844c0-14.140624-11.460937-25.601562-25.601563-25.601562h-324.265624c-14.140626 0-25.601563 11.460938-25.601563 25.601562v375.464844h-22.875c-10.242187 0-19.492187 6.101563-23.527344 15.515625l-21.171875 49.390625-.042968.152344c-.355469.910156-.5507818 1.875-.5820318 2.851562 0 .117188-.0664062.21875-.0664062.347657v17.066406c0 14.140625 11.460938 25.601563 25.601562 25.601563h460.796876c14.140624 0 25.601562-11.460938 25.601562-25.601563v-17.058594c0-.125-.066406-.230469-.066406-.347656-.03125-.976563-.226563-1.941406-.582032-2.851563zm-426.019531-440.53125c0-4.714843 3.820313-8.535156 8.535157-8.535156h324.265624c4.714844 0 8.535157 3.820313 8.535157 8.535156v375.464844h-341.335938zm-47.785156 397.703126c1.34375-3.136719 4.429687-5.171876 7.84375-5.171876h421.21875c3.40625-.011718 6.492187 2 7.851563 5.121094l16.0625 37.546875h-469.046876zm457.386719 63.09375c0 4.714843-3.820313 8.535156-8.535156 8.535156h-460.796876c-4.714843 0-8.535156-3.820313-8.535156-8.535156v-8.53125h477.867188zm0 0"/><path d="m193.765625 121.96875c-3.347656-3.234375-8.667969-3.191406-11.960937.101562-3.292969 3.292969-3.339844 8.613282-.105469 11.960938l11.035156 11.035156-11.035156 11.035156c-2.21875 2.140626-3.105469 5.3125-2.324219 8.296876.777344 2.984374 3.109375 5.3125 6.09375 6.09375s6.15625-.109376 8.296875-2.324219l17.066406-17.066407c3.332031-3.335937 3.332031-8.734374 0-12.066406zm0 0"/><path d="m247.464844 153.601562h-17.066406c-4.710938 0-8.53125 3.820313-8.53125 8.53125 0 4.714844 3.820312 8.535157 8.53125 8.535157h17.066406c4.714844 0 8.535156-3.820313 8.535156-8.535157 0-4.710937-3.820312-8.53125-8.535156-8.53125zm0 0"/></svg>