<svg height="512pt" viewBox="0 0 512 512" width="512pt" xmlns="http://www.w3.org/2000/svg"><path d="m29.132812 5.019531c-4.878906-4.878906-12.214843-6.339843-18.589843-3.703125-6.375 2.636719-10.5351565 8.851563-10.542969 15.75v477.867188c0 9.425781 7.640625 17.066406 17.066406 17.066406h477.867188c6.902344 0 13.121094-4.160156 15.765625-10.535156 2.640625-6.378906 1.179687-13.714844-3.699219-18.597656zm-12.066406 489.914063-.058594-477.867188h.058594l28.09375 28.109375-8.535156 8.53125c-2.214844 2.144531-3.105469 5.320313-2.320312 8.300781.78125 2.984376 3.113281 5.3125 6.097656 6.089844 2.984375.78125 6.15625-.113281 8.296875-2.332031l8.535156-8.53125 22.058594 22.074219-8.535157 8.535156c-2.21875 2.140625-3.105468 5.3125-2.328124 8.296875.78125 2.984375 3.113281 5.3125 6.097656 6.09375 2.980468.78125 6.15625-.109375 8.296875-2.324219l8.535156-8.535156 22.066406 22.066406-8.535156 8.535156c-2.21875 2.140626-3.105469 5.3125-2.324219 8.296876.777344 2.984374 3.109375 5.3125 6.09375 6.09375s6.15625-.105469 8.296875-2.324219l8.535157-8.535157 22.066406 22.066407-8.535156 8.535156c-2.214844 2.140625-3.105469 5.316406-2.324219 8.296875.78125 2.984375 3.109375 5.316406 6.09375 6.09375 2.984375.78125 6.15625-.105469 8.296875-2.324219l8.535156-8.535156 22.066406 22.066406-8.53125 8.535157c-2.21875 2.140624-3.109375 5.316406-2.328125 8.296874.78125 2.984376 3.109375 5.316407 6.09375 6.097657s6.15625-.109375 8.296875-2.328125l8.535156-8.535156 22.066407 22.070312-8.53125 8.53125c-2.21875 2.144531-3.109375 5.316406-2.328125 8.300781.78125 2.980469 3.109375 5.3125 6.09375 6.09375s6.15625-.109375 8.300781-2.328125l8.53125-8.53125 22.066406 22.066406-8.53125 8.53125c-2.21875 2.144532-3.109375 5.316407-2.328125 8.300782s3.109375 5.3125 6.09375 6.09375 6.15625-.109375 8.300782-2.328125l8.53125-8.53125 22.066406 22.066406-8.53125 8.53125c-2.21875 2.144531-3.109375 5.316406-2.328125 8.300781s3.113281 5.3125 6.09375 6.09375c2.984375.78125 6.15625-.109375 8.300781-2.328125l8.53125-8.53125 22.070312 22.066407-8.535156 8.535156c-2.21875 2.140625-3.109375 5.3125-2.328125 8.296875s3.113281 5.3125 6.097657 6.09375c2.980468.78125 6.15625-.109375 8.296874-2.328125l8.535157-8.53125 22.066406 22.066406-8.535156 8.535156c-2.21875 2.140625-3.105469 5.3125-2.324219 8.296875.777344 2.984375 3.109375 5.3125 6.09375 6.09375 2.980469.78125 6.15625-.109375 8.296875-2.324219l8.535156-8.535156 22.066407 22.066406-8.535157 8.535157c-2.21875 2.140625-3.105469 5.3125-2.324219 8.296875s3.109376 5.316406 6.09375 6.09375c2.984376.78125 6.15625-.105469 8.296876-2.324219l8.535156-8.535156 22.066406 22.066406-8.535156 8.535156c-2.214844 2.140625-3.105469 5.316407-2.324219 8.296875.78125 2.984375 3.109375 5.316406 6.09375 6.097656 2.984375.777344 6.15625-.109374 8.296875-2.328124l8.535156-8.535157 22.066406 22.070313-8.53125 8.53125c-2.21875 2.144531-3.109374 5.316406-2.328124 8.300781.78125 2.980469 3.109374 5.3125 6.09375 6.09375 2.984374.78125 6.15625-.109375 8.300781-2.328125l8.53125-8.535156 28.109375 28.09375zm0 0"/><path d="m106.179688 199.996094c-3.394532-3.546875-8.601563-4.683594-13.167969-2.875-4.660157 1.867187-7.707031 6.394531-7.679688 11.417968v200.847657c-.085937 9.4375 7.484375 17.167969 16.921875 17.28125h201.328125c4.863281-.015625 9.25-2.929688 11.144531-7.410157 1.964844-4.628906.957032-9.992187-2.558593-13.589843zm-3.695313 209.671875c-.0625-.078125-.09375-.179688-.085937-.28125v-189.054688l189.550781 189.269531zm0 0"/><path d="m238.933594 0c-42.414063 0-76.800782 34.382812-76.800782 76.800781 0 42.414063 34.386719 76.800781 76.800782 76.800781 42.414062 0 76.800781-34.386718 76.800781-76.800781-.046875-42.398437-34.40625-76.753906-76.800781-76.800781zm0 136.535156c-32.988282 0-59.734375-26.746094-59.734375-59.734375 0-32.992187 26.746093-59.734375 59.734375-59.734375 32.988281 0 59.734375 26.742188 59.734375 59.734375-.039063 32.972657-26.761719 59.695313-59.734375 59.734375zm0 0"/><path d="m435.199219 0c-42.414063 0-76.800781 34.382812-76.800781 76.800781 0 42.414063 34.386718 76.800781 76.800781 76.800781 42.417969 0 76.800781-34.386718 76.800781-76.800781-.046875-42.398437-34.402344-76.753906-76.800781-76.800781zm0 136.535156c-24.160157 0-45.941407-14.554687-55.1875-36.875-9.242188-22.320312-4.132813-48.015625 12.949219-65.097656 17.085937-17.082031 42.777343-22.195312 65.097656-12.949219 22.320312 9.246094 36.875 31.027344 36.875 55.1875-.039063 32.972657-26.757813 59.695313-59.734375 59.734375zm0 0"/><path d="m435.199219 196.265625c-42.414063 0-76.800781 34.386719-76.800781 76.800781 0 42.414063 34.386718 76.800782 76.800781 76.800782 42.417969 0 76.800781-34.386719 76.800781-76.800782-.046875-42.394531-34.402344-76.753906-76.800781-76.800781zm0 136.535156c-24.160157 0-45.941407-14.554687-55.1875-36.875-9.242188-22.320312-4.132813-48.011719 12.949219-65.097656 17.085937-17.082031 42.777343-22.195313 65.097656-12.949219 22.320312 9.246094 36.875 31.027344 36.875 55.1875-.039063 32.972656-26.757813 59.695313-59.734375 59.734375zm0 0"/><path d="m273.066406 68.265625h-25.601562v-25.597656c0-4.714844-3.820313-8.535157-8.53125-8.535157-4.714844 0-8.535156 3.820313-8.535156 8.535157v25.597656h-25.597657c-4.714843 0-8.535156 3.820313-8.535156 8.535156 0 4.710938 3.820313 8.53125 8.535156 8.53125h25.597657v25.601563c0 4.710937 3.820312 8.53125 8.535156 8.53125 4.710937 0 8.53125-3.820313 8.53125-8.53125v-25.601563h25.601562c4.714844 0 8.535156-3.820312 8.535156-8.53125 0-4.714843-3.820312-8.535156-8.535156-8.535156zm0 0"/><path d="m466.832031 45.167969c-3.332031-3.332031-8.734375-3.332031-12.066406 0l-19.566406 19.566406-19.566407-19.566406c-3.347656-3.234375-8.671874-3.1875-11.960937.101562-3.292969 3.292969-3.339844 8.617188-.105469 11.964844l19.566406 19.566406-19.566406 19.566407c-2.21875 2.140624-3.105468 5.316406-2.328125 8.296874.78125 2.984376 3.113281 5.316407 6.097657 6.097657 2.980468.777343 6.15625-.109375 8.296874-2.328125l19.566407-19.566406 19.566406 19.566406c3.347656 3.234375 8.671875 3.1875 11.964844-.105469 3.289062-3.289063 3.335937-8.613281.101562-11.960937l-19.566406-19.566407 19.566406-19.566406c3.332031-3.332031 3.332031-8.734375 0-12.066406zm0 0"/><path d="m469.332031 264.535156h-68.265625c-4.710937 0-8.53125 3.820313-8.53125 8.53125 0 4.714844 3.820313 8.535156 8.53125 8.535156h68.265625c4.714844 0 8.535157-3.820312 8.535157-8.535156 0-4.710937-3.820313-8.53125-8.535157-8.53125zm0 0"/></svg>