<svg height="512pt" viewBox="-111 0 512 512" width="512pt" xmlns="http://www.w3.org/2000/svg"><path d="m247.464844 460.800781c-3.582032 0-6.421875-7.808593-7.679688-15.539062-1.675781-10.789063-9.9375-19.367188-20.65625-21.445313-13.203125-2.359375-26.539062-3.914062-39.929687-4.660156v-18.089844h8.535156c9.425781 0 17.066406-7.640625 17.066406-17.066406h17.066407v8.535156c0 4.710938 3.820312 8.53125 8.53125 8.53125 4.714843 0 8.535156-3.820312 8.535156-8.53125v-34.136718c0-4.710938-3.820313-8.53125-8.535156-8.53125-4.710938 0-8.53125 3.820312-8.53125 8.53125v8.535156h-17.066407c0-9.425782-7.640625-17.066406-17.066406-17.066406h-8.535156v-17.066407h8.535156c4.710937 0 8.53125-3.820312 8.53125-8.535156 0-4.710937-3.820313-8.53125-8.53125-8.53125h-10.90625c-1.492187-2.550781-3.613281-4.671875-6.160156-6.160156v-21.8125c5.261719-3.023438 8.515625-8.625 8.53125-14.695313v-66.226562c36.046875-13.988282 59.785156-48.707032 59.734375-87.375.074218-26.0625-11.015625-50.914063-30.464844-68.265625h.101562c12.054688-.007813 21.820313-9.777344 21.828126-21.828125v-7.542969c-.007813-12.050781-9.773438-21.8203125-21.828126-21.828125h-127.007812c-12.050781.0078125-21.820312 9.777344-21.828125 21.828125v7.542969c-.085937 5.746094 2.210937 11.273437 6.34375 15.265625 4.132813 3.996093 9.734375 6.101562 15.476563 5.820312-23.867188 21.882813-34.742188 54.535157-28.761719 86.359375 5.976562 31.820313 27.960937 58.300782 58.140625 70.03125v66.21875c.019531 6.070313 3.269531 11.671875 8.53125 14.695313v21.8125c-2.546875 1.488281-4.667969 3.609375-6.160156 6.160156h-10.90625c-4.710938 0-8.53125 3.820313-8.53125 8.53125 0 4.714844 3.820312 8.535156 8.53125 8.535156h8.535156v17.066407h-8.535156c-9.425782 0-17.066407 7.640624-17.066407 17.066406h-17.066406v-8.535156c0-4.710938-3.820313-8.53125-8.53125-8.53125-4.714844 0-8.535156 3.820312-8.535156 8.53125v34.136718c0 4.710938 3.820312 8.53125 8.535156 8.53125 4.710937 0 8.53125-3.820312 8.53125-8.53125v-8.535156h17.066406c0 9.425781 7.640625 17.066406 17.066407 17.066406h8.535156v18.089844c-13.402344.746094-26.746094 2.300781-39.960938 4.660156-10.707031 2.089844-18.953125 10.664063-20.625 21.445313-1.253906 7.730469-4.097656 15.539062-7.679687 15.539062-4.714844 0-8.535157 3.820313-8.535157 8.53125v17.066407c0 14.140624 11.460938 25.601562 25.601563 25.601562h170.664063c14.140624 0 25.601562-11.460938 25.601562-25.601562v-17.066407c0-4.710937-3.820312-8.53125-8.535156-8.53125zm-59.730469-93.867187v17.066406h-8.535156v-17.066406zm-51.199219-76.800782h17.066406v17.066407h-17.066406zm-67.414062-158.976562c-3.976563-25.296875 5.03125-50.898438 23.976562-68.128906 5.023438-4.582032 6.6875-11.796875 4.183594-18.117188-2.488281-6.511718-8.746094-10.804687-15.71875-10.777344-2.628906 0-4.761719-2.132812-4.761719-4.761718v-7.542969c0-2.628906 2.132813-4.761719 4.761719-4.761719h127.007812c2.632813 0 4.761719 2.132813 4.761719 4.761719v7.542969c0 2.628906-2.128906 4.761718-4.761719 4.761718h-.050781c-6.859375-.042968-13.035156 4.148438-15.53125 10.539063-2.554687 6.492187-.839843 13.890625 4.3125 18.59375 15.734375 14.441406 24.652344 34.84375 24.566407 56.199219-.050782 33.460937-21.6875 63.066406-53.554688 73.269531-.070312 0-.136719 0-.207031 0-7.652344 2.414063-15.636719 3.609375-23.660157 3.53125-2.46875 0-4.960937-.1875-7.460937-.441406-.246094 0-.484375 0-.734375-.050781-2.25-.25-4.496094-.625-6.722656-1.078126-.851563-.1875-1.773438-.433593-2.664063-.65625-1.269531-.308593-2.558593-.613281-3.785156-.988281-28.347656-8.609375-49.292969-32.640625-53.957031-61.894531zm65.246094 81.589844c3.234374.355468 6.433593.484375 9.625.527344.28125 0 .5625.042968.851562.042968.292969 0 .625-.042968.929688-.042968 2.476562 0 4.941406-.109376 7.390624-.332032h.417969c2.867188-.257812 5.726563-.597656 8.535157-1.117187v61.242187h-34.117188v-61.269531c2.109375.394531 4.265625.699219 6.355469.949219zm-31.96875 171.253906v-17.066406h8.535156v17.066406zm25.601562 34.363281v-94.097656h34.132812v94.097656h-1.527343c-4.941407-.144531-10.050781-.230469-15.539063-.230469-5.488281 0-10.597656.09375-15.539062.222657zm-60.824219 29.558594c.5-3.679687 3.296875-6.632813 6.945313-7.335937 15.230468-2.679688 30.625-4.296876 46.078125-4.847657 15.796875-.71875 34.007812-.71875 49.800781 0 15.453125.550781 30.851562 2.167969 46.082031 4.847657 3.648438.703124 6.441407 3.65625 6.945313 7.335937.628906 4.398437 1.722656 8.714844 3.257812 12.878906h-162.4375c1.5625-4.164062 2.675782-8.480469 3.328125-12.878906zm171.757813 38.476563c0 4.714843-3.820313 8.535156-8.535156 8.535156h-170.664063c-4.714844 0-8.535156-3.820313-8.535156-8.535156v-8.53125h187.734375zm0 0"/><path d="m102.972656 126.660156c-.796875-4.597656-5.140625-7.703125-9.75-6.96875-4.605468.730469-7.773437 5.03125-7.105468 9.648438 1.820312 11.175781 6.835937 21.582031 14.441406 29.96875 2.039062 2.265625 5.132812 3.273437 8.113281 2.640625 2.984375-.632813 5.402344-2.808594 6.34375-5.710938.945313-2.898437.269531-6.082031-1.769531-8.347656-5.40625-5.933594-8.972656-13.308594-10.273438-21.230469zm0 0"/><path d="m96.425781 101.230469c1.957031 1.140625 4.28125 1.460937 6.472657.886719 2.1875-.574219 4.058593-1.996094 5.203124-3.949219 2.179688-3.71875 4.90625-7.089844 8.089844-10 5.027344-4.601563 9.070313-10.171875 11.886719-16.378907 1.332031-2.785156 1.054687-6.078124-.726563-8.601562s-4.789062-3.890625-7.863281-3.566406c-3.074219.320312-5.730469 2.28125-6.949219 5.121094-1.875 4.109374-4.558593 7.800781-7.894531 10.847656-4.4375 4.082031-8.242187 8.804687-11.28125 14.011718-2.347656 4.058594-.980469 9.253907 3.0625 11.628907zm0 0"/><path d="m281.601562 119.464844h-17.066406c-4.714844 0-8.535156 3.824218-8.535156 8.535156s3.820312 8.535156 8.535156 8.535156h17.066406c4.710938 0 8.53125-3.824218 8.53125-8.535156s-3.820312-8.535156-8.53125-8.535156zm0 0"/><path d="m263.304688 187.734375-14.769532-8.535156c-2.644531-1.546875-5.914062-1.5625-8.566406-.039063-2.65625 1.527344-4.292969 4.359375-4.285156 7.421875.007812 3.058594 1.65625 5.882813 4.316406 7.398438l14.769531 8.53125c2.644531 1.550781 5.914063 1.566406 8.566407.039062 2.65625-1.523437 4.289062-4.355469 4.285156-7.417969-.007813-3.0625-1.65625-5.886718-4.316406-7.398437zm0 0"/><path d="m193.144531 219.800781c-4.082031 2.355469-5.480469 7.574219-3.125 11.65625l8.535157 14.78125c1.511718 2.660157 4.335937 4.308594 7.398437 4.316407 3.0625.003906 5.894531-1.628907 7.417969-4.285157 1.527344-2.65625 1.511718-5.921875-.039063-8.566406l-8.53125-14.777344c-2.355469-4.082031-7.574219-5.480469-11.65625-3.125zm0 0"/><path d="m252.800781 75.65625c1.496094 0 2.96875-.394531 4.265625-1.144531l14.769532-8.53125c2.664062-1.515625 4.3125-4.339844 4.316406-7.398438.007812-3.0625-1.625-5.894531-4.28125-7.421875-2.65625-1.523437-5.925782-1.507812-8.566406.039063l-14.769532 8.535156c-3.347656 1.929687-4.976562 5.867187-3.976562 9.597656s4.378906 6.324219 8.242187 6.324219zm0 0"/><path d="m34.132812 128c0-4.710938-3.820312-8.535156-8.53125-8.535156h-17.066406c-4.714844 0-8.535156 3.824218-8.535156 8.535156s3.820312 8.535156 8.535156 8.535156h17.066406c4.710938 0 8.53125-3.824218 8.53125-8.535156zm0 0"/><path d="m50.132812 193.980469c2.664063-1.515625 4.308594-4.339844 4.316407-7.398438.007812-3.0625-1.628907-5.894531-4.285157-7.421875-2.652343-1.523437-5.921874-1.507812-8.5625.039063l-14.773437 8.535156c-2.660156 1.511719-4.308594 4.335937-4.316406 7.398437-.003907 3.0625 1.628906 5.894532 4.285156 7.417969 2.65625 1.527344 5.921875 1.511719 8.566406-.039062zm0 0"/><path d="m84.179688 250.503906c3.054687.003906 5.875-1.625 7.398437-4.265625l8.535156-14.78125c2.316407-4.078125.910157-9.261719-3.152343-11.605469-4.0625-2.347656-9.253907-.972656-11.628907 3.074219l-8.53125 14.777344c-1.523437 2.640625-1.523437 5.890625-.003906 8.53125 1.523437 2.640625 4.335937 4.265625 7.382813 4.269531zm0 0"/><path d="m33.066406 74.511719c2.640625 1.550781 5.910156 1.566406 8.566406.039062 2.65625-1.523437 4.289063-4.355469 4.28125-7.417969-.003906-3.0625-1.652343-5.886718-4.3125-7.398437l-14.773437-8.535156c-2.640625-1.546875-5.910156-1.5625-8.566406-.039063-2.652344 1.527344-4.289063 4.359375-4.28125 7.421875.007812 3.058594 1.652343 5.882813 4.316406 7.398438zm0 0"/></svg>