<svg height="512pt" viewBox="0 0 512 512.01994" width="512pt" xmlns="http://www.w3.org/2000/svg"><path d="m256.011719 145.078125c-18.851563 0-34.136719 15.28125-34.136719 34.132813 0 18.851562 15.285156 34.132812 34.136719 34.132812 18.847656 0 34.132812-15.28125 34.132812-34.132812 0-18.851563-15.285156-34.132813-34.132812-34.132813zm0 51.199219c-9.425781 0-17.070313-7.640625-17.070313-17.066406 0-9.425782 7.644532-17.066407 17.070313-17.066407s17.066406 7.640625 17.066406 17.066407c0 9.425781-7.640625 17.066406-17.066406 17.066406zm0 0"/><path d="m301.238281 98.390625c5.292969 12.765625 17.753907 21.085937 31.570313 21.085937 1.507812 0 3.015625-.101562 4.507812-.308593 7.515625 13.164062 22.78125 19.835937 37.546875 16.402343 8.242188 11.734376 21.851563 18.511719 36.183594 18.015626 14.332031-.496094 27.445313-8.195313 34.855469-20.472657 8.289062 4.035157 17.859375 4.53125 26.519531 1.375s15.667969-9.695312 19.414063-18.117187c12.292968-5.414063 20.214843-17.59375 20.175781-31.027344 0-18.851562-15.285157-34.132812-34.136719-34.132812-10.769531-.046876-20.914062 5.050781-27.304688 13.722656-5.308593-18.21875-21.988281-30.753906-40.960937-30.789063-10.78125-.039062-21.167969 4.0625-29.011719 11.460938-5.703125-2.558594-12.011718-3.464844-18.203125-2.621094-7.257812-12.75-21.828125-19.460937-36.230469-16.691406-10.527343-18.988281-31.917968-29.238281-53.3125-25.546875-21.398437 3.691406-38.117187 20.511718-41.671874 41.929687h-.769532c-4.714844 0-8.535156 3.820313-8.535156 8.535157 0 4.710937 3.820312 8.53125 8.535156 8.53125v54.835937c-39.371094 11.230469-66.933594 46.664063-68.128906 87.585937-18.089844 8.511719-30.707031 25.53125-33.597656 45.3125h-9.207032c-4.710937 0-8.535156 3.820313-8.535156 8.535157 0 4.710937 3.824219 8.53125 8.535156 8.53125h8.535157v42.667969h-25.601563c-4.714844 0-8.535156 3.820312-8.535156 8.53125 0 4.714843 3.820312 8.535156 8.535156 8.535156h8.53125v17.066406h-102.398437c-4.710938 0-8.5312502 3.820312-8.5312502 8.535156 0 4.710938 3.8203122 8.53125 8.5312502 8.53125h102.398437v1.570313c-10.222656 3.5625-17.074218 13.203125-17.074218 24.03125 0 10.824219 6.851562 20.464843 17.074218 24.027343v10.105469c0 14.136719 11.464844 25.597657 25.601563 25.597657v11.683593c.082031 11.242188 7.640625 21.058594 18.492187 24.003907 5.238282 1.675781 10.367188 3.671874 15.359375 5.972656l1.570313.675781-8.414063 12.621094c-2.613281 3.921875-1.558593 9.21875 2.363281 11.835937 3.921876 2.613282 9.222657 1.554688 11.835938-2.363281l10.410156-15.617187c9.023438 3.269531 18.304688 5.78125 27.742188 7.507812h.1875c13.175781 2.34375 26.539062 3.488281 39.921875 3.414062 13.382812.074219 26.746093-1.066406 39.925781-3.414062h.1875c9.425781-1.710938 18.695312-4.203125 27.707031-7.457031l10.410157 15.617187c1.695312 2.535156 4.609374 3.976563 7.652343 3.78125 3.042969-.199218 5.75-2.003906 7.101563-4.738281 1.347656-2.734375 1.140625-5.980469-.554688-8.515625l-8.414062-12.621094 1.570312-.675781c4.996094-2.300781 10.125-4.292969 15.363282-5.972656 10.878906-2.941407 18.453124-12.785157 18.515624-24.054688v-11.683593c14.136719 0 25.601563-11.460938 25.601563-25.597657v-10.105469c10.222656-3.5625 17.074219-13.203124 17.074219-24.027343 0-10.828125-6.851563-20.46875-17.074219-24.03125v-1.570313h102.398437c4.714844 0 8.535157-3.820312 8.535157-8.53125 0-4.714844-3.820313-8.535156-8.535157-8.535156h-102.398437v-17.066406h8.53125c4.714844 0 8.535156-3.820313 8.535156-8.535156 0-4.710938-3.820312-8.53125-8.535156-8.53125h-25.597656v-42.667969h8.53125c4.714843 0 8.535156-3.820313 8.535156-8.53125 0-4.714844-3.820313-8.535157-8.535156-8.535157h-9.207031c-2.890626-19.78125-15.503907-36.800781-33.597657-45.3125-1.195312-40.921874-28.757812-76.355468-68.128906-87.585937v-12.3125c6.734375.035156 13.410156-1.285156 19.628906-3.875zm-19.628906-81.3125c14.355469.070313 27.132813 9.121094 31.964844 22.636719.824219 2.285156 2.582031 4.113281 4.832031 5.023437 2.25.910157 4.78125.820313 6.960938-.253906 4.550781-2.21875 9.855468-2.289063 14.464843-.195313s8.042969 6.136719 9.363281 11.027344c.636719 2.351563 2.25 4.316406 4.433594 5.402344 2.179688 1.085938 4.722656 1.1875 6.984375.277344 5.53125-2.25 11.84375-1.382813 16.5625 2.28125 1.8125 1.371094 4.097657 1.960937 6.347657 1.640625 2.253906-.320313 4.28125-1.523438 5.640624-3.347657 4.777344-6.511718 12.371094-10.355468 20.445313-10.359374 7.769531-.039063 15.132813 3.46875 19.996094 9.527343 4.863281 6.058594 6.695312 14.007813 4.972656 21.585938-.800781 3.683593.910156 7.457031 4.210937 9.28125 3.300782 1.824219 7.40625 1.265625 10.101563-1.371094 1.976563-1.902344 4.390625-3.292969 7.03125-4.046875 2.75-.820312 4.90625-2.96875 5.734375-5.714844 2.085938-7.226562 8.699219-12.199218 16.21875-12.195312 9.425781 0 17.066406 7.640625 17.066406 17.066406 0 7.515625-4.972656 14.125-12.191406 16.214844-2.746094.824218-4.894531 2.96875-5.71875 5.714844-1.683594 5.824218-6.359375 10.300781-12.253906 11.726562-5.890625 1.421875-12.097656-.417969-16.253906-4.832031-2.121094-2.214844-5.269532-3.125-8.246094-2.378907-2.972656.75-5.320313 3.035157-6.140625 5.988282-2.808594 10.390625-11.847657 17.890625-22.578125 18.730468-10.726563.839844-20.824219-5.164062-25.210938-14.992187-.96875-2.125-2.765625-3.757813-4.972656-4.523437-.898438-.304688-1.84375-.464844-2.792969-.46875-1.363281 0-2.707031.328124-3.917969.957031-4.550781 2.367187-9.929687 2.542969-14.625.472656-4.695312-2.074219-8.195312-6.164063-9.515624-11.121094-.636719-2.351562-2.25-4.320312-4.429688-5.40625-2.183594-1.085937-4.726562-1.1875-6.984375-.277343-5.117187 2.054687-10.90625 1.511718-15.550781-1.453126-4.644532-2.96875-7.570313-7.996093-7.859375-13.5.425781-3.402343-1.226563-6.726562-4.195313-8.445312-2.96875-1.714844-6.675781-1.488281-9.414062.578125-5.871094 4.523437-13.070313 6.988281-20.480469 7.015625v-25.601562c4.714844 0 8.535156-3.820313 8.535156-8.53125 0-4.714844-3.820312-8.535157-8.535156-8.535157h-33.050781c3.90625-15.0625 17.492187-25.582031 33.050781-25.597656zm-118.109375 203.824219c.128906.726562.316406 1.445312.453125 2.167968.09375.460938.195313.921876.296875 1.390626.574219 2.707031 1.253906 5.386718 2.066406 8.015624l.09375.316407c1.5625 5.058593 3.5625 9.96875 5.972656 14.683593h-26.453124c2.207031-10.792968 8.503906-20.316406 17.570312-26.574218zm-18.421875 43.640625h38.507813c5.59375 6.761719 12.113281 12.695312 19.371093 17.621093.257813.179688.496094.375.753907.546876 1.851562 1.238281 3.777343 2.371093 5.714843 3.480468.855469.488282 1.707031 1 2.5625 1.460938.46875.246094.902344.546875 1.378907.792968v18.765626h-18.550782c-.101562-.300782-.261718-.5625-.375-.855469-.1875-.460938-.390625-.851563-.597656-1.328125-.445312-.964844-.953125-1.902344-1.519531-2.800782-.253907-.410156-.492188-.851562-.773438-1.210937-.722656-1.019531-1.519531-1.980469-2.382812-2.886719-.179688-.175781-.316407-.382812-.496094-.5625-1.054687-1.039062-2.199219-1.988281-3.410156-2.839844-.34375-.238281-.71875-.425781-1.066407-.648437-.929687-.582031-1.894531-1.109375-2.886718-1.570313-.46875-.214843-.945313-.402343-1.433594-.589843-1-.386719-2.027344-.707031-3.070312-.957031-.46875-.117188-.921876-.253907-1.402344-.339844-3.09375-.632813-6.289063-.632813-9.386719 0-.476563.085937-.929687.222656-1.398437.339844-1.042969.25-2.070313.570312-3.070313.957031-.488281.1875-.957031.375-1.425781.589843-.996094.460938-1.964844.984376-2.894532 1.570313-.355468.222656-.722656.417969-1.066406.648437-1.214844.851563-2.355468 1.800782-3.410156 2.839844-.179688.179688-.316406.386719-.496094.5625-.863281.90625-1.660156 1.867188-2.382812 2.886719-.28125.390625-.519532.800781-.773438 1.203125-.566406.902344-1.070312 1.839844-1.519531 2.808594-.207031.441406-.410156.851562-.589844 1.328125-.121093.292969-.28125.554687-.382812.855469h-1.527344zm95.988281 32.828125c1.09375.171875 2.175782.367187 3.285156.503906 7.734376 1.070312 15.582032 1.070312 23.316407 0 1.109375-.136719 2.191406-.332031 3.285156-.503906 2.84375-.453125 5.628906-1.023438 8.351563-1.707032.761718-.195312 1.554687-.265624 2.304687-.476562v63.222656h-51.199219v-63.257812c.75.214844 1.542969.28125 2.304688.476562 2.742187.710938 5.527344 1.292969 8.351562 1.742188zm76.136719 26.90625c.101563.296875.265625.5625.382813.851562.179687.453125.375.855469.582031 1.324219.449219.964844.960937 1.902344 1.527343 2.808594.253907.398437.492188.808593.777344 1.203125.722656 1.015625 1.515625 1.980468 2.378906 2.882812.179688.179688.316407.382813.496094.5625 1.054688 1.039063 2.199219 1.992188 3.414063 2.84375.339843.230469.707031.425782 1.066406.648438.929687.582031 1.894531 1.109375 2.890625 1.570312.46875.210938.9375.398438 1.417969.585938 1.003906.382812 2.035156.707031 3.078125.964844.472656.113281.921875.25 1.402344.332031 3.09375.636719 6.289062.636719 9.386718 0 .476563-.082031.929688-.21875 1.398438-.339844 1.046875-.253906 2.074218-.570313 3.082031-.957031.476563-.1875.945313-.375 1.414063-.585938.996093-.460937 1.964843-.988281 2.894531-1.570312.355469-.222656.722656-.417969 1.066406-.648438 1.214844-.851562 2.355469-1.804687 3.414063-2.84375.175781-.179687.3125-.382812.492187-.5625.863281-.902344 1.660156-1.867187 2.382813-2.882812.28125-.394532.519531-.804688.777343-1.203125.5625-.90625 1.070313-1.84375 1.515625-2.808594.207032-.445313.410156-.851563.597656-1.332031.113282-.289063.273438-.554688.375-.851563h18.597657v34.132813h-85.335938v-34.125zm15.605469-8.535156c0-4.710938 3.820312-8.53125 8.535156-8.53125 4.710938 0 8.53125 3.820312 8.53125 8.53125 0 4.714843-3.820312 8.535156-8.53125 8.535156-4.714844 0-8.535156-3.820313-8.535156-8.535156zm-204.796875 42.667968v-34.132812h18.523437c.101563.296875.265625.5625.382813.851562.179687.453125.378906.855469.582031 1.324219.453125.964844.960938 1.902344 1.527344 2.808594.257812.398437.496094.808593.777344 1.203125.722656 1.015625 1.519531 1.980468 2.378906 2.882812.179687.179688.316406.382813.496094.5625 1.058593 1.039063 2.199218 1.992188 3.414062 2.84375.339844.230469.707031.425782 1.066406.648438.929688.582031 1.894532 1.109375 2.890625 1.570312.472657.210938.941407.398438 1.417969.585938 1.007812.382812 2.035156.707031 3.082031.964844.46875.113281.921875.25 1.398438.332031 3.097656.636719 6.289062.636719 9.386719 0 .476562-.082031.929687-.21875 1.398437-.339844 1.046875-.253906 2.074219-.570313 3.082031-.957031.476563-.1875.945313-.375 1.414063-.585938 1-.460937 1.964843-.988281 2.894531-1.570312.359375-.222656.726562-.417969 1.066406-.648438 1.214844-.851562 2.355469-1.804687 3.414063-2.84375.179687-.179687.316406-.382812.496093-.5625.859376-.902344 1.65625-1.867187 2.378907-2.882812.28125-.394532.519531-.804688.777343-1.203125.5625-.90625 1.070313-1.84375 1.519532-2.808594.203125-.445313.410156-.851563.597656-1.332031.109375-.289063.273438-.554688.375-.851563h18.59375v34.132813zm34.132812-42.667968c0-4.710938 3.820313-8.53125 8.53125-8.53125 4.714844 0 8.535157 3.820312 8.535157 8.53125 0 4.714843-3.820313 8.535156-8.535157 8.535156-4.710937 0-8.53125-3.820313-8.53125-8.535156zm-8.535156 139.683593v-11.683593h15.933594l-2.722657 21.761718c-2.347656-.855468-4.675781-1.785156-7.015624-2.457031-3.535157-.871094-6.0625-3.980469-6.195313-7.621094zm128.742187-11.683593 3.695313 40.644531c-7.132813.964843-14.308594 1.558593-21.503906 1.777343v-42.421874zm42.921876 0 3.585937 28.605468c-8.410156 3.625-17.089844 6.578125-25.96875 8.832032l-3.359375-37.4375zm-77.796876 42.421874c-7.195312-.21875-14.371093-.8125-21.503906-1.777343l3.695313-40.644531h17.808593zm-38.347656-4.984374c-8.875-2.253907-17.558594-5.207032-25.96875-8.832032l3.585938-28.605468h25.785156zm149.28125-25.753907c-.132812 3.640625-2.660156 6.75-6.195312 7.621094-2.339844.671875-4.667969 1.5625-7.015625 2.457031l-2.722657-21.761718h15.933594zm25.601563-37.28125c0 4.710938-3.820313 8.53125-8.535157 8.53125h-238.933593c-4.710938 0-8.53125-3.820312-8.53125-8.53125v-8.535156h256zm8.53125-25.601562h-273.066407c-4.710937 0-8.535156-3.820313-8.535156-8.53125 0-4.714844 3.824219-8.535157 8.535156-8.535157h273.066407c4.714843 0 8.535156 3.820313 8.535156 8.535157 0 4.710937-3.820313 8.53125-8.535156 8.53125zm-27.058594-85.332031c-.101563-.300782-.265625-.5625-.375-.855469-.1875-.460938-.394531-.851563-.597656-1.328125-.449219-.964844-.953125-1.902344-1.519531-2.800782-.253907-.410156-.496094-.851562-.777344-1.210937-.722656-1.019531-1.515625-1.980469-2.378906-2.886719-.179688-.175781-.316407-.382812-.496094-.5625-1.058594-1.039062-2.199219-1.988281-3.414063-2.839844-.339843-.238281-.714843-.425781-1.066406-.648437-.925781-.582031-1.890625-1.109375-2.882813-1.570313-.46875-.214843-.949218-.402343-1.433593-.589843-1-.386719-2.027344-.707031-3.074219-.957031-.46875-.117188-.921875-.253907-1.398438-.339844-3.097656-.632813-6.289062-.632813-9.386718 0-.476563.085937-.929688.222656-1.398438.339844-1.046875.25-2.070312.570312-3.074218.957031-.484376.1875-.953126.375-1.421876.589843-1 .460938-1.964843.984376-2.894531 1.570313-.359375.222656-.726562.417969-1.066406.648437-1.214844.851563-2.355469 1.800782-3.414063 2.839844-.179687.179688-.316406.386719-.496093.5625-.859375.90625-1.65625 1.867188-2.378907 2.886719-.28125.390625-.519531.800781-.777343 1.203125-.5625.902344-1.070313 1.839844-1.519531 2.808594-.203126.441406-.410157.851562-.585938 1.328125-.121094.292969-.28125.554687-.386719.855469h-18.59375v-18.773438c.480469-.246094.914063-.546875 1.382813-.792969.855468-.460937 1.707031-.972656 2.558594-1.460937 1.9375-1.109375 3.867187-2.242188 5.71875-3.480469.257812-.171875.496093-.367187.75-.546875 7.25-4.925781 13.761718-10.855469 19.347656-17.613281h38.507812v42.667969zm.597656-59.734376h-26.445312c2.410156-4.714843 4.410156-9.625 5.972656-14.683593l.09375-.316407c.8125-2.628906 1.492187-5.308593 2.066406-8.015624.101563-.46875.203125-.929688.296875-1.390626.136719-.722656.324219-1.441406.453125-2.167968 9.066407 6.257812 15.363281 15.78125 17.570313 26.574218zm-33.273437-42.667968c0 1.417968-.136719 2.800781-.210938 4.199218-.152344 2.859376-.464844 5.710938-.929687 8.535157-.121094.734375-.1875 1.492187-.335938 2.21875-.628906 3.136719-1.460937 6.234375-2.480469 9.265625-.332031 1.007812-.71875 1.988281-1.09375 2.96875-.992187 2.625-2.132812 5.1875-3.414062 7.679687-.261719.523438-.476562 1.058594-.75 1.570313-1.582031 2.851562-3.328125 5.605468-5.238281 8.246094-.710938.988281-1.425781 1.960937-2.183594 2.917968-1.027344 1.296875-2.109375 2.558594-3.210937 3.746094-.851563.988281-1.707032 2.011719-2.679688 2.960938-1.808594 1.808593-3.703125 3.507812-5.675781 5.121093-1.117188.910157-2.300781 1.703125-3.460938 2.558594-1.164062.851563-2.492187 1.78125-3.789062 2.609375-1.140625.71875-2.277344 1.40625-3.414063 2.066406-1.707031.964844-3.457031 1.859375-5.25 2.707032-.894531.425781-1.757812.851562-2.667968 1.285156-.914063.4375-1.707032.648437-2.5625.984375-1.476563.5625-2.941407 1.152343-4.460938 1.628906-14.976562 4.632813-31.003906 4.632813-45.980469 0-1.515625-.476563-2.992187-1.066406-4.46875-1.640625-.855469-.332031-1.707031-.605469-2.5625-.972656-.851562-.367188-1.78125-.851563-2.679687-1.285156-1.789063-.855469-3.546875-1.707032-5.246094-2.707032-1.136719-.652344-2.277344-1.34375-3.414062-2.066406-1.296876-.851562-2.558594-1.707031-3.789063-2.609375-1.226563-.90625-2.347656-1.707031-3.464844-2.558594-1.96875-1.613281-3.863281-3.3125-5.671875-5.121093-.941406-.949219-1.792968-1.972657-2.679687-2.960938-1.101563-1.222656-2.1875-2.449219-3.210938-3.746094-.757812-.957031-1.476562-1.929687-2.183593-2.917968-1.910157-2.640626-3.660157-5.394532-5.238282-8.246094-.273437-.511719-.488281-1.046875-.753906-1.558594-1.277344-2.496094-2.417969-5.058594-3.410156-7.679688-.375-.992187-.761719-1.972656-1.09375-2.980468-1.019532-3.035156-1.851563-6.128906-2.484375-9.265625-.136719-.726563-.210938-1.476563-.332031-2.210938-.46875-2.824219-.777344-5.675781-.929688-8.535156-.058594-1.40625-.195312-2.789063-.195312-4.207031.0625-38.507813 28.613281-71.023438 66.789062-76.0625.742188-.105469 1.476562-.265625 2.226562-.34375s1.46875-.058594 2.195313-.109375c3.71875-.265625 7.457031-.265625 11.175781 0 .726563.050781 1.476563.042969 2.195313.109375.714843.070312 1.484375.238281 2.226562.34375 38.175781 5.039062 66.726563 37.554687 66.789063 76.0625zm-85.332032-93.480469v-51.585937h17.066407v51.585937c-2.84375-.257813-5.6875-.382813-8.53125-.382813-2.847657 0-5.691407.125-8.535157.382813zm0 0"/></svg>