<svg height="512pt" viewBox="0 -2 512.01153 512" width="512pt" xmlns="http://www.w3.org/2000/svg"><path d="m459.101562 389.160156c-12.417968-208.632812-93.140624-312.21875-245.707031-315.957031.097657-2.6875 1.480469-5.167969 3.710938-6.671875l36.574219-24.378906c7.8125-5.238282 9.914062-15.808594 4.699218-23.636719l-12.335937-18.51171875-14.203125 9.47265575 12.367187 18.476563-36.558593 24.371094c-7.121094 4.734375-11.394532 12.726562-11.375 21.28125v25.214843c-32.851563 1.351563-64.890626 10.648438-93.363282 27.09375-.160156.078126-.339844.078126-.503906.171876-.160156.09375-.246094.246093-.390625.339843-30.734375 17.933594-56.304687 43.507813-74.238281 74.242188-.09375.152343-.25.238281-.34375.390625-.09375.15625-.09375.34375-.171875.503906-36.347657 63.070312-36.347657 140.726562 0 203.792969.078125.164062.078125.34375.171875.503906.144531.210937.300781.414063.46875.605469 17.925781 30.636718 43.449218 56.128906 74.105468 74.019531.144532.09375.238282.246094.390626.339844.15625.09375.496093.195312.734374.308593 62.953126 36.167969 140.382813 36.167969 203.332032 0 .238281-.113281.496094-.171874.734375-.308593s.246093-.246094.394531-.339844c30.65625-17.890625 56.179688-43.382813 74.101562-74.019531.171876-.207032.332032-.425782.476563-.65625.09375-.164063.09375-.339844.171875-.503906 36.351562-63.066407 36.351562-140.726563 0-203.792969-.078125-.160157-.078125-.339844-.171875-.503907-.09375-.160156-.246094-.238281-.339844-.390624-17.933593-30.734376-43.507812-56.308594-74.238281-74.242188-.148438-.09375-.242188-.246094-.394531-.339844-.152344-.09375-.339844-.09375-.503907-.171875-28.472656-16.429687-60.507812-25.707031-93.355468-27.042969v-8.53125c143.652344 3.632813 217.210937 99.394532 228.738281 299.417969-30.808594 5.402344-52.207031 33.695313-49.019531 64.8125 3.191406 31.117188 29.882812 54.480469 61.148437 53.523438s56.476563-25.910157 57.753907-57.164063c1.277343-31.253906-21.8125-58.183594-52.894532-61.695312zm-66.773437-94.285156h-155.664063l134.757813-77.808594c12.558594 24.101563 19.695313 50.660156 20.90625 77.808594zm-375.039063 17.066406h155.664063l-134.757813 77.808594c-12.558593-24.101562-19.695312-50.660156-20.90625-77.808594zm196.050782-8.53125c0 4.710938-3.820313 8.53125-8.53125 8.53125-4.714844 0-8.535156-3.820312-8.535156-8.53125 0-4.714844 3.820312-8.535156 8.535156-8.535156 4.710937 0 8.53125 3.820312 8.53125 8.535156zm-17.066406 187.519532c-27.148438-1.214844-53.703126-8.347657-77.804688-20.90625l77.804688-134.761719zm-92.578126-345.601563 54.308594 94.082031c1.511719 2.660156 4.335938 4.308594 7.398438 4.3125 3.0625.007813 5.894531-1.625 7.417968-4.28125 1.523438-2.65625 1.511719-5.925781-.039062-8.566406l-54.3125-94.078125c24.101562-12.5625 50.65625-19.695313 77.804688-20.910156v163.492187c-.828126.285156-1.640626.621094-2.429688 1l-14.636719-14.636718c-3.207031-3.1875-7.542969-4.984376-12.066406-5h-22.066406c-4.710938 0-8.53125 3.820312-8.53125 8.53125 0 4.714843 3.820312 8.535156 8.53125 8.535156h22.066406l14.628906 14.632812c-.378906.792969-.710937 1.605469-1 2.433594h-163.480469c1.210938-27.148438 8.347657-53.707031 20.90625-77.808594l77.011719 44.46875c4.085938 2.355469 9.304688.957032 11.660157-3.128906 2.359374-4.082031.957031-9.304688-3.125-11.660156l-76.988282-44.441406c14.675782-22.847657 34.097656-42.273438 56.941406-56.949219zm-56.941406 259.183594 134.742188-77.789063-77.789063 134.738282c-22.851562-14.675782-42.277343-34.097657-56.953125-56.949219zm259.15625 56.949219-59.578125-103.199219c-1.515625-2.664063-4.339843-4.308594-7.398437-4.316407-3.0625-.007812-5.894532 1.628907-7.421875 4.28125-1.523438 2.65625-1.507813 5.925782.039062 8.566407l59.597657 103.253906c-24.101563 12.550781-50.660157 19.679687-77.808594 20.882813v-163.492188c.832031-.285156 1.640625-.621094 2.433594-.996094l14.632812 14.632813c3.210938 3.1875 7.542969 4.984375 12.066406 5h22.070313c4.710937 0 8.53125-3.820313 8.53125-8.53125 0-4.714844-3.820313-8.535157-8.53125-8.535157h-22.070313l-14.625-14.632812c.375-.792969.707032-1.605469.992188-2.433594h163.488281c-1.210937 27.148438-8.347656 53.707032-20.90625 77.808594l-77.015625-44.46875c-4.082031-2.355469-9.300781-.957031-11.660156 3.128906-2.355469 4.082032-.953125 9.304688 3.128906 11.660156l76.988281 44.441407c-14.675781 22.851562-34.101562 42.273437-56.953125 56.949219zm56.953125-259.15625-134.742187 77.789062 77.789062-134.738281c22.851563 14.675781 42.277344 34.097656 56.953125 56.949219zm-71.679687-65.507813-77.84375 134.757813v-155.667969c27.152344 1.214843 53.707031 8.347656 77.808594 20.910156zm161.089844 354.34375c-21.632813-.140625-39.738282-16.457031-42.125-37.960937-2.382813-21.503907 11.703124-41.390626 32.78125-46.269532.53125 13.40625.8125 27.246094.8125 41.566406 0 4.710938 3.820312 8.53125 8.53125 8.53125 4.714843 0 8.535156-3.820312 8.535156-8.53125 0-14.40625-.308594-28.332031-.855469-41.890624 21.703125 3.957031 36.800781 23.816406 34.804687 45.789062-1.992187 21.96875-20.421874 38.785156-42.484374 38.765625zm0 0"/></svg>