<svg height="512pt" viewBox="-60 0 512 512.17576" width="512pt" xmlns="http://www.w3.org/2000/svg"><path d="m256.085938 59.734375c0-14.140625-11.460938-25.601563-25.597657-25.601563h-68.265625c-14.140625 0-25.601562 11.460938-25.601562 25.601563v128c-4.710938 0-8.535156 3.820313-8.535156 8.53125 0 4.714844 3.824218 8.535156 8.535156 8.535156h119.464844c4.714843 0 8.535156-3.820312 8.535156-8.535156 0-4.710937-3.820313-8.53125-8.535156-8.53125zm-93.863282-8.535156h68.265625c4.710938 0 8.53125 3.820312 8.53125 8.535156v93.867187h-85.332031v-93.867187c0-4.714844 3.820312-8.535156 8.535156-8.535156zm-8.535156 136.535156v-17.066406h85.332031v17.066406zm0 0"/><path d="m196.355469 136.535156c14.136719 0 25.597656-11.460937 25.597656-25.601562 0-14.136719-11.460937-25.601563-25.597656-25.601563-14.140625 0-25.601563 11.464844-25.601563 25.601563 0 14.140625 11.460938 25.601562 25.601563 25.601562zm0-34.132812c4.710937 0 8.53125 3.820312 8.53125 8.53125 0 4.714844-3.820313 8.535156-8.53125 8.535156-4.714844 0-8.535157-3.820312-8.535157-8.535156 0-4.710938 3.820313-8.53125 8.535157-8.53125zm0 0"/><path d="m298.097656 364.585938c7.734375-7.308594 10.03125-18.695313 5.734375-28.433594l-33.75-91.636719c-1.628906-4.425781-6.539062-6.6875-10.960937-5.058594-4.421875 1.632813-6.6875 6.539063-5.054688 10.960938l34.011719 92.273437c2.132813 4.210938.449219 9.351563-3.761719 11.484375-4.210937 2.132813-9.355468.449219-11.484375-3.761719l-44.957031-117.453124c2.902344-2.847657 3.390625-7.347657 1.167969-10.753907-2.222657-3.40625-6.539063-4.769531-10.3125-3.257812l-4.5 1.824219-3.976563 1.632812h-.058594c-.808593.324219-1.613281.664062-2.421874.996094l-2.757813 1.136718c-6.933594 2.710938-13.617187 6.03125-19.96875 9.914063-.578125.375-1.246094.734375-1.800781 1.117187-.195313.136719-.339844.292969-.535156.429688-7.160157 4.164062-11.675782 11.71875-11.957032 20 .304688 6.398438-2.097656 12.632812-6.621094 17.167969-2.707031 2.460937-5.90625 4.3125-9.386718 5.429687-1.300782.429688-2.625.785156-3.96875 1.058594-1.03125.230469-2.03125.511719-3.121094.664062-2.574219.351563-5.171875.484376-7.765625.402344-2.09375-.101562-4.164063-.464844-6.164063-1.085937-.347656-.101563-.679687-.230469-1.011718-.347657-1.589844-.5625-3.089844-1.339843-4.464844-2.3125-1.328125-.933593-2.480469-2.085937-3.414062-3.414062-2.820313-4.964844-3.050782-10.996094-.613282-16.164062 2.417969-5.863282 3.726563-12.125 3.863282-18.464844 0-12.226563-6.925782-25.515625-15.714844-42.351563-12.007813-23.003906-26.949219-51.644531-26.949219-85.648437.273437-24.265625 5.835937-48.179688 16.296875-70.074219 7.125-14.648437 22.027344-23.902344 38.316406-23.792969h112.640625c16.285157-.109375 31.191407 9.144532 38.3125 23.792969 10.464844 21.894531 16.027344 45.808594 16.300781 70.074219 1.070313 24.742187-7.3125 48.960937-23.449218 67.746094-2.023438 2.285156-2.671875 5.480468-1.703125 8.375.96875 2.894531 3.40625 5.050781 6.398437 5.660156 2.992188.609375 6.082032-.425782 8.101563-2.710938 18.828125-21.949218 28.722656-50.171875 27.71875-79.070312-.273438-26.78125-6.386719-53.179688-17.921875-77.355469-9.949219-20.617187-30.863282-33.683594-53.757813-33.578125h-112.640625c-22.894531-.105469-43.808594 12.960938-53.761718 33.578125-11.53125 24.175781-17.648438 50.574219-17.917969 77.355469 0 38.195312 16.015625 68.882812 28.882812 93.550781 7.398438 14.175781 13.78125 26.417969 13.78125 34.449219-.144531 4.222656-1.0625 8.378906-2.703125 12.269531-4.453125 10.304687-3.613281 22.128906 2.242188 31.703125.523437.785156 1.246094 1.382812 1.835937 2.117188l-23.246093 50.480468c-4.53125 9.871094-2.34375 21.53125 5.464843 29.082032l-59.667969 135.46875c-1.296874 2.800781-.980468 6.085937.828126 8.585937 1.808593 2.503906 4.828124 3.832031 7.894531 3.480469 3.066406-.355469 5.703125-2.339844 6.894531-5.1875l59.605469-135.273438c.742187.0625 1.46875.238282 2.203125.238282 9.964844-.019532 19.019531-5.796876 23.234375-14.828126l30.097656-64.675781c1.75-.855469 3.4375-1.835937 5.050781-2.925781v68.933594c.046875 10.808594 6.875 20.425781 17.066406 24.027344v121.039062c0 4.710938 3.820313 8.53125 8.535157 8.53125 4.710937 0 8.53125-3.820312 8.53125-8.53125v-121.039062c10.191406-3.601563 17.023437-13.21875 17.066406-24.027344v-93.226563l35.167969 91.886719c4.203125 9.054688 13.285156 14.839844 23.269531 14.820312.71875 0 1.441406-.171874 2.167969-.230468l59.589844 135.226562c1.953124 4.21875 6.925781 6.097656 11.179687 4.222656s6.226563-6.808593 4.433594-11.097656zm-153.753906-66.773438-24.242188 52.054688c-1.238281 2.84375-3.921874 4.789062-7.007812 5.085937s-6.09375-1.101563-7.847656-3.660156c-1.757813-2.554688-1.988282-5.859375-.609375-8.636719l21.820312-47.402344c.855469.316406 1.785157.488282 2.671875.75.699219.207032 1.382813.417969 2.097656.589844 2.609376.632812 5.273438 1.015625 7.953126 1.152344.898437 0 1.792968.050781 2.671874.050781.230469 0 .4375-.050781.65625-.050781.625.066406 1.246094.066406 1.835938.066406zm52.011719 69.121094c-4.714844 0-8.535157-3.820313-8.535157-8.53125v-102.402344c.046876-.738281.285157-1.453125.691407-2.074219.121093-.207031.25-.410156.394531-.605469.496094-.6875 1.066406-1.316406 1.707031-1.875.09375-.085937.152344-.164062.246094-.25.964844-.804687 1.984375-1.550781 3.046875-2.226562l.605469-.382812c3.339843-2.015626 6.804687-3.8125 10.375-5.386719v115.203125c0 4.710937-3.820313 8.53125-8.53125 8.53125zm0 0"/><path d="m42.753906 110.933594c0-4.710938-3.820312-8.53125-8.53125-8.53125h-25.601562c-4.710938 0-8.5351565 3.820312-8.5351565 8.53125 0 4.714844 3.8242185 8.535156 8.5351565 8.535156h25.601562c4.710938 0 8.53125-3.820312 8.53125-8.535156zm0 0"/><path d="m19.65625 62.234375c-3.332031 3.332031-3.332031 8.734375 0 12.066406l8.53125 8.53125c3.347656 3.234375 8.671875 3.1875 11.960938-.101562 3.292968-3.292969 3.339843-8.613281.105468-11.964844l-8.53125-8.53125c-3.332031-3.332031-8.734375-3.332031-12.066406 0zm0 0"/><path d="m40.253906 139.035156c-3.332031-3.332031-8.734375-3.332031-12.066406 0l-8.53125 8.53125c-2.21875 2.144532-3.109375 5.316406-2.328125 8.300782.78125 2.984374 3.109375 5.3125 6.09375 6.09375s6.15625-.109376 8.300781-2.328126l8.53125-8.53125c3.332032-3.332031 3.332032-8.734374 0-12.066406zm0 0"/><path d="m384.085938 102.402344h-25.597657c-4.714843 0-8.535156 3.820312-8.535156 8.53125 0 4.714844 3.820313 8.535156 8.535156 8.535156h25.597657c4.714843 0 8.535156-3.820312 8.535156-8.535156 0-4.710938-3.820313-8.53125-8.535156-8.53125zm0 0"/><path d="m358.488281 85.332031c2.261719 0 4.433594-.898437 6.03125-2.5l8.535157-8.53125c2.21875-2.144531 3.109374-5.316406 2.328124-8.300781-.78125-2.980469-3.113281-5.3125-6.097656-6.09375-2.980468-.78125-6.15625.109375-8.296875 2.328125l-8.535156 8.53125c-2.4375 2.441406-3.167969 6.113281-1.847656 9.300781 1.320312 3.1875 4.429687 5.265625 7.882812 5.265625zm0 0"/><path d="m364.519531 139.035156c-3.347656-3.234375-8.667969-3.1875-11.960937.101563-3.292969 3.292969-3.335938 8.617187-.105469 11.964843l8.535156 8.53125c3.347657 3.234376 8.671875 3.1875 11.960938-.101562 3.292969-3.292969 3.339843-8.617188.105469-11.964844zm0 0"/></svg>