<svg height="512pt" viewBox="-77 0 512 512" width="512pt" xmlns="http://www.w3.org/2000/svg"><path d="m256 452.265625c-23.945312 0-36.804688-8.6875-40.960938-27.765625 8.921876-3.855469 14.871094-12.453125 15.335938-22.160156.464844-9.707032-4.636719-18.832032-13.152344-23.519532 1.214844-1.007812 2.425782-2.03125 3.570313-3.148437 11.640625-11.21875 18.195312-26.703125 18.140625-42.871094v-97.230469c.097656-9.460937 4.042968-18.472656 10.929687-24.960937 20.355469-19.25 31.839844-46.0625 31.738281-74.074219-.125-39.570312-22.929687-75.558594-58.652343-92.570312-13.667969-6.605469-24.335938-18.132813-29.867188-32.273438l-1.703125-4.132812c-2.292968-4.628906-7.011718-7.558594-12.179687-7.558594-5.402344.046875-10.28125 3.234375-12.492188 8.167969l-1.433593 3.539062c-5.835938 14.332031-16.78125 25.984375-30.71875 32.699219-30.316407 14.574219-51.5 43.15625-56.617188 76.398438-5.117188 33.246093 6.484375 66.878906 31.015625 89.890624 6.714844 6.390626 10.515625 15.257813 10.511719 24.527344v95.425782c.007812 18.453124 8.121094 35.96875 22.1875 47.90625-8.699219 4.550781-14.011719 13.699218-13.648438 23.511718.367188 9.8125 6.339844 18.542969 15.355469 22.433594-4.148437 19.078125-17.015625 27.765625-40.960937 27.765625-47.042969 0-61.824219 27.742187-65.234376 36.25-2.113281 5.273437-1.472656 11.246094 1.707032 15.953125 3.179687 4.703125 8.484375 7.523438 14.164062 7.53125h252.332032c5.675781-.007812 10.984374-2.828125 14.164062-7.53125 3.179688-4.707031 3.816406-10.679688 1.707031-15.953125-3.414062-8.507813-18.195312-36.25-65.238281-36.25zm-51.199219-59.730469c4.710938 0 8.53125 3.820313 8.53125 8.53125 0 4.714844-3.820312 8.535156-8.53125 8.535156h-51.199219c-4.714843 0-8.535156-3.820312-8.535156-8.535156 0-4.710937 3.820313-8.53125 8.535156-8.53125zm-110.636719-248.75c-3.101562-35.238281 15.949219-68.71875 47.832032-84.050781 16.277344-7.851563 29.398437-21.007813 37.203125-37.308594 7.488281 16.183594 20.375 29.253907 36.445312 36.976563 29.777344 14.164062 48.785157 44.15625 48.890625 77.132812.085938 23.34375-9.488281 45.683594-26.457031 61.71875-10.253906 9.714844-16.109375 23.191406-16.210937 37.316406v37.496094h-16.964844c1.058594-61.953125 13.515625-81.449218 22.742187-95.777344 7.152344-9.234374 11.113281-20.542968 11.289063-32.222656 0-26.726562-22.332032-42.667968-59.734375-42.667968-37.402344 0-59.734375 15.949218-59.734375 42.667968.175781 11.679688 4.136718 22.988282 11.292968 32.222656 9.1875 14.328126 21.683594 33.824219 22.738282 95.777344h-16.960938v-37.84375c0-13.957031-5.71875-27.300781-15.824218-36.925781-15.273438-14.269531-24.730469-33.683594-26.546876-54.511719zm93.636719 129.28125h-17.203125c-1.089844-67.140625-15.128906-88.933594-25.488281-105.019531-5.351563-6.484375-8.371094-14.574219-8.574219-22.980469 0-23.117187 29.863282-25.601562 42.664063-25.601562s42.667969 2.492187 42.667969 25.601562c-.207032 8.40625-3.226563 16.496094-8.578126 22.980469-10.359374 16.085937-24.394531 37.878906-25.488281 105.019531zm-51.265625 17.066406h85.332032v42.667969c.039062 11.550781-4.644532 22.613281-12.960938 30.625-8.214844 8.152344-19.457031 12.515625-31.019531 12.039063-23.554688-1.472656-41.773438-21.222656-41.351563-44.816406zm-83.535156 204.730469c2.40625-5.988281 13.066406-25.53125 49.398438-25.53125 39.894531 0 53.847656-21.691406 58.027343-42.664062h37.546875c4.164063 20.972656 18.117188 42.664062 58.027344 42.664062 36.335938 0 46.992188 19.542969 49.367188 25.601563zm0 0"/><path d="m349.867188 128h-34.132813c-4.714844 0-8.535156 3.820312-8.535156 8.535156 0 4.710938 3.820312 8.53125 8.535156 8.53125h34.132813c4.710937 0 8.53125-3.820312 8.53125-8.53125 0-4.714844-3.820313-8.535156-8.53125-8.535156zm0 0"/><path d="m307.199219 85.332031c1.320312 0 2.625-.304687 3.808593-.894531l17.066407-8.535156c2.726562-1.359375 4.519531-4.074219 4.707031-7.121094.183594-3.042969-1.273438-5.953125-3.816406-7.636719-2.542969-1.679687-5.792969-1.878906-8.519532-.515625l-17.066406 8.535156c-3.546875 1.765626-5.410156 5.742188-4.5 9.597657.910156 3.859375 4.359375 6.578125 8.320313 6.570312zm0 0"/><path d="m328.082031 197.164062-17.066406-8.535156c-4.21875-2.105468-9.347656-.394531-11.453125 3.824219s-.394531 9.34375 3.824219 11.449219l17.066406 8.535156c2.726563 1.363281 5.976563 1.167969 8.519531-.515625 2.546875-1.679687 4-4.59375 3.816406-7.636719-.183593-3.042968-1.980468-5.757812-4.707031-7.121094zm0 0"/><path d="m51.199219 136.535156c0-4.714844-3.820313-8.535156-8.53125-8.535156h-34.132813c-4.714844 0-8.535156 3.820312-8.535156 8.535156 0 4.710938 3.820312 8.53125 8.535156 8.53125h34.132813c4.710937 0 8.53125-3.820312 8.53125-8.53125zm0 0"/><path d="m47.386719 84.480469c4.21875 2.105469 9.34375.394531 11.449219-3.824219 2.109374-4.21875.394531-9.34375-3.820313-11.449219l-17.066406-8.535156c-4.21875-2.105469-9.347657-.394531-11.453125 3.824219-2.105469 4.21875-.394532 9.34375 3.824218 11.449218zm0 0"/><path d="m55.015625 203.945312c4.214844-2.105468 5.929687-7.230468 3.820313-11.449218-2.105469-4.21875-7.230469-5.929688-11.449219-3.824219l-17.066407 8.535156c-2.730468 1.359375-4.523437 4.074219-4.707031 7.121094-.183593 3.042969 1.269531 5.953125 3.8125 7.636719 2.546875 1.679687 5.792969 1.878906 8.523438.515625zm0 0"/></svg>