<svg height="512pt" viewBox="0 0 512 512.04912" width="512pt" xmlns="http://www.w3.org/2000/svg"><path d="m491.5625 64.414062c.25-2.019531.371094-4.050781.367188-6.085937-.179688-26.851563-18.578126-50.15625-44.65625-56.5625-26.078126-6.410156-53.179688 5.707031-65.789063 29.417969-9.65625-3.066406-20.214844-.777344-27.726563 6.019531-7.511718 6.800781-10.847656 17.078125-8.753906 26.988281-12.730468 6.535156-20.722656 19.65625-20.695312 33.964844.097656 21.265625 17.382812 38.441406 38.648437 38.398438h110.4375c21.265625.042968 38.554688-17.132813 38.648438-38.398438.015625-14.191406-7.882813-27.207031-20.480469-33.742188zm-18.167969 55.074219h-110.4375c-11.84375.058594-21.5-9.488281-21.578125-21.332031.019532-9.964844 6.957032-18.578125 16.6875-20.71875 2.71875-.625 4.960938-2.539062 6.007813-5.125 1.042969-2.585938.757812-5.519531-.765625-7.855469-1.199219-1.820312-1.84375-3.949219-1.851563-6.128906.035157-4.441406 2.632813-8.464844 6.667969-10.324219s8.78125-1.222656 12.179688 1.640625c2.191406 1.757813 5.097656 2.347657 7.800781 1.578125 2.699219-.789062 4.839843-2.859375 5.71875-5.53125 6.355469-19.335937 25.78125-31.222656 45.890625-28.089844 20.113281 3.132813 35 20.367188 35.175781 40.71875-.03125 3.164063-.433594 6.316407-1.195313 9.386719-1.039062 4.398438 1.53125 8.84375 5.863282 10.136719 9.09375 2.574219 15.386718 10.859375 15.417968 20.3125-.078124 11.84375-9.734374 21.390625-21.582031 21.332031zm0 0"/><path d="m.0429688 98.15625c.0937502 21.265625 17.3828122 38.441406 38.6484372 38.398438h110.4375c21.265625.042968 38.554688-17.132813 38.648438-38.398438.027344-14.308594-7.964844-27.429688-20.695313-33.964844.410157-1.925781.617188-3.890625.617188-5.863281-.046875-9.0625-4.390625-17.566406-11.707031-22.921875-7.3125-5.351562-16.734376-6.917969-25.386719-4.222656-12.59375-23.746094-39.71875-35.898438-65.820313-29.484375-26.105468 6.414062-44.507812 29.75-44.664062 56.628906 0 2.035156.121094 4.066406.367187 6.085937-12.582031 6.542969-20.4687498 19.558594-20.4453122 33.742188zm32.4804692-20.300781c4.328124-1.296875 6.898437-5.742188 5.859374-10.140625-.761718-3.070313-1.164062-6.21875-1.195312-9.386719.175781-20.351563 15.0625-37.585937 35.175781-40.71875 20.109375-3.132813 39.535157 8.753906 45.894531 28.089844.875 2.675781 3.015626 4.746093 5.71875 5.535156 2.703126.789063 5.617188.191406 7.796876-1.589844 3.398437-2.863281 8.144531-3.5 12.179687-1.640625s6.632813 5.882813 6.667969 10.324219c-.007813 2.179687-.652344 4.308594-1.851563 6.128906-1.523437 2.335938-1.808593 5.269531-.765625 7.855469 1.046875 2.585938 3.289063 4.5 6.007813 5.125 9.734375 2.136719 16.675781 10.75 16.699219 20.71875-.082032 11.84375-9.734376 21.390625-21.582032 21.332031h-110.4375c-11.847656.058594-21.5-9.488281-21.582031-21.332031.035156-9.449219 6.324219-17.730469 15.414063-20.300781zm0 0"/><path d="m486.445312 153.621094h-460.800781c-14.140625 0-25.6015622 11.460937-25.6015622 25.601562v102.398438c0 14.140625 11.4609372 25.601562 25.6015622 25.601562h179.199219l-38.398438 51.199219h-21.335937v-8.535156c0-14.136719-11.460937-25.597657-25.597656-25.597657-14.140625 0-25.601563 11.460938-25.601563 25.597657v34.136719c0 14.136718 11.460938 25.597656 25.601563 25.597656 14.136719 0 25.597656-11.460938 25.597656-25.597656v-8.535157h221.867187v8.535157c0 14.136718 11.460938 25.597656 25.601563 25.597656 14.136719 0 25.597656-11.460938 25.597656-25.597656v-34.136719c0-14.136719-11.460937-25.597657-25.597656-25.597657-14.140625 0-25.601563 11.460938-25.601563 25.597657v8.535156h-21.332031l-38.402343-51.199219h179.203124c14.136719 0 25.597657-11.460937 25.597657-25.601562v-102.398438c0-14.140625-11.460938-25.601562-25.597657-25.601562zm-358.402343 230.402344c0 4.710937-3.820313 8.53125-8.53125 8.53125-4.714844 0-8.535157-3.820313-8.535157-8.53125v-34.136719c0-4.710938 3.820313-8.53125 8.535157-8.53125 4.710937 0 8.53125 3.820312 8.53125 8.53125zm256-34.136719c0-4.710938 3.820312-8.53125 8.535156-8.53125 4.710937 0 8.53125 3.820312 8.53125 8.53125v34.136719c0 4.710937-3.820313 8.53125-8.53125 8.53125-4.714844 0-8.535156-3.820313-8.535156-8.53125zm-76.800781-110.933594h-9.386719c-4.035157-19.882813-21.519531-34.175781-41.8125-34.175781-20.289063 0-37.773438 14.292968-41.8125 34.175781h-9.386719c-14.136719 0-25.601562 11.464844-25.601562 25.601563v25.601562h-17.066407v-119.46875h187.734375v119.46875h-17.066406v-25.601562c0-14.136719-11.460938-25.601563-25.601562-25.601563zm-27.058594 0h-48.28125c3.613281-10.234375 13.285156-17.078125 24.140625-17.078125s20.527343 6.84375 24.140625 17.078125zm-135.074219 51.203125h-76.800781v-119.46875h76.800781zm221.867187-119.46875h76.800782v119.46875h-76.800782zm-349.867187 110.933594v-102.398438c0-4.714844 3.820313-8.535156 8.535156-8.535156h25.597657v119.46875h-25.597657c-4.714843 0-8.535156-3.820312-8.535156-8.535156zm307.199219 76.800781h-136.53125l38.398437-51.199219h59.734375zm-128-68.265625v-25.601562c0-4.710938 3.820312-8.53125 8.535156-8.53125h102.398438c4.714843 0 8.535156 3.820312 8.535156 8.53125v25.601562zm298.667968-8.535156c0 4.714844-3.820312 8.535156-8.53125 8.535156h-25.601562v-119.46875h25.601562c4.710938 0 8.53125 3.820312 8.53125 8.535156zm0 0"/><path d="m455.390625 401.089844h-.230469c-24.777344-.148438-46.761718 15.863281-54.230468 39.492187-.464844.1875-.988282.1875-1.457032 0-6.394531-2.109375-13.226562-2.511719-19.824218-1.171875-14.808594 2.953125-26.347657 14.597656-29.167969 29.433594-1.878907 10.597656 1.035156 21.488281 7.964843 29.730469 7.199219 8.558593 17.828126 13.480469 29.011719 13.449219h67.695313c30.945312.316406 56.355468-24.394532 56.890625-55.339844-.738281-30.804688-25.839844-55.4375-56.652344-55.59375zm-.238281 93.863281h-67.695313c-6.152343.042969-12.007812-2.648437-15.984375-7.34375-3.695312-4.367187-5.230468-10.164063-4.1875-15.789063 1.636719-7.90625 7.835938-14.074218 15.75-15.667968 1.457032-.296875 2.9375-.449219 4.421875-.449219 2.238281-.003906 4.460938.359375 6.578125 1.074219 4.84375 1.640625 10.140625 1.273437 14.710938-1.015625 4.019531-2.054688 7.027344-5.660157 8.320312-9.984375 5.277344-16.554688 20.710938-27.746094 38.085938-27.621094h.179687c21.449219 0 39.011719 17.050781 39.644531 38.492188-.488281 21.542968-18.277343 38.65625-39.824218 38.304687zm0 0"/><path d="m132.4375 439.417969c-6.59375-1.34375-13.425781-.941407-19.8125 1.171875-.742188.246094-1.332031.085937-1.28125.253906-7.476562-23.738281-29.527344-39.851562-54.417969-39.753906h-.230469c-30.8125.15625-55.914062 24.789062-56.6523432 55.59375.5390622 30.945312 25.9453122 55.65625 56.8906252 55.339844h67.695312c11.1875.03125 21.8125-4.890626 29.015625-13.449219 6.910157-8.246094 9.808594-19.132813 7.917969-29.722657-2.8125-14.824218-14.328125-26.464843-29.125-29.433593zm8.175781 48.191406c-3.972656 4.695313-9.828125 7.386719-15.984375 7.34375h-67.695312c-21.546875.351563-39.332032-16.761719-39.824219-38.304687.632813-21.441407 18.195313-38.492188 39.648437-38.492188h.175782c17.367187-.125 32.796875 11.066406 38.070312 27.613281 1.300782 4.320313 4.308594 7.925781 8.328125 9.984375 4.574219 2.289063 9.875 2.65625 14.71875 1.015625 3.546875-1.183593 7.34375-1.394531 11-.617187 7.914063 1.59375 14.117188 7.761718 15.753907 15.667968 1.042968 5.625-.496094 11.421876-4.191407 15.789063zm0 0"/><path d="m15.640625 371.742188c1.375-2.003907 4.40625-4.789063 6.214844-4.789063.957031 0 2.890625 1.246094 5.214843 4.738281 1.671876 2.238282 4.304688 3.554688 7.097657 3.554688 2.796875 0 5.425781-1.316406 7.101562-3.554688 2.320313-3.492187 4.265625-4.726562 5.210938-4.738281 1.800781 0 4.824219 2.773437 6.207031 4.78125 2.625 3.914063 7.929688 4.957031 11.84375 2.328125 3.914062-2.625 4.957031-7.929688 2.328125-11.84375-4.550781-7.003906-12.046875-11.542969-20.359375-12.332031-4.496094.050781-8.839844 1.621093-12.324219 4.464843-3.480469-2.84375-7.828125-4.414062-12.320312-4.464843-8.320313.785156-15.824219 5.324219-20.378907 12.332031-2.628906 3.910156-1.589843 9.214844 2.320313 11.84375 3.914063 2.628906 9.214844 1.589844 11.84375-2.320312zm0 0"/><path d="m234.234375 486.421875c-4.496094.046875-8.839844 1.621094-12.324219 4.460937-3.484375-2.839843-7.828125-4.414062-12.320312-4.460937-8.320313.78125-15.828125 5.324219-20.378906 12.332031-2.628907 3.910156-1.589844 9.210938 2.320312 11.84375 3.910156 2.628906 9.214844 1.589844 11.84375-2.324218 1.375-2.003907 4.402344-4.785157 6.214844-4.785157.953125 0 2.890625 1.246094 5.210937 4.734375 1.675781 2.238282 4.304688 3.558594 7.101563 3.558594 2.792968 0 5.425781-1.320312 7.097656-3.558594 2.324219-3.488281 4.269531-4.726562 5.214844-4.734375 1.800781 0 4.820312 2.773438 6.203125 4.777344 2.628906 3.914063 7.929687 4.957031 11.84375 2.332031 3.914062-2.628906 4.957031-7.929687 2.332031-11.84375-4.550781-7.003906-12.046875-11.542968-20.359375-12.332031zm0 0"/><path d="m319.566406 426.6875c-4.496094.046875-8.839844 1.621094-12.324218 4.464844-3.480469-2.84375-7.824219-4.417969-12.320313-4.464844-8.320313.785156-15.824219 5.324219-20.378906 12.332031-2.628907 3.910157-1.589844 9.214844 2.320312 11.84375 3.914063 2.628907 9.214844 1.589844 11.847657-2.320312 1.371093-2.007813 4.402343-4.789063 6.210937-4.789063.957031 0 2.890625 1.246094 5.214844 4.738282 1.671875 2.238281 4.304687 3.554687 7.097656 3.554687 2.796875 0 5.425781-1.316406 7.101563-3.554687 2.320312-3.492188 4.265624-4.730469 5.210937-4.738282 1.800781 0 4.824219 2.773438 6.207031 4.78125 2.625 3.914063 7.929688 4.957032 11.84375 2.328125 3.914063-2.628906 4.957032-7.929687 2.328125-11.84375-4.550781-7.003906-12.046875-11.542969-20.359375-12.332031zm0 0"/><path d="m268.367188 85.355469c-4.496094.046875-8.839844 1.621093-12.324219 4.460937-3.480469-2.839844-7.828125-4.414062-12.320313-4.460937-8.320312.78125-15.824218 5.324219-20.378906 12.328125-1.699219 2.53125-1.921875 5.777344-.582031 8.515625 1.339843 2.738281 4.039062 4.554687 7.082031 4.761719 3.042969.207031 5.964844-1.222657 7.664062-3.753907 1.375-2.003906 4.40625-4.785156 6.214844-4.785156.953125 0 2.890625 1.246094 5.210938 4.734375 1.675781 2.238281 4.308594 3.558594 7.101562 3.558594 2.792969 0 5.425782-1.320313 7.101563-3.558594 2.320312-3.488281 4.265625-4.726562 5.210937-4.734375 1.800782 0 4.824219 2.773437 6.203125 4.777344 2.628907 3.914062 7.933594 4.957031 11.847657 2.332031 3.914062-2.628906 4.957031-7.933594 2.328124-11.847656-4.550781-7-12.046874-11.542969-20.359374-12.328125zm0 0"/></svg>