<svg xmlns="http://www.w3.org/2000/svg" xmlns:xlink="http://www.w3.org/1999/xlink" viewBox="0 0 1000 600"><defs><style>.cls-1{fill:url(#radial-gradient);}.cls-2{fill:#fff;}.cls-3{fill:url(#linear-gradient);}.cls-4{fill:url(#linear-gradient-2);}.cls-5{fill:url(#linear-gradient-3);}.cls-6{fill:#fefffe;}.cls-7{fill:url(#linear-gradient-4);}.cls-8{fill:url(#linear-gradient-5);}.cls-9{fill:url(#linear-gradient-6);}.cls-10{fill:url(#linear-gradient-7);}.cls-11{fill:url(#linear-gradient-8);}.cls-12{fill:url(#linear-gradient-9);}.cls-13{fill:url(#linear-gradient-10);}.cls-14{fill:url(#linear-gradient-11);}</style><radialGradient id="radial-gradient" cx="500" cy="300" r="624.57" gradientUnits="userSpaceOnUse"><stop offset="0" stop-color="#008acf"/><stop offset="1" stop-color="#2a3e8a"/></radialGradient><linearGradient id="linear-gradient" x1="346.94" y1="198.92" x2="346.94" y2="374.92" gradientUnits="userSpaceOnUse"><stop offset="0" stop-color="#192a6b"/><stop offset="1" stop-color="#2d2e87"/></linearGradient><linearGradient id="linear-gradient-2" x1="312.3" y1="278.92" x2="312.3" y2="483.8" xlink:href="#linear-gradient"/><linearGradient id="linear-gradient-3" x1="320.95" y1="138.07" x2="359.02" y2="260.49" gradientUnits="userSpaceOnUse"><stop offset="0" stop-color="#242e7c"/><stop offset="1" stop-color="#333b8f"/></linearGradient><linearGradient id="linear-gradient-4" x1="342.4" y1="130.58" x2="342.4" y2="79.99" xlink:href="#linear-gradient"/><linearGradient id="linear-gradient-5" x1="364.79" y1="152.97" x2="327.07" y2="153.69" gradientUnits="userSpaceOnUse"><stop offset="0" stop-color="#009fe3"/><stop offset="1" stop-color="#fff" stop-opacity="0"/></linearGradient><linearGradient id="linear-gradient-6" x1="332.87" y1="255.34" x2="332.87" y2="158.38" gradientUnits="userSpaceOnUse"><stop offset="0" stop-color="#f9b233"/><stop offset="1" stop-color="#ffde00"/></linearGradient><linearGradient id="linear-gradient-7" x1="348.97" y1="174.35" x2="348.97" y2="326.23" xlink:href="#linear-gradient"/><linearGradient id="linear-gradient-8" x1="388.84" y1="292.54" x2="469.69" y2="330.26" gradientUnits="userSpaceOnUse"><stop offset="0" stop-color="#009fe3"/><stop offset="1" stop-color="#fff"/></linearGradient><linearGradient id="linear-gradient-9" x1="420.66" y1="463.42" x2="420.66" y2="487.43" xlink:href="#linear-gradient"/><linearGradient id="linear-gradient-10" x1="494.65" y1="75.93" x2="474.22" y2="33.05" xlink:href="#linear-gradient-8"/><linearGradient id="linear-gradient-11" x1="836.5" y1="532.92" x2="673.36" y2="608.8" gradientUnits="userSpaceOnUse"><stop offset="0" stop-color="#2a3e8a"/><stop offset="1" stop-color="#008acf" stop-opacity="0"/></linearGradient></defs><title>Ресурс 1</title><g id="Слой_2" data-name="Слой 2"><g id="Слой_1-2" data-name="Слой 1"><rect class="cls-1" width="1000" height="600"/><polygon class="cls-2" points="282.15 268.36 338.21 153.69 214.34 122.93 231.29 159.29 0 268.31 0 355.67 265.2 232 282.15 268.36"/><polygon class="cls-2" points="784.04 473.81 939.82 155.18 595.6 69.69 642.71 170.72 0 473.67 0 600 249.66 600 736.93 372.79 784.04 473.81"/><path class="cls-3" d="M402.26,124.61c-8.38,7.09-36.59,21.84-59.82,33.45l-28.63-4.76s-41.34,4-71,50.88S213,347.56,213,347.56l96-44.78s46.26-61.34,63.46-86.65l.23-.36c4.81-3.68,56.46-43.3,65-53.8,9-11,43.15-100.49,43.15-100.49l-16.44-8.85S417.24,111.94,402.26,124.61Z"/><path class="cls-4" d="M401.55,312.88C385.28,302.55,309,302.8,309,302.8l-96,44.78s-3.51,56.4,53.52,41.19c56.2-15,109.34-33.61,109.34-33.61s-4.3,20.42-2.29,41.08,18.17,64.09,18.17,64.09l17.89-.21S417.87,323.25,401.55,312.88Z"/><polygon class="cls-5" points="368.35 162.9 356.76 160.44 308.97 153.51 299.8 156.82 292.5 182.56 312.97 202.07 306.07 223.73 342.36 258.44 370.96 218.21 363.47 202.63 373.23 170.21 368.35 162.9"/><path class="cls-6" d="M330.92,84.53c-11.21,10.79-21.95,69-21.95,69l33.39,104.93,14.4-98,12.87-.26,2.2-75.69S342.14,73.75,330.92,84.53Z"/><path class="cls-7" d="M330.92,84.53c-7,6.74-13.83,32-18,50l13-11s-8.94-5.3-4.39-9.37,7.43,1.08,7.43,1.08L340.3,92.79l31.31-.63.22-7.67S342.14,73.75,330.92,84.53Z"/><path class="cls-8" d="M329.89,129.65s-6,32,24.41,47.51l2.46-16.72S332.93,146.17,329.89,129.65Z"/><path class="cls-9" d="M309,153.51l33.39,104.93,14.4-98C339.24,173.44,309,153.51,309,153.51Z"/><path class="cls-10" d="M358.83,246.8c-12.67-15-49.78-93.29-49.78-93.29-48.62,12.67-41.68,63.34-41.68,63.34s43.09,56.44,54.1,65.43,100.3,42.81,100.3,42.81l9.15-16.33S371.5,261.77,358.83,246.8Z"/><path class="cls-11" d="M464.27,309.23s-13.73-3.85-21.19-3.14a45.2,45.2,0,0,0-12.16,2.67l-9.15,16.33c32.63,22.07,47.47,7.14,47.47,7.14L447.3,313.8C461.41,315.61,464.27,309.23,464.27,309.23Z"/><polygon class="cls-12" points="391.69 460.33 385.93 481.9 455.38 487.25 409.58 460.12 391.69 460.33"/><path class="cls-13" d="M478.14,24.45a21.6,21.6,0,0,0-7.9,8.53,14.73,14.73,0,0,0-.66,1.61l-.25-.13-4.79,18.16,16.35,8.87s19.9-9.93,16.41-19.86C496.43,39.14,483.3,21.55,478.14,24.45Z"/><path class="cls-6" d="M465.63,33.31c-3,2.91-1.09,19.31-1.09,19.31l16.35,8.87c4.93-10.57-6.74-20.2-6.74-20.2,6.49,2.69,11.58-2.67,11.58-2.67S468.61,30.39,465.63,33.31Z"/><polygon class="cls-14" points="728.54 510.86 748.4 553.45 647.81 600 847.68 600 873.64 546.9 728.54 510.86"/></g></g></svg>