<svg xmlns="http://www.w3.org/2000/svg" xmlns:xlink="http://www.w3.org/1999/xlink" viewBox="0 0 1000 600.23"><defs><style>.cls-1{fill:url(#radial-gradient);}.cls-2{fill:url(#radial-gradient-2);}.cls-3{fill:url(#linear-gradient);}.cls-4{fill:url(#linear-gradient-2);}.cls-5{fill:url(#linear-gradient-3);}.cls-6{opacity:0.6;fill:url(#linear-gradient-4);}.cls-7{fill:url(#linear-gradient-5);}.cls-8{fill:url(#linear-gradient-6);}.cls-9{fill:url(#linear-gradient-7);}.cls-10{fill:url(#linear-gradient-8);}.cls-11{fill:#fefffe;}.cls-12{fill:url(#linear-gradient-9);}.cls-13{fill:url(#linear-gradient-10);}.cls-14{fill:url(#linear-gradient-11);}.cls-15{fill:url(#linear-gradient-12);}.cls-16{fill:url(#linear-gradient-13);}.cls-17{fill:url(#linear-gradient-14);}</style><radialGradient id="radial-gradient" cx="500" cy="300.23" r="624.57" gradientUnits="userSpaceOnUse"><stop offset="0" stop-color="#008acf"/><stop offset="1" stop-color="#2a3e8a"/></radialGradient><radialGradient id="radial-gradient-2" cx="498.64" cy="300.12" r="623.26" xlink:href="#radial-gradient"/><linearGradient id="linear-gradient" x1="656.36" y1="12.41" x2="656.36" y2="335.04" gradientUnits="userSpaceOnUse"><stop offset="0" stop-color="#fff"/><stop offset="1" stop-color="#009fe3"/></linearGradient><linearGradient id="linear-gradient-2" x1="332.15" y1="241.54" x2="332.15" y2="408.93" gradientUnits="userSpaceOnUse"><stop offset="0" stop-color="#fff"/><stop offset="1" stop-color="#7bc6b5"/></linearGradient><linearGradient id="linear-gradient-3" x1="666.3" y1="453.72" x2="666.3" y2="599.46" xlink:href="#linear-gradient-2"/><linearGradient id="linear-gradient-4" x1="372.05" y1="398.46" x2="920.41" y2="398.46" gradientUnits="userSpaceOnUse"><stop offset="0" stop-color="#2d2e87"/><stop offset="1" stop-color="#192a6b"/></linearGradient><linearGradient id="linear-gradient-5" x1="306.49" y1="542.12" x2="335.91" y2="592.31" gradientUnits="userSpaceOnUse"><stop offset="0" stop-color="#192a6b"/><stop offset="1" stop-color="#2d2e87"/></linearGradient><linearGradient id="linear-gradient-6" x1="412.61" y1="346.9" x2="412.61" y2="503.05" xlink:href="#linear-gradient-5"/><linearGradient id="linear-gradient-7" x1="497.29" y1="132.84" x2="497.29" y2="425.52" xlink:href="#linear-gradient-5"/><linearGradient id="linear-gradient-8" x1="494.68" y1="131.38" x2="536.95" y2="267.29" gradientUnits="userSpaceOnUse"><stop offset="0" stop-color="#242e7c"/><stop offset="1" stop-color="#333b8f"/></linearGradient><linearGradient id="linear-gradient-9" x1="517.03" y1="127.53" x2="517.03" y2="73.23" xlink:href="#linear-gradient-5"/><linearGradient id="linear-gradient-10" x1="532.15" y1="142.11" x2="510.94" y2="156.34" gradientUnits="userSpaceOnUse"><stop offset="0" stop-color="#7bc6b5"/><stop offset="1" stop-color="#fff" stop-opacity="0"/></linearGradient><linearGradient id="linear-gradient-11" x1="508.01" y1="259.48" x2="508.01" y2="157.1" gradientUnits="userSpaceOnUse"><stop offset="0" stop-color="#f9b233"/><stop offset="1" stop-color="#ffde00"/></linearGradient><linearGradient id="linear-gradient-12" x1="457.09" y1="496.7" x2="457.09" y2="533.2" xlink:href="#linear-gradient-5"/><linearGradient id="linear-gradient-13" x1="709.58" y1="56.4" x2="707.39" y2="25.04" gradientUnits="userSpaceOnUse"><stop offset="0" stop-color="#009fe3"/><stop offset="1" stop-color="#fff"/></linearGradient><linearGradient id="linear-gradient-14" x1="240.15" y1="693.19" x2="240.15" y2="487.15" xlink:href="#linear-gradient-13"/></defs><title>Ресурс 1</title><g id="Слой_2" data-name="Слой 2"><g id="Слой_1-2" data-name="Слой 1"><polygon class="cls-1" points="997.29 0.23 997.29 600 0 600 0 600.23 1000 600.23 1000 0.23 997.29 0.23"/><rect class="cls-2" y="0.23" width="997.29" height="599.77"/><path class="cls-3" d="M669.42,32s-13-14.75-41.08,0-9.18,28.3-9.18,28.3-22.47-6.2-55.81,0S538.78,119,538.78,119c-52.65-12.29-45.63,29.83-45.63,29.83-42.13,8.78-121.1,21.06-121.1,21.06H940.68c-28.08-24.57-47.38-15.79-47.38-15.79s15.79-31.59-8.78-61.43-45.63-7.21-45.63-7.21,11-59.27-51.46-85.49H685.11A41.44,41.44,0,0,0,669.42,32Z"/><path class="cls-4" d="M424.7,362.21s6.91-41.35-19.34-46.23-43.92,0-43.92,0,14.82-10.65-7.23-22.27-32.34,0-32.34,0,2-46.13-71.22-31.64-62.16,73.75-62.16,73.75-16.58-17.81-35.92,5.67-6.9,48.35-6.9,48.35-15.2-6.91-37.3,12.43H555.93s-62.16-9.67-95.32-16.58C460.61,385.69,466.14,352.54,424.7,362.21Z"/><path class="cls-5" d="M822.52,581.08s10.41-20.83-5.79-40.51-30.08-4.75-30.08-4.75,9.25-49.63-52.08-61.78-59.67,26.51-59.67,26.51-8.6-9.74-27.08,0-6.06,18.65-6.06,18.65-14.81-4.08-36.8,0-16.2,38.73-16.2,38.73c-34.71-8.1-30.09,19.67-30.09,19.67-27.77,5.79-79.84,13.89-79.84,13.89H853.76C835.25,575.29,822.52,581.08,822.52,581.08Z"/><polygon class="cls-6" points="863.79 364.69 863.79 306.5 821.85 306.5 821.85 268.12 806.13 268.12 806.13 237.82 779.91 196.93 753.7 237.82 753.7 268.12 737.97 268.12 737.97 360.49 708.62 360.49 708.62 306.5 686.6 306.5 686.6 293.92 631.03 293.92 631.03 306.5 609.01 306.5 609.01 395.1 567.07 395.1 567.07 339.52 542.95 339.52 542.95 271.9 511.5 271.9 511.5 294.75 486.03 294.75 463.27 317.51 463.27 374.12 450.69 374.12 450.69 342.67 391.97 342.67 391.97 393 372.05 393 372.05 600 920.41 600 920.41 400.34 884.76 364.69 863.79 364.69"/><polygon class="cls-7" points="295.46 531.07 315.42 578.98 317.25 542.42 310.58 527.48 295.46 531.07"/><path class="cls-8" d="M379.78,437c-32.55,17.33-69.2,90.48-69.2,90.48l6.67,14.94S386,490.54,420.53,453.93s94.12-100.12,94.12-100.12L433.15,300C423.08,369,379.78,437,379.78,437Z"/><path class="cls-9" d="M620.3,106.5c-17.37,14-86.9,51.71-86.9,51.71L482.62,152l-44.53-.38s-62.63,14.52-85.26,29.84c-24.58,16.65-64.27,78-64.27,78l15.55,10.18s57.87-43,69.28-48.73c8.92-4.45,57.28,3.36,57.29,3.36,3.05,25.11,5.38,55.37,2.47,75.8,0,0-38,65.3,54.93,90.75,20.7,12.42,32.68,21.63,41.65,29.2-20,11-69.55,65.79-69.55,65.79a125.67,125.67,0,0,0,9.13,13.57s112.49-52,119.21-71.33c7.49-21.57-25.75-71.91-56.78-103.58h0c12.31-22.75,28-55.45,35.64-86.12h0s58.72-67.41,71.31-82S706,57.19,706,57.19L691.37,44.93S637.66,92.48,620.3,106.5Z"/><path class="cls-10" d="M545.82,160.69a39.13,39.13,0,0,0-12.42-2.48L482.62,152l-10.29-.62-6.5,31.76L488,203.3l-6.82,23.1,44.59,36.36,23.89-43.92-8.17-16.1,9.6-34.55Z"/><path class="cls-11" d="M504.31,78.41C492.67,90.08,482.62,152,482.62,152l43.13,110.8,7.65-104.55,13.62-.57.61-80.21S515.94,66.73,504.31,78.41Z"/><path class="cls-12" d="M504.31,78.41c-7.27,7.29-13.93,34.2-17.89,53.35l13.51-11.9s-9.6-5.4-4.86-9.82,7.89,1,7.89,1l11.46-24.07,33.15-1.38.06-8.13S515.94,66.73,504.31,78.41Z"/><path class="cls-13" d="M504.24,126.22s-4.33,34.54,28.19,50.32l1-18.33S507.83,143.64,504.24,126.22Z"/><path class="cls-14" d="M482.62,152l43.13,110.8,7.65-104.55C515.14,172.39,482.62,152,482.62,152Z"/><path class="cls-11" d="M304.11,269.57l-15.55-10.18c-23.5,31.13-9.85,46.74-9.85,46.74l19.35-20.74c-2.52,13.86,3.65,17,3.65,17s4.51-13.38,4.2-20.8A50.53,50.53,0,0,0,304.11,269.57Z"/><polygon class="cls-15" points="444.87 489.58 467.59 542.4 469.31 499.31 460.18 485.74 444.87 489.58"/><path class="cls-16" d="M700.43,21.58c-3.34,1-9.06,23.35-9.06,23.35L706,57.19s18.91-23.33,19.21-25.79S703.76,20.56,700.43,21.58Z"/><path class="cls-11" d="M716.83,26.27a59.79,59.79,0,0,1-8.45,11.79c-6.79,7.36-17,6.87-17,6.87L706,57.19s18.91-23.33,19.21-25.79C725.36,30.36,721.53,28.27,716.83,26.27Z"/><path class="cls-17" d="M364.18,596.2s35.05-25.19-17.1-52.65-76.45,0-76.45,0,4.7-109.09-168.4-74.81C54.66,478.16,22.16,495.57,0,515.87V600H480.3A53.79,53.79,0,0,0,468,596.2C406,584.67,364.18,596.2,364.18,596.2Z"/></g></g></svg>