<svg xmlns="http://www.w3.org/2000/svg" xmlns:xlink="http://www.w3.org/1999/xlink" viewBox="0 0 1000 600"><defs><style>.cls-1{fill:url(#radial-gradient);}.cls-2{opacity:0.75;}.cls-3{fill:#244896;}.cls-4{fill:url(#linear-gradient);}.cls-5{fill:url(#linear-gradient-2);}.cls-6{fill:url(#linear-gradient-3);}.cls-7{fill:url(#linear-gradient-4);}.cls-8{fill:url(#linear-gradient-5);}.cls-9{fill:url(#linear-gradient-6);}.cls-10{fill:url(#linear-gradient-7);}.cls-11{fill:url(#linear-gradient-8);}.cls-12{fill:url(#linear-gradient-9);}.cls-13{fill:url(#linear-gradient-10);}.cls-14{fill:url(#linear-gradient-11);}</style><radialGradient id="radial-gradient" cx="500" cy="300" r="624.57" gradientUnits="userSpaceOnUse"><stop offset="0" stop-color="#008acf"/><stop offset="1" stop-color="#2a3e8a"/></radialGradient><linearGradient id="linear-gradient" x1="358.06" y1="160.77" x2="387.36" y2="127.69" gradientUnits="userSpaceOnUse"><stop offset="0" stop-color="#192a6b"/><stop offset="1" stop-color="#2d2e87"/></linearGradient><linearGradient id="linear-gradient-2" x1="384.95" y1="176.65" x2="462.71" y2="134.01" xlink:href="#linear-gradient"/><linearGradient id="linear-gradient-3" x1="451.42" y1="182.57" x2="567.34" y2="136.08" xlink:href="#linear-gradient"/><linearGradient id="linear-gradient-4" x1="409.9" y1="555.6" x2="409.9" y2="173.8" gradientUnits="userSpaceOnUse"><stop offset="0" stop-color="#009fe3"/><stop offset="1" stop-color="#fff"/></linearGradient><linearGradient id="linear-gradient-5" x1="445.13" y1="415.25" x2="445.13" y2="546.16" gradientUnits="userSpaceOnUse"><stop offset="0" stop-color="#fff"/><stop offset="1" stop-color="#009fe3"/></linearGradient><linearGradient id="linear-gradient-6" x1="445.13" y1="494.53" x2="445.13" y2="623.37" xlink:href="#linear-gradient-4"/><linearGradient id="linear-gradient-7" x1="462.82" y1="619.43" x2="462.82" y2="478.23" xlink:href="#linear-gradient-5"/><linearGradient id="linear-gradient-8" x1="482.31" y1="608.94" x2="482.31" y2="528.04" xlink:href="#linear-gradient-4"/><linearGradient id="linear-gradient-9" x1="446.37" y1="299.24" x2="446.37" y2="504.75" xlink:href="#linear-gradient-4"/><linearGradient id="linear-gradient-10" x1="360.44" y1="151.41" x2="360.44" y2="192.73" xlink:href="#linear-gradient-4"/><linearGradient id="linear-gradient-11" x1="61.15" y1="231.53" x2="508.45" y2="45.07" xlink:href="#linear-gradient"/></defs><title>Ресурс 1</title><g id="Слой_2" data-name="Слой 2"><g id="Слой_1-2" data-name="Слой 1"><rect class="cls-1" width="1000" height="600"/><g class="cls-2"><path class="cls-3" d="M901.81,204.09l31.54-24.65L910,138.92l-37.21,14.9A203.29,203.29,0,0,0,839.06,120l15-37.16L813.62,59.37,788.87,90.83a201.48,201.48,0,0,0-46.2-12.44l-5.58-39.65-46.75-.06-5.69,39.63a200.72,200.72,0,0,0-46.24,12.31L613.76,59.08,573.24,82.39l14.9,37.21a204.05,204.05,0,0,0-33.86,33.76l-37.17-15-23.43,40.45,31.47,24.74a201.25,201.25,0,0,0-12.44,46.2l-39.65,5.59L473,302.08l39.63,5.7A201.79,201.79,0,0,0,524.93,354L493.4,378.67l23.31,40.51,37.21-14.89a203.67,203.67,0,0,0,33.76,33.86l-15,37.16,40.45,23.43,24.75-31.47a201,201,0,0,0,46.2,12.45l5.58,39.64,46.75.07,5.69-39.63a200.72,200.72,0,0,0,46.24-12.31L813,499l40.52-23.32-14.89-37.2a204,204,0,0,0,33.85-33.76l37.17,15,23.43-40.45-31.47-24.74A201.25,201.25,0,0,0,914,308.36l39.65-5.59.07-46.74-39.63-5.7A202,202,0,0,0,901.81,204.09ZM713.26,355.39a76.34,76.34,0,1,1,76.45-76.23A76.34,76.34,0,0,1,713.26,355.39Z"/><path class="cls-3" d="M310.76,303.73l19.45-15.2-14.38-25-22.95,9.19a125.83,125.83,0,0,0-20.83-20.88l9.26-22.92-24.95-14.46-15.27,19.41a123.84,123.84,0,0,0-28.49-7.67l-3.45-24.46-28.83,0-3.52,24.44a124,124,0,0,0-28.51,7.6l-15.21-19.46-25,14.39,9.18,22.94a125.83,125.83,0,0,0-20.88,20.83l-22.92-9.25L59,288.14,78.42,303.4a124.57,124.57,0,0,0-7.67,28.5l-24.46,3.44,0,28.83,24.45,3.52a124.23,124.23,0,0,0,7.59,28.52l-19.45,15.2,14.38,25,23-9.19A126.16,126.16,0,0,0,117,448.1L107.74,471l25,14.45L148,466.07a123.56,123.56,0,0,0,28.5,7.67l3.44,24.46,28.84,0,3.51-24.44a124.25,124.25,0,0,0,28.52-7.6L256,485.66l25-14.38-9.19-22.95a126.28,126.28,0,0,0,20.89-20.83l22.92,9.26L330,411.81l-19.41-15.27A124.08,124.08,0,0,0,318.3,368l24.45-3.44,0-28.83-24.44-3.52A124.23,124.23,0,0,0,310.76,303.73ZM194.39,439.15a89.18,89.18,0,1,1,89.31-89A89.18,89.18,0,0,1,194.39,439.15Z"/><path class="cls-3" d="M360.64,577.36A59.15,59.15,0,1,1,474.47,600h85.15c.12-.73.24-1.45.35-2.18l27.3-3.85.05-32.58L560,557.47a141,141,0,0,0-26.7-64.76l16.58-22-23-23.07-22.06,16.51a141,141,0,0,0-64.68-26.88L436.32,410l-32.58,0-3.92,27.29a141,141,0,0,0-64.76,26.7l-22-16.58-23.07,23,16.51,22.06a140.93,140.93,0,0,0-26.89,64.68l-27.3,3.84,0,32.58,27.29,3.92c.12.87.27,1.73.4,2.59H365.1A59,59,0,0,1,360.64,577.36Z"/></g><path class="cls-4" d="M295.65,74.85s16.57,34.25,61.55,105.5C402.52,252.12,436,229.22,436,229.22L358.08,103Z"/><path class="cls-5" d="M311.91,95.1S338.39,129,405.09,197c67.19,68.5,98.67,35.23,98.67,35.23L387.61,111.3Z"/><path class="cls-6" d="M376.35,116.59s31.81,28.95,109,84.73c77.78,56.2,103.2,18.09,103.2,18.09L453.7,119.8Z"/><path class="cls-7" d="M526.86,183.33c-76.52,25-86.35.65-86.35.65L373,183.06l-25.09-34.45-19.05,59.95c-92.74,109.1.23,279.15.23,279.15l24,22.79L519,456.18l.92-31c-69.9-36.31-88.32-133.36-88.32-133.36l100.48-55.92Z"/><polygon class="cls-8" points="353.11 510.5 348.65 541.88 541.61 478.7 519.03 456.18 353.11 510.5"/><polygon class="cls-9" points="371.22 564.4 537.14 510.08 541.61 478.7 348.65 541.88 371.22 564.4"/><polygon class="cls-10" points="536.73 510.21 370.8 564.54 353.85 600 571.78 528.65 536.73 510.21"/><polygon class="cls-11" points="589.24 522.94 353.86 600 576.15 600 610.76 588.67 589.24 522.94"/><path class="cls-12" d="M431.63,291.86s-37.7,10-58.3-19.13c0,0-12.88,133.63,85.82,203L519,456.18l.92-31C450.05,388.91,431.63,291.86,431.63,291.86Z"/><polygon class="cls-13" points="352.99 195.82 372.98 183.06 347.89 148.61 352.99 195.82"/><path class="cls-14" d="M138.46,170.12c10.87,22-6.79,73.46,7.46,97.91,14.57,25,88.94,64.14,88.94,64.14L285.51,395c61.4-46.35-31.13-128.41-31.13-128.41s12.7-64.12,27.39-82C307,153.77,438.16,132,438.16,132l54.55,16.59c1.87,87.8,49,84.09,49,84.09l-4.26-118.16L436.17,73.94l-19.78,1.58a543.22,543.22,0,0,1-203-22.3C201.2,45.51,179.32,24.45,155.75,0H0V84.84S121.05,134.87,138.46,170.12Z"/></g></g></svg>