<svg xmlns="http://www.w3.org/2000/svg" xmlns:xlink="http://www.w3.org/1999/xlink" viewBox="0 0 999.09 600"><defs><style>.cls-1{fill:url(#radial-gradient);}.cls-2{fill:#244896;}.cls-3{fill:url(#linear-gradient);}.cls-4{fill:url(#linear-gradient-2);}.cls-5{fill:url(#linear-gradient-3);}.cls-6{fill:url(#linear-gradient-4);}.cls-7{fill:#fefffe;}.cls-8{fill:url(#linear-gradient-5);}.cls-9{fill:url(#linear-gradient-6);}.cls-10{fill:url(#linear-gradient-7);}.cls-11{fill:url(#linear-gradient-8);}.cls-12{fill:url(#linear-gradient-9);}.cls-13{fill:url(#linear-gradient-10);}.cls-14{fill:url(#linear-gradient-11);}.cls-15{fill:url(#linear-gradient-12);}.cls-16{fill:url(#linear-gradient-13);}</style><radialGradient id="radial-gradient" cx="499.55" cy="300" r="624.16" gradientUnits="userSpaceOnUse"><stop offset="0" stop-color="#008acf"/><stop offset="1" stop-color="#2a3e8a"/></radialGradient><linearGradient id="linear-gradient" x1="556.14" y1="475.88" x2="556.14" y2="486.98" gradientUnits="userSpaceOnUse"><stop offset="0" stop-color="#192a6b"/><stop offset="1" stop-color="#2d2e87"/></linearGradient><linearGradient id="linear-gradient-2" x1="458.53" y1="475.88" x2="458.53" y2="486.98" xlink:href="#linear-gradient"/><linearGradient id="linear-gradient-3" x1="510" y1="240.77" x2="510" y2="467.7" xlink:href="#linear-gradient"/><linearGradient id="linear-gradient-4" x1="503.43" y1="81.86" x2="542.8" y2="208.44" gradientUnits="userSpaceOnUse"><stop offset="0" stop-color="#242e7c"/><stop offset="1" stop-color="#333b8f"/></linearGradient><linearGradient id="linear-gradient-5" x1="515.84" y1="77.59" x2="515.84" y2="22.05" xlink:href="#linear-gradient"/><linearGradient id="linear-gradient-6" x1="537.06" y1="86.7" x2="515.21" y2="101.37" gradientUnits="userSpaceOnUse"><stop offset="0" stop-color="#7bc6b5"/><stop offset="1" stop-color="#fff" stop-opacity="0"/></linearGradient><linearGradient id="linear-gradient-7" x1="633.47" y1="74.25" x2="620.21" y2="46.44" gradientUnits="userSpaceOnUse"><stop offset="0" stop-color="#7bc6b5"/><stop offset="1" stop-color="#fff"/></linearGradient><linearGradient id="linear-gradient-8" x1="515.22" y1="198.25" x2="515.22" y2="106.1" gradientUnits="userSpaceOnUse"><stop offset="0" stop-color="#f9b233"/><stop offset="1" stop-color="#ffde00"/></linearGradient><linearGradient id="linear-gradient-9" x1="614.22" y1="53.98" x2="614.22" y2="69.67" xlink:href="#linear-gradient"/><linearGradient id="linear-gradient-10" x1="685.18" y1="53.37" x2="685.18" y2="74.03" xlink:href="#linear-gradient"/><linearGradient id="linear-gradient-11" x1="547.39" y1="55.25" x2="547.39" y2="60.7" xlink:href="#linear-gradient"/><linearGradient id="linear-gradient-12" x1="686.71" y1="55.93" x2="695.89" y2="55.93" xlink:href="#linear-gradient-7"/><linearGradient id="linear-gradient-13" x1="626.33" y1="70.66" x2="623.65" y2="46.06" xlink:href="#linear-gradient-7"/></defs><title>Ресурс 1</title><g id="Слой_2" data-name="Слой 2"><g id="Слой_1-2" data-name="Слой 1"><rect class="cls-1" width="999.09" height="600"/><path class="cls-2" d="M163.63,600H304.8q16.08-9.06,33.07-16.65-6.45,8-12.59,16.65H441.85a129.86,129.86,0,0,1,14.78-8.84V600h84.91v-8.84A129.75,129.75,0,0,1,556.31,600H672.89q-6.14-8.64-12.6-16.66,17,7.57,33.1,16.66H834.55c-86.87-84.18-205.22-136.07-335.47-136.07S250.51,515.82,163.63,600Z"/><path class="cls-3" d="M532.47,467.54,529.37,487h53.55S562,475.24,546.49,467.54Z"/><path class="cls-4" d="M458.81,467.54C444.75,476.79,441.87,487,441.87,487h33.32l-3.36-19.43Z"/><path class="cls-5" d="M615.69,70.35l-9.54,62.83s-24.93-28.14-38.32-30.4c-19-3.19-79.45-1.32-79.45-1.32h-9s-31.82,0-46,9.33c-26.36,17.36-51.77,68.94-53,79.81s14.68,77,14.68,77l18.8-.06s1.92-67.8,3.14-69.64,37.52-26.14,37.52-26.14c10.72,24.08,22.05,54.62,21.66,75.42,0,0,1.76,81.52-8.09,121.19-6,24.16-6.2,29.86-9.3,99.15h13s31.65-93.16,55.07-163a558.32,558.32,0,0,1-3.74,67.68c-2.85,24.48,9.31,95.27,9.31,95.27h14c15.34-72.21,33-211.68,39.53-289.23,15.1,1.95,47.54,3.09,51-2.4,8.08-12.76-5-105.68-5-105.68Z"/><polygon class="cls-6" points="554.99 108.84 548.35 101.46 537.12 101.46 488.38 101.46 479.36 101.46 476.14 132.87 499.42 149.39 495.66 172.02 542.06 201.21 559.53 156.9 549.93 142.63 554.99 108.84"/><path class="cls-7" d="M541.17,23.43S510,17,500.32,29.39s-11.94,72.07-11.94,72.07l53.68,99.74-4.94-99.74,12.81-2.12Z"/><path class="cls-8" d="M500.32,29.39c-6,7.75-9.18,34-10.7,52.53L501,69.1s-9.7-4-5.74-8.72,7.57,0,7.57,0l8-24.1,31.18-5.17-.89-7.68S510,17,500.32,29.39Z"/><path class="cls-9" d="M505.83,74.61s-.08,33.16,32.51,44.3l-1.22-17.45S511.25,90.67,505.83,74.61Z"/><path class="cls-10" d="M614.19,42.83a19,19,0,0,0-2.46,10,12.22,12.22,0,0,0,.18,1.51l-.25,0,4,16,16.39-.12s11.12-16.13,4.21-22.3C634.55,46.37,616.94,38.4,614.19,42.83Z"/><path class="cls-11" d="M488.38,101.46l53.68,99.74-4.94-99.74C521.51,117,488.38,101.46,488.38,101.46Z"/><polygon class="cls-12" points="548.1 55.92 547.99 59.59 680.45 69.66 680.45 55.92 680.45 42.19 547.99 52.26 548.1 55.92"/><rect class="cls-13" x="679.81" y="37.84" width="10.73" height="36.18"/><rect class="cls-14" x="545.66" y="51.16" width="3.46" height="9.54"/><path class="cls-15" d="M690.55,69.79a25.55,25.55,0,0,0,0-27.73Z"/><path class="cls-16" d="M634.81,42.55a6.4,6.4,0,0,0-1.08-.64c-2.11-1-21.28-3.5-22.62,1.53a19,19,0,0,0,.53,10.24c1.54,3.26,14.22,3,21.9-.93C637.43,50.76,638.34,45.12,634.81,42.55Z"/><path class="cls-7" d="M618.29,57.52c6.14-.69,7.79-7,7.79-7s-16.71.94-17.77,4.46,7.38,15.36,7.38,15.36l16.39-.12C631.39,60,618.29,57.52,618.29,57.52Z"/><path class="cls-7" d="M413.87,267.56l-18.8.06c-2.15,38.87,18,44.3,18,44.3l4.49-28c5.62,12.89,12.49,12.08,12.49,12.08s-3.71-13.6-8.1-19.57A50.14,50.14,0,0,0,413.87,267.56Z"/></g></g></svg>