<svg xmlns="http://www.w3.org/2000/svg" xmlns:xlink="http://www.w3.org/1999/xlink" viewBox="0 0 1000 647.42"><defs><style>.cls-1{fill:url(#radial-gradient);}.cls-2{fill:url(#radial-gradient-2);}.cls-3{fill:url(#linear-gradient);}.cls-4{fill:url(#linear-gradient-2);}.cls-5{fill:url(#linear-gradient-3);}.cls-6{fill:url(#linear-gradient-4);}.cls-7{fill:url(#linear-gradient-5);}.cls-8{fill:url(#linear-gradient-6);}.cls-9{fill:url(#linear-gradient-7);}.cls-10{fill:url(#linear-gradient-8);}.cls-11{fill:url(#linear-gradient-9);}.cls-12{fill:url(#linear-gradient-10);}.cls-13{fill:url(#linear-gradient-11);}.cls-14{fill:url(#linear-gradient-12);}.cls-15{fill:#fefffe;}.cls-16{fill:#fff;}</style><radialGradient id="radial-gradient" cx="500" cy="323.71" r="624.57" gradientUnits="userSpaceOnUse"><stop offset="0" stop-color="#008acf"/><stop offset="1" stop-color="#2a3e8a"/></radialGradient><radialGradient id="radial-gradient-2" cx="499.95" cy="323.71" r="624.53" xlink:href="#radial-gradient"/><linearGradient id="linear-gradient" x1="777.12" y1="963.77" x2="777.12" y2="154.86" gradientUnits="userSpaceOnUse"><stop offset="0" stop-color="#009fe3"/><stop offset="0.42" stop-color="#68c6ee"/><stop offset="1" stop-color="#fff"/></linearGradient><linearGradient id="linear-gradient-2" x1="694.62" y1="648.21" x2="694.62" y2="-9.57" xlink:href="#linear-gradient"/><linearGradient id="linear-gradient-3" x1="1001.41" y1="1161.69" x2="983.32" y2="1181.22" gradientTransform="translate(822.89 -853.39) rotate(64.19)" gradientUnits="userSpaceOnUse"><stop offset="0" stop-color="#192a6b"/><stop offset="1" stop-color="#2d2e87"/></linearGradient><linearGradient id="linear-gradient-4" x1="227.6" y1="-574.21" x2="195.09" y2="-539.1" gradientTransform="translate(72.85 1060.5) rotate(13.83)" xlink:href="#linear-gradient-3"/><linearGradient id="linear-gradient-5" x1="436.24" y1="372.68" x2="295.57" y2="540.4" gradientTransform="matrix(1, 0, 0, 1, 0, 0)" xlink:href="#linear-gradient-3"/><linearGradient id="linear-gradient-6" x1="521.65" y1="373.89" x2="410.76" y2="509.22" gradientTransform="matrix(1, 0, 0, 1, 0, 0)" xlink:href="#linear-gradient-3"/><linearGradient id="linear-gradient-7" x1="519.82" y1="244.21" x2="380.04" y2="435.62" gradientTransform="matrix(1, 0, 0, 1, 0, 0)" xlink:href="#linear-gradient-3"/><linearGradient id="linear-gradient-8" x1="594.88" y1="161.8" x2="631.3" y2="278.9" gradientTransform="translate(119.38 -248.33) rotate(30)" gradientUnits="userSpaceOnUse"><stop offset="0" stop-color="#242e7c"/><stop offset="1" stop-color="#333b8f"/></linearGradient><linearGradient id="linear-gradient-9" x1="672.49" y1="238.72" x2="567.58" y2="225.93" gradientUnits="userSpaceOnUse"><stop offset="0" stop-color="#009fe3"/><stop offset="0.02" stop-color="#09a2e4"/><stop offset="0.18" stop-color="#49bbeb"/><stop offset="0.34" stop-color="#81cff1"/><stop offset="0.49" stop-color="#aee0f6"/><stop offset="0.64" stop-color="#d1eefa"/><stop offset="0.78" stop-color="#eaf7fd"/><stop offset="0.9" stop-color="#fafdfe"/><stop offset="1" stop-color="#fff"/></linearGradient><linearGradient id="linear-gradient-10" x1="575.21" y1="166.27" x2="575.21" y2="114.88" gradientTransform="matrix(0.97, 0.24, -0.24, 0.97, 40.55, -103.36)" xlink:href="#linear-gradient-3"/><linearGradient id="linear-gradient-11" x1="626.94" y1="165.63" x2="603.2" y2="182.26" gradientTransform="translate(119.38 -248.33) rotate(30)" gradientUnits="userSpaceOnUse"><stop offset="0" stop-color="#009fe3"/><stop offset="1" stop-color="#fff" stop-opacity="0"/></linearGradient><linearGradient id="linear-gradient-12" x1="606.86" y1="269.15" x2="606.86" y2="183.89" gradientTransform="translate(119.38 -248.33) rotate(30)" gradientUnits="userSpaceOnUse"><stop offset="0" stop-color="#f9b233"/><stop offset="1" stop-color="#ffde00"/></linearGradient></defs><title>Ресурс 1</title><g id="Слой_2" data-name="Слой 2"><g id="Слой_1-2" data-name="Слой 1"><polygon class="cls-1" points="999.91 23.71 999.91 623.71 0 623.71 0 623.71 1000 623.71 1000 23.71 999.91 23.71"/><rect class="cls-2" y="23.71" width="999.91" height="600"/><path class="cls-3" d="M953.77,176.66a176.66,176.66,0,1,0-276.17,146L600.46,647.42H953.77L876.63,322.61A176.43,176.43,0,0,0,953.77,176.66Z"/><path class="cls-4" d="M623.78,176.66C623.78,83,696.65,6.44,788.78.43,784.92.17,781,0,777.12,0A176.65,176.65,0,0,0,677.6,322.61L600.46,647.42h23.32l77.14-324.81A176.45,176.45,0,0,1,623.78,176.66Z"/><path class="cls-5" d="M231.22,537.24l-16-8.62-16.28,46.79s16.61-14.72,28.05-25.92Z"/><path class="cls-6" d="M439.85,530.06,423,536.91l8.93,45.65s9.53-27.34,14.76-41.42Z"/><path class="cls-7" d="M435.42,334.94l-89.65,122.6c-44.12-6.3-114.55,79.7-114.55,79.7L227,549.49l138-59.94L503,373Z"/><path class="cls-8" d="M502.86,373l81.57,84.8L446.67,541.14l-6.82-11.08s39.83-61.3,74.56-78.85l-73.75-50.08S401,377.8,426.26,329.77Z"/><path class="cls-9" d="M605.65,239.81,498.62,178s-54.06,3.06-103.27,16l-89.48,51,7.79,13.55L407.91,227l58.57,8.28-40.22,94.46L502.86,373l60.75-75.33h0c45.76,26,114.83,21.39,114.83,21.39C667.87,277.16,605.65,239.81,605.65,239.81Z"/><polygon class="cls-10" points="533.61 198.23 526.38 194.05 509.28 217.72 520.28 241.73 506.81 258.12 530.48 302.96 564.97 275.55 563.88 259.68 578.78 245.92 581.65 225.96 572.66 220.77 533.61 198.23"/><path class="cls-11" d="M556.48,147.93c-8.23,6.52-17.85,34.42-22.87,50.3L530.48,303l42.18-82.19,13.05.9,8.8-70.14S567.87,138.91,556.48,147.93Z"/><path class="cls-12" d="M594.51,151.53s-26.64-12.62-38-3.6c-7.11,5.64-15.7,28.5-21.14,44.85h0l13-9s-7.84-5.72-3.25-9.1,6.81,1.67,6.81,1.67l12.51-19.9,29.16,2.21Z"/><path class="cls-13" d="M572.66,220.77s-15.73-20.62-12.65-36c0,0-15.4,26.54,5.56,50.53Z"/><path class="cls-14" d="M533.61,198.23s19.36,27.76,39,22.54L530.48,303Z"/><path class="cls-15" d="M313.66,258.63s-1.12,7.11-4.86,8.8-10.63,9.45-10.63,9.45-5-4.15,5-12.85l-22.67,11s-2.14-9.92,4-17.53,21.31-12.39,21.31-12.39Z"/><path class="cls-16" d="M572.66,285.6l-33.07-18s-8.71,17.84-1.31,29.12c0,0,17.87,5.07,20.34-2l5,2.92Z"/></g></g></svg>