<svg xmlns="http://www.w3.org/2000/svg" xmlns:xlink="http://www.w3.org/1999/xlink" viewBox="0 0 999.56 820.67"><defs><style>.cls-1{fill:url(#radial-gradient);}.cls-2{fill:#213a8f;}.cls-3{fill:url(#linear-gradient);}.cls-4{fill:url(#linear-gradient-2);}.cls-5{fill:url(#linear-gradient-3);}.cls-6{fill:#fefffe;}.cls-7{fill:url(#linear-gradient-4);}.cls-8{fill:url(#linear-gradient-5);}.cls-9{fill:url(#linear-gradient-6);}.cls-10{fill:url(#linear-gradient-7);}.cls-11{fill:url(#linear-gradient-8);}.cls-12{fill:url(#linear-gradient-9);}.cls-13{fill:url(#linear-gradient-10);}.cls-14{fill:url(#linear-gradient-11);}.cls-15{fill:url(#linear-gradient-12);}.cls-16{fill:url(#linear-gradient-13);}.cls-17{fill:url(#linear-gradient-14);}.cls-18{fill:url(#linear-gradient-15);}.cls-19{fill:url(#linear-gradient-16);}.cls-20{fill:url(#linear-gradient-17);}.cls-21{fill:url(#linear-gradient-18);}.cls-22{fill:url(#linear-gradient-19);}.cls-23{fill:url(#radial-gradient-2);}.cls-24{fill:url(#radial-gradient-3);}.cls-25{fill:url(#linear-gradient-20);}.cls-26{fill:url(#linear-gradient-21);}.cls-27{fill:url(#linear-gradient-22);}.cls-28{fill:url(#radial-gradient-4);}.cls-29{fill:url(#linear-gradient-23);}.cls-30{fill:url(#linear-gradient-24);}.cls-31{fill:url(#linear-gradient-25);}</style><radialGradient id="radial-gradient" cx="499.78" cy="498.85" r="624.37" gradientUnits="userSpaceOnUse"><stop offset="0" stop-color="#008acf"/><stop offset="1" stop-color="#2a3e8a"/></radialGradient><linearGradient id="linear-gradient" x1="70.04" y1="797.36" x2="67.39" y2="808.77" gradientUnits="userSpaceOnUse"><stop offset="0" stop-color="#192a6b"/><stop offset="1" stop-color="#2d2e87"/></linearGradient><linearGradient id="linear-gradient-2" x1="68.32" y1="754.92" x2="58.38" y2="797.66" xlink:href="#linear-gradient"/><linearGradient id="linear-gradient-3" x1="172.28" y1="670.56" x2="165.92" y2="791.38" xlink:href="#linear-gradient"/><linearGradient id="linear-gradient-4" x1="406.03" y1="462.42" x2="381.32" y2="568.72" xlink:href="#linear-gradient"/><linearGradient id="linear-gradient-5" x1="288.27" y1="423.52" x2="242.9" y2="618.72" xlink:href="#linear-gradient"/><linearGradient id="linear-gradient-6" x1="354.43" y1="417.41" x2="305.15" y2="503.79" xlink:href="#linear-gradient"/><linearGradient id="linear-gradient-7" x1="333" y1="414.23" x2="333" y2="361.25" xlink:href="#linear-gradient"/><linearGradient id="linear-gradient-8" x1="351.07" y1="419.67" x2="326.6" y2="436.82" gradientUnits="userSpaceOnUse"><stop offset="0" stop-color="#009fe3"/><stop offset="1" stop-color="#fff" stop-opacity="0"/></linearGradient><linearGradient id="linear-gradient-9" x1="306.81" y1="481.49" x2="343.8" y2="481.49" gradientUnits="userSpaceOnUse"><stop offset="0" stop-color="#f9b233"/><stop offset="1" stop-color="#ffde00"/></linearGradient><linearGradient id="linear-gradient-10" x1="292.17" y1="392.45" x2="295.88" y2="494.19" xlink:href="#linear-gradient"/><linearGradient id="linear-gradient-11" x1="352.91" y1="468.43" x2="323.35" y2="595.65" xlink:href="#linear-gradient"/><linearGradient id="linear-gradient-12" x1="306.69" y1="613.45" x2="275.42" y2="748" xlink:href="#linear-gradient"/><linearGradient id="linear-gradient-13" x1="433.83" y1="793.71" x2="429.49" y2="812.35" xlink:href="#linear-gradient"/><linearGradient id="linear-gradient-14" x1="427.67" y1="781.15" x2="422.46" y2="803.58" xlink:href="#linear-gradient"/><linearGradient id="linear-gradient-15" x1="598.85" y1="577.28" x2="598.85" y2="566.85" gradientUnits="userSpaceOnUse"><stop offset="0" stop-color="#009fe3"/><stop offset="1" stop-color="#fff"/></linearGradient><linearGradient id="linear-gradient-16" x1="598.85" y1="507.13" x2="598.85" y2="496.69" xlink:href="#linear-gradient-15"/><linearGradient id="linear-gradient-17" x1="433.43" y1="532.14" x2="577.48" y2="532.14" gradientUnits="userSpaceOnUse"><stop offset="0" stop-color="#2d2e87"/><stop offset="1" stop-color="#192a6b"/></linearGradient><linearGradient id="linear-gradient-18" x1="498.56" y1="548.81" x2="498.56" y2="513.28" gradientUnits="userSpaceOnUse"><stop offset="0" stop-color="#192a6b"/><stop offset="1" stop-color="#2d2e87" stop-opacity="0"/></linearGradient><linearGradient id="linear-gradient-19" x1="797.5" y1="428.32" x2="797.5" y2="349.56" gradientUnits="userSpaceOnUse"><stop offset="0" stop-color="#fff"/><stop offset="1" stop-color="#009fe3"/></linearGradient><radialGradient id="radial-gradient-2" cx="797.5" cy="41.1" r="190.67" gradientUnits="userSpaceOnUse"><stop offset="0" stop-color="#fff"/><stop offset="0.25" stop-color="#fdfeff"/><stop offset="0.39" stop-color="#f5fbfe"/><stop offset="0.5" stop-color="#e7f6fc"/><stop offset="0.59" stop-color="#d4effa"/><stop offset="0.68" stop-color="#bae5f7"/><stop offset="0.76" stop-color="#9bd9f4"/><stop offset="0.83" stop-color="#76ccf0"/><stop offset="0.9" stop-color="#4cbbeb"/><stop offset="0.97" stop-color="#1caae6"/><stop offset="1" stop-color="#009fe3"/></radialGradient><radialGradient id="radial-gradient-3" cy="228.22" r="151.35" xlink:href="#radial-gradient-2"/><linearGradient id="linear-gradient-20" x1="799.16" y1="352.45" x2="788.78" y2="399.4" xlink:href="#linear-gradient"/><linearGradient id="linear-gradient-21" x1="797.5" y1="483.43" x2="797.5" y2="369.61" gradientUnits="userSpaceOnUse"><stop offset="0" stop-color="#009fe3"/><stop offset="0.34" stop-color="#60c3ed"/><stop offset="0.66" stop-color="#b5e3f7"/><stop offset="0.89" stop-color="#eaf7fd"/><stop offset="1" stop-color="#fff"/></linearGradient><linearGradient id="linear-gradient-22" x1="797.5" y1="669.61" x2="797.5" y2="396.27" gradientUnits="userSpaceOnUse"><stop offset="0" stop-color="#009fe3"/><stop offset="0.05" stop-color="#30b1e8"/><stop offset="0.1" stop-color="#5bc1ed"/><stop offset="0.15" stop-color="#82d0f1"/><stop offset="0.21" stop-color="#a4ddf5"/><stop offset="0.28" stop-color="#c1e8f8"/><stop offset="0.35" stop-color="#d8f0fb"/><stop offset="0.44" stop-color="#e9f7fd"/><stop offset="0.54" stop-color="#f6fcfe"/><stop offset="0.68" stop-color="#fdfeff"/><stop offset="1" stop-color="#fff"/></linearGradient><radialGradient id="radial-gradient-4" cx="797.5" cy="529.69" r="126.95" gradientUnits="userSpaceOnUse"><stop offset="0" stop-color="#fff"/><stop offset="0.32" stop-color="#fdfeff"/><stop offset="0.46" stop-color="#f6fcfe"/><stop offset="0.56" stop-color="#e9f7fd"/><stop offset="0.65" stop-color="#d8f0fb"/><stop offset="0.72" stop-color="#c1e8f8"/><stop offset="0.79" stop-color="#a4ddf5"/><stop offset="0.85" stop-color="#82d0f1"/><stop offset="0.9" stop-color="#5bc1ed"/><stop offset="0.95" stop-color="#30b1e8"/><stop offset="1" stop-color="#009fe3"/></radialGradient><linearGradient id="linear-gradient-23" x1="797.5" y1="428.85" x2="797.5" y2="542.29" xlink:href="#linear-gradient-8"/><linearGradient id="linear-gradient-24" x1="797.5" y1="476.4" x2="797.5" y2="504.7" xlink:href="#linear-gradient-17"/><linearGradient id="linear-gradient-25" x1="797.5" y1="546.09" x2="797.5" y2="574.39" xlink:href="#linear-gradient-17"/></defs><title>Ресурс 2</title><g id="Слой_2" data-name="Слой 2"><g id="Слой_1-2" data-name="Слой 1"><rect class="cls-1" y="198.85" width="999.56" height="600"/><path class="cls-2" d="M85.59,803.64c0,9.41,185.54,17,414.41,17s414.41-7.62,414.41-17c0-1.66-5.8-3.27-16.61-4.79H102.2C91.39,800.37,85.59,802,85.59,803.64Z"/><path class="cls-2" d="M102.2,798.85H897.8c-50.34-7.07-209.38-12.24-397.8-12.24S152.54,791.78,102.2,798.85Z"/><polygon class="cls-3" points="51.01 805.74 86.78 805.74 75.71 798.85 51.01 798.85 51.01 805.74"/><polygon class="cls-4" points="77.24 780.04 77.24 757.65 51.01 753.67 51.01 798.85 75.71 798.85 68.89 794.61 77.24 780.04"/><path class="cls-5" d="M204.55,750.36s-31.66-14.84-127.31,7.29V780l175,12.19L263.9,648.62l-79.49-6.36Z"/><path class="cls-6" d="M482.68,486.81,495.38,463s-18.39-7.5-39.16,23.28L468,498.85s6.94-1.8,13.72-3.81,17.43-10.2,17.43-10.2S494.38,480.26,482.68,486.81Z"/><path class="cls-7" d="M397.34,532.14l-50.53-81.85c-28.38,46-23.36,92.35-23.36,92.35l78.75,38.15L468,498.85l-11.76-12.6Z"/><path class="cls-8" d="M306.81,430.84s-52.45,0-75.77,34.43c-32,47.23-71.59,147.32-71.59,147.32h134.6s49.75-56.18,59.25-103.87c7.92-39.76-6.49-58.43-6.49-58.43Z"/><path class="cls-9" d="M346.81,450.29l-40-19.45V534.69l37-28.62-2-21.5,12.48-14.33C351.78,456.81,346.81,450.29,346.81,450.29Z"/><path class="cls-6" d="M318.2,368.26C309,380.08,306.81,437,306.81,437v95.14L353.3,437l12.22-2-8.35-72.41S327.39,356.44,318.2,368.26Z"/><path class="cls-10" d="M318.2,368.26c-5.75,7.39-8.76,32.39-10.21,50.1l10.86-12.23s-9.25-3.8-5.47-8.31,7.23,0,7.23,0l7.66-23L358,369.9l-.84-7.33S327.39,356.44,318.2,368.26Z"/><path class="cls-11" d="M323.45,411.39s-.05,26.18,23.36,38.9L353.3,437S328.63,426.7,323.45,411.39Z"/><path class="cls-12" d="M306.81,430.84v101.3l37-75.69C315.59,451.87,306.81,430.84,306.81,430.84Z"/><path class="cls-13" d="M281.28,457l15,15.36-10.14,23.1,20.66,36.66V430.84a111,111,0,0,0-15.45,1.43Z"/><path class="cls-14" d="M281.88,453.64c-46.76,24.38-47.69,70.83-47.69,70.83l73.65,58.44,124,5.3.93-17.09-106.42-25.3Z"/><path class="cls-15" d="M294.05,612.59H159.45s-5.77,36,28.14,54,161.09,9.53,161.09,9.53-1.21,59.09,46.91,108.9l20.14-6.35L389,638Z"/><polygon class="cls-16" points="395.59 805.74 468.07 805.74 454.73 798.85 395.59 798.85 395.59 805.74"/><polygon class="cls-17" points="395.59 785.08 395.59 798.85 454.73 798.85 415.73 778.72 395.59 785.08"/><path class="cls-6" d="M0,803.5H225.56a107.79,107.79,0,0,0,31.31-4.65H0Z"/><path class="cls-6" d="M327.72,729.23l39.63-122.18A97.15,97.15,0,0,1,460,539.69v-10A107.14,107.14,0,0,0,357.83,604L318.21,726.14a97.16,97.16,0,0,1-92.65,67.36H0v5.35H256.87A107.06,107.06,0,0,0,327.72,729.23Z"/><path class="cls-18" d="M633.07,558.87H556.51V575.1h76.56a8.12,8.12,0,1,0,0-16.23Z"/><path class="cls-19" d="M633.07,489.18H556.51v16.23h76.56a8.12,8.12,0,1,0,0-16.23Z"/><path class="cls-20" d="M433.43,532.14a63,63,0,0,0,63,63h81v-126h-81A63,63,0,0,0,433.43,532.14Z"/><path class="cls-21" d="M447.83,532.14a18,18,0,0,0,18,18h83.44v-36H465.85A18,18,0,0,0,447.83,532.14Z"/><path class="cls-6" d="M465.65,561.72s-13.43.57-19.92,3.39-13,6-13,6l-.93,17.13c35.69,10.23,45-7.37,45-7.37l-25.06-10.1C465,568.28,465.65,561.72,465.65,561.72Z"/><path class="cls-22" d="M797.5,331.6a39.9,39.9,0,1,0,39.9,39.89A39.88,39.88,0,0,0,797.5,331.6Z"/><path class="cls-23" d="M933.94,136.44a136.44,136.44,0,1,0-257.71,62.41H918.77A135.29,135.29,0,0,0,933.94,136.44Z"/><path class="cls-24" d="M703.51,235.17c11.36,14.52,25.6,37.68,25.6,63.27v10.91a33.78,33.78,0,0,0,21.76,31.57h93.26a33.78,33.78,0,0,0,21.76-31.57V298.44c0-25.59,14.24-48.75,25.6-63.27a137.46,137.46,0,0,0,27.28-36.32H676.23A137.46,137.46,0,0,0,703.51,235.17Z"/><path class="cls-25" d="M750.35,377.19a16.58,16.58,0,0,0,16.58,16.58h61.14a16.58,16.58,0,0,0,16.58-16.58V340.92h-94.3Z"/><rect class="cls-26" x="715.08" y="367.3" width="164.84" height="164.84" rx="21.31"/><rect class="cls-27" x="667.5" y="399.69" width="260" height="260" rx="33.61"/><rect class="cls-6" x="675" y="407.19" width="245" height="245" rx="31.67"/><circle class="cls-28" cx="797.5" cy="529.69" r="95.83"/><path class="cls-29" d="M797.5,433.85a95.82,95.82,0,0,0-93.36,117.44,95.83,95.83,0,0,1,186.72,0A95.82,95.82,0,0,0,797.5,433.85Z"/><path class="cls-30" d="M797.5,485.63a11.67,11.67,0,1,0,11.67,11.67A11.67,11.67,0,0,0,797.5,485.63Z"/><circle class="cls-31" cx="797.5" cy="566.98" r="11.67"/></g></g></svg>