<svg width="266.87" height="286.5" xmlns="http://www.w3.org/2000/svg">
 <defs>
  <style>.cls-1{fill:#e51b22;}.cls-2{fill:#fff;}</style>
 </defs>
 <title>Ресурс 3</title>
 <g>
  <title>background</title>
  <rect fill="none" id="canvas_background" height="402" width="582" y="-1" x="-1"/>
 </g>
 <g>
  <title>Layer 1</title>
  <g id="Слой_2">
   <g id="_1">
    <rect id="svg_1" height="141.48" width="30.99" class="cls-1"/>
    <rect id="svg_2" height="32.86" width="30.99" y="162.29" class="cls-1"/>
    <path id="svg_3" d="m107.65,141.48q6.57,0 15.88,-0.55a108.58,108.58 0 0 0 19.45,-3a100.48,100.48 0 0 0 20.26,-7.39a60.28,60.28 0 0 0 17.76,-13.15q4.4,-4.94 11.23,-18.07t6.88,-38.32q0,-27.93 -9,-44.08a98.66,98.66 0 0 0 -11.73,-16.92l-96.46,0l0,141.48l25.73,0z" class="cls-1"/>
    <rect id="svg_4" height="70.54" width="30.99" y="215.96" class="cls-1"/>
    <path id="svg_5" d="m243.11,0a87.81,87.81 0 0 1 6.89,17.17a107.55,107.55 0 0 1 3.84,30.12a116.31,116.31 0 0 1 -3.26,28.71a107,107 0 0 1 -20.53,41.35a90.28,90.28 0 0 1 -12.32,12.65a113.51,113.51 0 0 1 -26.84,17.53a146.51,146.51 0 0 1 -28.47,9.85a169.32,169.32 0 0 1 -27.66,4.11q-13.41,0.83 -24.37,0.82l-28.47,0l0,32.86l164.28,0l0,20.83l-164.28,0l0,70.5l185,0l0,-286.5l-23.81,0z" class="cls-1"/>
    <path id="svg_6" d="m246.2,216l0,-20.85l-164.28,0l0,-32.86l28.47,0q11,0 24.37,-0.82a169.32,169.32 0 0 0 27.66,-4.11a146.51,146.51 0 0 0 28.47,-9.85a113.51,113.51 0 0 0 26.84,-17.51a90.28,90.28 0 0 0 12.32,-12.59a107,107 0 0 0 20.53,-41.41a116.31,116.31 0 0 0 3.29,-28.75a107.55,107.55 0 0 0 -3.87,-30.08a87.81,87.81 0 0 0 -6.89,-17.17l-64.73,0a98.66,98.66 0 0 1 11.69,16.9q9,16.16 9,44.08q0,25.2 -6.85,38.34t-11.22,18.07a60.28,60.28 0 0 1 -17.79,13.14a100.48,100.48 0 0 1 -20.21,7.39a108.58,108.58 0 0 1 -19.45,3q-9.3,0.56 -15.88,0.55l-25.75,0l0,-141.47l-50.92,0l0,141.48l-31,0l0,20.81l31,0l0,32.86l-31,0l0,20.85l31,0l0,70.5l50.92,0l0,-70.5l164.28,0z" class="cls-2"/>
   </g>
  </g>
 </g>
</svg>