<svg xmlns="http://www.w3.org/2000/svg" width="202" height="297" style=""><rect id="backgroundrect" width="100%" height="100%" x="0" y="0" fill="none" stroke="none"/><defs><style>.cls-1{fill:#fff;}</style></defs><title>Ресурс 5</title><g class="currentLayer" style=""><title>Layer 1</title><g id="Слой_2" data-name="Слой 2" class=""><g id="_1" data-name="1"><path d="M164.93,297 H116.93 c-0.91,-1.37 -1.7200000000000002,-2.81 -2.74,-4.08 Q63.62,229.67 13.049999999999999,166.43 c-1.2,-1.51 -2.7,-3.35 -2.7600000000000002,-5.09 c-0.3000000000000001,-7.94 -0.14,-15.91 -0.14,-24.47 c6.75,0 13.05,0.3300000000000001 19.31,-0.08000000000000003 c11.43,-0.7300000000000002 23.07,-0.81 34.21,-3.13 c19.3,-4 35,-13.89 42.5,-33.29 C107.93,95.9 108.43,91 109.69,85.45 H0.14999999999999977 C5.81,76.9 11.04,69.26 15.93,61.42 c1.8900000000000001,-3 4,-4.17 7.6400000000000015,-4.15 c25.33,0.17 50.66,0.1 76,0.08000000000000003 c1.73,0 3.45,-0.17 5.65,-0.2900000000000001 c-0.6200000000000002,-1.4 -0.8900000000000002,-2.16 -1.28,-2.85 c-0.8300000000000002,-1.44 -1.6600000000000001,-2.9 -2.6100000000000003,-4.26 c-9,-12.9 -22.39,-18.51 -37.16,-19.74 C44.98,28.61 25.62,28.68 6.319999999999999,28 c-1.7400000000000002,-0.06000000000000002 -3.49,-0.15000000000000005 -6,-0.26 C2.82,24 4.93,20.83 6.93,17.64 C10.64,11.78 14.27,5.88 17.93,0 q90,0 180,0 a17.63,17.63 0 0 1 4,1 c-5.4,7.71 -10.91,15.33 -16.12,23.17 c-1.84,2.7600000000000002 -3.73,4 -7.21,4 c-13,-0.24000000000000005 -26,-0.11000000000000003 -39,-0.08000000000000003 c-1.3800000000000001,0 -2.77,0.19000000000000006 -3.08,0.21000000000000005 c3.71,8.4 7.69,16.57 10.870000000000001,25.05 c1.15,3.08 2.21,4.15 5.42,4.12 c14.33,-0.15000000000000005 28.66,-0.07 43,-0.07 h6 c-5,7.52 -9.71,13.620000000000001 -13.32,20.32 c-3.45,6.42 -8,8.65 -15.12,8.06 c-8.05,-0.6700000000000004 -16.2,-0.16000000000000006 -23.73,-0.16000000000000006 c-12.05,50.53 -48.95,67.46 -94.91,73.27 c1.47,1.86 2.68,3.41 3.91,5 q30.76,38.43 61.52,76.88 Q142.63,268.79 164.93,297 z" id="svg_1"/><path class="cls-1" d="M164.93,297 q-22.37,-28.17 -44.74,-56.32 Q89.47,202.19 58.67,163.8 c-1.23,-1.54 -2.44,-3.09 -3.91,-5 c46,-5.8100000000000005 82.86,-22.74 94.91,-73.27 c7.53,0 15.68,-0.51 23.73,0.16000000000000006 c7.17,0.5900000000000002 11.67,-1.6400000000000001 15.12,-8.06 c3.6100000000000003,-6.7 8.32,-12.8 13.32,-20.32 h-6 c-14.33,0 -28.66,-0.08000000000000003 -43,0.07 c-3.21,0 -4.27,-1 -5.42,-4.12 c-3.18,-8.48 -7.16,-16.65 -10.870000000000001,-25 c0.3100000000000001,0 1.7000000000000002,-0.21000000000000005 3.08,-0.21000000000000005 c13,0 26,-0.16000000000000006 39,0.08000000000000003 c3.48,0.06000000000000002 5.37,-1.2 7.21,-4 C191.02,16.33 196.53,8.71 201.93,1 V297 z" id="svg_2"/><path class="cls-1" d="M17.93,0 C14.27,5.88 10.64,11.78 6.93,17.64 C4.93,20.83 2.82,24 0.3299999999999997,27.77 c2.5,0.11000000000000003 4.25,0.2 6,0.26 c19.3,0.6500000000000002 38.66,0.5800000000000002 57.88,2.18 C78.93,31.439999999999998 92.34,37.05 101.36000000000001,50 c0.9500000000000002,1.36 1.78,2.8200000000000003 2.6100000000000003,4.26 c0.3900000000000001,0.6900000000000004 0.6600000000000003,1.45 1.28,2.85 c-2.2,0.12000000000000002 -3.92,0.2900000000000001 -5.65,0.2900000000000001 c-25.33,0 -50.66,0.09000000000000004 -76,-0.08000000000000003 c-3.63,0 -5.75,1.1400000000000001 -7.6400000000000015,4.15 c-4.93,7.84 -10.16,15.48 -15.82,24 H109.69 C108.43,91 107.93,95.9 106.16999999999999,100.37 c-7.54,19.4 -23.2,29.26 -42.5,33.29 C52.53,136 40.93,136.06 29.46,136.79 c-6.26,0.4100000000000001 -12.56,0.08000000000000003 -19.31,0.08000000000000003 c0,8.56 -0.16000000000000006,16.53 0.14,24.47 c0.06000000000000002,1.7400000000000002 1.56,3.58 2.7600000000000002,5.09 Q63.589999999999996,229.7 114.19,292.92 c1,1.27 1.83,2.71 2.74,4.08 H-2.220446049250313e-16 V0 z" id="svg_3"/></g></g></g></svg>