<svg xmlns="http://www.w3.org/2000/svg" viewBox="0 0 300.77 322.9"><defs><style>.cls-1{fill:#e51b22;}</style></defs><title>Ресурс 6</title><g id="Слой_2" data-name="Слой 2"><g id="_1" data-name="1"><rect class="cls-1" width="34.92" height="159.45"/><rect class="cls-1" y="182.91" width="34.92" height="37.03"/><path class="cls-1" d="M121.33,159.45q7.41,0,17.9-.61a123.56,123.56,0,0,0,21.91-3.4A113.56,113.56,0,0,0,184,147.11,67.61,67.61,0,0,0,204,132.3q4.93-5.55,12.65-20.37t7.72-43.2q0-31.48-10.18-49.69A111.61,111.61,0,0,0,201,0H92.32V159.45Z"/><rect class="cls-1" y="243.39" width="34.92" height="79.5"/><path class="cls-1" d="M274,0a99.72,99.72,0,0,1,7.81,19.35q4.32,14.82,4.32,33.95a131.5,131.5,0,0,1-3.7,32.4,120.75,120.75,0,0,1-23.15,46.6,101.12,101.12,0,0,1-13.89,14.19,127,127,0,0,1-30.24,19.75,164.41,164.41,0,0,1-32.09,11.11A189.53,189.53,0,0,1,151.88,182q-15.12.93-27.46.93H92.32v37H277.48v23.45H92.32V322.9H300.77V0Z"/></g></g></svg>