<?xml version="1.0" encoding="UTF-8"?>
<!DOCTYPE svg PUBLIC "-//W3C//DTD SVG 1.1//EN" "http://www.w3.org/Graphics/SVG/1.1/DTD/svg11.dtd">
<!-- Creator: CorelDRAW 2018 (64-Bit) -->
<svg xmlns="http://www.w3.org/2000/svg" xml:space="preserve" width="94.1458mm" height="101.071mm" version="1.1" style="shape-rendering:geometricPrecision; text-rendering:geometricPrecision; image-rendering:optimizeQuality; fill-rule:evenodd; clip-rule:evenodd"
viewBox="0 0 10518.57 11292.28"
 xmlns:xlink="http://www.w3.org/1999/xlink">
 <defs>
  <style type="text/css">
   <![CDATA[
    .fil0 {fill:#DC0000}
    .fil1 {fill:#FEFEFE;fill-rule:nonzero}
   ]]>
  </style>
 </defs>
 <g id="Слой_x0020_1">
  <metadata id="CorelCorpID_0Corel-Layer"/>
  <g id="_2438512458064">
   <polygon class="fil0" points="-0,0 10518.57,0 10518.57,11292.28 -0,11292.28 "/>
   <path class="fil1" d="M9582.59 0c109.34,203.39 200.16,429 272.42,676.82 100.74,345.36 151.12,741.09 151.12,1187.15 0,417.31 -43.17,795.01 -129.54,1133.2 -86.33,338.15 -201.45,643.92 -345.32,917.33 -143.9,273.39 -298.6,510.8 -464.06,712.26 -165.49,201.44 -327.36,366.93 -485.64,496.43 -330.98,287.81 -683.51,518.02 -1057.66,690.71 -374.1,172.65 -748.25,302.19 -1122.36,388.52 -374.15,86.33 -737.46,140.28 -1090.03,161.87 -352.53,21.59 -672.72,32.38 -960.49,32.38l-1122.37 0 0 1295.05 6475.26 0 0 820.21 -6475.26 0 0 2780.36 -2007.35 0 0 -2780.36 -1221.33 0 0 -820.21 1221.33 0 0 -1295.05 -1221.33 0 0 -820.22 1221.33 0 0 -5576.44 2007.35 0 0 5576.44 1014.45 0c172.66,0 381.31,-7.16 625.92,-21.57 244.66,-14.38 500.05,-53.96 766.25,-118.71 266.2,-64.75 532.43,-161.87 798.63,-291.39 266.19,-129.5 500.02,-302.16 701.46,-518.02 115.12,-129.5 262.61,-366.94 442.48,-712.26 179.87,-345.36 269.82,-849 269.82,-1510.92 0,-733.84 -118.71,-1313.02 -356.15,-1737.54 -144.22,-257.85 -297.73,-479.85 -460.55,-666.03l2551.59 0z"/>
  </g>
 </g>
</svg>
