<svg xmlns="http://www.w3.org/2000/svg" viewBox="0 0 257.55 377.73"><defs><style>.cls-1{fill:#fff;}</style></defs><title>Ресурс 1</title><g id="Слой_2" data-name="Слой 2"><g id="Слой_1-2" data-name="Слой 1"><path class="cls-1" d="M209.57,377.73h-61c-1.15-1.74-2.18-3.58-3.48-5.2Q80.74,292.1,16.41,211.66c-1.53-1.91-3.44-4.26-3.52-6.46-.37-10.11-.16-20.24-.16-31.13,8.58,0,16.59.42,24.55-.1,14.54-.93,29.34-1,43.51-4,24.54-5.11,44.46-17.66,54.05-42.33,2.21-5.69,2.87-12,4.48-19H0C7.2,97.8,13.86,88.08,20.12,78.12c2.4-3.83,5.1-5.31,9.72-5.28,32.21.21,64.43.12,96.65.1,2.19,0,4.39-.22,7.18-.37-.79-1.78-1.13-2.75-1.63-3.63-1.06-1.83-2.11-3.68-3.32-5.41C117.25,47.13,100.25,40,81.46,38.42,57,36.39,32.4,36.48,7.85,35.65c-2.22-.08-4.43-.19-7.62-.33C3.4,30.47,6.09,26.5,8.64,22.44,13.34,15,18,7.48,22.62,0Q137.07,0,251.54.05c1.7,0,3,0,6,0-6.86,9.8-14.8,20.77-21.43,30.73-2.34,3.52-4.74,5.12-9.16,5-16.53-.3-33.06-.13-49.6-.1a37.88,37.88,0,0,0-3.91.28c4.72,10.68,9.78,21.07,13.82,31.85,1.47,3.91,2.82,5.28,6.9,5.24,18.22-.2,36.45-.09,54.68-.09h7.67c-6.36,9.56-11.19,17.36-15.77,25.88-5.44,8.73-2.55,10.21-20.41,10.21-10.27,0-20.6-.19-30.18-.19C174.84,173.11,127.9,194.64,69.45,202c1.88,2.37,3.41,4.34,5,6.3q39.12,48.88,78.24,97.77Q181.2,341.85,209.57,377.73Z"/></g></g></svg>