<svg xmlns="http://www.w3.org/2000/svg" viewBox="0 0 266.87 286.5"><defs><style>.cls-1{fill:#020204;}.cls-2{fill:#fff;}</style></defs><title>Ресурс 4</title><g id="Слой_2" data-name="Слой 2"><g id="_1" data-name="1"><rect class="cls-1" width="30.99" height="141.48"/><rect class="cls-1" y="162.29" width="30.99" height="32.86"/><path class="cls-1" d="M107.65,141.48q6.57,0,15.88-.55a108.58,108.58,0,0,0,19.45-3,100.48,100.48,0,0,0,20.26-7.39A60.28,60.28,0,0,0,181,117.39q4.4-4.94,11.23-18.07T199.11,61q0-27.93-9-44.08A98.66,98.66,0,0,0,178.38,0H81.92V141.48Z"/><rect class="cls-1" y="215.96" width="30.99" height="70.54"/><path class="cls-1" d="M243.11,0A87.81,87.81,0,0,1,250,17.17a107.55,107.55,0,0,1,3.84,30.12A116.31,116.31,0,0,1,250.58,76a107,107,0,0,1-20.53,41.35A90.28,90.28,0,0,1,217.73,130a113.51,113.51,0,0,1-26.84,17.53,146.51,146.51,0,0,1-28.47,9.85,169.32,169.32,0,0,1-27.66,4.11q-13.41.83-24.37.82H81.92v32.86H246.2V216H81.92V286.5h185V0Z"/><path class="cls-2" d="M246.2,216V195.15H81.92V162.29h28.47q11,0,24.37-.82a169.32,169.32,0,0,0,27.66-4.11,146.51,146.51,0,0,0,28.47-9.85A113.51,113.51,0,0,0,217.73,130a90.28,90.28,0,0,0,12.32-12.59A107,107,0,0,0,250.58,76a116.31,116.31,0,0,0,3.29-28.75A107.55,107.55,0,0,0,250,17.17,87.81,87.81,0,0,0,243.11,0H178.38a98.66,98.66,0,0,1,11.69,16.9q9,16.16,9,44.08,0,25.2-6.85,38.34T181,117.39a60.28,60.28,0,0,1-17.79,13.14A100.48,100.48,0,0,1,143,137.92a108.58,108.58,0,0,1-19.45,3q-9.3.56-15.88.55H81.92V0H31V141.48H0v20.81H31v32.86H0V216H31V286.5H81.92V216Z"/></g></g></svg>