<svg xmlns="http://www.w3.org/2000/svg" viewBox="0 0 201.93 297"><defs><style>.cls-1{fill:#fff;}</style></defs><title>Ресурс 5</title><g id="Слой_2" data-name="Слой 2"><g id="_1" data-name="1"><path d="M166,298H118c-.91-1.37-1.72-2.81-2.74-4.08Q64.69,230.67,14.12,167.43c-1.2-1.51-2.7-3.35-2.76-5.09-.3-7.94-.14-15.91-.14-24.47,6.75,0,13.05.33,19.31-.08,11.43-.73,23.07-.81,34.21-3.13,19.3-4,35-13.89,42.5-33.29C109,96.9,109.5,92,110.76,86.45H1.22C6.88,77.9,12.11,70.26,17,62.42c1.89-3,4-4.17,7.64-4.15,25.33.17,50.66.1,76,.08,1.73,0,3.45-.17,5.65-.29-.62-1.4-.89-2.16-1.28-2.85-.83-1.44-1.66-2.9-2.61-4.26-9-12.9-22.39-18.51-37.16-19.74C46.05,29.61,26.69,29.68,7.39,29c-1.74-.06-3.49-.15-6-.26C3.89,25,6,21.83,8,18.64,11.71,12.78,15.34,6.88,19,1q90,0,180,0a17.63,17.63,0,0,1,4,1c-5.4,7.71-10.91,15.33-16.12,23.17-1.84,2.76-3.73,4-7.21,4-13-.24-26-.11-39-.08-1.38,0-2.77.19-3.08.21,3.71,8.4,7.69,16.57,10.87,25.05,1.15,3.08,2.21,4.15,5.42,4.12,14.33-.15,28.66-.07,43-.07h6c-5,7.52-9.71,13.62-13.32,20.32-3.45,6.42-8,8.65-15.12,8.06-8.05-.67-16.2-.16-23.73-.16-12.05,50.53-48.95,67.46-94.91,73.27,1.47,1.86,2.68,3.41,3.91,5q30.76,38.43,61.52,76.88Q143.7,269.79,166,298Z" transform="translate(-1.07 -1)"/><path class="cls-1" d="M166,298q-22.37-28.17-44.74-56.32Q90.54,203.19,59.74,164.8c-1.23-1.54-2.44-3.09-3.91-5,46-5.81,82.86-22.74,94.91-73.27,7.53,0,15.68-.51,23.73.16,7.17.59,11.67-1.64,15.12-8.06,3.61-6.7,8.32-12.8,13.32-20.32h-6c-14.33,0-28.66-.08-43,.07-3.21,0-4.27-1-5.42-4.12-3.18-8.48-7.16-16.65-10.87-25,.31,0,1.7-.21,3.08-.21,13,0,26-.16,39,.08,3.48.06,5.37-1.2,7.21-4C192.09,17.33,197.6,9.71,203,2V298Z" transform="translate(-1.07 -1)"/><path class="cls-1" d="M19,1C15.34,6.88,11.71,12.78,8,18.64,6,21.83,3.89,25,1.4,28.77c2.5.11,4.25.2,6,.26,19.3.65,38.66.58,57.88,2.18C80,32.44,93.41,38.05,102.43,51c.95,1.36,1.78,2.82,2.61,4.26.39.69.66,1.45,1.28,2.85-2.2.12-3.92.29-5.65.29-25.33,0-50.66.09-76-.08-3.63,0-5.75,1.14-7.64,4.15-4.93,7.84-10.16,15.48-15.82,24H110.76C109.5,92,109,96.9,107.24,101.37c-7.54,19.4-23.2,29.26-42.5,33.29C53.6,137,42,137.06,30.53,137.79c-6.26.41-12.56.08-19.31.08,0,8.56-.16,16.53.14,24.47.06,1.74,1.56,3.58,2.76,5.09Q64.66,230.7,115.26,293.92c1,1.27,1.83,2.71,2.74,4.08H1.07V1Z" transform="translate(-1.07 -1)"/></g></g></svg>