<?xml version="1.0" encoding="UTF-8"?>
<!DOCTYPE svg PUBLIC "-//W3C//DTD SVG 1.1//EN" "http://www.w3.org/Graphics/SVG/1.1/DTD/svg11.dtd">
<!-- Creator: CorelDRAW 2018 (64-Bit) -->
<svg xmlns="http://www.w3.org/2000/svg" xml:space="preserve" width="296.686mm" height="419.806mm" version="1.1" style="shape-rendering:geometricPrecision; text-rendering:geometricPrecision; image-rendering:optimizeQuality; fill-rule:evenodd; clip-rule:evenodd"
viewBox="0 0 29668.6 41980.56"
 xmlns:xlink="http://www.w3.org/1999/xlink">
 <defs>
  <style type="text/css">
   <![CDATA[
    .fil0 {fill:#E51C23}
   ]]>
  </style>
 </defs>
 <g id="Слой_x0020_1">
  <metadata id="CorelCorpID_0Corel-Layer"/>
  <path class="fil0" d="M3362.47 2978.99l9414.58 0 0 10107.08 -9414.58 0 0 -10107.08zm8534.37 0c97.86,182.04 179.15,383.97 243.83,605.78 90.17,309.11 135.26,663.31 135.26,1062.55 0,373.51 -38.64,711.57 -115.94,1014.26 -77.27,302.66 -180.31,576.34 -309.08,821.05 -128.8,244.7 -267.26,457.19 -415.35,637.5 -148.12,180.3 -293,328.42 -434.67,444.33 -296.24,257.6 -611.77,463.65 -946.65,618.22 -334.84,154.53 -669.72,270.47 -1004.56,347.74 -334.88,77.27 -660.06,125.56 -975.62,144.88 -315.53,19.32 -602.11,28.98 -859.68,28.98l-1004.57 0 0 1159.13 5795.64 0 0 734.12 -5795.64 0 -2.65 2488.54 -1796.67 0 2.65 -2488.54 -1050.67 0 0 -734.12 1050.67 0 0 -1159.13 -1050.67 0 0 -734.13 1050.67 0 1.33 -4991.16 1794.03 0 1.31 4991.16 907.98 0c154.54,0 341.29,-6.41 560.23,-19.31 218.98,-12.87 447.57,-48.3 685.83,-106.25 238.26,-57.95 476.55,-144.88 714.81,-260.81 238.25,-115.91 447.54,-270.45 627.84,-463.65 103.04,-115.91 235.05,-328.43 396.04,-637.5 160.99,-309.11 241.5,-759.89 241.5,-1352.34 0,-656.82 -106.25,-1175.21 -318.77,-1555.17 -129.08,-230.79 -266.48,-429.49 -412.21,-596.13l2283.78 0z"/>
 </g>
</svg>
