<svg xmlns="http://www.w3.org/2000/svg" viewBox="0 0 329.17 429.23"><defs><style>.cls-1{fill:#fff;}.cls-2{fill:#e51b22;}</style></defs><title>Ресурс 7</title><g id="Слой_2" data-name="Слой 2"><g id="_1" data-name="1"><text/><path d="M241.49,392.65H184.7c-1.07-1.62-2-3.33-3.24-4.84Q121.62,313,61.8,238.16c-1.43-1.78-3.2-4-3.28-6-.35-9.4-.15-18.82-.15-29,8,0,15.44.39,22.84-.08,13.53-.87,27.3-1,40.48-3.72C144.52,194.62,163.05,183,172,160c2.06-5.29,2.68-11.14,4.17-17.65H46.53c6.7-10.12,12.89-19.16,18.72-28.43,2.23-3.56,4.74-4.94,9-4.91,30,.2,59.94.11,89.91.09,2,0,4.08-.2,6.68-.34-.73-1.66-1-2.56-1.51-3.37-1-1.71-2-3.43-3.09-5-10.67-15.26-26.49-21.91-44-23.36-22.74-1.89-45.64-1.81-68.47-2.58-2.07-.07-4.13-.18-7.09-.31,3-4.5,5.44-8.2,7.82-12,4.37-6.93,8.67-13.91,13-20.87q106.49,0,213,0c1.57,0,3.15.74,4.73,1.13-6.39,9.12-12.91,18.14-19.08,27.41-2.17,3.27-4.41,4.76-8.52,4.69-15.38-.28-30.76-.12-46.14-.1-1.63,0-3.27.23-3.64.26,4.39,9.93,9.1,19.61,12.86,29.63,1.37,3.64,2.62,4.91,6.41,4.87,17-.18,33.92-.08,50.87-.08h7.14c-5.92,8.9-11.5,16.12-15.76,24-4.08,7.6-9.41,10.23-17.9,9.53-9.52-.79-19.16-.18-28.07-.18-14.26,59.78-57.92,79.81-112.3,86.68,1.74,2.2,3.17,4,4.63,5.85q36.39,45.48,72.79,91Q215.1,359.27,241.49,392.65Z"/><path class="cls-1" d="M241.49,392.65Q215,359.32,188.56,326q-36.34-45.53-72.79-91c-1.46-1.81-2.89-3.65-4.63-5.85,54.38-6.87,98-26.9,112.3-86.68,8.91,0,18.55-.61,28.07.18,8.49.7,13.82-1.93,17.9-9.53,4.26-7.93,9.84-15.15,15.76-24H278c-16.95,0-33.91-.1-50.87.08-3.79,0-5-1.23-6.41-4.87-3.76-10-8.47-19.7-12.86-29.63.37,0,2-.25,3.64-.26,15.38,0,30.76-.18,46.14.1,4.11.07,6.35-1.42,8.52-4.69,6.17-9.27,12.69-18.29,19.08-27.41V392.65Z"/><path class="cls-1" d="M67.57,41.25c-4.33,7-8.63,13.94-13,20.87-2.38,3.78-4.87,7.48-7.82,12,3,.13,5,.24,7.09.31,22.83.77,45.73.69,68.47,2.58,17.48,1.45,33.3,8.1,44,23.36,1.13,1.61,2.1,3.33,3.09,5,.46.81.78,1.71,1.51,3.37-2.6.14-4.64.34-6.68.34-30,0-59.94.11-89.91-.09-4.3,0-6.81,1.35-9,4.91-5.83,9.27-12,18.31-18.72,28.43H176.14C174.65,148.86,174,154.71,172,160c-8.92,23-27.45,34.62-50.28,39.38-13.18,2.75-26.95,2.85-40.48,3.72-7.4.47-14.86.08-22.84.08,0,10.14-.2,19.56.15,29,.08,2.05,1.85,4.24,3.28,6Q121.59,313,181.46,387.81c1.21,1.51,2.17,3.22,3.24,4.84H46.35V41.25Z"/><rect class="cls-2" width="329.17" height="429.23"/><path class="cls-1" d="M250.71,403.48H189.66c-1.16-1.74-2.19-3.57-3.48-5.2Q121.86,317.85,57.55,237.42C56,235.5,54.11,233.16,54,231c-.38-10.11-.17-20.24-.17-31.13,8.58,0,16.6.42,24.55-.09,14.55-.94,29.35-1,43.52-4,24.54-5.12,44.46-17.66,54-42.34,2.2-5.69,2.87-12,4.48-19H41.14c7.2-10.88,13.85-20.59,20.12-30.56,2.4-3.83,5.1-5.31,9.71-5.28,32.22.21,64.44.12,96.65.1,2.2,0,4.39-.22,7.19-.36-.8-1.79-1.13-2.76-1.63-3.63-1.06-1.84-2.11-3.69-3.32-5.42-11.47-16.4-28.47-23.55-47.27-25.11-24.44-2-49.06-1.94-73.6-2.77-2.22-.07-4.44-.19-7.62-.33,3.17-4.85,5.85-8.82,8.41-12.88,4.7-7.45,9.32-14.95,14-22.44q114.47,0,228.93.06c1.69,0,3-.06,6-.06-6.87,9.81-14.81,20.78-21.43,30.74-2.34,3.51-4.74,5.12-9.17,5-16.52-.3-33.06-.14-49.59-.11-1.76,0-3.51.25-3.91.28,4.72,10.68,9.78,21.07,13.82,31.85,1.47,3.91,2.82,5.28,6.9,5.24,18.22-.19,36.45-.09,54.68-.09h7.66c-6.36,9.57-11.18,17.36-15.76,25.89-5.44,8.73-2.55,10.2-20.41,10.2-10.28,0-20.6-.19-30.18-.19C216,198.86,169,220.39,110.59,227.78c1.87,2.37,3.41,4.34,5,6.29Q154.7,283,193.8,331.84,222.35,367.6,250.71,403.48Z"/></g></g></svg>