<svg xmlns="http://www.w3.org/2000/svg" xmlns:xlink="http://www.w3.org/1999/xlink" viewBox="0 0 1000 692.42"><defs><style>.cls-1{fill:#ec654d;}.cls-2{fill:url(#linear-gradient);}.cls-3{fill:url(#linear-gradient-2);}.cls-4{fill:url(#linear-gradient-3);}.cls-5{fill:url(#linear-gradient-4);}.cls-6{fill:url(#linear-gradient-5);}.cls-7{fill:url(#linear-gradient-6);}.cls-8{fill:#b2b2b2;}.cls-9{fill:#878787;}.cls-10{fill:url(#linear-gradient-7);}.cls-11{fill:#fff;}.cls-12{fill:url(#linear-gradient-8);}.cls-13{fill:url(#linear-gradient-9);}.cls-14{fill:#f5fbff;}.cls-15{fill:url(#linear-gradient-10);}.cls-16{fill:url(#linear-gradient-11);}.cls-17{fill:url(#linear-gradient-12);}.cls-18{fill:url(#linear-gradient-13);}.cls-19{fill:url(#linear-gradient-14);}.cls-20{fill:url(#linear-gradient-15);}</style><linearGradient id="linear-gradient" x1="735.07" y1="102.45" x2="735.07" y2="272.75" gradientUnits="userSpaceOnUse"><stop offset="0" stop-color="#c32e22"/><stop offset="1" stop-color="#ec654d"/></linearGradient><linearGradient id="linear-gradient-2" x1="202.93" y1="78.99" x2="202.93" y2="202.93" xlink:href="#linear-gradient"/><linearGradient id="linear-gradient-3" x1="999.89" y1="451.23" x2="999.89" y2="608.93" xlink:href="#linear-gradient"/><linearGradient id="linear-gradient-4" x1="499.89" y1="321.41" x2="499.89" y2="610.86" xlink:href="#linear-gradient"/><linearGradient id="linear-gradient-5" x1="500" y1="498" x2="500" y2="667.15" xlink:href="#linear-gradient"/><linearGradient id="linear-gradient-6" x1="499.89" y1="448.49" x2="499.89" y2="651.84" xlink:href="#linear-gradient"/><linearGradient id="linear-gradient-7" x1="503.9" y1="209.45" x2="503.9" y2="108.66" gradientUnits="userSpaceOnUse"><stop offset="0" stop-color="#ffde00"/><stop offset="1" stop-color="#fff"/></linearGradient><linearGradient id="linear-gradient-8" x1="217.98" y1="228.25" x2="217.98" y2="632.58" gradientUnits="userSpaceOnUse"><stop offset="0" stop-color="#1b1f47"/><stop offset="1" stop-color="#252f65"/></linearGradient><linearGradient id="linear-gradient-9" x1="240.9" y1="589.59" x2="240.9" y2="340.51" gradientUnits="userSpaceOnUse"><stop offset="0" stop-color="#afbbb8"/><stop offset="1" stop-color="#fff"/></linearGradient><linearGradient id="linear-gradient-10" x1="260.54" y1="152.83" x2="260.54" y2="-0.36" xlink:href="#linear-gradient-8"/><linearGradient id="linear-gradient-11" x1="319.19" y1="141.95" x2="239.79" y2="214.48" gradientUnits="userSpaceOnUse"><stop offset="0" stop-color="#afbbb8"/><stop offset="1" stop-color="#fff" stop-opacity="0"/></linearGradient><linearGradient id="linear-gradient-12" x1="278.44" y1="587.61" x2="278.44" y2="329.37" xlink:href="#linear-gradient"/><linearGradient id="linear-gradient-13" x1="372.38" y1="315.76" x2="418.07" y2="601.33" xlink:href="#linear-gradient-8"/><linearGradient id="linear-gradient-14" x1="402.53" y1="584.36" x2="462.8" y2="632.78" xlink:href="#linear-gradient-9"/><linearGradient id="linear-gradient-15" x1="153" y1="292.4" x2="210.2" y2="649.86" xlink:href="#linear-gradient-8"/></defs><title>Ресурс 1</title><g id="Слой_2" data-name="Слой 2"><g id="Слой_1-2" data-name="Слой 1"><rect class="cls-1" y="82.22" width="999.77" height="600"/><path class="cls-2" d="M892.62,246.48s7.47-41.81-23.89-28.37c0,0,6.14-83.63-73.84-53.77,0,0-29.2-52.26-83-29.86S673.1,207.1,673.1,207.1s-16.43-11-38.83,0S620.83,248,620.83,248s-49.28,10.46-113.5,37.34H962.81S955.16,221.09,892.62,246.48Z"/><path class="cls-3" d="M276.28,155.15c-16.3-8-28.25,0-28.25,0s10.86-36.55-28.26-52.85S159.39,124,159.39,124c-58.2-21.74-53.73,39.12-53.73,39.12-22.83-9.78-17.39,20.65-17.39,20.65-45.51-18.48-51.08,28.26-51.08,28.26H368.66c-46.73-19.57-82.59-27.17-82.59-27.17S292.59,163.16,276.28,155.15Z"/><rect class="cls-4" x="999.77" y="441.24" width="0.23" height="165.37"/><polygon class="cls-5" points="999.77 441.24 958.33 441.24 958.33 381.41 843.17 381.41 843.17 358.08 775 358.08 775 434.59 710 434.59 710 365.96 629.65 319.74 629.65 381.41 473.34 381.41 473.34 439.49 318.33 439.49 318.33 381.41 281.67 381.41 281.67 321.41 203.33 321.41 203.33 303.08 173.33 303.08 173.33 321.41 148.33 321.41 148.33 420.9 65 420.9 65 402.63 0 362.62 0 606.61 999.77 606.61 999.77 441.24"/><polygon class="cls-6" points="999.77 682.23 0 682.23 0 692.42 1000 692.42 1000 448.44 999.77 448.57 999.77 682.23"/><polygon class="cls-7" points="999.77 448.57 935 488.45 935 506.72 851.67 506.72 851.67 407.22 826.67 407.22 826.67 388.89 796.67 388.89 796.67 407.22 718.33 407.22 718.33 467.22 681.67 467.22 681.67 525.31 526.66 525.31 526.66 467.22 370.35 467.22 370.35 405.56 290 451.77 290 520.41 225 520.41 225 443.89 156.83 443.89 156.83 467.22 41.67 467.22 41.67 527.05 0 527.05 0 682.23 999.77 682.23 999.77 448.57"/><path class="cls-8" d="M526.13,212.73c-7.43,2.71-12.42,7.76-11.14,11.28s8.35,4.18,15.79,1.48,12.42-7.76,11.13-11.28S533.57,210,526.13,212.73Z"/><path class="cls-9" d="M538.36,198.36l-30.83,11.23,5.28,14.51A3.2,3.2,0,0,0,516.9,226l24.83-9a3.19,3.19,0,0,0,1.91-4.1Z"/><path class="cls-10" d="M485,113.83a42.3,42.3,0,0,0-4,73.4,48.79,48.79,0,0,1,16.39,17l1.28,2.29a9.59,9.59,0,0,0,11.65,4.32l26.79-9.75a9.58,9.58,0,0,0,6.14-10.8l-.49-2.57A49.33,49.33,0,0,1,544.39,164,42.31,42.31,0,0,0,485,113.83Z"/><path class="cls-8" d="M538.55,201l-29.23,14.9a1.6,1.6,0,0,0,1.45,2.85L540,203.87a1.6,1.6,0,1,0-1.45-2.85Z"/><path class="cls-8" d="M541.63,207.07,512.4,222a1.6,1.6,0,1,0,1.45,2.85l29.24-14.9a1.6,1.6,0,0,0-1.46-2.85Z"/><path class="cls-11" d="M478.75,127.9c-2.41-1.12-6.4,2.34-8.92,7.75s-2.61,10.69-.2,11.81,6.4-2.35,8.92-7.75S481.16,129,478.75,127.9Z"/><path class="cls-11" d="M762.76,214.26a6.76,6.76,0,1,0,4.72,2A6.48,6.48,0,0,0,762.76,214.26Z"/><path class="cls-11" d="M787,128.73a22.58,22.58,0,0,0-10.2-2.35,29.38,29.38,0,0,0-6.17.69,32.49,32.49,0,0,0-15.35,8.43,29,29,0,0,0-8.65,15.94,5.86,5.86,0,0,0,4.65,6.76,6.56,6.56,0,0,0,1.07.1,5.64,5.64,0,0,0,3.26-1.05,5.56,5.56,0,0,0,2.43-3.73,17.08,17.08,0,0,1,5.26-9.81,21.06,21.06,0,0,1,9.86-5.4,17.44,17.44,0,0,1,3.73-.43,10.73,10.73,0,0,1,4.8,1c2.21,1.19,3.55,3.31,4.08,6.54.22,1.1-.06,3.25-2.67,7.23-1.1,1.68-4.46,5.95-10,12.69-3.27,4-6,7.53-8,10.51A62.69,62.69,0,0,0,759,187.82a39.06,39.06,0,0,0-3,14.67,5.73,5.73,0,0,0,11.46,0,29.56,29.56,0,0,1,3.71-14.22,100.58,100.58,0,0,1,10.92-15.65c5.9-7.25,9.38-11.69,10.64-13.59,3.78-5.72,5.31-11,4.53-15.7C796,136.64,792.59,131.73,787,128.73Z"/><path class="cls-12" d="M394.45,439.13l-3.91-176.95L282.89,253.8l-102.72-3.47s-114,39.52-143,60.6L80.67,463.76s19.7,92.56,27.19,228.66H397.79C399.35,614.35,399.55,518.25,394.45,439.13Z"/><path class="cls-13" d="M282.89,253.8l-102.72-3.47s-17.07,5.92-39.66,14.39c41.35,68.77,126,217.49,156.89,330.69,0,0,49.69-171.6,43.31-337.1C321.31,255.13,298,256.54,282.89,253.8Z"/><polygon class="cls-14" points="319.25 33.99 191.5 33.99 180.17 250.33 264.13 303.03 284.22 250.33 284.22 218.39 336.76 197.79 331.61 143.19 348.09 139.07 319.25 33.99"/><path class="cls-15" d="M191.51,34l-7.19,114.35L214.17,137s-21.63-16.48-4.12-27.81,26.78,7.21,26.78,7.21L264.13,34h55.12L336.76,20.6S308.94,0,254.35,0,191.51,34,191.51,34Z"/><path class="cls-16" d="M224.47,156.58s-8.24,52.54,34,93.75L284.22,239v-20.6l52.54-20.6-76.22-15.45Z"/><path class="cls-17" d="M275.12,282.85,235.39,285,249,293.55c3.64,25.18,15.65,115,16.35,211.43,13,31.17,24.23,61.93,32,90.43,0,0,12.52-39.35,24.09-99.58-6.69-57-21-141-50.86-204.73Z"/><path class="cls-14" d="M380,229.7c-4.85-6.6-38-34.08-38-34.08s-3.43,18.31,5.49,34c-20.32-12.07-50.92-28.11-69-27.46,0,0,5.53,37.14,28,72.31,12.15,19,32.86,22.35,51.71,27.25l2.8,41.35L403,337.23s-3.13-29.5-7.26-51.87S388.56,241.36,380,229.7Z"/><path class="cls-18" d="M349,319.5S335.71,602,411.73,602s-.48-291.06-.48-291.06Z"/><path class="cls-19" d="M446.82,593.21c-20.75,0-77.07-11.86-77.07-11.86l-37.55-4.94V614s99.8,5.93,109.9,3.95,68-33.1,68-33.1C496.23,570.48,467.57,593.21,446.82,593.21Z"/><path class="cls-14" d="M398.68,573c-13.57-3-28.93,8.4-28.93,8.4l-37.55-4.94V614l52.86-10.38c63.74-10.37,56.82-31.12,56.82-31.12C421.13,575.43,412.24,575.92,398.68,573Z"/><path class="cls-20" d="M152.36,422.87,37.19,310.93s.54,309,14.38,324.77,296.52-7.91,296.52-7.91l6.84-61.26L140.51,531Z"/></g></g></svg>