<svg xmlns="http://www.w3.org/2000/svg" xmlns:xlink="http://www.w3.org/1999/xlink" viewBox="0 0 1000 600.24"><defs><style>.cls-1{fill:none;}.cls-2{fill:url(#radial-gradient);}.cls-3{fill:url(#radial-gradient-2);}.cls-4{fill:url(#linear-gradient);}.cls-5{fill:#fefffe;}.cls-6{clip-path:url(#clip-path);}.cls-7{fill:#192a6b;}.cls-8{fill:#1a2a6b;}.cls-9{fill:#1a2b6c;}.cls-10{fill:#1b2b6c;}.cls-11{fill:#1b2b6d;}.cls-12{fill:#1b2b6e;}.cls-13{fill:#1c2b6e;}.cls-14{fill:#1c2b6f;}.cls-15{fill:#1d2b70;}.cls-16{fill:#1d2c71;}.cls-17{fill:#1e2c71;}.cls-18{fill:#1e2c72;}.cls-19{fill:#1f2c73;}.cls-20{fill:#1f2c74;}.cls-21{fill:#202c75;}.cls-22{fill:#202d75;}.cls-23{fill:#202d76;}.cls-24{fill:#212d76;}.cls-25{fill:#212d77;}.cls-26{fill:#222d77;}.cls-27{fill:#222d78;}.cls-28{fill:#222d79;}.cls-29{fill:#232d79;}.cls-30{fill:#232d7a;}.cls-31{fill:#242d7b;}.cls-32{fill:#252d7c;}.cls-33{fill:#252e7d;}.cls-34{fill:#262e7d;}.cls-35{fill:#262e7e;}.cls-36{fill:#262e7f;}.cls-37{fill:#272e7f;}.cls-38{fill:#272e80;}.cls-39{fill:#282e80;}.cls-40{fill:#282e81;}.cls-41{fill:#292e82;}.cls-42{fill:#292e83;}.cls-43{fill:#2a2e83;}.cls-44{fill:#2a2e84;}.cls-45{fill:#2b2e85;}.cls-46{fill:#2c2e86;}.cls-47{fill:#2c2e87;}.cls-48{fill:#2d2e87;}.cls-49{clip-path:url(#clip-path-2);}.cls-50{clip-path:url(#clip-path-3);}.cls-51{fill:url(#linear-gradient-2);}.cls-52{fill:url(#linear-gradient-3);}.cls-53{fill:url(#linear-gradient-4);}.cls-54{fill:url(#linear-gradient-5);}.cls-55{fill:url(#linear-gradient-6);}.cls-56{fill:url(#linear-gradient-7);}.cls-57{fill:url(#linear-gradient-8);}.cls-58{fill:url(#linear-gradient-9);}.cls-59{fill:url(#linear-gradient-10);}.cls-60{fill:url(#linear-gradient-11);}.cls-61{fill:url(#linear-gradient-12);}.cls-62{fill:url(#linear-gradient-13);}.cls-63{fill:url(#linear-gradient-14);}.cls-64{fill:url(#linear-gradient-15);}</style><radialGradient id="radial-gradient" cx="500" cy="300" r="624.57" gradientUnits="userSpaceOnUse"><stop offset="0" stop-color="#008acf"/><stop offset="1" stop-color="#2a3e8a"/></radialGradient><radialGradient id="radial-gradient-2" cx="499.79" cy="300.12" r="624.31" xlink:href="#radial-gradient"/><linearGradient id="linear-gradient" x1="633.28" y1="-36.68" x2="633.28" y2="385.47" gradientUnits="userSpaceOnUse"><stop offset="0" stop-color="#242e7c"/><stop offset="1" stop-color="#333b8f"/></linearGradient><clipPath id="clip-path"><path class="cls-1" d="M689.55,287.51a4.63,4.63,0,1,0,4.63,4.63A4.63,4.63,0,0,0,689.55,287.51Z"/></clipPath><clipPath id="clip-path-2"><circle class="cls-1" cx="844.18" cy="150.54" r="4.63"/></clipPath><clipPath id="clip-path-3"><path class="cls-1" d="M445.32,254.24a4.64,4.64,0,1,0,4.63,4.63A4.63,4.63,0,0,0,445.32,254.24Z"/></clipPath><linearGradient id="linear-gradient-2" x1="662.9" y1="164.46" x2="662.9" y2="55" gradientUnits="userSpaceOnUse"><stop offset="0" stop-color="#f9b233"/><stop offset="1" stop-color="#ffde00"/></linearGradient><linearGradient id="linear-gradient-3" x1="590.88" y1="164.45" x2="590.88" y2="55" xlink:href="#linear-gradient-2"/><linearGradient id="linear-gradient-4" x1="622.2" y1="164.45" x2="622.2" y2="55" xlink:href="#linear-gradient-2"/><linearGradient id="linear-gradient-5" x1="254.57" y1="151.15" x2="254.57" y2="599.01" gradientUnits="userSpaceOnUse"><stop offset="0" stop-color="#192a6b"/><stop offset="1" stop-color="#2d2e87"/></linearGradient><linearGradient id="linear-gradient-6" x1="260.61" y1="468.6" x2="260.61" y2="646.54" xlink:href="#linear-gradient-5"/><linearGradient id="linear-gradient-7" x1="240.94" y1="114.11" x2="295.97" y2="291.04" xlink:href="#linear-gradient"/><linearGradient id="linear-gradient-8" x1="259.9" y1="107.65" x2="259.9" y2="30.01" xlink:href="#linear-gradient-5"/><linearGradient id="linear-gradient-9" x1="289.38" y1="119.89" x2="253.5" y2="145.03" gradientUnits="userSpaceOnUse"><stop offset="0" stop-color="#009fe3"/><stop offset="1" stop-color="#fff" stop-opacity="0"/></linearGradient><linearGradient id="linear-gradient-10" x1="259.03" y1="276.3" x2="259.03" y2="147.49" xlink:href="#linear-gradient-2"/><linearGradient id="linear-gradient-11" x1="448.55" y1="111.66" x2="509.58" y2="101.83" gradientUnits="userSpaceOnUse"><stop offset="0" stop-color="#009fe3"/><stop offset="1" stop-color="#fff"/></linearGradient><linearGradient id="linear-gradient-12" x1="63.21" y1="319.7" x2="258.7" y2="288.23" xlink:href="#linear-gradient-2"/><linearGradient id="linear-gradient-13" x1="423.71" y1="127.78" x2="423.71" y2="280" xlink:href="#linear-gradient-5"/><linearGradient id="linear-gradient-14" x1="189.47" y1="145.08" x2="189.47" y2="325.09" xlink:href="#linear-gradient-5"/><linearGradient id="linear-gradient-15" x1="230.06" y1="321.96" x2="287.49" y2="312.71" xlink:href="#linear-gradient-11"/></defs><title>Ресурс 1</title><g id="Слой_2" data-name="Слой 2"><g id="Слой_1-2" data-name="Слой 1"><polygon class="cls-2" points="1000 0 0 0 0 0.24 999.57 0.24 999.57 600 1000 600 1000 0"/><rect class="cls-3" y="0.24" width="999.57" height="599.76"/><rect class="cls-4" x="363.94" y="28.46" width="538.69" height="386.95"/><polygon class="cls-5" points="689.1 292.06 446.09 257.99 445.66 257.93 362.56 302.19 363.83 304.57 446.15 260.72 689.36 294.82 689.99 294.91 844.71 151.89 902.62 151.89 902.62 149.19 843.66 149.19 689.1 292.06"/><path class="cls-5" d="M689.55,280.9a11.24,11.24,0,1,0,11.24,11.24A11.24,11.24,0,0,0,689.55,280.9Z"/><g class="cls-6"><path class="cls-7" d="M684.91,287.51v0Z"/><rect class="cls-7" x="684.91" y="287.51" width="0.1" height="9.27"/><rect class="cls-8" x="685.02" y="287.51" width="0.1" height="9.27"/><rect class="cls-8" x="685.12" y="287.51" width="0.1" height="9.27"/><rect class="cls-9" x="685.23" y="287.51" width="0.1" height="9.27"/><rect class="cls-9" x="685.33" y="287.51" width="0.11" height="9.27"/><rect class="cls-10" x="685.44" y="287.51" width="0.1" height="9.27"/><rect class="cls-11" x="685.54" y="287.51" width="0.1" height="9.27"/><rect class="cls-11" x="685.64" y="287.51" width="0.1" height="9.27"/><rect class="cls-12" x="685.75" y="287.51" width="0.1" height="9.27"/><rect class="cls-12" x="685.85" y="287.51" width="0.1" height="9.27"/><rect class="cls-13" x="685.96" y="287.51" width="0.1" height="9.27"/><rect class="cls-14" x="686.06" y="287.51" width="0.1" height="9.27"/><rect class="cls-14" x="686.16" y="287.51" width="0.1" height="9.27"/><rect class="cls-14" x="686.27" y="287.51" width="0.1" height="9.27"/><rect class="cls-15" x="686.37" y="287.51" width="0.1" height="9.27"/><rect class="cls-15" x="686.48" y="287.51" width="0.1" height="9.27"/><rect class="cls-15" x="686.58" y="287.51" width="0.1" height="9.27"/><rect class="cls-16" x="686.68" y="287.51" width="0.1" height="9.27"/><rect class="cls-17" x="686.79" y="287.51" width="0.1" height="9.27"/><rect class="cls-17" x="686.89" y="287.51" width="0.1" height="9.27"/><rect class="cls-18" x="687" y="287.51" width="0.1" height="9.27"/><rect class="cls-18" x="687.1" y="287.51" width="0.1" height="9.27"/><rect class="cls-18" x="687.2" y="287.51" width="0.1" height="9.27"/><rect class="cls-19" x="687.31" y="287.51" width="0.1" height="9.27"/><rect class="cls-19" x="687.41" y="287.51" width="0.1" height="9.27"/><rect class="cls-19" x="687.52" y="287.51" width="0.1" height="9.27"/><rect class="cls-20" x="687.62" y="287.51" width="0.1" height="9.27"/><rect class="cls-20" x="687.73" y="287.51" width="0.1" height="9.27"/><rect class="cls-21" x="687.83" y="287.51" width="0.1" height="9.27"/><rect class="cls-21" x="687.93" y="287.51" width="0.1" height="9.27"/><rect class="cls-22" x="688.04" y="287.51" width="0.1" height="9.27"/><rect class="cls-23" x="688.14" y="287.51" width="0.1" height="9.27"/><rect class="cls-24" x="688.25" y="287.51" width="0.1" height="9.27"/><rect class="cls-24" x="688.35" y="287.51" width="0.1" height="9.27"/><rect class="cls-25" x="688.45" y="287.51" width="0.1" height="9.27"/><rect class="cls-25" x="688.56" y="287.51" width="0.1" height="9.27"/><rect class="cls-26" x="688.66" y="287.51" width="0.1" height="9.27"/><rect class="cls-27" x="688.77" y="287.51" width="0.1" height="9.27"/><rect class="cls-27" x="688.87" y="287.51" width="0.1" height="9.27"/><rect class="cls-27" x="688.98" y="287.51" width="0.1" height="9.27"/><rect class="cls-28" x="689.08" y="287.51" width="0.1" height="9.27"/><rect class="cls-29" x="689.18" y="287.51" width="0.1" height="9.27"/><rect class="cls-29" x="689.29" y="287.51" width="0.1" height="9.27"/><rect class="cls-30" x="689.39" y="287.51" width="0.1" height="9.27"/><rect class="cls-30" x="689.5" y="287.51" width="0.1" height="9.27"/><rect class="cls-30" x="689.6" y="287.51" width="0.1" height="9.27"/><rect class="cls-31" x="689.7" y="287.51" width="0.1" height="9.27"/><rect class="cls-31" x="689.81" y="287.51" width="0.1" height="9.27"/><rect class="cls-31" x="689.91" y="287.51" width="0.1" height="9.27"/><rect class="cls-31" x="690.02" y="287.51" width="0.1" height="9.27"/><rect class="cls-32" x="690.12" y="287.51" width="0.1" height="9.27"/><rect class="cls-32" x="690.22" y="287.51" width="0.1" height="9.27"/><rect class="cls-32" x="690.33" y="287.51" width="0.1" height="9.27"/><rect class="cls-33" x="690.43" y="287.51" width="0.1" height="9.27"/><rect class="cls-33" x="690.54" y="287.51" width="0.1" height="9.27"/><rect class="cls-34" x="690.64" y="287.51" width="0.1" height="9.27"/><rect class="cls-35" x="690.74" y="287.51" width="0.1" height="9.27"/><rect class="cls-35" x="690.85" y="287.51" width="0.1" height="9.27"/><rect class="cls-35" x="690.95" y="287.51" width="0.1" height="9.27"/><rect class="cls-36" x="691.06" y="287.51" width="0.1" height="9.27"/><rect class="cls-37" x="691.16" y="287.51" width="0.1" height="9.27"/><rect class="cls-37" x="691.27" y="287.51" width="0.1" height="9.27"/><rect class="cls-37" x="691.37" y="287.51" width="0.1" height="9.27"/><rect class="cls-38" x="691.47" y="287.51" width="0.1" height="9.27"/><rect class="cls-39" x="691.58" y="287.51" width="0.1" height="9.27"/><rect class="cls-39" x="691.68" y="287.51" width="0.1" height="9.27"/><rect class="cls-40" x="691.79" y="287.51" width="0.1" height="9.27"/><rect class="cls-40" x="691.89" y="287.51" width="0.1" height="9.27"/><rect class="cls-40" x="691.99" y="287.51" width="0.1" height="9.27"/><rect class="cls-41" x="692.1" y="287.51" width="0.1" height="9.27"/><rect class="cls-41" x="692.2" y="287.51" width="0.1" height="9.27"/><rect class="cls-41" x="692.31" y="287.51" width="0.1" height="9.27"/><rect class="cls-42" x="692.41" y="287.51" width="0.1" height="9.27"/><rect class="cls-42" x="692.51" y="287.51" width="0.1" height="9.27"/><rect class="cls-43" x="692.62" y="287.51" width="0.1" height="9.27"/><rect class="cls-43" x="692.72" y="287.51" width="0.1" height="9.27"/><rect class="cls-44" x="692.83" y="287.51" width="0.1" height="9.27"/><rect class="cls-44" x="692.93" y="287.51" width="0.1" height="9.27"/><rect class="cls-44" x="693.04" y="287.51" width="0.1" height="9.27"/><rect class="cls-45" x="693.14" y="287.51" width="0.1" height="9.27"/><rect class="cls-45" x="693.24" y="287.51" width="0.1" height="9.27"/><rect class="cls-45" x="693.35" y="287.51" width="0.1" height="9.27"/><rect class="cls-45" x="693.45" y="287.51" width="0.1" height="9.27"/><rect class="cls-46" x="693.56" y="287.51" width="0.1" height="9.27"/><rect class="cls-46" x="693.66" y="287.51" width="0.1" height="9.27"/><rect class="cls-46" x="693.76" y="287.51" width="0.1" height="9.27"/><rect class="cls-47" x="693.87" y="287.51" width="0.1" height="9.27"/><rect class="cls-47" x="693.97" y="287.51" width="0.1" height="9.27"/><rect class="cls-48" x="694.08" y="287.51" width="0.1" height="9.27"/><path class="cls-48" d="M694.18,296.77v0Z"/></g><path class="cls-5" d="M844.18,139.3a11.24,11.24,0,1,0,11.24,11.24A11.23,11.23,0,0,0,844.18,139.3Z"/><g class="cls-49"><path class="cls-7" d="M839.55,145.91v0Z"/><rect class="cls-7" x="839.55" y="145.91" width="0.1" height="9.27"/><rect class="cls-8" x="839.65" y="145.91" width="0.1" height="9.27"/><rect class="cls-8" x="839.76" y="145.91" width="0.1" height="9.27"/><rect class="cls-9" x="839.86" y="145.91" width="0.1" height="9.27"/><rect class="cls-9" x="839.97" y="145.91" width="0.1" height="9.27"/><rect class="cls-10" x="840.07" y="145.91" width="0.1" height="9.27"/><rect class="cls-11" x="840.18" y="145.91" width="0.1" height="9.27"/><rect class="cls-11" x="840.28" y="145.91" width="0.1" height="9.27"/><rect class="cls-12" x="840.38" y="145.91" width="0.1" height="9.27"/><rect class="cls-12" x="840.49" y="145.91" width="0.1" height="9.27"/><rect class="cls-13" x="840.59" y="145.91" width="0.1" height="9.27"/><rect class="cls-14" x="840.7" y="145.91" width="0.1" height="9.27"/><rect class="cls-14" x="840.8" y="145.91" width="0.1" height="9.27"/><rect class="cls-14" x="840.9" y="145.91" width="0.1" height="9.27"/><rect class="cls-15" x="841.01" y="145.91" width="0.1" height="9.27"/><rect class="cls-15" x="841.11" y="145.91" width="0.1" height="9.27"/><rect class="cls-15" x="841.22" y="145.91" width="0.1" height="9.27"/><rect class="cls-16" x="841.32" y="145.91" width="0.1" height="9.27"/><rect class="cls-17" x="841.42" y="145.91" width="0.1" height="9.27"/><rect class="cls-17" x="841.53" y="145.91" width="0.1" height="9.27"/><rect class="cls-18" x="841.63" y="145.91" width="0.1" height="9.27"/><rect class="cls-18" x="841.74" y="145.91" width="0.1" height="9.27"/><rect class="cls-18" x="841.84" y="145.91" width="0.1" height="9.27"/><rect class="cls-19" x="841.95" y="145.91" width="0.1" height="9.27"/><rect class="cls-19" x="842.05" y="145.91" width="0.1" height="9.27"/><rect class="cls-19" x="842.15" y="145.91" width="0.1" height="9.27"/><rect class="cls-20" x="842.26" y="145.91" width="0.1" height="9.27"/><rect class="cls-20" x="842.36" y="145.91" width="0.1" height="9.27"/><rect class="cls-21" x="842.47" y="145.91" width="0.1" height="9.27"/><rect class="cls-21" x="842.57" y="145.91" width="0.1" height="9.27"/><rect class="cls-22" x="842.67" y="145.91" width="0.1" height="9.27"/><rect class="cls-23" x="842.78" y="145.91" width="0.1" height="9.27"/><rect class="cls-24" x="842.88" y="145.91" width="0.1" height="9.27"/><rect class="cls-24" x="842.99" y="145.91" width="0.1" height="9.27"/><rect class="cls-25" x="843.09" y="145.91" width="0.1" height="9.27"/><rect class="cls-25" x="843.2" y="145.91" width="0.1" height="9.27"/><rect class="cls-26" x="843.3" y="145.91" width="0.1" height="9.27"/><rect class="cls-27" x="843.4" y="145.91" width="0.1" height="9.27"/><rect class="cls-27" x="843.51" y="145.91" width="0.1" height="9.27"/><rect class="cls-27" x="843.61" y="145.91" width="0.1" height="9.27"/><rect class="cls-28" x="843.72" y="145.91" width="0.1" height="9.27"/><rect class="cls-29" x="843.82" y="145.91" width="0.1" height="9.27"/><rect class="cls-29" x="843.92" y="145.91" width="0.1" height="9.27"/><rect class="cls-30" x="844.03" y="145.91" width="0.1" height="9.27"/><rect class="cls-30" x="844.13" y="145.91" width="0.1" height="9.27"/><rect class="cls-30" x="844.24" y="145.91" width="0.1" height="9.27"/><rect class="cls-31" x="844.34" y="145.91" width="0.1" height="9.27"/><rect class="cls-31" x="844.44" y="145.91" width="0.1" height="9.27"/><rect class="cls-31" x="844.55" y="145.91" width="0.1" height="9.27"/><rect class="cls-31" x="844.65" y="145.91" width="0.1" height="9.27"/><rect class="cls-32" x="844.76" y="145.91" width="0.1" height="9.27"/><rect class="cls-32" x="844.86" y="145.91" width="0.1" height="9.27"/><rect class="cls-32" x="844.96" y="145.91" width="0.1" height="9.27"/><rect class="cls-33" x="845.07" y="145.91" width="0.1" height="9.27"/><rect class="cls-33" x="845.17" y="145.91" width="0.1" height="9.27"/><rect class="cls-34" x="845.28" y="145.91" width="0.1" height="9.27"/><rect class="cls-35" x="845.38" y="145.91" width="0.1" height="9.27"/><rect class="cls-35" x="845.49" y="145.91" width="0.1" height="9.27"/><rect class="cls-35" x="845.59" y="145.91" width="0.1" height="9.27"/><rect class="cls-36" x="845.69" y="145.91" width="0.1" height="9.27"/><rect class="cls-37" x="845.8" y="145.91" width="0.1" height="9.27"/><rect class="cls-37" x="845.9" y="145.91" width="0.1" height="9.27"/><rect class="cls-37" x="846.01" y="145.91" width="0.1" height="9.27"/><rect class="cls-38" x="846.11" y="145.91" width="0.1" height="9.27"/><rect class="cls-39" x="846.21" y="145.91" width="0.1" height="9.27"/><rect class="cls-39" x="846.32" y="145.91" width="0.1" height="9.27"/><rect class="cls-40" x="846.42" y="145.91" width="0.1" height="9.27"/><rect class="cls-40" x="846.53" y="145.91" width="0.1" height="9.27"/><rect class="cls-40" x="846.63" y="145.91" width="0.1" height="9.27"/><rect class="cls-41" x="846.73" y="145.91" width="0.1" height="9.27"/><rect class="cls-41" x="846.84" y="145.91" width="0.1" height="9.27"/><rect class="cls-41" x="846.94" y="145.91" width="0.1" height="9.27"/><rect class="cls-42" x="847.05" y="145.91" width="0.1" height="9.27"/><rect class="cls-42" x="847.15" y="145.91" width="0.1" height="9.27"/><rect class="cls-43" x="847.26" y="145.91" width="0.1" height="9.27"/><rect class="cls-43" x="847.36" y="145.91" width="0.11" height="9.27"/><rect class="cls-44" x="847.46" y="145.91" width="0.1" height="9.27"/><rect class="cls-44" x="847.57" y="145.91" width="0.1" height="9.27"/><rect class="cls-44" x="847.67" y="145.91" width="0.1" height="9.27"/><rect class="cls-45" x="847.78" y="145.91" width="0.1" height="9.27"/><rect class="cls-45" x="847.88" y="145.91" width="0.11" height="9.27"/><rect class="cls-45" x="847.98" y="145.91" width="0.1" height="9.27"/><rect class="cls-45" x="848.09" y="145.91" width="0.1" height="9.27"/><rect class="cls-46" x="848.19" y="145.91" width="0.1" height="9.27"/><rect class="cls-46" x="848.3" y="145.91" width="0.1" height="9.27"/><rect class="cls-46" x="848.4" y="145.91" width="0.1" height="9.27"/><rect class="cls-47" x="848.51" y="145.91" width="0.1" height="9.27"/><rect class="cls-47" x="848.61" y="145.91" width="0.1" height="9.27"/><rect class="cls-48" x="848.71" y="145.91" width="0.1" height="9.27"/><path class="cls-48" d="M848.82,155.17v0Z"/></g><path class="cls-5" d="M445.32,247.64a11.24,11.24,0,1,0,11.24,11.23A11.23,11.23,0,0,0,445.32,247.64Z"/><g class="cls-50"><rect class="cls-7" x="440.68" y="254.24" width="0.1" height="9.27"/><rect class="cls-8" x="440.79" y="254.24" width="0.1" height="9.27"/><rect class="cls-8" x="440.89" y="254.24" width="0.1" height="9.27"/><rect class="cls-9" x="441" y="254.24" width="0.1" height="9.27"/><rect class="cls-9" x="441.1" y="254.24" width="0.1" height="9.27"/><rect class="cls-10" x="441.2" y="254.24" width="0.11" height="9.27"/><rect class="cls-11" x="441.31" y="254.24" width="0.1" height="9.27"/><rect class="cls-11" x="441.41" y="254.24" width="0.1" height="9.27"/><rect class="cls-12" x="441.52" y="254.24" width="0.1" height="9.27"/><rect class="cls-12" x="441.62" y="254.24" width="0.1" height="9.27"/><rect class="cls-13" x="441.73" y="254.24" width="0.1" height="9.27"/><rect class="cls-14" x="441.83" y="254.24" width="0.1" height="9.27"/><rect class="cls-14" x="441.93" y="254.24" width="0.1" height="9.27"/><rect class="cls-14" x="442.04" y="254.24" width="0.1" height="9.27"/><rect class="cls-15" x="442.14" y="254.24" width="0.11" height="9.27"/><rect class="cls-15" x="442.25" y="254.24" width="0.1" height="9.27"/><rect class="cls-15" x="442.35" y="254.24" width="0.1" height="9.27"/><rect class="cls-16" x="442.45" y="254.24" width="0.1" height="9.27"/><rect class="cls-17" x="442.56" y="254.24" width="0.1" height="9.27"/><rect class="cls-17" x="442.66" y="254.24" width="0.1" height="9.27"/><rect class="cls-18" x="442.77" y="254.24" width="0.1" height="9.27"/><rect class="cls-18" x="442.87" y="254.24" width="0.1" height="9.27"/><rect class="cls-18" x="442.97" y="254.24" width="0.1" height="9.27"/><rect class="cls-19" x="443.08" y="254.24" width="0.1" height="9.27"/><rect class="cls-19" x="443.18" y="254.24" width="0.1" height="9.27"/><rect class="cls-19" x="443.29" y="254.24" width="0.1" height="9.27"/><rect class="cls-20" x="443.39" y="254.24" width="0.1" height="9.27"/><rect class="cls-20" x="443.5" y="254.24" width="0.1" height="9.27"/><rect class="cls-21" x="443.6" y="254.24" width="0.1" height="9.27"/><rect class="cls-21" x="443.7" y="254.24" width="0.1" height="9.27"/><rect class="cls-22" x="443.81" y="254.24" width="0.1" height="9.27"/><rect class="cls-23" x="443.91" y="254.24" width="0.1" height="9.27"/><rect class="cls-24" x="444.02" y="254.24" width="0.1" height="9.27"/><rect class="cls-24" x="444.12" y="254.24" width="0.1" height="9.27"/><rect class="cls-25" x="444.22" y="254.24" width="0.1" height="9.27"/><rect class="cls-25" x="444.33" y="254.24" width="0.1" height="9.27"/><rect class="cls-26" x="444.43" y="254.24" width="0.1" height="9.27"/><rect class="cls-27" x="444.54" y="254.24" width="0.1" height="9.27"/><rect class="cls-27" x="444.64" y="254.24" width="0.1" height="9.27"/><rect class="cls-27" x="444.75" y="254.24" width="0.1" height="9.27"/><rect class="cls-28" x="444.85" y="254.24" width="0.1" height="9.27"/><rect class="cls-29" x="444.95" y="254.24" width="0.1" height="9.27"/><rect class="cls-29" x="445.06" y="254.24" width="0.1" height="9.27"/><rect class="cls-30" x="445.16" y="254.24" width="0.1" height="9.27"/><rect class="cls-30" x="445.27" y="254.24" width="0.1" height="9.27"/><rect class="cls-30" x="445.37" y="254.24" width="0.1" height="9.27"/><rect class="cls-31" x="445.47" y="254.24" width="0.1" height="9.27"/><rect class="cls-31" x="445.58" y="254.24" width="0.1" height="9.27"/><rect class="cls-31" x="445.68" y="254.24" width="0.1" height="9.27"/><rect class="cls-31" x="445.79" y="254.24" width="0.1" height="9.27"/><rect class="cls-32" x="445.89" y="254.24" width="0.1" height="9.27"/><rect class="cls-32" x="445.99" y="254.24" width="0.1" height="9.27"/><rect class="cls-32" x="446.1" y="254.24" width="0.1" height="9.27"/><rect class="cls-33" x="446.2" y="254.24" width="0.1" height="9.27"/><rect class="cls-33" x="446.31" y="254.24" width="0.1" height="9.27"/><rect class="cls-34" x="446.41" y="254.24" width="0.1" height="9.27"/><rect class="cls-35" x="446.51" y="254.24" width="0.1" height="9.27"/><rect class="cls-35" x="446.62" y="254.24" width="0.1" height="9.27"/><rect class="cls-35" x="446.72" y="254.24" width="0.1" height="9.27"/><rect class="cls-36" x="446.83" y="254.24" width="0.1" height="9.27"/><rect class="cls-37" x="446.93" y="254.24" width="0.1" height="9.27"/><rect class="cls-37" x="447.04" y="254.24" width="0.1" height="9.27"/><rect class="cls-37" x="447.14" y="254.24" width="0.1" height="9.27"/><rect class="cls-38" x="447.24" y="254.24" width="0.1" height="9.27"/><rect class="cls-39" x="447.35" y="254.24" width="0.1" height="9.27"/><rect class="cls-39" x="447.45" y="254.24" width="0.1" height="9.27"/><rect class="cls-40" x="447.56" y="254.24" width="0.1" height="9.27"/><rect class="cls-40" x="447.66" y="254.24" width="0.1" height="9.27"/><rect class="cls-40" x="447.76" y="254.24" width="0.1" height="9.27"/><rect class="cls-41" x="447.87" y="254.24" width="0.1" height="9.27"/><rect class="cls-41" x="447.97" y="254.24" width="0.1" height="9.27"/><rect class="cls-41" x="448.08" y="254.24" width="0.1" height="9.27"/><rect class="cls-42" x="448.18" y="254.24" width="0.1" height="9.27"/><rect class="cls-42" x="448.28" y="254.24" width="0.1" height="9.27"/><rect class="cls-43" x="448.39" y="254.24" width="0.1" height="9.27"/><rect class="cls-43" x="448.49" y="254.24" width="0.1" height="9.27"/><rect class="cls-44" x="448.6" y="254.24" width="0.1" height="9.27"/><rect class="cls-44" x="448.7" y="254.24" width="0.1" height="9.27"/><rect class="cls-44" x="448.81" y="254.24" width="0.1" height="9.27"/><rect class="cls-45" x="448.91" y="254.24" width="0.1" height="9.27"/><rect class="cls-45" x="449.01" y="254.24" width="0.1" height="9.27"/><rect class="cls-45" x="449.12" y="254.24" width="0.1" height="9.27"/><rect class="cls-45" x="449.22" y="254.24" width="0.1" height="9.27"/><rect class="cls-46" x="449.33" y="254.24" width="0.1" height="9.27"/><rect class="cls-46" x="449.43" y="254.24" width="0.1" height="9.27"/><rect class="cls-46" x="449.53" y="254.24" width="0.1" height="9.27"/><rect class="cls-47" x="449.64" y="254.24" width="0.1" height="9.27"/><rect class="cls-47" x="449.74" y="254.24" width="0.1" height="9.27"/><rect class="cls-48" x="449.85" y="254.24" width="0.1" height="9.27"/><rect class="cls-48" x="449.95" y="254.24" height="9.27"/></g><path class="cls-51" d="M689,81.8l4.37-3.43-3.24-5.62L685,74.83a28.18,28.18,0,0,0-4.7-4.69L682.39,65l-5.62-3.24-3.43,4.37a28,28,0,0,0-6.42-1.72l-.78-5.5h-6.49l-.78,5.5a28,28,0,0,0-6.42,1.72L649,61.73,643.4,65l2.08,5.17a28.18,28.18,0,0,0-4.7,4.69l-5.16-2.08-3.24,5.62,4.37,3.43A28.14,28.14,0,0,0,635,88.22l-5.5.78v6.49l5.5.79a28.06,28.06,0,0,0,1.72,6.41l-4.37,3.43,3.24,5.62,5.16-2.08a28.24,28.24,0,0,0,4.7,4.7l-2.08,5.16,5.62,3.25,3.43-4.38a27.5,27.5,0,0,0,6.42,1.72l.78,5.5h6.49l.78-5.5a27.5,27.5,0,0,0,6.42-1.72l3.43,4.38,5.62-3.25-2.08-5.16a28.24,28.24,0,0,0,4.7-4.7l5.16,2.08,3.24-5.62L689,102.69a28.06,28.06,0,0,0,1.72-6.41l5.5-.79V89l-5.5-.78A28.14,28.14,0,0,0,689,81.8Zm-26.14,21a10.6,10.6,0,1,1,10.59-10.6A10.6,10.6,0,0,1,662.9,102.85Z"/><path class="cls-52" d="M607,95.75l2.69-2.11-2-3.47-3.18,1.28a17.62,17.62,0,0,0-2.9-2.89l1.28-3.19-3.46-2-2.12,2.7a17.38,17.38,0,0,0-4-1.06l-.48-3.4h-4l-.49,3.4a17.44,17.44,0,0,0-3.95,1.06l-2.12-2.7-3.47,2,1.28,3.19a18,18,0,0,0-2.89,2.89l-3.18-1.28-2,3.47,2.7,2.11a17.52,17.52,0,0,0-1.06,4l-3.39.48v4l3.39.48a17.52,17.52,0,0,0,1.06,4l-2.7,2.11,2,3.47,3.18-1.28a17.18,17.18,0,0,0,2.89,2.89L578.85,119l3.47,2,2.12-2.7a16.45,16.45,0,0,0,3.95,1.06l.49,3.4h4l.48-3.4a16.41,16.41,0,0,0,4-1.06l2.12,2.7,3.46-2-1.28-3.19a16.87,16.87,0,0,0,2.9-2.89l3.18,1.28,2-3.47L607,108.64a17.52,17.52,0,0,0,1.06-4l3.39-.48v-4l-3.39-.48A17.52,17.52,0,0,0,607,95.75Zm-16.13,18.83a12.38,12.38,0,1,1,12.38-12.38A12.38,12.38,0,0,1,590.88,114.58Z"/><path class="cls-53" d="M637.94,121.94l2.3-3-3.2-3.2L634,118a19.5,19.5,0,0,0-9-3.71l-.54-3.79h-4.52l-.54,3.79a19.54,19.54,0,0,0-9,3.71l-3.06-2.29-3.2,3.2,2.3,3a19.66,19.66,0,0,0-3.72,9l-3.79.54V136l3.79.54a19.66,19.66,0,0,0,3.72,9l-2.3,3.06,3.2,3.19,3.06-2.29a19.66,19.66,0,0,0,9,3.72l.54,3.79h4.52l.54-3.79a19.62,19.62,0,0,0,9-3.72l3.06,2.29,3.2-3.19-2.3-3.06a19.44,19.44,0,0,0,3.72-9l3.79-.54v-4.52l-3.79-.54A19.44,19.44,0,0,0,637.94,121.94Zm-15.74,20a8.21,8.21,0,1,1,8.21-8.21A8.2,8.2,0,0,1,622.2,141.94Z"/><path class="cls-54" d="M344.89,223.83,354.82,141H172.35l5.42,117.21,5.42,117.21h.18l-7.56,180.82c-9.65,9.74-16.56,25.61-21.48,44h52.13l41.23-127.91L262,556.25c-7.58,9.74-11.11,25.61-12.14,44H302L326.7,375.43Z"/><polygon class="cls-55" points="254.99 515.09 273.53 392.16 247.69 472.33 254.99 515.09"/><polygon class="cls-56" points="316.66 169.29 305.33 141.01 289.64 141.01 221.52 141.01 208.9 141.01 204.4 184.91 236.94 208 231.69 239.63 296.55 280.42 320.97 218.5 307.55 198.55 316.66 169.29"/><path class="cls-5" d="M295.31,31.94s-43.63-9-57.11,8.34S221.52,141,221.52,141l75,139.41L289.64,141l17.91-3Z"/><path class="cls-57" d="M238.2,40.28c-8.42,10.82-12.83,47.46-14.95,73.42l15.92-17.92s-13.56-5.58-8-12.19,10.59,0,10.59,0L253,49.9l43.59-7.22-1.24-10.74S251.68,23,238.2,40.28Z"/><path class="cls-58" d="M245.9,103.48s-.11,46.35,45.45,61.91L289.64,141S253.48,125.92,245.9,103.48Z"/><path class="cls-59" d="M221.52,141l75,139.41L289.64,141C267.82,162.71,221.52,141,221.52,141Z"/><path class="cls-60" d="M521.89,68.79,483.6,101.26a36.83,36.83,0,0,0-2.88,23.08l26.51,8.93s16.32-15.38,14.52-26.33c-1.11-6.74-8.24-11.65-14-14.58,3.6-3.9,8.86-9.64,11.75-13C524.19,74,521.89,68.79,521.89,68.79Z"/><path class="cls-5" d="M508.24,100.59s-23.72-1.43-26.12,5.1-1.4,18.65-1.4,18.65l26.51,8.93c-.56-11.8-10.53-20-10.53-20l6.44-3.25A9.35,9.35,0,0,0,508.24,100.59Z"/><path class="cls-61" d="M304.17,233.66l-102.9-24.81a4.42,4.42,0,0,0-5.32,3.26l-32,132.78a4.41,4.41,0,0,0,3.25,5.32L270.09,375a4.41,4.41,0,0,0,5.32-3.26l32-132.78A4.42,4.42,0,0,0,304.17,233.66Z"/><path class="cls-62" d="M427.47,208.66,354.82,141c-22.18,45.35-12.55,104.67-12.55,104.67l107.5,34.74,57.46-147.15-26.51-8.93Z"/><path class="cls-63" d="M172.35,141s-68,80.88-58.13,139.41c5.14,30.55,144.72,45.16,144.72,45.16L265.69,300l-87.92-41.82Z"/><path class="cls-64" d="M289.78,296.93a11.92,11.92,0,0,0-7.29-5.65c-5.2-1.39-16.8,8.76-16.8,8.76l-6.75,25.54s15,9.77,24.08,10.33,20.29-21.93,20.09-29.86S289.78,296.93,289.78,296.93Z"/></g></g></svg>