<?xml version="1.0" encoding="UTF-8" standalone="no"?>
<svg
   xmlns:dc="http://purl.org/dc/elements/1.1/"
   xmlns:cc="http://creativecommons.org/ns#"
   xmlns:rdf="http://www.w3.org/1999/02/22-rdf-syntax-ns#"
   xmlns:svg="http://www.w3.org/2000/svg"
   xmlns="http://www.w3.org/2000/svg"
   id="svg86186"
   version="1.1"
   viewBox="0 0 264.58337 158.75"
   height="158.75mm"
   width="264.58337mm">
  <defs
     id="defs86180">
    <linearGradient
       id="linearGradient56983"
       spreadMethod="pad"
       gradientTransform="matrix(33.207989,0,0,-33.207989,213.46703,1179.1731)"
       gradientUnits="userSpaceOnUse"
       y2="0"
       x2="1"
       y1="0"
       x1="0">
      <stop
         id="stop56979"
         offset="0"
         style="stop-opacity:1;stop-color:#0a2d72" />
      <stop
         id="stop56981"
         offset="1"
         style="stop-opacity:1;stop-color:#293896" />
    </linearGradient>
    <clipPath
       id="clipPath56957"
       clipPathUnits="userSpaceOnUse">
      <path
         id="path56955"
         d="M 0,1214 H 1820 V 0 H 0 Z" />
    </clipPath>
    <linearGradient
       id="linearGradient56947"
       spreadMethod="pad"
       gradientTransform="matrix(4.1210546,7.1376667,7.1376667,-4.1210546,222.37216,1186.4313)"
       gradientUnits="userSpaceOnUse"
       y2="0"
       x2="1"
       y1="0"
       x1="0">
      <stop
         id="stop56943"
         offset="0"
         style="stop-opacity:1;stop-color:#fbb03f" />
      <stop
         id="stop56945"
         offset="1"
         style="stop-opacity:1;stop-color:#ffde17" />
    </linearGradient>
    <clipPath
       id="clipPath56891"
       clipPathUnits="userSpaceOnUse">
      <path
         id="path56889"
         d="m 227.711,1191.543 0.686,1.405 c 0,0 -1.521,1.994 -1.224,3.48 v 0 c 0,0 -1.489,-2.565 0.538,-4.885" />
    </clipPath>
    <mask
       id="mask56907"
       height="1"
       width="1"
       y="0"
       x="0"
       maskUnits="userSpaceOnUse">
      <g
         id="g56917">
        <g
           id="g56915">
          <g
             id="g56913">
            <g
               id="g56911">
              <path
                 id="path56909"
                 style="fill:url(#linearGradient56905);stroke:none"
                 d="M -32768,32767 H 32767 V -32768 H -32768 Z" />
            </g>
          </g>
        </g>
      </g>
    </mask>
    <linearGradient
       id="linearGradient56905"
       spreadMethod="pad"
       gradientTransform="matrix(-2.7923951,-0.2449989,-0.2449989,2.7923951,229.05771,1194.1271)"
       gradientUnits="userSpaceOnUse"
       y2="0"
       x2="1"
       y1="0"
       x1="0">
      <stop
         id="stop56901"
         offset="0"
         style="stop-opacity:1;stop-color:#ffffff" />
      <stop
         id="stop56903"
         offset="1"
         style="stop-opacity:0;stop-color:#ffffff" />
    </linearGradient>
    <linearGradient
       id="linearGradient56927"
       spreadMethod="pad"
       gradientTransform="matrix(-2.7923951,-0.2449989,-0.2449989,2.7923951,229.05771,1194.1271)"
       gradientUnits="userSpaceOnUse"
       y2="0"
       x2="1"
       y1="0"
       x1="0">
      <stop
         id="stop56923"
         offset="0"
         style="stop-opacity:1;stop-color:#00aeef" />
      <stop
         id="stop56925"
         offset="1"
         style="stop-opacity:1;stop-color:#ffffff" />
    </linearGradient>
    <linearGradient
       id="linearGradient56881"
       spreadMethod="pad"
       gradientTransform="matrix(1.1788559,4.8257089,4.8257089,-1.1788559,227.15825,1195.4739)"
       gradientUnits="userSpaceOnUse"
       y2="0"
       x2="1"
       y1="0"
       x1="0">
      <stop
         id="stop56877"
         offset="0"
         style="stop-opacity:1;stop-color:#0a2d72" />
      <stop
         id="stop56879"
         offset="1"
         style="stop-opacity:1;stop-color:#293896" />
    </linearGradient>
    <linearGradient
       id="linearGradient56861"
       spreadMethod="pad"
       gradientTransform="matrix(-10.142751,1.2369285,1.2369285,10.142751,238.04796,1191.213)"
       gradientUnits="userSpaceOnUse"
       y2="0"
       x2="1"
       y1="0"
       x1="0">
      <stop
         id="stop56855"
         offset="0"
         style="stop-opacity:1;stop-color:#00aeef" />
      <stop
         id="stop56857"
         offset="0.59514599"
         style="stop-opacity:1;stop-color:#ffffff" />
      <stop
         id="stop56859"
         offset="1"
         style="stop-opacity:1;stop-color:#ffffff" />
    </linearGradient>
    <linearGradient
       id="linearGradient56839"
       spreadMethod="pad"
       gradientTransform="matrix(-2.6113408,-11.564158,-11.564158,2.6113408,226.55843,1195.9969)"
       gradientUnits="userSpaceOnUse"
       y2="0"
       x2="1"
       y1="0"
       x1="0">
      <stop
         id="stop56835"
         offset="0"
         style="stop-opacity:1;stop-color:#1b3687" />
      <stop
         id="stop56837"
         offset="1"
         style="stop-opacity:1;stop-color:#2c479d" />
    </linearGradient>
    <linearGradient
       id="linearGradient56819"
       spreadMethod="pad"
       gradientTransform="matrix(37.720432,0,0,-37.720432,204.22285,1188.5721)"
       gradientUnits="userSpaceOnUse"
       y2="0"
       x2="1"
       y1="0"
       x1="0">
      <stop
         id="stop56815"
         offset="0"
         style="stop-opacity:1;stop-color:#0a2d72" />
      <stop
         id="stop56817"
         offset="1"
         style="stop-opacity:1;stop-color:#293896" />
    </linearGradient>
    <linearGradient
       id="linearGradient56799"
       spreadMethod="pad"
       gradientTransform="matrix(7.0627584,2.8982337,2.8982337,-7.0627584,249.97758,1182.5642)"
       gradientUnits="userSpaceOnUse"
       y2="0"
       x2="1"
       y1="0"
       x1="0">
      <stop
         id="stop56795"
         offset="0"
         style="stop-opacity:1;stop-color:#0a2d72" />
      <stop
         id="stop56797"
         offset="1"
         style="stop-opacity:1;stop-color:#293896" />
    </linearGradient>
    <linearGradient
       id="linearGradient56779"
       spreadMethod="pad"
       gradientTransform="matrix(-2.4609814,0.7517271,0.7517271,2.4609814,197.3373,1173.4934)"
       gradientUnits="userSpaceOnUse"
       y2="0"
       x2="1"
       y1="0"
       x1="0">
      <stop
         id="stop56775"
         offset="0"
         style="stop-opacity:1;stop-color:#0a2d72" />
      <stop
         id="stop56777"
         offset="1"
         style="stop-opacity:1;stop-color:#293896" />
    </linearGradient>
    <linearGradient
       id="linearGradient56759"
       spreadMethod="pad"
       gradientTransform="matrix(-5.8643508,-9.1392612,-9.1392612,5.8643508,209.05524,1174.6123)"
       gradientUnits="userSpaceOnUse"
       y2="0"
       x2="1"
       y1="0"
       x1="0">
      <stop
         id="stop56755"
         offset="0"
         style="stop-opacity:1;stop-color:#0a2d72" />
      <stop
         id="stop56757"
         offset="1"
         style="stop-opacity:1;stop-color:#293896" />
    </linearGradient>
    <linearGradient
       id="linearGradient56739"
       spreadMethod="pad"
       gradientTransform="matrix(26.818624,46.449856,46.449856,-26.818624,229.72366,1113.1083)"
       gradientUnits="userSpaceOnUse"
       y2="0"
       x2="1"
       y1="0"
       x1="0">
      <stop
         id="stop56735"
         offset="0"
         style="stop-opacity:1;stop-color:#0a2d72" />
      <stop
         id="stop56737"
         offset="1"
         style="stop-opacity:1;stop-color:#293896" />
    </linearGradient>
    <linearGradient
       id="linearGradient56719"
       spreadMethod="pad"
       gradientTransform="matrix(26.818237,46.449188,46.449188,-26.818237,224.57693,1116.0802)"
       gradientUnits="userSpaceOnUse"
       y2="0"
       x2="1"
       y1="0"
       x1="0">
      <stop
         id="stop56715"
         offset="0"
         style="stop-opacity:1;stop-color:#0a2d72" />
      <stop
         id="stop56717"
         offset="1"
         style="stop-opacity:1;stop-color:#293896" />
    </linearGradient>
    <linearGradient
       id="linearGradient56699"
       spreadMethod="pad"
       gradientTransform="matrix(26.818567,46.449757,46.449757,-26.818567,230.99837,1112.3721)"
       gradientUnits="userSpaceOnUse"
       y2="0"
       x2="1"
       y1="0"
       x1="0">
      <stop
         id="stop56695"
         offset="0"
         style="stop-opacity:1;stop-color:#0a2d72" />
      <stop
         id="stop56697"
         offset="1"
         style="stop-opacity:1;stop-color:#293896" />
    </linearGradient>
    <linearGradient
       id="linearGradient56679"
       spreadMethod="pad"
       gradientTransform="matrix(26.818205,46.449131,46.449131,-26.818205,226.23608,1115.1224)"
       gradientUnits="userSpaceOnUse"
       y2="0"
       x2="1"
       y1="0"
       x1="0">
      <stop
         id="stop56675"
         offset="0"
         style="stop-opacity:1;stop-color:#0a2d72" />
      <stop
         id="stop56677"
         offset="1"
         style="stop-opacity:1;stop-color:#293896" />
    </linearGradient>
    <linearGradient
       id="linearGradient56659"
       spreadMethod="pad"
       gradientTransform="matrix(26.817938,46.448669,46.448669,-26.817938,243.9691,1104.885)"
       gradientUnits="userSpaceOnUse"
       y2="0"
       x2="1"
       y1="0"
       x1="0">
      <stop
         id="stop56655"
         offset="0"
         style="stop-opacity:1;stop-color:#0a2d72" />
      <stop
         id="stop56657"
         offset="1"
         style="stop-opacity:1;stop-color:#293896" />
    </linearGradient>
    <linearGradient
       id="linearGradient56639"
       spreadMethod="pad"
       gradientTransform="matrix(26.818006,46.448788,46.448788,-26.818006,223.83032,1116.5116)"
       gradientUnits="userSpaceOnUse"
       y2="0"
       x2="1"
       y1="0"
       x1="0">
      <stop
         id="stop56635"
         offset="0"
         style="stop-opacity:1;stop-color:#0a2d72" />
      <stop
         id="stop56637"
         offset="1"
         style="stop-opacity:1;stop-color:#293896" />
    </linearGradient>
    <linearGradient
       id="linearGradient56619"
       spreadMethod="pad"
       gradientTransform="matrix(26.818638,46.449879,46.449879,-26.818638,232.91533,1111.2653)"
       gradientUnits="userSpaceOnUse"
       y2="0"
       x2="1"
       y1="0"
       x1="0">
      <stop
         id="stop56615"
         offset="0"
         style="stop-opacity:1;stop-color:#0a2d72" />
      <stop
         id="stop56617"
         offset="1"
         style="stop-opacity:1;stop-color:#293896" />
    </linearGradient>
    <linearGradient
       id="linearGradient56599"
       spreadMethod="pad"
       gradientTransform="matrix(26.818006,46.448788,46.448788,-26.818006,231.67456,1111.9832)"
       gradientUnits="userSpaceOnUse"
       y2="0"
       x2="1"
       y1="0"
       x1="0">
      <stop
         id="stop56595"
         offset="0"
         style="stop-opacity:1;stop-color:#0a2d72" />
      <stop
         id="stop56597"
         offset="1"
         style="stop-opacity:1;stop-color:#293896" />
    </linearGradient>
    <linearGradient
       id="linearGradient56579"
       spreadMethod="pad"
       gradientTransform="matrix(26.818296,46.449287,46.449287,-26.818296,239.35384,1107.5487)"
       gradientUnits="userSpaceOnUse"
       y2="0"
       x2="1"
       y1="0"
       x1="0">
      <stop
         id="stop56575"
         offset="0"
         style="stop-opacity:1;stop-color:#0a2d72" />
      <stop
         id="stop56577"
         offset="1"
         style="stop-opacity:1;stop-color:#293896" />
    </linearGradient>
    <linearGradient
       id="linearGradient56559"
       spreadMethod="pad"
       gradientTransform="matrix(26.818304,46.449303,46.449303,-26.818304,222.84007,1117.083)"
       gradientUnits="userSpaceOnUse"
       y2="0"
       x2="1"
       y1="0"
       x1="0">
      <stop
         id="stop56555"
         offset="0"
         style="stop-opacity:1;stop-color:#0a2d72" />
      <stop
         id="stop56557"
         offset="1"
         style="stop-opacity:1;stop-color:#293896" />
    </linearGradient>
    <linearGradient
       id="linearGradient56539"
       spreadMethod="pad"
       gradientTransform="matrix(34.194309,60.092949,60.092949,-34.194309,230.34581,1119.0182)"
       gradientUnits="userSpaceOnUse"
       y2="0"
       x2="1"
       y1="0"
       x1="0">
      <stop
         id="stop56535"
         offset="0"
         style="stop-opacity:1;stop-color:#00aeef" />
      <stop
         id="stop56537"
         offset="1"
         style="stop-opacity:1;stop-color:#ffffff" />
    </linearGradient>
    <linearGradient
       id="linearGradient56519"
       spreadMethod="pad"
       gradientTransform="matrix(0,59.220299,59.220299,0,242.13408,1121.2855)"
       gradientUnits="userSpaceOnUse"
       y2="0"
       x2="1"
       y1="0"
       x1="0">
      <stop
         id="stop56515"
         offset="0"
         style="stop-opacity:1;stop-color:#00aeef" />
      <stop
         id="stop56517"
         offset="1"
         style="stop-opacity:1;stop-color:#ffffff" />
    </linearGradient>
    <clipPath
       id="clipPath56477"
       clipPathUnits="userSpaceOnUse">
      <path
         id="path56475"
         d="M 0,1214 H 1820 V 0 H 0 Z" />
    </clipPath>
    <clipPath
       id="clipPath56485"
       clipPathUnits="userSpaceOnUse">
      <path
         id="path56483"
         d="m 187.049,1196.17 h 110.17 v -85.74 h -110.17 z" />
    </clipPath>
    <radialGradient
       id="radialGradient56467"
       spreadMethod="pad"
       gradientTransform="matrix(65.017731,65.017731,65.017731,-65.017731,242.13409,1153.2999)"
       gradientUnits="userSpaceOnUse"
       r="1"
       cy="0"
       cx="0"
       fy="0"
       fx="0">
      <stop
         id="stop56463"
         offset="0"
         style="stop-opacity:1;stop-color:#0091d5" />
      <stop
         id="stop56465"
         offset="1"
         style="stop-opacity:1;stop-color:#214694" />
    </radialGradient>
    <radialGradient
       id="radialGradient56447"
       spreadMethod="pad"
       gradientTransform="matrix(65.017731,65.017731,65.017731,-65.017731,242.13409,1153.2999)"
       gradientUnits="userSpaceOnUse"
       r="1"
       cy="0"
       cx="0"
       fy="0"
       fx="0">
      <stop
         id="stop56443"
         offset="0"
         style="stop-opacity:1;stop-color:#0091d5" />
      <stop
         id="stop56445"
         offset="1"
         style="stop-opacity:1;stop-color:#214694" />
    </radialGradient>
    <clipPath
       id="clipPath86758"
       clipPathUnits="userSpaceOnUse">
      <rect
         transform="scale(1,-1)"
         style="fill:#f4e3d7;stroke-width:0.12039177"
         y="-1208.6643"
         x="181.53152"
         height="72.235069"
         width="120.3918"
         id="rect86760" />
    </clipPath>
    <clipPath
       id="clipPath86762"
       clipPathUnits="userSpaceOnUse">
      <rect
         transform="scale(1,-1)"
         style="fill:#f4e3d7;stroke-width:0.12039177"
         y="-1208.6643"
         x="181.53152"
         height="72.235069"
         width="120.3918"
         id="rect86764" />
    </clipPath>
    <clipPath
       id="clipPath86766"
       clipPathUnits="userSpaceOnUse">
      <rect
         transform="scale(1,-1)"
         style="fill:#f4e3d7;stroke-width:0.12039177"
         y="-1208.6643"
         x="181.53152"
         height="72.235069"
         width="120.3918"
         id="rect86768" />
    </clipPath>
    <clipPath
       id="clipPath86770"
       clipPathUnits="userSpaceOnUse">
      <rect
         transform="scale(1,-1)"
         style="fill:#f4e3d7;stroke-width:0.12039177"
         y="-1208.6643"
         x="181.53152"
         height="72.235069"
         width="120.3918"
         id="rect86772" />
    </clipPath>
    <clipPath
       id="clipPath86774"
       clipPathUnits="userSpaceOnUse">
      <rect
         transform="scale(1,-1)"
         style="fill:#f4e3d7;stroke-width:0.12039177"
         y="-1208.6643"
         x="181.53152"
         height="72.235069"
         width="120.3918"
         id="rect86776" />
    </clipPath>
    <clipPath
       id="clipPath86778"
       clipPathUnits="userSpaceOnUse">
      <rect
         transform="scale(1,-1)"
         style="fill:#f4e3d7;stroke-width:0.12039177"
         y="-1208.6643"
         x="181.53152"
         height="72.235069"
         width="120.3918"
         id="rect86780" />
    </clipPath>
    <clipPath
       id="clipPath86782"
       clipPathUnits="userSpaceOnUse">
      <rect
         transform="scale(1,-1)"
         style="fill:#f4e3d7;stroke-width:0.12039177"
         y="-1208.6643"
         x="181.53152"
         height="72.235069"
         width="120.3918"
         id="rect86784" />
    </clipPath>
    <clipPath
       id="clipPath86786"
       clipPathUnits="userSpaceOnUse">
      <rect
         transform="scale(1,-1)"
         style="fill:#f4e3d7;stroke-width:0.12039177"
         y="-1208.6643"
         x="181.53152"
         height="72.235069"
         width="120.3918"
         id="rect86788" />
    </clipPath>
    <clipPath
       id="clipPath86790"
       clipPathUnits="userSpaceOnUse">
      <rect
         transform="scale(1,-1)"
         style="fill:#f4e3d7;stroke-width:0.12039177"
         y="-1208.6643"
         x="181.53152"
         height="72.235069"
         width="120.3918"
         id="rect86792" />
    </clipPath>
    <clipPath
       id="clipPath86794"
       clipPathUnits="userSpaceOnUse">
      <rect
         transform="scale(1,-1)"
         style="fill:#f4e3d7;stroke-width:0.12039177"
         y="-1208.6643"
         x="181.53152"
         height="72.235069"
         width="120.3918"
         id="rect86796" />
    </clipPath>
    <clipPath
       id="clipPath86798"
       clipPathUnits="userSpaceOnUse">
      <rect
         transform="scale(1,-1)"
         style="fill:#f4e3d7;stroke-width:0.12039177"
         y="-1208.6643"
         x="181.53152"
         height="72.235069"
         width="120.3918"
         id="rect86800" />
    </clipPath>
    <clipPath
       id="clipPath86802"
       clipPathUnits="userSpaceOnUse">
      <rect
         transform="scale(1,-1)"
         style="fill:#f4e3d7;stroke-width:0.12039177"
         y="-1208.6643"
         x="181.53152"
         height="72.235069"
         width="120.3918"
         id="rect86804" />
    </clipPath>
    <clipPath
       id="clipPath86806"
       clipPathUnits="userSpaceOnUse">
      <rect
         transform="scale(1,-1)"
         style="fill:#f4e3d7;stroke-width:0.12039177"
         y="-1208.6643"
         x="181.53152"
         height="72.235069"
         width="120.3918"
         id="rect86808" />
    </clipPath>
    <clipPath
       id="clipPath86810"
       clipPathUnits="userSpaceOnUse">
      <rect
         transform="scale(1,-1)"
         style="fill:#f4e3d7;stroke-width:0.12039177"
         y="-1208.6643"
         x="181.53152"
         height="72.235069"
         width="120.3918"
         id="rect86812" />
    </clipPath>
    <clipPath
       id="clipPath86814"
       clipPathUnits="userSpaceOnUse">
      <rect
         transform="scale(1,-1)"
         style="fill:#f4e3d7;stroke-width:0.12039177"
         y="-1208.6643"
         x="181.53152"
         height="72.235069"
         width="120.3918"
         id="rect86816" />
    </clipPath>
    <clipPath
       id="clipPath86818"
       clipPathUnits="userSpaceOnUse">
      <rect
         transform="scale(1,-1)"
         style="fill:#f4e3d7;stroke-width:0.12039177"
         y="-1208.6643"
         x="181.53152"
         height="72.235069"
         width="120.3918"
         id="rect86820" />
    </clipPath>
    <clipPath
       id="clipPath86822"
       clipPathUnits="userSpaceOnUse">
      <rect
         transform="scale(1,-1)"
         style="fill:#f4e3d7;stroke-width:0.12039177"
         y="-1208.6643"
         x="181.53152"
         height="72.235069"
         width="120.3918"
         id="rect86824" />
    </clipPath>
    <clipPath
       id="clipPath86826"
       clipPathUnits="userSpaceOnUse">
      <rect
         transform="scale(1,-1)"
         style="fill:#f4e3d7;stroke-width:0.12039177"
         y="-1208.6643"
         x="181.53152"
         height="72.235069"
         width="120.3918"
         id="rect86828" />
    </clipPath>
    <clipPath
       id="clipPath86830"
       clipPathUnits="userSpaceOnUse">
      <rect
         transform="scale(1,-1)"
         style="fill:#f4e3d7;stroke-width:0.12039177"
         y="-1208.6643"
         x="181.53152"
         height="72.235069"
         width="120.3918"
         id="rect86832" />
    </clipPath>
    <clipPath
       id="clipPath86834"
       clipPathUnits="userSpaceOnUse">
      <rect
         transform="scale(1,-1)"
         style="fill:#f4e3d7;stroke-width:0.12039177"
         y="-1208.6643"
         x="181.53152"
         height="72.235069"
         width="120.3918"
         id="rect86836" />
    </clipPath>
    <clipPath
       id="clipPath86838"
       clipPathUnits="userSpaceOnUse">
      <rect
         transform="scale(1,-1)"
         style="fill:#f4e3d7;stroke-width:0.12039177"
         y="-1208.6643"
         x="181.53152"
         height="72.235069"
         width="120.3918"
         id="rect86840" />
    </clipPath>
    <clipPath
       id="clipPath86842"
       clipPathUnits="userSpaceOnUse">
      <rect
         transform="scale(1,-1)"
         style="fill:#f4e3d7;stroke-width:0.12039177"
         y="-1208.6643"
         x="181.53152"
         height="72.235069"
         width="120.3918"
         id="rect86844" />
    </clipPath>
    <clipPath
       id="clipPath86846"
       clipPathUnits="userSpaceOnUse">
      <rect
         transform="scale(1,-1)"
         style="fill:#f4e3d7;stroke-width:0.12039177"
         y="-1208.6643"
         x="181.53152"
         height="72.235069"
         width="120.3918"
         id="rect86848" />
    </clipPath>
    <clipPath
       id="clipPath86850"
       clipPathUnits="userSpaceOnUse">
      <rect
         transform="scale(1,-1)"
         style="fill:#f4e3d7;stroke-width:0.12039177"
         y="-1208.6643"
         x="181.53152"
         height="72.235069"
         width="120.3918"
         id="rect86852" />
    </clipPath>
    <clipPath
       id="clipPath86854"
       clipPathUnits="userSpaceOnUse">
      <rect
         transform="scale(1,-1)"
         style="fill:#f4e3d7;stroke-width:0.12039177"
         y="-1208.6643"
         x="181.53152"
         height="72.235069"
         width="120.3918"
         id="rect86856" />
    </clipPath>
    <clipPath
       id="clipPath86858"
       clipPathUnits="userSpaceOnUse">
      <rect
         transform="scale(1,-1)"
         style="fill:#f4e3d7;stroke-width:0.12039177"
         y="-1208.6643"
         x="181.53152"
         height="72.235069"
         width="120.3918"
         id="rect86860" />
    </clipPath>
  </defs>
  <metadata
     id="metadata86183">
    <rdf:RDF>
      <cc:Work
         rdf:about="">
        <dc:format>image/svg+xml</dc:format>
        <dc:type
           rdf:resource="http://purl.org/dc/dcmitype/StillImage" />
        <dc:title></dc:title>
      </cc:Work>
    </rdf:RDF>
  </metadata>
  <g
     transform="translate(315.98812,-18.809475)"
     id="layer1">
    <g
       clip-path="url(#clipPath86858)"
       id="g56431"
       transform="matrix(2.197686,0,0,-2.197686,-714.93741,2675.0741)">
      <g
         id="g56433">
        <g
           id="g56439">
          <g
             id="g56441">
            <path
               id="path56449"
               style="fill:url(#radialGradient56447);stroke:none"
               d="m 181.434,1092.6 h 121.4 V 1214 h -121.4 z" />
          </g>
        </g>
      </g>
    </g>
    <g
       clip-path="url(#clipPath86854)"
       id="g56451"
       transform="matrix(2.197686,0,0,-2.197686,-714.93741,2675.0741)">
      <g
         id="g56453">
        <g
           id="g56459">
          <g
             id="g56461">
            <path
               id="path56469"
               style="fill:url(#radialGradient56467);stroke:none"
               d="m 181.434,1092.6 h 121.4 V 1214 h -121.4 z" />
          </g>
        </g>
      </g>
    </g>
    <g
       clip-path="url(#clipPath86850)"
       id="g56471"
       transform="matrix(2.197686,0,0,-2.197686,-714.93741,2675.0741)">
      <g
         clip-path="url(#clipPath56477)"
         id="g56473">
        <g
           id="g56479">
          <g
             id="g56481" />
          <g
             id="g56501">
            <g
               style="opacity:0.75"
               id="g56499"
               clip-path="url(#clipPath56485)">
              <g
                 id="g56489"
                 transform="translate(268.0239,1157.723)">
                <path
                   id="path56487"
                   style="fill:#18519f;fill-opacity:1;fill-rule:nonzero;stroke:none"
                   d="m 0,0 c -5.118,0.007 -9.261,4.162 -9.254,9.281 0.007,5.118 4.163,9.261 9.281,9.254 C 5.145,18.527 9.288,14.372 9.281,9.254 9.273,4.136 5.118,-0.007 0,0 m 29.187,6.388 0.008,5.675 -4.811,0.691 c -0.277,1.955 -0.786,3.834 -1.494,5.613 l 3.828,2.993 -2.83,4.919 -4.517,-1.808 c -1.2,1.526 -2.576,2.906 -4.098,4.11 l 1.821,4.512 -4.911,2.844 -3.004,-3.82 c -1.777,0.714 -3.654,1.228 -5.608,1.511 l -0.678,4.813 -5.675,0.008 -0.692,-4.811 c -1.955,-0.277 -3.834,-0.786 -5.613,-1.494 l -2.993,3.828 -4.918,-2.83 1.808,-4.517 c -1.526,-1.2 -2.906,-2.576 -4.111,-4.099 l -4.511,1.822 -2.845,-4.911 3.82,-3.004 c -0.713,-1.777 -1.227,-3.654 -1.51,-5.608 l -4.813,-0.678 -0.009,-5.675 4.812,-0.692 c 0.277,-1.955 0.786,-3.834 1.494,-5.613 l -3.829,-2.993 2.831,-4.919 4.517,1.809 c 1.2,-1.526 2.576,-2.906 4.098,-4.111 l -1.821,-4.511 4.91,-2.845 3.004,3.82 c 1.777,-0.713 3.655,-1.227 5.609,-1.51 l 0.678,-4.813 5.675,-0.009 0.691,4.812 c 1.955,0.277 3.834,0.785 5.613,1.494 l 2.994,-3.829 4.918,2.831 -1.808,4.517 c 1.526,1.2 2.906,2.575 4.11,4.098 l 4.512,-1.821 2.844,4.91 -3.82,3.004 c 0.714,1.777 1.228,3.655 1.511,5.609 z" />
              </g>
              <g
                 id="g56493"
                 transform="translate(205.0336,1147.5543)">
                <path
                   id="path56491"
                   style="fill:#18519f;fill-opacity:1;fill-rule:nonzero;stroke:none"
                   d="m 0,0 c -5.979,0.009 -10.82,4.863 -10.811,10.842 0.009,5.98 4.863,10.82 10.842,10.811 5.98,-0.008 10.82,-4.862 10.811,-10.842 C 10.834,4.832 5.979,-0.009 0,0 m 18.011,9.051 0.005,3.5 -2.968,0.427 c -0.171,1.205 -0.485,2.365 -0.922,3.462 l 2.362,1.846 -1.746,3.034 -2.786,-1.115 c -0.74,0.941 -1.589,1.792 -2.528,2.535 l 1.123,2.783 -3.029,1.754 -1.853,-2.356 c -1.096,0.44 -2.254,0.757 -3.459,0.932 l -0.418,2.969 -3.501,0.005 -0.426,-2.968 C -3.341,25.688 -4.5,25.374 -5.598,24.937 l -1.846,2.362 -3.034,-1.746 1.116,-2.786 c -0.942,-0.74 -1.793,-1.589 -2.536,-2.528 l -2.783,1.123 -1.754,-3.029 2.356,-1.853 c -0.44,-1.096 -0.757,-2.254 -0.932,-3.459 l -2.969,-0.418 -0.005,-3.501 2.968,-0.426 c 0.171,-1.206 0.485,-2.365 0.922,-3.462 l -2.362,-1.847 1.746,-3.034 2.786,1.116 c 0.741,-0.942 1.589,-1.793 2.528,-2.536 l -1.123,-2.783 3.029,-1.754 1.853,2.356 c 1.096,-0.44 2.254,-0.757 3.459,-0.932 l 0.418,-2.968 3.501,-0.005 0.427,2.967 c 1.205,0.171 2.364,0.485 3.462,0.922 l 1.846,-2.362 3.034,1.746 -1.115,2.786 c 0.941,0.741 1.792,1.589 2.535,2.528 L 14.712,0.291 16.466,3.32 14.11,5.173 c 0.44,1.096 0.757,2.254 0.932,3.459 z" />
              </g>
              <g
                 id="g56497"
                 transform="translate(232.3859,1123.5852)">
                <path
                   id="path56495"
                   style="fill:#18519f;fill-opacity:1;fill-rule:nonzero;stroke:none"
                   d="m 0,0 c -3.966,0.006 -7.176,3.225 -7.17,7.191 0.005,3.966 3.225,7.176 7.191,7.17 C 3.987,14.356 7.197,11.136 7.191,7.17 7.185,3.205 3.966,-0.006 0,0 m 17.036,9.605 c -0.412,2.92 -1.555,5.605 -3.242,7.862 l 2.013,2.672 -2.793,2.801 -2.678,-2.005 c -2.252,1.693 -4.934,2.843 -7.852,3.264 l -0.467,3.314 -3.955,0.006 -0.476,-3.313 c -2.92,-0.412 -5.605,-1.555 -7.862,-3.241 l -2.672,2.012 -2.801,-2.793 2.005,-2.677 c -1.693,-2.252 -2.843,-4.934 -3.264,-7.853 l -3.314,-0.466 -0.006,-3.955 3.313,-0.477 c 0.412,-2.919 1.555,-5.605 3.241,-7.861 l -2.012,-2.672 2.793,-2.801 2.678,2.005 c 2.251,-1.694 4.933,-2.844 7.852,-3.265 l 0.467,-3.314 3.955,-0.005 0.476,3.313 c 2.92,0.412 5.605,1.554 7.861,3.241 l 2.673,-2.013 2.8,2.793 -2.004,2.678 c 1.693,2.252 2.843,4.934 3.264,7.852 l 3.314,0.467 0.006,3.955 z" />
              </g>
            </g>
          </g>
        </g>
      </g>
    </g>
    <g
       clip-path="url(#clipPath86846)"
       id="g56503"
       transform="matrix(2.197686,0,0,-2.197686,-714.93741,2675.0741)">
      <g
         id="g56505">
        <g
           id="g56511">
          <g
             id="g56513">
            <path
               id="path56521"
               style="fill:url(#linearGradient56519);stroke:none"
               d="m 213.179,1156.451 c -9.232,-15.991 -3.754,-36.439 12.238,-45.671 v 0 c 15.991,-9.232 36.439,-3.754 45.672,12.237 v 0 c 9.232,15.991 3.753,36.439 -12.238,45.673 v 0 c -5.265,3.039 -11.014,4.484 -16.686,4.484 v 0 c -11.555,10e-4 -22.793,-5.996 -28.986,-16.723" />
          </g>
        </g>
      </g>
    </g>
    <g
       clip-path="url(#clipPath86842)"
       id="g56523"
       transform="matrix(2.197686,0,0,-2.197686,-714.93741,2675.0741)">
      <g
         id="g56525">
        <g
           id="g56531">
          <g
             id="g56533">
            <path
               id="path56541"
               style="fill:url(#linearGradient56539);stroke:none"
               d="m 242.95,1167.094 c -1.834,-1.189 -3.646,-2.615 -5.408,-4.236 v 0 l -11.083,6.399 c -0.348,-0.186 -0.698,-0.369 -1.042,-0.567 v 0 c -0.334,-0.194 -0.657,-0.398 -0.982,-0.602 v 0 l 11.588,-6.69 c -3.293,-3.302 -6.371,-7.295 -9.033,-11.752 v 0 l -13.295,7.677 c -0.355,-0.576 -0.688,-1.162 -1.007,-1.755 v 0 l 13.29,-7.674 c -2.528,-4.534 -4.447,-9.195 -5.66,-13.699 v 0 l -11.595,6.695 c -0.027,-0.777 -0.03,-1.556 -0.003,-2.335 v 0 l 11.093,-6.404 c -0.523,-2.338 -0.852,-4.62 -0.965,-6.803 v 0 c -0.245,-4.768 0.543,-8.723 2.259,-11.607 v 0 c 2.745,-2.22 5.801,-3.971 9.043,-5.214 v 0 c 3.352,-0.039 7.166,1.255 11.168,3.849 v 0 c 1.834,1.189 3.646,2.614 5.409,4.236 v 0 l 11.082,-6.399 c 0.349,0.185 0.698,0.368 1.042,0.567 v 0 c 0.335,0.193 0.658,0.398 0.983,0.601 v 0 l -11.59,6.691 c 3.294,3.302 6.371,7.294 9.035,11.751 v 0 l 13.294,-7.676 c 0.355,0.575 0.689,1.161 1.007,1.755 v 0 l -13.29,7.673 c 2.528,4.535 4.447,9.196 5.66,13.699 v 0 l 11.595,-6.694 c 0.028,0.777 0.031,1.554 0.003,2.335 v 0 l -11.093,6.404 c 0.524,2.337 0.852,4.619 0.965,6.801 v 0 c 0.246,4.77 -0.543,8.724 -2.258,11.609 v 0 c -2.746,2.22 -5.802,3.97 -9.043,5.213 v 0 c -0.049,10e-4 -0.099,10e-4 -0.149,10e-4 v 0 c -3.317,0 -7.077,-1.294 -11.02,-3.849 m -3.568,-5.299 c 1.528,1.366 3.091,2.578 4.668,3.601 v 0 c 5.158,3.343 9.858,4.332 13.382,2.86 v 0 l -7.309,-12.662 z m 12.493,-7.213 7.31,12.662 c 3.037,-2.316 4.53,-6.881 4.213,-13.019 v 0 c -0.096,-1.879 -0.364,-3.837 -0.783,-5.844 v 0 z m -23.133,-5.947 c 2.679,4.481 5.784,8.469 9.096,11.715 v 0 l 11.273,-6.509 -7.347,-12.725 z m 14.775,-8.53 7.346,12.725 11.273,-6.508 c -1.156,-4.492 -3.057,-9.174 -5.598,-13.735 v 0 z m -21.385,-6.957 c 1.156,4.492 3.057,9.173 5.599,13.735 v 0 l 13.022,-7.519 -7.348,-12.725 z m 13.025,-7.521 7.347,12.725 13.022,-7.517 c -2.679,-4.481 -5.783,-8.469 -9.095,-11.716 v 0 z m -14.288,-0.382 c 0.097,1.877 0.365,3.836 0.784,5.843 v 0 l 10.74,-6.201 -7.309,-12.663 c -3.038,2.317 -4.531,6.882 -4.215,13.021 m 5.967,-14.032 7.31,12.662 10.74,-6.2 c -1.528,-1.366 -3.09,-2.579 -4.669,-3.601 v 0 c -3.604,-2.337 -6.986,-3.524 -9.899,-3.524 v 0 c -1.254,0 -2.421,0.22 -3.482,0.663" />
          </g>
        </g>
      </g>
    </g>
    <g
       clip-path="url(#clipPath86838)"
       id="g56543"
       transform="matrix(2.197686,0,0,-2.197686,-714.93741,2675.0741)">
      <g
         id="g56545">
        <g
           id="g56551">
          <g
             id="g56553">
            <path
               id="path56561"
               style="fill:url(#linearGradient56559);stroke:none"
               d="m 236.754,1166.286 c -0.165,-0.327 -0.387,-0.265 -0.655,-0.196 v 0 c -0.393,0.102 -0.829,0.148 -1.346,0.089 v 0 c -0.162,-0.018 -0.316,-0.049 -0.407,-0.159 v 0 c -0.088,-0.103 -0.045,-0.167 0.079,-0.213 v 0 c 0.164,-0.062 0.321,-0.13 0.515,-0.212 v 0 c -0.203,-0.039 -0.34,-0.045 -0.483,-0.031 v 0 c -0.372,0.034 -0.751,0.061 -1.136,0.079 v 0 c -0.378,0.017 -0.721,-0.055 -0.949,-0.306 v 0 c -0.095,-0.103 -0.24,-0.167 -0.43,-0.207 v 0 c -0.735,-0.156 -0.794,-0.232 -0.357,-0.512 v 0 c -0.588,-0.087 -1.144,-0.088 -1.705,-0.103 v 0 c -0.162,-0.01 -0.382,0.01 -0.462,-0.119 v 0 c -0.081,-0.129 0.155,-0.134 0.29,-0.163 v 0 c 0.593,-0.13 1.286,-0.046 1.941,-0.034 v 0 c 0.214,0 0.46,0.081 0.509,-0.132 v 0 c 0.037,-0.158 1.117,-0.16 1.199,-0.02 v 0 c 0.156,0.261 0.439,0.197 0.68,0.238 v 0 c 0.272,0.046 0.587,0.131 0.777,0.024 v 0 c 0.291,-0.163 0.688,-0.151 1.072,-0.166 v 0 c 0.075,0 0.157,10e-4 0.238,0 v 0 c 0.146,0.01 0.29,0.015 0.389,-0.021 v 0 c 0.85,-0.314 1.448,-0.81 1.83,-1.48 v 0 c 0.018,-0.032 -0.015,-0.072 -0.118,-0.087 v 0 c -0.024,0.131 0.009,0.316 -0.29,0.284 v 0 c -0.179,-0.019 -0.279,-0.114 -0.346,-0.224 v 0 c -0.136,-0.225 0.133,-0.212 0.285,-0.262 v 0 c 0.227,-0.076 0.211,-0.235 0.052,-0.356 v 0 c -0.478,-0.367 -0.924,-0.743 -1.248,-1.186 v 0 c -0.043,-0.057 -0.115,-0.036 -0.179,-0.045 v 0 c -0.424,-0.063 -0.649,-0.301 -0.54,-0.592 v 0 c 0.072,-0.189 0.221,-0.337 0.444,-0.435 v 0 c -0.474,0.188 -0.509,0.179 -1.013,-0.117 v 0 c -0.78,-0.462 -1.709,-0.659 -2.514,-1.079 v 0 c -0.581,-0.302 -0.992,-0.599 -1.215,-1.078 v 0 c -0.141,-0.305 -0.261,-0.619 -0.426,-0.92 v 0 c -0.132,-0.241 -0.137,-0.448 0.047,-0.663 v 0 c 0.204,-0.238 0.188,-0.486 -0.014,-0.743 v 0 c -0.142,-0.18 -0.36,-0.361 -0.332,-0.578 v 0 c 0.075,-0.597 -0.739,-1.089 -0.28,-1.743 v 0 c 0.029,-0.043 -0.054,-0.154 -0.101,-0.225 v 0 c -0.186,-0.286 -0.059,-0.573 0.022,-0.855 v 0 c 0.043,-0.148 0.209,-0.232 0.376,-0.214 v 0 c 0.165,0.019 0.204,0.16 0.207,0.295 v 0 c 0.019,0.806 0.516,1.527 0.492,2.321 v 0 c -0.005,0.14 0.004,0.397 0.291,0.326 v 0 c 0.202,-0.05 0.094,-0.244 0.039,-0.393 v 0 c -0.301,-0.817 -0.331,-1.658 -0.184,-2.533 v 0 c 0.084,-0.504 0.173,-1.031 -0.354,-1.43 v 0 c -0.19,-0.145 -0.204,-0.367 -0.131,-0.604 v 0 c 0.245,-0.804 0.856,-1.414 1.342,-2.098 v 0 c 0.251,-0.352 0.493,-0.724 0.996,-0.77 v 0 c 0.404,-0.037 0.588,-0.291 0.618,-0.636 v 0 c 0.06,-0.706 0.481,-1.175 1.04,-1.556 v 0 c 0.167,-0.114 0.216,-0.229 0.183,-0.428 v 0 c -0.063,-0.371 -0.043,-0.777 -0.012,-1.128 v 0 c 0.069,-0.756 0.503,-1.421 1.08,-1.954 v 0 c 0.137,-0.128 0.315,-0.217 0.481,10e-4 v 0 c 0.099,0.127 0.249,0.137 0.378,0.044 v 0 c 0.158,-0.115 0.069,-0.252 0,-0.375 v 0 c -0.081,-0.143 -0.076,-0.3 -0.091,-0.456 v 0 c -0.059,-0.592 -0.332,-1.027 -0.9,-1.245 v 0 c -0.331,-0.127 -0.677,-0.231 -0.979,-0.409 v 0 c -0.437,-0.258 -1.008,-0.435 -1.018,-1.081 v 0 c -0.003,-0.223 -0.063,-0.293 -0.217,-0.382 v 0 c -0.51,-0.291 -0.685,-0.794 -0.493,-1.387 v 0 c 0.08,-0.246 0.089,-0.492 0.083,-0.749 v 0 c -0.018,-0.644 -0.253,-1.271 -0.111,-1.926 v 0 c 0.042,-0.199 0.112,-0.42 0.069,-0.605 v 0 c -0.158,-0.684 0.036,-1.235 0.387,-1.807 v 0 c 0.464,-0.756 0.784,-1.589 0.372,-2.509 v 0 c -0.289,-0.648 -0.763,-1.185 -1.063,-1.843 v 0 c -0.276,-0.606 -0.619,-1.191 -0.877,-1.811 v 0 c -0.305,-0.73 -0.515,-1.488 -1.054,-2.124 v 0 c -0.457,-0.54 -0.694,-1.264 -0.748,-1.913 v 0 c -0.039,-0.474 -0.005,-0.952 -0.109,-1.436 v 0 c -0.051,-0.241 -0.081,-0.435 -0.383,-0.479 v 0 c -0.245,-0.035 -0.384,-0.252 -0.288,-0.468 v 0 c 0.176,-0.391 0.023,-0.794 -0.041,-1.203 v 0 c -0.112,-0.72 -0.15,-1.418 0.405,-1.833 v 0 c 0.179,-0.133 0.323,-0.262 0.111,-0.571 v 0 c -0.101,-0.147 -0.002,-0.273 0.069,-0.398 v 0 c 0.248,-0.435 0.761,-0.478 1.214,-0.616 v 0 c 0.076,-0.022 0.158,-0.042 0.24,0.046 v 0 c 0.099,0.104 0.062,0.19 0.005,0.251 v 0 c -0.303,0.329 -0.318,0.862 -0.682,1.171 v 0 c -0.052,0.044 -0.04,0.113 -0.019,0.189 v 0 c 0.095,0.358 0.222,0.663 0.616,0.905 v 0 c 0.494,0.301 0.596,0.597 0.494,1.075 v 0 c -0.03,0.14 -0.118,0.348 0.092,0.416 v 0 c 0.364,0.116 0.501,0.47 0.801,0.642 v 0 c 0.184,0.105 0.255,0.272 0.173,0.454 v 0 c -0.04,0.09 -0.129,0.172 -0.024,0.301 v 0 c 0.456,-0.283 0.633,-0.248 0.942,0.245 v 0 c 0.157,0.25 0.266,0.275 0.499,0.173 v 0 c 0.884,-0.381 1.523,0.02 1.603,1.011 v 0 c 10e-4,0.019 0.037,0.04 0.057,0.059 v 0 c 0.75,-0.417 0.861,-0.385 1.717,0.103 v 0 c 0.558,0.318 1.082,0.667 1.598,1.041 v 0 c 0.373,0.272 0.728,0.531 0.896,0.932 v 0 c 0.049,0.118 0.083,0.226 0.228,0.263 v 0 c 0.649,0.17 1.318,0.266 1.909,0.045 v 0 c 0.439,-0.164 0.81,-0.099 1.165,0.159 v 0 c 0.947,0.691 1.822,1.421 2.273,2.433 v 0 c 0.053,0.12 0.165,0.205 0.281,0.232 v 0 c 0.611,0.144 1.099,0.515 1.676,0.714 v 0 c 0.595,0.204 0.98,0.581 1.165,1.127 v 0 c 0.09,0.266 0.067,0.453 -0.18,0.64 v 0 c -0.308,0.234 -0.535,0.546 -0.595,0.909 v 0 c -0.066,0.385 -0.314,0.62 -0.637,0.805 v 0 c -0.338,0.19 -0.598,0.482 -0.973,0.623 v 0 c -0.085,0.032 -0.171,0.073 -0.147,0.195 v 0 c 0.109,0.552 -0.258,0.861 -0.697,1.073 v 0 c -0.398,0.193 -0.254,0.719 -0.662,0.878 v 0 c 0.015,0.027 0.021,0.061 0.043,0.08 v 0 c 0.279,0.251 0.176,0.601 0.257,0.905 v 0 c 0.258,0.971 0.031,1.526 -0.881,2.024 v 0 c -0.514,0.281 -0.743,0.715 -0.774,1.248 v 0 c -0.017,0.292 -0.074,0.563 -0.21,0.8 v 0 c -0.202,0.352 -0.039,0.556 0.25,0.651 v 0 c 0.427,0.138 0.278,0.258 0.031,0.416 v 0 c -0.036,-0.01 -0.072,-0.018 -0.108,-0.027 v 0 c -0.048,-0.036 -0.096,-0.104 -0.144,-0.105 v 0 c -0.618,0 -1.105,0.318 -1.567,0.673 v 0 c -0.326,0.249 -0.579,0.566 -0.678,0.983 v 0 c -0.1,0.42 -0.721,0.268 -0.813,0.765 v 0 c -0.036,0.19 -0.365,0.324 -0.649,0.247 v 0 c -0.135,-0.037 -0.305,-0.116 -0.41,-0.069 v 0 c -0.467,0.215 -0.837,0.056 -1.219,-0.205 v 0 c -0.191,-0.131 -0.419,-0.151 -0.546,0.126 v 0 c -0.185,0.4 -0.555,0.553 -0.936,0.631 v 0 c -0.4,0.083 -0.52,0.324 -0.585,0.68 v 0 c -0.113,0.612 0.348,0.927 0.643,1.323 v 0 c 0.604,0.809 0.484,1.204 -0.503,1.538 v 0 c -0.044,0.014 -0.095,0.012 -0.139,0.027 v 0 c -0.307,0.107 -0.398,0.234 -0.074,0.453 v 0 c 0.424,0.289 0.835,0.596 1.247,0.906 v 0 c 0.21,0.157 0.397,0.348 0.162,0.609 v 0 c -0.359,0.396 -1.042,0.455 -1.523,0.169 v 0 c -0.424,-0.253 -0.872,-0.235 -1.313,-0.049 v 0 c -0.405,0.17 -0.515,0.511 -0.504,0.895 v 0 c 0.017,0.59 0.236,1.057 0.713,1.488 v 0 c 0.733,0.662 1.459,1.201 2.574,1.03 v 0 c 0.355,-0.055 0.645,-0.052 0.884,-0.362 v 0 c 0.266,-0.346 0.572,-0.725 1.172,-0.415 v 0 c 0.212,0.11 0.446,0.022 0.624,-0.181 v 0 c 0.158,-0.178 0.27,-0.401 0.506,-0.519 v 0 c 0.383,-0.192 0.441,-0.49 0.201,-0.837 v 0 c -0.214,-0.306 -0.287,-0.65 -0.345,-0.999 v 0 c -0.03,-0.174 0.039,-0.326 0.204,-0.432 v 0 c 0.181,-0.117 0.324,-0.047 0.476,0.054 v 0 c 0.277,0.188 0.376,0.479 0.516,0.759 v 0 c 0.212,0.424 0.238,0.969 0.829,1.166 v 0 c 0.625,0.207 1.256,0.253 1.889,0.238 v 0 c 0.426,-0.01 0.859,-0.035 1.169,0.32 v 0 c 0.262,0.298 0.486,0.595 0.924,0.657 v 0 c 0.643,0.089 1.274,0.331 1.916,0.229 v 0 c 0.447,-0.071 0.875,-0.243 1.261,0.182 v 0 c 0.054,0.06 0.2,0.046 0.301,0.038 v 0 c 0.412,-0.035 0.821,-0.083 1.231,-0.129 v 0 c -0.151,-0.441 -0.12,-0.621 0.183,-0.687 v 0 c 0.558,-0.12 1.12,-0.195 1.675,-0.276 v 0 c 0.125,-0.019 0.272,0.024 0.323,0.182 v 0 c 0.062,0.192 -0.102,0.237 -0.2,0.317 v 0 c -0.148,0.121 -0.344,0.156 -0.45,0.359 v 0 c -0.13,0.249 -0.176,0.445 0.142,0.543 v 0 c 0.198,0.062 0.407,0.146 0.447,0.393 v 0 c 0.043,0.272 -0.239,0.271 -0.35,0.418 v 0 c -0.012,0.016 -0.002,0.052 -0.002,0.093 v 0 c 0.375,-0.095 0.737,-0.167 1.03,-0.502 v 0 c 0.183,-0.209 0.44,-0.337 0.708,-0.42 v 0 c 0.24,-0.074 0.495,-0.137 0.704,-0.336 v 0 c -0.326,-0.103 -0.632,-0.196 -0.938,-0.295 v 0 c -0.198,-0.065 -0.321,-0.211 -0.131,-0.406 v 0 c 0.402,-0.415 0.833,-0.797 1.354,-0.995 v 0 c 0.169,-0.064 0.354,-0.201 0.479,0.051 v 0 c 0.1,0.205 0.096,0.419 -0.017,0.642 v 0 c -0.234,0.457 -0.088,0.865 0.329,0.978 v 0 c 0.235,0.064 0.435,0.191 0.499,0.486 v 0 c 0.069,0.316 -0.113,0.479 -0.312,0.618 v 0 c -0.14,0.097 -0.138,0.237 -0.139,0.417 v 0 c -0.006,0.612 0.255,1.107 0.432,1.639 v 0 c 0.145,0.435 0.032,0.66 -0.355,0.642 v 0 c -0.199,-0.01 -0.399,-0.065 -0.599,-0.066 v 0 c -0.315,0 -0.378,0.146 -0.219,0.476 v 0 c 0.251,0.521 0.231,0.891 -0.116,1.28 v 0 c -0.201,0.224 -0.409,0.442 -0.662,0.598 v 0 c -0.29,0.179 -0.563,0.187 -0.851,-0.044 v 0 c -0.163,-0.131 -0.328,-0.289 -0.53,-0.292 v 0 c -0.279,0 -0.447,-0.153 -0.569,-0.422 v 0 c -0.167,-0.373 -0.491,-0.565 -0.816,-0.541 v 0 c -0.641,0.047 -1.221,-0.022 -1.713,-0.597 v 0 c -0.123,-0.145 -0.391,-0.198 -0.509,-0.01 v 0 c -0.109,0.174 -0.013,0.375 0.182,0.512 v 0 c 0.138,0.095 0.268,0.212 0.378,0.34 v 0 c 0.088,0.101 0.219,0.268 0.098,0.367 v 0 c -0.448,0.367 -0.567,0.995 -0.99,1.347 v 0 c -0.314,0.261 -0.396,0.578 -0.259,0.939 v 0 c 0.125,0.33 0.469,0.284 0.741,0.318 v 0 c 0.517,0.065 1.031,0.127 1.514,0.019 v 0 c 0.101,-0.024 0.186,0.027 0.268,0.076 v 0 c 0.098,0.06 0.191,0.119 0.3,0.055 v 0 c 0.266,-0.159 0.57,-0.208 0.861,-0.291 v 0 c 0.076,-0.021 0.191,-0.061 0.172,-0.16 v 0 c -0.068,-0.367 0.202,-0.403 0.387,-0.466 v 0 c 0.183,-0.062 0.317,-0.149 0.417,-0.321 v 0 c 0.105,-0.182 0.255,-0.32 0.44,-0.145 v 0 c 0.177,0.168 0.309,0.403 0.144,0.663 v 0 c -0.108,0.169 -0.232,0.324 -0.366,0.509 v 0 c 0.234,-0.02 0.389,-0.15 0.532,-0.27 v 0 c 0.438,-0.369 0.886,-0.243 1.328,0.019 v 0 c 0.289,0.171 0.316,0.496 0.068,0.703 v 0 c -0.29,0.243 -0.591,0.429 -0.991,0.204 v 0 c -0.106,-0.06 -0.235,-0.103 -0.3,-0.044 v 0 c 0.073,0.522 -0.306,0.99 0.076,1.484 v 0 c 0.059,0.076 -0.347,0.14 -0.136,0.332 v 0 c 0.081,0.074 0.07,-0.025 0.078,-0.124 v 0 c 0.006,-0.078 0.023,-0.155 0.108,-0.149 v 0 c 0.035,0 0.065,-0.048 0.102,-0.059 v 0 c 0.324,-0.098 0.647,-0.197 0.967,-0.298 v 0 c 0.034,0.011 0.068,0.022 0.102,0.033 v 0 c 0.167,0.274 0.117,0.456 -0.102,0.608 v 0 c -0.188,0.129 -0.399,0.188 -0.605,0.268 v 0 c -0.091,0.036 -0.245,-0.039 -0.268,0.118 v 0 c -0.043,0.3 -0.266,0.297 -0.458,0.375 v 0 c -0.143,0.057 -0.292,0.054 -0.441,0.05 v 0 c -0.079,0 -0.158,0 -0.235,0 v 0 c -0.157,0.014 -0.297,0.297 -0.461,0.042 v 0 c -0.155,-0.239 0.053,-0.442 0.124,-0.647 v 0 c 0.036,-0.106 0.177,-0.157 0.269,-0.232 v 0 c -0.27,-0.208 -0.509,-0.21 -0.758,-0.019 v 0 c -0.163,0.124 -0.381,0.157 -0.58,-0.048 v 0 c -0.194,-0.199 -0.067,-0.365 0.004,-0.558 v 0 c -0.219,0.589 -0.963,0.474 -1.259,1.035 v 0 c 0.345,-0.239 0.69,-0.283 1.051,-0.244 v 0 c 0.238,0.026 0.394,0.17 0.299,0.431 v 0 c -0.06,0.164 -0.034,0.27 0.117,0.38 v 0 c 0.143,0.105 0.281,0.253 0.234,0.417 v 0 c -0.054,0.182 -0.24,0.234 -0.419,0.261 v 0 c -0.031,0 -0.066,0 -0.101,-0.015 v 0 c -0.075,-0.022 -0.15,-0.043 -0.174,0.08 v 0 c -0.045,0.22 -0.216,0.251 -0.41,0.24 v 0 c -0.271,-0.015 -0.375,0.167 -0.457,0.368 v 0 c -0.227,0.556 -0.627,0.885 -1.239,1.012 v 0 c -0.448,0.092 -0.931,-0.047 -1.401,-0.066 v 0 c -0.209,-0.01 -0.408,-0.063 -0.487,-0.29 v 0 c -0.077,-0.227 0.046,-0.349 0.242,-0.425 v 0 c 0.131,-0.051 0.277,-0.049 0.422,-0.046 v 0 c 0.089,10e-4 0.178,0 0.263,-0.01 v 0 c 0.236,-0.03 0.241,-0.021 0.13,-0.23 v 0 c -0.057,-0.104 -0.014,-0.164 0.061,-0.202 v 0 c 0.129,-0.067 0.262,-0.125 0.393,-0.187 v 0 c -0.168,0.034 -0.312,0.108 -0.462,0.169 v 0 c -0.096,0.04 -0.201,0.119 -0.321,0 v 0 c -0.127,-0.126 -0.073,-0.24 -0.006,-0.342 v 0 c 0.112,-0.174 0.201,-0.37 0.345,-0.461 v 0 c -0.167,0.05 -0.523,-0.016 -0.474,0.167 v 0 c 0.099,0.38 -0.201,0.424 -0.32,0.605 v 0 c -0.405,0.622 -1.201,0.815 -1.812,1.196 v 0 c -0.424,0.264 -1.077,0.317 -1.702,0.338 v 0 c -0.332,0.012 -0.678,0.04 -0.905,0.208 v 0 c -0.592,0.439 -1.295,0.755 -1.948,1.102 v 0 c -0.886,0.47 -1.962,0.653 -3.146,0.752 v 0 c -0.317,0.024 -0.658,0.01 -1,-0.01 v 0 c -0.458,-0.022 -0.919,-0.045 -1.324,0.034 v 0 c -0.04,0.01 -0.083,0.011 -0.128,0.011 v 0 c -0.203,0 -0.433,-0.079 -0.518,-0.244" />
          </g>
        </g>
      </g>
    </g>
    <g
       clip-path="url(#clipPath86834)"
       id="g56563"
       transform="matrix(2.197686,0,0,-2.197686,-714.93741,2675.0741)">
      <g
         id="g56565">
        <g
           id="g56571">
          <g
             id="g56573">
            <path
               id="path56581"
               style="fill:url(#linearGradient56579);stroke:none"
               d="m 261.692,1158.255 c -0.087,-0.244 -0.076,-0.407 0.068,-0.617 v 0 c 0.168,-0.249 0.358,-0.441 0.564,-0.589 v 0 c 0.514,-0.37 0.721,-0.894 0.656,-1.713 v 0 c -0.026,-0.324 -0.1,-0.612 0.023,-0.97 v 0 c 0.077,-0.228 -0.037,-0.406 -0.196,-0.472 v 0 c -0.151,-0.063 -0.308,-0.054 -0.472,-0.032 v 0 c -0.377,0.049 -0.648,-0.166 -0.754,-0.692 v 0 c -0.024,-0.114 -0.062,-0.198 -0.114,-0.286 v 0 c -0.514,-0.873 -0.252,-1.6 0.354,-2.352 v 0 c 0.297,-0.37 0.625,-0.368 0.933,-0.142 v 0 c 0.615,0.449 1.235,0.611 1.922,-0.022 v 0 c 0.299,-0.274 0.592,-0.324 0.887,-0.315 v 0 c 0.19,0.01 0.401,-0.016 0.588,-0.216 v 0 c 0.614,-0.656 1.222,-1.264 1.838,-1.304 v 0 c 0.197,-0.013 0.272,0.101 0.163,0.49 v 0 c -0.047,0.17 -0.118,0.331 -0.207,0.577 v 0 c 0.126,-0.103 0.217,-0.188 0.309,-0.253 v 0 c 0.437,-0.313 0.791,-0.281 1.014,0.145 v 0 c 0.142,0.268 0.279,0.356 0.518,0.04 v 0 c 0.11,-0.147 0.22,-0.284 0.33,-0.411 v 0 c 0.094,-0.109 0.176,-0.128 0.188,0.06 v 0 c 0.012,0.188 -0.082,0.31 -0.144,0.404 v 0 c -0.255,0.39 -0.507,0.772 -0.706,1.405 v 0 c -0.085,0.272 -0.241,0.466 -0.361,0.708 v 0 c -0.302,0.608 -0.657,0.93 -0.978,1.407 v 0 c -0.44,0.659 -0.901,1.11 -1.382,1.591 v 0 c -0.399,0.401 -0.832,0.715 -1.201,1.297 v 0 c -0.589,0.932 -1.243,1.547 -2.046,1.696 v 0 c -0.302,0.056 -0.597,0.156 -0.884,0.356 v 0 c -0.174,0.122 -0.341,0.26 -0.517,0.38 v 0 c -0.061,0.042 -0.118,0.067 -0.171,0.067 v 0 c -0.087,0 -0.161,-0.067 -0.222,-0.237" />
          </g>
        </g>
      </g>
    </g>
    <g
       clip-path="url(#clipPath86830)"
       id="g56583"
       transform="matrix(2.197686,0,0,-2.197686,-714.93741,2675.0741)">
      <g
         id="g56585">
        <g
           id="g56591">
          <g
             id="g56593">
            <path
               id="path56601"
               style="fill:url(#linearGradient56599);stroke:none"
               d="m 256.721,1160.288 c -0.034,-0.011 -0.068,-0.022 -0.102,-0.033 v 0 c -0.264,-0.058 -0.524,-0.169 -0.572,-0.524 v 0 c -0.044,-0.334 0.204,-0.453 0.399,-0.601 v 0 c 0.792,-0.596 1.85,-0.913 1.711,-2.524 v 0 c -0.002,-0.016 -0.005,-0.031 -0.015,-0.108 v 0 c -0.172,0.331 -0.412,0.574 -0.684,0.473 v 0 c -0.414,-0.154 -0.684,0.086 -0.99,0.303 v 0 c -0.178,0.125 -0.411,0.289 -0.549,-0.05 v 0 c -0.141,-0.342 0.145,-0.407 0.327,-0.515 v 0 c 0.045,-0.027 0.103,-0.028 0.155,-0.039 v 0 c 0.278,-0.055 0.369,-0.24 0.382,-0.59 v 0 c 0.024,-0.616 0.31,-1.046 0.765,-1.354 v 0 c 0.119,-0.081 0.207,-0.028 0.289,0.025 v 0 c 0.071,0.047 0.137,0.094 0.215,0.052 v 0 c 0.257,-0.143 0.393,0.023 0.503,0.266 v 0 c 0.073,0.162 0.128,0.336 0.207,0.541 v 0 c 0.119,-0.2 0.207,-0.384 0.323,-0.531 v 0 c 0.198,-0.25 0.44,-0.3 0.651,-0.084 v 0 c 0.19,0.196 0.251,0.467 0.081,0.78 v 0 c -0.141,0.261 -0.185,0.538 -0.036,0.825 v 0 c 0.035,0.065 0.08,0.191 0.06,0.22 v 0 c -0.302,0.467 -0.378,1.136 -0.688,1.524 v 0 c -0.204,0.256 -0.451,0.419 -0.552,0.8 v 0 c -0.072,0.271 -0.299,0.357 -0.49,0.47 v 0 c -0.077,0.045 -0.203,0.046 -0.234,0.119 v 0 c -0.214,0.508 -0.589,0.557 -0.992,0.557 v 0 c -0.054,0 -0.109,-10e-4 -0.164,0" />
          </g>
        </g>
      </g>
    </g>
    <g
       clip-path="url(#clipPath86826)"
       id="g56603"
       transform="matrix(2.197686,0,0,-2.197686,-714.93741,2675.0741)">
      <g
         id="g56605">
        <g
           id="g56611">
          <g
             id="g56613">
            <path
               id="path56621"
               style="fill:url(#linearGradient56619);stroke:none"
               d="m 257.491,1161.083 c -0.159,-0.044 -0.262,-0.167 -0.306,-0.352 v 0 c -0.043,-0.186 0.091,-0.228 0.178,-0.303 v 0 c 0.435,-0.374 0.867,-0.754 1.292,-1.151 v 0 c 0.228,-0.213 0.488,-0.348 0.762,-0.244 v 0 c 0.121,0.046 0.226,0.036 0.33,0.027 v 0 c 0.048,0 0.095,-0.01 0.143,-0.01 v 0 c 0.269,0 0.528,-0.069 0.781,-0.139 v 0 c 0.253,-0.07 0.502,-0.141 0.756,-0.139 v 0 c 0.235,0 0.446,-0.084 0.657,-0.233 v 0 c 0.61,-0.432 1.242,-0.65 1.858,-0.772 v 0 c 0.087,-0.017 0.171,-0.013 0.207,0.134 v 0 c 0.043,0.176 -0.051,0.244 -0.117,0.324 v 0 c -0.052,0.063 -0.106,0.13 -0.165,0.166 v 0 c -0.702,0.428 -1.323,1.168 -2.041,1.622 v 0 c -0.381,0.241 -0.758,0.505 -1.146,0.745 v 0 c -0.081,0.051 -0.178,0.145 -0.243,-0.026 v 0 c -0.031,-0.082 -0.019,-0.14 0.01,-0.185 v 0 c -0.29,0.15 -0.634,0 -0.843,-0.122 v 0 c -0.349,-0.204 -0.424,0.026 -0.612,0.152 v 0 c -0.108,0.072 -0.225,0.268 -0.355,0.077 v 0 c -0.134,-0.193 -0.01,-0.375 0.093,-0.494 v 0 c 0.087,-0.099 0.183,-0.181 0.283,-0.256 v 0 c -0.339,0.225 -0.674,0.46 -0.881,0.918 v 0 c -0.085,0.19 -0.258,0.285 -0.456,0.285 v 0 c -0.06,0 -0.122,-0.01 -0.185,-0.026 m 3.285,-0.921 c -0.022,0.049 -0.045,0.093 -0.069,0.133 v 0 c 0.144,-0.166 0.271,-0.364 0.439,-0.488 v 0 c -0.139,0.092 -0.29,0.173 -0.37,0.355" />
          </g>
        </g>
      </g>
    </g>
    <g
       clip-path="url(#clipPath86822)"
       id="g56623"
       transform="matrix(2.197686,0,0,-2.197686,-714.93741,2675.0741)">
      <g
         id="g56625">
        <g
           id="g56631">
          <g
             id="g56633">
            <path
               id="path56641"
               style="fill:url(#linearGradient56639);stroke:none"
               d="m 238.957,1146.725 c -0.045,-0.293 0.257,-0.306 0.463,-0.331 v 0 c 0.503,-0.062 0.752,-0.368 0.939,-0.796 v 0 c 0.111,-0.254 0.077,-0.621 0.225,-0.754 v 0 c 0.337,-0.303 0.671,-0.665 1.149,-0.776 v 0 c 0.125,-0.028 0.276,-0.099 0.387,0.06 v 0 c 0.109,0.154 0.07,0.292 -0.027,0.431 v 0 c -0.152,0.215 -0.343,0.413 -0.445,0.65 v 0 c -0.269,0.625 -0.693,1.088 -1.383,1.432 v 0 c -0.191,0.071 -0.405,0.303 -0.727,0.312 v 0 c -0.083,0 -0.174,0.014 -0.259,0.014 v 0 c -0.155,0 -0.29,-0.039 -0.322,-0.242" />
          </g>
        </g>
      </g>
    </g>
    <g
       clip-path="url(#clipPath86818)"
       id="g56643"
       transform="matrix(2.197686,0,0,-2.197686,-714.93741,2675.0741)">
      <g
         id="g56645">
        <g
           id="g56651">
          <g
             id="g56653">
            <path
               id="path56661"
               style="fill:url(#linearGradient56659);stroke:none"
               d="m 267.035,1147.095 c 0.193,-0.318 0.296,-0.751 0.6,-1.076 v 0 c 0.274,-0.178 0.611,-0.537 0.945,-0.643 v 0 c 0.126,-0.041 0.245,-0.055 0.261,0.195 v 0 c 0.015,0.242 -0.079,0.476 -0.195,0.617 v 0 c -0.429,0.525 -0.865,1.037 -1.345,1.292 v 0 c -0.019,0.01 -0.039,0.015 -0.059,0.015 v 0 c -0.148,0 -0.291,-0.263 -0.207,-0.4" />
          </g>
        </g>
      </g>
    </g>
    <g
       clip-path="url(#clipPath86814)"
       id="g56663"
       transform="matrix(2.197686,0,0,-2.197686,-714.93741,2675.0741)">
      <g
         id="g56665">
        <g
           id="g56671">
          <g
             id="g56673">
            <path
               id="path56681"
               style="fill:url(#linearGradient56679);stroke:none"
               d="m 242.113,1143.773 c -0.207,-0.179 -0.345,-0.141 -0.535,-0.033 v 0 c -0.103,0.057 -0.23,0.154 -0.333,0.017 v 0 c -0.113,-0.148 -0.001,-0.286 0.103,-0.361 v 0 c 0.578,-0.412 1.147,-0.851 1.889,-0.938 v 0 c 0.117,-0.013 0.241,-0.075 0.341,0.06 v 0 c 0.105,0.143 0.038,0.264 -0.022,0.392 v 0 c -0.153,0.332 -0.441,0.512 -0.794,0.693 v 0 c -0.146,0.025 -0.29,0.248 -0.469,0.248 v 0 c -0.056,0 -0.116,-0.022 -0.18,-0.078" />
          </g>
        </g>
      </g>
    </g>
    <g
       clip-path="url(#clipPath86810)"
       id="g56683"
       transform="matrix(2.197686,0,0,-2.197686,-714.93741,2675.0741)">
      <g
         id="g56685">
        <g
           id="g56691">
          <g
             id="g56693">
            <path
               id="path56701"
               style="fill:url(#linearGradient56699);stroke:none"
               d="m 258.539,1161.537 c -0.091,-0.243 0.097,-0.281 0.177,-0.392 v 0 c 0.08,-0.111 0.174,-0.204 0.263,-0.306 v 0 c 0.177,-0.178 0.387,-0.158 0.595,-0.154 v 0 c 0.137,0 0.234,0.058 0.295,0.232 v 0 c 0.074,0.211 -0.008,0.344 -0.11,0.452 v 0 c -0.225,0.237 -0.498,0.339 -0.793,0.372 v 0 c -0.047,0.01 -0.096,0.011 -0.143,0.011 v 0 c -0.111,0 -0.216,-0.036 -0.284,-0.215" />
          </g>
        </g>
      </g>
    </g>
    <g
       clip-path="url(#clipPath86806)"
       id="g56703"
       transform="matrix(2.197686,0,0,-2.197686,-714.93741,2675.0741)">
      <g
         id="g56705">
        <g
           id="g56711">
          <g
             id="g56713">
            <path
               id="path56721"
               style="fill:url(#linearGradient56719);stroke:none"
               d="m 242.146,1147.337 c -0.151,-0.232 -0.376,-0.393 -0.512,-0.625 v 0 c -0.106,-0.184 -0.07,-0.364 0.086,-0.499 v 0 c 0.186,-0.159 0.314,-0.043 0.407,0.123 v 0 c 0.08,0.143 0.229,0.193 0.355,0.193 v 0 c 0.261,0 0.42,0.111 0.476,0.347 v 0 c 0.059,0.253 -0.197,0.27 -0.326,0.386 v 0 c -0.116,0.029 -0.242,0.161 -0.354,0.161 v 0 c -0.047,0 -0.092,-0.023 -0.132,-0.086" />
          </g>
        </g>
      </g>
    </g>
    <g
       clip-path="url(#clipPath86802)"
       id="g56723"
       transform="matrix(2.197686,0,0,-2.197686,-714.93741,2675.0741)">
      <g
         id="g56725">
        <g
           id="g56731">
          <g
             id="g56733">
            <path
               id="path56741"
               style="fill:url(#linearGradient56739);stroke:none"
               d="m 244.998,1140.485 c -0.088,-0.137 0.025,-0.234 0.074,-0.342 v 0 c 0.133,-0.292 0.145,-0.522 -0.213,-0.677 v 0 c -0.233,-0.103 -0.43,-0.287 -0.647,-0.429 v 0 c -0.221,-0.145 -0.263,-0.296 -0.033,-0.47 v 0 c 0.036,0.01 0.072,0.018 0.108,0.027 v 0 c 0.186,0.325 0.538,0.531 0.829,0.608 v 0 c 0.624,0.165 0.364,0.658 0.472,0.999 v 0 c 0.056,0.177 -0.202,0.243 -0.346,0.323 v 0 c -0.039,0.022 -0.08,0.037 -0.119,0.037 v 0 c -0.046,0 -0.09,-0.02 -0.125,-0.076" />
          </g>
        </g>
      </g>
    </g>
    <g
       clip-path="url(#clipPath86798)"
       id="g56743"
       transform="matrix(2.197686,0,0,-2.197686,-714.93741,2675.0741)">
      <g
         id="g56745">
        <g
           id="g56751">
          <g
             id="g56753">
            <path
               id="path56761"
               style="fill:url(#linearGradient56759);stroke:none"
               d="m 210.902,1171.279 c 0,0 -3.286,3.263 -11.817,3.823 v 0 l -0.413,-1.184 c 0,0 12.32,-7.421 14.156,-6.861 v 0 c 1.641,0.5 8.829,11.167 8.829,11.167 v 0 l -6.528,3.687 z" />
          </g>
        </g>
      </g>
    </g>
    <g
       clip-path="url(#clipPath86794)"
       id="g56763"
       transform="matrix(2.197686,0,0,-2.197686,-714.93741,2675.0741)">
      <g
         id="g56765">
        <g
           id="g56771">
          <g
             id="g56773">
            <path
               id="path56781"
               style="fill:url(#linearGradient56779);stroke:none"
               d="m 195.961,1171.412 c 0,0 1.605,1.422 2.711,2.506 v 0 l 0.413,1.184 -1.55,0.833 z" />
          </g>
        </g>
      </g>
    </g>
    <g
       clip-path="url(#clipPath86790)"
       id="g56783"
       transform="matrix(2.197686,0,0,-2.197686,-714.93741,2675.0741)">
      <g
         id="g56785">
        <g
           id="g56791">
          <g
             id="g56793">
            <path
               id="path56801"
               style="fill:url(#linearGradient56799);stroke:none"
               d="m 246.675,1182.411 -0.007,-1.167 1.727,-0.531 3.413,2.93 z" />
          </g>
        </g>
      </g>
    </g>
    <g
       clip-path="url(#clipPath86786)"
       id="g56803"
       transform="matrix(2.197686,0,0,-2.197686,-714.93741,2675.0741)">
      <g
         id="g56805">
        <g
           id="g56811">
          <g
             id="g56813">
            <path
               id="path56821"
               style="fill:url(#linearGradient56819);stroke:none"
               d="m 212.395,1198.87 c -2.436,-0.415 -8.172,-4.997 -8.172,-4.997 v 0 l 0.753,-1.295 7.698,2.717 5.457,-3.752 -3.889,-9.132 7.407,-4.182 6.18,7.663 c 0,0 9.455,-2.901 10.925,-1.945 v 0 c 1.279,0.832 3.189,8.707 3.189,8.707 v 0 l -1.386,0.566 -3.236,-5.218 -5.736,3.106 -10.346,5.973 c 0,0 -5.562,1.835 -8.214,1.835 v 0 c -0.235,0 -0.446,-0.015 -0.63,-0.046" />
          </g>
        </g>
      </g>
    </g>
    <g
       clip-path="url(#clipPath86782)"
       id="g56823"
       transform="matrix(2.197686,0,0,-2.197686,-714.93741,2675.0741)">
      <g
         id="g56825">
        <g
           id="g56831">
          <g
             id="g56833">
            <path
               id="path56841"
               style="fill:url(#linearGradient56839);stroke:none"
               d="m 222.268,1193.243 1.065,-2.321 -1.303,-1.585 2.289,-4.334 3.334,2.65 -0.105,1.534 1.441,1.33 0.277,1.929 -0.869,0.502 -3.775,2.18 -0.699,0.403 z" />
          </g>
        </g>
      </g>
    </g>
    <g
       clip-path="url(#clipPath86778)"
       id="g56843"
       transform="matrix(2.197686,0,0,-2.197686,-714.93741,2675.0741)">
      <g
         id="g56845">
        <g
           id="g56851">
          <g
             id="g56853">
            <path
               id="path56863"
               style="fill:url(#linearGradient56861);stroke:none"
               d="m 226.832,1199.991 c -0.795,-0.631 -1.725,-3.329 -2.21,-4.863 v 0 l -0.303,-10.125 4.078,7.945 1.261,-0.087 0.851,6.781 c 0,0 -1.398,0.663 -2.575,0.663 v 0 c -0.42,0 -0.812,-0.085 -1.102,-0.314" />
          </g>
        </g>
      </g>
    </g>
    <g
       clip-path="url(#clipPath86774)"
       id="g56865"
       transform="matrix(2.197686,0,0,-2.197686,-714.93741,2675.0741)">
      <g
         id="g56867">
        <g
           id="g56873">
          <g
             id="g56875">
            <path
               id="path56883"
               style="fill:url(#linearGradient56881);stroke:none"
               d="m 226.832,1199.991 c -0.687,-0.546 -1.518,-2.755 -2.044,-4.337 v 0 l 1.262,0.873 c 0,0 -0.758,0.552 -0.314,0.879 v 0 c 0.445,0.327 0.658,-0.161 0.658,-0.161 v 0 l 1.21,1.923 2.819,-0.212 0.086,0.686 c 0,0 -1.398,0.663 -2.575,0.663 v 0 c -0.42,0 -0.812,-0.085 -1.102,-0.314" />
          </g>
        </g>
      </g>
    </g>
    <g
       clip-path="url(#clipPath86770)"
       id="g56885"
       transform="matrix(2.197686,0,0,-2.197686,-714.93741,2675.0741)">
      <g
         clip-path="url(#clipPath56891)"
         id="g56887">
        <g
           id="g56893">
          <g
             id="g56895" />
          <g
             mask="url(#mask56907)"
             id="g56919">
            <g
               id="g56921">
              <path
                 id="path56929"
                 style="fill:url(#linearGradient56927);stroke:none"
                 d="m 227.711,1191.543 0.686,1.405 c 0,0 -1.521,1.994 -1.224,3.48 v 0 c 0,0 -1.489,-2.565 0.538,-4.885" />
            </g>
          </g>
        </g>
      </g>
    </g>
    <g
       clip-path="url(#clipPath86766)"
       id="g56931"
       transform="matrix(2.197686,0,0,-2.197686,-714.93741,2675.0741)">
      <g
         id="g56933">
        <g
           id="g56939">
          <g
             id="g56941">
            <path
               id="path56949"
               style="fill:url(#linearGradient56947);stroke:none"
               d="m 224.319,1185.003 4.078,7.945 c -1.904,-0.504 -3.775,2.18 -3.775,2.18 v 0 z" />
          </g>
        </g>
      </g>
    </g>
    <g
       clip-path="url(#clipPath86762)"
       id="g56951"
       transform="matrix(2.197686,0,0,-2.197686,-714.93741,2675.0741)">
      <g
         clip-path="url(#clipPath56957)"
         id="g56953">
        <g
           transform="translate(240.5563,1193.2198)"
           id="g56959">
          <path
             id="path56961"
             style="fill:#ffffff;fill-opacity:1;fill-rule:nonzero;stroke:none"
             d="m 0,0 c 0,0 -0.333,0.611 -0.147,0.96 0.186,0.35 0.256,1.352 0.256,1.352 0,0 0.63,-0.023 0.373,-1.282 l 1.09,2.178 c 0,0 0.749,-0.634 0.726,-1.58 C 2.274,0.681 1.387,-0.566 1.387,-0.566 Z" />
        </g>
        <g
           transform="translate(204.9763,1192.5785)"
           id="g56963">
          <path
             id="path56965"
             style="fill:#fdfefc;fill-opacity:1;fill-rule:nonzero;stroke:none"
             d="m 0,0 c 0,0 -0.109,-0.687 -0.47,-0.851 -0.361,-0.163 -1.027,-0.914 -1.027,-0.914 0,0 -0.485,0.402 0.486,1.243 l -2.192,-1.06 c 0,0 -0.207,0.959 0.389,1.695 0.597,0.735 2.061,1.182 2.061,1.182 z" />
        </g>
      </g>
    </g>
    <g
       clip-path="url(#clipPath86758)"
       id="g56967"
       transform="matrix(2.197686,0,0,-2.197686,-714.93741,2675.0741)">
      <g
         id="g56969">
        <g
           id="g56975">
          <g
             id="g56977">
            <path
               id="path56985"
               style="fill:url(#linearGradient56983);stroke:none"
               d="m 214.242,1182.411 c -0.742,-1.244 -2.387,-6.476 3.678,-6.476 v 0 c 6.064,0 15.536,3.597 15.536,3.597 v 0 c 4.318,-1.295 13.219,1.704 13.219,1.704 v 0 1.175 z" />
          </g>
        </g>
      </g>
    </g>
  </g>
</svg>
