<svg xmlns="http://www.w3.org/2000/svg" xmlns:xlink="http://www.w3.org/1999/xlink" viewBox="0 0 1000.59 705.47"><defs><style>.cls-1{fill:none;}.cls-2{fill:url(#radial-gradient);}.cls-3{opacity:0.75;}.cls-4{fill:#244896;}.cls-5{fill:#fefffe;}.cls-6{clip-path:url(#clip-path);}.cls-7{fill:#192a6b;}.cls-8{fill:#1a2a6b;}.cls-9{fill:#1a2b6c;}.cls-10{fill:#1b2b6c;}.cls-11{fill:#1b2b6d;}.cls-12{fill:#1b2b6e;}.cls-13{fill:#1c2b6e;}.cls-14{fill:#1c2b6f;}.cls-15{fill:#1d2b70;}.cls-16{fill:#1d2c71;}.cls-17{fill:#1e2c71;}.cls-18{fill:#1e2c72;}.cls-19{fill:#1f2c73;}.cls-20{fill:#1f2c74;}.cls-21{fill:#202c75;}.cls-22{fill:#202d75;}.cls-23{fill:#202d76;}.cls-24{fill:#212d76;}.cls-25{fill:#212d77;}.cls-26{fill:#222d77;}.cls-27{fill:#222d78;}.cls-28{fill:#222d79;}.cls-29{fill:#232d79;}.cls-30{fill:#232d7a;}.cls-31{fill:#242d7b;}.cls-32{fill:#252d7c;}.cls-33{fill:#252e7d;}.cls-34{fill:#262e7d;}.cls-35{fill:#262e7e;}.cls-36{fill:#262e7f;}.cls-37{fill:#272e7f;}.cls-38{fill:#272e80;}.cls-39{fill:#282e80;}.cls-40{fill:#282e81;}.cls-41{fill:#292e82;}.cls-42{fill:#292e83;}.cls-43{fill:#2a2e83;}.cls-44{fill:#2a2e84;}.cls-45{fill:#2b2e85;}.cls-46{fill:#2c2e86;}.cls-47{fill:#2c2e87;}.cls-48{fill:#2d2e87;}.cls-49{clip-path:url(#clip-path-2);}.cls-50{clip-path:url(#clip-path-3);}.cls-51{fill:url(#linear-gradient);}.cls-52{fill:url(#linear-gradient-2);}.cls-53{fill:url(#linear-gradient-3);}.cls-54{fill:url(#linear-gradient-4);}.cls-55{fill:url(#linear-gradient-5);}.cls-56{fill:url(#linear-gradient-6);}.cls-57{fill:url(#linear-gradient-7);}.cls-58{fill:url(#linear-gradient-8);}.cls-59{fill:url(#linear-gradient-9);}.cls-60{fill:url(#linear-gradient-10);}.cls-61{fill:url(#linear-gradient-11);}.cls-62{fill:url(#linear-gradient-12);}</style><radialGradient id="radial-gradient" cx="1559.14" cy="3381.27" r="1746.34" gradientTransform="translate(-175.63 -527.25) scale(0.43 0.26)" gradientUnits="userSpaceOnUse"><stop offset="0" stop-color="#008acf"/><stop offset="1" stop-color="#2a3e8a"/></radialGradient><clipPath id="clip-path"><path class="cls-1" d="M605.46,649.62A8.58,8.58,0,1,0,614,658.2,8.58,8.58,0,0,0,605.46,649.62Z"/></clipPath><clipPath id="clip-path-2"><path class="cls-1" d="M891.79,387.43a8.58,8.58,0,1,0,8.58,8.57A8.58,8.58,0,0,0,891.79,387.43Z"/></clipPath><clipPath id="clip-path-3"><path class="cls-1" d="M153.24,588a8.58,8.58,0,1,0,8.58,8.58A8.58,8.58,0,0,0,153.24,588Z"/></clipPath><linearGradient id="linear-gradient" x1="416.81" y1="93.22" x2="416.81" y2="288.94" gradientUnits="userSpaceOnUse"><stop offset="0" stop-color="#192a6b"/><stop offset="1" stop-color="#2d2e87"/></linearGradient><linearGradient id="linear-gradient-2" x1="316.57" y1="-28.16" x2="358.11" y2="105.41" gradientTransform="translate(81.54 56.73) rotate(10)" gradientUnits="userSpaceOnUse"><stop offset="0" stop-color="#242e7c"/><stop offset="1" stop-color="#333b8f"/></linearGradient><linearGradient id="linear-gradient-3" x1="330.88" y1="-33.04" x2="330.88" y2="-91.65" gradientTransform="translate(81.54 56.73) rotate(10)" xlink:href="#linear-gradient"/><linearGradient id="linear-gradient-4" x1="353.14" y1="-23.79" x2="326.05" y2="-4.82" gradientTransform="translate(81.54 56.73) rotate(10)" gradientUnits="userSpaceOnUse"><stop offset="0" stop-color="#009fe3"/><stop offset="1" stop-color="#fff" stop-opacity="0"/></linearGradient><linearGradient id="linear-gradient-5" x1="330.22" y1="94.29" x2="330.22" y2="-2.96" gradientTransform="translate(81.54 56.73) rotate(10)" gradientUnits="userSpaceOnUse"><stop offset="0" stop-color="#f9b233"/><stop offset="1" stop-color="#ffde00"/></linearGradient><linearGradient id="linear-gradient-6" x1="667.84" y1="514.89" x2="731.07" y2="504.71" gradientTransform="translate(-237.2 -50.35) rotate(-26.35)" gradientUnits="userSpaceOnUse"><stop offset="0" stop-color="#009fe3"/><stop offset="1" stop-color="#fff"/></linearGradient><linearGradient id="linear-gradient-7" x1="199.82" y1="151.35" x2="244.31" y2="144.19" gradientTransform="matrix(0.97, 0.26, -0.26, 0.97, 26.86, 75.09)" xlink:href="#linear-gradient-6"/><linearGradient id="linear-gradient-8" x1="395.39" y1="303.76" x2="395.39" y2="315.52" gradientTransform="translate(148.29 116.24) rotate(14.82)" xlink:href="#linear-gradient"/><linearGradient id="linear-gradient-9" x1="410.61" y1="275.72" x2="410.61" y2="499.31" xlink:href="#linear-gradient"/><linearGradient id="linear-gradient-10" x1="380.41" y1="466.04" x2="380.41" y2="723.24" xlink:href="#linear-gradient"/><linearGradient id="linear-gradient-11" x1="-57.05" y1="33.14" x2="-57.05" y2="44.85" gradientTransform="matrix(0.56, 0.83, -0.83, 0.56, 358.35, 521.33)" xlink:href="#linear-gradient"/><linearGradient id="linear-gradient-12" x1="361.6" y1="275.26" x2="361.6" y2="478.6" xlink:href="#linear-gradient"/></defs><title>Ресурс 6</title><g id="Слой_2" data-name="Слой 2"><g id="Слой_1-2" data-name="Слой 1"><rect class="cls-2" x="0.59" y="52.64" width="1000" height="600"/><g class="cls-3"><path class="cls-4" d="M953.73,263.79l.07-46.69-39.58-5.7a201,201,0,0,0-12.3-46.18l31.5-24.62-23.28-40.47L873,115a203.19,203.19,0,0,0-33.72-33.82l15-37.12-40.4-23.4L789.12,52.1A200.74,200.74,0,0,0,743,39.67L737.4.07,690.71,0,685,39.58a201.44,201.44,0,0,0-46.19,12.3l-24.62-31.5L573.74,43.67l14.88,37.16a203.19,203.19,0,0,0-33.82,33.72l-37.12-15L494.28,140l31.43,24.71a201.19,201.19,0,0,0-12.43,46.15l-39.6,5.57-.07,46.69,39.58,5.7A201.5,201.5,0,0,0,525.49,315L494,339.59l23.29,40.47,37.16-14.88A203.19,203.19,0,0,0,588.16,399l-15,37.12,40.4,23.4,24.71-31.42a200.67,200.67,0,0,0,46.15,12.42l5.58,39.6,46.69.07,5.69-39.58a201,201,0,0,0,46.18-12.3l24.62,31.5,40.47-23.29-14.88-37.16a203.19,203.19,0,0,0,33.82-33.72l37.12,15,23.41-40.4-31.43-24.72a200.67,200.67,0,0,0,12.42-46.15ZM713.6,316.34A76.25,76.25,0,1,1,790,240.21,76.24,76.24,0,0,1,713.6,316.34Z"/><path class="cls-4" d="M343.52,325.54l0-28.8-24.41-3.51a123.77,123.77,0,0,0-7.59-28.48L331,249.56l-14.36-25-22.92,9.18a125.91,125.91,0,0,0-20.8-20.86L282.15,190l-24.92-14.44L242,195a124.32,124.32,0,0,0-28.47-7.67l-3.44-24.43-28.8,0-3.51,24.42a124.48,124.48,0,0,0-28.49,7.58L134.1,175.4l-25,14.37,9.18,22.92a125.53,125.53,0,0,0-20.86,20.8l-22.9-9.24L60.12,249.17l19.39,15.24a123.31,123.31,0,0,0-7.67,28.47l-24.43,3.44,0,28.8,24.42,3.51a123.88,123.88,0,0,0,7.58,28.48L59.94,372.3l14.37,25,22.92-9.17A125.91,125.91,0,0,0,118,409l-9.25,22.89,24.93,14.44L149,426.89a124.38,124.38,0,0,0,28.46,7.67L180.85,459l28.8,0,3.52-24.42A124.39,124.39,0,0,0,241.65,427l15.19,19.43,25-14.37-9.17-22.92a125.91,125.91,0,0,0,20.86-20.8l22.89,9.24,14.44-24.92-19.39-15.24A124.32,124.32,0,0,0,319.1,329ZM195.34,400a89.08,89.08,0,1,1,89.21-88.95A89.08,89.08,0,0,1,195.34,400Z"/><path class="cls-4" d="M560.54,518.18a140.84,140.84,0,0,0-26.66-64.68l16.55-22-23-23-22,16.49a140.75,140.75,0,0,0-64.6-26.86L437,370.85l-32.54-.05-3.92,27.26a140.84,140.84,0,0,0-64.68,26.66l-22-16.55-23,23,16.49,22a140.73,140.73,0,0,0-26.85,64.6l-27.27,3.84-.05,32.54,27.26,3.92a140.71,140.71,0,0,0,26.67,64.68l-16.56,22,23,23,22-16.49a140.77,140.77,0,0,0,64.61,26.85L404,705.42l32.54.05,3.92-27.26a140.75,140.75,0,0,0,64.68-26.67l22,16.56,23-23-16.5-22a140.78,140.78,0,0,0,26.86-64.61l27.27-3.84,0-32.54Zm-140.16,79a59.08,59.08,0,1,1,59.17-59A59.06,59.06,0,0,1,420.38,597.21Z"/></g><polygon class="cls-5" points="2.35 681.21 0 676.8 153.87 594.85 154.67 594.96 604.64 658.06 890.82 393.51 1000 393.51 1000 398.5 892.77 398.5 606.29 663.33 605.12 663.17 154.78 600.02 2.35 681.21"/><path class="cls-5" d="M605.46,637.39a20.81,20.81,0,1,0,20.81,20.81A20.81,20.81,0,0,0,605.46,637.39Z"/><g class="cls-6"><path class="cls-7" d="M596.88,649.62v0Z"/><rect class="cls-7" x="596.88" y="649.62" width="0.19" height="17.16"/><rect class="cls-8" x="597.08" y="649.62" width="0.19" height="17.16"/><rect class="cls-8" x="597.27" y="649.62" width="0.19" height="17.16"/><rect class="cls-9" x="597.46" y="649.62" width="0.19" height="17.16"/><rect class="cls-9" x="597.65" y="649.62" width="0.19" height="17.16"/><rect class="cls-10" x="597.85" y="649.62" width="0.19" height="17.16"/><rect class="cls-11" x="598.04" y="649.62" width="0.19" height="17.16"/><rect class="cls-11" x="598.23" y="649.62" width="0.19" height="17.16"/><rect class="cls-12" x="598.43" y="649.62" width="0.19" height="17.16"/><rect class="cls-12" x="598.62" y="649.62" width="0.19" height="17.16"/><rect class="cls-13" x="598.81" y="649.62" width="0.19" height="17.16"/><rect class="cls-14" x="599.01" y="649.62" width="0.19" height="17.16"/><rect class="cls-14" x="599.2" y="649.62" width="0.19" height="17.16"/><rect class="cls-14" x="599.39" y="649.62" width="0.19" height="17.16"/><rect class="cls-15" x="599.58" y="649.62" width="0.19" height="17.16"/><rect class="cls-15" x="599.78" y="649.62" width="0.19" height="17.16"/><rect class="cls-15" x="599.97" y="649.62" width="0.19" height="17.16"/><rect class="cls-16" x="600.16" y="649.62" width="0.19" height="17.16"/><rect class="cls-17" x="600.35" y="649.62" width="0.19" height="17.16"/><rect class="cls-17" x="600.55" y="649.62" width="0.19" height="17.16"/><rect class="cls-18" x="600.74" y="649.62" width="0.19" height="17.16"/><rect class="cls-18" x="600.93" y="649.62" width="0.19" height="17.16"/><rect class="cls-18" x="601.13" y="649.62" width="0.19" height="17.16"/><rect class="cls-19" x="601.32" y="649.62" width="0.19" height="17.16"/><rect class="cls-19" x="601.51" y="649.62" width="0.19" height="17.16"/><rect class="cls-19" x="601.7" y="649.62" width="0.19" height="17.16"/><rect class="cls-20" x="601.9" y="649.62" width="0.19" height="17.16"/><rect class="cls-20" x="602.09" y="649.62" width="0.19" height="17.16"/><rect class="cls-21" x="602.28" y="649.62" width="0.19" height="17.16"/><rect class="cls-21" x="602.48" y="649.62" width="0.19" height="17.16"/><rect class="cls-22" x="602.67" y="649.62" width="0.19" height="17.16"/><rect class="cls-23" x="602.86" y="649.62" width="0.19" height="17.16"/><rect class="cls-24" x="603.05" y="649.62" width="0.19" height="17.16"/><rect class="cls-24" x="603.25" y="649.62" width="0.19" height="17.16"/><rect class="cls-25" x="603.44" y="649.62" width="0.19" height="17.16"/><rect class="cls-25" x="603.63" y="649.62" width="0.19" height="17.16"/><rect class="cls-26" x="603.82" y="649.62" width="0.19" height="17.16"/><rect class="cls-27" x="604.02" y="649.62" width="0.19" height="17.16"/><rect class="cls-27" x="604.21" y="649.62" width="0.19" height="17.16"/><rect class="cls-27" x="604.4" y="649.62" width="0.19" height="17.16"/><rect class="cls-28" x="604.6" y="649.62" width="0.19" height="17.16"/><rect class="cls-29" x="604.79" y="649.62" width="0.19" height="17.16"/><rect class="cls-29" x="604.98" y="649.62" width="0.19" height="17.16"/><rect class="cls-30" x="605.17" y="649.62" width="0.19" height="17.16"/><rect class="cls-30" x="605.37" y="649.62" width="0.19" height="17.16"/><rect class="cls-30" x="605.56" y="649.62" width="0.19" height="17.16"/><rect class="cls-31" x="605.75" y="649.62" width="0.19" height="17.16"/><rect class="cls-31" x="605.95" y="649.62" width="0.19" height="17.16"/><rect class="cls-31" x="606.14" y="649.62" width="0.19" height="17.16"/><rect class="cls-31" x="606.33" y="649.62" width="0.19" height="17.16"/><rect class="cls-32" x="606.52" y="649.62" width="0.19" height="17.16"/><rect class="cls-32" x="606.72" y="649.62" width="0.19" height="17.16"/><rect class="cls-32" x="606.91" y="649.62" width="0.19" height="17.16"/><rect class="cls-33" x="607.1" y="649.62" width="0.19" height="17.16"/><rect class="cls-33" x="607.3" y="649.62" width="0.19" height="17.16"/><rect class="cls-34" x="607.49" y="649.62" width="0.19" height="17.16"/><rect class="cls-35" x="607.68" y="649.62" width="0.19" height="17.16"/><rect class="cls-35" x="607.87" y="649.62" width="0.19" height="17.16"/><rect class="cls-35" x="608.07" y="649.62" width="0.19" height="17.16"/><rect class="cls-36" x="608.26" y="649.62" width="0.19" height="17.16"/><rect class="cls-37" x="608.45" y="649.62" width="0.19" height="17.16"/><rect class="cls-37" x="608.64" y="649.62" width="0.19" height="17.16"/><rect class="cls-37" x="608.84" y="649.62" width="0.19" height="17.16"/><rect class="cls-38" x="609.03" y="649.62" width="0.19" height="17.16"/><rect class="cls-39" x="609.22" y="649.62" width="0.19" height="17.16"/><rect class="cls-39" x="609.42" y="649.62" width="0.19" height="17.16"/><rect class="cls-40" x="609.61" y="649.62" width="0.19" height="17.16"/><rect class="cls-40" x="609.8" y="649.62" width="0.19" height="17.16"/><rect class="cls-40" x="609.99" y="649.62" width="0.19" height="17.16"/><rect class="cls-41" x="610.19" y="649.62" width="0.19" height="17.16"/><rect class="cls-41" x="610.38" y="649.62" width="0.19" height="17.16"/><rect class="cls-41" x="610.57" y="649.62" width="0.19" height="17.16"/><rect class="cls-42" x="610.76" y="649.62" width="0.19" height="17.16"/><rect class="cls-42" x="610.96" y="649.62" width="0.19" height="17.16"/><rect class="cls-43" x="611.15" y="649.62" width="0.19" height="17.16"/><rect class="cls-43" x="611.34" y="649.62" width="0.19" height="17.16"/><rect class="cls-44" x="611.54" y="649.62" width="0.19" height="17.16"/><rect class="cls-44" x="611.73" y="649.62" width="0.19" height="17.16"/><rect class="cls-44" x="611.92" y="649.62" width="0.19" height="17.16"/><rect class="cls-45" x="612.11" y="649.62" width="0.19" height="17.16"/><rect class="cls-45" x="612.31" y="649.62" width="0.19" height="17.16"/><rect class="cls-45" x="612.5" y="649.62" width="0.19" height="17.16"/><rect class="cls-45" x="612.69" y="649.62" width="0.19" height="17.16"/><rect class="cls-46" x="612.89" y="649.62" width="0.19" height="17.16"/><rect class="cls-46" x="613.08" y="649.62" width="0.19" height="17.16"/><rect class="cls-46" x="613.27" y="649.62" width="0.19" height="17.16"/><rect class="cls-47" x="613.46" y="649.62" width="0.19" height="17.16"/><rect class="cls-47" x="613.66" y="649.62" width="0.19" height="17.16"/><rect class="cls-48" x="613.85" y="649.62" width="0.19" height="17.16"/><path class="cls-48" d="M614,666.77v0Z"/></g><circle class="cls-5" cx="891.79" cy="396" r="20.81"/><g class="cls-49"><path class="cls-7" d="M883.21,387.43v0Z"/><rect class="cls-7" x="883.21" y="387.43" width="0.19" height="17.16"/><rect class="cls-8" x="883.41" y="387.43" width="0.19" height="17.16"/><rect class="cls-8" x="883.6" y="387.43" width="0.19" height="17.16"/><rect class="cls-9" x="883.79" y="387.43" width="0.19" height="17.16"/><rect class="cls-9" x="883.99" y="387.43" width="0.19" height="17.16"/><rect class="cls-10" x="884.18" y="387.43" width="0.19" height="17.16"/><rect class="cls-11" x="884.37" y="387.43" width="0.19" height="17.16"/><rect class="cls-11" x="884.56" y="387.43" width="0.19" height="17.16"/><rect class="cls-12" x="884.76" y="387.43" width="0.19" height="17.16"/><rect class="cls-12" x="884.95" y="387.43" width="0.19" height="17.16"/><rect class="cls-13" x="885.14" y="387.43" width="0.19" height="17.16"/><rect class="cls-14" x="885.33" y="387.43" width="0.19" height="17.16"/><rect class="cls-14" x="885.53" y="387.43" width="0.19" height="17.16"/><rect class="cls-14" x="885.72" y="387.43" width="0.19" height="17.16"/><rect class="cls-15" x="885.91" y="387.43" width="0.19" height="17.16"/><rect class="cls-15" x="886.11" y="387.43" width="0.19" height="17.16"/><rect class="cls-15" x="886.3" y="387.43" width="0.19" height="17.16"/><rect class="cls-16" x="886.49" y="387.43" width="0.19" height="17.16"/><rect class="cls-17" x="886.68" y="387.43" width="0.19" height="17.16"/><rect class="cls-17" x="886.88" y="387.43" width="0.19" height="17.16"/><rect class="cls-18" x="887.07" y="387.43" width="0.19" height="17.16"/><rect class="cls-18" x="887.26" y="387.43" width="0.19" height="17.16"/><rect class="cls-18" x="887.46" y="387.43" width="0.19" height="17.16"/><rect class="cls-19" x="887.65" y="387.43" width="0.19" height="17.16"/><rect class="cls-19" x="887.84" y="387.43" width="0.19" height="17.16"/><rect class="cls-19" x="888.03" y="387.43" width="0.19" height="17.16"/><rect class="cls-20" x="888.23" y="387.43" width="0.19" height="17.16"/><rect class="cls-20" x="888.42" y="387.43" width="0.19" height="17.16"/><rect class="cls-21" x="888.61" y="387.43" width="0.19" height="17.16"/><rect class="cls-21" x="888.81" y="387.43" width="0.19" height="17.16"/><rect class="cls-22" x="889" y="387.43" width="0.19" height="17.16"/><rect class="cls-23" x="889.19" y="387.43" width="0.19" height="17.16"/><rect class="cls-24" x="889.38" y="387.43" width="0.19" height="17.16"/><rect class="cls-24" x="889.58" y="387.43" width="0.19" height="17.16"/><rect class="cls-25" x="889.77" y="387.43" width="0.19" height="17.16"/><rect class="cls-25" x="889.96" y="387.43" width="0.19" height="17.16"/><rect class="cls-26" x="890.15" y="387.43" width="0.19" height="17.16"/><rect class="cls-27" x="890.35" y="387.43" width="0.19" height="17.16"/><rect class="cls-27" x="890.54" y="387.43" width="0.19" height="17.16"/><rect class="cls-27" x="890.73" y="387.43" width="0.19" height="17.16"/><rect class="cls-28" x="890.93" y="387.43" width="0.19" height="17.16"/><rect class="cls-29" x="891.12" y="387.43" width="0.19" height="17.16"/><rect class="cls-29" x="891.31" y="387.43" width="0.19" height="17.16"/><rect class="cls-30" x="891.5" y="387.43" width="0.19" height="17.16"/><rect class="cls-30" x="891.7" y="387.43" width="0.19" height="17.16"/><rect class="cls-30" x="891.89" y="387.43" width="0.19" height="17.16"/><rect class="cls-31" x="892.08" y="387.43" width="0.19" height="17.16"/><rect class="cls-31" x="892.28" y="387.43" width="0.19" height="17.16"/><rect class="cls-31" x="892.47" y="387.43" width="0.19" height="17.16"/><rect class="cls-31" x="892.66" y="387.43" width="0.19" height="17.16"/><rect class="cls-32" x="892.85" y="387.43" width="0.19" height="17.16"/><rect class="cls-32" x="893.05" y="387.43" width="0.19" height="17.16"/><rect class="cls-32" x="893.24" y="387.43" width="0.19" height="17.16"/><rect class="cls-33" x="893.43" y="387.43" width="0.19" height="17.16"/><rect class="cls-33" x="893.63" y="387.43" width="0.19" height="17.16"/><rect class="cls-34" x="893.82" y="387.43" width="0.19" height="17.16"/><rect class="cls-35" x="894.01" y="387.43" width="0.19" height="17.16"/><rect class="cls-35" x="894.2" y="387.43" width="0.19" height="17.16"/><rect class="cls-35" x="894.4" y="387.43" width="0.19" height="17.16"/><rect class="cls-36" x="894.59" y="387.43" width="0.19" height="17.16"/><rect class="cls-37" x="894.78" y="387.43" width="0.19" height="17.16"/><rect class="cls-37" x="894.97" y="387.43" width="0.19" height="17.16"/><rect class="cls-37" x="895.17" y="387.43" width="0.19" height="17.16"/><rect class="cls-38" x="895.36" y="387.43" width="0.19" height="17.16"/><rect class="cls-39" x="895.55" y="387.43" width="0.19" height="17.16"/><rect class="cls-39" x="895.75" y="387.43" width="0.19" height="17.16"/><rect class="cls-40" x="895.94" y="387.43" width="0.19" height="17.16"/><rect class="cls-40" x="896.13" y="387.43" width="0.19" height="17.16"/><rect class="cls-40" x="896.32" y="387.43" width="0.19" height="17.16"/><rect class="cls-41" x="896.52" y="387.43" width="0.19" height="17.16"/><rect class="cls-41" x="896.71" y="387.43" width="0.19" height="17.16"/><rect class="cls-41" x="896.9" y="387.43" width="0.19" height="17.16"/><rect class="cls-42" x="897.1" y="387.43" width="0.19" height="17.16"/><rect class="cls-42" x="897.29" y="387.43" width="0.19" height="17.16"/><rect class="cls-43" x="897.48" y="387.43" width="0.19" height="17.16"/><rect class="cls-43" x="897.67" y="387.43" width="0.19" height="17.16"/><rect class="cls-44" x="897.87" y="387.43" width="0.19" height="17.16"/><rect class="cls-44" x="898.06" y="387.43" width="0.19" height="17.16"/><rect class="cls-44" x="898.25" y="387.43" width="0.19" height="17.16"/><rect class="cls-45" x="898.44" y="387.43" width="0.19" height="17.16"/><rect class="cls-45" x="898.64" y="387.43" width="0.19" height="17.16"/><rect class="cls-45" x="898.83" y="387.43" width="0.19" height="17.16"/><rect class="cls-45" x="899.02" y="387.43" width="0.19" height="17.16"/><rect class="cls-46" x="899.22" y="387.43" width="0.19" height="17.16"/><rect class="cls-46" x="899.41" y="387.43" width="0.19" height="17.16"/><rect class="cls-46" x="899.6" y="387.43" width="0.19" height="17.16"/><rect class="cls-47" x="899.79" y="387.43" width="0.19" height="17.16"/><rect class="cls-47" x="899.99" y="387.43" width="0.19" height="17.16"/><rect class="cls-48" x="900.18" y="387.43" width="0.19" height="17.16"/><path class="cls-48" d="M900.37,404.58v0Z"/></g><path class="cls-5" d="M153.24,575.79a20.81,20.81,0,1,0,20.81,20.81A20.81,20.81,0,0,0,153.24,575.79Z"/><g class="cls-50"><rect class="cls-7" x="144.66" y="588.02" width="0.19" height="17.16"/><rect class="cls-8" x="144.85" y="588.02" width="0.19" height="17.16"/><rect class="cls-8" x="145.05" y="588.02" width="0.19" height="17.16"/><rect class="cls-9" x="145.24" y="588.02" width="0.19" height="17.16"/><rect class="cls-9" x="145.43" y="588.02" width="0.19" height="17.16"/><rect class="cls-10" x="145.62" y="588.02" width="0.19" height="17.16"/><rect class="cls-11" x="145.82" y="588.02" width="0.19" height="17.16"/><rect class="cls-11" x="146.01" y="588.02" width="0.19" height="17.16"/><rect class="cls-12" x="146.2" y="588.02" width="0.19" height="17.16"/><rect class="cls-12" x="146.39" y="588.02" width="0.19" height="17.16"/><rect class="cls-13" x="146.59" y="588.02" width="0.19" height="17.16"/><rect class="cls-14" x="146.78" y="588.02" width="0.19" height="17.16"/><rect class="cls-14" x="146.97" y="588.02" width="0.19" height="17.16"/><rect class="cls-14" x="147.17" y="588.02" width="0.19" height="17.16"/><rect class="cls-15" x="147.36" y="588.02" width="0.19" height="17.16"/><rect class="cls-15" x="147.55" y="588.02" width="0.19" height="17.16"/><rect class="cls-15" x="147.74" y="588.02" width="0.19" height="17.16"/><rect class="cls-16" x="147.94" y="588.02" width="0.19" height="17.16"/><rect class="cls-17" x="148.13" y="588.02" width="0.19" height="17.16"/><rect class="cls-17" x="148.32" y="588.02" width="0.19" height="17.16"/><rect class="cls-18" x="148.52" y="588.02" width="0.19" height="17.16"/><rect class="cls-18" x="148.71" y="588.02" width="0.19" height="17.16"/><rect class="cls-18" x="148.9" y="588.02" width="0.19" height="17.16"/><rect class="cls-19" x="149.09" y="588.02" width="0.19" height="17.16"/><rect class="cls-19" x="149.29" y="588.02" width="0.19" height="17.16"/><rect class="cls-19" x="149.48" y="588.02" width="0.19" height="17.16"/><rect class="cls-20" x="149.67" y="588.02" width="0.19" height="17.16"/><rect class="cls-20" x="149.87" y="588.02" width="0.19" height="17.16"/><rect class="cls-21" x="150.06" y="588.02" width="0.19" height="17.16"/><rect class="cls-21" x="150.25" y="588.02" width="0.19" height="17.16"/><rect class="cls-22" x="150.44" y="588.02" width="0.19" height="17.16"/><rect class="cls-23" x="150.64" y="588.02" width="0.19" height="17.16"/><rect class="cls-24" x="150.83" y="588.02" width="0.19" height="17.16"/><rect class="cls-24" x="151.02" y="588.02" width="0.19" height="17.16"/><rect class="cls-25" x="151.21" y="588.02" width="0.19" height="17.16"/><rect class="cls-25" x="151.41" y="588.02" width="0.19" height="17.16"/><rect class="cls-26" x="151.6" y="588.02" width="0.19" height="17.16"/><rect class="cls-27" x="151.79" y="588.02" width="0.19" height="17.16"/><rect class="cls-27" x="151.99" y="588.02" width="0.19" height="17.16"/><rect class="cls-27" x="152.18" y="588.02" width="0.19" height="17.16"/><rect class="cls-28" x="152.37" y="588.02" width="0.19" height="17.16"/><rect class="cls-29" x="152.56" y="588.02" width="0.19" height="17.16"/><rect class="cls-29" x="152.76" y="588.02" width="0.19" height="17.16"/><rect class="cls-30" x="152.95" y="588.02" width="0.19" height="17.16"/><rect class="cls-30" x="153.14" y="588.02" width="0.19" height="17.16"/><rect class="cls-30" x="153.34" y="588.02" width="0.19" height="17.16"/><rect class="cls-31" x="153.53" y="588.02" width="0.19" height="17.16"/><rect class="cls-31" x="153.72" y="588.02" width="0.19" height="17.16"/><rect class="cls-31" x="153.91" y="588.02" width="0.19" height="17.16"/><rect class="cls-31" x="154.11" y="588.02" width="0.19" height="17.16"/><rect class="cls-32" x="154.3" y="588.02" width="0.19" height="17.16"/><rect class="cls-32" x="154.49" y="588.02" width="0.19" height="17.16"/><rect class="cls-32" x="154.68" y="588.02" width="0.19" height="17.16"/><rect class="cls-33" x="154.88" y="588.02" width="0.19" height="17.16"/><rect class="cls-33" x="155.07" y="588.02" width="0.19" height="17.16"/><rect class="cls-34" x="155.26" y="588.02" width="0.19" height="17.16"/><rect class="cls-35" x="155.46" y="588.02" width="0.19" height="17.16"/><rect class="cls-35" x="155.65" y="588.02" width="0.19" height="17.16"/><rect class="cls-35" x="155.84" y="588.02" width="0.19" height="17.16"/><rect class="cls-36" x="156.03" y="588.02" width="0.19" height="17.16"/><rect class="cls-37" x="156.23" y="588.02" width="0.19" height="17.16"/><rect class="cls-37" x="156.42" y="588.02" width="0.19" height="17.16"/><rect class="cls-37" x="156.61" y="588.02" width="0.19" height="17.16"/><rect class="cls-38" x="156.81" y="588.02" width="0.19" height="17.16"/><rect class="cls-39" x="157" y="588.02" width="0.19" height="17.16"/><rect class="cls-39" x="157.19" y="588.02" width="0.19" height="17.16"/><rect class="cls-40" x="157.38" y="588.02" width="0.19" height="17.16"/><rect class="cls-40" x="157.58" y="588.02" width="0.19" height="17.16"/><rect class="cls-40" x="157.77" y="588.02" width="0.19" height="17.16"/><rect class="cls-41" x="157.96" y="588.02" width="0.19" height="17.16"/><rect class="cls-41" x="158.16" y="588.02" width="0.19" height="17.16"/><rect class="cls-41" x="158.35" y="588.02" width="0.19" height="17.16"/><rect class="cls-42" x="158.54" y="588.02" width="0.19" height="17.16"/><rect class="cls-42" x="158.73" y="588.02" width="0.19" height="17.16"/><rect class="cls-43" x="158.93" y="588.02" width="0.19" height="17.16"/><rect class="cls-43" x="159.12" y="588.02" width="0.19" height="17.16"/><rect class="cls-44" x="159.31" y="588.02" width="0.19" height="17.16"/><rect class="cls-44" x="159.5" y="588.02" width="0.19" height="17.16"/><rect class="cls-44" x="159.7" y="588.02" width="0.19" height="17.16"/><rect class="cls-45" x="159.89" y="588.02" width="0.19" height="17.16"/><rect class="cls-45" x="160.08" y="588.02" width="0.19" height="17.16"/><rect class="cls-45" x="160.28" y="588.02" width="0.19" height="17.16"/><rect class="cls-45" x="160.47" y="588.02" width="0.19" height="17.16"/><rect class="cls-46" x="160.66" y="588.02" width="0.19" height="17.16"/><rect class="cls-46" x="160.85" y="588.02" width="0.19" height="17.16"/><rect class="cls-46" x="161.05" y="588.02" width="0.19" height="17.16"/><rect class="cls-47" x="161.24" y="588.02" width="0.19" height="17.16"/><rect class="cls-47" x="161.43" y="588.02" width="0.19" height="17.16"/><rect class="cls-48" x="161.63" y="588.02" width="0.19" height="17.16"/><rect class="cls-48" x="161.82" y="588.02" height="17.16"/></g><path class="cls-51" d="M609.2,88.79l-58.9,48-71-17.86L370.84,99.75,343.66,95s-68,39.67-86.14,62.67-47,101-47,101l20.86,5.33s49-81.13,55.71-80.79,46.71-12,46.71-12l-1.51,11.67h0L321,270.66l106.7,18.82,33.39-110.32L558.14,183c11.1-8.33,64.93-78.25,64.93-78.25Z"/><polygon class="cls-52" points="380.22 101.41 370.83 99.75 361.74 131.8 382.9 153.23 374.85 176.06 417.72 214.89 444 172.05 436.63 155.47 447.24 134.9 442.53 112.39 430.86 110.34 380.22 101.41"/><path class="cls-5" d="M444.56,110.48,449.37,30s-31.26-12.4-43.55-1.29-25.6,72.71-25.6,72.71l37.5,113.48,13.14-104.55Z"/><path class="cls-53" d="M449.37,30s-31.26-12.4-43.55-1.29c-7.68,7-15.76,33.61-20.74,52.63h0l14.18-11.24S389.92,64.16,394.9,60s7.87,1.38,7.87,1.38l12.76-23.57,33.35.35Z"/><path class="cls-54" d="M430.86,110.34s-24.9-16-27.6-33.64c0,0-6.15,34.45,25.67,52Z"/><path class="cls-55" d="M380.22,101.41s31.57,22.2,50.64,8.93L417.72,214.89Z"/><path class="cls-56" d="M609.2,88.79s3.75-9.31,12.1-14.94,27.64-18,27.64-18,2.41,2.06-2.64,7.81A49.67,49.67,0,0,1,637.4,72s10.38,11.58,7.19,19.82c-3,7.8-21.53,12.92-21.53,12.92Z"/><path class="cls-5" d="M609.2,88.79s4-8.29,8-11.61,18.94,6.7,18.94,6.7h0A7.09,7.09,0,0,1,629.26,88l-5.44-.36s3.4,9.15-.76,17Z"/><path class="cls-57" d="M210.55,258.6l20.86,5.33s8.26,9.64,7.13,13.88a9.72,9.72,0,0,1-4.62,5.95s-1,10.71-7.43,10.88-24.82-9-24.37-16.4S210.55,258.6,210.55,258.6Z"/><path class="cls-58" d="M430.89,496l-8.37,19.09,54.63,14.45S459,512,445.23,499.93Z"/><path class="cls-59" d="M321,270.66s-3,25.7,13.68,41.22C348.75,325,455.3,380.47,455.3,380.47S435.54,406.54,430.89,496l14.34,3.89,55.2-128-72.74-82.42Z"/><path class="cls-60" d="M380.41,367.54A128.6,128.6,0,1,0,509,496.14,128.6,128.6,0,0,0,380.41,367.54Zm0,103.19a25.41,25.41,0,1,0,25.41,25.41A25.41,25.41,0,0,0,380.41,470.73Zm0,137.36a112,112,0,1,1,112-112A111.95,111.95,0,0,1,380.41,608.09Z"/><path class="cls-61" d="M292.34,466.89l-18.83,8.74,31.57,46.86s-2.07-25.23-4.47-43.33Z"/><path class="cls-62" d="M321,270.66s-3.67,25.55,8,44.69,62.44,76.58,62.44,76.58-41.63,2.49-99.07,74.91l8.27,12.32,130.25-72.72L414.79,287.2Z"/></g></g></svg>